<svg width="28" height="28" viewBox="0 0 28 28" fill="none" xmlns="http://www.w3.org/2000/svg">
<circle cx="14" cy="14" r="14" fill="white"/>
<path d="M11.1652 9.40628C12.012 8.85531 12.9484 8.57575 13.9744 8.57575C14.9895 8.57303 15.9258 8.85259 16.7862 9.41442L18.5884 7.61222C17.1879 6.53741 15.649 5.9973 13.9744 6.00001C12.2916 6.00272 10.7554 6.53741 9.36304 7.60951L11.1652 9.40628Z" fill="#0D0234"/>
<path d="M9.38999 16.8106C8.8173 15.9421 8.53232 15.003 8.53503 13.996C8.53774 12.9728 8.82002 12.0364 9.38456 11.1842L7.58779 9.3847C6.53198 10.7608 6.00272 12.297 6.00001 13.996C5.9973 15.6788 6.52927 17.215 7.59322 18.6101L9.38999 16.8106Z" fill="#0D0234"/>
<path d="M16.8018 18.5989C15.9469 19.1743 15.0105 19.4675 13.9927 19.4756C12.9586 19.4837 12.0113 19.1906 11.151 18.6044L9.35962 20.3957C10.752 21.4786 12.299 22.0133 14.0035 21.9998C15.689 21.9862 17.2198 21.4515 18.5959 20.393L16.8018 18.5989Z" fill="#0D0234"/>
<path d="M18.5747 11.1814C19.1528 12.0527 19.4351 13.0081 19.4243 14.0476C19.4134 15.0491 19.1284 15.9719 18.572 16.816L20.3715 18.6155C21.43 17.2367 21.9674 15.7059 21.981 14.0259C21.9945 12.3214 21.4598 10.7743 20.3769 9.38196L18.5747 11.1814Z" fill="#0D0234"/>
<path d="M20.3421 20.5259C20.3149 20.4988 20.3014 20.4662 20.3014 20.4309C20.3014 20.3956 20.3149 20.3631 20.3421 20.3359C20.3937 20.2843 20.4778 20.2843 20.5321 20.3359C20.5592 20.3631 20.5728 20.3956 20.5728 20.4309C20.5728 20.4662 20.5592 20.4988 20.5321 20.5259C20.5049 20.553 20.4724 20.5639 20.4371 20.5639C20.4018 20.5639 20.3692 20.5503 20.3421 20.5259ZM19.9621 20.1459C19.935 20.1188 19.9241 20.0862 19.9241 20.0509C19.9241 20.0156 19.9377 19.9831 19.9621 19.9559C20.0137 19.9044 20.1005 19.9044 20.1521 19.9559C20.1792 19.9831 20.1901 20.0156 20.1901 20.0509C20.1901 20.0862 20.1765 20.1188 20.1521 20.1459C20.125 20.1731 20.0924 20.1839 20.0571 20.1839C20.0245 20.1839 19.9892 20.1731 19.9621 20.1459ZM19.5848 19.7659C19.5577 19.7388 19.5441 19.7062 19.5441 19.6709C19.5441 19.6357 19.5577 19.6031 19.5848 19.576C19.6364 19.5244 19.7233 19.5244 19.7748 19.576C19.802 19.6031 19.8128 19.6357 19.8128 19.6709C19.8128 19.7062 19.7993 19.7388 19.7748 19.7659C19.7477 19.7931 19.7151 19.8067 19.6798 19.8067C19.6445 19.8067 19.6093 19.7931 19.5848 19.7659ZM19.2049 19.386C19.1777 19.3588 19.1669 19.3262 19.1669 19.291C19.1669 19.2557 19.1804 19.2231 19.2049 19.196C19.2564 19.1444 19.3433 19.1444 19.3948 19.196C19.422 19.2231 19.4328 19.2557 19.4328 19.291C19.4328 19.3262 19.4193 19.3588 19.3948 19.386C19.3677 19.4131 19.3351 19.4267 19.2998 19.4267C19.2646 19.4267 19.232 19.4131 19.2049 19.386ZM18.8249 19.0087C18.7977 18.9816 18.7842 18.949 18.7842 18.9137C18.7842 18.8784 18.7977 18.8458 18.8249 18.8187C18.8764 18.7671 18.9606 18.7671 19.0149 18.8187C19.042 18.8458 19.0529 18.8784 19.0529 18.9137C19.0529 18.949 19.0393 18.9816 19.0149 19.0087C18.9877 19.0358 18.9552 19.0467 18.9199 19.0467C18.8873 19.0467 18.852 19.0331 18.8249 19.0087ZM18.4476 18.6287C18.4205 18.6016 18.4069 18.569 18.4069 18.5337C18.4069 18.4984 18.4205 18.4659 18.4476 18.4387C18.4992 18.3872 18.5833 18.3872 18.6376 18.4387C18.6647 18.4659 18.6783 18.4984 18.6783 18.5337C18.6783 18.569 18.6647 18.6016 18.6376 18.6287C18.6105 18.6559 18.5779 18.6667 18.5426 18.6667C18.5073 18.6667 18.472 18.6559 18.4476 18.6287ZM18.0676 18.2487C18.0405 18.2216 18.0296 18.189 18.0296 18.1537C18.0296 18.1185 18.0432 18.0859 18.0676 18.0587C18.1192 18.0072 18.206 18.0072 18.2576 18.0587C18.2848 18.0859 18.2983 18.1185 18.2983 18.1537C18.2983 18.189 18.2848 18.2216 18.2576 18.2487C18.2305 18.2759 18.1979 18.2894 18.1626 18.2894C18.1273 18.2894 18.0948 18.2759 18.0676 18.2487ZM17.6876 17.8715C17.6605 17.8443 17.6469 17.8118 17.6469 17.7765C17.6469 17.7412 17.6605 17.7086 17.6876 17.6815C17.7392 17.6299 17.8261 17.6299 17.8776 17.6815C17.9048 17.7086 17.9156 17.7412 17.9156 17.7765C17.9156 17.8118 17.9021 17.8443 17.8776 17.8715C17.8505 17.8986 17.8179 17.9095 17.7826 17.9095C17.7501 17.9095 17.7148 17.8959 17.6876 17.8715ZM17.3077 17.4915C17.2805 17.4643 17.267 17.4318 17.267 17.3965C17.267 17.3612 17.2805 17.3286 17.3077 17.3015C17.3592 17.2499 17.4461 17.2499 17.4977 17.3015C17.5248 17.3286 17.5384 17.3612 17.5384 17.3965C17.5384 17.4318 17.5248 17.4643 17.4977 17.4915C17.4705 17.5186 17.4379 17.5322 17.4027 17.5322C17.3701 17.5295 17.3348 17.5159 17.3077 17.4915ZM16.9304 17.1115C16.9033 17.0844 16.8897 17.0518 16.8897 17.0165C16.8897 16.9812 16.9033 16.9487 16.9304 16.9215C16.982 16.8699 17.0661 16.8699 17.1204 16.9215C17.1475 16.9487 17.1611 16.9812 17.1611 17.0165C17.1611 17.0518 17.1475 17.0844 17.1204 17.1115C17.0932 17.1386 17.0607 17.1522 17.0254 17.1522C16.9901 17.1522 16.9548 17.1386 16.9304 17.1115ZM16.5504 16.7342C16.5233 16.7071 16.5097 16.6745 16.5097 16.6392C16.5097 16.604 16.5233 16.5714 16.5504 16.5442C16.602 16.4927 16.6861 16.4927 16.7404 16.5442C16.7675 16.5714 16.7811 16.604 16.7811 16.6392C16.7811 16.6745 16.7675 16.7071 16.7404 16.7342C16.7133 16.7614 16.6807 16.7722 16.6454 16.7722C16.6101 16.7722 16.5776 16.7587 16.5504 16.7342ZM16.1704 16.3543C16.1433 16.3271 16.1324 16.2945 16.1324 16.2593C16.1324 16.224 16.146 16.1914 16.1704 16.1643C16.222 16.1127 16.3089 16.1127 16.3604 16.1643C16.3876 16.1914 16.4011 16.224 16.4011 16.2593C16.4011 16.2945 16.3876 16.3271 16.3604 16.3543C16.3333 16.3814 16.3007 16.395 16.2654 16.395C16.2329 16.3923 16.1976 16.3787 16.1704 16.3543ZM15.7932 15.9743C15.766 15.9471 15.7552 15.9146 15.7552 15.8793C15.7552 15.844 15.7687 15.8114 15.7932 15.7843C15.8447 15.7327 15.9316 15.7327 15.9832 15.7843C16.0103 15.8114 16.0239 15.844 16.0239 15.8793C16.0239 15.9146 16.0103 15.9471 15.9832 15.9743C15.956 16.0014 15.9234 16.015 15.8882 16.015C15.8529 16.0123 15.8176 16.0014 15.7932 15.9743ZM15.4132 15.5943C15.386 15.5672 15.3725 15.5346 15.3725 15.4993C15.3725 15.464 15.386 15.4314 15.4132 15.4043C15.4648 15.3527 15.5516 15.3527 15.6032 15.4043C15.6303 15.4314 15.6412 15.464 15.6412 15.4993C15.6412 15.5346 15.6276 15.5672 15.6032 15.5943C15.576 15.6214 15.5435 15.635 15.5082 15.635C15.4729 15.635 15.4376 15.6214 15.4132 15.5943ZM15.0332 15.217C15.0061 15.1899 14.9925 15.1573 14.9925 15.122C14.9925 15.0868 15.0061 15.0542 15.0332 15.027C15.0848 14.9755 15.1716 14.9755 15.2232 15.027C15.2503 15.0542 15.2639 15.0868 15.2639 15.122C15.2639 15.1573 15.2503 15.1899 15.2232 15.217C15.1961 15.2442 15.1635 15.2577 15.1282 15.2577C15.0929 15.255 15.0603 15.2415 15.0332 15.217ZM14.6559 14.8371C14.6288 14.8099 14.6152 14.7773 14.6152 14.7421C14.6152 14.7068 14.6288 14.6742 14.6559 14.6471C14.7075 14.5955 14.7916 14.5955 14.8459 14.6471C14.8731 14.6742 14.8866 14.7068 14.8866 14.7421C14.8866 14.7773 14.8731 14.8099 14.8459 14.8371C14.8188 14.8642 14.7862 14.875 14.7509 14.875C14.7157 14.875 14.6804 14.8615 14.6559 14.8371ZM14.276 14.4571C14.2488 14.4299 14.238 14.3974 14.238 14.3621C14.238 14.3268 14.2515 14.2942 14.276 14.2671C14.3275 14.2155 14.4144 14.2155 14.4659 14.2671C14.4931 14.2942 14.5067 14.3268 14.5067 14.3621C14.5067 14.3974 14.4931 14.4299 14.4659 14.4571C14.4388 14.4842 14.4062 14.4951 14.371 14.4951C14.3357 14.4978 14.3004 14.4842 14.276 14.4571ZM13.896 14.0771C13.8688 14.0499 13.858 14.0174 13.858 13.9821C13.858 13.9468 13.8715 13.9142 13.896 13.8871C13.9475 13.8355 14.0344 13.8355 14.086 13.8871C14.1131 13.9142 14.124 13.9468 14.124 13.9821C14.124 14.0174 14.1104 14.0499 14.086 14.0771C14.0588 14.1042 14.0263 14.1178 13.991 14.1178C13.9557 14.1178 13.9231 14.1042 13.896 14.0771ZM13.516 13.6998C13.4889 13.6727 13.4753 13.6401 13.4753 13.6048C13.4753 13.5695 13.4889 13.537 13.516 13.5098C13.5676 13.4583 13.6544 13.4583 13.706 13.5098C13.7331 13.537 13.744 13.5695 13.744 13.6048C13.744 13.6401 13.7304 13.6727 13.706 13.6998C13.6788 13.727 13.6463 13.7405 13.611 13.7405C13.5784 13.7378 13.5431 13.7243 13.516 13.6998ZM13.1387 13.3198C13.1116 13.2927 13.098 13.2601 13.098 13.2248C13.098 13.1896 13.1116 13.157 13.1387 13.1299C13.1903 13.0783 13.2772 13.0783 13.3287 13.1299C13.3559 13.157 13.3667 13.1896 13.3667 13.2248C13.3667 13.2601 13.3531 13.2927 13.3287 13.3198C13.3016 13.347 13.269 13.3578 13.2337 13.3578C13.1984 13.3578 13.1632 13.347 13.1387 13.3198ZM12.7587 12.9399C12.7316 12.9127 12.718 12.8802 12.718 12.8449C12.718 12.8096 12.7316 12.777 12.7587 12.7499C12.8103 12.6983 12.8945 12.6983 12.9487 12.7499C12.9759 12.777 12.9895 12.8096 12.9895 12.8449C12.9895 12.8802 12.9759 12.9127 12.9487 12.9399C12.9216 12.967 12.889 12.9806 12.8537 12.9806C12.8185 12.9806 12.7832 12.967 12.7587 12.9399ZM12.3788 12.5626C12.3516 12.5355 12.3408 12.5029 12.3408 12.4676C12.3408 12.4323 12.3543 12.3997 12.3788 12.3726C12.4303 12.321 12.5172 12.321 12.5688 12.3726C12.5959 12.3997 12.6095 12.4323 12.6095 12.4676C12.6095 12.5029 12.5959 12.5355 12.5688 12.5626C12.5416 12.5897 12.509 12.6006 12.4738 12.6006C12.4385 12.6006 12.4059 12.587 12.3788 12.5626ZM11.9988 12.1826C11.9716 12.1555 11.9581 12.1229 11.9581 12.0876C11.9581 12.0523 11.9716 12.0198 11.9988 11.9926C12.0504 11.9411 12.1345 11.9411 12.1888 11.9926C12.2159 12.0198 12.2268 12.0523 12.2268 12.0876C12.2268 12.1229 12.2132 12.1555 12.1888 12.1826C12.1616 12.2098 12.1291 12.2206 12.0938 12.2206C12.0612 12.2206 12.0259 12.207 11.9988 12.1826ZM11.6215 11.8026C11.5944 11.7755 11.5835 11.7429 11.5835 11.7076C11.5835 11.6724 11.5971 11.6398 11.6215 11.6126C11.6731 11.5611 11.7599 11.5611 11.8115 11.6126C11.8387 11.6398 11.8522 11.6724 11.8522 11.7076C11.8522 11.7429 11.8387 11.7755 11.8115 11.8026C11.7844 11.8298 11.7518 11.8433 11.7165 11.8433C11.6812 11.8433 11.6459 11.8298 11.6215 11.8026ZM11.2415 11.4227C11.2144 11.3955 11.2035 11.3629 11.2035 11.3277C11.2035 11.2924 11.2171 11.2598 11.2415 11.2327C11.2931 11.1811 11.38 11.1811 11.4315 11.2327C11.4587 11.2598 11.4695 11.2924 11.4695 11.3277C11.4695 11.3629 11.456 11.3955 11.4315 11.4227C11.4044 11.4498 11.3718 11.4634 11.3365 11.4634C11.3012 11.4634 11.2687 11.4498 11.2415 11.4227ZM10.8616 11.0454C10.8344 11.0182 10.8208 10.9857 10.8208 10.9504C10.8208 10.9151 10.8344 10.8825 10.8616 10.8554C10.9131 10.8038 11 10.8038 11.0515 10.8554C11.0787 10.8825 11.0895 10.9151 11.0895 10.9504C11.0895 10.9857 11.076 11.0182 11.0515 11.0454C11.0244 11.0725 10.9918 11.0834 10.9566 11.0834C10.924 11.0834 10.8887 11.0698 10.8616 11.0454ZM10.4843 10.6654C10.4571 10.6383 10.4463 10.6057 10.4463 10.5704C10.4463 10.5351 10.4599 10.5026 10.4843 10.4754C10.5359 10.4238 10.6227 10.4238 10.6743 10.4754C10.7014 10.5026 10.715 10.5351 10.715 10.5704C10.715 10.6057 10.7014 10.6383 10.6743 10.6654C10.6471 10.6925 10.6146 10.7034 10.5793 10.7034C10.544 10.7034 10.5087 10.6925 10.4843 10.6654ZM10.1043 10.2854C10.0772 10.2583 10.0636 10.2257 10.0636 10.1904C10.0636 10.1551 10.0772 10.1226 10.1043 10.0954C10.1559 10.0439 10.24 10.0439 10.2943 10.0954C10.3214 10.1226 10.3323 10.1551 10.3323 10.1904C10.3323 10.2257 10.3187 10.2583 10.2943 10.2854C10.2672 10.3126 10.2346 10.3261 10.1993 10.3261C10.164 10.3261 10.1315 10.3126 10.1043 10.2854ZM9.72433 9.90545C9.69719 9.8783 9.68633 9.84573 9.68633 9.81045C9.68633 9.77517 9.6999 9.7426 9.72433 9.71546C9.7759 9.66389 9.86275 9.66389 9.91432 9.71546C9.94146 9.7426 9.95503 9.77517 9.95503 9.81045C9.95503 9.84573 9.94146 9.8783 9.91432 9.90545C9.88718 9.93259 9.85461 9.94344 9.81932 9.94344C9.78404 9.94616 9.75147 9.93259 9.72433 9.90545ZM9.34435 9.52818C9.31721 9.50104 9.30363 9.46847 9.30363 9.43318C9.30363 9.3979 9.31721 9.36533 9.34435 9.33819C9.39592 9.28662 9.48277 9.28662 9.53434 9.33819C9.56148 9.36533 9.57234 9.3979 9.57234 9.43318C9.57234 9.46847 9.55876 9.50104 9.53434 9.52818C9.5072 9.55532 9.47463 9.56889 9.43934 9.56889C9.40677 9.56618 9.37149 9.55261 9.34435 9.52818ZM8.96708 9.1482C8.93994 9.12106 8.92908 9.08849 8.92908 9.0532C8.92908 9.01792 8.94265 8.98535 8.96708 8.95821C9.01865 8.90664 9.1055 8.90664 9.15707 8.95821C9.18421 8.98535 9.19778 9.01792 9.19778 9.0532C9.19778 9.08849 9.18421 9.12106 9.15707 9.1482C9.12993 9.17534 9.09736 9.1862 9.06208 9.1862C9.02679 9.18891 8.99151 9.17534 8.96708 9.1482ZM8.5871 8.76822C8.55996 8.74108 8.54639 8.70851 8.54639 8.67322C8.54639 8.63794 8.55996 8.60537 8.5871 8.57823C8.63867 8.52666 8.72281 8.52666 8.77709 8.57823C8.80423 8.60537 8.81509 8.63794 8.81509 8.67322C8.81509 8.70851 8.80152 8.74108 8.77709 8.76822C8.74995 8.79536 8.71738 8.80893 8.68209 8.80893C8.64681 8.80893 8.61424 8.79536 8.5871 8.76822Z" fill="#0D0234"/>
<path d="M7.44986 20.5261C7.42272 20.4989 7.41187 20.4664 7.41187 20.4311C7.41187 20.3958 7.42544 20.3632 7.44986 20.3361C7.50143 20.2845 7.58828 20.2845 7.63985 20.3361C7.66699 20.3632 7.68057 20.3958 7.68057 20.4311C7.68057 20.4664 7.66699 20.4989 7.63985 20.5261C7.61271 20.5532 7.58014 20.5641 7.54486 20.5641C7.50957 20.5641 7.47429 20.5505 7.44986 20.5261ZM7.82984 20.1461C7.8027 20.1189 7.78913 20.0864 7.78913 20.0511C7.78913 20.0158 7.8027 19.9832 7.82984 19.9561C7.88141 19.9045 7.96826 19.9045 8.01983 19.9561C8.04697 19.9832 8.05783 20.0158 8.05783 20.0511C8.05783 20.0864 8.04426 20.1189 8.01983 20.1461C7.99269 20.1732 7.96012 20.1841 7.92484 20.1841C7.88955 20.1841 7.85427 20.1732 7.82984 20.1461ZM8.20711 19.7661C8.17997 19.739 8.16911 19.7064 8.16911 19.6711C8.16911 19.6358 8.18268 19.6033 8.20711 19.5761C8.25868 19.5245 8.34553 19.5245 8.3971 19.5761C8.42424 19.6033 8.4351 19.6358 8.4351 19.6711C8.4351 19.7064 8.42153 19.739 8.3971 19.7661C8.36996 19.7932 8.33739 19.8068 8.3021 19.8068C8.26953 19.8068 8.23425 19.7932 8.20711 19.7661ZM8.58709 19.3861C8.55995 19.359 8.54909 19.3264 8.54909 19.2911C8.54909 19.2558 8.56266 19.2233 8.58709 19.1961C8.63866 19.1446 8.72551 19.1446 8.77708 19.1961C8.80422 19.2233 8.81779 19.2558 8.81779 19.2911C8.81779 19.3264 8.80422 19.359 8.77708 19.3861C8.74994 19.4133 8.71737 19.4268 8.68208 19.4268C8.6468 19.4268 8.61423 19.4133 8.58709 19.3861ZM8.96707 19.0089C8.93993 18.9817 8.92636 18.9491 8.92636 18.9139C8.92636 18.8786 8.93993 18.846 8.96707 18.8189C9.01864 18.7673 9.10277 18.7673 9.15706 18.8189C9.1842 18.846 9.19777 18.8786 9.19777 18.9139C9.19777 18.9491 9.1842 18.9817 9.15706 19.0089C9.12992 19.036 9.09735 19.0469 9.06206 19.0469C9.02678 19.0469 8.99149 19.0333 8.96707 19.0089ZM9.34433 18.6289C9.31719 18.6017 9.30634 18.5692 9.30634 18.5339C9.30634 18.4986 9.31991 18.466 9.34433 18.4389C9.3959 18.3873 9.48275 18.3873 9.53432 18.4389C9.56146 18.466 9.57504 18.4986 9.57504 18.5339C9.57504 18.5692 9.56146 18.6017 9.53432 18.6289C9.50718 18.656 9.47461 18.6669 9.43933 18.6669C9.40676 18.6669 9.37147 18.656 9.34433 18.6289ZM9.72431 18.2489C9.69717 18.2217 9.6836 18.1892 9.6836 18.1539C9.6836 18.1186 9.69717 18.086 9.72431 18.0589C9.77588 18.0073 9.86273 18.0073 9.9143 18.0589C9.94144 18.086 9.9523 18.1186 9.9523 18.1539C9.9523 18.1892 9.93873 18.2217 9.9143 18.2489C9.88716 18.276 9.85459 18.2896 9.81931 18.2896C9.78402 18.2896 9.75145 18.276 9.72431 18.2489ZM10.1043 17.8716C10.0772 17.8445 10.0636 17.8119 10.0636 17.7766C10.0636 17.7413 10.0772 17.7088 10.1043 17.6816C10.1559 17.6301 10.2427 17.6301 10.2943 17.6816C10.3214 17.7088 10.335 17.7413 10.335 17.7766C10.335 17.8119 10.3214 17.8445 10.2943 17.8716C10.2671 17.8988 10.2346 17.9096 10.1993 17.9096C10.164 17.9096 10.1314 17.8961 10.1043 17.8716ZM10.4843 17.4916C10.4571 17.4645 10.4463 17.4319 10.4463 17.3966C10.4463 17.3614 10.4598 17.3288 10.4843 17.3017C10.5358 17.2501 10.6227 17.2501 10.6743 17.3017C10.7014 17.3288 10.7123 17.3614 10.7123 17.3966C10.7123 17.4319 10.6987 17.4645 10.6743 17.4916C10.6471 17.5188 10.6146 17.5324 10.5793 17.5324C10.544 17.5296 10.5087 17.5161 10.4843 17.4916ZM10.8615 17.1117C10.8344 17.0845 10.8235 17.052 10.8235 17.0167C10.8235 16.9814 10.8371 16.9488 10.8615 16.9217C10.9131 16.8701 11 16.8701 11.0515 16.9217C11.0787 16.9488 11.0922 16.9814 11.0922 17.0167C11.0922 17.052 11.0787 17.0845 11.0515 17.1117C11.0244 17.1388 10.9918 17.1524 10.9565 17.1524C10.924 17.1524 10.8887 17.1388 10.8615 17.1117ZM11.2415 16.7344C11.2144 16.7073 11.2008 16.6747 11.2008 16.6394C11.2008 16.6041 11.2144 16.5715 11.2415 16.5444C11.2931 16.4928 11.3772 16.4928 11.4315 16.5444C11.4586 16.5715 11.4695 16.6041 11.4695 16.6394C11.4695 16.6747 11.4559 16.7073 11.4315 16.7344C11.4044 16.7615 11.3718 16.7724 11.3365 16.7724C11.3012 16.7724 11.2687 16.7588 11.2415 16.7344ZM11.6215 16.3544C11.5944 16.3273 11.5835 16.2947 11.5835 16.2594C11.5835 16.2241 11.5971 16.1916 11.6215 16.1644C11.6731 16.1129 11.7599 16.1129 11.8115 16.1644C11.8386 16.1916 11.8495 16.2241 11.8495 16.2594C11.8495 16.2947 11.8359 16.3273 11.8115 16.3544C11.7843 16.3816 11.7518 16.3951 11.7165 16.3951C11.6812 16.3924 11.6459 16.3788 11.6215 16.3544ZM11.9988 15.9744C11.9716 15.9473 11.9581 15.9147 11.9581 15.8794C11.9581 15.8442 11.9716 15.8116 11.9988 15.7844C12.0503 15.7329 12.1372 15.7329 12.1888 15.7844C12.2159 15.8116 12.2268 15.8442 12.2268 15.8794C12.2268 15.9147 12.2132 15.9473 12.1888 15.9744C12.1616 16.0016 12.129 16.0151 12.0938 16.0151C12.0612 16.0124 12.0259 16.0016 11.9988 15.9744ZM12.3787 15.5945C12.3516 15.5673 12.3407 15.5347 12.3407 15.4995C12.3407 15.4642 12.3543 15.4316 12.3787 15.4045C12.4303 15.3529 12.5172 15.3529 12.5687 15.4045C12.5959 15.4316 12.6094 15.4642 12.6094 15.4995C12.6094 15.5347 12.5959 15.5673 12.5687 15.5945C12.5416 15.6216 12.509 15.6352 12.4737 15.6352C12.4385 15.6352 12.4059 15.6216 12.3787 15.5945ZM12.7587 15.2172C12.7316 15.19 12.7207 15.1575 12.7207 15.1222C12.7207 15.0869 12.7343 15.0543 12.7587 15.0272C12.8103 14.9756 12.8971 14.9756 12.9487 15.0272C12.9759 15.0543 12.9894 15.0869 12.9894 15.1222C12.9894 15.1575 12.9759 15.19 12.9487 15.2172C12.9216 15.2443 12.889 15.2579 12.8537 15.2579C12.8184 15.2552 12.7859 15.2416 12.7587 15.2172ZM13.1387 14.8372C13.1116 14.8101 13.098 14.7775 13.098 14.7422C13.098 14.7069 13.1116 14.6744 13.1387 14.6472C13.1903 14.5956 13.2744 14.5956 13.3287 14.6472C13.3558 14.6744 13.3694 14.7069 13.3694 14.7422C13.3694 14.7775 13.3558 14.8101 13.3287 14.8372C13.3016 14.8643 13.269 14.8752 13.2337 14.8752C13.1984 14.8752 13.1631 14.8616 13.1387 14.8372ZM13.516 14.4572C13.4888 14.4301 13.4753 14.3975 13.4753 14.3622C13.4753 14.3269 13.4888 14.2944 13.516 14.2672C13.5675 14.2157 13.6517 14.2157 13.706 14.2672C13.7331 14.2944 13.744 14.3269 13.744 14.3622C13.744 14.3975 13.7304 14.4301 13.706 14.4572C13.6788 14.4844 13.6462 14.4952 13.611 14.4952C13.5784 14.4979 13.5431 14.4844 13.516 14.4572ZM13.8959 14.0772C13.8688 14.0501 13.8579 14.0175 13.8579 13.9822C13.8579 13.947 13.8715 13.9144 13.8959 13.8873C13.9475 13.8357 14.0344 13.8357 14.0859 13.8873C14.1131 13.9144 14.1239 13.947 14.1239 13.9822C14.1239 14.0175 14.1104 14.0501 14.0859 14.0772C14.0588 14.1044 14.0262 14.118 13.9909 14.118C13.9557 14.118 13.9231 14.1044 13.8959 14.0772ZM14.2759 13.7C14.2488 13.6728 14.2379 13.6403 14.2379 13.605C14.2379 13.5697 14.2515 13.5371 14.2759 13.51C14.3275 13.4584 14.4143 13.4584 14.4659 13.51C14.4931 13.5371 14.5039 13.5697 14.5039 13.605C14.5039 13.6403 14.4903 13.6728 14.4659 13.7C14.4388 13.7271 14.4062 13.7407 14.3709 13.7407C14.3356 13.738 14.3031 13.7244 14.2759 13.7ZM14.6559 13.32C14.6288 13.2929 14.6179 13.2603 14.6179 13.225C14.6179 13.1897 14.6315 13.1571 14.6559 13.13C14.7075 13.0784 14.7943 13.0784 14.8459 13.13C14.873 13.1571 14.8866 13.1897 14.8866 13.225C14.8866 13.2603 14.873 13.2929 14.8459 13.32C14.8188 13.3471 14.7862 13.358 14.7509 13.358C14.7156 13.358 14.6803 13.3471 14.6559 13.32ZM15.0332 12.94C15.006 12.9129 14.9925 12.8803 14.9925 12.845C14.9925 12.8097 15.006 12.7772 15.0332 12.75C15.0847 12.6985 15.1689 12.6985 15.2232 12.75C15.2503 12.7772 15.2612 12.8097 15.2612 12.845C15.2612 12.8803 15.2476 12.9129 15.2232 12.94C15.196 12.9672 15.1635 12.978 15.1282 12.978C15.0929 12.9807 15.0603 12.9672 15.0332 12.94ZM15.4132 12.5627C15.386 12.5356 15.3752 12.503 15.3752 12.4678C15.3752 12.4325 15.3887 12.3999 15.4132 12.3728C15.4647 12.3212 15.5516 12.3212 15.6031 12.3728C15.6303 12.3999 15.6439 12.4325 15.6439 12.4678C15.6439 12.503 15.6303 12.5356 15.6031 12.5627C15.576 12.5899 15.5434 12.6007 15.5081 12.6007C15.4729 12.6007 15.4403 12.5872 15.4132 12.5627ZM15.7931 12.1828C15.766 12.1556 15.7524 12.1231 15.7524 12.0878C15.7524 12.0525 15.766 12.0199 15.7931 11.9928C15.8447 11.9412 15.9316 11.9412 15.9831 11.9928C16.0103 12.0199 16.0238 12.0525 16.0238 12.0878C16.0238 12.1231 16.0103 12.1556 15.9831 12.1828C15.956 12.2099 15.9234 12.2235 15.8881 12.2235C15.8528 12.2208 15.8176 12.2072 15.7931 12.1828ZM16.1704 11.8028C16.1433 11.7756 16.1297 11.7431 16.1297 11.7078C16.1297 11.6725 16.1433 11.6399 16.1704 11.6128C16.222 11.5612 16.3088 11.5612 16.3604 11.6128C16.3875 11.6399 16.3984 11.6725 16.3984 11.7078C16.3984 11.7431 16.3848 11.7756 16.3604 11.8028C16.3332 11.8299 16.3007 11.8435 16.2654 11.8435C16.2328 11.8435 16.1975 11.8299 16.1704 11.8028ZM16.5504 11.4228C16.5232 11.3957 16.5124 11.3631 16.5124 11.3278C16.5124 11.2925 16.5259 11.26 16.5504 11.2328C16.6019 11.1812 16.6888 11.1812 16.7404 11.2328C16.7675 11.26 16.7811 11.2925 16.7811 11.3278C16.7811 11.3631 16.7675 11.3957 16.7404 11.4228C16.7132 11.4499 16.6807 11.4635 16.6454 11.4635C16.6101 11.4635 16.5775 11.4499 16.5504 11.4228ZM16.9304 11.0455C16.9032 11.0184 16.8896 10.9858 16.8896 10.9505C16.8896 10.9153 16.9032 10.8827 16.9304 10.8555C16.9819 10.804 17.0661 10.804 17.1203 10.8555C17.1475 10.8827 17.1611 10.9153 17.1611 10.9505C17.1611 10.9858 17.1475 11.0184 17.1203 11.0455C17.0932 11.0727 17.0606 11.0835 17.0254 11.0835C16.9901 11.0835 16.9548 11.07 16.9304 11.0455ZM17.3103 10.6656C17.2832 10.6384 17.2696 10.6058 17.2696 10.5706C17.2696 10.5353 17.2832 10.5027 17.3103 10.4756C17.3619 10.424 17.446 10.424 17.5003 10.4756C17.5275 10.5027 17.5383 10.5353 17.5383 10.5706C17.5383 10.6058 17.5248 10.6384 17.5003 10.6656C17.4732 10.6927 17.4406 10.7036 17.4053 10.7036C17.37 10.7036 17.3348 10.6927 17.3103 10.6656ZM17.6876 10.2856C17.6605 10.2584 17.6496 10.2259 17.6496 10.1906C17.6496 10.1553 17.6632 10.1227 17.6876 10.0956C17.7392 10.044 17.826 10.044 17.8776 10.0956C17.9047 10.1227 17.9183 10.1553 17.9183 10.1906C17.9183 10.2259 17.9047 10.2584 17.8776 10.2856C17.8505 10.3127 17.8179 10.3263 17.7826 10.3263C17.75 10.3263 17.7147 10.3127 17.6876 10.2856ZM18.0676 9.90559C18.0404 9.87845 18.0269 9.84588 18.0269 9.8106C18.0269 9.77531 18.0404 9.74274 18.0676 9.7156C18.1192 9.66403 18.206 9.66403 18.2576 9.7156C18.2847 9.74274 18.2956 9.77531 18.2956 9.8106C18.2956 9.84588 18.282 9.87845 18.2576 9.90559C18.2304 9.93273 18.1979 9.94359 18.1626 9.94359C18.1273 9.9463 18.0947 9.93273 18.0676 9.90559ZM18.4476 9.52832C18.4204 9.50118 18.4096 9.46861 18.4096 9.43333C18.4096 9.39805 18.4231 9.36548 18.4476 9.33833C18.4991 9.28677 18.586 9.28677 18.6376 9.33833C18.6647 9.36548 18.6755 9.39805 18.6755 9.43333C18.6755 9.46861 18.662 9.50118 18.6376 9.52832C18.6104 9.55547 18.5778 9.56904 18.5426 9.56904C18.5073 9.56632 18.472 9.55275 18.4476 9.52832ZM18.8248 9.14834C18.7977 9.1212 18.7868 9.08863 18.7868 9.05335C18.7868 9.01806 18.8004 8.98549 18.8248 8.95835C18.8764 8.90678 18.9632 8.90678 19.0148 8.95835C19.042 8.98549 19.0555 9.01806 19.0555 9.05335C19.0555 9.08863 19.042 9.1212 19.0148 9.14834C18.9877 9.17548 18.9551 9.18634 18.9198 9.18634C18.8873 9.18906 18.852 9.17548 18.8248 9.14834ZM19.2048 8.76836C19.1777 8.74122 19.1641 8.70865 19.1641 8.67337C19.1641 8.63808 19.1777 8.60551 19.2048 8.57837C19.2564 8.5268 19.3405 8.5268 19.3948 8.57837C19.4219 8.60551 19.4355 8.63808 19.4355 8.67337C19.4355 8.70865 19.4219 8.74122 19.3948 8.76836C19.3677 8.7955 19.3351 8.80907 19.2998 8.80907C19.2645 8.80907 19.2319 8.7955 19.2048 8.76836ZM19.5848 8.3911C19.5576 8.36395 19.5441 8.33138 19.5441 8.2961C19.5441 8.26082 19.5576 8.22825 19.5848 8.2011C19.6364 8.14954 19.7232 8.14954 19.7748 8.2011C19.8019 8.22825 19.8155 8.26082 19.8155 8.2961C19.8155 8.33138 19.8019 8.36395 19.7748 8.3911C19.7476 8.41824 19.7151 8.42909 19.6798 8.42909C19.6445 8.42909 19.6092 8.41552 19.5848 8.3911ZM19.9648 8.01111C19.9376 7.98397 19.9241 7.9514 19.9241 7.91612C19.9241 7.88083 19.9376 7.84827 19.9648 7.82112C20.0163 7.76955 20.1032 7.76955 20.1548 7.82112C20.1819 7.84827 20.1928 7.88083 20.1928 7.91612C20.1928 7.9514 20.1792 7.98397 20.1548 8.01111C20.1276 8.03826 20.095 8.04911 20.0598 8.04911C20.0245 8.04911 19.9892 8.03826 19.9648 8.01111ZM20.342 7.63113C20.2905 7.57956 20.2905 7.49271 20.342 7.44114C20.3936 7.38957 20.4805 7.38957 20.532 7.44114C20.5836 7.49271 20.5836 7.57685 20.532 7.63113C20.5049 7.65827 20.4723 7.66913 20.437 7.66913C20.4045 7.67185 20.3692 7.65827 20.342 7.63113Z" fill="#0D0234"/>
<path d="M20.4448 21.6796C21.1359 21.6796 21.696 21.1194 21.696 20.4284C21.696 19.7374 21.1359 19.1772 20.4448 19.1772C19.7538 19.1772 19.1936 19.7374 19.1936 20.4284C19.1936 21.1194 19.7538 21.6796 20.4448 21.6796Z" fill="#0D0234"/>
<path d="M7.55274 21.6824C8.24378 21.6824 8.80397 21.1222 8.80397 20.4312C8.80397 19.7401 8.24378 19.1799 7.55274 19.1799C6.86171 19.1799 6.30151 19.7401 6.30151 20.4312C6.30151 21.1222 6.86171 21.6824 7.55274 21.6824Z" fill="#0D0234"/>
<path d="M20.4558 8.77667C21.1468 8.77667 21.707 8.21648 21.707 7.52545C21.707 6.83442 21.1468 6.27423 20.4558 6.27423C19.7648 6.27423 19.2046 6.83442 19.2046 7.52545C19.2046 8.21648 19.7648 8.77667 20.4558 8.77667Z" fill="#0D0234"/>
<path d="M7.52002 8.75488C8.21105 8.75488 8.77124 8.19469 8.77124 7.50366C8.77124 6.81263 8.21105 6.25244 7.52002 6.25244C6.82899 6.25244 6.2688 6.81263 6.2688 7.50366C6.2688 8.19469 6.82899 8.75488 7.52002 8.75488Z" fill="#0D0234"/>
</svg>



