<svg width="28" height="28" viewBox="0 0 28 28" fill="none" xmlns="http://www.w3.org/2000/svg">
<path d="M22.9331 5.10254L15.0669 10.9449L16.5215 7.49797L22.9331 5.10254Z" fill="#E2761B"/>
<path fill-rule="evenodd" clip-rule="evenodd" d="M23.0694 5.02823C23.1064 5.09627 23.0877 5.18116 23.0255 5.22734L15.1593 11.0697C15.103 11.1115 15.0257 11.1104 14.9706 11.0671C14.9155 11.0238 14.8961 10.949 14.9234 10.8844L16.378 7.4375C16.3947 7.39809 16.4268 7.36728 16.4669 7.35231L22.8784 4.95688C22.9509 4.92977 23.0324 4.9602 23.0694 5.02823ZM16.6385 7.62014L15.4315 10.4802L21.9584 5.63254L16.6385 7.62014Z" fill="#E2761B"/>
<path d="M4.77368 5.10254L12.5766 11.0002L11.1931 7.49797L4.77368 5.10254Z" fill="#E4761B"/>
<path fill-rule="evenodd" clip-rule="evenodd" d="M4.63713 5.02768C4.67428 4.96003 4.75545 4.92987 4.82777 4.95686L11.2472 7.35228C11.2885 7.36768 11.3213 7.39986 11.3375 7.44083L12.7209 10.9431C12.7466 11.0079 12.7259 11.0818 12.6704 11.124C12.6149 11.1661 12.5382 11.1662 12.4826 11.1242L4.67966 5.22656C4.61808 5.18002 4.59997 5.09534 4.63713 5.02768ZM5.71637 5.62034L12.2283 10.5422L11.0737 7.61943L5.71637 5.62034Z" fill="#E4761B"/>
<path d="M20.1028 18.6449L18.0078 21.8546L22.4904 23.0879L23.779 18.716L20.1028 18.6449Z" fill="#E4761B"/>
<path fill-rule="evenodd" clip-rule="evenodd" d="M19.9723 18.56C20.0016 18.5151 20.052 18.4885 20.1056 18.4895L23.7817 18.5607C23.8302 18.5616 23.8754 18.5851 23.9041 18.6242C23.9328 18.6633 23.9415 18.7136 23.9278 18.7601L22.6392 23.1319C22.6152 23.2133 22.5306 23.2604 22.4488 23.2379L17.9663 22.0046C17.9184 21.9914 17.8797 21.9562 17.8621 21.9098C17.8445 21.8633 17.8502 21.8113 17.8773 21.7697L19.9723 18.56ZM20.1857 18.8021L18.2542 21.7613L22.3841 22.8976L23.5719 18.8676L20.1857 18.8021Z" fill="#E4761B"/>
<path d="M3.94336 18.716L5.22408 23.0879L9.70662 21.8546L7.61161 18.6449L3.94336 18.716Z" fill="#E4761B"/>
<path fill-rule="evenodd" clip-rule="evenodd" d="M7.60855 18.4895C7.66214 18.4885 7.71248 18.5151 7.74177 18.56L9.83678 21.7697C9.86392 21.8113 9.86957 21.8633 9.85198 21.9098C9.8344 21.9562 9.7957 21.9914 9.74783 22.0046L5.26529 23.2379C5.18346 23.2604 5.0987 23.2131 5.07484 23.1317L3.79411 18.7598C3.7805 18.7134 3.78932 18.6632 3.81799 18.6241C3.84665 18.5851 3.89188 18.5616 3.94031 18.5607L7.60855 18.4895ZM4.14972 18.8676L5.33026 22.8975L9.45995 21.7613L7.52846 18.8021L4.14972 18.8676Z" fill="#E4761B"/>
<path d="M9.45369 13.2218L8.20459 15.1112L12.6555 15.3089L12.4974 10.5259L9.45369 13.2218Z" fill="#E4761B"/>
<path fill-rule="evenodd" clip-rule="evenodd" d="M12.5591 10.3831C12.6144 10.4069 12.651 10.4606 12.653 10.5208L12.8111 15.3037C12.8125 15.347 12.7958 15.389 12.765 15.4194C12.7342 15.4499 12.6921 15.4661 12.6488 15.4642L8.1979 15.2665C8.14196 15.2641 8.09167 15.2317 8.06626 15.1818C8.04084 15.1319 8.04422 15.0722 8.0751 15.0255L9.3242 13.136C9.33169 13.1247 9.34064 13.1144 9.35081 13.1054L12.3945 10.4095C12.4396 10.3696 12.5037 10.3593 12.5591 10.3831ZM9.57231 13.3246L8.48581 14.9681L12.4948 15.1461L12.3531 10.8616L9.57231 13.3246Z" fill="#E4761B"/>
<path d="M18.2526 13.2217L15.1694 10.4705L15.0667 15.3088L19.5097 15.1112L18.2526 13.2217Z" fill="#E4761B"/>
<path fill-rule="evenodd" clip-rule="evenodd" d="M15.1073 10.328C15.163 10.3038 15.2276 10.3142 15.2729 10.3546L18.3561 13.1058C18.366 13.1146 18.3747 13.1246 18.3821 13.1357L19.6391 15.0251C19.6701 15.0718 19.6736 15.1316 19.6483 15.1816C19.6229 15.2316 19.5725 15.2641 19.5165 15.2666L15.0735 15.4642C15.0306 15.4661 14.9887 15.4502 14.958 15.4201C14.9272 15.3901 14.9103 15.3486 14.9112 15.3056L15.0139 10.4673C15.0152 10.4066 15.0517 10.3523 15.1073 10.328ZM15.3177 10.8113L15.2256 15.1462L19.2277 14.9682L18.1342 13.3245L15.3177 10.8113Z" fill="#E4761B"/>
<path d="M9.70654 21.8547L12.3787 20.5502L10.0702 18.7477L9.70654 21.8547Z" fill="#E4761B"/>
<path fill-rule="evenodd" clip-rule="evenodd" d="M10.0102 18.6045C10.0621 18.5828 10.1216 18.5908 10.1659 18.6254L12.4743 20.4279C12.5166 20.4609 12.5389 20.5133 12.5333 20.5666C12.5277 20.62 12.495 20.6666 12.4468 20.6902L9.77471 21.9946C9.72362 22.0195 9.66299 22.0146 9.6166 21.9817C9.57021 21.9489 9.54547 21.8933 9.55208 21.8368L9.91574 18.7299C9.92228 18.6741 9.9584 18.6261 10.0102 18.6045ZM10.1924 19.0407L9.89401 21.5903L12.0868 20.5199L10.1924 19.0407Z" fill="#E4761B"/>
<path d="M15.3279 20.5502L18.0079 21.8547L17.6364 18.7477L15.3279 20.5502Z" fill="#E4761B"/>
<path fill-rule="evenodd" clip-rule="evenodd" d="M17.6956 18.6044C17.7474 18.626 17.7835 18.6738 17.7902 18.7295L18.1618 21.8364C18.1685 21.8929 18.1439 21.9486 18.0975 21.9816C18.0512 22.0145 17.9905 22.0196 17.9393 21.9947L15.2593 20.6902C15.2111 20.6668 15.1784 20.6201 15.1727 20.5667C15.1671 20.5134 15.1894 20.4609 15.2317 20.4279L17.5401 18.6254C17.5844 18.5909 17.6438 18.5828 17.6956 18.6044ZM15.6194 20.5197L17.8192 21.5904L17.5142 19.0402L15.6194 20.5197Z" fill="#E4761B"/>
<path d="M18.0079 21.8549L15.3279 20.5504L15.5413 22.2976L15.5176 23.0328L18.0079 21.8549Z" fill="#D7C1B3"/>
<path fill-rule="evenodd" clip-rule="evenodd" d="M15.2371 20.4238C15.2834 20.3907 15.3442 20.3856 15.3954 20.4106L18.0754 21.715C18.1292 21.7412 18.1632 21.7959 18.1629 21.8557C18.1625 21.9155 18.1279 21.9698 18.0739 21.9954L15.5836 23.1733C15.5346 23.1965 15.4771 23.1925 15.4318 23.1628C15.3865 23.1331 15.3599 23.0819 15.3617 23.0278L15.385 22.3045L15.173 20.5692C15.1661 20.5127 15.1907 20.4569 15.2371 20.4238ZM15.5164 20.8153L15.6951 22.2787C15.6961 22.2866 15.6965 22.2946 15.6962 22.3026L15.6807 22.7834L17.648 21.8528L15.5164 20.8153Z" fill="#D7C1B3"/>
<path d="M9.70654 21.8549L12.1968 23.0328L12.181 22.2976L12.3787 20.5504L9.70654 21.8549Z" fill="#D7C1B3"/>
<path fill-rule="evenodd" clip-rule="evenodd" d="M12.4683 20.4233C12.5147 20.456 12.5395 20.5114 12.5331 20.5678L12.3367 22.3046L12.3522 23.0294C12.3534 23.0832 12.3266 23.1339 12.2814 23.1632C12.2362 23.1925 12.179 23.1963 12.1303 23.1733L9.64002 21.9953C9.58599 21.9698 9.5514 21.9155 9.55103 21.8557C9.55066 21.7959 9.58459 21.7413 9.6383 21.715L12.3104 20.4106C12.3614 20.3857 12.4219 20.3906 12.4683 20.4233ZM10.0654 21.8526L12.036 22.7846L12.0255 22.3008C12.0254 22.2939 12.0257 22.2869 12.0265 22.28L12.1923 20.8143L10.0654 21.8526Z" fill="#D7C1B3"/>
<path d="M12.2362 17.5935L10.0068 16.9374L11.5801 16.218L12.2362 17.5935Z" fill="#233447"/>
<path fill-rule="evenodd" clip-rule="evenodd" d="M11.5156 16.0767C11.5928 16.0414 11.6841 16.0745 11.7206 16.1511L12.3768 17.5267C12.4032 17.5821 12.3946 17.6478 12.3548 17.6945C12.315 17.7412 12.2514 17.7601 12.1926 17.7428L9.96314 17.0866C9.90091 17.0683 9.85658 17.0133 9.85196 16.9486C9.84734 16.8839 9.88338 16.8231 9.94239 16.7961L11.5156 16.0767ZM10.4501 16.9058L11.9461 17.3461L11.5058 16.4231L10.4501 16.9058Z" fill="#233447"/>
<path d="M15.47 17.5935L16.1261 16.218L17.7073 16.9374L15.47 17.5935Z" fill="#233447"/>
<path fill-rule="evenodd" clip-rule="evenodd" d="M15.9858 16.1511C16.0223 16.0746 16.1133 16.0414 16.1905 16.0766L17.7716 16.796C17.8308 16.8229 17.8669 16.8837 17.8623 16.9485C17.8577 17.0133 17.8133 17.0684 17.751 17.0867L15.5137 17.7429C15.4548 17.7601 15.3913 17.7412 15.3516 17.6945C15.3118 17.6478 15.3032 17.5821 15.3296 17.5267L15.9858 16.1511ZM16.2007 16.4228L15.7601 17.3465L17.2624 16.9059L16.2007 16.4228Z" fill="#233447"/>
<path d="M9.70658 21.8548L10.0861 18.6451L7.61157 18.7162L9.70658 21.8548Z" fill="#CD6116"/>
<path fill-rule="evenodd" clip-rule="evenodd" d="M10.201 18.5401C10.2315 18.5734 10.246 18.6184 10.2407 18.6633L9.86119 21.873C9.85355 21.9377 9.80639 21.9908 9.74306 22.0059C9.67973 22.0211 9.61363 21.9952 9.57747 21.9411L7.48246 18.8025C7.45106 18.7555 7.44768 18.6951 7.47364 18.6448C7.49959 18.5946 7.55078 18.5624 7.60731 18.5608L10.0818 18.4896C10.127 18.4883 10.1705 18.5068 10.201 18.5401ZM7.89706 18.8635L9.60191 21.4176L9.91072 18.8056L7.89706 18.8635Z" fill="#CD6116"/>
<path d="M17.6284 18.6451L18.0079 21.8548L20.1029 18.7162L17.6284 18.6451Z" fill="#CD6116"/>
<path fill-rule="evenodd" clip-rule="evenodd" d="M17.5137 18.5401C17.5442 18.5068 17.5877 18.4883 17.6328 18.4896L20.1073 18.5608C20.1639 18.5624 20.2151 18.5946 20.241 18.6448C20.267 18.6951 20.2636 18.7555 20.2322 18.8025L18.1372 21.9411C18.101 21.9952 18.0349 22.0211 17.9716 22.0059C17.9082 21.9908 17.8611 21.9377 17.8535 21.873L17.474 18.6633C17.4687 18.6184 17.4832 18.5734 17.5137 18.5401ZM17.8039 18.8056L18.1127 21.4176L19.8176 18.8635L17.8039 18.8056Z" fill="#CD6116"/>
<path d="M19.5099 15.1113L15.0669 15.309L15.478 17.5937L16.1342 16.2181L17.7153 16.9375L19.5099 15.1113Z" fill="#CD6116"/>
<path fill-rule="evenodd" clip-rule="evenodd" d="M19.6519 15.048C19.6779 15.1064 19.6655 15.1747 19.6208 15.2203L17.8262 17.0465C17.7804 17.0931 17.7103 17.1061 17.6509 17.079L16.2087 16.4228L15.6183 17.6606C15.5892 17.7216 15.5242 17.7568 15.4573 17.7478C15.3903 17.7388 15.3369 17.6877 15.3249 17.6212L14.9138 15.3365C14.9059 15.2923 14.9174 15.2469 14.9454 15.2119C14.9734 15.1768 15.0151 15.1556 15.0599 15.1536L19.503 14.956C19.5668 14.9531 19.6259 14.9896 19.6519 15.048ZM15.2514 15.4564L15.5455 17.091L15.9938 16.1512C16.0303 16.0746 16.1214 16.0415 16.1985 16.0766L17.6806 16.7509L19.122 15.2842L15.2514 15.4564Z" fill="#CD6116"/>
<path d="M10.0073 16.9375L11.5885 16.2181L12.2367 17.5937L12.6557 15.309L8.20483 15.1113L10.0073 16.9375Z" fill="#CD6116"/>
<path fill-rule="evenodd" clip-rule="evenodd" d="M8.06272 15.0482C8.08869 14.9897 8.1478 14.9531 8.2117 14.956L12.6626 15.1536C12.7075 15.1556 12.7493 15.1769 12.7773 15.2121C12.8053 15.2472 12.8167 15.2928 12.8086 15.337L12.3896 17.6217C12.3775 17.6882 12.3238 17.7391 12.2568 17.7479C12.1898 17.7566 12.1249 17.7211 12.0961 17.66L11.5132 16.4231L10.0717 17.079C10.0123 17.106 9.94245 17.0931 9.89664 17.0467L8.09414 15.2205C8.04921 15.175 8.03675 15.1066 8.06272 15.0482ZM8.59392 15.2842L10.0417 16.751L11.524 16.0766C11.6015 16.0413 11.6928 16.0749 11.7291 16.1518L12.1711 17.0897L12.4706 15.4563L8.59392 15.2842Z" fill="#CD6116"/>
<path d="M8.20459 15.1113L10.0703 18.748L10.0071 16.9375L8.20459 15.1113Z" fill="#E4751F"/>
<path fill-rule="evenodd" clip-rule="evenodd" d="M8.11366 14.9853C8.17584 14.9403 8.26155 14.9474 8.31547 15.002L10.118 16.8282C10.1454 16.856 10.1613 16.893 10.1627 16.932L10.2259 18.7424C10.2285 18.8152 10.1802 18.88 10.1097 18.8983C10.0392 18.9167 9.96546 18.8836 9.93222 18.8188L8.06647 15.1822C8.03144 15.1139 8.05148 15.0303 8.11366 14.9853ZM8.80518 15.9408L9.89085 18.057L9.85404 17.0035L8.80518 15.9408Z" fill="#E4751F"/>
<path d="M17.7153 16.9375L17.6362 18.748L19.5099 15.1113L17.7153 16.9375Z" fill="#E4751F"/>
<path fill-rule="evenodd" clip-rule="evenodd" d="M19.6007 14.9853C19.663 15.0304 19.683 15.1142 19.6478 15.1825L17.7742 18.8191C17.7407 18.884 17.6666 18.9169 17.596 18.8982C17.5254 18.8794 17.4774 18.8141 17.4806 18.7411L17.5597 16.9307C17.5614 16.8923 17.5772 16.8559 17.6041 16.8285L19.3987 15.0023C19.4526 14.9475 19.5384 14.9403 19.6007 14.9853ZM17.8677 17.0039L17.8222 18.047L18.9017 15.9518L17.8677 17.0039Z" fill="#E4751F"/>
<path d="M12.6556 15.3088L12.2366 17.5936L12.7583 20.2894L12.8769 16.7398L12.6556 15.3088Z" fill="#E4751F"/>
<path fill-rule="evenodd" clip-rule="evenodd" d="M12.6577 15.1535C12.7336 15.1545 12.7976 15.2102 12.8092 15.2852L13.0305 16.7161C13.032 16.7257 13.0326 16.7354 13.0323 16.745L12.9137 20.2947C12.9111 20.3738 12.8494 20.4383 12.7706 20.4445C12.6917 20.4507 12.6207 20.3967 12.6057 20.3191L12.0839 17.6232C12.0802 17.6042 12.0801 17.5847 12.0836 17.5656L12.5026 15.2809C12.5163 15.2063 12.5818 15.1524 12.6577 15.1535ZM12.3947 17.5929L12.649 18.9063L12.721 16.7492L12.6425 16.2418L12.3947 17.5929Z" fill="#E4751F"/>
<path d="M15.0667 15.3088L14.8533 16.7319L14.9481 20.2894L15.4778 17.5936L15.0667 15.3088Z" fill="#E4751F"/>
<path fill-rule="evenodd" clip-rule="evenodd" d="M15.0644 15.1535C15.1405 15.1524 15.2062 15.2065 15.2197 15.2814L15.6308 17.5661C15.6342 17.5852 15.6341 17.6047 15.6303 17.6236L15.1007 20.3195C15.0854 20.3972 15.0141 20.4511 14.9351 20.4444C14.8561 20.4378 14.7948 20.3729 14.7927 20.2937L14.6978 16.7361C14.6976 16.727 14.6981 16.7179 14.6995 16.7089L14.9129 15.2859C14.9242 15.2106 14.9883 15.1546 15.0644 15.1535ZM15.0806 16.2643L15.009 16.7415L15.0661 18.8824L15.3196 17.5924L15.0806 16.2643Z" fill="#E4751F"/>
<path d="M15.4777 17.5935L14.948 20.2893L15.3275 20.5502L17.6359 18.7477L17.715 16.9373L15.4777 17.5935Z" fill="#F6851B"/>
<path fill-rule="evenodd" clip-rule="evenodd" d="M17.8111 16.8149C17.8506 16.8458 17.8727 16.8939 17.8705 16.9441L17.7915 18.7545C17.7895 18.7999 17.7677 18.8422 17.7318 18.8702L15.4234 20.6727C15.3699 20.7145 15.2955 20.7167 15.2396 20.6783L14.8601 20.4174C14.809 20.3823 14.7837 20.3202 14.7956 20.2593L15.3253 17.5635C15.3365 17.5066 15.3785 17.4606 15.4341 17.4443L17.6714 16.7881C17.7196 16.774 17.7716 16.7839 17.8111 16.8149ZM15.6122 17.7161L15.1205 20.219L15.3218 20.3575L17.4839 18.6693L17.5504 17.1476L15.6122 17.7161Z" fill="#F6851B"/>
<path d="M10.0068 16.9373L10.0701 18.7477L12.3785 20.5502L12.758 20.2893L12.2362 17.5935L10.0068 16.9373Z" fill="#F6851B"/>
<path fill-rule="evenodd" clip-rule="evenodd" d="M9.91175 16.8144C9.95122 16.7838 10.003 16.774 10.0509 16.7881L12.2804 17.4443C12.3361 17.4607 12.3781 17.5068 12.3891 17.5639L12.9109 20.2598C12.9226 20.3205 12.8973 20.3824 12.8463 20.4174L12.4668 20.6783C12.4109 20.7167 12.3365 20.7145 12.2831 20.6727L9.9746 18.8702C9.93836 18.8419 9.91651 18.7991 9.9149 18.7531L9.85166 16.9427C9.84991 16.8928 9.87227 16.845 9.91175 16.8144ZM10.17 17.1473L10.2231 18.6698L12.3846 20.3575L12.5862 20.2189L12.1018 17.7159L10.17 17.1473Z" fill="#F6851B"/>
<path d="M15.5172 23.0327L15.541 22.2975L15.3433 22.1235H12.3629L12.181 22.2975L12.1968 23.0327L9.70654 21.8547L10.5762 22.5663L12.3391 23.7916H15.367L17.1379 22.5663L18.0075 21.8547L15.5172 23.0327Z" fill="#C0AD9E"/>
<path fill-rule="evenodd" clip-rule="evenodd" d="M9.5751 21.7715C9.61707 21.7051 9.70198 21.6805 9.77299 21.714L12.036 22.7845L12.0256 22.3007C12.0246 22.2571 12.042 22.2151 12.0735 22.185L12.2554 22.011C12.2843 21.9834 12.3228 21.9679 12.3628 21.9679H15.3433C15.3811 21.9679 15.4176 21.9817 15.446 22.0067L15.6436 22.1806C15.6785 22.2113 15.6978 22.2559 15.6963 22.3023L15.6808 22.7832L17.941 21.714C18.012 21.6805 18.0969 21.7051 18.1389 21.7715C18.1809 21.8379 18.1667 21.9252 18.1059 21.9749L17.2363 22.6864C17.2331 22.6891 17.2298 22.6916 17.2263 22.694L15.4555 23.9193C15.4295 23.9373 15.3986 23.947 15.367 23.947H12.3391C12.3074 23.947 12.2764 23.9373 12.2504 23.9192L10.4874 22.6938C10.4841 22.6915 10.4808 22.689 10.4777 22.6864L9.60806 21.9749C9.54726 21.9252 9.53312 21.8379 9.5751 21.7715ZM10.8516 22.5683L12.3878 23.636H15.3184L16.8597 22.5695L15.5837 23.1731C15.5347 23.1963 15.4772 23.1923 15.4319 23.1625C15.3866 23.1328 15.3601 23.0817 15.3618 23.0275L15.3832 22.3656L15.2846 22.2789H12.4252L12.3379 22.3624L12.3522 23.0292C12.3534 23.0831 12.3266 23.1337 12.2814 23.163C12.2362 23.1923 12.179 23.1961 12.1303 23.1731L10.8516 22.5683Z" fill="#C0AD9E"/>
<path d="M15.3276 20.5503L14.9482 20.2894H12.7583L12.3788 20.5503L12.1812 22.2975L12.363 22.1235H15.3434L15.5411 22.2975L15.3276 20.5503Z" fill="#161616"/>
<path fill-rule="evenodd" clip-rule="evenodd" d="M12.6702 20.1613C12.6961 20.1435 12.7268 20.1339 12.7582 20.1339H14.9481C14.9796 20.1339 15.0103 20.1435 15.0362 20.1613L15.4157 20.4222C15.4524 20.4474 15.4765 20.4872 15.4819 20.5314L15.6954 22.2786C15.7032 22.3426 15.6707 22.4049 15.6136 22.435C15.5565 22.4651 15.4868 22.4568 15.4383 22.4142L15.2847 22.279H12.4253L12.2886 22.4098C12.2413 22.455 12.1707 22.4658 12.1121 22.4367C12.0534 22.4077 12.0193 22.345 12.0266 22.28L12.2243 20.5328C12.2293 20.488 12.2536 20.4477 12.2907 20.4222L12.6702 20.1613ZM12.8065 20.4449L12.5253 20.6382L12.3749 21.968H15.3434C15.3437 21.968 15.3439 21.968 15.3442 21.968L15.1818 20.6387L14.8998 20.4449H12.8065Z" fill="#161616"/>
<path d="M23.2652 11.3243L23.9372 8.0988L22.9332 5.10254L15.3279 10.7472L18.253 13.2217L22.3877 14.4313L23.3047 13.364L22.9094 13.0794L23.5419 12.5023L23.0518 12.1228L23.6842 11.6406L23.2652 11.3243Z" fill="#763D16"/>
<path fill-rule="evenodd" clip-rule="evenodd" d="M22.9793 4.95417C23.0268 4.9691 23.0642 5.00589 23.0801 5.0531L24.0841 8.04936C24.0928 8.0755 24.0945 8.10349 24.0889 8.13047L23.437 11.2595L23.7773 11.5164C23.8162 11.5457 23.839 11.5915 23.8392 11.6401C23.8393 11.6888 23.8166 11.7347 23.778 11.7642L23.3064 12.1237L23.6366 12.3793C23.6729 12.4074 23.6949 12.4501 23.6967 12.496C23.6986 12.5418 23.6801 12.5862 23.6462 12.6171L23.1552 13.0651L23.3951 13.2378C23.4304 13.2632 23.4535 13.3023 23.4586 13.3456C23.4637 13.3888 23.4505 13.4323 23.4221 13.4653L22.5051 14.5326C22.4653 14.5789 22.4021 14.5976 22.3435 14.5805L18.2088 13.3709C18.188 13.3648 18.1686 13.3544 18.152 13.3404L15.2269 10.8659C15.1907 10.8352 15.1704 10.7897 15.172 10.7422C15.1735 10.6948 15.1966 10.6506 15.2347 10.6223L22.84 4.97765C22.88 4.94797 22.9317 4.93925 22.9793 4.95417ZM15.5775 10.7551L18.3277 13.0817L22.3346 14.2539L23.0759 13.3911L22.8181 13.2055C22.7801 13.1782 22.7564 13.1351 22.7537 13.0883C22.751 13.0416 22.7695 12.9961 22.8041 12.9645L23.3 12.512L22.956 12.2457C22.9179 12.2161 22.8956 12.1705 22.8958 12.1222C22.8959 12.0739 22.9185 12.0284 22.957 11.9991L23.4264 11.6412L23.171 11.4484C23.123 11.4122 23.1002 11.3515 23.1125 11.2926L23.7759 8.10826L22.8533 5.35502L15.5775 10.7551Z" fill="#763D16"/>
<path d="M3.77734 8.0988L4.44933 11.3243L4.02242 11.6406L4.65488 12.1228L4.17263 12.5023L4.80509 13.0794L4.4098 13.364L5.31896 14.4313L9.45364 13.2217L12.3788 10.7472L4.77346 5.10254L3.77734 8.0988Z" fill="#763D16"/>
<path fill-rule="evenodd" clip-rule="evenodd" d="M4.72663 4.95423C4.77419 4.93922 4.82605 4.94794 4.86609 4.97765L12.4714 10.6223C12.5095 10.6506 12.5326 10.6948 12.5341 10.7422C12.5356 10.7897 12.5154 10.8352 12.4791 10.8659L9.55402 13.3404C9.53744 13.3544 9.5181 13.3648 9.49725 13.3709L5.36257 14.5805C5.30375 14.5977 5.2403 14.5787 5.20056 14.5321L4.2914 13.4648C4.26324 13.4317 4.25019 13.3884 4.25541 13.3453C4.26064 13.3021 4.28366 13.2632 4.31891 13.2378L4.55876 13.0651L4.06779 12.6171C4.03404 12.5863 4.01555 12.5422 4.01721 12.4966C4.01888 12.4509 4.04054 12.4083 4.07644 12.3801L4.40095 12.1247L3.92811 11.7642C3.88924 11.7345 3.86657 11.6883 3.86691 11.6394C3.86725 11.5906 3.89056 11.5447 3.92984 11.5156L4.27678 11.2586L3.62509 8.13047C3.6195 8.10361 3.62111 8.07575 3.62977 8.04971L4.62588 5.05345C4.64162 5.00614 4.67908 4.96924 4.72663 4.95423ZM4.85321 5.35534L3.93806 8.10806L4.6015 11.2926C4.61387 11.352 4.59058 11.4131 4.54184 11.4492L4.28116 11.6423L4.74911 11.9991C4.78735 12.0283 4.80995 12.0735 4.81031 12.1216C4.81068 12.1697 4.78877 12.2152 4.75098 12.245L4.41287 12.511L4.90985 12.9645C4.94445 12.9961 4.96297 13.0416 4.96027 13.0883C4.95756 13.1351 4.93391 13.1782 4.89589 13.2055L4.63752 13.3916L5.37195 14.2537L9.37833 13.0817L12.1286 10.7551L4.85321 5.35534Z" fill="#763D16"/>
<path d="M22.3876 14.4312L18.2529 13.2216L19.5099 15.1111L17.6362 18.7477L20.1028 18.7161H23.779L22.3876 14.4312Z" fill="#F6851B"/>
<path fill-rule="evenodd" clip-rule="evenodd" d="M18.1273 13.1295C18.1661 13.0768 18.2335 13.054 18.2962 13.0724L22.4309 14.2819C22.4803 14.2964 22.5193 14.3343 22.5352 14.3831L23.9266 18.668C23.9419 18.7154 23.9337 18.7672 23.9044 18.8075C23.8752 18.8477 23.8284 18.8715 23.7787 18.8715H20.1035L17.6379 18.9031C17.5834 18.9038 17.5324 18.8759 17.5037 18.8295C17.475 18.783 17.4727 18.725 17.4977 18.6765L19.3295 15.1211L18.1231 13.3077C18.087 13.2533 18.0886 13.1821 18.1273 13.1295ZM18.6183 13.4906L19.639 15.0249C19.6703 15.0719 19.6736 15.1321 19.6478 15.1823L17.8927 18.5889L20.1025 18.5606L23.5647 18.5606L22.2648 14.5573L18.6183 13.4906Z" fill="#F6851B"/>
<path d="M9.45363 13.2216L5.31895 14.4312L3.94336 18.7161H7.6116L10.0703 18.7477L8.20453 15.1111L9.45363 13.2216Z" fill="#F6851B"/>
<path fill-rule="evenodd" clip-rule="evenodd" d="M9.57871 13.1293C9.61745 13.1818 9.61928 13.2529 9.5833 13.3073L8.38433 15.121L10.2086 18.6767C10.2335 18.7252 10.2311 18.7832 10.2024 18.8296C10.1737 18.8759 10.1228 18.9038 10.0682 18.9031L7.61054 18.8715H3.94332C3.89365 18.8715 3.84697 18.8478 3.8177 18.8077C3.78843 18.7675 3.7801 18.7158 3.79528 18.6685L5.17088 14.3836C5.18665 14.3345 5.22575 14.2964 5.27526 14.2819L9.40994 13.0724C9.47257 13.054 9.53997 13.0768 9.57871 13.1293ZM5.44174 14.5572L4.15653 18.5606H7.61357L9.81403 18.5889L8.06616 15.182C8.04053 15.1321 8.04383 15.0722 8.0748 15.0253L9.08976 13.49L5.44174 14.5572Z" fill="#F6851B"/>
<path d="M15.0667 15.3088L15.3276 10.7472L16.5292 7.49792H11.1929L12.3787 10.7472L12.6554 15.3088L12.7503 16.7476L12.7582 20.2894H14.9481L14.9639 16.7476L15.0667 15.3088Z" fill="#F6851B"/>
<path fill-rule="evenodd" clip-rule="evenodd" d="M11.0654 7.40889C11.0945 7.3673 11.1421 7.34253 11.1928 7.34253H16.5292C16.5801 7.34253 16.6277 7.36741 16.6568 7.40916C16.6858 7.4509 16.6927 7.50423 16.675 7.55194L15.4814 10.7794L15.2217 15.3199L15.1193 16.7536L15.1035 20.2901C15.1031 20.3757 15.0336 20.4449 14.948 20.4449H12.7582C12.6724 20.4449 12.6029 20.3755 12.6027 20.2898L12.5948 16.753L12.5002 15.3191L12.5002 15.3183L12.2249 10.7793L11.0468 7.55131C11.0294 7.50364 11.0363 7.45047 11.0654 7.40889ZM11.4151 7.65349L12.5247 10.6939C12.5299 10.7081 12.533 10.7228 12.5339 10.7378L12.8105 15.2986L12.8106 15.2994L12.9054 16.7375C12.9056 16.7407 12.9057 16.744 12.9057 16.7473L12.9133 20.134H14.7933L14.8084 16.747C14.8084 16.7435 14.8085 16.7401 14.8088 16.7366L14.9115 15.2989L15.1723 10.7384C15.1732 10.723 15.1763 10.7078 15.1817 10.6933L16.3059 7.65349H11.4151Z" fill="#F6851B"/>
</svg>
