<svg width="28" height="28" viewBox="0 0 28 28" fill="none" xmlns="http://www.w3.org/2000/svg">
<path d="M21.8 1H6.2C3.32812 1 1 3.32812 1 6.2V21.8C1 24.6719 3.32812 27 6.2 27H21.8C24.6719 27 27 24.6719 27 21.8V6.2C27 3.32812 24.6719 1 21.8 1Z" fill="black"/>
<path d="M18.8213 6.81687L15.4828 11.7714C15.2519 12.1088 15.6959 12.5172 16.0155 12.2331L19.3008 9.37403C19.3896 9.303 19.5139 9.35627 19.5139 9.48058V18.4129C19.5139 18.5372 19.3541 18.5905 19.283 18.5017L9.33851 6.60377C9.01887 6.2131 8.55716 6 8.04218 6H7.68701C6.7636 6 6 6.7636 6 7.70477V20.2775C6 21.2186 6.7636 21.9822 7.70477 21.9822C8.29079 21.9822 8.84129 21.6804 9.16093 21.1654L12.4994 16.2109C12.7303 15.8735 12.2863 15.465 11.9667 15.7492L8.68146 18.5905C8.59267 18.6615 8.46837 18.6082 8.46837 18.4839V9.56937C8.46837 9.44506 8.62819 9.39179 8.69922 9.48058L18.6437 21.3785C18.9634 21.7691 19.4428 21.9822 19.9401 21.9822H20.2952C21.2364 21.9822 22 21.2186 22 20.2775V7.70477C21.9822 6.7636 21.2186 6 20.2775 6C19.6915 6 19.141 6.30189 18.8213 6.81687Z" fill="white"/>
</svg>
