<svg width="26" height="28" viewBox="0 0 26 28" fill="none" xmlns="http://www.w3.org/2000/svg">
<path d="M22 21V22.1667C22 23.45 20.95 24.5 19.6667 24.5H3.33333C2.03833 24.5 1 23.45 1 22.1667V5.83333C1 4.55 2.03833 3.5 3.33333 3.5H19.6667C20.95 3.5 22 4.55 22 5.83333V7H11.5C10.205 7 9.16667 8.05 9.16667 9.33333V18.6667C9.16667 19.95 10.205 21 11.5 21H22ZM11.5 18.6667H23.1667V9.33333H11.5V18.6667ZM16.1667 15.75C15.1983 15.75 14.4167 14.9683 14.4167 14C14.4167 13.0317 15.1983 12.25 16.1667 12.25C17.135 12.25 17.9167 13.0317 17.9167 14C17.9167 14.9683 17.135 15.75 16.1667 15.75Z" fill="white"/>
</svg>
