<svg width="134" height="35" viewBox="0 0 134 35" fill="none" xmlns="http://www.w3.org/2000/svg">
<path d="M6.07194 13.8504H5.20181L7.15694 8.41748H8.10399L10.0591 13.8504H9.189L7.65301 9.40433H7.61057L6.07194 13.8504ZM6.21784 11.7229H9.04044V12.4126H6.21784V11.7229Z" fill="#62718A"/>
<path d="M13.5445 12.1606V9.77572H14.3403V13.8504H13.5604V13.1448H13.5179C13.4242 13.3623 13.2739 13.5436 13.0669 13.6886C12.8618 13.8319 12.6062 13.9035 12.3003 13.9035C12.0385 13.9035 11.8069 13.846 11.6052 13.7311C11.4054 13.6143 11.248 13.4419 11.133 13.2138C11.0199 12.9856 10.9633 12.7035 10.9633 12.3675V9.77572H11.7565V12.272C11.7565 12.5497 11.8334 12.7708 11.9872 12.9352C12.1411 13.0997 12.341 13.1819 12.5868 13.1819C12.7353 13.1819 12.883 13.1448 13.0298 13.0705C13.1784 12.9962 13.3013 12.8839 13.3985 12.7336C13.4976 12.5833 13.5462 12.3923 13.5445 12.1606Z" fill="#62718A"/>
<path d="M17.1147 13.93C16.7857 13.93 16.4921 13.846 16.2339 13.678C15.9775 13.5082 15.7759 13.2668 15.6291 12.9538C15.4841 12.639 15.4116 12.2614 15.4116 11.821C15.4116 11.3807 15.485 11.004 15.6318 10.6909C15.7803 10.3779 15.9837 10.1383 16.2419 9.97203C16.5001 9.80579 16.7928 9.72267 17.12 9.72267C17.3729 9.72267 17.5763 9.76511 17.7301 9.85C17.8858 9.93312 18.006 10.0304 18.0909 10.1418C18.1776 10.2532 18.2448 10.3514 18.2925 10.4363H18.3403V8.41748H19.1335V13.8504H18.3588V13.2164H18.2925C18.2448 13.3031 18.1758 13.4021 18.0856 13.5135C17.9972 13.625 17.8751 13.7222 17.7195 13.8054C17.5639 13.8885 17.3623 13.93 17.1147 13.93ZM17.2898 13.2536C17.5179 13.2536 17.7107 13.1934 17.8681 13.0732C18.0272 12.9511 18.1475 12.7822 18.2289 12.5665C18.312 12.3507 18.3535 12.0996 18.3535 11.8131C18.3535 11.5301 18.3129 11.2825 18.2315 11.0703C18.1502 10.8581 18.0308 10.6927 17.8734 10.5742C17.716 10.4557 17.5214 10.3965 17.2898 10.3965C17.051 10.3965 16.852 10.4584 16.6929 10.5822C16.5337 10.706 16.4134 10.8749 16.3321 11.0889C16.2525 11.3029 16.2127 11.5443 16.2127 11.8131C16.2127 12.0854 16.2534 12.3304 16.3347 12.5479C16.4161 12.7654 16.5364 12.9379 16.6955 13.0652C16.8565 13.1908 17.0545 13.2536 17.2898 13.2536Z" fill="#62718A"/>
<path d="M20.4488 13.8504V9.77572H21.242V13.8504H20.4488ZM20.8494 9.14701C20.7114 9.14701 20.5929 9.10102 20.4939 9.00906C20.3966 8.91533 20.348 8.80391 20.348 8.67481C20.348 8.54393 20.3966 8.43251 20.4939 8.34055C20.5929 8.24682 20.7114 8.19995 20.8494 8.19995C20.9873 8.19995 21.1049 8.24682 21.2022 8.34055C21.3012 8.43251 21.3508 8.54393 21.3508 8.67481C21.3508 8.80391 21.3012 8.91533 21.2022 9.00906C21.1049 9.10102 20.9873 9.14701 20.8494 9.14701Z" fill="#62718A"/>
<path d="M24.3944 9.77572V10.4124H22.1687V9.77572H24.3944ZM22.7656 8.79949H23.5588V12.654C23.5588 12.8079 23.5817 12.9237 23.6277 13.0015C23.6737 13.0776 23.733 13.1298 23.8055 13.1581C23.8797 13.1846 23.9602 13.1979 24.0469 13.1979C24.1105 13.1979 24.1663 13.1934 24.214 13.1846C24.2618 13.1757 24.2989 13.1687 24.3254 13.1634L24.4687 13.8186C24.4227 13.8363 24.3573 13.854 24.2724 13.8717C24.1875 13.8911 24.0814 13.9017 23.954 13.9035C23.7453 13.907 23.5508 13.8699 23.3704 13.7921C23.19 13.7143 23.0441 13.594 22.9327 13.4313C22.8213 13.2686 22.7656 13.0643 22.7656 12.8185V8.79949Z" fill="#62718A"/>
<path d="M27.1674 13.9327C26.766 13.9327 26.4202 13.8469 26.1302 13.6754C25.8419 13.502 25.6191 13.2589 25.4617 12.9458C25.3061 12.631 25.2282 12.2623 25.2282 11.8396C25.2282 11.4222 25.3061 11.0544 25.4617 10.736C25.6191 10.4177 25.8384 10.1692 26.1196 9.9906C26.4025 9.81198 26.7333 9.72267 27.1117 9.72267C27.3416 9.72267 27.5645 9.76069 27.7802 9.83674C27.996 9.91279 28.1897 10.0322 28.3612 10.1949C28.5328 10.3576 28.6681 10.5689 28.7671 10.8289C28.8661 11.0871 28.9156 11.401 28.9156 11.7706V12.0518H25.6766V11.4576H28.1384C28.1384 11.2489 28.0959 11.0641 28.011 10.9032C27.9261 10.7405 27.8068 10.6122 27.6529 10.5185C27.5008 10.4248 27.3222 10.3779 27.117 10.3779C26.8942 10.3779 26.6997 10.4327 26.5334 10.5424C26.3689 10.6503 26.2416 10.7918 26.1514 10.9668C26.063 11.1402 26.0188 11.3285 26.0188 11.5319V11.9961C26.0188 12.2685 26.0665 12.5002 26.162 12.6912C26.2593 12.8822 26.3946 13.0281 26.5679 13.1289C26.7412 13.2279 26.9437 13.2774 27.1754 13.2774C27.3257 13.2774 27.4628 13.2562 27.5866 13.2138C27.7104 13.1696 27.8174 13.1041 27.9076 13.0175C27.9978 12.9308 28.0667 12.8238 28.1145 12.6965L28.8652 12.8318C28.8051 13.0528 28.6972 13.2465 28.5416 13.4127C28.3877 13.5772 28.1941 13.7054 27.9606 13.7974C27.729 13.8876 27.4646 13.9327 27.1674 13.9327Z" fill="#62718A"/>
<path d="M31.5043 13.93C31.1754 13.93 30.8818 13.846 30.6236 13.678C30.3672 13.5082 30.1655 13.2668 30.0188 12.9538C29.8737 12.639 29.8012 12.2614 29.8012 11.821C29.8012 11.3807 29.8746 11.004 30.0214 10.6909C30.17 10.3779 30.3733 10.1383 30.6316 9.97203C30.8898 9.80579 31.1825 9.72267 31.5096 9.72267C31.7625 9.72267 31.9659 9.76511 32.1198 9.85C32.2754 9.93312 32.3957 10.0304 32.4806 10.1418C32.5672 10.2532 32.6344 10.3514 32.6822 10.4363H32.7299V8.41748H33.5231V13.8504H32.7485V13.2164H32.6822C32.6344 13.3031 32.5655 13.4021 32.4753 13.5135C32.3868 13.625 32.2648 13.7222 32.1092 13.8054C31.9535 13.8885 31.7519 13.93 31.5043 13.93ZM31.6794 13.2536C31.9076 13.2536 32.1003 13.1934 32.2577 13.0732C32.4169 12.9511 32.5372 12.7822 32.6185 12.5665C32.7016 12.3507 32.7432 12.0996 32.7432 11.8131C32.7432 11.5301 32.7025 11.2825 32.6212 11.0703C32.5398 10.8581 32.4204 10.6927 32.263 10.5742C32.1056 10.4557 31.9111 10.3965 31.6794 10.3965C31.4407 10.3965 31.2417 10.4584 31.0825 10.5822C30.9234 10.706 30.8031 10.8749 30.7218 11.0889C30.6422 11.3029 30.6024 11.5443 30.6024 11.8131C30.6024 12.0854 30.6431 12.3304 30.7244 12.5479C30.8058 12.7654 30.926 12.9379 31.0852 13.0652C31.2461 13.1908 31.4442 13.2536 31.6794 13.2536Z" fill="#62718A"/>
<path d="M37.0624 13.8504V8.41748H37.8556V10.4363H37.9033C37.9493 10.3514 38.0156 10.2532 38.1023 10.1418C38.1889 10.0304 38.3092 9.93312 38.4631 9.85C38.6169 9.76511 38.8203 9.72267 39.0732 9.72267C39.4022 9.72267 39.6957 9.80579 39.9539 9.97203C40.2122 10.1383 40.4147 10.3779 40.5614 10.6909C40.71 11.004 40.7843 11.3807 40.7843 11.821C40.7843 12.2614 40.7109 12.639 40.5641 12.9538C40.4173 13.2668 40.2157 13.5082 39.9592 13.678C39.7028 13.846 39.4101 13.93 39.0812 13.93C38.8336 13.93 38.6311 13.8885 38.4737 13.8054C38.318 13.7222 38.196 13.625 38.1076 13.5135C38.0192 13.4021 37.9511 13.3031 37.9033 13.2164H37.837V13.8504H37.0624ZM37.8396 11.8131C37.8396 12.0996 37.8812 12.3507 37.9643 12.5665C38.0475 12.7822 38.1677 12.9511 38.3251 13.0732C38.4825 13.1934 38.6753 13.2536 38.9034 13.2536C39.1404 13.2536 39.3385 13.1908 39.4977 13.0652C39.6568 12.9379 39.7771 12.7654 39.8584 12.5479C39.9416 12.3304 39.9831 12.0854 39.9831 11.8131C39.9831 11.5443 39.9424 11.3029 39.8611 11.0889C39.7815 10.8749 39.6613 10.706 39.5003 10.5822C39.3411 10.4584 39.1422 10.3965 38.9034 10.3965C38.6735 10.3965 38.479 10.4557 38.3198 10.5742C38.1624 10.6927 38.043 10.8581 37.9617 11.0703C37.8803 11.2825 37.8396 11.5301 37.8396 11.8131Z" fill="#62718A"/>
<path d="M42.221 15.3785C42.1025 15.3785 41.9946 15.3687 41.8973 15.3493C41.8001 15.3316 41.7275 15.3122 41.6798 15.2909L41.8708 14.641C42.0158 14.6799 42.1449 14.6967 42.2581 14.6914C42.3713 14.6861 42.4712 14.6436 42.5579 14.5641C42.6463 14.4845 42.7241 14.3545 42.7913 14.1741L42.8895 13.9035L41.3986 9.77572H42.2475L43.2794 12.9379H43.3219L44.3538 9.77572H45.2054L43.5262 14.3943C43.4483 14.6065 43.3493 14.786 43.229 14.9328C43.1088 15.0814 42.9655 15.1928 42.7993 15.2671C42.633 15.3413 42.4403 15.3785 42.221 15.3785Z" fill="#62718A"/>
<path d="M46.6567 13.9009C46.5117 13.9009 46.387 13.8496 46.2826 13.747C46.1783 13.6426 46.1261 13.5171 46.1261 13.3703C46.1261 13.2253 46.1783 13.1015 46.2826 12.9989C46.387 12.8946 46.5117 12.8424 46.6567 12.8424C46.8017 12.8424 46.9264 12.8946 47.0307 12.9989C47.1351 13.1015 47.1872 13.2253 47.1872 13.3703C47.1872 13.4676 47.1625 13.5569 47.113 13.6382C47.0652 13.7178 47.0015 13.7815 46.922 13.8292C46.8424 13.877 46.7539 13.9009 46.6567 13.9009ZM46.6567 10.935C46.5117 10.935 46.387 10.8828 46.2826 10.7785C46.1783 10.6741 46.1261 10.5495 46.1261 10.4044C46.1261 10.2594 46.1783 10.1356 46.2826 10.033C46.387 9.9287 46.5117 9.87653 46.6567 9.87653C46.8017 9.87653 46.9264 9.9287 47.0307 10.033C47.1351 10.1356 47.1872 10.2594 47.1872 10.4044C47.1872 10.5017 47.1625 10.591 47.113 10.6724C47.0652 10.752 47.0015 10.8156 46.922 10.8634C46.8424 10.9111 46.7539 10.935 46.6567 10.935Z" fill="#62718A"/>
<path d="M75.5355 18.9772V22.472L72.0043 18.9772H69.5287V26.7799H72.0043V23.2486L75.5598 26.7799H78.011V18.9772H75.5355Z" fill="#62718A"/>
<path d="M33.0756 26.7799H39.6285V24.6078H33.0756V21.1857H39.6406V18.9772H33.0756H30.8914H30.6365V26.7799H30.8914H33.0756Z" fill="#62718A"/>
<path d="M59.2869 26.7799H65.3301V24.6078H59.2869V23.9646H65.3301V21.7803H59.2869V21.1614H65.3301V18.9772H59.2869H57.042H56.8357V26.7799H57.0905H59.2869Z" fill="#62718A"/>
<path d="M20.334 25.0325H23.9745V26.7799H26.4136V18.9772H26.0495H23.9745H20.334H18.4046H17.8949V22.8603V25.0325V26.7799H20.334V25.0325ZM20.334 21.1493H23.9745V22.8603H20.334V21.1493Z" fill="#62718A"/>
<path d="M7.65306 24.0131H11.2207V26.7799H13.672V18.9772H11.2207V21.6954H7.65306V18.9772H5.20181V26.7799H7.65306V24.0131Z" fill="#62718A"/>
<path d="M46.3147 23.9889H50.1008L52.5278 21.6711H52.5521V18.9772H50.1008V21.6711H46.3147V18.9772H43.8635V26.7799H46.3147V23.9889Z" fill="#62718A"/>
<path d="M52.552 23.9889H50.1008V26.7799H52.552V23.9889Z" fill="#62718A"/>
<g clip-path="url(#clip0_89_579)">
<path d="M126.658 16.3785H125.818V20.992L126.525 21.6775L128.009 21.7128V20.7943H126.658V18.2892H127.691V17.4964H126.658V16.3785Z" fill="#62718A"/>
<path d="M111.397 22.278H110.558V26.8915L111.264 27.5769L112.748 27.6122V26.6937H111.397V24.1887H112.43V23.3958H111.397V22.278Z" fill="#62718A"/>
<path d="M119.734 22.278H118.894V26.8915L119.601 27.5769L121.085 27.6122V26.6937H119.734V24.1887H120.767V23.3958H119.734V22.278Z" fill="#62718A"/>
<path d="M122.71 18.264L123.464 17.4736H124.9V18.264H123.464V21.7128H122.71V18.264Z" fill="#62718A"/>
<path d="M111.688 21.7128H110.699V18.2508L111.511 17.4736H113.278L113.737 17.8975L114.161 17.4736H115.715L116.386 18.2508V21.7128H115.468V18.2508H114.019V21.7128H113.101V18.2508H111.688V21.7128Z" fill="#62718A"/>
<path d="M106.389 18.3569H108.721L109.024 18.6041L109.533 18.0743L108.897 17.509H106.279L105.506 18.2509V19.2047L106.279 20.0172H108.897V20.9003H106.601L106.177 20.5471L105.647 21.1123L106.279 21.6422H109.024L109.78 20.9357V20.0172L109.024 19.2047H106.389V18.3569Z" fill="#62718A"/>
<path d="M106.354 24.327H108.685L108.989 24.5742L109.498 24.0443L108.862 23.4791H106.243L105.471 24.221V25.1748L106.243 25.9873H108.862V26.8704H106.566L106.142 26.5172L105.612 27.0824L106.243 27.6123H108.989L109.745 26.9058V25.9873L108.989 25.1748H106.354V24.327Z" fill="#62718A"/>
<path fill-rule="evenodd" clip-rule="evenodd" d="M126.03 27.0824L125.43 26.4818L125.077 26.8351H122.78V25.9519H125.183L125.96 25.2454V24.2563L125.112 23.4084H122.78L121.862 24.3269V26.8351L122.639 27.6476H125.43L126.03 27.0824ZM125.077 24.3269H122.816V25.2454H125.077V24.3269Z" fill="#62718A"/>
<path fill-rule="evenodd" clip-rule="evenodd" d="M117.481 18.0742L118.047 18.6747L118.329 18.3921H120.484V19.1693H118.047L117.27 19.8758V20.8649L118.117 21.7128H120.06L120.731 21.2535L121.085 21.6421H121.827V20.9003H121.403V18.2861L120.696 17.4736H118.047L117.481 18.0742ZM118.223 20.0171H120.484V20.6177L120.06 20.8649H118.223V20.0171Z" fill="#62718A"/>
<path fill-rule="evenodd" clip-rule="evenodd" d="M113.737 24.009L114.302 24.6095L114.585 24.3269H116.74V25.1041H114.302L113.525 25.8106V26.7998L114.373 27.6476H116.316L116.987 27.1883L117.34 27.5769H118.082V26.8351H117.658V24.2209L116.952 23.4084H114.302L113.737 24.009ZM114.479 25.9519H116.74V26.5525L116.316 26.7998H114.479V25.9519Z" fill="#62718A"/>
<path d="M103.39 24.0438L103.391 21.5577L101.495 20.4996L99.256 21.7369L97.3783 25.1013L97.4669 27.7179L99.3627 28.776L101.631 27.1941L103.39 24.0438Z" fill="#62718A"/>
<path d="M90.7733 24.0438L90.7717 21.5577L92.6675 20.4996L94.9069 21.7369L96.7845 25.1013L96.696 27.7179L94.8001 28.776L92.5315 27.1941L90.7733 24.0438Z" fill="#62718A"/>
<path d="M95.1368 21.1122L92.9651 19.9021V17.731L95.1368 16.3785H98.9897L101.231 17.731V19.9021L98.7445 21.1122H95.1368Z" fill="#62718A"/>
</g>
<defs>
<clipPath id="clip0_89_579">
<rect width="38.2935" height="13" fill="white" transform="translate(89.7151 16.3785)"/>
</clipPath>
</defs>
</svg>
