<svg width="102" height="102" viewBox="0 0 102 102" fill="none" xmlns="http://www.w3.org/2000/svg">
<circle cx="51" cy="51" r="51" fill="url(#paint0_linear_1819_5022)" fill-opacity="0.2"/>
<circle cx="51" cy="51" r="50.5" stroke="url(#paint1_linear_1819_5022)" stroke-opacity="0.4"/>
<circle cx="51" cy="51" r="37.5" fill="url(#paint2_linear_1819_5022)" fill-opacity="0.2" stroke="url(#paint3_linear_1819_5022)"/>
<g clip-path="url(#clip0_1819_5022)">
<path d="M68.5135 35.2865C68.5131 33.8846 67.9601 32.5402 66.9761 31.5489C65.9922 30.5576 64.6578 30.0005 63.2663 30H36.5856C35.89 30 35.2229 30.2784 34.7311 30.7739C34.2392 31.2695 33.9629 31.9416 33.9629 32.6424C33.9629 33.1371 34.1009 33.6218 34.3611 34.0414C34.6213 34.4609 34.9932 34.7984 35.4345 35.0153L33.9629 63.9616H64.7167C65.2152 63.9619 65.7089 63.8632 66.1695 63.6711C66.6302 63.4791 67.0488 63.1975 67.4014 62.8424C67.7539 62.4873 68.0336 62.0658 68.2245 61.6018C68.4153 61.1378 68.5135 60.6404 68.5135 60.1382V35.2865Z" fill="#923301"/>
<path d="M68.5135 35.2865C68.5131 33.8846 67.9601 32.5402 66.9761 31.5489C65.9922 30.5576 64.6578 30.0005 63.2663 30H36.5856C35.89 30 35.2229 30.2784 34.7311 30.7739C34.2392 31.2695 33.9629 31.9416 33.9629 32.6424C33.9629 33.1371 34.1009 33.6218 34.3611 34.0414C34.6213 34.4609 34.9932 34.7984 35.4345 35.0153L33.9629 63.9616H64.7167C65.2152 63.9619 65.7089 63.8632 66.1695 63.6711C66.6302 63.4791 67.0488 63.1975 67.4014 62.8424C67.7539 62.4873 68.0336 62.0658 68.2245 61.6018C68.4153 61.1378 68.5135 60.6404 68.5135 60.1382V35.2865Z" fill="#191C28"/>
<path opacity="0.2" d="M65.6733 60.1382V35.2865C65.6727 34.4808 65.489 33.686 65.1363 32.963C64.7836 32.2399 64.2712 31.6078 63.6385 31.1151C62.4503 36.696 55.7951 61.5013 31.1315 63.7369L31.1191 63.9652H61.8765C62.3753 63.9655 62.8693 63.8666 63.3302 63.6743C63.791 63.4821 64.2098 63.2002 64.5624 62.8447C64.915 62.4893 65.1947 62.0673 65.3853 61.6029C65.5759 61.1384 65.6738 60.6407 65.6733 60.1382Z" fill="#03081D"/>
<path opacity="0.3" d="M63.2663 30H36.5856C35.89 30 35.2229 30.2784 34.7311 30.7739C34.2392 31.2695 33.9629 31.9416 33.9629 32.6424C33.9629 33.1371 34.1009 33.6218 34.3611 34.0414C34.6213 34.4609 34.9932 34.7984 35.4345 35.0153L33.9629 63.9616H64.7167C65.2152 63.9619 65.7089 63.8632 66.1695 63.6711C66.6302 63.4791 67.0488 63.1975 67.4014 62.8424C67.7539 62.4873 68.0336 62.0658 68.2245 61.6018C68.4153 61.1378 68.5135 60.6404 68.5135 60.1382V35.2865C68.5131 33.8846 67.9601 32.5402 66.9761 31.5489C65.9922 30.5576 64.6578 30.0005 63.2663 30ZM67.9929 60.1382C67.9919 61.0131 67.6464 61.8519 67.0322 62.4704C66.4179 63.089 65.5851 63.4366 64.7167 63.4371H34.5101L35.9729 34.6959L35.6647 34.5443C35.2369 34.3351 34.8921 33.9858 34.6869 33.5535C34.4817 33.1212 34.4282 32.6316 34.5352 32.1647C34.6422 31.6978 34.9032 31.2813 35.2757 30.9834C35.6482 30.6854 36.11 30.5237 36.5856 30.5245H63.2663C64.5194 30.526 65.7208 31.0281 66.6069 31.9209C67.493 32.8136 67.9915 34.024 67.9929 35.2865V60.1382Z" fill="#666D89"/>
<path d="M65.6641 38.6568H37.2852V37.4079H64.4174C64.7462 37.4079 65.0615 37.5395 65.294 37.7737C65.5265 38.0079 65.6571 38.3256 65.6571 38.6568H65.6641Z" fill="#090D1C"/>
<path d="M65.6641 34.7905H37.2852C37.2852 34.4592 37.4158 34.1416 37.6482 33.9074C37.8807 33.6732 38.196 33.5416 38.5248 33.5416H64.4174C64.7462 33.5416 65.0615 33.6732 65.294 33.9074C65.5265 34.1416 65.6571 34.4592 65.6571 34.7905H65.6641Z" fill="#090D1C"/>
<path d="M39.5718 35.8646H63.38C63.5524 35.8646 63.7177 35.9336 63.8396 36.0563C63.9615 36.1791 64.03 36.3457 64.03 36.5194V38.0288H38.9219V36.5194C38.9219 36.3457 38.9903 36.1791 39.1122 36.0563C39.2341 35.9336 39.3994 35.8646 39.5718 35.8646Z" fill="#0057BF"/>
<path d="M61.7448 38.9458L35.8734 34.2517C35.0659 34.1054 34.4567 33.4435 34.23 32.5871L33.9626 32.5157L33.0081 62.9964C32.9757 64.0215 33.2991 65.0258 33.9226 65.8364C34.5462 66.647 35.4309 67.2131 36.4242 67.4372L55.8707 71.8352C57.9285 72.2081 61.9166 71.1001 62.3593 68.6237L64.6739 44.1092C65.1095 41.631 63.8008 39.3223 61.7448 38.9458Z" fill="#3E64ED"/>
<path opacity="0.2" d="M62.3522 68.6219L64.6668 44.1074C64.8839 42.9784 64.7107 41.8085 64.1763 40.7924C62.0512 45.8559 53.7526 61.8278 33.0081 62.6663V62.9964C32.9757 64.0214 33.2991 65.0258 33.9226 65.8364C34.5462 66.647 35.4309 67.2131 36.4242 67.4372L55.8707 71.8352C57.9214 72.2081 61.9095 71.1001 62.3522 68.6219Z" fill="#112A83"/>
<path opacity="0.03" d="M34.8196 62.5522L38.0463 46.7534C38.4256 44.8977 39.5145 43.2669 41.0776 42.2136C42.6407 41.1603 44.5525 40.769 46.3997 41.1243L62.5151 44.227C63.1293 43.1126 63.6844 41.9661 64.178 40.7924C63.6467 39.829 62.7984 39.135 61.75 38.9458L35.8751 34.2517C35.0676 34.1054 34.4584 33.4435 34.2317 32.5871L33.9643 32.5157L33.0098 62.9964L33.0204 62.6664C33.626 62.6414 34.2282 62.6021 34.8196 62.5522Z" fill="white"/>
<g opacity="0.3">
<path opacity="0.3" d="M37.3182 35.845H37.343C37.3734 35.8443 37.4026 35.8331 37.4258 35.8133C37.4491 35.7935 37.4648 35.7662 37.4705 35.7361V35.7147C37.4706 35.6839 37.4601 35.6541 37.4407 35.6303C37.4213 35.6065 37.3942 35.5903 37.3642 35.5845L36.5974 35.4453C36.5647 35.442 36.5319 35.4511 36.5056 35.471C36.4793 35.4908 36.4614 35.5199 36.4553 35.5525C36.4493 35.5851 36.4557 35.6187 36.4731 35.6468C36.4906 35.6749 36.5179 35.6953 36.5496 35.704L37.3182 35.845Z" fill="white"/>
<path opacity="0.3" d="M34.7792 43.7399C34.7624 43.7396 34.7458 43.7427 34.7302 43.749C34.7147 43.7552 34.7005 43.7645 34.6885 43.7762C34.6765 43.788 34.6669 43.802 34.6603 43.8175C34.6537 43.833 34.6501 43.8497 34.6499 43.8665L34.6251 44.6534C34.6244 44.6705 34.6271 44.6877 34.6331 44.7038C34.6391 44.7199 34.6482 44.7346 34.6599 44.747C34.6716 44.7595 34.6857 44.7695 34.7013 44.7764C34.717 44.7833 34.7338 44.787 34.7508 44.7872C34.7676 44.7874 34.7842 44.7843 34.7998 44.7781C34.8153 44.7719 34.8295 44.7626 34.8415 44.7508C34.8535 44.7391 34.8631 44.725 34.8697 44.7095C34.8764 44.694 34.8799 44.6774 34.8801 44.6605L34.9049 43.8755C34.9059 43.8582 34.9033 43.8408 34.8975 43.8245C34.8916 43.8082 34.8825 43.7933 34.8708 43.7806C34.859 43.768 34.8449 43.7578 34.8291 43.7508C34.8134 43.7438 34.7964 43.7401 34.7792 43.7399Z" fill="white"/>
<path opacity="0.3" d="M37.4636 66.331L36.6897 66.1526C36.6797 66.1517 36.6696 66.1517 36.6596 66.1526C36.626 66.1445 36.5906 66.1501 36.5611 66.1681C36.5316 66.1862 36.5103 66.2152 36.502 66.249C36.502 66.2579 36.502 66.2686 36.502 66.2775C36.5016 66.3071 36.5112 66.3359 36.5292 66.3593C36.5472 66.3826 36.5726 66.3991 36.6011 66.406H36.6366L37.4069 66.5844C37.4163 66.586 37.4259 66.586 37.4352 66.5844C37.4691 66.588 37.5031 66.5781 37.5297 66.5567C37.5563 66.5353 37.5735 66.5041 37.5774 66.47C37.5814 66.436 37.5719 66.4017 37.5509 66.3746C37.5299 66.3476 37.4991 66.33 37.4653 66.3257L37.4636 66.331Z" fill="white"/>
<path opacity="0.3" d="M38.8526 36.1233H38.8739C38.9044 36.1234 38.9341 36.1128 38.9577 36.0932C38.9813 36.0737 38.9974 36.0464 39.0031 36.0162C39.004 36.0079 39.004 35.9995 39.0031 35.9912C39.0032 35.9607 38.9926 35.931 38.9732 35.9076C38.9538 35.8841 38.9268 35.8682 38.8969 35.8628L38.1283 35.7236C38.0943 35.7178 38.0594 35.7256 38.031 35.7452C38.0026 35.7649 37.9829 35.7949 37.976 35.8289C37.9711 35.8633 37.9793 35.8984 37.999 35.927C38.0083 35.9416 38.0205 35.9541 38.0348 35.9636C38.0491 35.9731 38.0653 35.9795 38.0823 35.9823L38.8526 36.1233Z" fill="white"/>
<path opacity="0.3" d="M34.9295 39.0243C34.9128 39.0241 34.8961 39.0272 34.8806 39.0334C34.865 39.0396 34.8508 39.0489 34.8388 39.0607C34.8268 39.0724 34.8172 39.0865 34.8106 39.1019C34.804 39.1174 34.8005 39.1341 34.8002 39.151L34.7754 39.9378C34.775 39.9549 34.7778 39.9719 34.7839 39.9879C34.79 40.0039 34.7991 40.0185 34.8108 40.0309C34.8225 40.0434 34.8365 40.0534 34.852 40.0603C34.8675 40.0673 34.8842 40.0711 34.9012 40.0716C34.9179 40.0718 34.9345 40.0688 34.9501 40.0625C34.9657 40.0563 34.9799 40.047 34.9919 40.0353C35.0039 40.0235 35.0134 40.0095 35.0201 39.994C35.0267 39.9785 35.0302 39.9618 35.0305 39.9449L35.057 39.1581C35.0575 39.1234 35.0444 39.0899 35.0205 39.0648C34.9967 39.0398 34.964 39.0252 34.9295 39.0243Z" fill="white"/>
<path opacity="0.3" d="M34.8301 42.1769C34.7962 42.1769 34.7637 42.1901 34.7392 42.2137C34.7148 42.2373 34.7004 42.2695 34.699 42.3036L34.676 43.0886C34.675 43.1059 34.6775 43.1231 34.6833 43.1394C34.689 43.1556 34.698 43.1705 34.7096 43.1832C34.7213 43.1962 34.7355 43.2065 34.7514 43.2136C34.7672 43.2206 34.7844 43.2243 34.8017 43.2242C34.8354 43.2238 34.8676 43.2101 34.8914 43.1861C34.9152 43.1621 34.9288 43.1297 34.9292 43.0958L34.954 42.3108C34.9547 42.2937 34.9521 42.2767 34.9462 42.2608C34.9403 42.2448 34.9314 42.2302 34.9198 42.2177C34.9083 42.2052 34.8944 42.1952 34.879 42.1882C34.8636 42.1812 34.847 42.1774 34.8301 42.1769Z" fill="white"/>
<path opacity="0.3" d="M34.8807 40.5944C34.8467 40.5949 34.8141 40.6084 34.7897 40.6323C34.7653 40.6562 34.751 40.6886 34.7496 40.7229L34.7266 41.5097C34.7261 41.5268 34.729 41.5438 34.7351 41.5598C34.7411 41.5758 34.7503 41.5904 34.762 41.6029C34.7736 41.6153 34.7876 41.6253 34.8031 41.6322C34.8186 41.6392 34.8354 41.6431 34.8523 41.6435C34.8691 41.6438 34.8857 41.6407 34.9013 41.6344C34.9168 41.6282 34.931 41.6189 34.943 41.6072C34.955 41.5954 34.9646 41.5814 34.9712 41.5659C34.9779 41.5504 34.9814 41.5337 34.9816 41.5168L35.0064 40.7282C35.0069 40.6938 34.994 40.6606 34.9706 40.6356C34.9471 40.6106 34.9148 40.5958 34.8807 40.5944Z" fill="white"/>
<path opacity="0.3" d="M38.987 66.6754L38.2237 66.4969C38.1904 66.4895 38.1555 66.4956 38.1266 66.514C38.0977 66.5324 38.0773 66.5615 38.0696 66.5951C38.0679 66.6051 38.0679 66.6154 38.0696 66.6254C38.0698 66.6552 38.0801 66.684 38.0988 66.707C38.1175 66.7301 38.1435 66.746 38.1724 66.7521L38.9321 66.9305C38.942 66.9322 38.9522 66.9322 38.9622 66.9305C38.9919 66.9301 39.0205 66.9197 39.0437 66.9009C39.0668 66.8821 39.083 66.8561 39.0897 66.827C39.0956 66.7924 39.0887 66.7568 39.0702 66.7271C39.0501 66.6997 39.0203 66.6811 38.987 66.6754Z" fill="white"/>
<path opacity="0.3" d="M34.9804 37.4525C34.9637 37.4522 34.947 37.4553 34.9315 37.4616C34.9159 37.4678 34.9017 37.4771 34.8897 37.4888C34.8777 37.5006 34.8681 37.5146 34.8615 37.5301C34.8549 37.5456 34.8513 37.5623 34.8511 37.5791L34.8263 38.3642C34.8255 38.3815 34.8282 38.3989 34.8343 38.4152C34.8404 38.4314 34.8497 38.4463 34.8617 38.4587C34.8848 38.4835 34.9166 38.4983 34.9503 38.4998C34.9841 38.4998 35.0167 38.4866 35.0411 38.463C35.0656 38.4394 35.08 38.4072 35.0813 38.3731L35.1061 37.5881C35.1068 37.5708 35.1041 37.5536 35.0982 37.5374C35.0922 37.5212 35.0831 37.5064 35.0714 37.4937C35.0597 37.4811 35.0457 37.471 35.03 37.4639C35.0144 37.4568 34.9975 37.4529 34.9804 37.4525Z" fill="white"/>
<path opacity="0.3" d="M35.96 65.8868C35.7387 65.7703 35.5318 65.6277 35.3437 65.4622C35.3179 65.4419 35.2855 65.4319 35.2528 65.4342C35.2201 65.4365 35.1894 65.4509 35.1667 65.4747C35.1466 65.498 35.1354 65.5277 35.1348 65.5585C35.1345 65.5774 35.1383 65.5961 35.146 65.6134C35.1536 65.6306 35.1649 65.646 35.1791 65.6584C35.3808 65.8384 35.6032 65.9935 35.8414 66.1205C35.8595 66.1297 35.8795 66.1345 35.8998 66.1348C35.9237 66.1348 35.947 66.1281 35.9674 66.1155C35.9877 66.1029 36.0041 66.0849 36.0149 66.0634C36.0219 66.0477 36.0254 66.0307 36.0254 66.0135C36.0254 65.9963 36.0219 65.9792 36.0149 65.9635C36.0068 65.9319 35.9872 65.9045 35.96 65.8868Z" fill="white"/>
<path opacity="0.3" d="M43.5549 67.7084L42.7952 67.53C42.7613 67.5225 42.726 67.5288 42.6968 67.5476C42.6676 67.5663 42.6469 67.5959 42.6393 67.6299C42.6385 67.6394 42.6385 67.6489 42.6393 67.6584C42.6394 67.6879 42.6494 67.7166 42.6678 67.7396C42.6861 67.7626 42.7117 67.7786 42.7403 67.7851L43.5035 67.9635H43.5319C43.5649 67.9651 43.5972 67.9539 43.6223 67.9322C43.6473 67.9105 43.6632 67.8799 43.6666 67.8468C43.67 67.8137 43.6607 67.7806 43.6405 67.7541C43.6204 67.7277 43.591 67.7101 43.5584 67.7048L43.5549 67.7084Z" fill="white"/>
<path opacity="0.3" d="M45.0007 37.2384H45.022C45.0524 37.2382 45.0819 37.2275 45.1055 37.208C45.129 37.1885 45.1452 37.1614 45.1513 37.1313C45.1521 37.1236 45.1521 37.1159 45.1513 37.1082C45.152 37.0774 45.1417 37.0474 45.1222 37.0238C45.1026 37.0001 45.0752 36.9845 45.045 36.9797L44.2764 36.8388C44.244 36.8361 44.2117 36.8457 44.1859 36.8657C44.1601 36.8858 44.1426 36.9147 44.1368 36.947C44.1311 36.9793 44.1375 37.0126 44.1548 37.0405C44.1721 37.0683 44.199 37.0886 44.2304 37.0975L45.0007 37.2384Z" fill="white"/>
<path opacity="0.3" d="M45.0801 68.0474L44.3186 67.869C44.3018 67.8651 44.2845 67.8645 44.2675 67.8675C44.2506 67.8704 44.2343 67.8767 44.2198 67.886C44.2053 67.8953 44.1928 67.9074 44.183 67.9216C44.1732 67.9359 44.1663 67.952 44.1628 67.9689C44.1619 67.9784 44.1619 67.988 44.1628 67.9975C44.1629 68.0272 44.1732 68.056 44.1919 68.0791C44.2106 68.1021 44.2366 68.118 44.2655 68.1241L45.027 68.3025C45.0363 68.3044 45.0459 68.3044 45.0553 68.3025C45.0849 68.3027 45.1137 68.2925 45.1366 68.2736C45.1596 68.2547 45.1753 68.2283 45.181 68.1991C45.1868 68.1656 45.1796 68.1311 45.1608 68.1028C45.142 68.0746 45.1131 68.0547 45.0801 68.0474Z" fill="white"/>
<path opacity="0.3" d="M43.4572 36.9601H43.482C43.5125 36.9597 43.5419 36.9486 43.5652 36.9288C43.5885 36.9089 43.6041 36.8815 43.6095 36.8512V36.8245C43.6096 36.7939 43.599 36.7643 43.5795 36.7408C43.5601 36.7173 43.5331 36.7015 43.5032 36.696L42.7364 36.5568C42.7024 36.5506 42.6673 36.5581 42.6388 36.5778C42.6102 36.5976 42.5906 36.6279 42.5841 36.6621C42.5811 36.679 42.5814 36.6963 42.585 36.7131C42.5885 36.7298 42.5954 36.7457 42.6051 36.7598C42.6148 36.7739 42.6272 36.7859 42.6415 36.7952C42.6559 36.8044 42.6719 36.8107 42.6886 36.8138L43.4572 36.9601Z" fill="white"/>
<path opacity="0.3" d="M40.3905 36.4016H40.4153C40.4456 36.4013 40.4748 36.3905 40.498 36.371C40.5213 36.3515 40.5371 36.3245 40.5428 36.2945V36.2713C40.5432 36.2407 40.5328 36.2109 40.5133 36.1873C40.4938 36.1638 40.4666 36.148 40.4366 36.1429L39.6697 36.0019C39.6355 35.9962 39.6004 36.0042 39.5719 36.0242C39.5435 36.0442 39.5239 36.0746 39.5174 36.109C39.5118 36.1432 39.5194 36.1783 39.5387 36.2071C39.5586 36.2351 39.5884 36.2542 39.6219 36.2606L40.3905 36.4016Z" fill="white"/>
<path opacity="0.3" d="M42.041 67.3659L41.2795 67.1875C41.246 67.18 41.2108 67.186 41.1817 67.2044C41.1525 67.2228 41.1317 67.2519 41.1237 67.2856C41.1228 67.2957 41.1228 67.3058 41.1237 67.3159C41.1246 67.3454 41.1349 67.3738 41.1531 67.397C41.1712 67.4201 41.1963 67.4367 41.2246 67.4444L41.9879 67.6228H42.0162C42.0456 67.623 42.0742 67.6131 42.0971 67.5945C42.12 67.576 42.1358 67.5501 42.142 67.5211C42.1456 67.5042 42.1458 67.4868 42.1427 67.4698C42.1396 67.4528 42.1331 67.4366 42.1237 67.4222C42.1143 67.4078 42.1022 67.3954 42.088 67.3857C42.0738 67.376 42.0578 67.3693 42.041 67.3659Z" fill="white"/>
<path opacity="0.3" d="M40.5099 67.0197L39.7466 66.8413C39.7131 66.8349 39.6784 66.8416 39.6497 66.8602C39.621 66.8788 39.6006 66.9078 39.5925 66.9412C39.5916 66.9513 39.5916 66.9615 39.5925 66.9716C39.593 67.0012 39.6034 67.0299 39.6221 67.0529C39.6407 67.0758 39.6665 67.0918 39.6952 67.0982L40.4567 67.2767H40.4851C40.5144 67.2766 40.5428 67.2665 40.5656 67.248C40.5884 67.2295 40.6044 67.2038 40.6108 67.175C40.6176 67.1409 40.6109 67.1055 40.592 67.0765C40.5731 67.0474 40.5436 67.027 40.5099 67.0197Z" fill="white"/>
<path opacity="0.3" d="M41.927 36.6799H41.95C41.9804 36.6793 42.0097 36.6681 42.0329 36.6483C42.0561 36.6285 42.0718 36.6012 42.0775 36.5711C42.0785 36.5634 42.0785 36.5556 42.0775 36.5479C42.0783 36.5172 42.068 36.4871 42.0484 36.4635C42.0289 36.4399 42.0014 36.4242 41.9713 36.4194L41.2027 36.2803C41.1686 36.274 41.1335 36.2816 41.105 36.3013C41.0765 36.321 41.0568 36.3513 41.0504 36.3855C41.0451 36.42 41.0533 36.4551 41.073 36.4837C41.0928 36.5123 41.1228 36.5321 41.1566 36.539L41.927 36.6799Z" fill="white"/>
<path opacity="0.3" d="M34.6982 46.3591C34.7318 46.3591 34.7641 46.3462 34.7885 46.323C34.8128 46.2997 34.8274 46.2679 34.8293 46.2342L34.8541 45.4456C34.8536 45.4113 34.8402 45.3785 34.8164 45.3539C34.7927 45.3294 34.7605 45.3149 34.7265 45.3136C34.7098 45.3133 34.6932 45.3164 34.6776 45.3226C34.6621 45.3289 34.6479 45.3381 34.6359 45.3499C34.6239 45.3617 34.6143 45.3757 34.6076 45.3912C34.601 45.4067 34.5975 45.4233 34.5973 45.4402L34.5725 46.2253C34.5715 46.2425 34.574 46.2597 34.5797 46.276C34.5855 46.2922 34.5945 46.3071 34.6061 46.3198C34.6305 46.3446 34.6636 46.3588 34.6982 46.3591Z" fill="white"/>
<path opacity="0.3" d="M34.5498 51.0764C34.5838 51.0764 34.6164 51.0629 34.6406 51.0389C34.6648 51.0148 34.6786 50.9821 34.6791 50.9479L34.7056 50.1611C34.7052 50.1271 34.692 50.0946 34.6687 50.07C34.6453 50.0455 34.6136 50.0309 34.5799 50.0291C34.5632 50.0288 34.5465 50.0319 34.531 50.0382C34.5154 50.0444 34.5012 50.0537 34.4892 50.0654C34.4772 50.0772 34.4676 50.0912 34.461 50.1067C34.4544 50.1222 34.4509 50.1389 34.4506 50.1557L34.4258 50.9408C34.4249 50.9752 34.4373 51.0086 34.4604 51.034C34.4836 51.0593 34.5157 51.0745 34.5498 51.0764Z" fill="white"/>
<path opacity="0.3" d="M34.6492 47.9327C34.6832 47.9323 34.7157 47.9187 34.7401 47.8948C34.7645 47.8709 34.7789 47.8385 34.7802 47.8042L34.805 47.0192C34.8052 47.0021 34.8021 46.9851 34.7959 46.9692C34.7896 46.9533 34.7802 46.9388 34.7684 46.9266C34.7566 46.9143 34.7424 46.9045 34.7268 46.8977C34.7112 46.891 34.6945 46.8874 34.6775 46.8872C34.6608 46.8869 34.6441 46.89 34.6286 46.8963C34.613 46.9025 34.5988 46.9118 34.5868 46.9235C34.5748 46.9353 34.5652 46.9493 34.5586 46.9648C34.552 46.9803 34.5485 46.997 34.5482 47.0138L34.5234 47.8007C34.5234 47.8348 34.5365 47.8676 34.5599 47.8922C34.5834 47.9168 34.6153 47.9313 34.6492 47.9327Z" fill="white"/>
<path opacity="0.3" d="M45.7586 37.3776L46.5272 37.5167H46.552C46.5822 37.5164 46.6114 37.5056 46.6347 37.4861C46.6579 37.4666 46.6737 37.4396 46.6795 37.4097V37.3865C46.68 37.3556 46.6695 37.3256 46.6501 37.3017C46.6306 37.2778 46.6034 37.2617 46.5732 37.2562L45.8064 37.1171C45.7737 37.1137 45.7409 37.1229 45.7146 37.1427C45.6883 37.1626 45.6703 37.1917 45.6643 37.2242C45.6583 37.2568 45.6647 37.2905 45.6821 37.3185C45.6996 37.3466 45.7269 37.367 45.7586 37.3758V37.3776Z" fill="white"/>
<path opacity="0.3" d="M34.5001 64.2346C34.4942 64.2186 34.4852 64.2038 34.4736 64.1913C34.462 64.1787 34.4481 64.1686 34.4326 64.1615C34.4172 64.1543 34.4005 64.1504 34.3835 64.1497C34.3665 64.1491 34.3495 64.1519 34.3336 64.1579C34.3087 64.1668 34.2872 64.1832 34.2719 64.2049C34.2567 64.2267 34.2486 64.2526 34.2486 64.2792C34.2453 64.2951 34.2453 64.3115 34.2486 64.3274C34.3453 64.5797 34.472 64.8194 34.6258 65.0411C34.638 65.0586 34.6541 65.0729 34.6729 65.0828C34.6917 65.0928 34.7126 65.098 34.7338 65.0981C34.7604 65.0984 34.7864 65.0903 34.8082 65.075C34.8351 65.0549 34.8534 65.0253 34.8594 64.9921C34.8653 64.959 34.8584 64.9248 34.8401 64.8965C34.7006 64.6905 34.5865 64.4683 34.5001 64.2346Z" fill="white"/>
<path opacity="0.3" d="M34.9931 36.928C35.027 36.928 35.0595 36.9148 35.0839 36.8912C35.1084 36.8676 35.1228 36.8354 35.1242 36.8013L35.1489 36.0162C35.149 35.9818 35.1356 35.9488 35.1118 35.9241C35.088 35.8995 35.0556 35.8851 35.0214 35.8842C34.9878 35.8842 34.9554 35.8974 34.9313 35.9211C34.9071 35.9448 34.8931 35.977 34.8922 36.0109L34.8674 36.7977C34.8664 36.8148 34.8691 36.8319 34.8752 36.8479C34.8813 36.8639 34.8907 36.8784 34.9028 36.8905C34.9145 36.9027 34.9285 36.9123 34.9441 36.9187C34.9596 36.9252 34.9763 36.9283 34.9931 36.928Z" fill="white"/>
<path opacity="0.3" d="M61.1292 40.1662L61.5153 40.234C61.6362 40.2558 61.7548 40.2893 61.8694 40.3339C61.8841 40.3396 61.8997 40.3426 61.9155 40.3428C61.9419 40.3429 61.9676 40.3349 61.9894 40.3199C62.0112 40.305 62.028 40.2837 62.0377 40.259C62.0402 40.243 62.0402 40.2268 62.0377 40.2108C62.0372 40.1843 62.0289 40.1586 62.0137 40.137C61.9985 40.1153 61.9773 40.0988 61.9527 40.0895C61.8236 40.0396 61.6902 40.002 61.5542 39.9771L61.1717 39.9075C61.1377 39.9017 61.1028 39.9095 61.0744 39.9291C61.046 39.9488 61.0263 39.9787 61.0194 40.0128C61.0138 40.047 61.0214 40.0821 61.0406 40.1109C61.0507 40.1259 61.0638 40.1386 61.0791 40.1481C61.0943 40.1576 61.1114 40.1638 61.1292 40.1662Z" fill="white"/>
<path opacity="0.3" d="M63.4317 42.7122C63.4348 42.7441 63.4495 42.7736 63.4731 42.7951C63.4967 42.8165 63.5274 42.8283 63.5592 42.8282H63.5751C63.6072 42.8246 63.6368 42.8091 63.6581 42.7847C63.6794 42.7602 63.6908 42.7286 63.6902 42.6961V42.6837C63.6612 42.4139 63.6048 42.1479 63.522 41.8897C63.5167 41.8734 63.5084 41.8583 63.4974 41.8453C63.4863 41.8323 63.4729 41.8216 63.4578 41.8138C63.4426 41.806 63.4261 41.8013 63.4092 41.7999C63.3923 41.7986 63.3752 41.8006 63.3591 41.8058C63.3429 41.8111 63.3279 41.8195 63.315 41.8306C63.3021 41.8417 63.2914 41.8553 63.2837 41.8705C63.276 41.8858 63.2713 41.9024 63.2699 41.9195C63.2686 41.9365 63.2706 41.9537 63.2758 41.97C63.3518 42.2116 63.404 42.4602 63.4317 42.7122Z" fill="white"/>
<path opacity="0.3" d="M62.9624 41.2849C62.9742 41.3038 62.9907 41.3193 63.0103 41.3299C63.0298 41.3405 63.0518 41.3459 63.074 41.3455C63.0978 41.346 63.1213 41.3391 63.1413 41.3259C63.1602 41.314 63.1759 41.2975 63.1867 41.2778C63.1976 41.2581 63.2033 41.236 63.2032 41.2135C63.2028 41.1896 63.1961 41.1662 63.1838 41.1457C63.0386 40.9104 62.8595 40.6982 62.6525 40.5159C62.6396 40.5042 62.6245 40.4951 62.6081 40.4893C62.5917 40.4834 62.5744 40.4809 62.557 40.4818C62.522 40.4836 62.4891 40.4994 62.4656 40.5257C62.4422 40.552 62.43 40.5865 62.4318 40.6218C62.4336 40.6571 62.4493 40.6903 62.4754 40.7139C62.6663 40.8775 62.8306 41.0701 62.9624 41.2849Z" fill="white"/>
<path opacity="0.3" d="M34.6023 49.5028C34.6362 49.5028 34.6687 49.4896 34.6931 49.466C34.7176 49.4424 34.732 49.4102 34.7333 49.3761L34.7581 48.5911C34.7584 48.574 34.7553 48.557 34.749 48.5411C34.7427 48.5252 34.7334 48.5107 34.7215 48.4984C34.7097 48.4862 34.6956 48.4764 34.68 48.4696C34.6644 48.4629 34.6476 48.4593 34.6306 48.459C34.597 48.459 34.5646 48.4723 34.5404 48.4959C34.5163 48.5196 34.5023 48.5518 34.5014 48.5857L34.4766 49.3725C34.4765 49.4065 34.4897 49.4391 34.5132 49.4634C34.5366 49.4877 34.5686 49.5018 34.6023 49.5028Z" fill="white"/>
<path opacity="0.3" d="M34.2494 60.5075C34.2834 60.5071 34.3159 60.4935 34.3403 60.4696C34.3647 60.4457 34.3791 60.4133 34.3804 60.3791L34.4052 59.5922C34.4052 59.5578 34.3919 59.5248 34.3681 59.5001C34.3443 59.4755 34.3118 59.4611 34.2777 59.4602C34.244 59.4602 34.2117 59.4734 34.1875 59.4971C34.1634 59.5207 34.1494 59.553 34.1484 59.5869L34.1272 60.3755C34.1261 60.3926 34.1288 60.4098 34.1349 60.4258C34.141 60.4418 34.1504 60.4563 34.1626 60.4683C34.1853 60.4923 34.2165 60.5064 34.2494 60.5075Z" fill="white"/>
<path opacity="0.3" d="M34.202 62.0776C34.2359 62.0776 34.2684 62.0644 34.2929 62.0408C34.3173 62.0172 34.3317 61.985 34.3331 61.9509L34.3579 61.1659C34.3581 61.1487 34.355 61.1318 34.3487 61.1159C34.3424 61.1 34.3331 61.0855 34.3213 61.0732C34.3094 61.061 34.2953 61.0512 34.2797 61.0444C34.2641 61.0377 34.2473 61.0341 34.2304 61.0338C34.2135 61.0336 34.1967 61.0367 34.181 61.0431C34.1653 61.0494 34.1511 61.0589 34.139 61.0708C34.127 61.0828 34.1175 61.097 34.1109 61.1127C34.1044 61.1284 34.1011 61.1453 34.1011 61.1623L34.0763 61.9473C34.0756 61.9645 34.0783 61.9816 34.0843 61.9977C34.0902 62.0138 34.0994 62.0285 34.1111 62.041C34.1228 62.0535 34.1369 62.0635 34.1525 62.0704C34.1681 62.0772 34.185 62.0809 34.202 62.0811V62.0776Z" fill="white"/>
<path opacity="0.3" d="M34.323 63.5031C34.3074 63.3812 34.2997 63.2584 34.2999 63.1356C34.2999 63.1034 34.2999 63.0695 34.2999 63.0374L34.3106 62.7377C34.3102 62.7037 34.2969 62.6712 34.2736 62.6466C34.2502 62.6221 34.2185 62.6075 34.1848 62.6057C34.1681 62.6054 34.1515 62.6085 34.1359 62.6148C34.1203 62.621 34.1061 62.6303 34.0941 62.642C34.0821 62.6538 34.0725 62.6678 34.0659 62.6833C34.0593 62.6988 34.0558 62.7155 34.0555 62.7323L34.0449 63.0339C34.0449 63.0731 34.0449 63.107 34.0449 63.1391C34.0468 63.271 34.0556 63.4026 34.0715 63.5334C34.0754 63.5653 34.0906 63.5946 34.1144 63.616C34.1382 63.6373 34.1689 63.6492 34.2008 63.6494H34.2167C34.2496 63.6433 34.2789 63.6247 34.2987 63.5975C34.3184 63.5703 34.3271 63.5366 34.323 63.5031Z" fill="white"/>
<path opacity="0.3" d="M34.3016 58.9339C34.3351 58.9339 34.3674 58.921 34.3918 58.8978C34.4162 58.8745 34.4308 58.8428 34.4326 58.809L34.4556 58.0222C34.4561 57.9879 34.4432 57.9549 34.4197 57.9302C34.3961 57.9055 34.3639 57.8911 34.3299 57.8901C34.3132 57.8899 34.2965 57.893 34.281 57.8992C34.2654 57.9055 34.2512 57.9147 34.2392 57.9265C34.2272 57.9383 34.2176 57.9523 34.211 57.9678C34.2044 57.9833 34.2009 58 34.2006 58.0168L34.1758 58.8019C34.1754 58.8189 34.1783 58.8358 34.1843 58.8517C34.1904 58.8676 34.1996 58.8821 34.2113 58.8944C34.223 58.9067 34.237 58.9165 34.2525 58.9233C34.268 58.9301 34.2847 58.9337 34.3016 58.9339Z" fill="white"/>
<path opacity="0.3" d="M34.4498 54.2183C34.4833 54.2188 34.5156 54.2059 34.5398 54.1826C34.564 54.1592 34.5781 54.1272 34.579 54.0934L34.6038 53.3066C34.6043 53.2723 34.5914 53.2393 34.5679 53.2146C34.5443 53.1899 34.5121 53.1755 34.4781 53.1746C34.4443 53.1745 34.4117 53.1877 34.3873 53.2113C34.3628 53.2349 34.3484 53.2671 34.3471 53.3012L34.3223 54.0863C34.3227 54.1205 34.3362 54.1533 34.3599 54.1779C34.3836 54.2025 34.4158 54.2169 34.4498 54.2183Z" fill="white"/>
<path opacity="0.3" d="M34.3505 57.3621C34.3672 57.3623 34.3839 57.3592 34.3994 57.353C34.415 57.3467 34.4292 57.3375 34.4412 57.3257C34.4532 57.3139 34.4628 57.2999 34.4694 57.2844C34.476 57.2689 34.4795 57.2523 34.4798 57.2354L34.5046 56.4486C34.505 56.4143 34.4921 56.3813 34.4686 56.3565C34.445 56.3318 34.4128 56.3175 34.3788 56.3165C34.3615 56.3165 34.3443 56.32 34.3283 56.3267C34.3122 56.3335 34.2977 56.3434 34.2855 56.3558C34.2733 56.3683 34.2637 56.383 34.2572 56.3993C34.2508 56.4155 34.2475 56.4329 34.2478 56.4503L34.2247 57.2372C34.2232 57.2719 34.2353 57.3059 34.2584 57.3317C34.284 57.3535 34.317 57.3644 34.3505 57.3621Z" fill="white"/>
<path opacity="0.3" d="M34.5009 52.6465C34.5177 52.6467 34.5343 52.6436 34.5498 52.6374C34.5654 52.6311 34.5796 52.6219 34.5916 52.6101C34.6036 52.5983 34.6132 52.5843 34.6198 52.5688C34.6264 52.5533 34.63 52.5367 34.6302 52.5198L34.655 51.7348C34.6555 51.7179 34.6526 51.7011 34.6466 51.6853C34.6407 51.6696 34.6317 51.6551 34.6202 51.6429C34.6086 51.6306 34.5948 51.6208 34.5796 51.6139C34.5643 51.607 34.5478 51.6032 34.531 51.6027C34.5143 51.6025 34.4977 51.6056 34.4821 51.6118C34.4665 51.6181 34.4523 51.6273 34.4403 51.6391C34.4283 51.6509 34.4187 51.6649 34.4121 51.6804C34.4055 51.6959 34.402 51.7125 34.4017 51.7294L34.377 52.5162C34.3769 52.5499 34.3898 52.5822 34.4129 52.6065C34.436 52.6308 34.4676 52.6451 34.5009 52.6465Z" fill="white"/>
<path opacity="0.3" d="M34.4009 55.7919C34.4349 55.7919 34.4675 55.7785 34.4917 55.7544C34.5159 55.7304 34.5298 55.6977 34.5302 55.6635L34.555 54.8767C34.5555 54.8424 34.5426 54.8094 34.519 54.7846C34.4955 54.7599 34.4633 54.7456 34.4293 54.7446C34.3956 54.745 34.3632 54.7583 34.3389 54.7819C34.3146 54.8054 34.3 54.8374 34.2982 54.8713L34.2734 55.6581C34.2733 55.6924 34.286 55.7255 34.3089 55.7509C34.333 55.7762 34.3661 55.791 34.4009 55.7919Z" fill="white"/>
<path opacity="0.3" d="M35.0049 35.3525C35.2105 35.4346 35.4242 35.4944 35.6424 35.5309L35.7823 35.5559H35.8053C35.8355 35.5553 35.8645 35.5444 35.8877 35.5249C35.9109 35.5055 35.9268 35.4786 35.9328 35.4489C35.9337 35.4406 35.9337 35.4322 35.9328 35.4239C35.9333 35.3932 35.9228 35.3634 35.9033 35.3399C35.8838 35.3163 35.8566 35.3005 35.8266 35.2954L35.6884 35.2704C35.4868 35.232 35.2897 35.1722 35.1005 35.092C35.0843 35.0847 35.0667 35.0808 35.0489 35.0804C35.0311 35.0801 35.0135 35.0833 34.997 35.0899C34.9804 35.0966 34.9654 35.1065 34.9528 35.1192C34.9401 35.1318 34.9302 35.1468 34.9234 35.1634C34.9142 35.1809 34.9091 35.2003 34.9083 35.22C34.9075 35.2398 34.9112 35.2595 34.919 35.2777C34.9269 35.2958 34.9386 35.312 34.9535 35.3249C34.9683 35.3379 34.9859 35.3473 35.0049 35.3525Z" fill="white"/>
<path opacity="0.3" d="M61.9376 60.5753C61.9205 60.5733 61.9033 60.5748 61.8869 60.5797C61.8704 60.5846 61.8551 60.5928 61.8419 60.6038C61.8287 60.6148 61.8178 60.6284 61.8099 60.6437C61.802 60.6591 61.7972 60.6758 61.7959 60.6931L61.7233 61.4745C61.7224 61.4798 61.7224 61.4853 61.7233 61.4906C61.7232 61.5232 61.7354 61.5546 61.7575 61.5784C61.7795 61.6023 61.8097 61.6168 61.842 61.619H61.8526C61.8853 61.6192 61.9169 61.607 61.9411 61.5849C61.9654 61.5628 61.9805 61.5323 61.9836 61.4995L62.0562 60.718C62.0592 60.6835 62.0491 60.649 62.0279 60.6217C62.0167 60.6083 62.0029 60.5973 61.9874 60.5893C61.9719 60.5814 61.9549 60.5766 61.9376 60.5753Z" fill="white"/>
<path opacity="0.3" d="M61.789 62.1418C61.7719 62.1396 61.7545 62.1409 61.738 62.1457C61.7214 62.1505 61.7061 62.1587 61.6928 62.1697C61.6795 62.1807 61.6686 62.1944 61.6608 62.2099C61.653 62.2253 61.6484 62.2422 61.6473 62.2596L61.5729 63.041C61.572 63.0457 61.572 63.0506 61.5729 63.0553C61.5732 63.0878 61.5856 63.1189 61.6075 63.1427C61.6295 63.1664 61.6595 63.1811 61.6916 63.1838H61.6969C61.7293 63.1835 61.7604 63.1711 61.7843 63.149C61.8082 63.1269 61.8231 63.0967 61.8262 63.0642L61.9005 62.2827C61.9027 62.248 61.8919 62.2137 61.8704 62.1864C61.85 62.1615 61.8208 62.1455 61.789 62.1418Z" fill="white"/>
<path opacity="0.3" d="M62.3801 55.8776C62.3459 55.8746 62.3119 55.8852 62.2854 55.9073C62.2589 55.9293 62.242 55.9609 62.2384 55.9953L62.1641 56.7786V56.7928C62.1643 56.8252 62.1763 56.8564 62.1979 56.8804C62.2194 56.9044 62.249 56.9196 62.2809 56.9231H62.2951C62.3273 56.9228 62.3583 56.9103 62.3818 56.8882C62.4054 56.8661 62.42 56.8359 62.4226 56.8036L62.497 56.0203C62.5 55.9858 62.4894 55.9516 62.4675 55.9249C62.4457 55.8982 62.4143 55.8812 62.3801 55.8776Z" fill="white"/>
<path opacity="0.3" d="M62.2299 57.4441C62.1957 57.4411 62.1617 57.4518 62.1352 57.4738C62.1087 57.4958 62.0918 57.5274 62.0882 57.5618L62.0156 58.3451V58.3594C62.0155 58.3917 62.0275 58.4228 62.0491 58.4466C62.0708 58.4704 62.1006 58.4851 62.1325 58.4878H62.1449C62.1773 58.4875 62.2085 58.4752 62.2323 58.4531C62.2562 58.431 62.2711 58.4008 62.2742 58.3683L62.3486 57.5868C62.3515 57.5521 62.3407 57.5175 62.3185 57.4908C62.2962 57.4641 62.2644 57.4473 62.2299 57.4441Z" fill="white"/>
<path opacity="0.3" d="M62.0834 59.0106C62.0664 59.0086 62.0491 59.0101 62.0327 59.015C62.0163 59.0199 62.001 59.0281 61.9878 59.0391C61.9745 59.0501 61.9636 59.0637 61.9557 59.079C61.9478 59.0944 61.9431 59.1111 61.9418 59.1284L61.8692 59.9098V59.9241C61.8686 59.9565 61.8804 59.9879 61.9022 60.0118C61.9239 60.0357 61.9539 60.0503 61.986 60.0526H61.9984C62.0306 60.0523 62.0615 60.0402 62.0853 60.0185C62.1091 59.9968 62.1242 59.967 62.1277 59.9348L62.2021 59.1533C62.2047 59.118 62.1939 59.0829 62.172 59.0552C62.161 59.0421 62.1475 59.0314 62.1322 59.0238C62.117 59.0161 62.1004 59.0116 62.0834 59.0106Z" fill="white"/>
<path opacity="0.3" d="M61.6418 63.7065C61.6248 63.7048 61.6077 63.7065 61.5913 63.7115C61.575 63.7165 61.5598 63.7247 61.5466 63.7357C61.5335 63.7466 61.5226 63.7601 61.5146 63.7753C61.5066 63.7905 61.5017 63.8072 61.5002 63.8243L61.4258 64.6075V64.62C61.426 64.6524 61.4381 64.6835 61.4596 64.7076C61.4812 64.7316 61.5107 64.7468 61.5427 64.7503H61.5568C61.5888 64.75 61.6195 64.7378 61.643 64.716C61.6666 64.6943 61.6813 64.6645 61.6843 64.6325L61.7587 63.8493C61.762 63.8147 61.7519 63.7801 61.7304 63.7529C61.7081 63.7263 61.6763 63.7096 61.6418 63.7065Z" fill="white"/>
<path opacity="0.3" d="M60.409 39.7684L59.6404 39.6292C59.6065 39.6239 59.5718 39.6318 59.5435 39.6513C59.5152 39.6709 59.4954 39.7007 59.4881 39.7345C59.4853 39.7515 59.4858 39.769 59.4898 39.7859C59.4937 39.8027 59.501 39.8186 59.5111 39.8326C59.531 39.8605 59.5608 39.8797 59.5943 39.8861L60.3629 40.0271H60.3859C60.4163 40.0271 60.4457 40.0164 60.469 39.9969C60.4923 39.9773 60.508 39.9501 60.5135 39.92C60.5143 39.9123 60.5143 39.9045 60.5135 39.8968C60.5136 39.8665 60.5032 39.8371 60.4842 39.8136C60.4651 39.7902 60.4385 39.7742 60.409 39.7684Z" fill="white"/>
<path opacity="0.3" d="M61.343 66.8377C61.326 66.836 61.3089 66.8377 61.2925 66.8427C61.2762 66.8477 61.261 66.8559 61.2478 66.8668C61.2346 66.8778 61.2237 66.8912 61.2158 66.9064C61.2078 66.9217 61.2029 66.9383 61.2013 66.9555L61.127 67.7387V67.7512C61.1272 67.7836 61.1392 67.8147 61.1608 67.8387C61.1823 67.8627 61.2119 67.8779 61.2438 67.8814H61.258C61.2904 67.8811 61.3216 67.8688 61.3454 67.8467C61.3693 67.8246 61.3842 67.7944 61.3873 67.7619L61.4599 66.9786C61.4628 66.9444 61.4522 66.9103 61.4303 66.8839C61.4084 66.8575 61.377 66.8409 61.343 66.8377Z" fill="white"/>
<path opacity="0.3" d="M61.4922 65.2712C61.458 65.2696 61.4244 65.281 61.3982 65.3031C61.3719 65.3253 61.3549 65.3565 61.3505 65.3907L61.2779 66.1722C61.2772 66.1763 61.2772 66.1806 61.2779 66.1847C61.2778 66.2175 61.2899 66.2491 61.3119 66.2732C61.3339 66.2974 61.3641 66.3123 61.3965 66.3149H61.4089C61.4415 66.3151 61.4728 66.3028 61.4968 66.2807C61.5208 66.2585 61.5355 66.2281 61.5382 66.1954L61.6108 65.4122C61.6133 65.3953 61.612 65.378 61.6071 65.3617C61.6022 65.3453 61.5938 65.3303 61.5825 65.3176C61.5715 65.3039 61.5578 65.2927 61.5423 65.2847C61.5267 65.2767 61.5096 65.2721 61.4922 65.2712Z" fill="white"/>
<path opacity="0.3" d="M61.2074 68.4042C61.1745 68.3955 61.1395 68.4001 61.11 68.4171C61.0805 68.4342 61.0589 68.4622 61.0498 68.4952C60.9798 68.7271 60.8588 68.9399 60.6956 69.1179C60.6731 69.1421 60.6604 69.174 60.6602 69.2071C60.6602 69.2254 60.6641 69.2435 60.6718 69.2602C60.6794 69.2768 60.6906 69.2916 60.7044 69.3035C60.7282 69.3252 60.7591 69.3373 60.7912 69.3374C60.8096 69.3371 60.8278 69.3331 60.8446 69.3254C60.8613 69.3177 60.8763 69.3066 60.8886 69.2928C61.0794 69.085 61.2205 68.836 61.3012 68.5648C61.3058 68.5482 61.3071 68.5308 61.305 68.5136C61.3029 68.4964 61.2974 68.4799 61.2888 68.4649C61.2802 68.4497 61.2685 68.4364 61.2544 68.4259C61.2404 68.4155 61.2244 68.4081 61.2074 68.4042Z" fill="white"/>
<path opacity="0.3" d="M63.1147 48.0505C63.0977 48.0487 63.0805 48.0504 63.0642 48.0554C63.0478 48.0604 63.0326 48.0686 63.0195 48.0796C63.0063 48.0905 62.9954 48.104 62.9874 48.1192C62.9795 48.1344 62.9746 48.1511 62.973 48.1682L62.9004 48.9515V48.9568C62.9002 48.9893 62.9121 49.0207 62.9338 49.0448C62.9554 49.0689 62.9852 49.084 63.0173 49.0871H63.0297C63.0619 49.0872 63.093 49.0752 63.117 49.0534C63.1409 49.0317 63.1559 49.0017 63.1589 48.9693L63.2333 48.1861C63.2363 48.1513 63.2255 48.1168 63.2032 48.09C63.181 48.0633 63.1492 48.0465 63.1147 48.0433V48.0505Z" fill="white"/>
<path opacity="0.3" d="M63.4141 44.9192C63.3799 44.9162 63.3459 44.9269 63.3194 44.9489C63.2929 44.9709 63.2761 45.0025 63.2725 45.037L63.1999 45.8184C63.199 45.8237 63.199 45.8292 63.1999 45.8345C63.1998 45.8669 63.2121 45.8981 63.2341 45.9216C63.2562 45.9452 63.2864 45.9593 63.3185 45.9612H63.3309C63.3634 45.9613 63.3948 45.949 63.4188 45.9269C63.4427 45.9047 63.4575 45.8743 63.4602 45.8416L63.5328 45.0601C63.5347 45.0429 63.5332 45.0255 63.5282 45.0089C63.5232 44.9924 63.5149 44.977 63.5038 44.9638C63.4926 44.9506 63.479 44.9398 63.4635 44.9321C63.4481 44.9245 63.4313 44.9201 63.4141 44.9192Z" fill="white"/>
<path opacity="0.3" d="M63.2668 46.4858C63.2498 46.4838 63.2325 46.4853 63.2161 46.4902C63.1997 46.4951 63.1844 46.5033 63.1711 46.5143C63.1579 46.5253 63.147 46.5389 63.1391 46.5542C63.1312 46.5695 63.1265 46.5863 63.1252 46.6035L63.0508 47.385V47.3993C63.0507 47.4315 63.0626 47.4627 63.0843 47.4865C63.106 47.5103 63.1357 47.525 63.1677 47.5277H63.1818C63.214 47.5274 63.245 47.5149 63.2686 47.4928C63.2921 47.4707 63.3067 47.4405 63.3093 47.4082L63.3837 46.6267C63.3854 46.6097 63.3837 46.5925 63.3787 46.5761C63.3738 46.5598 63.3656 46.5446 63.3547 46.5315C63.3438 46.5183 63.3304 46.5075 63.3153 46.4997C63.3003 46.4918 63.2838 46.4871 63.2668 46.4858Z" fill="white"/>
<path opacity="0.3" d="M63.5781 43.3545C63.5439 43.3534 63.5105 43.3652 63.4846 43.3877C63.4587 43.4102 63.4421 43.4416 63.4382 43.4758C63.4275 43.6097 63.4098 43.7452 63.3868 43.8755L63.3461 44.2537C63.3436 44.2882 63.3537 44.3225 63.3744 44.3501C63.397 44.3763 63.4287 44.3928 63.4629 44.3965H63.4824C63.4918 44.3983 63.5014 44.3983 63.5108 44.3965C63.5352 44.3883 63.5567 44.3731 63.5727 44.3529C63.5888 44.3326 63.5986 44.3081 63.6011 44.2823L63.6312 43.97V43.9254C63.656 43.7845 63.6755 43.6418 63.6879 43.5008C63.6915 43.4669 63.6822 43.4329 63.6618 43.4057C63.6413 43.3785 63.6114 43.3602 63.5781 43.3545Z" fill="white"/>
<path opacity="0.3" d="M46.6016 68.4043L45.8401 68.2258C45.8066 68.2188 45.7716 68.2251 45.7426 68.2434C45.7136 68.2616 45.6926 68.2905 45.6842 68.324C45.6834 68.3341 45.6834 68.3442 45.6842 68.3543C45.6844 68.3841 45.6947 68.4129 45.7134 68.4359C45.7321 68.459 45.758 68.4749 45.7869 68.481L46.5484 68.6594H46.5768C46.6087 68.6589 46.6394 68.6467 46.6631 68.6251C46.6867 68.6034 46.7017 68.5738 46.7052 68.5418C46.7087 68.5098 46.7004 68.4776 46.682 68.4513C46.6635 68.4249 46.6362 68.4063 46.6051 68.3989L46.6016 68.4043Z" fill="white"/>
<path opacity="0.3" d="M62.5286 54.3093C62.5116 54.3076 62.4944 54.3093 62.4781 54.3143C62.4617 54.3193 62.4465 54.3275 62.4334 54.3384C62.4202 54.3494 62.4093 54.3629 62.4013 54.3781C62.3933 54.3933 62.3884 54.4099 62.3869 54.4271L62.3125 55.2103C62.3125 55.2103 62.3125 55.2103 62.3125 55.2228C62.3132 55.2553 62.3256 55.2865 62.3474 55.3105C62.3693 55.3344 62.399 55.3496 62.4312 55.353H62.4435C62.4761 55.3532 62.5074 55.3409 62.5314 55.3188C62.5554 55.2966 62.5702 55.2662 62.5728 55.2335L62.6472 54.4503C62.649 54.433 62.6473 54.4155 62.6421 54.3989C62.6369 54.3824 62.6284 54.367 62.6171 54.3539C62.606 54.3409 62.5925 54.3303 62.5773 54.3226C62.5621 54.3149 62.5455 54.3104 62.5286 54.3093Z" fill="white"/>
<path opacity="0.3" d="M62.675 52.7463C62.6408 52.7434 62.6068 52.754 62.5803 52.776C62.5538 52.7981 62.5369 52.8297 62.5334 52.8641L62.459 53.6473V53.6616C62.4593 53.6941 62.4717 53.7252 62.4936 53.749C62.5156 53.7728 62.5455 53.7874 62.5776 53.7901H62.583C62.6154 53.7895 62.6466 53.777 62.6707 53.755C62.6948 53.7331 62.7102 53.703 62.714 53.6705L62.7866 52.8873C62.7892 52.8539 62.7791 52.8208 62.7584 52.7947C62.7377 52.7685 62.7079 52.7512 62.675 52.7463Z" fill="white"/>
<path opacity="0.3" d="M62.8235 51.1816C62.8065 51.1799 62.7893 51.1816 62.773 51.1866C62.7566 51.1916 62.7414 51.1998 62.7283 51.2108C62.7151 51.2217 62.7042 51.2352 62.6962 51.2504C62.6883 51.2656 62.6834 51.2823 62.6818 51.2994L62.6074 52.0826V52.0951C62.6073 52.1276 62.6192 52.159 62.6408 52.1831C62.6624 52.2072 62.6922 52.2223 62.7243 52.2254H62.7367C62.7688 52.2251 62.7998 52.213 62.8236 52.1913C62.8474 52.1696 62.8625 52.1398 62.866 52.1076L62.9404 51.3244C62.9433 51.2899 62.9328 51.2556 62.9109 51.2289C62.889 51.2022 62.8576 51.1852 62.8235 51.1816Z" fill="white"/>
<path opacity="0.3" d="M62.9708 49.6152C62.9363 49.6122 62.902 49.6231 62.8755 49.6455C62.8489 49.6679 62.8323 49.7 62.8291 49.7347L62.7565 50.5162C62.7556 50.5209 62.7556 50.5257 62.7565 50.5304C62.7568 50.5629 62.7692 50.5941 62.7911 50.6178C62.8131 50.6416 62.843 50.6562 62.8752 50.6589H62.8858C62.9183 50.6583 62.9494 50.6458 62.9735 50.6238C62.9976 50.6019 63.013 50.5719 63.0168 50.5394L63.0912 49.7561C63.0932 49.7215 63.0817 49.6874 63.0593 49.6611C63.0368 49.6348 63.0051 49.6183 62.9708 49.6152Z" fill="white"/>
<path opacity="0.3" d="M51.1902 38.0966L50.4216 37.9556C50.3875 37.9503 50.3526 37.9585 50.3242 37.9784C50.2959 37.9984 50.2762 38.0285 50.2693 38.0627C50.2665 38.0797 50.2671 38.0972 50.271 38.1141C50.275 38.1309 50.2822 38.1468 50.2924 38.1608C50.3123 38.1887 50.3421 38.2079 50.3756 38.2143L51.1442 38.3535H51.1654C51.1959 38.3533 51.2254 38.3425 51.2489 38.323C51.2724 38.3035 51.2886 38.2765 51.2947 38.2464C51.2955 38.2387 51.2955 38.2309 51.2947 38.2232C51.2948 38.1931 51.2844 38.164 51.2653 38.1408C51.2462 38.1176 51.2196 38.102 51.1902 38.0966Z" fill="white"/>
<path opacity="0.3" d="M51.1719 69.4301L50.4104 69.2517C50.3766 69.2447 50.3415 69.2512 50.3124 69.2699C50.2833 69.2885 50.2626 69.3178 50.2546 69.3516C50.2537 69.3611 50.2537 69.3706 50.2546 69.3801C50.255 69.4098 50.2655 69.4385 50.2841 69.4614C50.3027 69.4844 50.3285 69.5004 50.3573 69.5068L51.1188 69.6852H51.1471C51.1767 69.6845 51.2052 69.674 51.2283 69.6553C51.2513 69.6366 51.2676 69.6107 51.2746 69.5818C51.2804 69.548 51.2729 69.5133 51.2537 69.485C51.2345 69.4567 51.2052 69.437 51.1719 69.4301Z" fill="white"/>
<path opacity="0.3" d="M52.6941 69.7745L51.9326 69.5961C51.8992 69.5886 51.8643 69.5947 51.8355 69.6131C51.8066 69.6315 51.7861 69.6606 51.7785 69.6942C51.777 69.7042 51.777 69.7145 51.7785 69.7245C51.779 69.7542 51.7894 69.7828 51.8081 69.8058C51.8267 69.8288 51.8525 69.8448 51.8812 69.8512L52.6427 70.0296H52.6711C52.7006 70.0296 52.7292 70.0196 52.7524 70.0011C52.7755 69.9826 52.7918 69.9569 52.7986 69.9279C52.8039 69.8937 52.796 69.8588 52.7766 69.8303C52.7571 69.8018 52.7276 69.7818 52.6941 69.7745Z" fill="white"/>
<path opacity="0.3" d="M49.6553 37.8164L48.8885 37.6773C48.8545 37.6715 48.8196 37.6792 48.7912 37.6989C48.7628 37.7185 48.7431 37.7485 48.7362 37.7825C48.7305 37.8168 48.7382 37.8519 48.7574 37.8807C48.767 37.8948 48.7793 37.9068 48.7936 37.916C48.8079 37.9252 48.8239 37.9314 48.8407 37.9342L49.6093 38.0752H49.6341C49.6646 38.0748 49.694 38.0637 49.7173 38.0439C49.7405 38.024 49.7562 37.9966 49.7616 37.9663V37.9431C49.7612 37.9129 49.7504 37.8837 49.731 37.8605C49.7116 37.8374 49.6849 37.8218 49.6553 37.8164Z" fill="white"/>
<path opacity="0.3" d="M48.125 68.7432L47.3635 68.5648C47.33 68.5573 47.2948 68.5634 47.2657 68.5817C47.2365 68.6001 47.2157 68.6292 47.2077 68.6629C47.2068 68.673 47.2068 68.6831 47.2077 68.6932C47.2074 68.7228 47.2174 68.7516 47.2357 68.7747C47.2541 68.7978 47.2799 68.8138 47.3086 68.8199L48.0701 68.9983H48.0984C48.1281 68.9979 48.1568 68.9875 48.1799 68.9687C48.203 68.95 48.2192 68.924 48.2259 68.8948C48.2293 68.8782 48.2293 68.8611 48.2261 68.8444C48.2228 68.8278 48.2163 68.8119 48.2069 68.7978C48.1975 68.7837 48.1854 68.7716 48.1714 68.7622C48.1573 68.7529 48.1416 68.7464 48.125 68.7432Z" fill="white"/>
<path opacity="0.3" d="M47.3039 37.6577L48.0725 37.7968H48.0937C48.1244 37.7965 48.1541 37.7855 48.1777 37.7657C48.2013 37.7459 48.2173 37.7184 48.223 37.688C48.2239 37.6803 48.2239 37.6725 48.223 37.6648C48.2234 37.6341 48.213 37.6043 48.1935 37.5808C48.174 37.5572 48.1468 37.5414 48.1168 37.5363L47.3482 37.3972C47.3144 37.3914 47.2797 37.3992 47.2516 37.4189C47.2235 37.4386 47.2041 37.4685 47.1976 37.5024C47.1944 37.5194 47.1945 37.5368 47.1982 37.5537C47.2019 37.5706 47.2089 37.5865 47.2189 37.6006C47.2387 37.6301 47.2692 37.6506 47.3039 37.6577Z" fill="white"/>
<path opacity="0.3" d="M52.7256 38.3731L51.9588 38.2357C51.9419 38.2324 51.9246 38.2325 51.9077 38.236C51.8909 38.2395 51.8749 38.2463 51.8607 38.2561C51.8465 38.2659 51.8344 38.2785 51.8251 38.2931C51.8158 38.3076 51.8095 38.3239 51.8065 38.341C51.8008 38.375 51.8086 38.4099 51.8281 38.4383C51.8476 38.4666 51.8774 38.4861 51.911 38.4926L52.6796 38.6318H52.7044C52.7348 38.6311 52.764 38.6199 52.7872 38.6001C52.8105 38.5803 52.8262 38.5531 52.8319 38.523V38.4998C52.8312 38.4696 52.8203 38.4406 52.801 38.4175C52.7816 38.3945 52.755 38.3788 52.7256 38.3731Z" fill="white"/>
<path opacity="0.3" d="M49.6563 69.0876L48.8948 68.9092C48.861 68.9022 48.8259 68.9087 48.7968 68.9273C48.7677 68.946 48.747 68.9753 48.7389 69.0091C48.7381 69.0186 48.7381 69.0281 48.7389 69.0376C48.7387 69.0672 48.7486 69.096 48.767 69.1191C48.7854 69.1422 48.8111 69.1581 48.8399 69.1643L49.6014 69.3427H49.6297C49.6612 69.3423 49.6915 69.3303 49.7149 69.309C49.7382 69.2876 49.753 69.2584 49.7565 69.2269C49.76 69.1953 49.7519 69.1635 49.7338 69.1376C49.7156 69.1116 49.6887 69.0932 49.658 69.0858L49.6563 69.0876Z" fill="white"/>
<path opacity="0.3" d="M54.2591 38.6533L53.4905 38.5141C53.4738 38.511 53.4566 38.5113 53.44 38.5149C53.4233 38.5185 53.4075 38.5254 53.3936 38.5352C53.3796 38.545 53.3676 38.5575 53.3584 38.5719C53.3493 38.5863 53.343 38.6025 53.34 38.6194C53.3369 38.6362 53.3372 38.6535 53.3408 38.6703C53.3444 38.6871 53.3513 38.703 53.361 38.7171C53.3707 38.7312 53.3831 38.7432 53.3974 38.7524C53.4117 38.7617 53.4277 38.768 53.4445 38.771L54.2131 38.912H54.2343C54.265 38.9125 54.2948 38.902 54.3185 38.8824C54.3421 38.8627 54.3581 38.8353 54.3636 38.8049C54.3645 38.7972 54.3645 38.7894 54.3636 38.7817C54.3641 38.7513 54.3539 38.7217 54.3347 38.6982C54.3156 38.6747 54.2888 38.6587 54.2591 38.6533Z" fill="white"/>
<path opacity="0.3" d="M54.2194 70.1206L53.4561 69.9422C53.4228 69.9347 53.3879 69.9409 53.359 69.9592C53.3302 69.9776 53.3097 70.0068 53.3021 70.0403C53.3004 70.0504 53.3004 70.0606 53.3021 70.0707C53.3018 70.1003 53.3118 70.129 53.3301 70.1521C53.3485 70.1752 53.3743 70.1912 53.403 70.1973L54.1645 70.3757H54.1928C54.2223 70.3754 54.2508 70.3653 54.2739 70.3468C54.2969 70.3284 54.3133 70.3028 54.3204 70.274C54.3271 70.2402 54.3203 70.2051 54.3014 70.1763C54.2825 70.1475 54.253 70.1275 54.2194 70.1206Z" fill="white"/>
<path opacity="0.3" d="M57.336 39.2099L56.5674 39.0707C56.535 39.0681 56.5027 39.0777 56.4769 39.0977C56.4511 39.1178 56.4336 39.1467 56.4278 39.179C56.4221 39.2113 56.4285 39.2446 56.4458 39.2724C56.4631 39.3003 56.49 39.3206 56.5214 39.3294L57.29 39.4686H57.313C57.3435 39.4683 57.3729 39.4572 57.3962 39.4373C57.4195 39.4175 57.4351 39.39 57.4405 39.3598C57.4414 39.3527 57.4414 39.3455 57.4405 39.3384C57.4406 39.3081 57.4303 39.2786 57.4112 39.2552C57.3921 39.2317 57.3655 39.2157 57.336 39.2099Z" fill="white"/>
<path opacity="0.3" d="M57.2494 70.5702C56.9964 70.5955 56.7418 70.6014 56.4879 70.5881C56.4535 70.5866 56.4198 70.5989 56.3943 70.6223C56.3687 70.6457 56.3534 70.6782 56.3516 70.713C56.3515 70.7463 56.3642 70.7784 56.3869 70.8026C56.4096 70.8268 56.4407 70.8414 56.4738 70.8432C56.5552 70.8432 56.642 70.8432 56.7341 70.8432C56.9112 70.8432 57.0883 70.8432 57.2654 70.8182C57.2825 70.8169 57.2991 70.8121 57.3143 70.8041C57.3295 70.7961 57.343 70.7852 57.3539 70.7718C57.3652 70.7587 57.3736 70.7434 57.3784 70.7268C57.3833 70.7101 57.3846 70.6926 57.3822 70.6755C57.3767 70.6446 57.3601 70.6169 57.3356 70.5975C57.3112 70.5781 57.2805 70.5684 57.2494 70.5702Z" fill="white"/>
<path opacity="0.3" d="M58.8644 39.49L58.0976 39.3508C58.0638 39.3445 58.0289 39.3519 58.0004 39.3712C57.9719 39.3906 57.9521 39.4204 57.9453 39.4543C57.9394 39.4886 57.9471 39.5238 57.9665 39.5525C57.9758 39.5671 57.9879 39.5795 58.0023 39.5891C58.0166 39.5986 58.0328 39.605 58.0498 39.6078L58.8183 39.7469H58.8431C58.8734 39.7467 58.9026 39.7358 58.9258 39.7163C58.9491 39.6968 58.9649 39.6698 58.9706 39.6399V39.6167C58.9706 39.5863 58.96 39.5569 58.9405 39.5338C58.9211 39.5106 58.8941 39.4951 58.8644 39.49Z" fill="white"/>
<path opacity="0.3" d="M58.7471 70.2598C58.5041 70.3389 58.257 70.4044 58.0068 70.456C57.9774 70.4621 57.951 70.4782 57.932 70.5016C57.913 70.525 57.9025 70.5542 57.9023 70.5845C57.9023 70.5845 57.9023 70.6041 57.9023 70.6112C57.9087 70.6407 57.9248 70.6671 57.9479 70.6862C57.9711 70.7053 57.9999 70.716 58.0298 70.7165C58.0386 70.7184 58.0477 70.7184 58.0564 70.7165C58.3161 70.6628 58.5726 70.5949 58.825 70.5131C58.8543 70.4998 58.8778 70.476 58.8908 70.4464C58.9039 70.4167 58.9057 70.3833 58.8958 70.3524C58.886 70.3215 58.8652 70.2954 58.8374 70.2789C58.8097 70.2625 58.7769 70.2569 58.7453 70.2633L58.7471 70.2598Z" fill="white"/>
<path opacity="0.3" d="M60.1233 69.6067C59.9112 69.7477 59.6893 69.8729 59.4592 69.9814C59.4366 69.9914 59.4174 70.0079 59.4041 70.0289C59.3909 70.0498 59.3842 70.0743 59.3848 70.0992C59.3846 70.1182 59.3882 70.137 59.3954 70.1545C59.4062 70.177 59.423 70.196 59.444 70.2093C59.465 70.2225 59.4893 70.2295 59.5141 70.2294C59.5329 70.2295 59.5516 70.2259 59.569 70.2187C59.8114 70.1058 60.0447 69.974 60.2667 69.8244C60.2945 69.8052 60.3139 69.7759 60.3208 69.7427C60.3277 69.7095 60.3217 69.6749 60.3039 69.646C60.2845 69.6175 60.2549 69.5975 60.2213 69.5902C60.1878 69.5829 60.1527 69.5888 60.1233 69.6067Z" fill="white"/>
<path opacity="0.3" d="M55.799 38.9316L55.0322 38.7924C55.0154 38.7891 54.9981 38.7892 54.9814 38.7927C54.9647 38.7962 54.9488 38.8031 54.9348 38.8129C54.9207 38.8227 54.9088 38.8353 54.8996 38.8499C54.8905 38.8644 54.8844 38.8807 54.8816 38.8977C54.8781 38.9145 54.878 38.9319 54.8813 38.9488C54.8847 38.9656 54.8914 38.9816 54.9011 38.9958C54.9104 39.0102 54.9226 39.0225 54.9369 39.0317C54.9513 39.0409 54.9675 39.0469 54.9843 39.0493L55.7529 39.1885H55.7777C55.8079 39.1879 55.8369 39.177 55.8601 39.1575C55.8833 39.138 55.8992 39.1112 55.9052 39.0814V39.0565C55.9048 39.0264 55.894 38.9975 55.8745 38.9746C55.8551 38.9518 55.8284 38.9366 55.799 38.9316Z" fill="white"/>
<path opacity="0.3" d="M55.7403 70.465L54.9788 70.2865C54.945 70.2796 54.9099 70.2861 54.8808 70.3047C54.8517 70.3234 54.831 70.3527 54.8229 70.3865C54.822 70.3959 54.822 70.4055 54.8229 70.415C54.8229 70.4447 54.8329 70.4736 54.8512 70.4969C54.8695 70.5202 54.8951 70.5366 54.9239 70.5435L55.6854 70.7219H55.7155C55.7448 70.7221 55.7734 70.7121 55.7963 70.6936C55.8192 70.6751 55.8351 70.6491 55.8412 70.6202C55.8448 70.6033 55.8451 70.5859 55.8419 70.5689C55.8388 70.5519 55.8324 70.5357 55.823 70.5213C55.8136 70.5068 55.8014 70.4944 55.7872 70.4848C55.773 70.4751 55.7571 70.4684 55.7403 70.465Z" fill="white"/>
</g>
<path opacity="0.3" d="M64.155 44.0147V44.0361L61.8369 68.5488C61.4313 70.6898 57.7514 71.6389 55.9663 71.3213L36.5304 66.9269C35.6552 66.7287 34.8759 66.2295 34.3265 65.5151C33.7771 64.8007 33.4919 63.9158 33.5199 63.0125L34.4337 34.0215C34.7913 34.4091 35.2632 34.6705 35.7796 34.7673L61.6509 39.4615C63.4236 39.7826 64.5464 41.8201 64.155 44.0147ZM61.7448 38.9458L35.8734 34.2517C35.0659 34.1054 34.4567 33.4435 34.23 32.5871L33.9626 32.5157L33.0081 62.9964C32.9757 64.0215 33.2991 65.0258 33.9226 65.8364C34.5462 66.647 35.4309 67.2131 36.4242 67.4372L55.8707 71.8352C57.9285 72.2081 61.9166 71.1001 62.3593 68.6237L64.6739 44.1092C65.1095 41.631 63.8008 39.3223 61.7448 38.9458Z" fill="white"/>
<path d="M39.5718 31.9983H63.38C63.5524 31.9983 63.7177 32.0673 63.8396 32.1901C63.9615 32.3129 64.03 32.4794 64.03 32.6531V34.1625H38.9219V32.6531C38.9219 32.4794 38.9903 32.3129 39.1122 32.1901C39.2341 32.0673 39.3994 31.9983 39.5718 31.9983Z" fill="#5C337C"/>
</g>
<defs>
<linearGradient id="paint0_linear_1819_5022" x1="89.5058" y1="179.775" x2="-36.8088" y2="177.255" gradientUnits="userSpaceOnUse">
<stop offset="0.0630638" stop-color="#1D212A"/>
<stop offset="1" stop-color="#4B041E"/>
</linearGradient>
<linearGradient id="paint1_linear_1819_5022" x1="107" y1="106.5" x2="-8" y2="-8.1635e-07" gradientUnits="userSpaceOnUse">
<stop stop-color="#C23165"/>
<stop offset="1" stop-color="#C23165" stop-opacity="0"/>
</linearGradient>
<linearGradient id="paint2_linear_1819_5022" x1="168" y1="124" x2="62.293" y2="165.549" gradientUnits="userSpaceOnUse">
<stop offset="0.0630638" stop-color="#1D212A"/>
<stop offset="1" stop-color="#4B041E"/>
</linearGradient>
<linearGradient id="paint3_linear_1819_5022" x1="51" y1="13" x2="51" y2="89" gradientUnits="userSpaceOnUse">
<stop stop-color="#C23165"/>
<stop offset="1" stop-color="#C23165" stop-opacity="0"/>
</linearGradient>
<clipPath id="clip0_1819_5022">
<rect width="35.514" height="41.9065" fill="white" transform="translate(33 30)"/>
</clipPath>
</defs>
</svg>
