<svg width="102" height="10" viewBox="0 0 102 10" fill="none" xmlns="http://www.w3.org/2000/svg">
<path d="M1.80637 0.317383C1.98286 0.317383 2.02841 0.362884 2.07964 0.431137L4.37398 3.49113H4.45368L6.66832 0.4482C6.73094 0.368572 6.82772 0.32307 6.95297 0.32307H8.3421C8.48443 0.32307 8.53567 0.4482 8.46735 0.527828L5.35889 4.42961L8.82032 8.77503C8.90003 8.88879 8.85448 8.99685 8.70646 8.99685H7.30595C7.1807 8.99685 7.06684 8.95135 6.98713 8.8376L4.40245 5.36808H4.32274L1.85761 8.82622C1.76083 8.93998 1.65266 9.00254 1.52172 9.00254H0.13259C0.0187268 9.00254 -0.0438989 8.90585 0.0358051 8.79778L3.446 4.46374L0.371701 0.561954C0.309076 0.4482 0.337542 0.32307 0.485564 0.32307H1.80637V0.317383Z" fill="#14161A"/>
<path d="M15.5495 0.317383C17.4453 0.317383 18.8174 1.68812 18.8174 3.42288C18.8174 5.20883 17.4453 6.54544 15.5495 6.54544H12.794V8.77503C12.794 8.91722 12.7314 8.99685 12.6005 8.99685H11.5643C11.422 8.99685 11.3423 8.91722 11.3423 8.77503V0.544892C11.3423 0.402698 11.422 0.32307 11.5643 0.32307H15.5495V0.317383ZM15.5495 5.19176C16.7109 5.19176 17.3656 4.44098 17.3656 3.42288C17.3656 2.42184 16.7109 1.67106 15.5495 1.67106H12.794V5.19176H15.5495Z" fill="#14161A"/>
<path d="M21.8633 7.00586C22.4383 7.00586 22.9336 7.48363 22.9336 8.05809C22.9336 8.63255 22.4383 9.12738 21.8633 9.12738C21.2883 9.12738 20.8101 8.63255 20.8101 8.05809C20.8101 7.48363 21.2883 7.00586 21.8633 7.00586Z" fill="#14161A"/>
<path d="M32.5438 8.99703C32.4299 8.99703 32.3388 8.95153 32.2705 8.85483L29.4183 5.2545L27.3004 2.34239L27.2207 2.35945L27.3175 4.94168V8.78089C27.3175 8.92309 27.2378 9.00272 27.0784 9.00272H26.0764C25.9511 9.00272 25.8828 8.92309 25.8828 8.78089V0.545064C25.8828 0.402871 25.9454 0.323242 26.0878 0.323242H27.0271C27.1865 0.323242 27.3118 0.368744 27.3915 0.482499L30.4544 4.30465L32.3673 6.94945L32.447 6.93238L32.3331 4.36722V0.545064C32.3331 0.402871 32.4128 0.323242 32.5552 0.323242H33.5572C33.6995 0.323242 33.7621 0.402871 33.7621 0.545064V8.78089C33.7621 8.92309 33.6995 9.00272 33.5572 9.00272H32.5438V8.99703Z" fill="#14161A"/>
<path d="M43.4459 0.317383C43.5598 0.317383 43.668 0.414074 43.668 0.539204V1.44924C43.668 1.56299 43.5541 1.654 43.4459 1.654H38.4075V3.80396H42.9962C43.1385 3.80396 43.2182 3.88359 43.2182 4.02578V4.93582C43.2182 5.07801 43.1385 5.14057 42.9962 5.14057H38.4075V7.64317H43.6053C43.7477 7.64317 43.8103 7.70574 43.8103 7.83656V8.77503C43.8103 8.91722 43.7477 8.99685 43.6053 8.99685H37.1664C37.0241 8.99685 36.9614 8.91722 36.9614 8.77503V0.544892C36.9614 0.402698 37.0241 0.32307 37.1664 0.32307H43.4459V0.317383Z" fill="#14161A"/>
<path d="M53.7732 0.317383C53.9156 0.317383 53.9953 0.397011 53.9953 0.539204V1.44924C53.9953 1.59143 53.9156 1.67106 53.7732 1.67106H50.8242V8.77503C50.8242 8.88879 50.7445 8.99685 50.6021 8.99685H49.6001C49.4578 8.99685 49.3781 8.91722 49.3781 8.77503V1.67106H46.4291C46.2867 1.67106 46.207 1.59143 46.207 1.44924V0.539204C46.207 0.397011 46.2867 0.317383 46.4291 0.317383H53.7732Z" fill="#14161A"/>
<path d="M57.4906 0.317383C57.633 0.317383 57.7127 0.362884 57.7468 0.476638L59.7565 7.3076H59.8362L61.7662 0.476638C61.8003 0.362884 61.8801 0.317383 61.9882 0.317383H63.0585C63.1724 0.317383 63.2521 0.362884 63.2806 0.476638L65.2561 7.3076H65.3358L67.3284 0.493702C67.3626 0.379948 67.4423 0.317383 67.5504 0.317383H68.7289C68.8712 0.317383 68.9225 0.379947 68.8712 0.52214L66.1613 8.80347C66.1158 8.9286 66.019 8.99685 65.888 8.99685H64.5672C64.442 8.99685 64.3623 8.93429 64.311 8.7921L62.5575 2.69485H62.4778L60.7414 8.80916C60.7073 8.93429 60.6276 9.00254 60.5194 9.00254H59.1815C59.0392 9.00254 58.9424 8.93998 58.8968 8.80916L56.1698 0.493702C56.1243 0.379948 56.1698 0.317383 56.3122 0.317383H57.4906Z" fill="#14161A"/>
<path d="M75.521 0.192383C78.0374 0.192383 80.0015 2.06933 80.0015 4.66863C80.0015 7.25085 78.0431 9.1278 75.521 9.1278C73.0047 9.1278 71.0405 7.25085 71.0405 4.66863C71.0405 2.06933 72.999 0.192383 75.521 0.192383ZM72.5037 4.66863C72.5037 6.45457 73.7334 7.77413 75.5153 7.77413C77.303 7.77413 78.527 6.45457 78.527 4.66863C78.527 2.8713 77.2973 1.54606 75.5153 1.54606C73.7334 1.54606 72.5037 2.86562 72.5037 4.66863Z" fill="#14161A"/>
<path d="M87.0782 0.317383C88.974 0.317383 90.3631 1.68812 90.3631 3.42288C90.3631 4.63437 89.7084 5.65247 88.7064 6.16437L90.1581 8.74659C90.2379 8.88879 90.1581 9.00254 89.9817 9.00254H88.8203C88.6779 9.00254 88.5641 8.88879 88.5015 8.78072L87.34 6.53407C87.2945 6.55113 87.2148 6.55113 87.118 6.55113H84.3284V8.78072C84.3284 8.92291 84.2658 9.00254 84.1234 9.00254H83.1214C82.9449 9.00254 82.8823 8.88879 82.8823 8.78072V0.544892C82.8823 0.402699 82.962 0.32307 83.1044 0.32307H87.0782V0.317383ZM87.0782 5.19176C88.2396 5.19176 88.9114 4.44098 88.9114 3.42288C88.9114 2.42184 88.2396 1.67106 87.0782 1.67106H84.3227V5.19176H87.0782Z" fill="#14161A"/>
<path d="M94.616 0.317383C94.7583 0.317383 94.838 0.397011 94.838 0.539204V4.36136L98.9484 0.493702C99.0623 0.379948 99.2217 0.317383 99.4096 0.317383H100.844C100.987 0.317383 101.049 0.459575 100.941 0.57333L97.1152 4.05991L101.146 8.72384C101.26 8.8376 101.192 8.99685 101.021 8.99685H99.7455C99.5519 8.99685 99.3925 8.93429 99.2672 8.7921L96.062 5.00407L94.8323 5.99373V8.78072C94.8323 8.92291 94.7526 9.00254 94.6103 9.00254H93.6083C93.4659 9.00254 93.3862 8.92291 93.3862 8.78072V0.544892C93.3862 0.402699 93.4659 0.32307 93.6083 0.32307H94.616V0.317383Z" fill="#14161A"/>
</svg>
