<svg width="178" height="36" viewBox="0 0 178 36" fill="none" xmlns="http://www.w3.org/2000/svg">
<rect x="7.32959" y="7.03223" width="21.2558" height="21.2558" rx="10.6279" fill="#62718A"/>
<path d="M20.2214 24.2929L18.7167 22.7882C18.2894 22.3609 17.5984 22.3609 17.1757 22.7882L15.671 24.2929C15.23 24.7338 14.5118 24.7338 14.0708 24.2929L13.3435 23.5655L15.6483 21.2608C16.9165 19.9925 18.9713 19.9925 20.2396 21.2608L22.5443 23.5655L21.817 24.2929C21.3806 24.7338 20.6669 24.7338 20.2214 24.2929Z" fill="white"/>
<path d="M12.0524 22.2698L11.3251 21.5425C10.8841 21.1015 10.8841 20.3833 11.3251 19.9423L12.8298 18.4377C13.2571 18.0103 13.2571 17.3194 12.8298 16.8966L11.3251 15.3919C10.8841 14.951 10.8841 14.2327 11.3251 13.7918L12.0524 13.0645L14.3572 15.3692C15.6255 16.6375 15.6255 18.6922 14.3572 19.9605L12.0524 22.2698Z" fill="white"/>
<path d="M17.9666 15.0101C17.1347 15.0101 16.3028 14.6965 15.671 14.0601L13.3662 11.7553L14.0935 11.028C14.5345 10.587 15.2527 10.587 15.6937 11.028L17.1984 12.5327C17.6211 12.9554 18.3167 12.9554 18.7394 12.5327L20.2441 11.028C20.685 10.587 21.4033 10.587 21.8442 11.028L22.5716 11.7553L20.2668 14.0601C19.6304 14.6874 18.7985 15.0101 17.9666 15.0101Z" fill="white"/>
<path d="M23.8625 22.2516L21.5578 19.9469C20.2895 18.6786 20.2895 16.6238 21.5578 15.3555L23.8625 13.0508L24.5899 13.7781C25.0308 14.2191 25.0308 14.9373 24.5899 15.3783L23.0852 16.8829C22.6579 17.3103 22.6579 18.0012 23.0852 18.424L24.5899 19.9287C25.0308 20.3696 25.0308 21.0879 24.5899 21.5288L23.8625 22.2516Z" fill="white"/>
<path d="M32.7999 13.8832V8.4502H34.7365C35.1592 8.4502 35.5093 8.52713 35.787 8.68099C36.0647 8.83485 36.2725 9.04531 36.4104 9.31236C36.5484 9.57764 36.6173 9.87653 36.6173 10.209C36.6173 10.5433 36.5475 10.8439 36.4078 11.111C36.2698 11.3763 36.0611 11.5867 35.7817 11.7423C35.504 11.8962 35.1547 11.9731 34.7338 11.9731H33.4021V11.2781H34.6596C34.9266 11.2781 35.1432 11.2321 35.3095 11.1402C35.4757 11.0464 35.5978 10.9191 35.6756 10.7581C35.7534 10.5972 35.7923 10.4142 35.7923 10.209C35.7923 10.0039 35.7534 9.8217 35.6756 9.66253C35.5978 9.50336 35.4748 9.37868 35.3068 9.28849C35.1406 9.19829 34.9213 9.15319 34.6489 9.15319H33.6196V13.8832H32.7999Z" fill="#62718A"/>
<path d="M39.3632 13.9654C38.9812 13.9654 38.6478 13.8779 38.3631 13.7028C38.0783 13.5277 37.8573 13.2827 37.6999 12.9679C37.5425 12.6531 37.4638 12.2853 37.4638 11.8644C37.4638 11.4417 37.5425 11.0721 37.6999 10.7555C37.8573 10.4389 38.0783 10.1931 38.3631 10.018C38.6478 9.84292 38.9812 9.75538 39.3632 9.75538C39.7452 9.75538 40.0786 9.84292 40.3633 10.018C40.648 10.1931 40.8691 10.4389 41.0265 10.7555C41.1839 11.0721 41.2626 11.4417 41.2626 11.8644C41.2626 12.2853 41.1839 12.6531 41.0265 12.9679C40.8691 13.2827 40.648 13.5277 40.3633 13.7028C40.0786 13.8779 39.7452 13.9654 39.3632 13.9654ZM39.3658 13.2995C39.6134 13.2995 39.8186 13.2341 39.9813 13.1032C40.144 12.9724 40.2643 12.7982 40.3421 12.5806C40.4217 12.3631 40.4615 12.1235 40.4615 11.8617C40.4615 11.6017 40.4217 11.363 40.3421 11.1455C40.2643 10.9262 40.144 10.7502 39.9813 10.6175C39.8186 10.4849 39.6134 10.4186 39.3658 10.4186C39.1165 10.4186 38.9096 10.4849 38.7451 10.6175C38.5824 10.7502 38.4612 10.9262 38.3816 11.1455C38.3038 11.363 38.2649 11.6017 38.2649 11.8617C38.2649 12.1235 38.3038 12.3631 38.3816 12.5806C38.4612 12.7982 38.5824 12.9724 38.7451 13.1032C38.9096 13.2341 39.1165 13.2995 39.3658 13.2995Z" fill="#62718A"/>
<path d="M43.0906 13.8832L41.8915 9.80844H42.7112L43.5097 12.8008H43.5495L44.3507 9.80844H45.1704L45.9662 12.7875H46.006L46.7992 9.80844H47.6189L46.4225 13.8832H45.6134L44.7857 10.9412H44.7247L43.897 13.8832H43.0906Z" fill="#62718A"/>
<path d="M50.1871 13.9654C49.7856 13.9654 49.4399 13.8796 49.1498 13.7081C48.8615 13.5348 48.6387 13.2916 48.4813 12.9786C48.3257 12.6638 48.2479 12.295 48.2479 11.8723C48.2479 11.455 48.3257 11.0871 48.4813 10.7688C48.6387 10.4504 48.858 10.2019 49.1392 10.0233C49.4222 9.84469 49.7529 9.75538 50.1314 9.75538C50.3613 9.75538 50.5841 9.7934 50.7999 9.86945C51.0156 9.9455 51.2093 10.0649 51.3808 10.2276C51.5524 10.3903 51.6877 10.6016 51.7867 10.8616C51.8858 11.1198 51.9353 11.4337 51.9353 11.8034V12.0846H48.6962V11.4903H51.158C51.158 11.2816 51.1156 11.0968 51.0307 10.9359C50.9458 10.7732 50.8264 10.645 50.6725 10.5512C50.5204 10.4575 50.3418 10.4106 50.1367 10.4106C49.9138 10.4106 49.7193 10.4655 49.553 10.5751C49.3886 10.683 49.2612 10.8245 49.171 10.9996C49.0826 11.1729 49.0384 11.3612 49.0384 11.5646V12.0288C49.0384 12.3012 49.0862 12.5329 49.1817 12.7239C49.2789 12.9149 49.4142 13.0608 49.5875 13.1616C49.7609 13.2606 49.9633 13.3102 50.195 13.3102C50.3454 13.3102 50.4824 13.2889 50.6062 13.2465C50.73 13.2023 50.837 13.1368 50.9272 13.0502C51.0174 12.9635 51.0864 12.8565 51.1341 12.7292L51.8849 12.8645C51.8247 13.0855 51.7169 13.2792 51.5612 13.4454C51.4074 13.6099 51.2137 13.7381 50.9803 13.8301C50.7486 13.9203 50.4842 13.9654 50.1871 13.9654Z" fill="#62718A"/>
<path d="M52.9986 13.8832V9.80844H53.7653V10.4557H53.8077C53.882 10.2364 54.0128 10.064 54.2003 9.93843C54.3895 9.81109 54.6035 9.74742 54.8423 9.74742C54.8918 9.74742 54.9502 9.74919 55.0174 9.75273C55.0864 9.75627 55.1403 9.76069 55.1792 9.76599V10.5247C55.1474 10.5159 55.0908 10.5061 55.0094 10.4955C54.9281 10.4831 54.8467 10.4769 54.7654 10.4769C54.5779 10.4769 54.4108 10.5167 54.264 10.5963C54.119 10.6741 54.004 10.7829 53.9191 10.9226C53.8342 11.0606 53.7918 11.218 53.7918 11.3948V13.8832H52.9986Z" fill="#62718A"/>
<path d="M57.6591 13.9654C57.2577 13.9654 56.9119 13.8796 56.6219 13.7081C56.3336 13.5348 56.1108 13.2916 55.9534 12.9786C55.7977 12.6638 55.7199 12.295 55.7199 11.8723C55.7199 11.455 55.7977 11.0871 55.9534 10.7688C56.1108 10.4504 56.3301 10.2019 56.6113 10.0233C56.8942 9.84469 57.2249 9.75538 57.6034 9.75538C57.8333 9.75538 58.0562 9.7934 58.2719 9.86945C58.4877 9.9455 58.6813 10.0649 58.8529 10.2276C59.0244 10.3903 59.1597 10.6016 59.2588 10.8616C59.3578 11.1198 59.4073 11.4337 59.4073 11.8034V12.0846H56.1682V11.4903H58.63C58.63 11.2816 58.5876 11.0968 58.5027 10.9359C58.4178 10.7732 58.2984 10.645 58.1446 10.5512C57.9925 10.4575 57.8139 10.4106 57.6087 10.4106C57.3859 10.4106 57.1913 10.4655 57.0251 10.5751C56.8606 10.683 56.7333 10.8245 56.6431 10.9996C56.5547 11.1729 56.5104 11.3612 56.5104 11.5646V12.0288C56.5104 12.3012 56.5582 12.5329 56.6537 12.7239C56.751 12.9149 56.8863 13.0608 57.0596 13.1616C57.2329 13.2606 57.4354 13.3102 57.6671 13.3102C57.8174 13.3102 57.9545 13.2889 58.0783 13.2465C58.2021 13.2023 58.3091 13.1368 58.3993 13.0502C58.4895 12.9635 58.5584 12.8565 58.6062 12.7292L59.3569 12.8645C59.2968 13.0855 59.1889 13.2792 59.0333 13.4454C58.8794 13.6099 58.6858 13.7381 58.4523 13.8301C58.2206 13.9203 57.9562 13.9654 57.6591 13.9654Z" fill="#62718A"/>
<path d="M61.996 13.9627C61.6671 13.9627 61.3735 13.8787 61.1153 13.7107C60.8588 13.5409 60.6572 13.2995 60.5104 12.9865C60.3654 12.6717 60.2929 12.2941 60.2929 11.8538C60.2929 11.4134 60.3663 11.0367 60.5131 10.7237C60.6616 10.4106 60.865 10.171 61.1232 10.0047C61.3814 9.8385 61.6741 9.75538 62.0013 9.75538C62.2542 9.75538 62.4576 9.79783 62.6115 9.88272C62.7671 9.96584 62.8874 10.0631 62.9722 10.1745C63.0589 10.2859 63.1261 10.3841 63.1739 10.469H63.2216V8.4502H64.0148V13.8832H63.2402V13.2491H63.1739C63.1261 13.3358 63.0571 13.4348 62.9669 13.5463C62.8785 13.6577 62.7565 13.7549 62.6008 13.8381C62.4452 13.9212 62.2436 13.9627 61.996 13.9627ZM62.1711 13.2863C62.3992 13.2863 62.592 13.2261 62.7494 13.1059C62.9086 12.9839 63.0288 12.815 63.1102 12.5992C63.1933 12.3834 63.2349 12.1323 63.2349 11.8458C63.2349 11.5628 63.1942 11.3152 63.1128 11.103C63.0315 10.8908 62.9121 10.7254 62.7547 10.6069C62.5973 10.4884 62.4028 10.4292 62.1711 10.4292C61.9323 10.4292 61.7334 10.4911 61.5742 10.6149C61.415 10.7387 61.2948 10.9076 61.2134 11.1216C61.1338 11.3356 61.094 11.577 61.094 11.8458C61.094 12.1182 61.1347 12.3631 61.2161 12.5806C61.2974 12.7982 61.4177 12.9706 61.5769 13.0979C61.7378 13.2235 61.9359 13.2863 62.1711 13.2863Z" fill="#62718A"/>
<path d="M67.554 13.8832V8.4502H68.3472V10.469H68.395C68.441 10.3841 68.5073 10.2859 68.594 10.1745C68.6806 10.0631 68.8009 9.96584 68.9547 9.88272C69.1086 9.79783 69.312 9.75538 69.5649 9.75538C69.8938 9.75538 70.1874 9.8385 70.4456 10.0047C70.7038 10.171 70.9063 10.4106 71.0531 10.7237C71.2017 11.0367 71.2759 11.4134 71.2759 11.8538C71.2759 12.2941 71.2026 12.6717 71.0558 12.9865C70.909 13.2995 70.7074 13.5409 70.4509 13.7107C70.1945 13.8787 69.9018 13.9627 69.5728 13.9627C69.3252 13.9627 69.1227 13.9212 68.9653 13.8381C68.8097 13.7549 68.6877 13.6577 68.5993 13.5463C68.5108 13.4348 68.4427 13.3358 68.395 13.2491H68.3287V13.8832H67.554ZM68.3313 11.8458C68.3313 12.1323 68.3729 12.3834 68.456 12.5992C68.5391 12.815 68.6594 12.9839 68.8168 13.1059C68.9742 13.2261 69.167 13.2863 69.3951 13.2863C69.6321 13.2863 69.8302 13.2235 69.9893 13.0979C70.1485 12.9706 70.2688 12.7982 70.3501 12.5806C70.4332 12.3631 70.4748 12.1182 70.4748 11.8458C70.4748 11.577 70.4341 11.3356 70.3528 11.1216C70.2732 10.9076 70.1529 10.7387 69.992 10.6149C69.8328 10.4911 69.6339 10.4292 69.3951 10.4292C69.1652 10.4292 68.9706 10.4884 68.8115 10.6069C68.6541 10.7254 68.5347 10.8908 68.4534 11.103C68.372 11.3152 68.3313 11.5628 68.3313 11.8458Z" fill="#62718A"/>
<path d="M72.7126 15.4112C72.5942 15.4112 72.4863 15.4015 72.389 15.382C72.2917 15.3643 72.2192 15.3449 72.1715 15.3236L72.3625 14.6737C72.5075 14.7126 72.6366 14.7294 72.7498 14.7241C72.863 14.7188 72.9629 14.6764 73.0496 14.5968C73.138 14.5172 73.2158 14.3872 73.283 14.2068L73.3812 13.9362L71.8903 9.80844H72.7392L73.7711 12.9706H73.8136L74.8455 9.80844H75.6971L74.0178 14.427C73.94 14.6392 73.841 14.8187 73.7207 14.9655C73.6005 15.1141 73.4572 15.2255 73.291 15.2998C73.1247 15.374 72.9319 15.4112 72.7126 15.4112Z" fill="#62718A"/>
<path d="M34.2815 17.9941C34.4263 17.9941 34.4637 18.0315 34.5057 18.0874L36.3875 20.5973H36.4529L38.2694 18.1014C38.3208 18.0361 38.4001 17.9988 38.5029 17.9988H39.6423C39.759 17.9988 39.801 18.1014 39.745 18.1668L37.1954 21.3671L40.0345 24.9312C40.0999 25.0246 40.0625 25.1132 39.9411 25.1132H38.7924C38.6897 25.1132 38.5963 25.0759 38.5309 24.9826L36.4109 22.1368H36.3455L34.3236 24.9732C34.2442 25.0665 34.1555 25.1179 34.0481 25.1179H32.9087C32.8153 25.1179 32.7639 25.0385 32.8293 24.9499L35.6264 21.395L33.1048 18.1947C33.0534 18.1014 33.0768 17.9988 33.1982 17.9988H34.2815V17.9941Z" fill="#62718A"/>
<path d="M45.5537 17.9941C47.1087 17.9941 48.2341 19.1184 48.2341 20.5413C48.2341 22.0062 47.1087 23.1025 45.5537 23.1025H43.2937V24.9312C43.2937 25.0479 43.2423 25.1132 43.1349 25.1132H42.285C42.1683 25.1132 42.1029 25.0479 42.1029 24.9312V18.1807C42.1029 18.0641 42.1683 17.9988 42.285 17.9988H45.5537V17.9941ZM45.5537 21.9922C46.5063 21.9922 47.0434 21.3764 47.0434 20.5413C47.0434 19.7203 46.5063 19.1045 45.5537 19.1045H43.2937V21.9922H45.5537Z" fill="#62718A"/>
<path d="M50.7327 23.4805C51.2043 23.4805 51.6105 23.8723 51.6105 24.3435C51.6105 24.8147 51.2043 25.2206 50.7327 25.2206C50.261 25.2206 49.8688 24.8147 49.8688 24.3435C49.8688 23.8723 50.261 23.4805 50.7327 23.4805Z" fill="#62718A"/>
<path d="M59.4931 25.1134C59.3997 25.1134 59.325 25.0761 59.269 24.9968L56.9295 22.0437L55.1924 19.6552L55.127 19.6692L55.2064 21.7871V24.9361C55.2064 25.0528 55.141 25.1181 55.0103 25.1181H54.1884C54.0857 25.1181 54.0297 25.0528 54.0297 24.9361V18.181C54.0297 18.0643 54.081 17.999 54.1978 17.999H54.9683C55.099 17.999 55.2017 18.0363 55.2671 18.1296L57.7794 21.2646L59.3484 23.4339L59.4137 23.42L59.3203 21.316V18.181C59.3203 18.0643 59.3857 17.999 59.5024 17.999H60.3243C60.441 17.999 60.4924 18.0643 60.4924 18.181V24.9361C60.4924 25.0528 60.441 25.1181 60.3243 25.1181H59.4931V25.1134Z" fill="#62718A"/>
<path d="M68.435 17.9941C68.5284 17.9941 68.6171 18.0734 68.6171 18.1761V18.9225C68.6171 19.0158 68.5237 19.0905 68.435 19.0905H64.3024V20.8539H68.0661C68.1829 20.8539 68.2482 20.9192 68.2482 21.0358V21.7823C68.2482 21.8989 68.1829 21.9502 68.0661 21.9502H64.3024V24.0029H68.5658C68.6825 24.0029 68.7339 24.0542 68.7339 24.1615V24.9312C68.7339 25.0479 68.6825 25.1132 68.5658 25.1132H63.2844C63.1677 25.1132 63.1163 25.0479 63.1163 24.9312V18.1807C63.1163 18.0641 63.1677 17.9988 63.2844 17.9988H68.435V17.9941Z" fill="#62718A"/>
<path d="M76.9057 17.9941C77.0225 17.9941 77.0879 18.0595 77.0879 18.1761V18.9225C77.0879 19.0391 77.0225 19.1045 76.9057 19.1045H74.4869V24.9312C74.4869 25.0246 74.4215 25.1132 74.3048 25.1132H73.4829C73.3662 25.1132 73.3008 25.0479 73.3008 24.9312V19.1045H70.8819C70.7652 19.1045 70.6998 19.0391 70.6998 18.9225V18.1761C70.6998 18.0595 70.7652 17.9941 70.8819 17.9941H76.9057Z" fill="#62718A"/>
<path d="M79.9547 17.9941C80.0715 17.9941 80.1368 18.0315 80.1648 18.1248L81.8132 23.7276H81.8786L83.4616 18.1248C83.4896 18.0315 83.555 17.9941 83.6437 17.9941H84.5216C84.615 17.9941 84.6804 18.0315 84.7037 18.1248L86.3241 23.7276H86.3894L88.0238 18.1388C88.0518 18.0455 88.1172 17.9941 88.2059 17.9941H89.1725C89.2893 17.9941 89.3313 18.0455 89.2893 18.1621L87.0665 24.9546C87.0292 25.0572 86.9498 25.1132 86.8424 25.1132H85.759C85.6563 25.1132 85.5909 25.0619 85.5489 24.9452L84.1107 19.9442H84.0453L82.6211 24.9592C82.593 25.0619 82.5277 25.1179 82.4389 25.1179H81.3416C81.2248 25.1179 81.1455 25.0665 81.1081 24.9592L78.8714 18.1388C78.834 18.0455 78.8714 17.9941 78.9881 17.9941H79.9547Z" fill="#62718A"/>
<path d="M94.7437 17.8916C96.8077 17.8916 98.4187 19.4311 98.4187 21.5631C98.4187 23.6811 96.8124 25.2206 94.7437 25.2206C92.6797 25.2206 91.0687 23.6811 91.0687 21.5631C91.0687 19.4311 92.6751 17.8916 94.7437 17.8916ZM92.2688 21.5631C92.2688 23.028 93.2775 24.1103 94.739 24.1103C96.2053 24.1103 97.2093 23.028 97.2093 21.5631C97.2093 20.0889 96.2006 19.0019 94.739 19.0019C93.2775 19.0019 92.2688 20.0842 92.2688 21.5631Z" fill="#62718A"/>
<path d="M104.223 17.9941C105.778 17.9941 106.917 19.1184 106.917 20.5413C106.917 21.535 106.38 22.3701 105.558 22.7899L106.749 24.9079C106.814 25.0246 106.749 25.1179 106.604 25.1179H105.652C105.535 25.1179 105.441 25.0246 105.39 24.9359L104.437 23.0932C104.4 23.1072 104.335 23.1072 104.255 23.1072H101.967V24.9359C101.967 25.0525 101.916 25.1179 101.799 25.1179H100.977C100.832 25.1179 100.781 25.0246 100.781 24.9359V18.1807C100.781 18.0641 100.847 17.9988 100.963 17.9988H104.223V17.9941ZM104.223 21.9922C105.175 21.9922 105.726 21.3764 105.726 20.5413C105.726 19.7203 105.175 19.1045 104.223 19.1045H101.963V21.9922H104.223Z" fill="#62718A"/>
<path d="M110.405 17.9941C110.522 17.9941 110.588 18.0595 110.588 18.1761V21.3111L113.959 18.1388C114.052 18.0455 114.183 17.9941 114.337 17.9941H115.514C115.631 17.9941 115.682 18.1108 115.593 18.2041L112.455 21.0638L115.762 24.8893C115.855 24.9826 115.799 25.1132 115.659 25.1132H114.613C114.454 25.1132 114.323 25.0619 114.221 24.9452L111.592 21.8382L110.583 22.65V24.9359C110.583 25.0525 110.518 25.1179 110.401 25.1179H109.579C109.462 25.1179 109.397 25.0525 109.397 24.9359V18.1807C109.397 18.0641 109.462 17.9988 109.579 17.9988H110.405V17.9941Z" fill="#62718A"/>
<g opacity="0.7">
<path d="M138.149 20.6602C138.149 20.1942 138.262 19.7695 138.49 19.386C138.717 19.0025 139.022 18.6971 139.406 18.4698C139.789 18.2425 140.214 18.1289 140.68 18.1289C141.083 18.1289 141.455 18.2156 141.796 18.3888C142.14 18.5621 142.424 18.7994 142.649 19.1005C142.873 19.3988 143.012 19.7369 143.066 20.1147H142.035C141.978 19.8221 141.82 19.5835 141.562 19.3988C141.303 19.2113 141.009 19.1175 140.68 19.1175C140.396 19.1175 140.137 19.1871 139.904 19.3263C139.671 19.4656 139.485 19.6516 139.346 19.8846C139.207 20.1175 139.137 20.3761 139.137 20.6602C139.137 20.9442 139.207 21.2028 139.346 21.4357C139.485 21.6687 139.671 21.8548 139.904 21.994C140.137 22.1332 140.396 22.2028 140.68 22.2028C141.009 22.2028 141.288 22.1104 141.515 21.9258C141.745 21.7383 141.89 21.4982 141.95 21.2056H142.981C142.927 21.5835 142.795 21.9229 142.585 22.2241C142.374 22.5224 142.105 22.7582 141.775 22.9315C141.448 23.1048 141.083 23.1914 140.68 23.1914C140.214 23.1914 139.789 23.0778 139.406 22.8505C139.022 22.6232 138.717 22.3178 138.49 21.9343C138.262 21.5508 138.149 21.1261 138.149 20.6602ZM140.637 25.1602C140.018 25.1602 139.436 25.0437 138.89 24.8107C138.347 24.5778 137.869 24.2553 137.454 23.8434C137.042 23.4286 136.718 22.9499 136.482 22.4073C136.249 21.8647 136.134 21.2823 136.137 20.6602C136.14 20.038 136.258 19.4556 136.491 18.913C136.727 18.3704 137.051 17.8931 137.463 17.4812C137.874 17.0664 138.352 16.7425 138.894 16.5096C139.437 16.2766 140.018 16.1602 140.637 16.1602C141.259 16.1602 141.842 16.2766 142.384 16.5096C142.93 16.7425 143.407 17.0664 143.816 17.4812C144.228 17.8931 144.551 18.3704 144.784 18.913C145.017 19.4556 145.134 20.038 145.137 20.6602C145.14 21.2823 145.025 21.8647 144.792 22.4073C144.559 22.9499 144.237 23.4286 143.825 23.8434C143.413 24.2553 142.934 24.5778 142.389 24.8107C141.843 25.0437 141.259 25.1602 140.637 25.1602ZM140.637 24.1715C141.123 24.1715 141.579 24.0806 142.005 23.8988C142.431 23.717 142.805 23.4656 143.126 23.1445C143.447 22.8235 143.698 22.4513 143.88 22.0281C144.062 21.6019 144.151 21.1474 144.149 20.6644C144.146 20.1786 144.053 19.7227 143.872 19.2965C143.69 18.8704 143.438 18.4968 143.117 18.1758C142.796 17.8548 142.424 17.6033 142.001 17.4215C141.578 17.2397 141.123 17.1488 140.637 17.1488C140.154 17.1488 139.701 17.2397 139.278 17.4215C138.855 17.6033 138.482 17.8562 138.161 18.18C137.84 18.5011 137.588 18.8746 137.403 19.3008C137.221 19.7241 137.129 20.1786 137.126 20.6644C137.123 21.1445 137.213 21.5977 137.394 22.0238C137.576 22.4471 137.828 22.8192 138.149 23.1403C138.472 23.4613 138.846 23.7141 139.269 23.8988C139.695 24.0806 140.151 24.1715 140.637 24.1715Z" fill="#14161A"/>
<path d="M150.407 25.0238V24.2567L153.288 21.1033C153.626 20.734 153.905 20.413 154.123 20.1403C154.342 19.8647 154.504 19.6062 154.609 19.3647C154.717 19.1204 154.771 18.8647 154.771 18.5977C154.771 18.2908 154.697 18.0252 154.55 17.8008C154.405 17.5763 154.206 17.4031 153.953 17.2809C153.7 17.1587 153.416 17.0977 153.101 17.0977C152.765 17.0977 152.473 17.1673 152.223 17.3065C151.976 17.4428 151.784 17.6346 151.648 17.8817C151.514 18.1289 151.447 18.4187 151.447 18.7511H150.442C150.442 18.2397 150.559 17.7908 150.795 17.4045C151.031 17.0181 151.352 16.717 151.758 16.5011C152.167 16.2852 152.626 16.1772 153.135 16.1772C153.646 16.1772 154.099 16.2852 154.494 16.5011C154.889 16.717 155.199 17.0082 155.423 17.3746C155.648 17.7411 155.76 18.1488 155.76 18.5977C155.76 18.9187 155.702 19.2326 155.585 19.5394C155.471 19.8434 155.273 20.1829 154.988 20.5579C154.707 20.93 154.317 21.3846 153.817 21.9215L151.856 24.0181V24.0863H155.913V25.0238H150.407Z" fill="#14161A"/>
<path d="M160.52 25.1431C159.878 25.1431 159.331 24.9684 158.879 24.619C158.427 24.2667 158.082 23.7567 157.844 23.0891C157.605 22.4187 157.486 21.609 157.486 20.6602C157.486 19.717 157.605 18.9116 157.844 18.244C158.085 17.5735 158.432 17.0621 158.883 16.7099C159.338 16.3548 159.883 16.1772 160.52 16.1772C161.156 16.1772 161.7 16.3548 162.152 16.7099C162.606 17.0621 162.953 17.5735 163.192 18.244C163.433 18.9116 163.554 19.717 163.554 20.6602C163.554 21.609 163.434 22.4187 163.196 23.0891C162.957 23.7567 162.612 24.2667 162.16 24.619C161.709 24.9684 161.162 25.1431 160.52 25.1431ZM160.52 24.2056C161.156 24.2056 161.65 23.8988 162.003 23.2852C162.355 22.6715 162.531 21.7965 162.531 20.6602C162.531 19.9045 162.45 19.261 162.288 18.7298C162.129 18.1985 161.899 17.7937 161.598 17.5153C161.3 17.2369 160.94 17.0977 160.52 17.0977C159.889 17.0977 159.396 17.4087 159.041 18.0309C158.686 18.6502 158.508 19.5266 158.508 20.6602C158.508 21.4158 158.588 22.0579 158.747 22.5863C158.906 23.1147 159.135 23.5167 159.433 23.7923C159.734 24.0678 160.096 24.2056 160.52 24.2056Z" fill="#14161A"/>
<path d="M165.173 25.0238V24.2567L168.054 21.1033C168.392 20.734 168.67 20.413 168.889 20.1403C169.108 19.8647 169.27 19.6062 169.375 19.3647C169.483 19.1204 169.537 18.8647 169.537 18.5977C169.537 18.2908 169.463 18.0252 169.315 17.8008C169.17 17.5763 168.971 17.4031 168.719 17.2809C168.466 17.1587 168.182 17.0977 167.866 17.0977C167.531 17.0977 167.238 17.1673 166.988 17.3065C166.741 17.4428 166.55 17.6346 166.413 17.8817C166.28 18.1289 166.213 18.4187 166.213 18.7511H165.207C165.207 18.2397 165.325 17.7908 165.561 17.4045C165.797 17.0181 166.118 16.717 166.524 16.5011C166.933 16.2852 167.392 16.1772 167.9 16.1772C168.412 16.1772 168.865 16.2852 169.26 16.5011C169.655 16.717 169.964 17.0082 170.189 17.3746C170.413 17.7411 170.525 18.1488 170.525 18.5977C170.525 18.9187 170.467 19.2326 170.351 19.5394C170.237 19.8434 170.038 20.1829 169.754 20.5579C169.473 20.93 169.082 21.3846 168.582 21.9215L166.622 24.0181V24.0863H170.679V25.0238H165.173Z" fill="#14161A"/>
<path d="M172.439 25.0238V24.2567L175.319 21.1033C175.658 20.734 175.936 20.413 176.155 20.1403C176.373 19.8647 176.535 19.6062 176.64 19.3647C176.748 19.1204 176.802 18.8647 176.802 18.5977C176.802 18.2908 176.729 18.0252 176.581 17.8008C176.436 17.5763 176.237 17.4031 175.984 17.2809C175.731 17.1587 175.447 17.0977 175.132 17.0977C174.797 17.0977 174.504 17.1673 174.254 17.3065C174.007 17.4428 173.815 17.6346 173.679 17.8817C173.545 18.1289 173.479 18.4187 173.479 18.7511H172.473C172.473 18.2397 172.591 17.7908 172.827 17.4045C173.062 17.0181 173.383 16.717 173.79 16.5011C174.199 16.2852 174.657 16.1772 175.166 16.1772C175.677 16.1772 176.131 16.2852 176.525 16.5011C176.92 16.717 177.23 17.0082 177.454 17.3746C177.679 17.7411 177.791 18.1488 177.791 18.5977C177.791 18.9187 177.733 19.2326 177.616 19.5394C177.503 19.8434 177.304 20.1829 177.02 20.5579C176.738 20.93 176.348 21.3846 175.848 21.9215L173.888 24.0181V24.0863H177.944V25.0238H172.439Z" fill="#14161A"/>
</g>
</svg>
