<svg width="157" height="10" viewBox="0 0 157 10" fill="none" xmlns="http://www.w3.org/2000/svg">
<path d="M1.80637 0.316895C1.98286 0.316895 2.02841 0.362396 2.07964 0.430648L4.37398 3.49065H4.45368L6.66832 0.447712C6.73094 0.368084 6.82772 0.322581 6.95297 0.322581H8.3421C8.48443 0.322581 8.53567 0.447712 8.46735 0.52734L5.35889 4.42912L8.82032 8.77454C8.90003 8.8883 8.85448 8.99637 8.70646 8.99637H7.30595C7.1807 8.99637 7.06684 8.95086 6.98713 8.83711L4.40245 5.3676H4.32274L1.85761 8.82573C1.76083 8.93949 1.65266 9.00205 1.52172 9.00205H0.13259C0.0187268 9.00205 -0.0438989 8.90536 0.0358051 8.7973L3.446 4.46325L0.371701 0.561466C0.309076 0.447711 0.337542 0.322581 0.485564 0.322581H1.80637V0.316895Z" fill="#14161A"/>
<path d="M15.55 0.316895C17.4458 0.316895 18.8179 1.68764 18.8179 3.42239C18.8179 5.20834 17.4458 6.54495 15.55 6.54495H12.7945V8.77454C12.7945 8.91674 12.7319 8.99636 12.601 8.99636H11.5648C11.4225 8.99636 11.3428 8.91674 11.3428 8.77454V0.544403C11.3428 0.40221 11.4225 0.322581 11.5648 0.322581H15.55V0.316895ZM15.55 5.19128C16.7114 5.19128 17.3661 4.4405 17.3661 3.42239C17.3661 2.42135 16.7114 1.67057 15.55 1.67057H12.7945V5.19128H15.55Z" fill="#14161A"/>
<path d="M21.8628 7.00568C22.4378 7.00568 22.9331 7.48345 22.9331 8.05791C22.9331 8.63237 22.4378 9.1272 21.8628 9.1272C21.2878 9.1272 20.8096 8.63237 20.8096 8.05791C20.8096 7.48345 21.2878 7.00568 21.8628 7.00568Z" fill="#14161A"/>
<path d="M32.5438 8.99642C32.4299 8.99642 32.3388 8.95092 32.2705 8.85422L29.4183 5.25389L27.3004 2.34178L27.2207 2.35884L27.3175 4.94107V8.78028C27.3175 8.92248 27.2378 9.0021 27.0784 9.0021H26.0764C25.9511 9.0021 25.8828 8.92248 25.8828 8.78028V0.544454C25.8828 0.402261 25.9454 0.322632 26.0878 0.322632H27.0271C27.1865 0.322632 27.3118 0.368134 27.3915 0.481889L30.4544 4.30404L32.3673 6.94884L32.447 6.93177L32.3331 4.36661V0.544454C32.3331 0.402261 32.4128 0.322632 32.5552 0.322632H33.5572C33.6995 0.322632 33.7621 0.402261 33.7621 0.544454V8.78028C33.7621 8.92248 33.6995 9.0021 33.5572 9.0021H32.5438V8.99642Z" fill="#14161A"/>
<path d="M43.4464 0.316895C43.5603 0.316895 43.6684 0.413586 43.6684 0.538716V1.44875C43.6684 1.56251 43.5546 1.65351 43.4464 1.65351H38.408V3.80347H42.9967C43.139 3.80347 43.2187 3.8831 43.2187 4.02529V4.93533C43.2187 5.07752 43.139 5.14009 42.9967 5.14009H38.408V7.64269H43.6058C43.7481 7.64269 43.8108 7.70525 43.8108 7.83607V8.77454C43.8108 8.91674 43.7481 8.99636 43.6058 8.99636H37.1669C37.0245 8.99636 36.9619 8.91674 36.9619 8.77454V0.544403C36.9619 0.40221 37.0245 0.322581 37.1669 0.322581H43.4464V0.316895Z" fill="#14161A"/>
<path d="M53.7732 0.316895C53.9156 0.316895 53.9953 0.396522 53.9953 0.538716V1.44875C53.9953 1.59095 53.9156 1.67057 53.7732 1.67057H50.8242V8.77454C50.8242 8.8883 50.7445 8.99636 50.6021 8.99636H49.6001C49.4578 8.99636 49.3781 8.91674 49.3781 8.77454V1.67057H46.4291C46.2867 1.67057 46.207 1.59095 46.207 1.44875V0.538716C46.207 0.396522 46.2867 0.316895 46.4291 0.316895H53.7732Z" fill="#14161A"/>
<path d="M57.4911 0.316895C57.6335 0.316895 57.7132 0.362396 57.7473 0.47615L59.757 7.30711H59.8367L61.7667 0.47615C61.8008 0.362396 61.8805 0.316895 61.9887 0.316895H63.059C63.1729 0.316895 63.2526 0.362396 63.2811 0.47615L65.2566 7.30711H65.3363L67.3289 0.493214C67.363 0.379459 67.4427 0.316895 67.5509 0.316895H68.7294C68.8717 0.316895 68.923 0.379459 68.8717 0.521652L66.1618 8.80298C66.1162 8.92811 66.0195 8.99637 65.8885 8.99637H64.5677C64.4425 8.99637 64.3628 8.9338 64.3115 8.79161L62.558 2.69436H62.4783L60.7419 8.80867C60.7078 8.9338 60.628 9.00205 60.5199 9.00205H59.182C59.0397 9.00205 58.9429 8.93949 58.8973 8.80867L56.1703 0.493214C56.1248 0.379459 56.1703 0.316895 56.3126 0.316895H57.4911Z" fill="#14161A"/>
<path d="M75.5215 0.191833C78.0379 0.191833 80.002 2.06878 80.002 4.66808C80.002 7.25031 78.0436 9.12726 75.5215 9.12726C73.0052 9.12726 71.041 7.25031 71.041 4.66808C71.041 2.06878 72.9995 0.191833 75.5215 0.191833ZM72.5042 4.66808C72.5042 6.45402 73.7339 7.77358 75.5158 7.77358C77.3035 7.77358 78.5275 6.45402 78.5275 4.66808C78.5275 2.87075 77.2978 1.54551 75.5158 1.54551C73.7339 1.54551 72.5042 2.86507 72.5042 4.66808Z" fill="#14161A"/>
<path d="M87.0787 0.316895C88.9745 0.316895 90.3636 1.68764 90.3636 3.42239C90.3636 4.63388 89.7089 5.65198 88.7069 6.16388L90.1586 8.74611C90.2383 8.8883 90.1586 9.00205 89.9822 9.00205H88.8208C88.6784 9.00205 88.5646 8.8883 88.5019 8.78023L87.3405 6.53358C87.295 6.55064 87.2153 6.55064 87.1185 6.55064H84.3289V8.78023C84.3289 8.92243 84.2662 9.00205 84.1239 9.00205H83.1219C82.9454 9.00205 82.8828 8.8883 82.8828 8.78023V0.544403C82.8828 0.40221 82.9625 0.322581 83.1048 0.322581H87.0787V0.316895ZM87.0787 5.19128C88.2401 5.19128 88.9118 4.4405 88.9118 3.42239C88.9118 2.42135 88.2401 1.67057 87.0787 1.67057H84.3232V5.19128H87.0787Z" fill="#14161A"/>
<path d="M94.6155 0.316895C94.7578 0.316895 94.8375 0.396522 94.8375 0.538716V4.36087L98.9479 0.493214C99.0618 0.379459 99.2212 0.316895 99.4091 0.316895H100.844C100.986 0.316895 101.049 0.459087 100.941 0.572842L97.1148 4.05942L101.145 8.72336C101.259 8.83711 101.191 8.99637 101.02 8.99637H99.745C99.5514 8.99637 99.392 8.9338 99.2668 8.79161L96.0615 5.00358L94.8318 5.99325V8.78023C94.8318 8.92243 94.7521 9.00205 94.6098 9.00205H93.6078C93.4655 9.00205 93.3857 8.92243 93.3857 8.78023V0.544403C93.3857 0.40221 93.4655 0.322581 93.6078 0.322581H94.6155V0.316895Z" fill="#14161A"/>
<g opacity="0.7">
<path d="M116.214 4.65955C116.214 4.19364 116.327 3.76892 116.554 3.3854C116.782 3.00188 117.087 2.69648 117.471 2.4692C117.854 2.24193 118.279 2.1283 118.745 2.1283C119.148 2.1283 119.52 2.21494 119.861 2.38824C120.205 2.56153 120.489 2.79875 120.714 3.09989C120.938 3.39818 121.077 3.73625 121.131 4.11409H120.1C120.043 3.82148 119.885 3.58284 119.627 3.39818C119.368 3.21068 119.074 3.11693 118.745 3.11693C118.461 3.11693 118.202 3.18653 117.969 3.32574C117.736 3.46494 117.55 3.65102 117.411 3.88398C117.272 4.11693 117.202 4.37545 117.202 4.65955C117.202 4.94364 117.272 5.20216 117.411 5.43511C117.55 5.66807 117.736 5.85415 117.969 5.99335C118.202 6.13256 118.461 6.20216 118.745 6.20216C119.074 6.20216 119.353 6.10983 119.58 5.92517C119.81 5.73767 119.955 5.49761 120.015 5.205H121.046C120.992 5.58284 120.86 5.92233 120.65 6.22347C120.439 6.52176 120.17 6.75756 119.84 6.93085C119.513 7.10415 119.148 7.1908 118.745 7.1908C118.279 7.1908 117.854 7.07716 117.471 6.84989C117.087 6.62261 116.782 6.31722 116.554 5.93369C116.327 5.55017 116.214 5.12545 116.214 4.65955ZM118.702 9.15955C118.083 9.15955 117.5 9.04307 116.955 8.81011C116.412 8.57716 115.934 8.25472 115.519 7.84278C115.107 7.42801 114.783 6.94932 114.547 6.4067C114.314 5.86409 114.199 5.2817 114.202 4.65955C114.205 4.03739 114.323 3.455 114.556 2.91239C114.792 2.36977 115.116 1.8925 115.527 1.48057C115.939 1.0658 116.417 0.741932 116.959 0.508978C117.502 0.276023 118.083 0.159546 118.702 0.159546C119.324 0.159546 119.907 0.276023 120.449 0.508978C120.995 0.741932 121.472 1.0658 121.881 1.48057C122.293 1.8925 122.616 2.36977 122.849 2.91239C123.081 3.455 123.199 4.03739 123.202 4.65955C123.205 5.2817 123.09 5.86409 122.857 6.4067C122.624 6.94932 122.302 7.42801 121.89 7.84278C121.478 8.25472 120.999 8.57716 120.454 8.81011C119.908 9.04307 119.324 9.15955 118.702 9.15955ZM118.702 8.17091C119.188 8.17091 119.644 8.08 120.07 7.89818C120.496 7.71636 120.87 7.46494 121.191 7.14392C121.512 6.8229 121.763 6.45074 121.945 6.02744C122.127 5.60131 122.216 5.14676 122.214 4.66381C122.211 4.17801 122.118 3.72205 121.937 3.29591C121.755 2.86977 121.503 2.49619 121.182 2.17517C120.861 1.85415 120.489 1.60273 120.066 1.42091C119.643 1.23909 119.188 1.14818 118.702 1.14818C118.219 1.14818 117.766 1.23909 117.343 1.42091C116.92 1.60273 116.547 1.85557 116.226 2.17943C115.905 2.50045 115.652 2.87403 115.468 3.30017C115.286 3.72347 115.194 4.17801 115.191 4.66381C115.188 5.14392 115.277 5.59705 115.459 6.02318C115.641 6.44648 115.893 6.81864 116.214 7.13966C116.537 7.46068 116.911 7.71352 117.334 7.89818C117.76 8.08 118.216 8.17091 118.702 8.17091Z" fill="#14161A"/>
<path d="M128.472 9.02318V8.25614L131.353 5.10273C131.691 4.73341 131.97 4.41239 132.188 4.13966C132.407 3.86409 132.569 3.60557 132.674 3.36409C132.782 3.11977 132.836 2.86409 132.836 2.59705C132.836 2.29023 132.762 2.0246 132.614 1.80017C132.47 1.57574 132.271 1.40244 132.018 1.28028C131.765 1.15813 131.481 1.09705 131.166 1.09705C130.83 1.09705 130.538 1.16665 130.288 1.30585C130.041 1.44222 129.849 1.63398 129.712 1.88114C129.579 2.1283 129.512 2.41807 129.512 2.75045H128.507C128.507 2.23909 128.624 1.79023 128.86 1.40386C129.096 1.0175 129.417 0.716364 129.823 0.500455C130.232 0.284546 130.691 0.176591 131.2 0.176591C131.711 0.176591 132.164 0.284546 132.559 0.500455C132.954 0.716364 133.264 1.00756 133.488 1.37403C133.712 1.74051 133.825 2.14818 133.825 2.59705C133.825 2.91807 133.766 3.23199 133.65 3.53881C133.536 3.84278 133.337 4.18227 133.053 4.55727C132.772 4.92943 132.382 5.38398 131.882 5.92091L129.921 8.0175V8.08568H133.978V9.02318H128.472Z" fill="#14161A"/>
<path d="M138.585 9.1425C137.943 9.1425 137.396 8.96778 136.944 8.61835C136.492 8.26608 136.147 7.75614 135.909 7.08852C135.67 6.41807 135.551 5.60841 135.551 4.65955C135.551 3.71636 135.67 2.91097 135.909 2.24335C136.15 1.5729 136.497 1.06153 136.948 0.709261C137.403 0.354148 137.948 0.176591 138.585 0.176591C139.221 0.176591 139.765 0.354148 140.217 0.709261C140.671 1.06153 141.018 1.5729 141.257 2.24335C141.498 2.91097 141.619 3.71636 141.619 4.65955C141.619 5.60841 141.499 6.41807 141.261 7.08852C141.022 7.75614 140.677 8.26608 140.225 8.61835C139.774 8.96778 139.227 9.1425 138.585 9.1425ZM138.585 8.205C139.221 8.205 139.715 7.89818 140.068 7.28455C140.42 6.67091 140.596 5.79591 140.596 4.65955C140.596 3.90386 140.515 3.2604 140.353 2.72915C140.194 2.1979 139.964 1.79307 139.663 1.51466C139.364 1.23625 139.005 1.09705 138.585 1.09705C137.954 1.09705 137.461 1.40813 137.106 2.03028C136.751 2.6496 136.573 3.52602 136.573 4.65955C136.573 5.41523 136.653 6.05727 136.812 6.58568C136.971 7.11409 137.2 7.51608 137.498 7.79165C137.799 8.06722 138.161 8.205 138.585 8.205Z" fill="#14161A"/>
<path d="M143.238 9.02318V8.25614L146.119 5.10273C146.457 4.73341 146.735 4.41239 146.954 4.13966C147.173 3.86409 147.335 3.60557 147.44 3.36409C147.548 3.11977 147.602 2.86409 147.602 2.59705C147.602 2.29023 147.528 2.0246 147.38 1.80017C147.235 1.57574 147.036 1.40244 146.784 1.28028C146.531 1.15813 146.247 1.09705 145.931 1.09705C145.596 1.09705 145.303 1.16665 145.053 1.30585C144.806 1.44222 144.614 1.63398 144.478 1.88114C144.345 2.1283 144.278 2.41807 144.278 2.75045H143.272C143.272 2.23909 143.39 1.79023 143.626 1.40386C143.862 1.0175 144.183 0.716364 144.589 0.500455C144.998 0.284546 145.457 0.176591 145.965 0.176591C146.477 0.176591 146.93 0.284546 147.325 0.500455C147.72 0.716364 148.029 1.00756 148.254 1.37403C148.478 1.74051 148.59 2.14818 148.59 2.59705C148.59 2.91807 148.532 3.23199 148.416 3.53881C148.302 3.84278 148.103 4.18227 147.819 4.55727C147.538 4.92943 147.147 5.38398 146.647 5.92091L144.687 8.0175V8.08568H148.744V9.02318H143.238Z" fill="#14161A"/>
<path d="M150.504 9.02318V8.25614L153.384 5.10273C153.722 4.73341 154.001 4.41239 154.22 4.13966C154.438 3.86409 154.6 3.60557 154.705 3.36409C154.813 3.11977 154.867 2.86409 154.867 2.59705C154.867 2.29023 154.793 2.0246 154.646 1.80017C154.501 1.57574 154.302 1.40244 154.049 1.28028C153.796 1.15813 153.512 1.09705 153.197 1.09705C152.862 1.09705 152.569 1.16665 152.319 1.30585C152.072 1.44222 151.88 1.63398 151.744 1.88114C151.61 2.1283 151.543 2.41807 151.543 2.75045H150.538C150.538 2.23909 150.656 1.79023 150.891 1.40386C151.127 1.0175 151.448 0.716364 151.855 0.500455C152.264 0.284546 152.722 0.176591 153.231 0.176591C153.742 0.176591 154.195 0.284546 154.59 0.500455C154.985 0.716364 155.295 1.00756 155.519 1.37403C155.744 1.74051 155.856 2.14818 155.856 2.59705C155.856 2.91807 155.798 3.23199 155.681 3.53881C155.568 3.84278 155.369 4.18227 155.085 4.55727C154.803 4.92943 154.413 5.38398 153.913 5.92091L151.953 8.0175V8.08568H156.009V9.02318H150.504Z" fill="#14161A"/>
</g>
</svg>
