<svg width="124" height="35" viewBox="0 0 124 35" fill="none" xmlns="http://www.w3.org/2000/svg">
<rect width="123.137" height="35" rx="3.6648" fill="white"/>
<path d="M7.32959 17.5C7.32959 11.6303 12.0879 6.87207 17.9575 6.87207C23.8271 6.87207 28.5854 11.6303 28.5854 17.5C28.5854 23.3696 23.8271 28.1279 17.9575 28.1279C12.0879 28.1279 7.32959 23.3696 7.32959 17.5Z" fill="#62718A"/>
<path d="M20.2214 24.1324L18.7167 22.6277C18.2894 22.2004 17.5984 22.2004 17.1756 22.6277L15.671 24.1324C15.23 24.5733 14.5118 24.5733 14.0708 24.1324L13.3435 23.405L15.6482 21.1003C16.9165 19.832 18.9712 19.832 20.2395 21.1003L22.5443 23.405L21.817 24.1324C21.3806 24.5733 20.6669 24.5733 20.2214 24.1324Z" fill="white"/>
<path d="M12.0524 22.1095L11.3251 21.3822C10.8841 20.9413 10.8841 20.223 11.3251 19.7821L12.8298 18.2774C13.2571 17.8501 13.2571 17.1591 12.8298 16.7363L11.3251 15.2317C10.8841 14.7907 10.8841 14.0725 11.3251 13.6315L12.0524 12.9042L14.3572 15.2089C15.6255 16.4772 15.6255 18.5319 14.3572 19.8002L12.0524 22.1095Z" fill="white"/>
<path d="M17.9666 14.8497C17.1347 14.8497 16.3028 14.5361 15.671 13.8997L13.3662 11.5949L14.0935 10.8676C14.5345 10.4266 15.2527 10.4266 15.6937 10.8676L17.1984 12.3723C17.6211 12.795 18.3167 12.795 18.7394 12.3723L20.2441 10.8676C20.685 10.4266 21.4033 10.4266 21.8442 10.8676L22.5716 11.5949L20.2668 13.8997C19.6304 14.527 18.7985 14.8497 17.9666 14.8497Z" fill="white"/>
<path d="M23.8626 22.0913L21.5578 19.7866C20.2895 18.5183 20.2895 16.4635 21.5578 15.1953L23.8626 12.8905L24.5899 13.6178C25.0309 14.0588 25.0309 14.777 24.5899 15.218L23.0852 16.7227C22.6579 17.15 22.6579 17.8409 23.0852 18.2637L24.5899 19.7684C25.0309 20.2093 25.0309 20.9276 24.5899 21.3685L23.8626 22.0913Z" fill="white"/>
<path d="M33.3968 14.0013V8.56838H35.3334C35.7561 8.56838 36.1063 8.64531 36.3839 8.79917C36.6616 8.95303 36.8694 9.16349 37.0073 9.43054C37.1453 9.69582 37.2142 9.99471 37.2142 10.3272C37.2142 10.6614 37.1444 10.9621 37.0047 11.2291C36.8667 11.4944 36.658 11.7049 36.3786 11.8605C36.1009 12.0144 35.7517 12.0913 35.3307 12.0913H33.999V11.3963H35.2565C35.5235 11.3963 35.7402 11.3503 35.9064 11.2583C36.0726 11.1646 36.1947 11.0373 36.2725 10.8763C36.3503 10.7154 36.3892 10.5323 36.3892 10.3272C36.3892 10.122 36.3503 9.93988 36.2725 9.78071C36.1947 9.62154 36.0718 9.49686 35.9038 9.40667C35.7375 9.31647 35.5182 9.27137 35.2459 9.27137H34.2166V14.0013H33.3968ZM39.9601 14.0836C39.5781 14.0836 39.2447 13.996 38.96 13.821C38.6753 13.6459 38.4542 13.4009 38.2968 13.0861C38.1394 12.7713 38.0607 12.4035 38.0607 11.9825C38.0607 11.5599 38.1394 11.1902 38.2968 10.8737C38.4542 10.5571 38.6753 10.3113 38.96 10.1362C39.2447 9.9611 39.5781 9.87356 39.9601 9.87356C40.3421 9.87356 40.6755 9.9611 40.9602 10.1362C41.245 10.3113 41.466 10.5571 41.6234 10.8737C41.7808 11.1902 41.8595 11.5599 41.8595 11.9825C41.8595 12.4035 41.7808 12.7713 41.6234 13.0861C41.466 13.4009 41.245 13.6459 40.9602 13.821C40.6755 13.996 40.3421 14.0836 39.9601 14.0836ZM39.9628 13.4177C40.2104 13.4177 40.4155 13.3523 40.5782 13.2214C40.7409 13.0905 40.8612 12.9163 40.939 12.6988C41.0186 12.4813 41.0584 12.2416 41.0584 11.9799C41.0584 11.7199 41.0186 11.4812 40.939 11.2636C40.8612 11.0443 40.7409 10.8684 40.5782 10.7357C40.4155 10.6031 40.2104 10.5368 39.9628 10.5368C39.7134 10.5368 39.5065 10.6031 39.342 10.7357C39.1793 10.8684 39.0581 11.0443 38.9786 11.2636C38.9007 11.4812 38.8618 11.7199 38.8618 11.9799C38.8618 12.2416 38.9007 12.4813 38.9786 12.6988C39.0581 12.9163 39.1793 13.0905 39.342 13.2214C39.5065 13.3523 39.7134 13.4177 39.9628 13.4177ZM43.6875 14.0013L42.4884 9.92662H43.3082L44.1067 12.919H44.1464L44.9476 9.92662H45.7673L46.5632 12.9057H46.603L47.3961 9.92662H48.2159L47.0194 14.0013H46.2103L45.3827 11.0594H45.3216L44.494 14.0013H43.6875ZM50.784 14.0836C50.3825 14.0836 50.0368 13.9978 49.7467 13.8263C49.4585 13.6529 49.2356 13.4098 49.0782 13.0967C48.9226 12.7819 48.8448 12.4132 48.8448 11.9905C48.8448 11.5731 48.9226 11.2053 49.0782 10.8869C49.2356 10.5686 49.4549 10.3201 49.7361 10.1415C50.0191 9.96287 50.3498 9.87356 50.7283 9.87356C50.9582 9.87356 51.181 9.91158 51.3968 9.98763C51.6125 10.0637 51.8062 10.1831 51.9778 10.3458C52.1493 10.5085 52.2846 10.7198 52.3836 10.9798C52.4827 11.238 52.5322 11.5519 52.5322 11.9215V12.2027H49.2931V11.6085H51.7549C51.7549 11.3998 51.7125 11.215 51.6276 11.0541C51.5427 10.8914 51.4233 10.7631 51.2694 10.6694C51.1174 10.5757 50.9387 10.5288 50.7336 10.5288C50.5107 10.5288 50.3162 10.5836 50.15 10.6933C49.9855 10.8012 49.8582 10.9426 49.768 11.1177C49.6795 11.291 49.6353 11.4794 49.6353 11.6828V12.147C49.6353 12.4194 49.6831 12.6511 49.7786 12.8421C49.8758 13.0331 50.0111 13.179 50.1844 13.2798C50.3578 13.3788 50.5603 13.4283 50.7919 13.4283C50.9423 13.4283 51.0793 13.4071 51.2031 13.3647C51.3269 13.3205 51.4339 13.255 51.5241 13.1684C51.6143 13.0817 51.6833 12.9747 51.731 12.8474L52.4818 12.9827C52.4217 13.2037 52.3138 13.3974 52.1581 13.5636C52.0043 13.7281 51.8106 13.8563 51.5772 13.9483C51.3455 14.0385 51.0811 14.0836 50.784 14.0836ZM53.5955 14.0013V9.92662H54.3622V10.5739H54.4046C54.4789 10.3546 54.6098 10.1822 54.7972 10.0566C54.9865 9.92927 55.2005 9.8656 55.4392 9.8656C55.4887 9.8656 55.5471 9.86737 55.6143 9.87091C55.6833 9.87444 55.7372 9.87887 55.7761 9.88417V10.6429C55.7443 10.634 55.6877 10.6243 55.6063 10.6137C55.525 10.6013 55.4436 10.5951 55.3623 10.5951C55.1748 10.5951 55.0077 10.6349 54.8609 10.7145C54.7159 10.7923 54.6009 10.9011 54.516 11.0408C54.4311 11.1787 54.3887 11.3361 54.3887 11.513V14.0013H53.5955ZM58.256 14.0836C57.8546 14.0836 57.5088 13.9978 57.2188 13.8263C56.9305 13.6529 56.7077 13.4098 56.5503 13.0967C56.3946 12.7819 56.3168 12.4132 56.3168 11.9905C56.3168 11.5731 56.3946 11.2053 56.5503 10.8869C56.7077 10.5686 56.927 10.3201 57.2082 10.1415C57.4911 9.96287 57.8219 9.87356 58.2003 9.87356C58.4302 9.87356 58.6531 9.91158 58.8688 9.98763C59.0846 10.0637 59.2783 10.1831 59.4498 10.3458C59.6213 10.5085 59.7566 10.7198 59.8557 10.9798C59.9547 11.238 60.0042 11.5519 60.0042 11.9215V12.2027H56.7651V11.6085H59.227C59.227 11.3998 59.1845 11.215 59.0996 11.0541C59.0147 10.8914 58.8954 10.7631 58.7415 10.6694C58.5894 10.5757 58.4108 10.5288 58.2056 10.5288C57.9828 10.5288 57.7883 10.5836 57.622 10.6933C57.4575 10.8012 57.3302 10.9426 57.24 11.1177C57.1516 11.291 57.1074 11.4794 57.1074 11.6828V12.147C57.1074 12.4194 57.1551 12.6511 57.2506 12.8421C57.3479 13.0331 57.4832 13.179 57.6565 13.2798C57.8298 13.3788 58.0323 13.4283 58.264 13.4283C58.4143 13.4283 58.5514 13.4071 58.6752 13.3647C58.799 13.3205 58.906 13.255 58.9962 13.1684C59.0864 13.0817 59.1553 12.9747 59.2031 12.8474L59.9538 12.9827C59.8937 13.2037 59.7858 13.3974 59.6302 13.5636C59.4763 13.7281 59.2827 13.8563 59.0492 13.9483C58.8175 14.0385 58.5531 14.0836 58.256 14.0836ZM62.5929 14.0809C62.264 14.0809 61.9704 13.9969 61.7122 13.8289C61.4557 13.6591 61.2541 13.4177 61.1073 13.1047C60.9623 12.7899 60.8898 12.4123 60.8898 11.9719C60.8898 11.5316 60.9632 11.1549 61.11 10.8418C61.2586 10.5288 61.4619 10.2892 61.7201 10.1229C61.9784 9.95668 62.271 9.87356 62.5982 9.87356C62.8511 9.87356 63.0545 9.91601 63.2084 10.0009C63.364 10.084 63.4843 10.1813 63.5692 10.2927C63.6558 10.4041 63.723 10.5023 63.7708 10.5872H63.8185V8.56838H64.6117V14.0013H63.8371V13.3673H63.7708C63.723 13.454 63.654 13.553 63.5639 13.6644C63.4754 13.7759 63.3534 13.8731 63.1978 13.9562C63.0421 14.0394 62.8405 14.0809 62.5929 14.0809ZM62.768 13.4045C62.9961 13.4045 63.1889 13.3443 63.3463 13.2241C63.5055 13.102 63.6257 12.9331 63.7071 12.7174C63.7902 12.5016 63.8318 12.2505 63.8318 11.964C63.8318 11.681 63.7911 11.4334 63.7098 11.2212C63.6284 11.009 63.509 10.8436 63.3516 10.7251C63.1942 10.6066 62.9997 10.5474 62.768 10.5474C62.5293 10.5474 62.3303 10.6093 62.1711 10.7331C62.012 10.8569 61.8917 11.0258 61.8103 11.2398C61.7308 11.4538 61.691 11.6952 61.691 11.964C61.691 12.2363 61.7316 12.4813 61.813 12.6988C61.8943 12.9163 62.0146 13.0888 62.1738 13.2161C62.3347 13.3417 62.5328 13.4045 62.768 13.4045ZM68.151 14.0013V8.56838H68.9442V10.5872H68.9919C69.0379 10.5023 69.1042 10.4041 69.1909 10.2927C69.2775 10.1813 69.3978 10.084 69.5516 10.0009C69.7055 9.91601 69.9089 9.87356 70.1618 9.87356C70.4907 9.87356 70.7843 9.95668 71.0425 10.1229C71.3007 10.2892 71.5032 10.5288 71.65 10.8418C71.7986 11.1549 71.8729 11.5316 71.8729 11.9719C71.8729 12.4123 71.7995 12.7899 71.6527 13.1047C71.5059 13.4177 71.3043 13.6591 71.0478 13.8289C70.7914 13.9969 70.4987 14.0809 70.1698 14.0809C69.9222 14.0809 69.7197 14.0394 69.5623 13.9562C69.4066 13.8731 69.2846 13.7759 69.1962 13.6644C69.1077 13.553 69.0397 13.454 68.9919 13.3673H68.9256V14.0013H68.151ZM68.9282 11.964C68.9282 12.2505 68.9698 12.5016 69.0529 12.7174C69.136 12.9331 69.2563 13.102 69.4137 13.2241C69.5711 13.3443 69.7639 13.4045 69.992 13.4045C70.229 13.4045 70.4271 13.3417 70.5862 13.2161C70.7454 13.0888 70.8657 12.9163 70.947 12.6988C71.0302 12.4813 71.0717 12.2363 71.0717 11.964C71.0717 11.6952 71.031 11.4538 70.9497 11.2398C70.8701 11.0258 70.7498 10.8569 70.5889 10.7331C70.4297 10.6093 70.2308 10.5474 69.992 10.5474C69.7621 10.5474 69.5676 10.6066 69.4084 10.7251C69.251 10.8436 69.1316 11.009 69.0503 11.2212C68.9689 11.4334 68.9282 11.681 68.9282 11.964ZM73.3096 15.5294C73.1911 15.5294 73.0832 15.5196 72.9859 15.5002C72.8886 15.4825 72.8161 15.463 72.7684 15.4418L72.9594 14.7919C73.1044 14.8308 73.2335 14.8476 73.3467 14.8423C73.4599 14.837 73.5598 14.7945 73.6465 14.715C73.7349 14.6354 73.8127 14.5054 73.8799 14.325L73.9781 14.0544L72.4872 9.92662H73.3361L74.368 13.0888H74.4105L75.4424 9.92662H76.294L74.6147 14.5452C74.5369 14.7574 74.4379 14.9369 74.3176 15.0837C74.1974 15.2322 74.0541 15.3437 73.8879 15.4179C73.7216 15.4922 73.5289 15.5294 73.3096 15.5294Z" fill="#62718A"/>
<path d="M34.2816 19.123C34.4263 19.123 34.4637 19.1604 34.5057 19.2163L36.3876 21.7262H36.4529L38.2694 19.2303C38.3208 19.165 38.4002 19.1277 38.5029 19.1277H39.6423C39.759 19.1277 39.8011 19.2303 39.745 19.2957L37.1954 22.496L40.0345 26.0602C40.0999 26.1535 40.0626 26.2421 39.9411 26.2421H38.7924C38.6897 26.2421 38.5963 26.2048 38.5309 26.1115L36.4109 23.2657H36.3455L34.3236 26.1021C34.2442 26.1954 34.1555 26.2468 34.0481 26.2468H32.9087C32.8153 26.2468 32.764 26.1675 32.8293 26.0788L35.6264 22.524L33.1048 19.3236C33.0535 19.2303 33.0768 19.1277 33.1982 19.1277H34.2816V19.123Z" fill="#62718A"/>
<path d="M45.5538 19.123C47.1088 19.123 48.2342 20.2474 48.2342 21.6702C48.2342 23.1351 47.1088 24.2314 45.5538 24.2314H43.2937V26.0602C43.2937 26.1768 43.2424 26.2421 43.1349 26.2421H42.2851C42.1683 26.2421 42.103 26.1768 42.103 26.0602V19.3097C42.103 19.193 42.1683 19.1277 42.2851 19.1277H45.5538V19.123ZM45.5538 23.1211C46.5064 23.1211 47.0434 22.5053 47.0434 21.6702C47.0434 20.8492 46.5064 20.2334 45.5538 20.2334H43.2937V23.1211H45.5538Z" fill="#62718A"/>
<path d="M50.7327 24.6094C51.2043 24.6094 51.6105 25.0012 51.6105 25.4724C51.6105 25.9436 51.2043 26.3495 50.7327 26.3495C50.261 26.3495 49.8688 25.9436 49.8688 25.4724C49.8688 25.0012 50.261 24.6094 50.7327 24.6094Z" fill="#62718A"/>
<path d="M59.4931 26.2421C59.3997 26.2421 59.325 26.2047 59.269 26.1254L56.9295 23.1724L55.1924 20.7838L55.127 20.7978L55.2064 22.9158V26.0648C55.2064 26.1814 55.141 26.2467 55.0103 26.2467H54.1884C54.0857 26.2467 54.0297 26.1814 54.0297 26.0648V19.3096C54.0297 19.193 54.081 19.1277 54.1978 19.1277H54.9683C55.099 19.1277 55.2017 19.165 55.2671 19.2583L57.7794 22.3933L59.3484 24.5626L59.4137 24.5486L59.3203 22.4446V19.3096C59.3203 19.193 59.3857 19.1277 59.5024 19.1277H60.3243C60.441 19.1277 60.4924 19.193 60.4924 19.3096V26.0648C60.4924 26.1814 60.441 26.2467 60.3243 26.2467H59.4931V26.2421Z" fill="#62718A"/>
<path d="M68.4351 19.123C68.5285 19.123 68.6172 19.2024 68.6172 19.305V20.0514C68.6172 20.1447 68.5238 20.2194 68.4351 20.2194H64.3025V21.9828H68.0662C68.183 21.9828 68.2483 22.0481 68.2483 22.1647V22.9112C68.2483 23.0278 68.183 23.0791 68.0662 23.0791H64.3025V25.1318H68.5659C68.6826 25.1318 68.734 25.1831 68.734 25.2904V26.0602C68.734 26.1768 68.6826 26.2421 68.5659 26.2421H63.2845C63.1678 26.2421 63.1164 26.1768 63.1164 26.0602V19.3097C63.1164 19.193 63.1678 19.1277 63.2845 19.1277H68.4351V19.123Z" fill="#62718A"/>
<path d="M76.9057 19.123C77.0225 19.123 77.0879 19.1884 77.0879 19.305V20.0514C77.0879 20.168 77.0225 20.2334 76.9057 20.2334H74.4869V26.0602C74.4869 26.1535 74.4215 26.2421 74.3048 26.2421H73.4829C73.3662 26.2421 73.3008 26.1768 73.3008 26.0602V20.2334H70.8819C70.7652 20.2334 70.6998 20.168 70.6998 20.0514V19.305C70.6998 19.1884 70.7652 19.123 70.8819 19.123H76.9057Z" fill="#62718A"/>
<path d="M79.9548 19.123C80.0715 19.123 80.1369 19.1604 80.1649 19.2537L81.8133 24.8565H81.8787L83.4617 19.2537C83.4897 19.1604 83.555 19.123 83.6438 19.123H84.5217C84.6151 19.123 84.6804 19.1604 84.7038 19.2537L86.3241 24.8565H86.3895L88.0239 19.2677C88.0519 19.1744 88.1173 19.123 88.206 19.123H89.1726C89.2893 19.123 89.3314 19.1744 89.2893 19.291L87.0666 26.0835C87.0292 26.1861 86.9499 26.2421 86.8425 26.2421H85.7591C85.6564 26.2421 85.591 26.1908 85.549 26.0742L84.1107 21.0731H84.0454L82.6211 26.0881C82.5931 26.1908 82.5277 26.2468 82.439 26.2468H81.3417C81.2249 26.2468 81.1455 26.1954 81.1082 26.0881L78.8714 19.2677C78.8341 19.1744 78.8714 19.123 78.9882 19.123H79.9548Z" fill="#62718A"/>
<path d="M94.7437 19.0204C96.8077 19.0204 98.4187 20.5599 98.4187 22.6919C98.4187 24.8099 96.8123 26.3494 94.7437 26.3494C92.6797 26.3494 91.0687 24.8099 91.0687 22.6919C91.0687 20.5599 92.675 19.0204 94.7437 19.0204ZM92.2688 22.6919C92.2688 24.1567 93.2774 25.2391 94.739 25.2391C96.2053 25.2391 97.2092 24.1567 97.2092 22.6919C97.2092 21.2177 96.2006 20.1307 94.739 20.1307C93.2774 20.1307 92.2688 21.213 92.2688 22.6919Z" fill="#62718A"/>
<path d="M104.223 19.123C105.778 19.123 106.917 20.2474 106.917 21.6702C106.917 22.6639 106.38 23.499 105.558 23.9188L106.749 26.0368C106.814 26.1535 106.749 26.2468 106.604 26.2468H105.652C105.535 26.2468 105.441 26.1535 105.39 26.0648L104.438 24.2221C104.4 24.2361 104.335 24.2361 104.255 24.2361H101.967V26.0648C101.967 26.1814 101.916 26.2468 101.799 26.2468H100.977C100.833 26.2468 100.781 26.1535 100.781 26.0648V19.3097C100.781 19.193 100.847 19.1277 100.963 19.1277H104.223V19.123ZM104.223 23.1211C105.175 23.1211 105.726 22.5053 105.726 21.6702C105.726 20.8492 105.175 20.2334 104.223 20.2334H101.963V23.1211H104.223Z" fill="#62718A"/>
<path d="M110.406 19.123C110.522 19.123 110.588 19.1884 110.588 19.305V22.44L113.959 19.2677C114.053 19.1744 114.183 19.123 114.337 19.123H115.514C115.631 19.123 115.682 19.2397 115.593 19.333L112.456 22.1927L115.762 26.0182C115.855 26.1115 115.799 26.2421 115.659 26.2421H114.613C114.454 26.2421 114.323 26.1908 114.221 26.0742L111.592 22.9671L110.583 23.7789V26.0648C110.583 26.1814 110.518 26.2468 110.401 26.2468H109.579C109.462 26.2468 109.397 26.1814 109.397 26.0648V19.3097C109.397 19.193 109.462 19.1277 109.579 19.1277H110.406V19.123Z" fill="#62718A"/>
</svg>
