<svg width="124" height="35" viewBox="0 0 124 35" fill="none" xmlns="http://www.w3.org/2000/svg">
<path d="M7.32959 17.5C7.32959 11.6303 12.0879 6.87207 17.9575 6.87207V6.87207C23.8271 6.87207 28.5854 11.6303 28.5854 17.5V17.5C28.5854 23.3696 23.8271 28.1279 17.9575 28.1279V28.1279C12.0879 28.1279 7.32959 23.3696 7.32959 17.5V17.5Z" fill="#62718A"/>
<path d="M20.2214 24.1324L18.7167 22.6277C18.2894 22.2004 17.5984 22.2004 17.1756 22.6277L15.671 24.1324C15.23 24.5733 14.5118 24.5733 14.0708 24.1324L13.3435 23.405L15.6482 21.1003C16.9165 19.832 18.9712 19.832 20.2395 21.1003L22.5443 23.405L21.817 24.1324C21.3806 24.5733 20.6669 24.5733 20.2214 24.1324Z" fill="white"/>
<path d="M12.0524 22.1095L11.3251 21.3822C10.8841 20.9413 10.8841 20.223 11.3251 19.7821L12.8298 18.2774C13.2571 17.8501 13.2571 17.1591 12.8298 16.7363L11.3251 15.2317C10.8841 14.7907 10.8841 14.0725 11.3251 13.6315L12.0524 12.9042L14.3572 15.2089C15.6255 16.4772 15.6255 18.5319 14.3572 19.8002L12.0524 22.1095Z" fill="white"/>
<path d="M17.9666 14.8497C17.1347 14.8497 16.3028 14.5361 15.671 13.8997L13.3662 11.5949L14.0935 10.8676C14.5345 10.4266 15.2527 10.4266 15.6937 10.8676L17.1984 12.3723C17.6211 12.795 18.3167 12.795 18.7394 12.3723L20.2441 10.8676C20.685 10.4266 21.4033 10.4266 21.8442 10.8676L22.5716 11.5949L20.2668 13.8997C19.6304 14.527 18.7985 14.8497 17.9666 14.8497Z" fill="white"/>
<path d="M23.8626 22.0913L21.5578 19.7866C20.2895 18.5183 20.2895 16.4635 21.5578 15.1953L23.8626 12.8905L24.5899 13.6178C25.0309 14.0588 25.0309 14.777 24.5899 15.218L23.0852 16.7227C22.6579 17.15 22.6579 17.8409 23.0852 18.2637L24.5899 19.7684C25.0309 20.2093 25.0309 20.9276 24.5899 21.3685L23.8626 22.0913Z" fill="white"/>
<path d="M32.8 13.7234V8.29041H34.7365C35.1592 8.29041 35.5094 8.36734 35.787 8.5212C36.0647 8.67506 36.2725 8.88552 36.4104 9.15257C36.5484 9.41785 36.6174 9.71674 36.6174 10.0492C36.6174 10.3835 36.5475 10.6841 36.4078 10.9512C36.2698 11.2165 36.0612 11.4269 35.7817 11.5826C35.5041 11.7364 35.1548 11.8133 34.7339 11.8133H33.4021V11.1183H34.6596C34.9266 11.1183 35.1433 11.0723 35.3095 10.9804C35.4758 10.8866 35.5978 10.7593 35.6756 10.5984C35.7534 10.4374 35.7923 10.2544 35.7923 10.0492C35.7923 9.84407 35.7534 9.66191 35.6756 9.50274C35.5978 9.34357 35.4749 9.21889 35.3069 9.1287C35.1406 9.0385 34.9213 8.9934 34.649 8.9934H33.6197V13.7234H32.8Z" fill="#62718A"/>
<path d="M39.3632 13.8056C38.9812 13.8056 38.6478 13.7181 38.3631 13.543C38.0784 13.3679 37.8573 13.123 37.6999 12.8082C37.5425 12.4934 37.4638 12.1255 37.4638 11.7046C37.4638 11.2819 37.5425 10.9123 37.6999 10.5957C37.8573 10.2791 38.0784 10.0333 38.3631 9.85822C38.6478 9.68313 38.9812 9.59559 39.3632 9.59559C39.7452 9.59559 40.0786 9.68313 40.3633 9.85822C40.6481 10.0333 40.8691 10.2791 41.0265 10.5957C41.1839 10.9123 41.2626 11.2819 41.2626 11.7046C41.2626 12.1255 41.1839 12.4934 41.0265 12.8082C40.8691 13.123 40.6481 13.3679 40.3633 13.543C40.0786 13.7181 39.7452 13.8056 39.3632 13.8056ZM39.3659 13.1398C39.6135 13.1398 39.8186 13.0743 39.9813 12.9434C40.144 12.8126 40.2643 12.6384 40.3421 12.4208C40.4217 12.2033 40.4615 11.9637 40.4615 11.7019C40.4615 11.442 40.4217 11.2032 40.3421 10.9857C40.2643 10.7664 40.144 10.5904 39.9813 10.4578C39.8186 10.3251 39.6135 10.2588 39.3659 10.2588C39.1165 10.2588 38.9096 10.3251 38.7451 10.4578C38.5824 10.5904 38.4613 10.7664 38.3817 10.9857C38.3039 11.2032 38.265 11.442 38.265 11.7019C38.265 11.9637 38.3039 12.2033 38.3817 12.4208C38.4613 12.6384 38.5824 12.8126 38.7451 12.9434C38.9096 13.0743 39.1165 13.1398 39.3659 13.1398Z" fill="#62718A"/>
<path d="M43.0906 13.7234L41.8916 9.64865H42.7113L43.5098 12.641H43.5496L44.3507 9.64865H45.1704L45.9663 12.6278H46.0061L46.7993 9.64865H47.619L46.4226 13.7234H45.6135L44.7858 10.7814H44.7248L43.8971 13.7234H43.0906Z" fill="#62718A"/>
<path d="M50.1871 13.8056C49.7856 13.8056 49.4399 13.7198 49.1498 13.5483C48.8616 13.375 48.6387 13.1318 48.4813 12.8188C48.3257 12.504 48.2479 12.1352 48.2479 11.7125C48.2479 11.2952 48.3257 10.9273 48.4813 10.609C48.6387 10.2906 48.858 10.0421 49.1392 9.86353C49.4222 9.6849 49.7529 9.59559 50.1314 9.59559C50.3613 9.59559 50.5841 9.63361 50.7999 9.70966C51.0157 9.78571 51.2093 9.90509 51.3809 10.0678C51.5524 10.2305 51.6877 10.4418 51.7867 10.7018C51.8858 10.96 51.9353 11.2739 51.9353 11.6436V11.9248H48.6962V11.3305H51.158C51.158 11.1218 51.1156 10.937 51.0307 10.7761C50.9458 10.6134 50.8264 10.4852 50.6726 10.3914C50.5205 10.2977 50.3418 10.2508 50.1367 10.2508C49.9139 10.2508 49.7193 10.3057 49.5531 10.4153C49.3886 10.5232 49.2613 10.6647 49.1711 10.8398C49.0826 11.0131 49.0384 11.2014 49.0384 11.4048V11.8691C49.0384 12.1414 49.0862 12.3731 49.1817 12.5641C49.279 12.7551 49.4142 12.901 49.5876 13.0018C49.7609 13.1008 49.9634 13.1504 50.1951 13.1504C50.3454 13.1504 50.4824 13.1291 50.6062 13.0867C50.73 13.0425 50.837 12.977 50.9272 12.8904C51.0174 12.8037 51.0864 12.6967 51.1342 12.5694L51.8849 12.7047C51.8248 12.9258 51.7169 13.1194 51.5613 13.2857C51.4074 13.4501 51.2137 13.5784 50.9803 13.6703C50.7486 13.7605 50.4842 13.8056 50.1871 13.8056Z" fill="#62718A"/>
<path d="M52.9986 13.7234V9.64865H53.7653V10.2959H53.8077C53.882 10.0766 54.0129 9.9042 54.2003 9.77864C54.3896 9.6513 54.6036 9.58763 54.8423 9.58763C54.8918 9.58763 54.9502 9.5894 55.0174 9.59294C55.0864 9.59648 55.1403 9.6009 55.1792 9.6062V10.3649C55.1474 10.3561 55.0908 10.3463 55.0095 10.3357C54.9281 10.3233 54.8467 10.3172 54.7654 10.3172C54.5779 10.3172 54.4108 10.3569 54.264 10.4365C54.119 10.5143 54.004 10.6231 53.9191 10.7628C53.8343 10.9008 53.7918 11.0582 53.7918 11.235V13.7234H52.9986Z" fill="#62718A"/>
<path d="M57.6591 13.8056C57.2577 13.8056 56.9119 13.7198 56.6219 13.5483C56.3336 13.375 56.1108 13.1318 55.9534 12.8188C55.7978 12.504 55.7199 12.1352 55.7199 11.7125C55.7199 11.2952 55.7978 10.9273 55.9534 10.609C56.1108 10.2906 56.3301 10.0421 56.6113 9.86353C56.8943 9.6849 57.225 9.59559 57.6034 9.59559C57.8334 9.59559 58.0562 9.63361 58.2719 9.70966C58.4877 9.78571 58.6814 9.90509 58.8529 10.0678C59.0245 10.2305 59.1598 10.4418 59.2588 10.7018C59.3578 10.96 59.4074 11.2739 59.4074 11.6436V11.9248H56.1683V11.3305H58.6301C58.6301 11.1218 58.5876 10.937 58.5027 10.7761C58.4179 10.6134 58.2985 10.4852 58.1446 10.3914C57.9925 10.2977 57.8139 10.2508 57.6087 10.2508C57.3859 10.2508 57.1914 10.3057 57.0251 10.4153C56.8607 10.5232 56.7333 10.6647 56.6431 10.8398C56.5547 11.0131 56.5105 11.2014 56.5105 11.4048V11.8691C56.5105 12.1414 56.5582 12.3731 56.6537 12.5641C56.751 12.7551 56.8863 12.901 57.0596 13.0018C57.2329 13.1008 57.4354 13.1504 57.6671 13.1504C57.8174 13.1504 57.9545 13.1291 58.0783 13.0867C58.2021 13.0425 58.3091 12.977 58.3993 12.8904C58.4895 12.8037 58.5585 12.6967 58.6062 12.5694L59.357 12.7047C59.2968 12.9258 59.1889 13.1194 59.0333 13.2857C58.8794 13.4501 58.6858 13.5784 58.4523 13.6703C58.2207 13.7605 57.9563 13.8056 57.6591 13.8056Z" fill="#62718A"/>
<path d="M61.996 13.803C61.6671 13.803 61.3735 13.719 61.1153 13.5509C60.8589 13.3812 60.6572 13.1398 60.5105 12.8267C60.3654 12.5119 60.2929 12.1343 60.2929 11.694C60.2929 11.2536 60.3663 10.8769 60.5131 10.5639C60.6617 10.2508 60.8651 10.0112 61.1233 9.84496C61.3815 9.67871 61.6742 9.59559 62.0013 9.59559C62.2542 9.59559 62.4576 9.63804 62.6115 9.72293C62.7671 9.80605 62.8874 9.90332 62.9723 10.0147C63.0589 10.1262 63.1261 10.2243 63.1739 10.3092H63.2216V8.29041H64.0148V13.7234H63.2402V13.0893H63.1739C63.1261 13.176 63.0572 13.275 62.967 13.3865C62.8785 13.4979 62.7565 13.5952 62.6009 13.6783C62.4452 13.7614 62.2436 13.803 61.996 13.803ZM62.1711 13.1265C62.3993 13.1265 62.592 13.0664 62.7494 12.9461C62.9086 12.8241 63.0289 12.6552 63.1102 12.4394C63.1933 12.2236 63.2349 11.9725 63.2349 11.686C63.2349 11.403 63.1942 11.1554 63.1129 10.9432C63.0315 10.731 62.9121 10.5656 62.7547 10.4471C62.5973 10.3287 62.4028 10.2694 62.1711 10.2694C61.9324 10.2694 61.7334 10.3313 61.5742 10.4551C61.4151 10.5789 61.2948 10.7478 61.2135 10.9618C61.1339 11.1758 61.0941 11.4172 61.0941 11.686C61.0941 11.9584 61.1348 12.2033 61.2161 12.4208C61.2975 12.6384 61.4177 12.8108 61.5769 12.9381C61.7378 13.0637 61.9359 13.1265 62.1711 13.1265Z" fill="#62718A"/>
<path d="M67.5541 13.7234V8.29041H68.3473V10.3092H68.395C68.441 10.2243 68.5073 10.1262 68.594 10.0147C68.6806 9.90332 68.8009 9.80605 68.9548 9.72293C69.1086 9.63804 69.312 9.59559 69.5649 9.59559C69.8939 9.59559 70.1874 9.67871 70.4456 9.84496C70.7039 10.0112 70.9064 10.2508 71.0531 10.5639C71.2017 10.8769 71.276 11.2536 71.276 11.694C71.276 12.1343 71.2026 12.5119 71.0558 12.8267C70.909 13.1398 70.7074 13.3812 70.451 13.5509C70.1945 13.719 69.9018 13.803 69.5729 13.803C69.3253 13.803 69.1228 13.7614 68.9654 13.6783C68.8097 13.5952 68.6877 13.4979 68.5993 13.3865C68.5109 13.275 68.4428 13.176 68.395 13.0893H68.3287V13.7234H67.5541ZM68.3314 11.686C68.3314 11.9725 68.3729 12.2236 68.456 12.4394C68.5392 12.6552 68.6594 12.8241 68.8168 12.9461C68.9742 13.0664 69.167 13.1265 69.3951 13.1265C69.6321 13.1265 69.8302 13.0637 69.9894 12.9381C70.1485 12.8108 70.2688 12.6384 70.3501 12.4208C70.4333 12.2033 70.4748 11.9584 70.4748 11.686C70.4748 11.4172 70.4342 11.1758 70.3528 10.9618C70.2732 10.7478 70.153 10.5789 69.992 10.4551C69.8328 10.3313 69.6339 10.2694 69.3951 10.2694C69.1652 10.2694 68.9707 10.3287 68.8115 10.4471C68.6541 10.5656 68.5347 10.731 68.4534 10.9432C68.372 11.1554 68.3314 11.403 68.3314 11.686Z" fill="#62718A"/>
<path d="M72.7127 15.2514C72.5942 15.2514 72.4863 15.2417 72.389 15.2222C72.2918 15.2045 72.2193 15.1851 72.1715 15.1639L72.3625 14.5139C72.5075 14.5528 72.6366 14.5696 72.7498 14.5643C72.863 14.559 72.9629 14.5166 73.0496 14.437C73.138 14.3574 73.2158 14.2274 73.283 14.047L73.3812 13.7764L71.8903 9.64865H72.7392L73.7711 12.8108H73.8136L74.8455 9.64865H75.6971L74.0179 14.2672C73.94 14.4794 73.841 14.6589 73.7207 14.8057C73.6005 14.9543 73.4572 15.0657 73.291 15.14C73.1247 15.2143 72.932 15.2514 72.7127 15.2514Z" fill="#62718A"/>
<path d="M34.2816 17.834C34.4263 17.834 34.4637 17.8713 34.5057 17.9273L36.3876 20.4371H36.4529L38.2694 17.9413C38.3208 17.876 38.4002 17.8386 38.5029 17.8386H39.6423C39.759 17.8386 39.8011 17.9413 39.745 18.0066L37.1954 21.2069L40.0345 24.7711C40.0999 24.8644 40.0626 24.953 39.9411 24.953H38.7924C38.6897 24.953 38.5963 24.9157 38.5309 24.8224L36.4109 21.9767H36.3455L34.3236 24.8131C34.2442 24.9064 34.1555 24.9577 34.0481 24.9577H32.9087C32.8153 24.9577 32.764 24.8784 32.8293 24.7898L35.6264 21.2349L33.1048 18.0346C33.0535 17.9413 33.0768 17.8386 33.1982 17.8386H34.2816V17.834Z" fill="#62718A"/>
<path d="M45.5538 17.834C47.1088 17.834 48.2342 18.9583 48.2342 20.3812C48.2342 21.846 47.1088 22.9423 45.5538 22.9423H43.2937V24.7711C43.2937 24.8877 43.2424 24.953 43.1349 24.953H42.2851C42.1683 24.953 42.103 24.8877 42.103 24.7711V18.0206C42.103 17.904 42.1683 17.8386 42.2851 17.8386H45.5538V17.834ZM45.5538 21.832C46.5064 21.832 47.0434 21.2162 47.0434 20.3812C47.0434 19.5601 46.5064 18.9443 45.5538 18.9443H43.2937V21.832H45.5538V21.832Z" fill="#62718A"/>
<path d="M50.7327 23.3203C51.2043 23.3203 51.6105 23.7122 51.6105 24.1834C51.6105 24.6546 51.2043 25.0604 50.7327 25.0604C50.261 25.0604 49.8688 24.6546 49.8688 24.1834C49.8688 23.7122 50.261 23.3203 50.7327 23.3203Z" fill="#62718A"/>
<path d="M59.4931 24.953C59.3997 24.953 59.325 24.9157 59.269 24.8364L56.9295 21.8833L55.1924 19.4948L55.127 19.5088L55.2064 21.6267V24.7757C55.2064 24.8924 55.141 24.9577 55.0103 24.9577H54.1884C54.0857 24.9577 54.0297 24.8924 54.0297 24.7757V18.0206C54.0297 17.9039 54.081 17.8386 54.1978 17.8386H54.9683C55.099 17.8386 55.2017 17.8759 55.2671 17.9692L57.7794 21.1042L59.3484 23.2735L59.4137 23.2596L59.3203 21.1556V18.0206C59.3203 17.9039 59.3857 17.8386 59.5024 17.8386H60.3243C60.441 17.8386 60.4924 17.9039 60.4924 18.0206V24.7757C60.4924 24.8924 60.441 24.9577 60.3243 24.9577H59.4931V24.953Z" fill="#62718A"/>
<path d="M68.4351 17.834C68.5285 17.834 68.6172 17.9133 68.6172 18.0159V18.7624C68.6172 18.8557 68.5238 18.9303 68.4351 18.9303H64.3025V20.6937H68.0662C68.183 20.6937 68.2483 20.759 68.2483 20.8757V21.6221C68.2483 21.7387 68.183 21.79 68.0662 21.79H64.3025V23.8427H68.5659C68.6826 23.8427 68.734 23.894 68.734 24.0013V24.7711C68.734 24.8877 68.6826 24.953 68.5659 24.953H63.2845C63.1678 24.953 63.1164 24.8877 63.1164 24.7711V18.0206C63.1164 17.904 63.1678 17.8386 63.2845 17.8386H68.4351V17.834Z" fill="#62718A"/>
<path d="M76.9057 17.834C77.0225 17.834 77.0879 17.8993 77.0879 18.0159V18.7624C77.0879 18.879 77.0225 18.9443 76.9057 18.9443H74.4869V24.7711C74.4869 24.8644 74.4215 24.953 74.3048 24.953H73.4829C73.3662 24.953 73.3008 24.8877 73.3008 24.7711V18.9443H70.8819C70.7652 18.9443 70.6998 18.879 70.6998 18.7624V18.0159C70.6998 17.8993 70.7652 17.834 70.8819 17.834H76.9057Z" fill="#62718A"/>
<path d="M79.9548 17.834C80.0715 17.834 80.1369 17.8713 80.1649 17.9646L81.8133 23.5675H81.8787L83.4617 17.9646C83.4897 17.8713 83.555 17.834 83.6438 17.834H84.5217C84.6151 17.834 84.6804 17.8713 84.7038 17.9646L86.3241 23.5675H86.3895L88.0239 17.9786C88.0519 17.8853 88.1173 17.834 88.206 17.834H89.1726C89.2893 17.834 89.3314 17.8853 89.2893 18.0019L87.0666 24.7944C87.0292 24.8971 86.9499 24.953 86.8425 24.953H85.7591C85.6564 24.953 85.591 24.9017 85.549 24.7851L84.1107 19.784H84.0454L82.6211 24.7991C82.5931 24.9017 82.5277 24.9577 82.439 24.9577H81.3417C81.2249 24.9577 81.1455 24.9064 81.1082 24.7991L78.8714 17.9786C78.8341 17.8853 78.8714 17.834 78.9882 17.834H79.9548V17.834Z" fill="#62718A"/>
<path d="M94.7437 17.7313C96.8077 17.7313 98.4187 19.2708 98.4187 21.4028C98.4187 23.5208 96.8123 25.0603 94.7437 25.0603C92.6797 25.0603 91.0687 23.5208 91.0687 21.4028C91.0687 19.2708 92.675 17.7313 94.7437 17.7313ZM92.2688 21.4028C92.2688 22.8677 93.2774 23.95 94.739 23.95C96.2053 23.95 97.2092 22.8677 97.2092 21.4028C97.2092 19.9286 96.2006 18.8416 94.739 18.8416C93.2774 18.8416 92.2688 19.924 92.2688 21.4028Z" fill="#62718A"/>
<path d="M104.223 17.834C105.778 17.834 106.917 18.9583 106.917 20.3812C106.917 21.3748 106.38 22.2099 105.558 22.6298L106.749 24.7478C106.814 24.8644 106.749 24.9577 106.604 24.9577H105.652C105.535 24.9577 105.441 24.8644 105.39 24.7758L104.438 22.933C104.4 22.947 104.335 22.947 104.255 22.947H101.967V24.7758C101.967 24.8924 101.916 24.9577 101.799 24.9577H100.977C100.833 24.9577 100.781 24.8644 100.781 24.7758V18.0206C100.781 17.904 100.847 17.8386 100.963 17.8386H104.223V17.834ZM104.223 21.832C105.175 21.832 105.726 21.2162 105.726 20.3812C105.726 19.5601 105.175 18.9443 104.223 18.9443H101.963V21.832H104.223V21.832Z" fill="#62718A"/>
<path d="M110.406 17.834C110.522 17.834 110.588 17.8993 110.588 18.0159V21.1509L113.959 17.9786C114.053 17.8853 114.183 17.834 114.337 17.834H115.514C115.631 17.834 115.682 17.9506 115.593 18.0439L112.456 20.9037L115.762 24.7291C115.855 24.8224 115.799 24.953 115.659 24.953H114.613C114.454 24.953 114.323 24.9017 114.221 24.7851L111.592 21.6781L110.583 22.4898V24.7758C110.583 24.8924 110.518 24.9577 110.401 24.9577H109.579C109.462 24.9577 109.397 24.8924 109.397 24.7758V18.0206C109.397 17.904 109.462 17.8386 109.579 17.8386H110.406V17.834Z" fill="#62718A"/>
</svg>
