<svg width="20" height="18" viewBox="0 0 20 18" fill="none" xmlns="http://www.w3.org/2000/svg">
<path d="M18 0.00012207H2C0.89 0.00012207 0 0.890122 0 2.00012V14.0001C0 15.1001 0.89 16.0001 2 16.0001H6V18.0001H14V16.0001H18C19.1 16.0001 20 15.1001 20 14.0001V2.00012C20 0.890122 19.1 0.00012207 18 0.00012207ZM18 14.0001H2V2.00012H18V14.0001Z" fill="white"/>
<path d="M12 5.25012H4V6.75012H12V5.25012Z" fill="white"/>
<path d="M14.5 6.75012H16V5.25012H14.5V4.00012H13V8.00012H14.5V6.75012Z" fill="white"/>
<path d="M16 9.25012H8V10.7501H16V9.25012Z" fill="white"/>
<path d="M5.5 12.0001H7V8.00012H5.5V9.25012H4V10.7501H5.5V12.0001Z" fill="white"/>
</svg>
