<?xml version="1.0" encoding="utf-8"?>
<!-- Generator: Adobe Illustrator 26.0.0, SVG Export Plug-In . SVG Version: 6.00 Build 0)  -->
<svg version="1.1" id="Layer_1" xmlns="http://www.w3.org/2000/svg" xmlns:xlink="http://www.w3.org/1999/xlink" x="0px" y="0px"
	 viewBox="0 0 82.8 86.7" style="enable-background:new 0 0 82.8 86.7;" xml:space="preserve">
<style type="text/css">
	.st0{fill:#FFFFFF;}
	.st1{fill:url(#SVGID_1_);}
	.st2{fill:url(#SVGID_00000010272028040654879950000017574784305227341457_);}
	.st3{fill:url(#SVGID_00000013883976021781893990000005805527089223228310_);}
	.st4{fill:url(#SVGID_00000103951702501161683390000011515042799523474061_);}
	.st5{fill:none;stroke:#98C9C0;stroke-width:0.25;stroke-miterlimit:10;}
	.st6{fill:none;stroke:#FFF4FC;stroke-width:0.5;stroke-miterlimit:10;}
</style>
<circle class="st0" cx="41.4" cy="43.4" r="20"/>
<g>
	
		<linearGradient id="SVGID_1_" gradientUnits="userSpaceOnUse" x1="41.1947" y1="-104.6363" x2="54.9731" y2="-104.6363" gradientTransform="matrix(1 0 0 -1 0 -61.5782)">
		<stop  offset="0" style="stop-color:#3B8270"/>
		<stop  offset="1" style="stop-color:#305C6E"/>
	</linearGradient>
	<path class="st1" d="M54,46.7l-12,9.1L41.7,46l-0.5-15.7L55,45.9L54,46.7z"/>
	
		<linearGradient id="SVGID_00000041257452371294396770000009324950827994774412_" gradientUnits="userSpaceOnUse" x1="27.5273" y1="-103.4344" x2="41.3118" y2="-103.4344" gradientTransform="matrix(1 0 0 -1 0 -61.5782)">
		<stop  offset="0" style="stop-color:#4E7F98"/>
		<stop  offset="1" style="stop-color:#3BC0B5"/>
	</linearGradient>
	<path style="fill:url(#SVGID_00000041257452371294396770000009324950827994774412_);" d="M27.5,46.3l13.8,6.8L41,30.6L27.5,46.3z"
		/>
	
		<linearGradient id="SVGID_00000167397332106900241530000006261550119136745662_" gradientUnits="userSpaceOnUse" x1="27.7752" y1="-112.8696" x2="41.3597" y2="-112.8696" gradientTransform="matrix(1 0 0 -1 0 -61.5782)">
		<stop  offset="0" style="stop-color:#30435C"/>
		<stop  offset="1" style="stop-color:#299AA9"/>
	</linearGradient>
	<path style="fill:url(#SVGID_00000167397332106900241530000006261550119136745662_);" d="M41.2,46l-13.4,0.3l0.1,0.2l13.5,10
		L41.2,46z"/>
	
		<linearGradient id="SVGID_00000147905995084563231840000009406207514475714467_" gradientUnits="userSpaceOnUse" x1="41.6723" y1="-112.6024" x2="55.2305" y2="-112.6024" gradientTransform="matrix(1 0 0 -1 0 -61.5782)">
		<stop  offset="0" style="stop-color:#2E2C29"/>
		<stop  offset="1" style="stop-color:#323232"/>
	</linearGradient>
	<path style="fill:url(#SVGID_00000147905995084563231840000009406207514475714467_);" d="M41.7,46L54,46l1.3,0l-13.5,10L41.7,46z"
		/>
	<path class="st5" d="M41.5,42.1c-2.8-2.1-4-2.4-4.5-2c-1.2,1,3.3,7.4,1.5,9c-0.5,0.5-1.6,0.6-3.7,0.8c-0.7,0.1-2,0.1-2.4,0.1
		 M46.3,46L41.3,42 M39.2,32.4c-0.4,0.5-1,2.3-0.1,3.9c0.5,1,2,2.2,2.4,2.6 M51.8,48.8c0.1-0.2,1.5-2.1,0.6-3.9
		c-0.6-1.3-2.3-2.5-5.5-3.3c-4-1.3-5-2.5-5.6-3"/>
	<line class="st5" x1="27.5" y1="46.3" x2="55" y2="45.9"/>
	<line class="st6" x1="41.2" y1="30.3" x2="41.5" y2="56.2"/>
	<path class="st6" d="M54.9,46.5l-13.1,9.7c-0.2,0.1-0.4,0.1-0.6,0l-13.3-9.4c-0.3-0.2-0.3-0.6-0.1-0.8l13.1-15.7
		c0.2-0.2,0.5-0.2,0.7,0L55,45.9C55.1,46.1,55.1,46.4,54.9,46.5z"/>
</g>
</svg>
