<svg width="20" height="20" viewBox="0 0 20 20" fill="none" xmlns="http://www.w3.org/2000/svg">
<circle cx="10" cy="10" r="10" fill="white"/>
<path fill-rule="evenodd" clip-rule="evenodd" d="M4 9.38337C4.0486 8.88528 4.15782 8.40495 4.32018 7.94985H10.0719C10.2481 7.94985 10.4177 7.8826 10.5461 7.76182L11.024 7.31199C11.1162 7.22518 11.2592 7.22218 11.355 7.30503L11.9057 7.7813C12.0314 7.89002 12.192 7.94985 12.3582 7.94985H15.6799C15.8422 8.40495 15.9515 8.88528 16.0001 9.38337H11.6169C11.4507 9.38337 11.2901 9.32354 11.1643 9.21482L10.6137 8.73855C10.5179 8.65569 10.3749 8.6587 10.2827 8.74551L9.80475 9.19533C9.67641 9.31612 9.50682 9.38337 9.33059 9.38337H4ZM4.52782 12.5096C4.31894 12.0592 4.16403 11.5786 4.07139 11.0763H7.99599C8.17222 11.0763 8.34181 11.009 8.47015 10.8883L8.94809 10.4384C9.04032 10.3516 9.18326 10.3486 9.27906 10.4315L9.82974 10.9077C9.95545 11.0165 10.1161 11.0763 10.2823 11.0763H15.9287C15.836 11.5786 15.6811 12.0592 15.4722 12.5096H9.54121C9.37501 12.5096 9.21436 12.4498 9.08865 12.341L8.53797 11.8648C8.44217 11.7819 8.29923 11.7849 8.207 11.8717L7.72905 12.3215C7.60072 12.4423 7.43113 12.5096 7.2549 12.5096H4.52782ZM14.5297 13.9547C13.4248 15.2116 11.8051 16.0049 10 16.0049C8.18914 16.0049 6.56473 15.2064 5.45961 13.9424H5.57488C5.75111 13.9424 5.9207 13.8752 6.04903 13.7544L6.52697 13.3046C6.61921 13.2177 6.76215 13.2147 6.85795 13.2976L7.40863 13.7739C7.53434 13.8826 7.69499 13.9424 7.86119 13.9424H14.4971C14.5096 13.9424 14.521 13.9471 14.5297 13.9547ZM14.8407 6.38179H13.7417C13.5755 6.38179 13.4149 6.32196 13.2892 6.21324L12.7385 5.73697C12.6427 5.65412 12.4997 5.65712 12.4075 5.74393L11.9296 6.19375C11.8012 6.31454 11.6316 6.38179 11.4554 6.38179H5.15936C6.25815 4.90438 8.01732 3.94727 10 3.94727C11.9827 3.94727 13.7419 4.90438 14.8407 6.38179Z" fill="black"/>
</svg>
