<svg width="40" height="40" viewBox="0 0 40 40" fill="none" xmlns="http://www.w3.org/2000/svg">
<circle cx="20" cy="20" r="20" fill="white"/>
<path d="M20.2216 23.1673V7.09668L7.02148 23.1673H20.2216Z" fill="url(#paint0_linear_420_227)"/>
<path d="M20.179 23.1673V7.09668L33.1445 23.1673H20.179Z" fill="url(#paint1_linear_420_227)"/>
<path d="M20.2204 23.1738L18.4536 23.1738H17.0529H7.04102L20.0617 32.9169L20.2204 23.1738Z" fill="url(#paint2_linear_420_227)"/>
<path d="M20.2207 23.1738H24.3513H33.2L20.2207 32.7375V23.1738Z" fill="url(#paint3_linear_420_227)"/>
<path d="M16.6046 11.4229C16.2457 13.8448 15.856 15.0335 17.4807 16.805C17.9398 17.3056 20.0305 18.6811 26.4558 20.5231C30.3979 21.6532 28.9075 25.4234 27.5412 27.4313" stroke="#98C9C0" stroke-width="0.193206"/>
<path d="M22.6364 23.1591C20.9013 21.2918 16.7339 17.3352 15.3413 18.2995C14.4211 18.9368 16.1234 21.4171 16.8325 23.7188C17.4145 25.6083 15.9708 26.5427 11.3477 26.4651" stroke="#98C9C0" stroke-width="0.193206"/>
<line x1="20.0137" y1="23.2297" x2="7.04127" y2="23.2297" stroke="#98C9C0" stroke-width="0.248408"/>
<line x1="33.1934" y1="23.2297" x2="20.221" y2="23.2297" stroke="#98C9C0" stroke-width="0.248408"/>
<path d="M20.1725 32.8289V7.23372C20.1725 7.1557 20.0745 7.12098 20.0254 7.18159L7.0545 23.1896C7.0248 23.2263 7.03168 23.2803 7.06962 23.3084L20.0405 32.8955C20.0951 32.9359 20.1725 32.8969 20.1725 32.8289Z" stroke="#FFF4FC" stroke-width="0.386412"/>
<path d="M20.014 32.8359V7.23367C20.014 7.15566 20.112 7.12093 20.1611 7.18153L33.1388 23.1939C33.1685 23.2306 33.1617 23.2846 33.1237 23.3127L20.146 32.9025C20.0913 32.9428 20.014 32.9038 20.014 32.8359Z" stroke="#FFF4FC" stroke-width="0.386412"/>
<defs>
<linearGradient id="paint0_linear_420_227" x1="6.53157" y1="22.498" x2="22.4021" y2="17.0606" gradientUnits="userSpaceOnUse">
<stop stop-color="#4E7F98"/>
<stop offset="1" stop-color="#3BC0B5"/>
</linearGradient>
<linearGradient id="paint1_linear_420_227" x1="18.3505" y1="23.1742" x2="34.6488" y2="20.4486" gradientUnits="userSpaceOnUse">
<stop stop-color="#3B8270"/>
<stop offset="1" stop-color="#305C6E"/>
</linearGradient>
<linearGradient id="paint2_linear_420_227" x1="10.0564" y1="24.9541" x2="20.2774" y2="24.906" gradientUnits="userSpaceOnUse">
<stop stop-color="#30435C"/>
<stop offset="1" stop-color="#299AA9"/>
</linearGradient>
<linearGradient id="paint3_linear_420_227" x1="20.2207" y1="24.8556" x2="24.7634" y2="24.8556" gradientUnits="userSpaceOnUse">
<stop stop-color="#2E2C29"/>
<stop offset="1" stop-color="#323232"/>
</linearGradient>
</defs>
</svg>
