<svg width="32" height="32" viewBox="0 0 32 32" fill="none" xmlns="http://www.w3.org/2000/svg">
<circle cx="16" cy="16" r="16" fill="white"/>
<path d="M16 9.22222C16.3303 9.22117 16.6543 9.31261 16.9353 9.4862C17.2163 9.6598 17.443 9.9086 17.5899 10.2044L22.5897 20.2044C22.7253 20.4755 22.7894 20.7767 22.7759 21.0795C22.7623 21.3823 22.6716 21.6766 22.5123 21.9345C22.3529 22.1923 22.1304 22.4051 21.8656 22.5527C21.6009 22.7003 21.3029 22.7778 20.9998 22.7778H11.0002C10.6971 22.7778 10.3991 22.7003 10.1344 22.5527C9.86964 22.4051 9.64705 22.1923 9.48774 21.9345C9.32843 21.6766 9.23769 21.3823 9.22413 21.0795C9.21057 20.7767 9.27465 20.4755 9.41028 20.2044L14.4101 10.2044C14.557 9.9086 14.7837 9.6598 15.0647 9.4862C15.3457 9.31261 15.6697 9.22117 16 9.22222ZM16 8C15.4429 7.99994 14.8969 8.15499 14.423 8.44779C13.949 8.74058 13.566 9.15956 13.3168 9.65778L8.317 19.6578C8.08818 20.1152 7.98009 20.6235 8.00301 21.1344C8.02593 21.6454 8.17909 22.142 8.44795 22.5771C8.7168 23.0121 9.09242 23.3713 9.53912 23.6203C9.98583 23.8694 10.4888 24.0001 11.0002 24H20.9998C21.5112 24.0001 22.0142 23.8694 22.4609 23.6203C22.9076 23.3713 23.2832 23.0121 23.5521 22.5771C23.8209 22.142 23.9741 21.6454 23.997 21.1344C24.0199 20.6235 23.9118 20.1152 23.683 19.6578L18.6832 9.65778C18.434 9.15956 18.051 8.74058 17.577 8.44779C17.1031 8.15499 16.5571 7.99994 16 8V8Z" fill="#70D44B"/>
</svg>
