<svg width="28" height="27" viewBox="0 0 29 28" fill="none" xmlns="http://www.w3.org/2000/svg">
<circle cx="14.0869" cy="14" r="14" fill="#EEEFF6"/>
<mask id="mask0_1733_3202" style="mask-type:alpha" maskUnits="userSpaceOnUse" x="0" y="0" width="29" height="28">
<circle cx="14.0869" cy="14" r="14" fill="#EEEFF6"/>
</mask>
<g mask="url(#mask0_1733_3202)">
<g style="mix-blend-mode:multiply">
<circle cx="4.75293" cy="7" r="14" fill="#FF8058"/>
</g>
<g style="mix-blend-mode:multiply">
<circle cx="12.9209" cy="24.5" r="14" fill="#4859CF"/>
</g>
<g style="mix-blend-mode:multiply">
<circle cx="25.7529" cy="16.3324" r="7" fill="#7EB8FC"/>
</g>
<g style="mix-blend-mode:multiply">
<circle cx="21.6696" cy="5.24906" r="9.91667" fill="#E664D9"/>
</g>
</g>
<circle cx="14.0869" cy="14" r="14" fill="#E84142"/>
<g clip-path="url(#clip0_1733_3202)">
<path d="M18.0079 14.3397C18.393 13.7046 19.0144 13.7046 19.3995 14.3397L21.7976 18.3593C22.1827 18.9944 21.8676 19.5125 21.0974 19.5125H16.2662C15.5048 19.5125 15.1897 18.9944 15.566 18.3593L18.0079 14.3397ZM13.3692 6.60133C13.7543 5.96622 14.367 5.96622 14.7521 6.60133L15.286 7.52058L16.5463 9.63483C16.8526 10.2365 16.8526 10.9468 16.5463 11.5485L12.319 18.5431C11.9339 19.1114 11.295 19.4707 10.5861 19.5125H7.07644C6.30625 19.5125 5.99118 19.0027 6.37627 18.3593L13.3692 6.60133Z" fill="white"/>
</g>
<defs>
<clipPath id="clip0_1733_3202">
<rect width="15.75" height="15.75" fill="white" transform="translate(6.21191 6.125)"/>
</clipPath>
</defs>
</svg>
