<svg width="22" height="22" viewBox="0 0 22 22" fill="none" xmlns="http://www.w3.org/2000/svg">
<circle cx="11" cy="11" r="10" fill="url(#paint0_linear_3519_13551)"/>
<g clip-path="url(#clip0_3519_13551)">
<path d="M15.987 14.8332C15.6526 14.8332 15.3688 15.0663 15.2979 15.3906L12.6378 15.2639C12.6479 15.2132 12.653 15.1626 12.653 15.1119C12.653 15.0207 12.6378 14.9295 12.6124 14.8383L13.5802 14.2809C13.8184 14.5748 14.249 14.6356 14.5581 14.4126C14.8672 14.1897 14.9483 13.7641 14.7405 13.4449C14.5328 13.1256 14.1122 13.0243 13.7829 13.2118C13.4535 13.3993 13.3269 13.8147 13.4991 14.1542L12.5617 14.6964C12.3388 14.2252 11.7865 14.0124 11.3051 14.21C10.8238 14.4076 10.5806 14.9497 10.7528 15.4412L9.00981 15.8618C8.99968 15.6236 8.89834 15.4007 8.73113 15.2284L9.04528 14.7927C9.39997 14.9143 9.79012 14.7369 9.932 14.3873C10.0739 14.0377 9.9168 13.6374 9.57731 13.4803C9.23782 13.3182 8.8274 13.455 8.65006 13.7843C8.47271 14.1137 8.58419 14.5292 8.9034 14.7268L8.61459 15.1271C8.41191 14.9751 8.15349 14.9092 7.90015 14.9396L7.6012 13.232C7.97615 13.151 8.26497 12.8571 8.34604 12.4872C8.42711 12.1122 8.28524 11.7272 7.98122 11.4991C7.6772 11.2661 7.26678 11.2357 6.93236 11.413L6.17738 9.93852C6.33952 9.85745 6.47127 9.73077 6.56754 9.57876L7.19584 9.74597C7.19077 9.78144 7.18571 9.81184 7.18571 9.84731C7.18571 10.2121 7.46439 10.5212 7.82921 10.5567C8.19403 10.5922 8.52845 10.3439 8.59432 9.97905C8.66019 9.61423 8.44231 9.26461 8.08762 9.16834C7.73294 9.067 7.36305 9.25448 7.23131 9.59903L6.63847 9.44196C6.71955 9.24941 6.73475 9.0366 6.68408 8.83392L8.43218 8.02828C8.75646 8.43363 9.34423 8.51977 9.76985 8.21575C10.1955 7.91174 10.307 7.32904 10.0232 6.89328L11.1379 5.80388C11.2747 5.89002 11.4318 5.94576 11.5889 5.95589V6.43725C11.219 6.47779 10.9403 6.80207 10.9606 7.17703C10.9809 7.55198 11.2899 7.84587 11.6649 7.84587C12.0399 7.84587 12.3489 7.55198 12.3692 7.17703C12.3895 6.80207 12.1159 6.47779 11.7409 6.43725V5.95589C11.8828 5.94576 12.0145 5.90522 12.1361 5.83935L13.3573 7.23276C13.0735 7.60772 13.0938 8.12962 13.4029 8.47924C13.717 8.82886 14.2338 8.90993 14.6392 8.66671C15.0446 8.4235 15.2168 7.932 15.0598 7.49118L15.4398 7.27837C15.683 7.56212 16.1035 7.61279 16.4025 7.38477C16.7014 7.16183 16.7724 6.74127 16.5646 6.43218C16.3569 6.1231 15.9414 6.02683 15.6222 6.21937C15.303 6.41192 15.1864 6.81727 15.3587 7.15169L14.999 7.35437C14.852 7.08582 14.5885 6.90341 14.2896 6.85781C13.9906 6.81221 13.6815 6.90848 13.4637 7.12129L12.2679 5.75828C12.3844 5.66707 12.4807 5.54547 12.5465 5.41373L13.5954 5.586C13.6765 5.95082 14.0312 6.18897 14.396 6.1231C14.7659 6.0623 15.0192 5.72281 14.9787 5.35292C14.9381 4.98303 14.6139 4.70435 14.244 4.72462C13.869 4.74489 13.5802 5.04891 13.5751 5.42386L12.6023 5.26172C12.7391 4.79556 12.5161 4.299 12.0753 4.09125C11.6345 3.8835 11.1126 4.03551 10.844 4.44087C10.5755 4.84623 10.6464 5.38839 11.0113 5.71268L9.92693 6.77167C9.75972 6.57913 9.52157 6.45752 9.26823 6.43725V5.69748C9.63811 5.65694 9.9168 5.33265 9.89653 4.9577C9.87626 4.58274 9.57224 4.29393 9.19729 4.29393C8.82233 4.29393 8.51325 4.58781 8.49298 4.96277C8.47271 5.33772 8.74633 5.66201 9.12128 5.70254V6.43725C8.78686 6.46259 8.48791 6.6602 8.33084 6.95408C8.17376 7.25303 8.17883 7.60772 8.34604 7.9016L6.64354 8.68191C6.58274 8.53497 6.48647 8.4083 6.36486 8.30696L7.02863 7.11116C7.08943 7.12636 7.14517 7.13649 7.20597 7.13649C7.56573 7.13649 7.86468 6.86794 7.91028 6.51326C7.95588 6.15857 7.7228 5.82922 7.37825 5.74308C7.02863 5.65694 6.67394 5.84442 6.54727 6.17884C6.4206 6.51326 6.56754 6.88821 6.88169 7.05542L6.23819 8.22082C5.84803 7.98774 5.35654 8.05361 5.03732 8.3779C4.72317 8.70218 4.66743 9.19368 4.90558 9.57876C5.14372 9.96385 5.60988 10.1361 6.04057 9.99932L6.80568 11.4941C6.61314 11.6359 6.47633 11.8488 6.43073 12.0818L5.87336 11.9197C5.88857 11.864 5.89363 11.8032 5.89363 11.7474C5.89363 11.3877 5.62508 11.0887 5.2704 11.0482C4.91571 11.0076 4.58636 11.2357 4.50022 11.5853C4.41408 11.9349 4.60663 12.2896 4.94611 12.4112C5.28053 12.5328 5.65549 12.3859 5.81763 12.0666L6.41046 12.2389C6.41046 12.2541 6.41046 12.2693 6.41046 12.2845C6.41046 12.6189 6.57767 12.928 6.86142 13.1054L6.4814 13.6019C6.20272 13.3536 5.77709 13.3688 5.51361 13.6374C5.25013 13.9059 5.24 14.3265 5.49334 14.6052C5.74669 14.8839 6.16725 14.9143 6.46113 14.6761C6.75502 14.438 6.80568 14.0174 6.58781 13.7134L6.99823 13.1763C7.11984 13.232 7.25664 13.2574 7.39345 13.2574C7.41372 13.2574 7.43399 13.2574 7.45426 13.2523L7.75827 14.97C7.35292 15.0916 7.06917 15.4615 7.05397 15.8821C7.04383 16.3077 7.30731 16.6877 7.7076 16.8296C8.10789 16.9715 8.55378 16.8397 8.8122 16.5002L10.2309 17.1336C10.2208 17.1843 10.2107 17.24 10.2107 17.2907C10.2107 17.6504 10.4792 17.9544 10.839 17.995C11.1987 18.0355 11.5281 17.8024 11.6092 17.4528C11.6902 17.1032 11.4926 16.7485 11.1531 16.6269C10.8136 16.5053 10.4387 16.6624 10.2816 16.9867L8.89834 16.3685C8.95914 16.257 8.99968 16.1354 9.00981 16.0087L10.8136 15.5679C10.9505 15.8213 11.1937 15.9986 11.4774 16.0594C11.7612 16.1151 12.0551 16.0442 12.278 15.8669L12.9519 16.4496C12.7948 16.7941 12.9316 17.1995 13.2661 17.3717C13.6005 17.5491 14.0109 17.4325 14.2034 17.1083C14.396 16.784 14.3048 16.3685 13.9957 16.1557C13.6815 15.9429 13.261 16.0138 13.033 16.3127L12.3895 15.7605C12.4857 15.6591 12.5567 15.5324 12.6023 15.4007L15.2827 15.5324C15.2878 15.9226 15.6019 16.2317 15.9921 16.2317C16.3822 16.2317 16.6964 15.9125 16.6913 15.5274C16.6913 15.1473 16.3772 14.8332 15.987 14.8332Z" fill="white"/>
</g>
<defs>
<linearGradient id="paint0_linear_3519_13551" x1="7.48649" y1="3.7027" x2="35.3243" y2="-11.4324" gradientUnits="userSpaceOnUse">
<stop stop-color="#FF2C2E"/>
</linearGradient>
<clipPath id="clip0_3519_13551">
<rect width="12.2114" height="14" fill="white" transform="translate(4.47998 4)"/>
</clipPath>
</defs>
</svg>
