<svg width="28" height="28" viewBox="0 0 28 28" fill="none" xmlns="http://www.w3.org/2000/svg">
<circle cx="14" cy="14" r="14" fill="white"/>
<path d="M11.4006 9.7761C12.1798 9.26915 13.0414 9.01192 13.9853 9.01192C14.9193 9.00943 15.7809 9.26665 16.5725 9.78359L18.2307 8.12538C16.9421 7.13644 15.5262 6.63948 13.9853 6.64198C12.437 6.64447 11.0235 7.13644 9.74243 8.12288L11.4006 9.7761Z" fill="#0D0234"/>
<path d="M9.76734 16.5888C9.24041 15.7897 8.97819 14.9256 8.98069 13.9991C8.98318 13.0577 9.2429 12.1961 9.76234 11.4119L8.10913 9.75623C7.13767 11.0224 6.6507 12.4358 6.6482 13.9991C6.64571 15.5475 7.13518 16.9609 8.11412 18.2445L9.76734 16.5888Z" fill="#0D0234"/>
<path d="M16.5874 18.2344C15.8007 18.7638 14.9391 19.0335 14.0026 19.041C13.0512 19.0485 12.1796 18.7788 11.388 18.2394L9.73975 19.8876C11.0209 20.884 12.4443 21.376 14.0126 21.3635C15.5635 21.351 16.9719 20.859 18.2381 19.8851L16.5874 18.2344Z" fill="#0D0234"/>
<path d="M18.2183 11.4092C18.7502 12.2109 19.01 13.0899 19 14.0464C18.99 14.9679 18.7278 15.817 18.2158 16.5936L19.8715 18.2493C20.8454 16.9807 21.3399 15.5722 21.3524 14.0264C21.3649 12.4581 20.8729 11.0347 19.8765 9.75354L18.2183 11.4092Z" fill="#0D0234"/>
<path d="M19.8445 20.0074C19.8195 19.9825 19.807 19.9525 19.807 19.92C19.807 19.8876 19.8195 19.8576 19.8445 19.8326C19.8919 19.7852 19.9693 19.7852 20.0193 19.8326C20.0443 19.8576 20.0568 19.8876 20.0568 19.92C20.0568 19.9525 20.0443 19.9825 20.0193 20.0074C19.9943 20.0324 19.9644 20.0424 19.9319 20.0424C19.8994 20.0424 19.8695 20.0299 19.8445 20.0074ZM19.4949 19.6578C19.4699 19.6329 19.4599 19.6029 19.4599 19.5704C19.4599 19.538 19.4724 19.508 19.4949 19.483C19.5423 19.4356 19.6222 19.4356 19.6697 19.483C19.6946 19.508 19.7046 19.538 19.7046 19.5704C19.7046 19.6029 19.6921 19.6329 19.6697 19.6578C19.6447 19.6828 19.6147 19.6928 19.5823 19.6928C19.5523 19.6928 19.5198 19.6828 19.4949 19.6578ZM19.1477 19.3082C19.1228 19.2832 19.1103 19.2533 19.1103 19.2208C19.1103 19.1883 19.1228 19.1584 19.1477 19.1334C19.1952 19.0859 19.2751 19.0859 19.3225 19.1334C19.3475 19.1584 19.3575 19.1883 19.3575 19.2208C19.3575 19.2533 19.345 19.2832 19.3225 19.3082C19.2976 19.3332 19.2676 19.3457 19.2351 19.3457C19.2027 19.3457 19.1702 19.3332 19.1477 19.3082ZM18.7981 18.9586C18.7731 18.9336 18.7632 18.9036 18.7632 18.8712C18.7632 18.8387 18.7756 18.8087 18.7981 18.7838C18.8456 18.7363 18.9255 18.7363 18.9729 18.7838C18.9979 18.8087 19.0079 18.8387 19.0079 18.8712C19.0079 18.9036 18.9954 18.9336 18.9729 18.9586C18.948 18.9836 18.918 18.996 18.8855 18.996C18.8531 18.996 18.8231 18.9836 18.7981 18.9586ZM18.4485 18.6115C18.4235 18.5865 18.411 18.5565 18.411 18.5241C18.411 18.4916 18.4235 18.4616 18.4485 18.4366C18.4959 18.3892 18.5734 18.3892 18.6233 18.4366C18.6483 18.4616 18.6583 18.4916 18.6583 18.5241C18.6583 18.5565 18.6458 18.5865 18.6233 18.6115C18.5983 18.6364 18.5684 18.6464 18.5359 18.6464C18.5059 18.6464 18.4735 18.6339 18.4485 18.6115ZM18.1014 18.2618C18.0764 18.2369 18.0639 18.2069 18.0639 18.1744C18.0639 18.142 18.0764 18.112 18.1014 18.087C18.1488 18.0396 18.2262 18.0396 18.2762 18.087C18.3012 18.112 18.3136 18.142 18.3136 18.1744C18.3136 18.2069 18.3012 18.2369 18.2762 18.2618C18.2512 18.2868 18.2212 18.2968 18.1888 18.2968C18.1563 18.2968 18.1238 18.2868 18.1014 18.2618ZM17.7517 17.9122C17.7268 17.8872 17.7168 17.8573 17.7168 17.8248C17.7168 17.7923 17.7293 17.7624 17.7517 17.7374C17.7992 17.69 17.8791 17.69 17.9266 17.7374C17.9515 17.7624 17.964 17.7923 17.964 17.8248C17.964 17.8573 17.9515 17.8872 17.9266 17.9122C17.9016 17.9372 17.8716 17.9497 17.8391 17.9497C17.8067 17.9497 17.7767 17.9372 17.7517 17.9122ZM17.4021 17.5651C17.3771 17.5401 17.3647 17.5102 17.3647 17.4777C17.3647 17.4452 17.3771 17.4153 17.4021 17.3903C17.4496 17.3428 17.5295 17.3428 17.5769 17.3903C17.6019 17.4153 17.6119 17.4452 17.6119 17.4777C17.6119 17.5102 17.5994 17.5401 17.5769 17.5651C17.552 17.5901 17.522 17.6001 17.4895 17.6001C17.4596 17.6001 17.4271 17.5876 17.4021 17.5651ZM17.0525 17.2155C17.0275 17.1905 17.015 17.1605 17.015 17.1281C17.015 17.0956 17.0275 17.0656 17.0525 17.0407C17.0999 16.9932 17.1799 16.9932 17.2273 17.0407C17.2523 17.0656 17.2648 17.0956 17.2648 17.1281C17.2648 17.1605 17.2523 17.1905 17.2273 17.2155C17.2023 17.2404 17.1724 17.2529 17.1399 17.2529C17.1099 17.2504 17.0775 17.2379 17.0525 17.2155ZM16.7054 16.8658C16.6804 16.8409 16.6679 16.8109 16.6679 16.7784C16.6679 16.746 16.6804 16.716 16.7054 16.691C16.7528 16.6436 16.8302 16.6436 16.8802 16.691C16.9052 16.716 16.9176 16.746 16.9176 16.7784C16.9176 16.8109 16.9052 16.8409 16.8802 16.8658C16.8552 16.8908 16.8252 16.9033 16.7928 16.9033C16.7603 16.9033 16.7278 16.8908 16.7054 16.8658ZM16.3558 16.5187C16.3308 16.4938 16.3183 16.4638 16.3183 16.4313C16.3183 16.3989 16.3308 16.3689 16.3558 16.3439C16.4032 16.2965 16.4806 16.2965 16.5306 16.3439C16.5555 16.3689 16.568 16.3989 16.568 16.4313C16.568 16.4638 16.5555 16.4938 16.5306 16.5187C16.5056 16.5437 16.4756 16.5537 16.4432 16.5537C16.4107 16.5537 16.3807 16.5412 16.3558 16.5187ZM16.0061 16.1691C15.9812 16.1441 15.9712 16.1142 15.9712 16.0817C15.9712 16.0492 15.9837 16.0193 16.0061 15.9943C16.0536 15.9468 16.1335 15.9468 16.1809 15.9943C16.2059 16.0193 16.2184 16.0492 16.2184 16.0817C16.2184 16.1142 16.2059 16.1441 16.1809 16.1691C16.156 16.1941 16.126 16.2066 16.0935 16.2066C16.0636 16.2041 16.0311 16.1916 16.0061 16.1691ZM15.659 15.8195C15.634 15.7945 15.624 15.7645 15.624 15.7321C15.624 15.6996 15.6365 15.6696 15.659 15.6447C15.7065 15.5972 15.7864 15.5972 15.8338 15.6447C15.8588 15.6696 15.8713 15.6996 15.8713 15.7321C15.8713 15.7645 15.8588 15.7945 15.8338 15.8195C15.8088 15.8445 15.7789 15.8569 15.7464 15.8569C15.7139 15.8544 15.6815 15.8445 15.659 15.8195ZM15.3094 15.4699C15.2844 15.4449 15.2719 15.4149 15.2719 15.3825C15.2719 15.35 15.2844 15.32 15.3094 15.295C15.3568 15.2476 15.4367 15.2476 15.4842 15.295C15.5092 15.32 15.5192 15.35 15.5192 15.3825C15.5192 15.4149 15.5067 15.4449 15.4842 15.4699C15.4592 15.4948 15.4293 15.5073 15.3968 15.5073C15.3643 15.5073 15.3319 15.4948 15.3094 15.4699ZM14.9598 15.1227C14.9348 15.0978 14.9223 15.0678 14.9223 15.0353C14.9223 15.0029 14.9348 14.9729 14.9598 14.9479C15.0072 14.9005 15.0871 14.9005 15.1346 14.9479C15.1595 14.9729 15.172 15.0029 15.172 15.0353C15.172 15.0678 15.1595 15.0978 15.1346 15.1227C15.1096 15.1477 15.0796 15.1602 15.0472 15.1602C15.0147 15.1577 14.9847 15.1452 14.9598 15.1227ZM14.6126 14.7731C14.5877 14.7481 14.5752 14.7182 14.5752 14.6857C14.5752 14.6532 14.5877 14.6233 14.6126 14.5983C14.6601 14.5509 14.7375 14.5509 14.7874 14.5983C14.8124 14.6233 14.8249 14.6532 14.8249 14.6857C14.8249 14.7182 14.8124 14.7481 14.7874 14.7731C14.7625 14.7981 14.7325 14.8081 14.7 14.8081C14.6676 14.8081 14.6351 14.7956 14.6126 14.7731ZM14.263 14.4235C14.238 14.3985 14.2281 14.3686 14.2281 14.3361C14.2281 14.3036 14.2405 14.2737 14.263 14.2487C14.3105 14.2012 14.3904 14.2012 14.4378 14.2487C14.4628 14.2737 14.4753 14.3036 14.4753 14.3361C14.4753 14.3686 14.4628 14.3985 14.4378 14.4235C14.4129 14.4485 14.3829 14.4585 14.3504 14.4585C14.318 14.461 14.2855 14.4485 14.263 14.4235ZM13.9134 14.0739C13.8884 14.0489 13.8784 14.0189 13.8784 13.9865C13.8784 13.954 13.8909 13.924 13.9134 13.8991C13.9608 13.8516 14.0408 13.8516 14.0882 13.8991C14.1132 13.924 14.1232 13.954 14.1232 13.9865C14.1232 14.0189 14.1107 14.0489 14.0882 14.0739C14.0632 14.0988 14.0333 14.1113 14.0008 14.1113C13.9683 14.1113 13.9384 14.0988 13.9134 14.0739ZM13.5638 13.7267C13.5388 13.7018 13.5263 13.6718 13.5263 13.6393C13.5263 13.6069 13.5388 13.5769 13.5638 13.5519C13.6112 13.5045 13.6911 13.5045 13.7386 13.5519C13.7636 13.5769 13.7735 13.6069 13.7735 13.6393C13.7735 13.6718 13.7611 13.7018 13.7386 13.7267C13.7136 13.7517 13.6836 13.7642 13.6512 13.7642C13.6212 13.7617 13.5887 13.7492 13.5638 13.7267ZM13.2166 13.3771C13.1917 13.3522 13.1792 13.3222 13.1792 13.2897C13.1792 13.2573 13.1917 13.2273 13.2166 13.2023C13.2641 13.1549 13.344 13.1549 13.3915 13.2023C13.4164 13.2273 13.4264 13.2573 13.4264 13.2897C13.4264 13.3222 13.4139 13.3522 13.3915 13.3771C13.3665 13.4021 13.3365 13.4121 13.3041 13.4121C13.2716 13.4121 13.2391 13.4021 13.2166 13.3771ZM12.867 13.0275C12.842 13.0025 12.8296 12.9726 12.8296 12.9401C12.8296 12.9076 12.842 12.8777 12.867 12.8527C12.9145 12.8052 12.9919 12.8052 13.0418 12.8527C13.0668 12.8777 13.0793 12.9076 13.0793 12.9401C13.0793 12.9726 13.0668 13.0025 13.0418 13.0275C13.0169 13.0525 12.9869 13.065 12.9544 13.065C12.922 13.065 12.8895 13.0525 12.867 13.0275ZM12.5174 12.6804C12.4924 12.6554 12.4824 12.6254 12.4824 12.593C12.4824 12.5605 12.4949 12.5305 12.5174 12.5056C12.5648 12.4581 12.6448 12.4581 12.6922 12.5056C12.7172 12.5305 12.7297 12.5605 12.7297 12.593C12.7297 12.6254 12.7172 12.6554 12.6922 12.6804C12.6672 12.7054 12.6373 12.7153 12.6048 12.7153C12.5723 12.7153 12.5424 12.7029 12.5174 12.6804ZM12.1678 12.3308C12.1428 12.3058 12.1303 12.2758 12.1303 12.2434C12.1303 12.2109 12.1428 12.1809 12.1678 12.1559C12.2152 12.1085 12.2926 12.1085 12.3426 12.1559C12.3676 12.1809 12.3776 12.2109 12.3776 12.2434C12.3776 12.2758 12.3651 12.3058 12.3426 12.3308C12.3176 12.3557 12.2876 12.3657 12.2552 12.3657C12.2252 12.3657 12.1928 12.3532 12.1678 12.3308ZM11.8207 11.9811C11.7957 11.9562 11.7857 11.9262 11.7857 11.8937C11.7857 11.8613 11.7982 11.8313 11.8207 11.8063C11.8681 11.7589 11.948 11.7589 11.9955 11.8063C12.0204 11.8313 12.0329 11.8613 12.0329 11.8937C12.0329 11.9262 12.0204 11.9562 11.9955 11.9811C11.9705 12.0061 11.9405 12.0186 11.9081 12.0186C11.8756 12.0186 11.8431 12.0061 11.8207 11.9811ZM11.471 11.6315C11.4461 11.6065 11.4361 11.5766 11.4361 11.5441C11.4361 11.5116 11.4486 11.4817 11.471 11.4567C11.5185 11.4093 11.5984 11.4093 11.6458 11.4567C11.6708 11.4817 11.6808 11.5116 11.6808 11.5441C11.6808 11.5766 11.6683 11.6065 11.6458 11.6315C11.6209 11.6565 11.5909 11.669 11.5584 11.669C11.526 11.669 11.496 11.6565 11.471 11.6315ZM11.1214 11.2844C11.0964 11.2594 11.0839 11.2294 11.0839 11.197C11.0839 11.1645 11.0964 11.1346 11.1214 11.1096C11.1689 11.0621 11.2488 11.0621 11.2962 11.1096C11.3212 11.1346 11.3312 11.1645 11.3312 11.197C11.3312 11.2294 11.3187 11.2594 11.2962 11.2844C11.2712 11.3094 11.2413 11.3194 11.2088 11.3194C11.1788 11.3194 11.1464 11.3069 11.1214 11.2844ZM10.7743 10.9348C10.7493 10.9098 10.7393 10.8798 10.7393 10.8474C10.7393 10.8149 10.7518 10.7849 10.7743 10.76C10.8217 10.7125 10.9016 10.7125 10.9491 10.76C10.9741 10.7849 10.9866 10.8149 10.9866 10.8474C10.9866 10.8798 10.9741 10.9098 10.9491 10.9348C10.9241 10.9597 10.8942 10.9697 10.8617 10.9697C10.8292 10.9697 10.7968 10.9597 10.7743 10.9348ZM10.4247 10.5851C10.3997 10.5602 10.3872 10.5302 10.3872 10.4977C10.3872 10.4653 10.3997 10.4353 10.4247 10.4103C10.4721 10.3629 10.5495 10.3629 10.5995 10.4103C10.6244 10.4353 10.6344 10.4653 10.6344 10.4977C10.6344 10.5302 10.6219 10.5602 10.5995 10.5851C10.5745 10.6101 10.5445 10.6226 10.5121 10.6226C10.4796 10.6226 10.4496 10.6101 10.4247 10.5851ZM10.075 10.2355C10.0501 10.2106 10.0401 10.1806 10.0401 10.1481C10.0401 10.1157 10.0526 10.0857 10.075 10.0607C10.1225 10.0133 10.2024 10.0133 10.2499 10.0607C10.2748 10.0857 10.2873 10.1157 10.2873 10.1481C10.2873 10.1806 10.2748 10.2106 10.2499 10.2355C10.2249 10.2605 10.1949 10.2705 10.1624 10.2705C10.13 10.273 10.1 10.2605 10.075 10.2355ZM9.72542 9.8884C9.70044 9.86343 9.68796 9.83346 9.68796 9.80099C9.68796 9.76853 9.70044 9.73856 9.72542 9.71359C9.77287 9.66614 9.85278 9.66614 9.90023 9.71359C9.9252 9.73856 9.93519 9.76853 9.93519 9.80099C9.93519 9.83346 9.9227 9.86343 9.90023 9.8884C9.87526 9.91337 9.84529 9.92586 9.81282 9.92586C9.78286 9.92336 9.75039 9.91088 9.72542 9.8884ZM9.37829 9.53878C9.35332 9.51381 9.34333 9.48384 9.34333 9.45137C9.34333 9.41891 9.35582 9.38894 9.37829 9.36397C9.42574 9.31652 9.50565 9.31652 9.5531 9.36397C9.57808 9.38894 9.59056 9.41891 9.59056 9.45137C9.59056 9.48384 9.57808 9.51381 9.5531 9.53878C9.52813 9.56375 9.49816 9.57374 9.4657 9.57374C9.43323 9.57624 9.40077 9.56375 9.37829 9.53878ZM9.02867 9.18916C9.0037 9.16418 8.99121 9.13422 8.99121 9.10175C8.99121 9.06929 9.0037 9.03932 9.02867 9.01435C9.07612 8.9669 9.15354 8.9669 9.20348 9.01435C9.22845 9.03932 9.23844 9.06929 9.23844 9.10175C9.23844 9.13422 9.22596 9.16418 9.20348 9.18916C9.17851 9.21413 9.14854 9.22662 9.11608 9.22662C9.08361 9.22662 9.05364 9.21413 9.02867 9.18916Z" fill="#0D0234"/>
<path d="M7.98223 20.0075C7.95725 19.9825 7.94727 19.9525 7.94727 19.92C7.94727 19.8876 7.95975 19.8576 7.98223 19.8326C8.02968 19.7852 8.10959 19.7852 8.15704 19.8326C8.18201 19.8576 8.1945 19.8876 8.1945 19.92C8.1945 19.9525 8.18201 19.9825 8.15704 20.0075C8.13207 20.0324 8.1021 20.0424 8.06963 20.0424C8.03717 20.0424 8.0047 20.0299 7.98223 20.0075ZM8.33185 19.6578C8.30688 19.6329 8.29439 19.6029 8.29439 19.5704C8.29439 19.538 8.30688 19.508 8.33185 19.483C8.3793 19.4356 8.45921 19.4356 8.50666 19.483C8.53163 19.508 8.54162 19.538 8.54162 19.5704C8.54162 19.6029 8.52913 19.6329 8.50666 19.6578C8.48169 19.6828 8.45172 19.6928 8.41925 19.6928C8.38679 19.6928 8.35432 19.6828 8.33185 19.6578ZM8.67897 19.3082C8.654 19.2832 8.64401 19.2533 8.64401 19.2208C8.64401 19.1883 8.6565 19.1584 8.67897 19.1334C8.72642 19.0859 8.80633 19.0859 8.85378 19.1334C8.87876 19.1584 8.88875 19.1883 8.88875 19.2208C8.88875 19.2533 8.87626 19.2832 8.85378 19.3082C8.82881 19.3332 8.79884 19.3457 8.76638 19.3457C8.73641 19.3457 8.70395 19.3332 8.67897 19.3082ZM9.02859 18.9586C9.00362 18.9336 8.99363 18.9036 8.99363 18.8712C8.99363 18.8387 9.00612 18.8087 9.02859 18.7838C9.07604 18.7363 9.15596 18.7363 9.2034 18.7838C9.22838 18.8087 9.24086 18.8387 9.24086 18.8712C9.24086 18.9036 9.22838 18.9336 9.2034 18.9586C9.17843 18.9836 9.14846 18.996 9.116 18.996C9.08353 18.996 9.05357 18.9836 9.02859 18.9586ZM9.37821 18.6115C9.35324 18.5865 9.34076 18.5565 9.34076 18.5241C9.34076 18.4916 9.35324 18.4616 9.37821 18.4366C9.42566 18.3892 9.50308 18.3892 9.55303 18.4366C9.578 18.4616 9.59048 18.4916 9.59048 18.5241C9.59048 18.5565 9.578 18.5865 9.55303 18.6115C9.52805 18.6364 9.49808 18.6464 9.46562 18.6464C9.43316 18.6464 9.40069 18.6339 9.37821 18.6115ZM9.72534 18.2618C9.70037 18.2369 9.69038 18.2069 9.69038 18.1744C9.69038 18.142 9.70286 18.112 9.72534 18.087C9.77279 18.0396 9.8527 18.0396 9.90015 18.087C9.92512 18.112 9.93761 18.142 9.93761 18.1744C9.93761 18.2069 9.92512 18.2369 9.90015 18.2618C9.87518 18.2868 9.84521 18.2968 9.81274 18.2968C9.78278 18.2968 9.75031 18.2868 9.72534 18.2618ZM10.075 17.9122C10.05 17.8872 10.0375 17.8573 10.0375 17.8248C10.0375 17.7923 10.05 17.7624 10.075 17.7374C10.1224 17.69 10.2023 17.69 10.2498 17.7374C10.2747 17.7624 10.2847 17.7923 10.2847 17.8248C10.2847 17.8573 10.2722 17.8872 10.2498 17.9122C10.2248 17.9372 10.1948 17.9497 10.1624 17.9497C10.1299 17.9497 10.0999 17.9372 10.075 17.9122ZM10.4246 17.5651C10.3996 17.5401 10.3871 17.5102 10.3871 17.4777C10.3871 17.4452 10.3996 17.4153 10.4246 17.3903C10.472 17.3428 10.5519 17.3428 10.5994 17.3903C10.6244 17.4153 10.6369 17.4452 10.6369 17.4777C10.6369 17.5102 10.6244 17.5401 10.5994 17.5651C10.5744 17.5901 10.5445 17.6001 10.512 17.6001C10.4795 17.6001 10.4496 17.5876 10.4246 17.5651ZM10.7742 17.2155C10.7492 17.1905 10.7392 17.1605 10.7392 17.1281C10.7392 17.0956 10.7517 17.0656 10.7742 17.0407C10.8217 16.9932 10.9016 16.9932 10.949 17.0407C10.974 17.0656 10.984 17.0956 10.984 17.1281C10.984 17.1605 10.9715 17.1905 10.949 17.2155C10.924 17.2404 10.8941 17.2529 10.8616 17.2529C10.8291 17.2504 10.7967 17.2379 10.7742 17.2155ZM11.1213 16.8658C11.0964 16.8409 11.0864 16.8109 11.0864 16.7784C11.0864 16.746 11.0989 16.716 11.1213 16.691C11.1688 16.6436 11.2487 16.6436 11.2961 16.691C11.3211 16.716 11.3336 16.746 11.3336 16.7784C11.3336 16.8109 11.3211 16.8409 11.2961 16.8658C11.2712 16.8908 11.2412 16.9033 11.2087 16.9033C11.1788 16.9033 11.1463 16.8908 11.1213 16.8658ZM11.4709 16.5187C11.446 16.4937 11.4335 16.4638 11.4335 16.4313C11.4335 16.3989 11.446 16.3689 11.4709 16.3439C11.5184 16.2965 11.5958 16.2965 11.6458 16.3439C11.6707 16.3689 11.6807 16.3989 11.6807 16.4313C11.6807 16.4638 11.6682 16.4937 11.6458 16.5187C11.6208 16.5437 11.5908 16.5537 11.5584 16.5537C11.5259 16.5537 11.4959 16.5412 11.4709 16.5187ZM11.8206 16.1691C11.7956 16.1441 11.7856 16.1142 11.7856 16.0817C11.7856 16.0492 11.7981 16.0193 11.8206 15.9943C11.868 15.9468 11.9479 15.9468 11.9954 15.9943C12.0204 16.0193 12.0303 16.0492 12.0303 16.0817C12.0303 16.1142 12.0179 16.1441 11.9954 16.1691C11.9704 16.1941 11.9404 16.2066 11.908 16.2066C11.8755 16.2041 11.843 16.1916 11.8206 16.1691ZM12.1677 15.8195C12.1427 15.7945 12.1302 15.7645 12.1302 15.7321C12.1302 15.6996 12.1427 15.6696 12.1677 15.6447C12.2151 15.5972 12.2951 15.5972 12.3425 15.6447C12.3675 15.6696 12.3775 15.6996 12.3775 15.7321C12.3775 15.7645 12.365 15.7945 12.3425 15.8195C12.3175 15.8444 12.2876 15.8569 12.2551 15.8569C12.2251 15.8544 12.1927 15.8444 12.1677 15.8195ZM12.5173 15.4699C12.4923 15.4449 12.4824 15.4149 12.4824 15.3824C12.4824 15.35 12.4948 15.32 12.5173 15.295C12.5648 15.2476 12.6447 15.2476 12.6921 15.295C12.7171 15.32 12.7296 15.35 12.7296 15.3824C12.7296 15.4149 12.7171 15.4449 12.6921 15.4699C12.6672 15.4948 12.6372 15.5073 12.6047 15.5073C12.5723 15.5073 12.5423 15.4948 12.5173 15.4699ZM12.8669 15.1227C12.842 15.0978 12.832 15.0678 12.832 15.0353C12.832 15.0029 12.8445 14.9729 12.8669 14.9479C12.9144 14.9005 12.9943 14.9005 13.0417 14.9479C13.0667 14.9729 13.0792 15.0029 13.0792 15.0353C13.0792 15.0678 13.0667 15.0978 13.0417 15.1227C13.0168 15.1477 12.9868 15.1602 12.9543 15.1602C12.9219 15.1577 12.8919 15.1452 12.8669 15.1227ZM13.2166 14.7731C13.1916 14.7481 13.1791 14.7182 13.1791 14.6857C13.1791 14.6532 13.1916 14.6233 13.2166 14.5983C13.264 14.5508 13.3414 14.5508 13.3914 14.5983C13.4163 14.6233 13.4288 14.6532 13.4288 14.6857C13.4288 14.7182 13.4163 14.7481 13.3914 14.7731C13.3664 14.7981 13.3364 14.8081 13.304 14.8081C13.2715 14.8081 13.239 14.7956 13.2166 14.7731ZM13.5637 14.4235C13.5387 14.3985 13.5262 14.3685 13.5262 14.3361C13.5262 14.3036 13.5387 14.2736 13.5637 14.2487C13.6111 14.2012 13.6885 14.2012 13.7385 14.2487C13.7635 14.2736 13.7735 14.3036 13.7735 14.3361C13.7735 14.3685 13.761 14.3985 13.7385 14.4235C13.7135 14.4485 13.6835 14.4584 13.6511 14.4584C13.6211 14.4609 13.5887 14.4485 13.5637 14.4235ZM13.9133 14.0739C13.8883 14.0489 13.8783 14.0189 13.8783 13.9865C13.8783 13.954 13.8908 13.924 13.9133 13.8991C13.9607 13.8516 14.0407 13.8516 14.0881 13.8991C14.1131 13.924 14.1231 13.954 14.1231 13.9865C14.1231 14.0189 14.1106 14.0489 14.0881 14.0739C14.0631 14.0988 14.0332 14.1113 14.0007 14.1113C13.9682 14.1113 13.9383 14.0988 13.9133 14.0739ZM14.2629 13.7267C14.2379 13.7018 14.228 13.6718 14.228 13.6393C14.228 13.6069 14.2404 13.5769 14.2629 13.5519C14.3104 13.5045 14.3903 13.5045 14.4377 13.5519C14.4627 13.5769 14.4727 13.6069 14.4727 13.6393C14.4727 13.6718 14.4602 13.7018 14.4377 13.7267C14.4128 13.7517 14.3828 13.7642 14.3503 13.7642C14.3179 13.7617 14.2879 13.7492 14.2629 13.7267ZM14.6125 13.3771C14.5876 13.3521 14.5776 13.3222 14.5776 13.2897C14.5776 13.2572 14.5901 13.2273 14.6125 13.2023C14.66 13.1549 14.7399 13.1549 14.7874 13.2023C14.8123 13.2273 14.8248 13.2572 14.8248 13.2897C14.8248 13.3222 14.8123 13.3521 14.7874 13.3771C14.7624 13.4021 14.7324 13.4121 14.6999 13.4121C14.6675 13.4121 14.635 13.4021 14.6125 13.3771ZM14.9597 13.0275C14.9347 13.0025 14.9222 12.9726 14.9222 12.9401C14.9222 12.9076 14.9347 12.8777 14.9597 12.8527C15.0071 12.8052 15.0845 12.8052 15.1345 12.8527C15.1595 12.8777 15.1694 12.9076 15.1694 12.9401C15.1694 12.9726 15.157 13.0025 15.1345 13.0275C15.1095 13.0525 15.0795 13.0625 15.0471 13.0625C15.0146 13.065 14.9846 13.0525 14.9597 13.0275ZM15.3093 12.6804C15.2843 12.6554 15.2743 12.6254 15.2743 12.593C15.2743 12.5605 15.2868 12.5305 15.3093 12.5056C15.3567 12.4581 15.4367 12.4581 15.4841 12.5056C15.5091 12.5305 15.5216 12.5605 15.5216 12.593C15.5216 12.6254 15.5091 12.6554 15.4841 12.6804C15.4591 12.7053 15.4292 12.7153 15.3967 12.7153C15.3642 12.7153 15.3343 12.7028 15.3093 12.6804ZM15.6589 12.3307C15.6339 12.3058 15.6215 12.2758 15.6215 12.2433C15.6215 12.2109 15.6339 12.1809 15.6589 12.1559C15.7064 12.1085 15.7863 12.1085 15.8337 12.1559C15.8587 12.1809 15.8712 12.2109 15.8712 12.2433C15.8712 12.2758 15.8587 12.3058 15.8337 12.3307C15.8087 12.3557 15.7788 12.3682 15.7463 12.3682C15.7139 12.3657 15.6814 12.3532 15.6589 12.3307ZM16.006 11.9811C15.9811 11.9562 15.9686 11.9262 15.9686 11.8937C15.9686 11.8613 15.9811 11.8313 16.006 11.8063C16.0535 11.7589 16.1334 11.7589 16.1808 11.8063C16.2058 11.8313 16.2158 11.8613 16.2158 11.8937C16.2158 11.9262 16.2033 11.9562 16.1808 11.9811C16.1559 12.0061 16.1259 12.0186 16.0934 12.0186C16.0635 12.0186 16.031 12.0061 16.006 11.9811ZM16.3557 11.6315C16.3307 11.6065 16.3207 11.5766 16.3207 11.5441C16.3207 11.5116 16.3332 11.4817 16.3557 11.4567C16.4031 11.4092 16.483 11.4092 16.5305 11.4567C16.5554 11.4817 16.5679 11.5116 16.5679 11.5441C16.5679 11.5766 16.5554 11.6065 16.5305 11.6315C16.5055 11.6565 16.4755 11.669 16.4431 11.669C16.4106 11.669 16.3806 11.6565 16.3557 11.6315ZM16.7053 11.2844C16.6803 11.2594 16.6678 11.2294 16.6678 11.197C16.6678 11.1645 16.6803 11.1345 16.7053 11.1096C16.7527 11.0621 16.8301 11.0621 16.8801 11.1096C16.9051 11.1345 16.9175 11.1645 16.9175 11.197C16.9175 11.2294 16.9051 11.2594 16.8801 11.2844C16.8551 11.3094 16.8251 11.3193 16.7927 11.3193C16.7602 11.3193 16.7278 11.3069 16.7053 11.2844ZM17.0549 10.9348C17.0299 10.9098 17.0174 10.8798 17.0174 10.8473C17.0174 10.8149 17.0299 10.7849 17.0549 10.7599C17.1023 10.7125 17.1798 10.7125 17.2297 10.7599C17.2547 10.7849 17.2647 10.8149 17.2647 10.8473C17.2647 10.8798 17.2522 10.9098 17.2297 10.9348C17.2047 10.9597 17.1748 10.9697 17.1423 10.9697C17.1098 10.9697 17.0774 10.9597 17.0549 10.9348ZM17.402 10.5851C17.377 10.5602 17.3671 10.5302 17.3671 10.4977C17.3671 10.4653 17.3795 10.4353 17.402 10.4103C17.4495 10.3629 17.5294 10.3629 17.5768 10.4103C17.6018 10.4353 17.6143 10.4653 17.6143 10.4977C17.6143 10.5302 17.6018 10.5602 17.5768 10.5851C17.5519 10.6101 17.5219 10.6226 17.4894 10.6226C17.4595 10.6226 17.427 10.6101 17.402 10.5851ZM17.7516 10.2355C17.7267 10.2105 17.7142 10.1806 17.7142 10.1481C17.7142 10.1156 17.7267 10.0857 17.7516 10.0607C17.7991 10.0133 17.879 10.0133 17.9265 10.0607C17.9514 10.0857 17.9614 10.1156 17.9614 10.1481C17.9614 10.1806 17.9489 10.2105 17.9265 10.2355C17.9015 10.2605 17.8715 10.2705 17.839 10.2705C17.8066 10.273 17.7766 10.2605 17.7516 10.2355ZM18.1013 9.88838C18.0763 9.86341 18.0663 9.83344 18.0663 9.80098C18.0663 9.76851 18.0788 9.73855 18.1013 9.71357C18.1487 9.66612 18.2286 9.66612 18.2761 9.71357C18.301 9.73855 18.311 9.76851 18.311 9.80098C18.311 9.83344 18.2985 9.86341 18.2761 9.88838C18.2511 9.91336 18.2211 9.92584 18.1887 9.92584C18.1562 9.92335 18.1237 9.91086 18.1013 9.88838ZM18.4484 9.53876C18.4234 9.51379 18.4134 9.48382 18.4134 9.45136C18.4134 9.41889 18.4259 9.38892 18.4484 9.36395C18.4958 9.3165 18.5757 9.3165 18.6232 9.36395C18.6482 9.38892 18.6607 9.41889 18.6607 9.45136C18.6607 9.48382 18.6482 9.51379 18.6232 9.53876C18.5982 9.56374 18.5683 9.57373 18.5358 9.57373C18.5058 9.57622 18.4734 9.56374 18.4484 9.53876ZM18.798 9.18914C18.773 9.16417 18.7605 9.1342 18.7605 9.10173C18.7605 9.06927 18.773 9.0393 18.798 9.01433C18.8455 8.96688 18.9229 8.96688 18.9728 9.01433C18.9978 9.0393 19.0103 9.06927 19.0103 9.10173C19.0103 9.1342 18.9978 9.16417 18.9728 9.18914C18.9478 9.21411 18.9179 9.2266 18.8854 9.2266C18.8529 9.2266 18.823 9.21411 18.798 9.18914ZM19.1476 8.84202C19.1227 8.81704 19.1102 8.78707 19.1102 8.75461C19.1102 8.72214 19.1227 8.69218 19.1476 8.6672C19.1951 8.61976 19.275 8.61976 19.3224 8.6672C19.3474 8.69218 19.3599 8.72214 19.3599 8.75461C19.3599 8.78707 19.3474 8.81704 19.3224 8.84202C19.2975 8.86699 19.2675 8.87698 19.235 8.87698C19.2026 8.87698 19.1701 8.86449 19.1476 8.84202ZM19.4972 8.49239C19.4723 8.46742 19.4598 8.43745 19.4598 8.40499C19.4598 8.37252 19.4723 8.34255 19.4972 8.31758C19.5447 8.27013 19.6246 8.27013 19.6721 8.31758C19.697 8.34255 19.707 8.37252 19.707 8.40499C19.707 8.43745 19.6945 8.46742 19.6721 8.49239C19.6471 8.51737 19.6171 8.52736 19.5847 8.52736C19.5522 8.52736 19.5197 8.51737 19.4972 8.49239ZM19.8444 8.14277C19.7969 8.09532 19.7969 8.01541 19.8444 7.96796C19.8918 7.92051 19.9717 7.92051 20.0192 7.96796C20.0666 8.01541 20.0666 8.09282 20.0192 8.14277C19.9942 8.16774 19.9642 8.17773 19.9318 8.17773C19.9018 8.18023 19.8693 8.16774 19.8444 8.14277Z" fill="#0D0234"/>
<path d="M19.9388 21.0689C20.5747 21.0689 21.0901 20.5534 21.0901 19.9176C21.0901 19.2818 20.5747 18.7664 19.9388 18.7664C19.303 18.7664 18.7876 19.2818 18.7876 19.9176C18.7876 20.5534 19.303 21.0689 19.9388 21.0689Z" fill="#0D0234"/>
<path d="M8.0768 21.0713C8.71262 21.0713 9.22806 20.5559 9.22806 19.9201C9.22806 19.2842 8.71262 18.7688 8.0768 18.7688C7.44097 18.7688 6.92554 19.2842 6.92554 19.9201C6.92554 20.5559 7.44097 21.0713 8.0768 21.0713Z" fill="#0D0234"/>
<path d="M19.9491 9.19667C20.5849 9.19667 21.1004 8.68124 21.1004 8.04542C21.1004 7.4096 20.5849 6.89417 19.9491 6.89417C19.3133 6.89417 18.7979 7.4096 18.7979 8.04542C18.7979 8.68124 19.3133 9.19667 19.9491 9.19667Z" fill="#0D0234"/>
<path d="M8.04676 9.17678C8.68258 9.17678 9.19802 8.66134 9.19802 8.02552C9.19802 7.3897 8.68258 6.87427 8.04676 6.87427C7.41094 6.87427 6.89551 7.3897 6.89551 8.02552C6.89551 8.66134 7.41094 9.17678 8.04676 9.17678Z" fill="#0D0234"/>
</svg>
