<svg width="20" height="20" viewBox="0 0 20 20" fill="none" xmlns="http://www.w3.org/2000/svg">
<circle cx="10" cy="10" r="10" fill="#1F6AF8"/>
<path d="M9.45022 4.11477C9.61983 4.03919 9.80498 4 9.99245 4C10.1799 4 10.3651 4.03919 10.5347 4.11477L13.6771 5.68062C13.7564 5.71419 13.8257 5.76567 13.879 5.83055C13.9323 5.89543 13.9679 5.97171 13.9828 6.05268H13.986V13.9121C13.9783 14.0002 13.9454 14.0848 13.891 14.1567C13.8366 14.2286 13.7626 14.2852 13.677 14.3206L10.5347 15.8852C10.3651 15.9608 10.1799 16 9.99245 16C9.80498 16 9.61983 15.9608 9.45022 15.8852L6.30776 14.3194C6.22303 14.2836 6.15018 14.2267 6.09698 14.1547C6.04378 14.0828 6.01223 13.9985 6.00572 13.9109C6.00572 13.8974 6.00572 13.886 6.00572 13.8769V6.0503C6.01885 5.9694 6.05344 5.89297 6.10627 5.82817C6.15909 5.76336 6.22842 5.71231 6.30776 5.67977L9.45022 4.11477ZM13.4911 10.4366L10.5347 11.9066C10.3651 11.9823 10.1799 12.0216 9.99245 12.0216C9.80496 12.0216 9.61979 11.9823 9.45022 11.9066L6.50013 10.4398V13.8966L9.45022 15.3571C9.5968 15.4409 9.75793 15.4995 9.92611 15.53L9.99353 15.5339C10.178 15.5168 10.3562 15.4609 10.5149 15.3702L13.493 13.8833V10.4366H13.4911ZM5.49477 13.7412C5.48015 13.9593 5.51808 14.1778 5.6057 14.38C5.68063 14.5093 5.79124 14.6169 5.92571 14.6914L5.93524 14.6974C5.97228 14.7207 6.01291 14.7454 6.06199 14.7742L6.12024 14.8082L6.29859 14.9103L6.04275 15.3081L5.84319 15.194L5.80903 15.1746C5.75096 15.1406 5.70314 15.1122 5.65855 15.0846C5.18158 14.7806 5.00342 14.4503 5 13.7621V13.7412H5.49441H5.49477ZM9.74435 8.32879C9.72262 8.33597 9.70142 8.34449 9.68088 8.35432L6.53914 9.91898L6.52961 9.92409H6.52691L6.53195 9.92715L6.53932 9.93073L9.6816 11.4947C9.70206 11.5047 9.72327 11.5132 9.74506 11.5202L9.74435 8.32879ZM10.2404 8.32879V11.5214C10.2622 11.5144 10.2834 11.5059 10.3038 11.4959L13.4463 9.93192L13.4558 9.92681H13.4587L13.4537 9.92443L13.4463 9.92052L10.3037 8.35704C10.2832 8.34706 10.262 8.33852 10.2402 8.33151L10.2404 8.32879ZM13.4911 6.60975L10.6706 8.01273L13.4911 9.41553V6.60839V6.60975ZM6.50013 6.61299V9.41229L9.31232 8.01273L6.50013 6.61299ZM10.3037 4.52751C10.2054 4.48742 10.0995 4.46674 9.99245 4.46674C9.88543 4.46674 9.77953 4.48742 9.68124 4.52751L6.53896 6.09081L6.52943 6.09558L6.52655 6.09711L6.53159 6.09983L6.53896 6.10306L9.68142 7.66705C9.77963 7.70741 9.88556 7.72824 9.99263 7.72824C10.0997 7.72824 10.2056 7.70741 10.3038 7.66705L13.4463 6.10306L13.4558 6.09983L13.4587 6.0983L13.4537 6.09558L13.4463 6.092L10.3037 4.52751ZM13.9551 4.70009L14.1547 4.81379L14.1906 4.83081C14.2483 4.86485 14.2961 4.89344 14.3409 4.92084C14.8184 5.2238 14.9962 5.55484 15 6.24263V6.26356H14.5036C14.5182 6.04538 14.4803 5.82691 14.3927 5.62463C14.3177 5.49534 14.2069 5.38779 14.0723 5.3135L14.0628 5.30754C14.0268 5.28388 13.9855 5.25954 13.936 5.23078L13.878 5.19929L13.6996 5.09717L13.9556 4.69941L13.9551 4.70009Z" fill="white"/>
</svg>
