<svg width="240" height="240" viewBox="0 0 240 240" fill="none" xmlns="http://www.w3.org/2000/svg">

<path fill-rule="evenodd" clip-rule="evenodd" d="M82.0393 72.3759C82.2586 73.2531 83.1357 73.7647 84.0128 73.4724L157.107 53.8831C158.861 53.4445 158.642 50.8862 156.815 50.74L76.5572 43.5037C75.4608 43.4306 74.5837 44.4539 74.876 45.4772L82.0393 72.3759ZM89.3486 120.253L78.6769 80.4161L77.2881 75.2264L71.5867 54.0291C71.1481 52.421 68.9553 52.421 68.5167 54.0291L48.0503 130.413C47.758 131.582 48.7813 132.679 50.0239 132.386L88.2522 122.153C89.0562 122.007 89.5679 121.13 89.3486 120.253ZM172.237 55.3449C174.503 54.7602 176.989 55.7835 178.158 57.8301L197.236 90.9419C197.747 91.819 197.309 92.9885 196.286 93.2809L96.5118 119.887C95.6346 120.18 94.7575 119.668 94.5382 118.791L84.305 80.5625C84.0126 79.6853 84.5243 78.8082 85.4014 78.5889L172.237 55.3449ZM91.5413 128.512C91.322 127.635 90.4449 127.124 89.5678 127.416L51.3395 137.649C50.1699 137.942 49.7314 139.477 50.6085 140.281L106.745 196.856C107.914 198.025 109.815 196.929 109.449 195.321L91.5413 128.512ZM97.8276 125.15L192.996 99.6401C194.531 99.2746 195.628 100.956 194.678 102.198L118.44 198.391C117.636 199.414 116.028 199.048 115.663 197.806L96.7312 127.124C96.4388 126.246 96.9505 125.369 97.8276 125.15Z" fill="#1E0854"/>
</svg>
