<svg id="svg" version="1.1" xmlns="http://www.w3.org/2000/svg" xmlns:xlink="http://www.w3.org/1999/xlink" width="31" height="31.98511166253104" viewBox="0, 0, 400,401.98511166253104"><g id="svgg"><path id="path0" d="M195.658 77.828 C 191.605 78.298,187.565 79.211,184.414 80.371 C 181.332 81.504,90.806 121.809,89.550 122.606 C 82.349 127.180,81.246 137.569,87.316 143.651 C 89.551 145.890,88.179 145.276,118.301 157.543 C 133.075 163.560,152.171 171.437,160.738 175.046 C 183.256 184.535,185.836 185.275,197.270 185.536 C 210.186 185.831,213.205 185.034,238.337 174.688 C 247.891 170.755,266.929 162.996,280.645 157.445 C 310.446 145.385,309.187 145.955,311.814 143.328 C 319.350 135.792,317.564 122.911,308.313 118.071 C 306.424 117.083,219.724 81.926,215.261 80.339 C 209.141 78.162,201.367 77.166,195.658 77.828 M253.722 187.646 C 216.949 202.457,214.192 203.239,198.759 203.233 C 183.797 203.227,180.467 202.289,146.462 188.496 C 133.461 183.223,122.702 178.908,122.552 178.908 C 122.183 178.908,91.198 192.702,89.950 193.422 C 82.404 197.776,81.107 208.775,87.427 214.825 C 89.684 216.985,89.282 216.803,114.764 227.180 C 127.730 232.459,146.880 240.324,157.320 244.658 C 184.850 256.085,186.159 256.455,199.007 256.444 C 211.718 256.433,212.780 256.134,241.067 244.614 C 252.122 240.112,271.383 232.298,283.871 227.250 C 310.187 216.611,309.159 217.075,311.633 214.746 C 318.248 208.522,318.431 198.306,312.043 191.932 C 309.454 189.349,309.428 189.336,294.045 183.122 C 286.880 180.228,280.682 177.723,280.273 177.556 C 279.570 177.269,278.093 177.830,253.722 187.646 M272.333 250.982 C 223.087 270.917,222.552 271.118,214.144 272.801 C 205.085 274.613,192.913 274.615,183.499 272.806 C 175.958 271.356,174.585 270.856,143.548 258.257 C 129.082 252.384,117.134 247.577,116.998 247.574 C 116.676 247.568,92.404 258.364,90.447 259.384 C 81.428 264.085,80.911 277.338,89.532 282.846 C 91.083 283.837,172.418 319.320,175.712 320.443 C 190.729 325.561,207.206 325.610,222.100 320.581 C 225.012 319.598,306.158 284.586,308.809 283.169 C 319.356 277.532,319.049 260.910,308.295 255.289 C 306.003 254.091,285.776 245.898,285.195 245.933 C 284.945 245.948,279.156 248.220,272.333 250.982 " stroke="none" fill="#cdfdab" fill-rule="evenodd"></path><path id="path1" d="M190.074 7.195 C 72.675 14.025,-11.176 119.481,8.949 234.988 C 23.538 318.721,92.572 383.882,177.047 393.657 C 308.387 408.854,415.842 292.581,390.294 162.911 C 371.802 69.057,285.148 1.663,190.074 7.195 M207.568 78.157 C 209.206 78.436,211.774 79.048,213.275 79.518 C 216.781 80.616,307.123 117.144,308.927 118.193 C 317.771 123.336,319.304 136.171,311.941 143.427 C 309.330 146.000,309.788 145.792,281.638 157.192 C 267.922 162.746,248.604 170.621,238.710 174.691 C 213.595 185.022,211.031 185.730,198.759 185.720 C 186.882 185.710,183.375 184.760,162.159 175.801 C 154.516 172.574,135.533 164.742,119.975 158.397 C 88.906 145.726,89.348 145.923,87.220 143.797 C 80.833 137.414,82.373 126.170,90.199 122.042 C 93.118 120.501,183.443 80.526,185.712 79.770 C 192.551 77.491,200.289 76.920,207.568 78.157 M293.259 182.652 C 300.720 185.666,307.375 188.408,308.049 188.744 C 317.775 193.604,319.863 206.640,312.161 214.412 C 309.550 217.047,310.050 216.816,284.739 227.047 C 272.184 232.123,252.643 240.050,241.315 244.663 C 214.215 255.701,212.129 256.330,201.241 256.740 C 188.452 257.221,184.722 256.205,156.948 244.672 C 146.166 240.196,127.128 232.374,114.640 227.292 C 88.339 216.587,89.510 217.121,87.188 214.767 C 82.100 209.608,81.795 201.940,86.452 196.223 C 88.265 193.997,89.632 193.285,106.495 185.779 L 122.534 178.639 146.193 188.237 C 180.492 202.154,183.816 203.090,198.883 203.087 C 214.339 203.084,216.782 202.385,254.218 187.254 C 267.866 181.738,279.181 177.213,279.363 177.198 C 279.545 177.183,285.798 179.637,293.259 182.652 M296.502 250.143 C 308.226 254.896,309.459 255.491,311.595 257.425 C 319.644 264.718,318.021 278.476,308.526 283.428 C 305.067 285.232,224.847 319.818,221.836 320.803 C 206.712 325.752,191.051 325.720,176.055 320.709 C 173.657 319.908,93.562 285.139,90.242 283.458 C 81.421 278.993,80.808 265.511,89.173 259.958 C 90.231 259.256,116.472 247.395,116.968 247.395 C 117.052 247.395,128.968 252.199,143.448 258.072 C 157.927 263.944,171.019 269.178,172.542 269.703 C 190.400 275.861,209.978 275.510,227.792 268.714 C 229.907 267.907,243.641 262.399,258.313 256.474 C 272.984 250.549,285.088 245.691,285.212 245.679 C 285.335 245.667,290.416 247.676,296.502 250.143 " stroke="none" fill="#0c2434" fill-rule="evenodd"></path><path id="path2" d="M87.205 124.380 L 86.476 125.186 87.283 124.457 C 88.035 123.778,88.203 123.573,88.012 123.573 C 87.969 123.573,87.606 123.936,87.205 124.380 M83.194 133.995 C 83.194 134.609,83.243 134.860,83.302 134.553 C 83.361 134.246,83.361 133.744,83.302 133.437 C 83.243 133.130,83.194 133.381,83.194 133.995 M311.771 143.486 L 311.042 144.293 311.849 143.564 C 312.600 142.885,312.769 142.680,312.577 142.680 C 312.535 142.680,312.172 143.043,311.771 143.486 M197.581 185.791 C 198.365 185.841,199.650 185.841,200.434 185.791 C 201.219 185.742,200.577 185.702,199.007 185.702 C 197.438 185.702,196.796 185.742,197.581 185.791 M316.707 203.102 C 316.708 204.057,316.753 204.417,316.806 203.903 C 316.860 203.388,316.859 202.606,316.804 202.166 C 316.750 201.725,316.706 202.146,316.707 203.102 M83.184 205.211 C 83.184 205.689,83.235 205.884,83.298 205.645 C 83.360 205.406,83.360 205.016,83.298 204.777 C 83.235 204.538,83.184 204.733,83.184 205.211 M311.897 214.578 L 311.042 215.509 311.973 214.654 C 312.839 213.858,313.017 213.648,312.828 213.648 C 312.786 213.648,312.368 214.066,311.897 214.578 M87.097 214.764 C 87.560 215.242,87.994 215.633,88.063 215.633 C 88.131 215.633,87.808 215.242,87.345 214.764 C 86.882 214.287,86.447 213.896,86.379 213.896 C 86.311 213.896,86.634 214.287,87.097 214.764 M197.961 256.759 C 198.682 256.809,199.799 256.809,200.443 256.758 C 201.086 256.707,200.496 256.666,199.132 256.666 C 197.767 256.667,197.240 256.709,197.961 256.759 M316.696 269.355 C 316.698 270.037,316.746 270.287,316.803 269.910 C 316.860 269.533,316.859 268.974,316.800 268.669 C 316.741 268.364,316.694 268.672,316.696 269.355 M83.184 270.720 C 83.184 271.197,83.235 271.393,83.298 271.154 C 83.360 270.915,83.360 270.524,83.298 270.285 C 83.235 270.047,83.184 270.242,83.184 270.720 " stroke="none" fill="#7a9c76" fill-rule="evenodd"></path><path id="path3" d="M199.446 77.599 C 199.892 77.654,200.562 77.653,200.935 77.597 C 201.308 77.540,200.943 77.495,200.124 77.496 C 199.305 77.498,199.000 77.544,199.446 77.599 M198.208 324.500 C 198.791 324.552,199.684 324.551,200.193 324.498 C 200.701 324.445,200.223 324.402,199.132 324.403 C 198.040 324.404,197.624 324.447,198.208 324.500 " stroke="none" fill="#5c785e" fill-rule="evenodd"></path><path id="path4" d="M87.205 195.347 L 86.476 196.154 87.283 195.425 C 88.035 194.746,88.203 194.541,88.012 194.541 C 87.969 194.541,87.606 194.904,87.205 195.347 " stroke="none" fill="#405f56" fill-rule="evenodd"></path></g></svg>