<svg width="22" height="22" viewBox="0 0 22 22" fill="none" xmlns="http://www.w3.org/2000/svg">
<circle cx="11" cy="11" r="10" fill="#38775D"/>
<g clip-path="url(#clip0_555_2811)">
<path d="M8.52722 11.8467C8.87209 11.8467 9.20855 11.7317 9.48052 11.5215L7.29353 9.33446C6.76641 10.0158 6.89259 10.9971 7.57392 11.5243C7.84869 11.7317 8.18235 11.8467 8.52722 11.8467Z" fill="white"/>
<path d="M15.0321 10.285C15.0321 9.94009 14.9172 9.60363 14.7069 9.33166L12.5199 11.5186C13.2012 12.0458 14.1797 11.9196 14.7069 11.2383C14.9172 10.9663 15.0321 10.6298 15.0321 10.285Z" fill="white"/>
<path d="M16.134 7.90451L15.1667 8.87183C15.9462 9.80551 15.8228 11.1962 14.8891 11.9757C14.0704 12.6598 12.8816 12.6598 12.0629 11.9757L11.0002 13.0383L9.94035 11.9785C9.00668 12.7579 7.61598 12.6346 6.83651 11.7009C6.15237 10.8822 6.15237 9.69336 6.83651 8.87464L6.34023 8.37836L5.86919 7.90451C5.30001 8.84099 5 9.91766 5 11.014C5 14.3281 7.68607 17.0142 11.0002 17.0142C14.3143 17.0142 17.0004 14.3281 17.0004 11.014C17.0032 9.91766 16.7004 8.84099 16.134 7.90451Z" fill="white"/>
<path d="M15.3405 6.8727C13.0554 4.47542 9.25902 4.3857 6.86174 6.67082C6.79165 6.73812 6.72436 6.80541 6.65987 6.8727C6.51127 7.02971 6.37107 7.19234 6.23929 7.36337L11.0002 12.1271L15.7611 7.36337C15.6321 7.19234 15.4891 7.02971 15.3405 6.8727ZM11.0002 5.79883C12.4021 5.79883 13.7087 6.33997 14.69 7.32692L11.0002 11.0168L7.31036 7.32692C8.2917 6.33997 9.59828 5.79883 11.0002 5.79883Z" fill="white"/>
</g>
<defs>
<clipPath id="clip0_555_2811">
<rect width="12" height="12" fill="white" transform="translate(5 5)"/>
</clipPath>
</defs>
</svg>
