<svg width="28" height="28" viewBox="0 0 28 28" fill="none" xmlns="http://www.w3.org/2000/svg">
<path d="M28 14C28 21.732 21.732 28 14 28C6.26801 28 0 21.732 0 14C0 6.26801 6.26801 0 14 0C21.732 0 28 6.26801 28 14Z" fill="#EDEFF6"/>
<path d="M8.16451 18.3933C7.97939 17.8379 7.4948 15.5968 7.03743 11.0754V9.99728C7.51113 9.98639 8.50101 9.97115 8.67089 9.99728C8.84077 10.0234 9.39505 10.2913 9.65096 10.422L10.1247 12.3985V15.306L10.7617 16.5148C11.0503 16.6672 11.6797 16.982 11.8888 17.0212C12.0979 17.0604 12.9451 17.3533 13.3426 17.4949L15.3517 17.7562H20.0234L22.1633 17.9686L22.5063 19.21L21.9019 21.1375H19.125L16.3318 20.8271H14.927L12.7382 20.4024L10.7617 19.9777L9.06292 19.21L8.16451 18.3933Z" fill="#00CC9B"/>
<path d="M12.4279 22.1012C11.206 22.013 9.94173 21.5785 8.91265 20.8957C7.10605 19.6968 5.93649 17.8281 5.64574 15.6654C5.6098 15.3844 5.6 14.4566 5.6 10.4612V5.6L11.3432 5.61307C17.6386 5.62287 17.2531 5.61307 18.1254 5.81888C19.1316 6.05737 20.1737 6.55721 20.9676 7.18446C22.2449 8.18413 23.2022 9.65424 23.5811 11.1897C23.7902 12.0456 23.7739 11.6013 23.7869 17.1126L23.8 22.1339L18.2854 22.1306C15.2505 22.1273 12.6173 22.1143 12.4279 22.1012ZM21.8366 18.2462H17.4622C12.6598 18.2462 12.8297 18.2528 12.2188 18.047C11.6177 17.8477 11.108 17.5177 10.6441 17.0342C10.2292 16.5964 9.95153 16.1358 9.77185 15.5837C9.59217 15.0283 9.58564 14.9467 9.58564 12.7382V10.6997H7.56015V12.4736C7.56015 14.4076 7.58629 15.0055 7.69083 15.551C8.10899 17.717 9.77839 19.4877 11.9444 20.0594C12.6141 20.2358 12.4899 20.2325 17.338 20.2358L21.8366 20.2391V18.2462ZM21.8366 15.1035C21.8366 14.0123 21.8202 13.0094 21.8039 12.8068C21.5328 9.96787 19.2982 7.74637 16.4625 7.50135C16.2142 7.47848 14.5024 7.46541 11.8169 7.46541H7.56015V9.48763L16.5278 9.50723L16.8447 9.59544C17.6223 9.80779 18.1058 10.0822 18.6383 10.6017C19.0303 10.9871 19.2949 11.3628 19.4877 11.8104C19.7621 12.4507 19.8111 12.7774 19.8111 13.9535V14.8813H16.5703C13.5484 14.8813 13.3197 14.878 13.2119 14.8225C12.9734 14.7049 12.8852 14.4239 13.0061 14.1691C13.042 14.0973 13.6856 13.4275 14.6232 12.4867C16.1979 10.912 16.2534 10.8467 16.1456 10.7389C16.1162 10.7095 15.4726 10.6997 13.4504 10.6997H10.7911L10.8107 14.8976L10.9185 15.208C11.0721 15.6458 11.2485 15.93 11.5752 16.2567C11.9705 16.652 12.3952 16.8839 12.9179 16.9885C13.0878 17.0211 14.0319 17.0309 17.485 17.0342L21.8366 17.0375V15.1035Z" fill="black"/>
</svg>
