<svg width="30" height="30" viewBox="0 0 22 22" fill="none" xmlns="http://www.w3.org/2000/svg">
<circle cx="11" cy="11" r="10" fill="black"/>
<path d="M5.88817 14.4192C5.75188 14.0103 5.39509 12.3603 5.05835 9.03133V8.23755C5.40712 8.22953 6.13593 8.21831 6.261 8.23755C6.38608 8.25678 6.79417 8.45403 6.98259 8.55026L7.33138 10.0055V12.1462L7.80038 13.0361C8.01287 13.1483 8.47627 13.3801 8.63022 13.409C8.78417 13.4378 9.40793 13.6535 9.7006 13.7578L11.1798 13.9501H14.6194L16.1949 14.1065L16.4475 15.0205L16.0025 16.4397H13.9579L11.9014 16.2111H10.8671L9.2556 15.8984L7.80038 15.5857L6.54964 15.0205L5.88817 14.4192Z" fill="#00CC9B"/>
<path d="M5 6H13.5L16 8.5V14H11H9L7.5 12.5V8.5L5 8V6Z" fill="white"/>
<path d="M9.02711 17.1492C8.12748 17.0842 7.19664 16.7643 6.43897 16.2616C5.10885 15.3789 4.24774 14.0031 4.03368 12.4108C4.00722 12.2039 4 11.5208 4 8.57911V5L8.22849 5.00962C12.8635 5.01684 12.5797 5.00962 13.222 5.16115C13.9628 5.33674 14.73 5.70476 15.3146 6.16658C16.255 6.90259 16.9598 7.98498 17.2388 9.11547C17.3927 9.74564 17.3807 9.41852 17.3903 13.4763L17.3999 17.1733L13.3398 17.1708C11.1053 17.1684 9.16656 17.1588 9.02711 17.1492ZM15.9544 14.3109H12.7337C9.19785 14.3109 9.32294 14.3158 8.87316 14.1642C8.43059 14.0175 8.05532 13.7745 7.71377 13.4185C7.4083 13.0962 7.20386 12.7571 7.07157 12.3506C6.93928 11.9417 6.93447 11.8816 6.93447 10.2556V8.75471H5.44318V10.0608C5.44318 11.4847 5.46243 11.9249 5.5394 12.3265C5.84727 13.9213 7.07638 15.225 8.67113 15.6459C9.1642 15.7758 9.07276 15.7733 12.6422 15.7758L15.9544 15.7782V14.3109ZM15.9544 11.997C15.9544 11.1936 15.9423 10.4552 15.9303 10.3061C15.7307 8.21589 14.0854 6.58029 11.9976 6.39989C11.8148 6.38305 10.5545 6.37343 8.57726 6.37343H5.44318V7.86231L12.0457 7.87674L12.279 7.94168C12.8515 8.09803 13.2075 8.30007 13.5996 8.68255C13.8882 8.96631 14.083 9.24292 14.225 9.57247C14.427 10.0439 14.4631 10.2844 14.4631 11.1504V11.8335H12.077C9.85209 11.8335 9.68371 11.831 9.60434 11.7902C9.42874 11.7036 9.3638 11.4967 9.45282 11.3091C9.47925 11.2562 9.95311 10.7631 10.6434 10.0704C11.8028 8.91101 11.8437 8.86294 11.7643 8.78357C11.7427 8.76192 11.2688 8.75471 9.77994 8.75471H7.822L7.83643 11.8455L7.9158 12.074C8.02889 12.3963 8.15877 12.6056 8.3993 12.8461C8.69035 13.1371 9.00304 13.3079 9.38788 13.3849C9.51297 13.4089 10.2081 13.4161 12.7505 13.4185L15.9544 13.421V11.997Z" fill="black"/>
</svg>
