<svg width="28" height="28" viewBox="0 0 28 28" fill="none" xmlns="http://www.w3.org/2000/svg">
<circle cx="14" cy="14" r="14" fill="#EDEFF7"/>
<g clip-path="url(#clip0_1766_6943)">
<path d="M15.9213 10.1721C15.9213 7.46787 14.6128 5.1381 13.6105 4.37538C13.6105 4.37538 13.5409 4.33378 13.5409 4.44472C13.4574 9.67283 10.7986 11.1012 9.32302 13.0011C5.94035 17.411 9.08637 22.2369 12.2881 23.1245C14.0838 23.6237 11.8705 22.2369 11.592 19.3247C11.258 15.7885 15.9213 13.0981 15.9213 10.1721Z" fill="#282E5B"/>
<path d="M17.6747 11.9606C17.6607 11.9467 17.6329 11.9467 17.6051 11.9606C17.6051 11.9606 17.6051 11.9606 17.5911 11.9745C17.5355 12.6262 16.8116 14.0407 15.9068 15.3304C12.8304 19.7126 14.5843 21.8205 15.5727 22.9576C16.1434 23.6233 15.5727 22.9577 17.0065 22.2781C17.1179 22.2227 19.7906 20.8082 20.0829 17.6047C20.3752 14.4845 18.3846 12.5292 17.6747 11.9606Z" fill="#059BDC"/>
</g>
<defs>
<clipPath id="clip0_1766_6943">
<rect width="12.25" height="18.8462" fill="white" transform="translate(7.875 4.375)"/>
</clipPath>
</defs>
</svg>
