<svg width="22" height="22" viewBox="0 0 22 22" fill="none" xmlns="http://www.w3.org/2000/svg">
<circle cx="11" cy="11" r="10" fill="#181818"/>
<path d="M5 5.79285V16.3292H14.7549V15.1482H6.16822V6.97383H14.7549V5.79285H5Z" fill="white"/>
<path d="M15.724 9.84182C15.724 9.59147 15.6272 9.37378 15.4333 9.18877C15.2395 9.0037 14.9704 8.91117 14.6204 8.91117C14.3243 8.91117 14.0928 8.97105 13.9206 9.09624C13.7483 9.2214 13.6622 9.38468 13.6622 9.59147C13.6622 9.70032 13.6837 9.79829 13.7267 9.88535C13.7698 9.97245 13.8398 10.0486 13.9421 10.1194C14.0444 10.1901 14.179 10.25 14.3512 10.3044C14.5181 10.3588 14.7335 10.4078 14.9919 10.4568C15.6433 10.5766 16.1386 10.7779 16.4831 11.0554C16.8276 11.3385 16.9999 11.7521 16.9999 12.3017V12.4106C16.9999 12.7045 16.9461 12.9657 16.8438 13.2052C16.7415 13.4392 16.5908 13.6406 16.397 13.8093C16.2031 13.978 15.9663 14.1032 15.6863 14.1957C15.4064 14.2828 15.0942 14.3317 14.7442 14.3317C14.3351 14.3317 13.9798 14.2719 13.6675 14.1576C13.3553 14.0433 13.0969 13.88 12.8923 13.6732C12.6877 13.4664 12.5262 13.2269 12.4239 12.9494C12.3163 12.6718 12.2625 12.3671 12.2625 12.0405V11.9861H13.4307C13.4307 12.3616 13.5383 12.661 13.7537 12.8895C13.969 13.1127 14.3028 13.2269 14.7604 13.2269C15.1157 13.2269 15.3795 13.1508 15.5518 12.9929C15.724 12.8351 15.8102 12.6501 15.8102 12.4378C15.8102 12.3344 15.794 12.2419 15.7563 12.1439C15.7186 12.0514 15.6594 11.9698 15.5679 11.8936C15.4818 11.8174 15.358 11.7521 15.2018 11.6922C15.0457 11.6323 14.8519 11.5834 14.6151 11.5398C14.3028 11.4854 14.0175 11.4147 13.7537 11.3276C13.4953 11.2405 13.2692 11.1262 13.0754 10.9847C12.8815 10.8432 12.7362 10.6636 12.6285 10.4459C12.5208 10.2282 12.467 9.96701 12.467 9.65678V9.60238C12.467 9.34656 12.5208 9.10711 12.6231 8.88942C12.7254 8.67171 12.8708 8.48124 13.0592 8.31797C13.2476 8.15471 13.4684 8.02953 13.7321 7.94245C13.9959 7.85538 14.2866 7.8064 14.6151 7.8064C14.9811 7.8064 15.3041 7.86082 15.5895 7.96423C15.8748 8.06763 16.1117 8.20913 16.3054 8.38872C16.4993 8.56833 16.6285 8.78058 16.7415 9.00914C16.8815 9.28671 16.8869 9.8527 16.8869 9.8527L15.724 9.84182Z" fill="white"/>
</svg>
