<svg width="29" height="29" viewBox="0 0 29 29" fill="none" xmlns="http://www.w3.org/2000/svg">
<path d="M12.5648 0.459228C9.47716 1.05137 7.13677 2.27796 4.99377 4.42096C3.16094 6.23969 1.96255 8.3263 1.28582 10.8218C0.975646 12.0061 0.93335 12.4572 0.93335 14.3605C0.93335 16.2639 0.975646 16.715 1.28582 17.8993C1.96255 20.3948 3.16094 22.4814 4.99377 24.3001C7.84171 27.1621 11.5779 28.6143 15.5678 28.4169C19.2053 28.2336 22.3352 26.852 24.8729 24.3001C26.7058 22.4814 27.9041 20.3948 28.5809 17.8993C28.8911 16.715 28.9333 16.2639 28.9333 14.3605C28.9333 12.4572 28.8911 12.0061 28.5809 10.8218C27.9041 8.3263 26.7058 6.23969 24.8729 4.42096C23.0401 2.57403 20.9394 1.37564 18.4721 0.727103C16.7803 0.290044 14.1015 0.177254 12.5648 0.459228ZM21.7007 6.74724V7.59316H15.2858H8.87091V14.3605V21.1279H15.2858H21.7007V21.9738V22.8197H14.2989H6.8971V14.3605V5.90132H14.2989H21.7007V6.74724ZM22.9132 9.3555C23.7873 9.60928 24.6192 10.3001 24.9575 11.0332C25.4087 12.0343 25.3664 12.1047 24.2667 12.1047C23.3785 12.1047 23.2798 12.0765 23.1388 11.7664C22.9273 11.287 22.448 11.0191 21.7007 10.9205C20.9112 10.8218 20.1922 11.0755 19.8256 11.569C19.5859 11.8933 19.5718 12.0061 19.7128 12.3726C19.9243 12.8802 20.2909 13.0353 21.8417 13.3031C22.4902 13.4159 23.3221 13.6133 23.6745 13.7261C26.1277 14.5438 26.2969 17.8147 23.9565 19.0836C23.2939 19.4361 22.9837 19.5066 21.8981 19.5489C19.4026 19.6616 17.8659 18.7593 17.316 16.8701L17.2032 16.4753H18.2183C19.1912 16.4753 19.2475 16.4894 19.4731 16.8842C19.7974 17.4763 20.2909 17.7442 21.1791 17.8429C22.1096 17.9416 22.8709 17.716 23.2516 17.2226C23.6463 16.7291 23.604 16.2498 23.1388 15.7845C22.8145 15.4461 22.4902 15.3474 21.0663 15.0796C20.023 14.8822 19.163 14.6425 18.8105 14.431C17.2596 13.5287 17.175 11.0473 18.6695 9.91945C19.6423 9.17222 21.4892 8.93254 22.9132 9.3555Z" fill="black"/>
</svg>
