<svg width="28" height="28" viewBox="0 0 28 28" fill="none" xmlns="http://www.w3.org/2000/svg">
<path fill-rule="evenodd" clip-rule="evenodd" d="M13.954 6.58702C14.0497 6.59208 14.1449 6.57066 14.2275 6.52548C14.3101 6.48029 14.3765 6.41336 14.4181 6.33316C14.4598 6.25296 14.4749 6.16309 14.4615 6.07492C14.4482 5.98675 14.407 5.90423 14.3431 5.83782C14.2792 5.7714 14.1956 5.72407 14.1027 5.7018C14.0099 5.67953 13.912 5.68334 13.8215 5.71273C13.731 5.74212 13.6519 5.79578 13.5942 5.86692C13.5366 5.93806 13.5029 6.02348 13.4975 6.11239C13.4903 6.23152 13.5344 6.34843 13.6199 6.43743C13.7055 6.52643 13.8257 6.58023 13.954 6.58702ZM18.1706 6.81029C18.0952 6.81092 18.0213 6.79077 17.9582 6.75238C17.8738 6.70098 17.8147 6.62054 17.7941 6.52875C17.7735 6.43695 17.7929 6.3413 17.8482 6.26281C17.8894 6.20421 17.9484 6.15828 18.0178 6.13084C18.0872 6.10341 18.1638 6.09569 18.2378 6.10868C18.3119 6.12166 18.3802 6.15476 18.434 6.20379C18.4879 6.25281 18.5248 6.31556 18.5402 6.38409C18.5556 6.45263 18.5488 6.52386 18.5206 6.58879C18.4924 6.65372 18.4441 6.70942 18.3818 6.74885C18.3195 6.78828 18.246 6.80966 18.1706 6.81029ZM9.96828 6.78953C10.0352 6.75763 10.0904 6.70807 10.127 6.64709C10.1637 6.58611 10.18 6.51642 10.1741 6.44682C10.1682 6.37721 10.1402 6.31079 10.0937 6.25591C10.0472 6.20103 9.98426 6.16016 9.9128 6.13843C9.84134 6.11669 9.76455 6.11508 9.6921 6.13378C9.61965 6.15249 9.55478 6.19067 9.50566 6.24354C9.45653 6.2964 9.42535 6.36158 9.41603 6.43087C9.4067 6.50015 9.41967 6.57045 9.45328 6.63291C9.47587 6.67472 9.50716 6.71196 9.54532 6.74249C9.58349 6.77302 9.62779 6.79624 9.67566 6.8108C9.72353 6.82535 9.77404 6.83097 9.82426 6.82732C9.87448 6.82367 9.92343 6.81083 9.96828 6.78953ZM10.3422 13.9304C10.1341 13.7134 10.0273 13.4286 10.0452 13.1385L10.042 13.1391C10.0552 12.9258 10.1354 12.7208 10.2726 12.5493C10.4098 12.3778 10.5981 12.2474 10.8143 12.1742C11.0304 12.101 11.2649 12.0881 11.4888 12.1372C11.7127 12.1863 11.9162 12.2951 12.0743 12.4504C12.2323 12.6056 12.3379 12.8005 12.3781 13.0108C12.4183 13.2212 12.3912 13.4378 12.3003 13.6341C12.2094 13.8303 12.0586 13.9976 11.8665 14.1152C11.6744 14.2327 11.4495 14.2955 11.2194 14.2958H11.155C10.8427 14.2788 10.5503 14.1474 10.3422 13.9304ZM5.43716 12.9089C5.50195 12.8734 5.57661 12.8565 5.65172 12.8604C5.70168 12.863 5.75061 12.8746 5.79571 12.8947C5.8408 12.9149 5.88117 12.9431 5.91449 12.9777C5.94781 13.0124 5.97343 13.0528 5.98987 13.0967C6.00631 13.1406 6.01325 13.1871 6.01029 13.2334C6.00597 13.3032 5.97949 13.3702 5.93419 13.4259C5.88889 13.4817 5.8268 13.5237 5.75577 13.5467C5.68475 13.5697 5.60797 13.5727 5.53515 13.5552C5.46232 13.5377 5.39672 13.5005 5.34663 13.4484C5.29654 13.3963 5.2642 13.3316 5.25372 13.2624C5.24323 13.1932 5.25506 13.1227 5.28771 13.0598C5.32036 12.9969 5.37237 12.9444 5.43716 12.9089ZM11.4134 8.50548C11.3561 8.59953 11.2701 8.6757 11.1662 8.72436C11.0972 8.75669 11.022 8.77608 10.9449 8.7814C10.8678 8.78673 10.7903 8.7779 10.7169 8.75542C10.6435 8.73294 10.5756 8.69724 10.517 8.65037C10.4585 8.6035 10.4104 8.54638 10.3757 8.48226C10.3233 8.38576 10.303 8.27702 10.3172 8.16979C10.3314 8.06256 10.3796 7.96164 10.4555 7.87981C10.5315 7.79798 10.6319 7.73889 10.744 7.71004C10.8562 7.68118 10.975 7.68384 11.0855 7.71768C11.196 7.75152 11.2932 7.81502 11.3648 7.90016C11.4365 7.98529 11.4793 8.08824 11.488 8.19599C11.4966 8.30373 11.4706 8.41144 11.4134 8.50548ZM7.14321 10.0559C7.22334 10.1049 7.3173 10.1306 7.4132 10.13C7.5091 10.1293 7.60263 10.1022 7.68196 10.0522C7.76129 10.0021 7.82285 9.93137 7.85885 9.84883C7.89485 9.76629 7.90368 9.67569 7.88421 9.58849C7.86474 9.50129 7.81786 9.42142 7.74949 9.35897C7.68112 9.29652 7.59434 9.2543 7.50013 9.23766C7.40591 9.22102 7.3085 9.23071 7.22021 9.26549C7.13193 9.30028 7.05674 9.3586 7.00416 9.43307C6.93374 9.53282 6.90883 9.65444 6.9349 9.77122C6.96097 9.88801 7.03589 9.99042 7.14321 10.0559ZM7.52891 12.7361C7.62914 12.6812 7.74464 12.6552 7.8608 12.6613C8.01665 12.6696 8.16256 12.735 8.26649 12.8432C8.37042 12.9513 8.42386 13.0934 8.41507 13.2381C8.40839 13.346 8.36743 13.4496 8.29736 13.5358C8.22729 13.6221 8.13125 13.6871 8.0214 13.7227C7.91154 13.7582 7.79279 13.7628 7.68016 13.7357C7.56752 13.7086 7.46607 13.6511 7.38861 13.5705C7.31115 13.4899 7.26117 13.3898 7.24498 13.2828C7.22879 13.1758 7.24713 13.0668 7.29766 12.9694C7.3482 12.8721 7.42867 12.7909 7.52891 12.7361ZM7.2072 16.3348C7.12165 16.3749 7.05084 16.4377 7.00372 16.5152C6.9566 16.5927 6.93528 16.6815 6.94247 16.7702C6.94966 16.859 6.98502 16.9438 7.04409 17.0139C7.10316 17.084 7.18329 17.1362 7.27434 17.1641C7.36539 17.1919 7.46328 17.194 7.55564 17.1702C7.64799 17.1464 7.73067 17.0976 7.79321 17.0302C7.85575 16.9627 7.89535 16.8796 7.907 16.7912C7.91866 16.7029 7.90184 16.6133 7.85868 16.5338C7.83 16.481 7.7904 16.434 7.74213 16.3954C7.69386 16.3568 7.63787 16.3274 7.57737 16.3089C7.51686 16.2904 7.45303 16.2832 7.38952 16.2876C7.326 16.2921 7.26405 16.3081 7.2072 16.3348ZM9.87974 11.6375C9.74276 11.6386 9.60849 11.602 9.49391 11.5322C9.41775 11.486 9.35216 11.4262 9.3009 11.3564C9.24964 11.2866 9.21371 11.2081 9.19517 11.1253C9.17664 11.0426 9.17585 10.9573 9.19287 10.8743C9.20989 10.7913 9.24437 10.7122 9.29435 10.6416C9.36947 10.5352 9.47687 10.4519 9.60297 10.4022C9.72908 10.3525 9.86822 10.3386 10.0028 10.3624C10.1374 10.3861 10.2614 10.4463 10.3591 10.5355C10.4568 10.6247 10.5238 10.7387 10.5517 10.8633C10.5797 10.9878 10.5672 11.1172 10.5159 11.2352C10.4645 11.3531 10.3767 11.4543 10.2635 11.5259C10.1503 11.5975 10.0167 11.6363 9.87974 11.6375ZM16.7505 8.68184C16.8481 8.74093 16.9623 8.77183 17.0788 8.77065C17.1952 8.76946 17.3087 8.73624 17.4048 8.67518C17.501 8.61413 17.5755 8.52797 17.6189 8.42761C17.6623 8.32725 17.6727 8.21719 17.6488 8.11134C17.6248 8.00549 17.5677 7.9086 17.4844 7.83293C17.4012 7.75726 17.2957 7.70619 17.1812 7.68619C17.0668 7.66619 16.9485 7.67815 16.8413 7.72056C16.7342 7.76297 16.643 7.83393 16.5793 7.92446C16.5368 7.98459 16.5076 8.05191 16.4932 8.12256C16.4789 8.19321 16.4797 8.26579 16.4956 8.33615C16.5115 8.40651 16.5422 8.47326 16.5859 8.53258C16.6297 8.5919 16.6856 8.64262 16.7505 8.68184ZM16.843 12.097C16.6885 12.0888 16.5338 12.1089 16.3876 12.1562C16.2415 12.2034 16.1068 12.277 15.9913 12.3726C15.758 12.5657 15.6168 12.8369 15.5989 13.1267C15.581 13.4164 15.6878 13.7009 15.8957 13.9175C16.1037 14.1342 16.3958 14.2652 16.7078 14.2819H16.776C17.0033 14.2818 17.2257 14.2206 17.4164 14.1058C17.6071 13.9909 17.758 13.8273 17.8508 13.6347C17.9436 13.442 17.9745 13.2285 17.9395 13.02C17.9046 12.8114 17.8055 12.6167 17.6541 12.4593C17.5516 12.3519 17.427 12.2646 17.2878 12.2024C17.1485 12.1402 16.9973 12.1044 16.843 12.097ZM11.9835 11.897C11.7974 11.7907 11.647 11.6382 11.5492 11.4568C11.4593 11.29 11.4167 11.1047 11.4256 10.9184C11.4344 10.7322 11.4944 10.551 11.5997 10.3923C11.7051 10.2336 11.8524 10.1024 12.0277 10.0114C12.2029 9.92036 12.4003 9.8724 12.6011 9.87208C12.8191 9.87111 13.0331 9.92652 13.2191 10.0321C13.4051 10.1377 13.5558 10.2893 13.6543 10.4699C13.7453 10.6367 13.7887 10.8225 13.7804 11.0094C13.7721 11.1963 13.7123 11.3781 13.6068 11.5374C13.5013 11.6968 13.3536 11.8283 13.1778 11.9196C13.002 12.0109 12.8039 12.0588 12.6024 12.0587C12.3839 12.0594 12.1696 12.0034 11.9835 11.897ZM20.7913 10.0546C20.8769 10.0145 20.9477 9.95177 20.9949 9.87429C21.0421 9.79682 21.0635 9.7081 21.0563 9.61935C21.0492 9.5306 21.0139 9.4458 20.9549 9.37566C20.8959 9.30553 20.8159 9.25321 20.7249 9.22531C20.6338 9.19742 20.536 9.19521 20.4436 9.21895C20.3512 9.2427 20.2685 9.29134 20.2059 9.35872C20.1433 9.42611 20.1036 9.50921 20.0919 9.59754C20.0801 9.68586 20.0968 9.77544 20.1399 9.85496C20.1978 9.9616 20.2989 10.0425 20.4211 10.08C20.5433 10.1174 20.6764 10.1083 20.7913 10.0546ZM17.5126 10.6605C17.5801 10.5498 17.6814 10.4602 17.8038 10.4029C17.885 10.3649 17.9735 10.342 18.0643 10.3358C18.155 10.3295 18.2462 10.3399 18.3326 10.3664C18.419 10.3929 18.4989 10.4349 18.5678 10.4901C18.6367 10.5453 18.6932 10.6126 18.734 10.6881C18.7957 10.8017 18.8196 10.9297 18.8029 11.056C18.7861 11.1822 18.7294 11.3011 18.64 11.3974C18.5505 11.4938 18.4323 11.5633 18.3003 11.5973C18.1683 11.6312 18.0283 11.6281 17.8982 11.5882C17.7682 11.5483 17.6537 11.4735 17.5694 11.3732C17.4851 11.273 17.4347 11.1517 17.4246 11.0249C17.4145 10.898 17.4451 10.7712 17.5126 10.6605ZM14.3373 9.33175C14.2193 9.39635 14.0834 9.42704 13.9466 9.41992C13.7631 9.4102 13.5912 9.33322 13.4688 9.20587C13.3464 9.07853 13.2835 8.91127 13.2938 8.74085C13.3017 8.61388 13.3499 8.49193 13.4324 8.39039C13.5149 8.28886 13.6279 8.21231 13.7572 8.17042C13.8865 8.12853 14.0263 8.12317 14.1589 8.15503C14.2915 8.18689 14.4109 8.25453 14.5021 8.34941C14.5934 8.44429 14.6522 8.56214 14.6713 8.68807C14.6904 8.81401 14.6689 8.94237 14.6094 9.05694C14.5499 9.17151 14.4552 9.26714 14.3373 9.33175ZM10.1989 15.9854C10.3212 15.9281 10.4225 15.8384 10.4899 15.7277C10.5574 15.6169 10.588 15.4901 10.5778 15.3632C10.5676 15.2364 10.5171 15.1151 10.4327 15.0149C10.3484 14.9147 10.2339 14.8399 10.1037 14.8001C9.9736 14.7603 9.83368 14.7572 9.70167 14.7913C9.56965 14.8253 9.45147 14.895 9.36208 14.9914C9.27269 15.0878 9.2161 15.2066 9.19946 15.3329C9.18283 15.4592 9.2069 15.5872 9.26863 15.7008C9.35138 15.8531 9.49585 15.9686 9.67029 16.0219C9.84473 16.0753 10.0349 16.0621 10.1989 15.9854ZM14.2053 11.0466C14.184 10.804 14.2504 10.5617 14.3941 10.3581C14.5015 10.2061 14.6479 10.0814 14.8202 9.99507C14.9925 9.90877 15.1852 9.86364 15.381 9.86377C15.6431 9.86408 15.8976 9.94556 16.1043 10.0953C16.3109 10.245 16.4579 10.4545 16.5219 10.6905C16.5859 10.9266 16.5633 11.1757 16.4577 11.3984C16.3521 11.6212 16.1695 11.8049 15.9388 11.9205C15.7081 12.036 15.4425 12.0768 15.184 12.0365C14.9255 11.9961 14.6889 11.8768 14.5117 11.6975C14.3344 11.5182 14.2266 11.2891 14.2053 11.0466ZM16.4419 14.9327C16.3475 14.7589 16.2049 14.6116 16.0287 14.5061C15.8526 14.4005 15.6493 14.3405 15.4399 14.3323C15.2305 14.324 15.0225 14.3678 14.8374 14.4591C14.6522 14.5504 14.4967 14.686 14.3868 14.8517C14.2769 15.0175 14.2166 15.2074 14.2122 15.402C14.2077 15.5966 14.2593 15.7888 14.3615 15.9587C14.4638 16.1287 14.613 16.2702 14.7937 16.3687C14.9745 16.4672 15.1804 16.5191 15.39 16.5191C15.5744 16.518 15.756 16.477 15.9204 16.3996C16.1986 16.2688 16.4097 16.0411 16.5074 15.7661C16.6051 15.4912 16.5816 15.1915 16.4419 14.9327ZM18.1166 14.751C18.2536 14.75 18.3878 14.7867 18.5023 14.8565C18.6557 14.9503 18.7627 15.0967 18.7999 15.2637C18.8372 15.4306 18.8017 15.6045 18.7013 15.7472C18.6261 15.8535 18.5186 15.9368 18.3925 15.9864C18.2663 16.036 18.1272 16.0498 17.9926 16.026C17.858 16.0022 17.7341 15.9419 17.6364 15.8527C17.5388 15.7635 17.4718 15.6494 17.444 15.5248C17.4161 15.4002 17.4287 15.2708 17.4801 15.1529C17.5315 15.035 17.6194 14.9338 17.7327 14.8623C17.846 14.7908 17.9796 14.752 18.1166 14.751ZM20.7571 13.2131C20.7637 13.1053 20.7357 12.998 20.6766 12.9049C20.6175 12.8119 20.53 12.7371 20.4252 12.6902C20.3204 12.6433 20.203 12.6263 20.0878 12.6413C19.9726 12.6563 19.8648 12.7027 19.7779 12.7747C19.6911 12.8466 19.6292 12.9408 19.6001 13.0454C19.5709 13.15 19.5758 13.2602 19.6141 13.3623C19.6524 13.4643 19.7224 13.5534 19.8153 13.6185C19.9082 13.6836 20.0197 13.7216 20.1359 13.7278C20.2918 13.736 20.4447 13.6864 20.5612 13.5898C20.6777 13.4933 20.7482 13.3578 20.7571 13.2131ZM22.177 12.8728C22.242 12.8373 22.3169 12.8205 22.3921 12.8246C22.493 12.8301 22.5873 12.8725 22.6545 12.9426C22.7217 13.0126 22.7563 13.1045 22.7507 13.1982C22.7464 13.268 22.7198 13.3352 22.6744 13.391C22.629 13.4469 22.5668 13.489 22.4956 13.512C22.4244 13.5351 22.3475 13.538 22.2745 13.5204C22.2016 13.5028 22.1358 13.4656 22.0857 13.4133C22.0355 13.361 22.0032 13.2962 21.9928 13.2268C21.9823 13.1575 21.9943 13.0869 22.0271 13.0239C22.0599 12.9609 22.1121 12.9083 22.177 12.8728ZM20.8559 16.3331C20.7757 16.2843 20.6817 16.2587 20.5859 16.2595C20.49 16.2603 20.3966 16.2875 20.3174 16.3376C20.2382 16.3878 20.1767 16.4586 20.1408 16.5411C20.1049 16.6236 20.0962 16.7142 20.1157 16.8013C20.1352 16.8885 20.1821 16.9683 20.2505 17.0307C20.3189 17.0931 20.4056 17.1352 20.4998 17.1519C20.594 17.1685 20.6913 17.1588 20.7796 17.124C20.8678 17.0893 20.943 17.031 20.9956 16.9566C21.0305 16.9071 21.0546 16.8518 21.0665 16.7937C21.0784 16.7356 21.0778 16.6759 21.0649 16.618C21.0519 16.5601 21.0268 16.5051 20.9909 16.4562C20.955 16.4073 20.9092 16.3655 20.8559 16.3331ZM9.831 19.5794C9.90636 19.5788 9.98022 19.599 10.0432 19.6374C10.0851 19.6629 10.1211 19.6958 10.1493 19.7342C10.1774 19.7727 10.1972 19.8159 10.2073 19.8614C10.2175 19.9069 10.2179 19.9538 10.2085 19.9995C10.1991 20.0452 10.1802 20.0887 10.1527 20.1275C10.1113 20.186 10.0522 20.2318 9.98276 20.2591C9.91336 20.2864 9.83681 20.294 9.76277 20.2808C9.68874 20.2677 9.62055 20.2345 9.56684 20.1855C9.51312 20.1364 9.47628 20.0736 9.46098 20.0051C9.44569 19.9365 9.45261 19.8653 9.48088 19.8005C9.50916 19.7356 9.55751 19.68 9.61983 19.6406C9.68215 19.6013 9.75564 19.5799 9.831 19.5794ZM18.0251 19.5996C17.9578 19.6311 17.902 19.6804 17.8649 19.7414C17.8278 19.8023 17.811 19.8721 17.8166 19.9419C17.8221 20.0117 17.8499 20.0784 17.8963 20.1335C17.9427 20.1887 18.0057 20.2298 18.0773 20.2517C18.1489 20.2736 18.2259 20.2753 18.2985 20.2566C18.3712 20.2379 18.4362 20.1996 18.4854 20.1465C18.5346 20.0935 18.5657 20.0281 18.5749 19.9586C18.584 19.8892 18.5708 19.8187 18.5369 19.7562C18.5144 19.7147 18.4833 19.6777 18.4454 19.6473C18.4075 19.6169 18.3635 19.5938 18.316 19.5793C18.2684 19.5647 18.2183 19.559 18.1683 19.5625C18.1184 19.566 18.0697 19.5786 18.0251 19.5996ZM13.7888 15.3407C13.8101 15.5833 13.7436 15.8256 13.6 16.0292C13.4931 16.1815 13.3469 16.3065 13.1746 16.3929C13.0023 16.4792 12.8095 16.5242 12.6137 16.5235C12.3516 16.5234 12.097 16.442 11.8903 16.2923C11.6835 16.1427 11.5364 15.9332 11.4723 15.6972C11.4082 15.4612 11.4307 15.212 11.5362 14.9892C11.6417 14.7664 11.8243 14.5826 12.055 14.467C12.2857 14.3514 12.5513 14.3105 12.8098 14.3508C13.0683 14.3912 13.305 14.5104 13.4823 14.6897C13.6596 14.869 13.7675 15.0981 13.7888 15.3407ZM11.2464 17.7076C11.1491 17.6484 11.035 17.6174 10.9187 17.6184C10.8023 17.6195 10.6889 17.6525 10.5928 17.7134C10.4967 17.7743 10.4222 17.8602 10.3786 17.9604C10.3351 18.0606 10.3246 18.1705 10.3483 18.2763C10.3721 18.3821 10.4291 18.4789 10.5121 18.5546C10.5951 18.6303 10.7004 18.6814 10.8147 18.7016C10.929 18.7217 11.0472 18.7099 11.1543 18.6677C11.2614 18.6254 11.3526 18.5547 11.4164 18.4643C11.5018 18.343 11.5319 18.1952 11.5001 18.0533C11.4682 17.9114 11.377 17.787 11.2464 17.7076ZM13.7235 19.8638C13.8061 19.8186 13.9012 19.7972 13.9969 19.8022C14.0605 19.8056 14.1228 19.8206 14.1801 19.8463C14.2375 19.872 14.2888 19.9079 14.3312 19.952C14.3736 19.9962 14.4062 20.0476 14.4272 20.1035C14.4481 20.1593 14.457 20.2184 14.4534 20.2775C14.4479 20.3663 14.4141 20.4517 14.3564 20.5227C14.2986 20.5938 14.2195 20.6474 14.129 20.6767C14.0385 20.706 13.9406 20.7097 13.8478 20.6874C13.755 20.665 13.6715 20.6177 13.6076 20.5512C13.5438 20.4848 13.5027 20.4023 13.4894 20.3141C13.4761 20.226 13.4912 20.1361 13.5329 20.056C13.5745 19.9758 13.6409 19.9089 13.7235 19.8638ZM13.999 16.9702C13.8622 16.9625 13.7259 16.9926 13.6075 17.0569C13.4892 17.1211 13.394 17.2165 13.334 17.331C13.2741 17.4456 13.2521 17.574 13.2709 17.7001C13.2896 17.8263 13.3482 17.9444 13.4393 18.0395C13.5304 18.1347 13.6499 18.2026 13.7826 18.2347C13.9153 18.2667 14.0553 18.2615 14.1848 18.2196C14.3143 18.1778 14.4275 18.1012 14.51 17.9995C14.5926 17.8979 14.6408 17.7758 14.6486 17.6486C14.6592 17.4787 14.5967 17.3119 14.4749 17.1847C14.3531 17.0575 14.182 16.9803 13.999 16.9702ZM16.5843 17.8847C16.6414 17.7903 16.7274 17.7138 16.8313 17.6648C16.9001 17.6322 16.9752 17.6125 17.0523 17.6069C17.1293 17.6013 17.2068 17.6098 17.2803 17.632C17.3538 17.6542 17.4218 17.6897 17.4805 17.7363C17.5393 17.783 17.5875 17.84 17.6225 17.9039C17.6755 18.0003 17.6965 18.1092 17.6828 18.2167C17.6692 18.3242 17.6215 18.4255 17.5458 18.5078C17.4701 18.5901 17.3698 18.6497 17.2576 18.6791C17.1454 18.7084 17.0264 18.7062 16.9155 18.6727C16.8047 18.6392 16.707 18.5759 16.635 18.4909C16.5629 18.4058 16.5196 18.3028 16.5106 18.1949C16.5015 18.087 16.5272 17.979 16.5843 17.8847Z" fill="white"/>
<circle cx="14" cy="14" r="14" fill="url(#paint0_linear_1782_3172)"/>
<g clip-path="url(#clip0_1782_3172)">
<path d="M8.54049 17.4319C8.63026 17.3443 8.75369 17.2932 8.8846 17.2932H20.7562C20.9731 17.2932 21.0816 17.5487 20.9282 17.6983L18.5831 19.9864C18.4933 20.074 18.3699 20.1251 18.239 20.1251H6.36741C6.15047 20.1251 6.042 19.8697 6.19535 19.72L8.54049 17.4319Z" fill="white"/>
<path d="M8.54001 8.88868C8.63351 8.80109 8.75694 8.75 8.88411 8.75H20.7557C20.9726 8.75 21.0811 9.00545 20.9277 9.15508L18.5826 11.4432C18.4928 11.5308 18.3694 11.5819 18.2385 11.5819H6.36692C6.14998 11.5819 6.04152 11.3264 6.19487 11.1768L8.54001 8.88868Z" fill="white"/>
<path d="M18.5831 13.1328C18.4933 13.0452 18.3699 12.9941 18.239 12.9941H6.36741C6.15047 12.9941 6.042 13.2496 6.19535 13.3992L8.54049 15.6874C8.63026 15.7749 8.75369 15.826 8.8846 15.826H20.7562C20.9731 15.826 21.0816 15.5706 20.9282 15.421L18.5831 13.1328Z" fill="white"/>
</g>
<defs>
<linearGradient id="paint0_linear_1782_3172" x1="23.1875" y1="0.4375" x2="14" y2="28" gradientUnits="userSpaceOnUse">
<stop offset="0.0218611" stop-color="#00FFA3"/>
<stop offset="1" stop-color="#D724FD"/>
</linearGradient>
<clipPath id="clip0_1782_3172">
<rect width="14.875" height="11.375" fill="white" transform="translate(6.125 8.75)"/>
</clipPath>
</defs>
</svg>
