<svg width="26" height="26" viewBox="0 0 26 26" fill="none" xmlns="http://www.w3.org/2000/svg">
<circle cx="13" cy="13" r="13" fill="#0033AD"/>
<path fill-rule="evenodd" clip-rule="evenodd" d="M12.9572 6.58702C13.0461 6.59208 13.1345 6.57066 13.2112 6.52548C13.2879 6.48029 13.3495 6.41336 13.3882 6.33316C13.4269 6.25296 13.4409 6.16309 13.4285 6.07492C13.4161 5.98675 13.3778 5.90423 13.3185 5.83782C13.2592 5.7714 13.1815 5.72407 13.0953 5.7018C13.0091 5.67953 12.9182 5.68334 12.8342 5.71273C12.7501 5.74212 12.6767 5.79578 12.6231 5.86692C12.5696 5.93806 12.5383 6.02348 12.5333 6.11239C12.5266 6.23152 12.5675 6.34843 12.647 6.43743C12.7265 6.52643 12.838 6.58023 12.9572 6.58702ZM16.8727 6.8102C16.8027 6.81083 16.7341 6.79067 16.6755 6.75229C16.5971 6.70089 16.5423 6.62045 16.5231 6.52866C16.504 6.43686 16.522 6.34121 16.5733 6.26272C16.6116 6.20412 16.6665 6.15819 16.7309 6.13075C16.7953 6.10332 16.8664 6.0956 16.9352 6.10859C17.004 6.12157 17.0674 6.15467 17.1173 6.2037C17.1673 6.25272 17.2016 6.31547 17.216 6.384C17.2303 6.45254 17.2239 6.52377 17.1977 6.5887C17.1715 6.65363 17.1267 6.70933 17.0688 6.74876C17.011 6.78819 16.9427 6.80957 16.8727 6.8102ZM9.2565 6.78947C9.31861 6.75757 9.3699 6.70801 9.40391 6.64703C9.43792 6.58604 9.45312 6.51636 9.44762 6.44675C9.44211 6.37715 9.41613 6.31072 9.37296 6.25585C9.32978 6.20097 9.27134 6.16009 9.20498 6.13836C9.13862 6.11663 9.06732 6.11501 9.00004 6.13372C8.93277 6.15242 8.87253 6.19061 8.82692 6.24347C8.7813 6.29634 8.75234 6.36152 8.74369 6.4308C8.73503 6.50009 8.74707 6.57039 8.77828 6.63285C8.79926 6.67466 8.82831 6.7119 8.86375 6.74243C8.89919 6.77296 8.94032 6.79617 8.98478 6.81073C9.02923 6.82529 9.07613 6.83091 9.12276 6.82726C9.1694 6.82361 9.21485 6.81076 9.2565 6.78947ZM9.6037 13.9303C9.41046 13.7133 9.31128 13.4284 9.32793 13.1384L9.32494 13.139C9.3372 12.9257 9.41164 12.7207 9.53907 12.5492C9.66651 12.3777 9.84136 12.2473 10.042 12.1741C10.2427 12.1009 10.4605 12.088 10.6684 12.1371C10.8763 12.1861 11.0653 12.295 11.2121 12.4503C11.3588 12.6055 11.4569 12.8004 11.4942 13.0107C11.5315 13.2211 11.5064 13.4377 11.422 13.634C11.3375 13.8302 11.1975 13.9975 11.0191 14.115C10.8408 14.2326 10.6319 14.2954 10.4183 14.2956H10.3585C10.0684 14.2787 9.79694 14.1473 9.6037 13.9303ZM5.04879 12.9089C5.10895 12.8734 5.17828 12.8565 5.24803 12.8604C5.29442 12.863 5.33986 12.8746 5.38173 12.8947C5.4236 12.9149 5.46109 12.9431 5.49203 12.9777C5.52297 13.0124 5.54675 13.0528 5.56202 13.0967C5.57728 13.1406 5.58373 13.1871 5.58098 13.2334C5.57697 13.3032 5.55238 13.3702 5.51032 13.4259C5.46825 13.4817 5.4106 13.5237 5.34465 13.5467C5.2787 13.5697 5.2074 13.5727 5.13978 13.5552C5.07216 13.5377 5.01124 13.5005 4.96473 13.4484C4.91821 13.3963 4.88819 13.3316 4.87845 13.2624C4.86871 13.1932 4.8797 13.1227 4.91002 13.0598C4.94033 12.9969 4.98863 12.9444 5.04879 12.9089ZM10.598 8.50537C10.5448 8.59942 10.4649 8.67558 10.3685 8.72425C10.3044 8.75657 10.2345 8.77596 10.163 8.78129C10.0914 8.78662 10.0194 8.77779 9.95126 8.7553C9.88309 8.73282 9.82002 8.69712 9.76565 8.65025C9.71128 8.60339 9.66668 8.54626 9.6344 8.48215C9.58581 8.38565 9.56692 8.27691 9.58012 8.16967C9.59332 8.06244 9.63802 7.96153 9.70857 7.87969C9.77911 7.79786 9.87234 7.73878 9.97646 7.70992C10.0806 7.68106 10.1909 7.68372 10.2935 7.71756C10.3961 7.7514 10.4864 7.8149 10.5529 7.90004C10.6194 7.98517 10.6592 8.08812 10.6672 8.19587C10.6753 8.30361 10.6512 8.41132 10.598 8.50537ZM6.63322 10.0559C6.70762 10.1049 6.79487 10.1306 6.88392 10.13C6.97297 10.1293 7.05982 10.1022 7.13348 10.0522C7.20714 10.0021 7.26431 9.93136 7.29774 9.84882C7.33117 9.76628 7.33936 9.67568 7.32129 9.58848C7.30321 9.50129 7.25968 9.42141 7.19619 9.35896C7.1327 9.29651 7.05212 9.25429 6.96464 9.23765C6.87715 9.22102 6.7867 9.2307 6.70472 9.26548C6.62274 9.30027 6.55292 9.35859 6.5041 9.43306C6.4387 9.53281 6.41557 9.65443 6.43978 9.77121C6.46399 9.888 6.53356 9.99041 6.63322 10.0559ZM6.99089 12.7362C7.08397 12.6813 7.19121 12.6553 7.29908 12.6614C7.44379 12.6697 7.57929 12.7351 7.67579 12.8433C7.7723 12.9515 7.82192 13.0935 7.81376 13.2382C7.80756 13.3461 7.76952 13.4497 7.70446 13.5359C7.63939 13.6222 7.55022 13.6872 7.4482 13.7228C7.34619 13.7584 7.23593 13.7629 7.13134 13.7358C7.02675 13.7087 6.93254 13.6512 6.86062 13.5706C6.78869 13.49 6.74228 13.3899 6.72725 13.2829C6.71222 13.1759 6.72924 13.0669 6.77617 12.9696C6.82309 12.8723 6.89782 12.791 6.99089 12.7362ZM6.69255 16.3348C6.61311 16.375 6.54735 16.4378 6.5036 16.5153C6.45984 16.5928 6.44005 16.6815 6.44672 16.7703C6.4534 16.8591 6.48623 16.9438 6.54108 17.0139C6.59594 17.084 6.67034 17.1363 6.75489 17.1641C6.83944 17.192 6.93034 17.1941 7.01609 17.1702C7.10185 17.1464 7.17862 17.0977 7.2367 17.0302C7.29477 16.9628 7.33154 16.8796 7.34236 16.7913C7.35318 16.7029 7.33757 16.6134 7.29749 16.5339C7.27086 16.4811 7.23408 16.434 7.18926 16.3954C7.14444 16.3569 7.09245 16.3275 7.03627 16.309C6.98009 16.2905 6.92082 16.2833 6.86184 16.2877C6.80286 16.2921 6.74533 16.3082 6.69255 16.3348ZM9.17381 11.6375C9.04661 11.6387 8.92193 11.602 8.81554 11.5323C8.74482 11.4861 8.68391 11.4263 8.63631 11.3565C8.58871 11.2867 8.55535 11.2081 8.53814 11.1254C8.52093 11.0427 8.5202 10.9574 8.536 10.8744C8.55181 10.7913 8.58383 10.7123 8.63023 10.6416C8.69999 10.5353 8.79972 10.452 8.91681 10.4023C9.03391 10.3526 9.16311 10.3387 9.28808 10.3624C9.41306 10.3862 9.52819 10.4464 9.61892 10.5356C9.70965 10.6247 9.77191 10.7388 9.79782 10.8633C9.82373 10.9879 9.81213 11.1173 9.76449 11.2352C9.71685 11.3532 9.6353 11.4544 9.53016 11.526C9.42502 11.5976 9.30101 11.6364 9.17381 11.6375ZM15.5542 8.68175C15.6448 8.74083 15.7509 8.77174 15.859 8.77056C15.9672 8.76937 16.0725 8.73615 16.1618 8.67509C16.2511 8.61403 16.3203 8.52788 16.3606 8.42752C16.4009 8.32716 16.4106 8.2171 16.3883 8.11125C16.3661 8.0054 16.313 7.90851 16.2357 7.83284C16.1585 7.75717 16.0605 7.7061 15.9542 7.6861C15.8479 7.6661 15.7381 7.67806 15.6386 7.72047C15.5391 7.76288 15.4544 7.83384 15.3952 7.92437C15.3558 7.9845 15.3287 8.05182 15.3153 8.12247C15.302 8.19312 15.3027 8.2657 15.3175 8.33606C15.3323 8.40642 15.3608 8.47317 15.4014 8.53249C15.442 8.59181 15.494 8.64253 15.5542 8.68175ZM15.64 12.0969C15.4965 12.0887 15.3529 12.1088 15.2172 12.156C15.0815 12.2033 14.9564 12.2769 14.8492 12.3725C14.6325 12.5656 14.5015 12.8368 14.4848 13.1266C14.4682 13.4163 14.5673 13.7008 14.7604 13.9174C14.9535 14.1341 15.2247 14.2651 15.5145 14.2818H15.5778C15.7889 14.2817 15.9954 14.2205 16.1725 14.1057C16.3496 13.9908 16.4897 13.8272 16.5758 13.6346C16.662 13.4419 16.6907 13.2284 16.6582 13.0199C16.6258 12.8113 16.5338 12.6166 16.3932 12.4592C16.298 12.3518 16.1823 12.2645 16.053 12.2023C15.9237 12.1401 15.7833 12.1043 15.64 12.0969ZM11.1277 11.897C10.9549 11.7906 10.8153 11.6381 10.7245 11.4567C10.641 11.29 10.6014 11.1047 10.6096 10.9184C10.6178 10.7321 10.6735 10.551 10.7714 10.3922C10.8692 10.2335 11.006 10.1024 11.1687 10.0113C11.3315 9.9203 11.5148 9.87235 11.7012 9.87203C11.9037 9.87106 12.1024 9.92647 12.2751 10.032C12.4478 10.1376 12.5877 10.2892 12.6792 10.4698C12.7637 10.6367 12.804 10.8224 12.7963 11.0093C12.7885 11.1962 12.7331 11.378 12.6351 11.5374C12.5371 11.6967 12.4 11.8283 12.2367 11.9196C12.0734 12.0108 11.8895 12.0587 11.7024 12.0587C11.4995 12.0593 11.3005 12.0033 11.1277 11.897ZM19.3061 10.0547C19.3855 10.0146 19.4513 9.95182 19.4951 9.87435C19.5389 9.79688 19.5588 9.70816 19.5522 9.61941C19.5456 9.53065 19.5128 9.44585 19.458 9.37572C19.4032 9.30558 19.3289 9.25326 19.2444 9.22537C19.1599 9.19748 19.069 9.19526 18.9832 9.21901C18.8974 9.24275 18.8206 9.29139 18.7625 9.35878C18.7044 9.42616 18.6675 9.50927 18.6566 9.59759C18.6457 9.68592 18.6612 9.7755 18.7011 9.85501C18.7549 9.96166 18.8489 10.0426 18.9623 10.08C19.0757 10.1175 19.1994 10.1083 19.3061 10.0547ZM16.2615 10.6605C16.3242 10.5498 16.4183 10.4602 16.5319 10.4029C16.6074 10.3649 16.6896 10.342 16.7738 10.3358C16.8581 10.3295 16.9427 10.3399 17.023 10.3664C17.1032 10.3929 17.1774 10.4349 17.2414 10.4901C17.3053 10.5453 17.3578 10.6126 17.3957 10.6881C17.4529 10.8017 17.4752 10.9297 17.4596 11.056C17.4441 11.1822 17.3915 11.3011 17.3084 11.3974C17.2253 11.4938 17.1156 11.5633 16.993 11.5973C16.8704 11.6312 16.7404 11.6281 16.6196 11.5882C16.4988 11.5483 16.3926 11.4735 16.3143 11.3732C16.236 11.273 16.1892 11.1517 16.1798 11.0249C16.1704 10.898 16.1989 10.7712 16.2615 10.6605ZM13.3131 9.33163C13.2035 9.39624 13.0773 9.42692 12.9503 9.4198C12.7799 9.41009 12.6203 9.3331 12.5066 9.20576C12.393 9.07842 12.3345 8.91115 12.3442 8.74073C12.3515 8.61376 12.3962 8.49181 12.4728 8.39028C12.5494 8.28875 12.6544 8.2122 12.7744 8.1703C12.8945 8.12841 13.0243 8.12305 13.1474 8.15491C13.2706 8.18677 13.3815 8.25441 13.4662 8.34929C13.5508 8.44417 13.6055 8.56202 13.6232 8.68796C13.641 8.81389 13.621 8.94225 13.5657 9.05682C13.5105 9.17139 13.4226 9.26702 13.3131 9.33163ZM9.4706 15.9855C9.5842 15.9282 9.67827 15.8385 9.7409 15.7278C9.80353 15.617 9.83191 15.4902 9.82246 15.3633C9.81301 15.2365 9.76614 15.1153 9.68779 15.015C9.60943 14.9148 9.50311 14.84 9.38228 14.8002C9.26144 14.7604 9.13151 14.7574 9.00893 14.7914C8.88634 14.8254 8.7766 14.8951 8.6936 14.9915C8.61059 15.0879 8.55804 15.2068 8.54259 15.333C8.52714 15.4593 8.5495 15.5874 8.60682 15.7009C8.68366 15.8532 8.81781 15.9687 8.97979 16.0221C9.14177 16.0754 9.31831 16.0623 9.4706 15.9855ZM13.1908 11.0466C13.171 10.804 13.2327 10.5617 13.3661 10.3581C13.4658 10.2062 13.6018 10.0814 13.7618 9.99509C13.9217 9.90879 14.1007 9.86366 14.2825 9.86379C14.5259 9.8641 14.7622 9.94558 14.9541 10.0953C15.146 10.2451 15.2824 10.4545 15.3419 10.6905C15.4013 10.9266 15.3803 11.1757 15.2823 11.3984C15.1842 11.6212 15.0147 11.8049 14.8004 11.9205C14.5862 12.036 14.3396 12.0769 14.0996 12.0365C13.8595 11.9961 13.6399 11.8768 13.4752 11.6975C13.3106 11.5182 13.2105 11.2892 13.1908 11.0466ZM15.2672 14.9327C15.1796 14.7589 15.0471 14.6117 14.8836 14.5061C14.72 14.4006 14.5313 14.3406 14.3368 14.3323C14.1424 14.3241 13.9492 14.3679 13.7773 14.4592C13.6054 14.5505 13.461 14.686 13.3589 14.8518C13.2569 15.0175 13.2009 15.2075 13.1968 15.4021C13.1927 15.5967 13.2405 15.7889 13.3355 15.9588C13.4304 16.1287 13.5689 16.2702 13.7368 16.3688C13.9047 16.4673 14.0958 16.5192 14.2905 16.5192C14.4617 16.518 14.6303 16.4771 14.783 16.3997C15.0413 16.2689 15.2373 16.0411 15.3281 15.7662C15.4188 15.4912 15.3969 15.1916 15.2672 14.9327ZM16.8226 14.751C16.9498 14.75 17.0745 14.7867 17.1808 14.8565C17.3232 14.9503 17.4225 15.0968 17.4572 15.2637C17.4918 15.4306 17.4588 15.6045 17.3655 15.7472C17.2957 15.8535 17.1959 15.9368 17.0788 15.9864C16.9617 16.0361 16.8325 16.0499 16.7075 16.0261C16.5825 16.0023 16.4674 15.9419 16.3767 15.8527C16.2861 15.7635 16.2239 15.6494 16.198 15.5248C16.1722 15.4003 16.1839 15.2708 16.2316 15.1529C16.2793 15.035 16.361 14.9339 16.4662 14.8623C16.5714 14.7908 16.6954 14.7521 16.8226 14.751ZM19.2744 13.2132C19.2805 13.1053 19.2544 12.9981 19.1996 12.905C19.1447 12.812 19.0635 12.7372 18.9662 12.6903C18.8689 12.6434 18.7598 12.6264 18.6529 12.6414C18.5459 12.6564 18.4457 12.7028 18.3651 12.7748C18.2845 12.8467 18.227 12.9409 18.2 13.0455C18.1729 13.1501 18.1774 13.2603 18.213 13.3623C18.2486 13.4644 18.3136 13.5535 18.3998 13.6186C18.4861 13.6837 18.5897 13.7217 18.6975 13.7279C18.8422 13.7361 18.9843 13.6864 19.0925 13.5899C19.2006 13.4934 19.266 13.3579 19.2744 13.2132ZM20.5928 12.8727C20.6531 12.8373 20.7226 12.8205 20.7925 12.8245C20.8862 12.83 20.9738 12.8725 21.0362 12.9425C21.0986 13.0125 21.1307 13.1044 21.1255 13.1981C21.1215 13.268 21.0968 13.3351 21.0546 13.391C21.0125 13.4468 20.9547 13.4889 20.8886 13.512C20.8225 13.535 20.7511 13.5379 20.6833 13.5203C20.6156 13.5028 20.5546 13.4655 20.508 13.4132C20.4614 13.361 20.4314 13.2961 20.4217 13.2268C20.412 13.1575 20.4231 13.0868 20.4536 13.0238C20.484 12.9608 20.5325 12.9082 20.5928 12.8727ZM19.3664 16.333C19.2919 16.2842 19.2047 16.2586 19.1157 16.2594C19.0267 16.2602 18.9399 16.2874 18.8663 16.3375C18.7928 16.3876 18.7357 16.4584 18.7024 16.541C18.6691 16.6235 18.6609 16.7141 18.6791 16.8012C18.6972 16.8884 18.7408 16.9682 18.8042 17.0306C18.8677 17.093 18.9483 17.1351 19.0357 17.1517C19.1232 17.1684 19.2136 17.1587 19.2955 17.1239C19.3775 17.0892 19.4473 17.0309 19.4961 16.9565C19.5285 16.907 19.5509 16.8517 19.562 16.7936C19.573 16.7354 19.5725 16.6757 19.5604 16.6178C19.5484 16.5599 19.5251 16.505 19.4918 16.4561C19.4585 16.4072 19.4159 16.3654 19.3664 16.333ZM9.12859 19.5795C9.19857 19.5789 9.26715 19.5991 9.32566 19.6375C9.36453 19.663 9.39799 19.6959 9.42413 19.7343C9.45028 19.7728 9.46859 19.816 9.47803 19.8615C9.48746 19.907 9.48784 19.954 9.47913 19.9996C9.47043 20.0453 9.45281 20.0888 9.42728 20.1276C9.38886 20.1861 9.33395 20.2319 9.26951 20.2592C9.20507 20.2865 9.13398 20.2941 9.06523 20.281C8.99649 20.2679 8.93317 20.2347 8.88329 20.1856C8.83341 20.1365 8.79921 20.0737 8.785 20.0052C8.7708 19.9367 8.77723 19.8655 8.80348 19.8006C8.82973 19.7357 8.87463 19.6801 8.9325 19.6407C8.99037 19.6014 9.05861 19.5801 9.12859 19.5795ZM16.7375 19.5997C16.675 19.6312 16.6233 19.6805 16.5888 19.7414C16.5543 19.8024 16.5387 19.8721 16.5439 19.9419C16.5491 20.0117 16.5749 20.0784 16.618 20.1336C16.6611 20.1887 16.7196 20.2299 16.786 20.2518C16.8525 20.2737 16.924 20.2754 16.9915 20.2567C17.0589 20.238 17.1193 20.1996 17.165 20.1466C17.2106 20.0936 17.2396 20.0282 17.2481 19.9587C17.2566 19.8892 17.2443 19.8188 17.2128 19.7563C17.1919 19.7148 17.163 19.6777 17.1278 19.6474C17.0926 19.617 17.0518 19.5939 17.0077 19.5793C16.9635 19.5648 16.9169 19.5591 16.8706 19.5626C16.8242 19.5661 16.779 19.5787 16.7375 19.5997ZM12.8041 15.3406C12.8239 15.5832 12.7622 15.8255 12.6288 16.0291C12.5295 16.1814 12.3937 16.3064 12.2338 16.3928C12.0738 16.4791 11.8948 16.5241 11.713 16.5234C11.4696 16.5233 11.2332 16.4419 11.0412 16.2922C10.8492 16.1426 10.7126 15.9331 10.6531 15.6971C10.5936 15.4611 10.6144 15.2119 10.7124 14.9891C10.8104 14.7663 10.9799 14.5825 11.1941 14.4669C11.4084 14.3513 11.655 14.3104 11.8951 14.3507C12.1351 14.3911 12.3549 14.5103 12.5195 14.6896C12.6842 14.8689 12.7843 15.098 12.8041 15.3406ZM10.4431 17.7077C10.3527 17.6485 10.2468 17.6175 10.1388 17.6185C10.0307 17.6196 9.92544 17.6526 9.83618 17.7135C9.74693 17.7744 9.67772 17.8603 9.63731 17.9605C9.5969 18.0607 9.58711 18.1706 9.60916 18.2764C9.63122 18.3822 9.68413 18.479 9.76122 18.5547C9.8383 18.6304 9.9361 18.6815 10.0422 18.7017C10.1484 18.7218 10.2581 18.71 10.3576 18.6678C10.457 18.6255 10.5417 18.5548 10.6009 18.4644C10.6803 18.3431 10.7082 18.1953 10.6786 18.0534C10.649 17.9115 10.5643 17.7871 10.4431 17.7077ZM12.7431 19.8636C12.8198 19.8185 12.9082 19.7971 12.997 19.8021C13.0561 19.8055 13.1139 19.8204 13.1671 19.8461C13.2204 19.8718 13.268 19.9078 13.3074 19.9519C13.3468 19.9961 13.377 20.0475 13.3965 20.1033C13.416 20.1592 13.4242 20.2183 13.4208 20.2774C13.4157 20.3662 13.3844 20.4516 13.3308 20.5226C13.2772 20.5937 13.2037 20.6473 13.1196 20.6766C13.0356 20.7059 12.9447 20.7096 12.8586 20.6873C12.7724 20.6649 12.6948 20.6175 12.6355 20.5511C12.5763 20.4847 12.5381 20.4022 12.5257 20.314C12.5133 20.2259 12.5274 20.136 12.5661 20.0559C12.6048 19.9757 12.6664 19.9088 12.7431 19.8636ZM12.999 16.9701C12.8719 16.9624 12.7454 16.9926 12.6355 17.0568C12.5256 17.121 12.4372 17.2165 12.3815 17.331C12.3259 17.4455 12.3054 17.5739 12.3228 17.7001C12.3403 17.8262 12.3947 17.9443 12.4793 18.0395C12.5639 18.1346 12.6748 18.2025 12.798 18.2346C12.9213 18.2667 13.0512 18.2614 13.1715 18.2196C13.2917 18.1777 13.3968 18.1011 13.4735 17.9995C13.5502 17.8978 13.595 17.7757 13.6022 17.6486C13.612 17.4787 13.554 17.3118 13.4409 17.1846C13.3278 17.0574 13.1689 16.9803 12.999 16.9701ZM15.3995 17.8846C15.4525 17.7902 15.5323 17.7137 15.6288 17.6647C15.6927 17.6321 15.7625 17.6124 15.834 17.6068C15.9056 17.6012 15.9775 17.6097 16.0457 17.6319C16.114 17.6541 16.1772 17.6896 16.2317 17.7362C16.2862 17.7829 16.331 17.8398 16.3635 17.9038C16.4127 18.0002 16.4322 18.1091 16.4195 18.2165C16.4068 18.324 16.3625 18.4254 16.2923 18.5077C16.222 18.59 16.1289 18.6496 16.0247 18.6789C15.9205 18.7083 15.81 18.7061 15.707 18.6726C15.6041 18.6391 15.5134 18.5758 15.4465 18.4908C15.3796 18.4057 15.3394 18.3027 15.331 18.1948C15.3226 18.0869 15.3464 17.9789 15.3995 17.8846Z" fill="white"/>
<circle cx="13" cy="13" r="13" fill="url(#paint0_linear_1464:677)"/>
<g clip-path="url(#clip0_1464:677)">
<path d="M7.92987 16.1874C8.01322 16.106 8.12783 16.0586 8.24939 16.0586H19.273C19.4744 16.0586 19.5752 16.2958 19.4328 16.4347L17.2551 18.5594C17.1718 18.6408 17.0572 18.6882 16.9356 18.6882H5.912C5.71056 18.6882 5.60984 18.451 5.75224 18.3121L7.92987 16.1874Z" fill="white"/>
<path d="M7.92987 8.25377C8.01669 8.17244 8.13131 8.125 8.24939 8.125H19.273C19.4744 8.125 19.5752 8.36221 19.4328 8.50114L17.2551 10.6258C17.1718 10.7072 17.0572 10.7546 16.9356 10.7546H5.912C5.71056 10.7546 5.60984 10.5174 5.75224 10.3785L7.92987 8.25377Z" fill="white"/>
<path d="M17.2551 12.1952C17.1718 12.1138 17.0572 12.0664 16.9356 12.0664H5.912C5.71056 12.0664 5.60984 12.3036 5.75224 12.4425L7.92987 14.5673C8.01322 14.6486 8.12783 14.696 8.24939 14.696H19.273C19.4744 14.696 19.5752 14.4588 19.4328 14.3199L17.2551 12.1952Z" fill="white"/>
</g>
<defs>
<linearGradient id="paint0_linear_1464:677" x1="21.5312" y1="0.40625" x2="13" y2="26" gradientUnits="userSpaceOnUse">
<stop offset="0.0218611" stop-color="#00FFA3"/>
<stop offset="1" stop-color="#D724FD"/>
</linearGradient>
<clipPath id="clip0_1464:677">
<rect width="13.8125" height="10.5625" fill="white" transform="translate(5.6875 8.125)"/>
</clipPath>
</defs>
</svg>
