<svg width="31" height="31" viewBox="0 0 31 31" fill="none" xmlns="http://www.w3.org/2000/svg">
<circle cx="15.4757" cy="15.4757" r="15.3963" fill="white"/>
<path fill-rule="evenodd" clip-rule="evenodd" d="M14.9269 0.0155588C9.35621 0.300707 4.63297 3.19814 1.94243 7.98051C0.382808 10.7528 -0.294787 14.2628 0.119246 17.4246C0.377808 19.3988 1.03826 21.4273 1.92799 22.98C1.99299 23.0934 2.07441 23.2363 2.10894 23.2974C3.68729 26.0954 6.59004 28.6196 9.60961 29.8198C9.81913 29.903 10.0548 29.9965 10.1334 30.0276C14.0649 31.5784 19.3205 31.1783 23.0025 29.0478C23.1579 28.958 23.2905 28.8845 23.2975 28.8845C23.3044 28.8845 23.5022 28.7631 23.737 28.6146C27.1214 26.4755 29.4821 23.2501 30.5099 19.361C30.6102 18.9815 30.7799 18.1604 30.815 17.8849C30.8261 17.7976 30.8554 17.5833 30.8802 17.4087C31.1564 15.462 30.9472 13.0141 30.3338 11.0121C30.1457 10.3984 29.7482 9.33427 29.6244 9.11316C29.608 9.0838 29.5233 8.90984 29.4362 8.72651C27.93 5.55536 25.2167 2.90569 21.9425 1.40844C19.7862 0.422449 17.1608 -0.0988021 14.9269 0.0155588ZM13.165 6.0374L13.546 6.23454L13.5542 7.9567L13.5624 9.67886L13.8081 9.67909C13.9433 9.67925 15.781 9.67909 17.8919 9.67886L21.7298 9.67838L22.106 10.05C22.3129 10.2543 22.4822 10.4376 22.4822 10.4571C22.4822 10.4767 22.2786 10.6914 22.0298 10.9341C21.781 11.1769 20.806 12.1338 19.8632 13.0608C18.9204 13.9877 18.0207 14.8692 17.8638 15.0197C17.5251 15.3446 17.5302 15.3619 17.9342 15.2627C18.9718 15.0079 20.4367 15.5096 21.3729 16.4403C23.0284 18.086 23.2031 21.4624 21.7327 23.3952C20.1372 25.4923 15.8618 25.7998 14.3328 23.9274C13.0252 22.326 13.5054 20.4512 15.1538 20.7223C16.3909 20.9259 16.6886 22.6446 15.5825 23.1965C15.4181 23.2784 15.4182 23.3076 15.5829 23.4603C15.92 23.7728 16.6415 23.9863 17.4665 24.0177C19.4281 24.0921 20.6092 22.6224 20.6092 20.107C20.6092 17.8232 19.5926 16.3588 17.9133 16.2235C17.3093 16.1748 17.0832 16.2393 16.031 16.7599C15.251 17.146 15.2761 17.1418 15.2761 16.8866C15.2761 16.6662 15.2601 16.6911 16.1332 15.5509C16.4562 15.1291 16.9919 14.4296 17.3236 13.9965C17.8693 13.284 18.5534 12.3863 19.4129 11.255C19.5896 11.0225 19.7125 10.8329 19.6969 10.8172C19.6815 10.8018 18.3205 10.7932 16.6235 10.7977L13.5777 10.8058L13.5696 14.0381C13.5626 16.8423 13.568 17.2982 13.6099 17.4793C13.9644 19.0076 15.6094 19.0082 16.7736 17.4805C17.2585 16.8442 17.7596 17.4768 17.3675 18.2303C16.7505 19.4158 15.6891 19.887 14.0606 19.6983C12.4793 19.5149 11.7924 18.9508 11.461 17.563C11.4349 17.4538 11.4188 16.4442 11.4057 14.1073L11.3873 10.8058L9.82389 10.7975L8.26046 10.7893V10.2537C8.26046 9.72496 8.26141 9.71774 8.33188 9.69886C8.37117 9.6883 9.07828 9.67949 9.90325 9.67925L11.4032 9.67886V8.38319V7.08752L11.054 6.74674L10.7048 6.40596V6.12184V5.83773L11.7445 5.839L12.7841 5.84035L13.165 6.0374Z" fill="#2C7DF7"/>
</svg>
