<?xml version="1.0" standalone="no"?>
<!DOCTYPE svg PUBLIC "-//W3C//DTD SVG 20010904//EN"
 "http://www.w3.org/TR/2001/REC-SVG-20010904/DTD/svg10.dtd">
<svg version="1.0" xmlns="http://www.w3.org/2000/svg"
 width="96.000000pt" height="96.000000pt" viewBox="0 0 96.000000 96.000000"
 preserveAspectRatio="xMidYMid meet">

<g transform="translate(0.000000,96.000000) scale(0.100000,-0.100000)"
fill="#008462" stroke="none">
<path d="M373 946 c-241 -59 -405 -300 -365 -538 45 -261 292 -443 544 -400
207 36 364 193 400 400 55 324 -259 615 -579 538z m305 -364 l3 -143 -38 3
-38 3 -3 73 -3 73 -102 -90 c-126 -109 -144 -129 -152 -163 l-7 -28 130 0 131
0 3 33 c3 29 6 32 38 32 l35 0 0 -70 0 -70 -205 0 -205 0 -3 40 c-8 97 26 148
213 312 l70 62 -102 1 -102 0 -3 -32 c-3 -30 -6 -33 -38 -33 l-35 0 -3 59 c-2
32 -1 65 2 73 5 11 43 13 208 11 l203 -3 3 -143z"/>
</g>
</svg>
