<svg width="46" height="46" viewBox="0 0 46 46" fill="none" xmlns="http://www.w3.org/2000/svg">
<g filter="url(#filter0_d_75_377)">
<rect x="5" y="3" width="36" height="36" rx="18" fill="#F7F7F9"/>
<path fill-rule="evenodd" clip-rule="evenodd" d="M30.6027 26.0799C31.6073 24.5764 32.1436 22.8088 32.1437 21.0006C32.1438 19.7998 31.9073 18.6108 31.4479 17.5015C30.9884 16.3921 30.3149 15.3841 29.4659 14.5351C28.6168 13.686 27.6088 13.0125 26.4995 12.553C25.3901 12.0936 24.2011 11.8571 23.0004 11.8572C21.1921 11.8573 19.4245 12.3936 17.9211 13.3982C16.4176 14.4029 15.2458 15.8308 14.5539 17.5015C13.862 19.1721 13.6809 21.0104 14.0337 22.7838C14.3865 24.5573 15.2573 26.1864 16.5359 27.465C17.8145 28.7436 19.4436 29.6144 21.2171 29.9672C22.9906 30.32 24.8288 30.139 26.4995 29.447C28.1701 28.7551 29.598 27.5833 30.6027 26.0799ZM28.8687 20.2675C29.0131 20.4854 29.0902 20.7409 29.0905 21.0023C29.0903 21.2602 29.0153 21.5125 28.8746 21.7287C28.7338 21.9449 28.5333 22.1156 28.2974 22.2202C28.3179 22.3527 28.3283 22.4867 28.3285 22.6208C28.3285 24.672 25.9404 26.3354 22.9951 26.3354C20.0498 26.3354 17.6617 24.672 17.6617 22.6208C17.662 22.4858 17.6727 22.351 17.6938 22.2176C17.5162 22.1383 17.3582 22.0211 17.2307 21.8743C17.1032 21.7274 17.0094 21.5545 16.9559 21.3675C16.9023 21.1806 16.8903 20.9842 16.9208 20.7921C16.9512 20.6001 17.0233 20.417 17.132 20.2557C17.2406 20.0945 17.3833 19.959 17.5499 19.8587C17.7166 19.7584 17.9031 19.6959 18.0965 19.6753C18.2898 19.6548 18.4854 19.6769 18.6693 19.74C18.8533 19.803 19.0212 19.9056 19.1613 20.0404C20.084 19.3775 21.3602 18.9503 22.7794 18.9109L23.4575 15.7225C23.464 15.6919 23.4765 15.6628 23.4943 15.637C23.5121 15.6112 23.5348 15.5892 23.5611 15.5722C23.5872 15.555 23.6165 15.5432 23.6472 15.5375C23.6779 15.5318 23.7095 15.5323 23.74 15.539L25.956 16.0097C26.0587 15.8015 26.2339 15.6379 26.4486 15.5496C26.6633 15.4614 26.9028 15.4544 27.1223 15.5301C27.3418 15.6058 27.5261 15.759 27.6407 15.9609C27.7553 16.1628 27.7924 16.3995 27.7449 16.6268C27.6974 16.8541 27.5687 17.0562 27.3828 17.1953C27.197 17.3344 26.9668 17.401 26.7354 17.3825C26.5039 17.3641 26.2872 17.2618 26.1258 17.095C25.9643 16.9281 25.8693 16.7081 25.8585 16.4762L23.8742 16.0543L23.2667 18.9141C24.6652 18.9628 25.9207 19.3878 26.8325 20.0456C27.0205 19.8639 27.2578 19.7416 27.5149 19.6938C27.7719 19.646 28.0374 19.675 28.2781 19.777C28.5188 19.879 28.7242 20.0496 28.8687 20.2675ZM29.0905 21.0023C29.0905 21.0024 29.0905 21.0025 29.0905 21.0025V21.002C29.0905 21.0021 29.0905 21.0022 29.0905 21.0023ZM20.1096 21.4258C20.005 21.5824 19.9492 21.7664 19.9492 21.9548C19.9496 22.2073 20.0501 22.4493 20.2287 22.6278C20.4073 22.8063 20.6494 22.9067 20.9019 22.907C21.0903 22.9069 21.2743 22.8509 21.4308 22.7463C21.5874 22.6416 21.7093 22.4928 21.7813 22.3188C21.8533 22.1448 21.8721 21.9533 21.8353 21.7687C21.7985 21.584 21.7078 21.4144 21.5746 21.2812C21.4414 21.1481 21.2717 21.0575 21.087 21.0208C20.9023 20.9841 20.7109 21.003 20.5369 21.0751C20.3629 21.1471 20.2142 21.2692 20.1096 21.4258ZM22.9982 25.1707C23.3642 25.1707 24.6098 25.1204 25.2598 24.4714C25.2836 24.4487 25.3026 24.4215 25.3157 24.3914C25.3288 24.3613 25.3358 24.3288 25.3362 24.296C25.3366 24.2631 25.3305 24.2305 25.3181 24.2C25.3058 24.1696 25.2874 24.1419 25.2642 24.1186C25.241 24.0954 25.2134 24.077 25.183 24.0645C25.1526 24.0521 25.12 24.0458 25.0871 24.0461C25.0543 24.0464 25.0218 24.0533 24.9916 24.0663C24.9615 24.0794 24.9342 24.0983 24.9115 24.122C24.5014 24.532 23.6244 24.6772 22.9982 24.6772C22.372 24.6772 21.4955 24.532 21.086 24.122C21.0631 24.0991 21.0359 24.0809 21.0059 24.0685C20.976 24.056 20.9439 24.0496 20.9115 24.0496C20.879 24.0496 20.8469 24.0559 20.817 24.0683C20.787 24.0807 20.7598 24.0989 20.7368 24.1218C20.7139 24.1447 20.6957 24.1719 20.6833 24.2018C20.6708 24.2318 20.6644 24.2639 20.6644 24.2963C20.6644 24.3287 20.6707 24.3608 20.6831 24.3908C20.6955 24.4207 20.7137 24.4479 20.7366 24.4709C21.3861 25.1188 22.6322 25.1707 22.9982 25.1707ZM24.5633 22.7465C24.7199 22.8511 24.904 22.907 25.0924 22.907C25.3448 22.9067 25.5869 22.8063 25.7654 22.6278C25.9439 22.4493 26.0443 22.2072 26.0446 21.9548C26.0446 21.7664 25.9888 21.5823 25.8841 21.4257C25.7795 21.2691 25.6308 21.1471 25.4568 21.075C25.2828 21.0029 25.0913 20.9841 24.9066 21.0208C24.7219 21.0576 24.5522 21.1483 24.419 21.2814C24.2859 21.4146 24.1952 21.5843 24.1584 21.769C24.1217 21.9537 24.1406 22.1452 24.2126 22.3192C24.2847 22.4932 24.4067 22.6419 24.5633 22.7465Z" fill="#626975"/>
<rect x="5.5" y="3.5" width="35" height="35" rx="17.5" stroke="white"/>
</g>
<defs>
<filter id="filter0_d_75_377" x="0.428572" y="0.714286" width="45.1429" height="45.1429" filterUnits="userSpaceOnUse" color-interpolation-filters="sRGB">
<feFlood flood-opacity="0" result="BackgroundImageFix"/>
<feColorMatrix in="SourceAlpha" type="matrix" values="0 0 0 0 0 0 0 0 0 0 0 0 0 0 0 0 0 0 127 0" result="hardAlpha"/>
<feOffset dy="2.28571"/>
<feGaussianBlur stdDeviation="2.28571"/>
<feComposite in2="hardAlpha" operator="out"/>
<feColorMatrix type="matrix" values="0 0 0 0 0.705882 0 0 0 0 0.72549 0 0 0 0 0.780392 0 0 0 0.25 0"/>
<feBlend mode="normal" in2="BackgroundImageFix" result="effect1_dropShadow_75_377"/>
<feBlend mode="normal" in="SourceGraphic" in2="effect1_dropShadow_75_377" result="shape"/>
</filter>
</defs>
</svg>
