<svg width="79" height="17" viewBox="0 0 79 17" fill="none" xmlns="http://www.w3.org/2000/svg">
<g clip-path="url(#clip0_3564_14046)">
<path d="M5.75129 16.6512C4.57593 15.4547 3.41252 14.2467 2.24685 13.0406C2.07894 12.8668 2.0526 12.6601 2.16029 12.4433C2.26435 12.2337 2.44471 12.1584 2.67011 12.1719L5.58276 12.5036C6.34902 12.592 7.11522 12.6805 7.88046 12.7758C8.2511 12.822 8.61812 12.8895 8.99289 12.9118C9.25239 12.9273 9.42227 13.1089 9.50758 13.3446C9.56114 13.4743 9.57428 13.6171 9.54528 13.7543C9.51628 13.8916 9.44649 14.0168 9.34506 14.1137C8.67844 14.8001 8.01217 15.4869 7.34623 16.174C7.18858 16.3365 7.0387 16.5076 6.8704 16.6582C6.71474 16.8008 6.51194 16.8809 6.30087 16.8832C6.19837 16.8834 6.09688 16.863 6.00245 16.8231C5.90802 16.7833 5.8226 16.7248 5.75129 16.6512ZM9.64376 15.6917C9.58671 15.6934 9.53033 15.679 9.48108 15.6502C9.43182 15.6213 9.39167 15.5792 9.36523 15.5286C9.33122 15.476 9.31505 15.4138 9.31914 15.3513C9.32322 15.2887 9.34732 15.2291 9.38789 15.1813C9.85805 14.6235 10.3282 14.0654 10.8085 13.5159C10.9359 13.3702 11.1238 13.3277 11.3172 13.3428C11.9319 13.3903 12.5464 13.4407 13.1612 13.4891C13.3036 13.5004 13.4319 13.537 13.4626 13.6987C13.4932 13.8592 13.3924 13.9428 13.2606 14.0035C12.522 14.3434 11.7752 14.6671 11.0493 15.0322C10.6772 15.2194 10.3064 15.4105 9.93232 15.5945C9.84338 15.6383 9.75751 15.692 9.65356 15.692C9.65027 15.6918 9.64705 15.6918 9.64376 15.6917ZM12.1465 12.4911C11.8023 12.4911 11.7251 12.379 11.8773 12.0858C12.9124 10.0911 13.9479 8.0967 14.984 6.10248C15.1205 5.8389 15.3135 5.66687 15.6062 5.59923C15.876 5.53692 16.1408 5.45263 16.4105 5.38964C16.6177 5.34132 16.8205 5.34483 16.9801 5.52157C17.1466 5.70601 17.1129 5.90824 17.0644 6.12922C16.9155 6.80609 16.7838 7.48681 16.6466 8.16623C16.3968 9.40345 16.1551 10.6424 15.8947 11.8773C15.8121 12.2689 15.5202 12.4756 15.1097 12.4802C14.6056 12.4858 14.1014 12.4815 13.5972 12.4815V12.4912L12.1465 12.4911ZM5.71367 11.8623C4.5821 11.7228 3.44821 11.6 2.31969 11.4393C1.42037 11.3113 0.993369 10.4103 1.45005 9.62698C2.28774 8.19025 3.15189 6.76876 3.98063 5.32682C4.31031 4.75316 5.29976 4.4706 5.82357 5.29062C6.9237 7.01319 7.9741 8.76617 9.03209 10.5143C9.47665 11.2489 8.96587 12.1398 8.00611 12.1458C7.31842 12.0607 6.51613 11.9612 5.71367 11.8623ZM10.3163 10.6573C9.64705 9.65037 9.0224 8.61402 8.37941 7.58979C7.5927 6.33615 6.81539 5.0765 6.01577 3.83118C5.65068 3.26273 5.54917 2.68312 5.77576 2.0429C5.88543 1.73321 5.9636 1.41259 6.06936 1.10138C6.26875 0.514857 6.90858 0.304528 7.41908 0.67409C7.89293 1.01709 8.34695 1.39418 8.82578 1.72324C9.76527 2.36901 10.6692 3.06118 11.5976 3.72066C12.3148 4.23008 13.018 4.75944 13.731 5.2751C13.8504 5.35718 13.9483 5.46684 14.0163 5.59479C14.0844 5.72273 14.1206 5.86519 14.1218 6.01009C14.1081 6.17295 14.0611 6.33126 13.9838 6.47527C13.2614 7.83575 12.5475 9.20088 11.8213 10.5595C11.641 10.8971 11.3385 11.0731 11.0352 11.0732C10.7696 11.073 10.5027 10.9377 10.3163 10.6573ZM0.684532 7.97136C0.625166 7.84011 0.653319 7.67986 0.684532 7.53915C0.765989 7.17259 0.801733 6.82438 0.864781 6.46768C0.92375 6.13437 0.949751 5.79517 0.989404 5.45858C1.00382 5.28286 1.06759 5.11479 1.17336 4.97374C1.27913 4.83269 1.42261 4.72439 1.58725 4.66133C1.98423 4.4936 2.38869 4.3436 2.79014 4.18646C3.00279 4.10319 3.19449 4.12415 3.3459 4.31018C3.49194 4.48981 3.44962 4.6687 3.3416 4.85008C2.75432 5.83573 2.16803 6.82195 1.58272 7.80873C1.40825 8.10159 1.21236 8.28235 1.03325 8.28241C0.903301 8.28241 0.782247 8.18747 0.684532 7.97136ZM14.269 4.83597C12.9759 3.83941 11.6843 2.84094 10.3943 1.84056C10.286 1.75661 10.1106 1.67883 10.2265 1.50447C10.3409 1.33244 10.4852 1.46335 10.6056 1.52413C11.9972 2.22655 13.3879 2.93085 14.7777 3.63705C15.176 3.83911 15.5752 4.03986 15.9697 4.24951C16.2432 4.39509 16.2629 4.55739 16.0116 4.7271C15.7374 4.91216 15.5131 5.20146 15.1351 5.19619C14.7981 5.19007 14.5235 5.03214 14.269 4.83597ZM2.74137 3.51044C2.59205 3.33705 2.59975 3.14728 2.72562 2.97377C3.06833 2.50117 3.41309 2.0297 3.775 1.57217C3.93514 1.36965 4.21543 1.35691 4.36979 1.53818C4.61252 1.82356 4.72259 2.17828 4.82092 2.5006C4.82401 2.58886 4.80091 2.67605 4.75455 2.75121C4.70818 2.82637 4.64061 2.88613 4.56035 2.92296C4.12417 3.14824 3.68618 3.37109 3.24513 3.58692C3.17498 3.62371 3.09738 3.64405 3.0182 3.64639C2.96476 3.64599 2.9121 3.63353 2.86415 3.60994C2.8162 3.58635 2.77419 3.55225 2.74126 3.51016L2.74137 3.51044Z" fill="#62718A"/>
<mask id="mask0_3564_14046" style="mask-type:luminance" maskUnits="userSpaceOnUse" x="20" y="4" width="59" height="10">
<path d="M79 4.08398H20.9677V13.3391H79V4.08398Z" fill="white"/>
</mask>
<g mask="url(#mask0_3564_14046)">
<path d="M20.9675 4.55469H24.7466C25.6303 4.55469 26.3344 4.76943 26.8591 5.19893C27.3832 5.62858 27.6454 6.1737 27.6457 6.83432C27.6457 7.81755 27.0715 8.48247 25.9233 8.82907C26.5098 8.91189 26.9765 9.1556 27.3233 9.56021C27.6665 9.95474 27.8519 10.4622 27.8437 10.985C27.8437 11.6788 27.5897 12.2301 27.0816 12.6391C26.5734 13.0481 25.8653 13.2525 24.957 13.2522H20.9675V4.55469ZM23.0861 6.16572V8.04859H24.474C24.7796 8.04859 25.0254 7.97012 25.2113 7.81317C25.3971 7.65622 25.4901 7.42289 25.4901 7.11319C25.4901 6.80352 25.3971 6.5681 25.2113 6.40692C25.0254 6.24574 24.7796 6.16534 24.474 6.16572H23.0861ZM23.0861 11.6419H24.6845C24.9486 11.6508 25.206 11.5575 25.403 11.3813C25.5928 11.2079 25.6877 10.9684 25.6878 10.6628C25.6879 10.3572 25.5971 10.1136 25.4153 9.93204C25.3223 9.8409 25.2117 9.76972 25.0903 9.72285C24.9688 9.67597 24.8391 9.6544 24.709 9.65945H23.0861V11.6419Z" fill="#62718A"/>
<path d="M31.4369 4.08398H29.3181V13.2523H31.4369V4.08398Z" fill="#62718A"/>
<path d="M33.8467 12.3604C33.1486 11.7081 32.7996 10.849 32.7997 9.78337C32.7998 8.71769 33.1467 7.86486 33.8405 7.22487C34.5342 6.58483 35.3932 6.26476 36.4175 6.26465C37.4419 6.26454 38.2988 6.58461 38.9883 7.22487C39.6778 7.86509 40.0227 8.71792 40.0229 9.78337C40.0231 10.8488 39.6802 11.7078 38.9944 12.3604C38.3087 13.013 37.4539 13.3392 36.4298 13.3392C35.4058 13.3392 34.5447 13.013 33.8467 12.3604ZM37.4458 11.0843C37.7265 10.7869 37.8669 10.3573 37.8672 9.79572C37.8674 9.23408 37.7228 8.80667 37.4335 8.51346C37.3016 8.37321 37.1422 8.26172 36.9652 8.18602C36.7882 8.11031 36.5975 8.07202 36.405 8.07355C36.2134 8.07166 36.0235 8.10981 35.8475 8.18557C35.6716 8.26132 35.5133 8.37301 35.383 8.51346C35.0979 8.80682 34.9554 9.23423 34.9554 9.79572C34.9554 10.3572 35.102 10.7867 35.3953 11.0843C35.5277 11.2259 35.6879 11.3387 35.8659 11.4154C36.044 11.4922 36.236 11.5312 36.4298 11.5302C36.6211 11.5323 36.8107 11.4936 36.9859 11.4167C37.161 11.3398 37.3179 11.2265 37.4458 11.0843Z" fill="#62718A"/>
<path d="M41.8379 12.3727C41.1977 11.7285 40.8776 10.8695 40.8777 9.79566C40.8778 8.72187 41.1978 7.86493 41.8379 7.22487C42.4779 6.58483 43.3059 6.26476 44.3219 6.26465C45.1644 6.26465 45.879 6.4732 46.4655 6.89031C47.052 7.30742 47.4402 7.9041 47.63 8.68034H45.3379C45.1398 8.26747 44.8156 8.06099 44.3653 8.06091C43.915 8.06084 43.5805 8.21981 43.3619 8.53782C43.1428 8.85599 43.0333 9.27517 43.0333 9.79538C43.0333 10.3156 43.1428 10.7348 43.3619 11.0529C43.5806 11.3709 43.9006 11.5299 44.3219 11.5298C44.5863 11.5298 44.7928 11.4844 44.9415 11.3935C45.0902 11.3027 45.2224 11.1416 45.338 10.9104H47.6302C47.44 11.6538 47.0477 12.2444 46.4531 12.6821C45.8586 13.1198 45.1483 13.3387 44.3221 13.3387C43.3062 13.3387 42.4782 13.0166 41.8381 12.3724" fill="#62718A"/>
<path d="M50.9379 13.2523H48.8193V4.08398H50.9379V9.22563L53.0813 6.33903H55.9309L52.9699 9.86987L55.931 13.2523H53.1185L50.9379 10.4895V13.2523Z" fill="#62718A"/>
<path d="M59.8584 6.10408C59.5941 6.10408 59.3772 6.17434 59.2079 6.31486C59.0386 6.45538 58.9539 6.65768 58.9541 6.92177C58.9541 7.18612 59.0325 7.39885 59.1893 7.55995C59.3616 7.73047 59.5718 7.85784 59.8027 7.93167C60.0545 8.0183 60.3353 8.10087 60.6452 8.17938C60.9574 8.25865 61.2655 8.35374 61.5681 8.46426C61.862 8.56995 62.1428 8.70927 62.4047 8.87942C62.6663 9.05569 62.8776 9.29689 63.0179 9.5794C63.1748 9.88103 63.2533 10.2424 63.2534 10.6636C63.2534 11.3987 62.9539 12.0285 62.3551 12.5528C61.7563 13.0772 60.9675 13.3395 59.9888 13.3397C59.01 13.3397 58.2212 13.1042 57.6223 12.6334C57.0235 12.1625 56.7241 11.4935 56.7241 10.6263H58.9789C59.0367 11.3202 59.3919 11.6671 60.0446 11.6671C60.35 11.6671 60.5896 11.5865 60.7631 11.4254C60.848 11.3479 60.9152 11.253 60.9601 11.1472C61.005 11.0414 61.0266 10.9271 61.0234 10.8122C61.0275 10.7003 61.0088 10.5887 60.9683 10.4843C60.9278 10.3799 60.8664 10.2849 60.7879 10.2051C60.6134 10.0374 60.4039 9.91049 60.1746 9.83335C59.9226 9.74249 59.6418 9.65782 59.3321 9.57935C59.0191 9.49998 58.711 9.40277 58.4092 9.28818C58.1166 9.1793 57.8362 9.04028 57.5725 8.87336C57.31 8.70072 57.0983 8.46115 56.9593 8.17938C56.8022 7.87795 56.7238 7.52071 56.7239 7.10768C56.7239 6.29828 57.0254 5.64985 57.6284 5.16238C58.2314 4.67492 59.0016 4.43134 59.939 4.43164C60.8764 4.43164 61.6342 4.64431 62.2124 5.06965C62.7905 5.49499 63.0921 6.1661 63.1169 7.08299H60.8123C60.7792 6.76924 60.6781 6.52755 60.5089 6.35791C60.4235 6.27349 60.3217 6.20741 60.2099 6.16374C60.098 6.12006 59.9784 6.0997 59.8584 6.10391" fill="#62718A"/>
<path d="M67.8619 13.339C66.8542 13.339 66.0282 13.0148 65.3839 12.3665C64.7396 11.7181 64.4175 10.857 64.4176 9.78337C64.4176 8.70965 64.7377 7.85474 65.3778 7.21863C66.018 6.58253 66.846 6.26454 67.8618 6.26465C68.8777 6.26465 69.7202 6.57853 70.3894 7.20629C71.0586 7.83404 71.3931 8.70544 71.3928 9.82047C71.394 10.0444 71.3775 10.268 71.3434 10.4894H66.5859C66.625 10.7716 66.7628 11.031 66.9748 11.2215C67.1868 11.4119 67.4593 11.5213 67.7442 11.5301C68.0125 11.5301 68.2128 11.5033 68.345 11.4496C68.4499 11.4115 68.5482 11.3572 68.6362 11.2886C68.7241 11.2068 68.8049 11.1178 68.8778 11.0224H71.17C70.9809 11.7034 70.5602 12.297 69.9804 12.7012C69.3856 13.1268 68.6794 13.3395 67.8618 13.3392M68.7664 8.37728C68.5185 8.17488 68.2067 8.06725 67.8867 8.07366C67.5738 8.06443 67.2688 8.17276 67.0318 8.37728C66.7999 8.58079 66.6464 8.85908 66.5982 9.16388H69.1875C69.1746 9.01099 69.1306 8.86236 69.0582 8.7271C68.9857 8.59184 68.8864 8.4728 68.7664 8.37728Z" fill="#62718A"/>
<path d="M73.2079 12.3727C72.5677 11.7285 72.2476 10.8695 72.2477 9.79566C72.2478 8.72187 72.5678 7.86493 73.2079 7.22487C73.8479 6.58483 74.6759 6.26476 75.6919 6.26465C76.5344 6.26465 77.249 6.4732 77.8355 6.89031C78.422 7.30742 78.8102 7.9041 79 8.68034H76.7079C76.5098 8.26747 76.1856 8.06099 75.7353 8.06091C75.285 8.06084 74.9505 8.21981 74.7319 8.53782C74.5128 8.85599 74.4033 9.27517 74.4033 9.79538C74.4033 10.3156 74.5128 10.7348 74.7319 11.0529C74.9506 11.3709 75.2706 11.5299 75.6919 11.5298C75.9563 11.5298 76.1628 11.4844 76.3115 11.3935C76.4602 11.3027 76.5924 11.1416 76.708 10.9104H79.0002C78.81 11.6538 78.4176 12.2444 77.8231 12.6821C77.2286 13.1198 76.5182 13.3387 75.6921 13.3387C74.6762 13.3387 73.8482 13.0166 73.2081 12.3724" fill="#62718A"/>
</g>
</g>
<defs>
<clipPath id="clip0_3564_14046">
<rect width="78.35" height="16.393" fill="white" transform="translate(0.650024 0.490234)"/>
</clipPath>
</defs>
</svg>
