<svg width="72" height="18" viewBox="0 0 72 18" fill="none" xmlns="http://www.w3.org/2000/svg">
<g clip-path="url(#clip0_2886_13362)">
<path fill-rule="evenodd" clip-rule="evenodd" d="M14.8809 2.98475L14.9702 3.52471C15.0406 4.02701 15.0732 4.53389 15.0678 5.04109C15.0672 6.16191 14.932 7.27858 14.665 8.36715C14.304 9.84607 13.6753 11.2464 12.8099 12.4987C11.8099 13.937 10.3639 15.3517 8.25629 16.4884L7.99842 16.6274L7.7406 16.4884C5.63296 15.3517 4.18761 13.937 3.18701 12.4987C2.32162 11.2464 1.69287 9.84607 1.33186 8.36715C1.06498 7.27879 0.929772 6.1623 0.929131 5.04168C0.923683 4.53448 0.956301 4.0276 1.02671 3.5253L1.11601 2.98534C1.12363 2.94131 1.12246 2.8962 1.11257 2.85261C1.10269 2.80904 1.08427 2.76784 1.05839 2.73141C1.03251 2.69498 0.999672 2.66403 0.961775 2.64034C0.923878 2.61666 0.88167 2.60071 0.837582 2.59341C0.793494 2.58611 0.748401 2.58762 0.704894 2.59783C0.661388 2.60804 0.620335 2.62677 0.584098 2.65292C0.547861 2.67907 0.517157 2.71213 0.493756 2.7502C0.470355 2.78828 0.454719 2.8306 0.447751 2.87475L0.358453 3.4147C0.281644 3.95353 0.245862 4.49742 0.251414 5.04168C0.251839 6.2175 0.393604 7.38899 0.673655 8.53099C1.05487 10.0905 1.71851 11.5669 2.6317 12.8873C3.68731 14.4066 5.21839 15.9005 7.42184 17.0863L7.84053 17.3116C7.88988 17.3383 7.94504 17.3522 8.0011 17.3522C8.05715 17.3522 8.11236 17.3383 8.16166 17.3116L8.57975 17.0863C10.7809 15.8999 12.3125 14.4066 13.3699 12.8873C14.2827 11.567 14.9459 10.0908 15.3268 8.53158C15.6068 7.38958 15.7486 6.2181 15.749 5.04228C15.7546 4.49801 15.7188 3.95413 15.642 3.4153L15.5527 2.87534C15.5457 2.83119 15.5301 2.78887 15.5067 2.7508C15.4833 2.71272 15.4526 2.67966 15.4163 2.65351C15.3801 2.62736 15.339 2.60863 15.2955 2.59842C15.252 2.58821 15.2069 2.58671 15.1628 2.594C15.1188 2.6013 15.0765 2.61725 15.0386 2.64093C15.0007 2.66462 14.9679 2.69557 14.9421 2.732C14.9162 2.76843 14.8978 2.80963 14.8879 2.85321C14.878 2.89679 14.8768 2.9419 14.8844 2.98593L14.8809 2.98475Z" fill="#62718A"/>
<path fill-rule="evenodd" clip-rule="evenodd" d="M2.96656 2.61694L7.99933 1.07929L13.1444 2.65006C13.2306 2.67581 13.3234 2.66639 13.4027 2.62386C13.4818 2.58133 13.541 2.50915 13.5671 2.42313C13.5932 2.3371 13.5842 2.24423 13.542 2.16484C13.4998 2.08544 13.4279 2.026 13.342 1.99951L8.09807 0.398582C8.03374 0.378858 7.96491 0.378858 7.90054 0.398582L2.76844 1.96521C2.72555 1.97803 2.68562 1.9992 2.65093 2.02749C2.61625 2.05579 2.5875 2.09066 2.56632 2.1301C2.54514 2.16953 2.53197 2.21277 2.52754 2.25731C2.52312 2.30186 2.52754 2.34683 2.54054 2.38967C2.55355 2.4325 2.57488 2.47234 2.60333 2.50691C2.63177 2.54147 2.66676 2.57008 2.70629 2.59109C2.74582 2.61209 2.78911 2.62508 2.83367 2.62932C2.87823 2.63355 2.92319 2.62894 2.96597 2.61575L2.96656 2.61694Z" fill="#62718A"/>
<path fill-rule="evenodd" clip-rule="evenodd" d="M0.481329 3.08359L7.6966 17.1662C7.72473 17.2212 7.76742 17.2675 7.81999 17.3C7.87257 17.3325 7.93304 17.35 7.99486 17.3505C8.05664 17.3511 8.11741 17.3347 8.17058 17.3031C8.2237 17.2716 8.2672 17.226 8.29631 17.1715L12.6964 8.94207L12.7029 8.92909L15.5193 3.07413C15.5574 2.99333 15.5622 2.90073 15.5324 2.81646C15.5027 2.73218 15.441 2.66305 15.3605 2.62409C15.2801 2.58512 15.1875 2.57948 15.103 2.60838C15.0184 2.63728 14.9487 2.69839 14.9089 2.77842L12.0973 8.62862L8.00827 16.2814L1.08398 2.77369C1.06402 2.73359 1.03631 2.69784 1.00244 2.66852C0.968567 2.6392 0.929215 2.6169 0.886659 2.6029C0.844107 2.5889 0.799201 2.58348 0.754536 2.58696C0.709875 2.59044 0.666347 2.60275 0.626477 2.62318C0.586606 2.6436 0.551185 2.67173 0.522265 2.70595C0.493346 2.74016 0.471503 2.77977 0.458002 2.82248C0.444502 2.8652 0.439612 2.91016 0.443616 2.95478C0.44762 2.9994 0.460439 3.04278 0.481329 3.08241V3.08359Z" fill="#62718A"/>
<path fill-rule="evenodd" clip-rule="evenodd" d="M3.93526 9.35636H11.9588C12.0486 9.35636 12.1347 9.32072 12.1982 9.2572C12.2617 9.19372 12.2974 9.10762 12.2974 9.01779C12.2974 8.928 12.2617 8.84191 12.1982 8.77838C12.1347 8.7149 12.0486 8.67922 11.9588 8.67922H3.93526C3.84546 8.67922 3.75934 8.7149 3.69585 8.77838C3.63235 8.84191 3.59668 8.928 3.59668 9.01779C3.59668 9.10762 3.63235 9.19372 3.69585 9.2572C3.75934 9.32072 3.84546 9.35636 3.93526 9.35636ZM26.315 6.43485H21.0953C21.0051 6.43532 20.9187 6.47139 20.855 6.53517C20.7912 6.59894 20.7552 6.68529 20.7547 6.77551V10.965C20.7553 11.0551 20.7914 11.1414 20.8551 11.2052C20.9189 11.2689 21.0052 11.305 21.0953 11.3056H26.315V12.0153H21.0953C20.9576 12.0159 20.8211 11.9893 20.6938 11.9369C20.5664 11.8844 20.4507 11.8073 20.3533 11.7099C20.2559 11.6126 20.1788 11.4969 20.1264 11.3695C20.074 11.2421 20.0473 11.1057 20.048 10.968V6.77848C20.0473 6.64074 20.074 6.50427 20.1264 6.37693C20.1788 6.24955 20.2559 6.13383 20.3533 6.03645C20.4507 5.93907 20.5664 5.86197 20.6938 5.80956C20.8211 5.75711 20.9576 5.73047 21.0953 5.7311H26.315V6.43485ZM36.1163 5.72754V6.43723H31.0894V8.51127H35.1298V9.22686H31.0888V11.3045H36.1157V12.0142H30.3791V5.72754H36.1163Z" fill="#62718A"/>
<path d="M46.4677 6.78273V8.62436C46.4685 8.76206 46.4418 8.89848 46.3892 9.02582C46.3366 9.15312 46.2598 9.26884 46.1622 9.36618C46.065 9.46356 45.9491 9.54066 45.8218 9.59311C45.6945 9.64556 45.5579 9.67229 45.4204 9.67174H44.4606L46.4329 12.0107H45.4989L43.5351 9.67174H41.2286C41.1145 9.66592 41.0008 9.6543 40.8879 9.63686V12.0107H40.1782V5.73536H45.4149C45.5528 5.73481 45.689 5.76154 45.8163 5.81399C45.9441 5.86644 46.0595 5.94354 46.1571 6.04092C46.2542 6.1383 46.3315 6.25398 46.3837 6.38127C46.4363 6.50862 46.463 6.64504 46.4626 6.78273H46.4677ZM41.2309 8.95615H45.4204C45.4641 8.9567 45.5074 8.94851 45.5482 8.932C45.5885 8.91554 45.6254 8.89114 45.6564 8.86021C45.6873 8.82927 45.7115 8.79248 45.7281 8.752C45.7446 8.71148 45.7527 8.66807 45.7523 8.62436V6.78273C45.7527 6.73839 45.7446 6.6943 45.7285 6.6531C45.7119 6.6119 45.6873 6.57434 45.6564 6.54265C45.6262 6.51019 45.5897 6.48443 45.549 6.46712C45.5083 6.44976 45.4641 6.44127 45.42 6.44208H41.2303C41.1401 6.44255 41.0538 6.47862 40.99 6.54239C40.9262 6.60617 40.8902 6.69256 40.8897 6.78273V8.62436C40.8888 8.66866 40.8972 8.71263 40.9146 8.7534C40.9319 8.79418 40.9577 8.83084 40.9902 8.86093C41.022 8.89199 41.0596 8.91643 41.101 8.93277C41.1423 8.94915 41.1865 8.95708 41.2309 8.95615Z" fill="#62718A"/>
<path fill-rule="evenodd" clip-rule="evenodd" d="M50.2213 5.72754H56.5031V6.43723H53.7237V12.0147H53.0138V6.43723H50.2213V5.72754ZM60.3106 12.0118V5.72754H61.0205V12.0118H60.3106ZM70.4525 5.72754H71.3606L68.7335 8.86966L71.369 12.0118H70.4525L68.1136 9.22745H66.0887V12.0118H65.3741V5.72754H66.09V8.51127H68.1149L70.4525 5.72754Z" fill="#62718A"/>
</g>
<defs>
<clipPath id="clip0_2886_13362">
<rect width="71.2874" height="16.9732" fill="white" transform="translate(0.201782 0.378906)"/>
</clipPath>
</defs>
</svg>
