<svg width="79" height="14" viewBox="0 0 79 14" fill="none" xmlns="http://www.w3.org/2000/svg">
<path d="M10.5394 7.47301L6.77276 0.581055L5.42187 3.1437L8.45224 8.74139C8.45832 8.74786 8.45832 8.75434 8.46441 8.76081C8.7504 9.31087 8.5496 9.78975 8.44615 9.97094C8.34271 10.1586 8.04454 10.5857 7.44211 10.5857L6.35289 10.5792L1.57002 10.5598L0.22522 13.1548L4.58822 13.1419L7.43603 13.1354C8.71998 13.1419 9.87614 12.4365 10.5212 11.2523C11.1723 10.081 11.1723 8.66374 10.5394 7.47301Z" fill="#62718A"/>
<path d="M11.8355 0.568359L6.77271 0.581302L8.18444 3.16336H10.4907L11.8355 0.568359Z" fill="#858F9F"/>
<path d="M3.60842 4.98217C3.60233 4.9757 3.60233 4.96922 3.59625 4.96275C3.31025 4.41269 3.51106 3.93381 3.60842 3.75262C3.71186 3.56495 4.01003 3.13784 4.61246 3.13784L5.42177 3.14431L6.77266 0.575195L4.62463 0.588138C3.34068 0.581667 2.18451 1.28704 1.53949 2.46482C0.894477 3.64907 0.894477 5.05982 1.52732 6.25055L5.30007 13.1619L6.63878 10.5799L3.60842 4.98217Z" fill="#858F9F"/>
<path d="M17.4359 10.4367C16.9187 10.2878 16.5049 10.0937 16.1946 9.86074L16.797 8.59236C17.1013 8.80591 17.4603 8.98064 17.8862 9.10359C18.3061 9.23302 18.726 9.29773 19.1337 9.29773C20.0708 9.29773 20.5393 9.03241 20.5393 8.50823C20.5393 8.25585 20.4176 8.08759 20.1803 7.98405C19.943 7.88698 19.5596 7.78991 19.0302 7.70579C18.4765 7.61519 18.0262 7.51165 17.6793 7.40163C17.3325 7.28515 17.0282 7.08454 16.7727 6.79333C16.5171 6.50212 16.3893 6.1009 16.3893 5.58319C16.3893 4.9037 16.657 4.36658 17.1864 3.95889C17.7159 3.5512 18.4339 3.35059 19.3406 3.35059C19.803 3.35059 20.2594 3.40883 20.7219 3.51884C21.1843 3.62885 21.5616 3.77769 21.8537 3.96536L21.2513 5.23374C20.6793 4.87782 20.0403 4.69662 19.3284 4.69662C18.8659 4.69662 18.5191 4.76781 18.2818 4.91665C18.0444 5.06549 17.9227 5.25963 17.9227 5.49907C17.9227 5.76439 18.0505 5.95853 18.3061 6.06854C18.5617 6.17855 18.9572 6.2821 19.4927 6.37917C20.0282 6.46976 20.4663 6.57331 20.8132 6.68332C21.1539 6.7998 21.4521 6.99394 21.7016 7.27221C21.9511 7.55048 22.0728 7.93876 22.0728 8.44999C22.0728 9.11654 21.7989 9.65366 21.2574 10.0549C20.7158 10.4561 19.9734 10.6567 19.0363 10.6567C18.4826 10.6632 17.9532 10.592 17.4359 10.4367Z" fill="#62718A"/>
<path d="M28.7238 4.11505C29.2471 4.61982 29.5087 5.37696 29.5087 6.39296V10.5734H28.024V9.70628C27.8293 10.0169 27.5554 10.2563 27.2025 10.4181C26.8496 10.5799 26.4175 10.664 25.9125 10.664C25.4074 10.664 24.9693 10.5734 24.592 10.3922C24.2147 10.211 23.9226 9.95866 23.7218 9.62862C23.5149 9.30506 23.4115 8.93619 23.4115 8.5285C23.4115 7.88784 23.6366 7.37013 24.0809 6.98832C24.5312 6.60004 25.237 6.4059 26.1985 6.4059H27.9327V6.29589C27.9327 5.7976 27.7928 5.41579 27.5128 5.15047C27.2329 4.88514 26.8131 4.74924 26.2654 4.74924C25.8881 4.74924 25.5169 4.81396 25.1518 4.93691C24.7867 5.05987 24.4825 5.23459 24.2269 5.46109L23.6123 4.24448C23.9652 3.95974 24.3851 3.73972 24.878 3.59088C25.3709 3.44204 25.8942 3.36438 26.4479 3.36438C27.4459 3.35791 28.2005 3.61029 28.7238 4.11505ZM27.2938 9.16269C27.598 8.96855 27.8171 8.69675 27.9388 8.34083V7.5125H26.3202C25.4135 7.5125 24.9632 7.82959 24.9632 8.46378C24.9632 8.76794 25.0788 9.00738 25.304 9.1821C25.5291 9.3633 25.8455 9.44742 26.2471 9.44742C26.6366 9.4539 26.9895 9.35683 27.2938 9.16269Z" fill="#62718A"/>
<path d="M33.5067 3.06629V3.4934H35.3505V4.82649H33.5554V10.573H31.9854V4.82649H30.8779V3.4934H31.9854V3.0404C31.9854 2.27679 32.1923 1.66848 32.6122 1.22843C33.032 0.788384 33.6223 0.568359 34.3829 0.568359C34.9853 0.568359 35.46 0.697786 35.8007 0.956639L35.3626 2.21208C35.0949 2.01794 34.8028 1.92087 34.4985 1.92087C33.8353 1.91439 33.5067 2.30267 33.5067 3.06629Z" fill="#62718A"/>
<path d="M42.9994 7.5379H37.7358C37.8271 8.06207 38.0705 8.48271 38.4599 8.78686C38.8494 9.09101 39.3301 9.24633 39.9082 9.24633C40.6445 9.24633 41.253 8.98747 41.7276 8.46977L42.5674 9.49871C42.2631 9.88051 41.8858 10.1717 41.4234 10.3659C40.9609 10.56 40.4437 10.6571 39.8656 10.6571C39.1293 10.6571 38.4782 10.5018 37.9184 10.1911C37.3585 9.88051 36.9265 9.44694 36.6162 8.8904C36.3119 8.33387 36.1598 7.70615 36.1598 7.00078C36.1598 6.30834 36.3058 5.68063 36.604 5.12409C36.9022 4.56756 37.316 4.13398 37.8393 3.82336C38.3687 3.51273 38.9589 3.35742 39.6222 3.35742C40.2733 3.35742 40.8575 3.51273 41.3747 3.81689C41.8919 4.12104 42.2935 4.55462 42.5795 5.11115C42.8655 5.66768 43.0116 6.30834 43.0116 7.0396C43.0298 7.16256 43.0177 7.32434 42.9994 7.5379ZM38.3626 5.16939C38.0157 5.48649 37.8028 5.90712 37.7297 6.4313H41.5329C41.466 5.91359 41.2591 5.49943 40.9183 5.17586C40.5775 4.8523 40.1455 4.69699 39.6344 4.69699C39.1354 4.69699 38.7094 4.8523 38.3626 5.16939Z" fill="#62718A"/>
<path d="M50.2527 3.81744C50.7699 4.1216 51.1716 4.5487 51.4636 5.09877C51.7557 5.64883 51.9018 6.28949 51.9018 7.00781C51.9018 7.72612 51.7557 8.36679 51.4636 8.92332C51.1716 9.47985 50.7639 9.90696 50.2527 10.2111C49.7355 10.5153 49.1513 10.6641 48.5002 10.6641C47.5935 10.6641 46.8816 10.3405 46.3522 9.69988V13.162H44.7822V3.44211H46.2792V4.38045C46.5408 4.04394 46.8572 3.78509 47.2406 3.61683C47.624 3.44858 48.0438 3.36445 48.5002 3.36445C49.1574 3.35798 49.7416 3.51329 50.2527 3.81744ZM49.7537 8.62564C50.1249 8.21795 50.3136 7.67435 50.3136 7.00781C50.3136 6.34126 50.1249 5.80414 49.7537 5.38998C49.3825 4.98228 48.9079 4.7752 48.3298 4.7752C47.9526 4.7752 47.6118 4.8658 47.3136 5.047C47.0094 5.22819 46.772 5.48705 46.5956 5.83003C46.4191 6.16654 46.3339 6.56129 46.3339 7.00781C46.3339 7.45433 46.4191 7.84261 46.5956 8.18559C46.772 8.5221 47.0094 8.78742 47.3136 8.96862C47.6179 9.14982 47.9526 9.24041 48.3298 9.24041C48.9079 9.24041 49.3825 9.03333 49.7537 8.62564Z" fill="#62718A"/>
<path d="M57.5366 3.35742V4.94937C57.4027 4.92348 57.281 4.91054 57.1715 4.91054C56.563 4.91054 56.0822 5.09821 55.7415 5.48002C55.4007 5.85535 55.2242 6.40542 55.2242 7.11726V10.5794H53.6543V3.44155H55.1512V4.48343C55.6015 3.73276 56.3926 3.35742 57.5366 3.35742Z" fill="#62718A"/>
<path d="M65.3315 7.5379H60.068C60.1592 8.06207 60.4026 8.48271 60.7921 8.78686C61.1815 9.09101 61.6623 9.24633 62.2403 9.24633C62.9766 9.24633 63.5851 8.98747 64.0598 8.46977L64.8995 9.49871C64.5953 9.88052 64.218 10.1717 63.7555 10.3659C63.2931 10.56 62.7758 10.6571 62.1977 10.6571C61.4615 10.6571 60.8104 10.5018 60.2505 10.1911C59.6907 9.88052 59.2587 9.44694 58.9483 8.8904C58.6441 8.33387 58.4919 7.70615 58.4919 7.00078C58.4919 6.30835 58.638 5.68063 58.9362 5.12409C59.2343 4.56756 59.6481 4.13398 60.1714 3.82336C60.7008 3.51273 61.2911 3.35742 61.9543 3.35742C62.6054 3.35742 63.1896 3.51273 63.7068 3.81689C64.2241 4.12104 64.6257 4.55462 64.9117 5.11115C65.1977 5.66768 65.3437 6.30835 65.3437 7.03961C65.3559 7.16256 65.3498 7.32434 65.3315 7.5379ZM60.6947 5.16939C60.3479 5.48649 60.1349 5.90712 60.0619 6.4313H63.865C63.7981 5.91359 63.5912 5.49943 63.2505 5.17586C62.9097 4.8523 62.4777 4.69699 61.9665 4.69699C61.4675 4.69699 61.0416 4.8523 60.6947 5.16939Z" fill="#62718A"/>
<path d="M67.5952 10.4367C67.078 10.2878 66.6642 10.0937 66.3539 9.86074L66.9563 8.59236C67.2606 8.80591 67.6196 8.98064 68.0455 9.10359C68.4654 9.23302 68.8853 9.29773 69.293 9.29773C70.2301 9.29773 70.6986 9.03241 70.6986 8.50823C70.6986 8.25585 70.5769 8.08759 70.3396 7.98405C70.1023 7.88698 69.7189 7.78991 69.1895 7.70579C68.6358 7.61519 68.1855 7.51165 67.8386 7.40163C67.4918 7.28515 67.1875 7.08454 66.932 6.79333C66.6764 6.50212 66.5486 6.1009 66.5486 5.58319C66.5486 4.9037 66.8164 4.36658 67.3458 3.95889C67.8752 3.5512 68.5932 3.35059 69.4999 3.35059C69.9623 3.35059 70.4187 3.40883 70.8812 3.51884C71.3437 3.62885 71.7209 3.77769 72.013 3.96536L71.4106 5.23374C70.8386 4.87782 70.1997 4.69662 69.4877 4.69662C69.0252 4.69662 68.6784 4.76781 68.4411 4.91665C68.2038 5.06549 68.082 5.25963 68.082 5.49907C68.082 5.76439 68.2098 5.95853 68.4654 6.06854C68.721 6.17855 69.1165 6.2821 69.652 6.37917C70.1875 6.46976 70.6256 6.57331 70.9725 6.68332C71.3132 6.7998 71.6114 6.99394 71.8609 7.27221C72.1104 7.55048 72.2321 7.93876 72.2321 8.44999C72.2321 9.11654 71.9582 9.65366 71.4167 10.0549C70.8751 10.4561 70.1327 10.6567 69.1956 10.6567C68.648 10.6632 68.1125 10.592 67.5952 10.4367Z" fill="#62718A"/>
<path d="M74.3131 10.4367C73.7959 10.2878 73.3821 10.0937 73.0718 9.86074L73.6742 8.59236C73.9785 8.80591 74.3375 8.98064 74.7634 9.10359C75.1833 9.23302 75.6032 9.29773 76.0109 9.29773C76.948 9.29773 77.4165 9.03241 77.4165 8.50823C77.4165 8.25585 77.2948 8.08759 77.0575 7.98405C76.8202 7.88698 76.4368 7.78991 75.9074 7.70579C75.3537 7.61519 74.9034 7.51165 74.5565 7.40163C74.2097 7.28515 73.9054 7.08454 73.6499 6.79333C73.3943 6.50212 73.2665 6.1009 73.2665 5.58319C73.2665 4.9037 73.5342 4.36658 74.0636 3.95889C74.593 3.5512 75.3111 3.35059 76.2178 3.35059C76.6802 3.35059 77.1366 3.40883 77.5991 3.51884C78.0615 3.62885 78.4388 3.77769 78.7309 3.96536L78.1285 5.23374C77.5565 4.87782 76.9175 4.69662 76.2056 4.69662C75.7431 4.69662 75.3963 4.76781 75.159 4.91665C74.9216 5.06549 74.7999 5.25963 74.7999 5.49907C74.7999 5.76439 74.9277 5.95853 75.1833 6.06854C75.4389 6.17855 75.8344 6.2821 76.3699 6.37917C76.9054 6.46976 77.3435 6.57331 77.6904 6.68332C78.0311 6.7998 78.3293 6.99394 78.5788 7.27221C78.8283 7.55048 78.95 7.93876 78.95 8.44999C78.95 9.11654 78.6761 9.65366 78.1346 10.0549C77.593 10.4561 76.8506 10.6567 75.9135 10.6567C75.3659 10.6632 74.8304 10.592 74.3131 10.4367Z" fill="#62718A"/>
</svg>
