<svg width="40" height="40" viewBox="0 0 40 40" fill="none" xmlns="http://www.w3.org/2000/svg">
<circle cx="20" cy="20" r="20" fill="url(#paint0_linear_1_8)"/>
<path d="M23.9017 31.4301L21.3086 28.8369C20.5722 28.1004 19.3815 28.1004 18.6529 28.8369L16.0598 31.4301C15.2999 32.19 14.0622 32.19 13.3023 31.4301L12.0488 30.1766L16.0207 26.2045C18.2064 24.0187 21.7474 24.0187 23.933 26.2045L27.9049 30.1766L26.6515 31.4301C25.8994 32.19 24.6694 32.19 23.9017 31.4301Z" fill="white"/>
<path d="M9.82337 27.9432L8.56993 26.6897C7.81002 25.9298 7.81002 24.692 8.56993 23.932L11.163 21.3389C11.8994 20.6024 11.8994 19.4116 11.163 18.683L8.56993 16.0898C7.81002 15.3299 7.81002 14.0921 8.56993 13.3321L9.82337 12.0786L13.7952 16.0506C15.9809 18.2364 15.9809 21.7776 13.7952 23.9634L9.82337 27.9432Z" fill="white"/>
<path d="M20.0149 15.4329C18.5813 15.4329 17.1477 14.8923 16.0588 13.7955L12.0869 9.82345L13.3404 8.56995C14.1003 7.81002 15.338 7.81002 16.0979 8.56995L18.691 11.1631C19.4196 11.8917 20.6182 11.8917 21.3467 11.1631L23.9398 8.56995C24.6997 7.81002 25.9375 7.81002 26.6974 8.56995L27.9508 9.82345L23.979 13.7955C22.8822 14.8766 21.4486 15.4329 20.0149 15.4329Z" fill="white"/>
<path d="M30.1761 27.912L26.2042 23.9399C24.0185 21.7541 24.0185 18.213 26.2042 16.0272L30.1761 12.0552L31.4295 13.3087C32.1894 14.0686 32.1894 15.3064 31.4295 16.0664L28.8364 18.6596C28.1 19.396 28.1 20.5868 28.8364 21.3154L31.4295 23.9086C32.1894 24.6685 32.1894 25.9064 31.4295 26.6663L30.1761 27.912Z" fill="white"/>
<defs>
<linearGradient id="paint0_linear_1_8" x1="12.973" y1="5.4054" x2="68.6487" y2="-24.8649" gradientUnits="userSpaceOnUse">
<stop stop-color="#E22440"/>
</linearGradient>
</defs>
</svg>
