<svg width="17" height="22" viewBox="0 0 13 16" fill="none" xmlns="http://www.w3.org/2000/svg">
<path d="M7.19179 15.9883C7.31391 15.9645 7.42637 15.9053 7.51521 15.8182L9.58736 13.7715C9.84161 13.5173 9.84161 13.1232 9.58736 12.8689L7.52792 10.8095C7.13383 10.4027 6.44735 10.6824 6.44735 11.2544V12.4494C5.27779 12.4748 4.10824 12.0553 3.21836 11.1654C1.9471 9.89417 1.61657 8.06356 2.20135 6.4872C2.32847 6.13125 2.26491 5.72445 1.98524 5.44477C1.50216 4.94898 0.650415 5.11424 0.408876 5.76258C-0.0221756 6.90621 -0.114734 8.14979 0.142269 9.34462C0.399272 10.5395 0.99496 11.635 1.85811 12.5003C3.10394 13.7334 4.73115 14.3563 6.35837 14.3563H6.43464V15.3733C6.43639 15.4977 6.47461 15.6189 6.54457 15.7218C6.61453 15.8247 6.71314 15.9047 6.82819 15.9521C6.94324 15.9995 7.06967 16.0121 7.19179 15.9883Z" fill="#395FEB"/>
<path d="M10.4717 10.0782C10.51 10.2628 10.6001 10.4327 10.7315 10.5679C11.2146 11.0637 12.0536 10.8985 12.2951 10.2374C12.7262 9.09379 12.8188 7.85021 12.5617 6.65537C12.3047 5.46054 11.7091 4.365 10.8459 3.49974C9.58736 2.22849 7.92201 1.631 6.26938 1.65642V0.626701C6.26763 0.502292 6.22941 0.381131 6.15945 0.27824C6.08949 0.175348 5.99088 0.0952508 5.87583 0.0478773C5.76078 0.000503835 5.63435 -0.0120626 5.51223 0.0117365C5.3901 0.0355357 5.27765 0.0946534 5.18881 0.181761L3.12937 2.2412C2.87512 2.49545 2.87512 2.88954 3.12937 3.14379L5.20152 5.19052C5.59561 5.59732 6.28209 5.31764 6.28209 4.74558V3.5506C7.43894 3.52517 8.60849 3.9574 9.49837 4.84728C10.7696 6.11854 11.1002 7.94915 10.5154 9.52551C10.4486 9.70183 10.4334 9.89355 10.4717 10.0782Z" fill="#395FEB"/>
</svg>
