<svg width="16" height="15" viewBox="0 0 16 15" fill="none" xmlns="http://www.w3.org/2000/svg">
<g clip-path="url(#clip0_2742_14561)">
<path d="M1.65579 5.96121L6.52298 11.2897L4.17923 5.96121H1.65579ZM7.99955 12.1471L10.7261 5.96121H5.27298L7.99955 12.1471ZM4.20267 4.93557L5.79642 1.85865H3.74954L1.49954 4.93557H4.20267ZM9.47611 11.2897L14.3433 5.96121H11.8199L9.47611 11.2897ZM5.33548 4.93557H10.6636L9.06986 1.85865H6.92923L5.33548 4.93557ZM11.7964 4.93557H14.4995L12.2495 1.85865H10.2027L11.7964 4.93557ZM12.898 1.04134L15.898 5.14391C15.9709 5.24006 16.0048 5.3509 15.9995 5.47644C15.9943 5.60197 15.9501 5.71014 15.8667 5.80096L8.36673 14.0061C8.27298 14.1129 8.15059 14.1663 7.99955 14.1663C7.8485 14.1663 7.72611 14.1129 7.63236 14.0061L0.132357 5.80096C0.0490234 5.71014 0.0047526 5.60197 -0.000455729 5.47644C-0.00566406 5.3509 0.0281901 5.24006 0.101107 5.14391L3.10111 1.04134C3.19486 0.902452 3.32767 0.833008 3.49954 0.833008H12.4995C12.6714 0.833008 12.8042 0.902452 12.898 1.04134Z" fill="#395FEB"/>
</g>
<defs>
<clipPath id="clip0_2742_14561">
<rect width="16" height="13.3333" fill="white" transform="translate(0 0.833008)"/>
</clipPath>
</defs>
</svg>
