<svg width="36" height="42" viewBox="0 0 36 42" fill="none" xmlns="http://www.w3.org/2000/svg">
<g clip-path="url(#clip0_552_5295)">
<path d="M35.5135 5.28649C35.5131 3.88457 34.9601 2.5402 33.9761 1.5489C32.9922 0.55759 31.6578 0.000472903 30.2663 0H3.58562C2.89003 0 2.22293 0.278394 1.73107 0.773931C1.23921 1.26947 0.962891 1.94156 0.962891 2.64235C0.962928 3.13706 1.1009 3.62181 1.36109 4.04135C1.62128 4.4609 1.99322 4.79836 2.43452 5.01529L0.962891 33.9616H31.7167C32.2152 33.9619 32.7089 33.8632 33.1695 33.6711C33.6302 33.4791 34.0488 33.1975 34.4014 32.8424C34.7539 32.4873 35.0336 32.0658 35.2245 31.6018C35.4153 31.1378 35.5135 30.6404 35.5135 30.1382V5.28649Z" fill="#923301"/>
<path d="M35.5135 5.28649C35.5131 3.88457 34.9601 2.5402 33.9761 1.5489C32.9922 0.55759 31.6578 0.000472903 30.2663 0H3.58562C2.89003 0 2.22293 0.278394 1.73107 0.773931C1.23921 1.26947 0.962891 1.94156 0.962891 2.64235C0.962928 3.13706 1.1009 3.62181 1.36109 4.04135C1.62128 4.4609 1.99322 4.79836 2.43452 5.01529L0.962891 33.9616H31.7167C32.2152 33.9619 32.7089 33.8632 33.1695 33.6711C33.6302 33.4791 34.0488 33.1975 34.4014 32.8424C34.7539 32.4873 35.0336 32.0658 35.2245 31.6018C35.4153 31.1378 35.5135 30.6404 35.5135 30.1382V5.28649Z" fill="#3A487C"/>
<path opacity="0.3" d="M30.2663 0H3.58562C2.89003 0 2.22293 0.278394 1.73107 0.773931C1.23921 1.26947 0.962891 1.94156 0.962891 2.64235C0.962928 3.13706 1.1009 3.62181 1.36109 4.04135C1.62128 4.4609 1.99322 4.79836 2.43452 5.01529L0.962891 33.9616H31.7167C32.2152 33.9619 32.7089 33.8632 33.1695 33.6711C33.6302 33.4791 34.0488 33.1975 34.4014 32.8424C34.7539 32.4873 35.0336 32.0658 35.2245 31.6018C35.4153 31.1378 35.5135 30.6404 35.5135 30.1382V5.28649C35.5131 3.88457 34.9601 2.5402 33.9761 1.5489C32.9922 0.55759 31.6578 0.000472903 30.2663 0ZM34.9929 30.1382C34.9919 31.0131 34.6464 31.8519 34.0322 32.4704C33.4179 33.089 32.5851 33.4366 31.7167 33.4371H1.51011L2.97288 4.69593L2.66474 4.54427C2.23686 4.33508 1.89211 3.98577 1.68692 3.55349C1.48173 3.12122 1.42823 2.63158 1.53519 2.16469C1.64215 1.6978 1.90323 1.28131 2.27571 0.983362C2.64819 0.685414 3.11002 0.523651 3.58562 0.524546H30.2663C31.5194 0.525963 32.7208 1.02812 33.6069 1.92086C34.493 2.81359 34.9915 4.02398 34.9929 5.28649V30.1382Z" fill="#666D89"/>
<path d="M32.6641 8.65675H4.28516V7.40784H31.4174C31.7462 7.40784 32.0615 7.53942 32.294 7.77363C32.5265 8.00785 32.6571 8.32552 32.6571 8.65675H32.6641Z" fill="#2A2F47"/>
<path d="M32.6641 4.79054H4.28516C4.28516 4.45931 4.41576 4.14165 4.64824 3.90743C4.88072 3.67322 5.19603 3.54163 5.5248 3.54163H31.4174C31.7462 3.54163 32.0615 3.67322 32.294 3.90743C32.5265 4.14165 32.6571 4.45931 32.6571 4.79054H32.6641Z" fill="#2A2F47"/>
<path d="M6.5718 5.86462H30.38C30.5524 5.86462 30.7177 5.93361 30.8396 6.05641C30.9615 6.1792 31.03 6.34575 31.03 6.51941V8.02882H5.92188V6.51941C5.92188 6.34575 5.99035 6.1792 6.11223 6.05641C6.23412 5.93361 6.39943 5.86462 6.5718 5.86462Z" fill="#ECF1F8"/>
<path d="M28.7448 8.94577L2.87343 4.25163C2.06589 4.10533 1.45669 3.4434 1.23002 2.587L0.962607 2.51562L0.00808142 32.9964C-0.0243499 34.0214 0.299076 35.0257 0.922639 35.8363C1.5462 36.6469 2.43085 37.2131 3.42419 37.4372L22.8707 41.8351C24.9285 42.208 28.9166 41.1 29.3593 38.6236L31.6739 14.1092C32.1095 11.6309 30.8008 9.32223 28.7448 8.94577Z" fill="#3E64ED"/>
<path opacity="0.2" d="M29.3522 38.6219L31.6668 14.1075C31.8839 12.9785 31.7107 11.8086 31.1763 10.7925C29.0512 15.8559 20.7526 31.8278 0.00808142 32.6664V32.9965C-0.0243499 34.0215 0.299076 35.0258 0.922639 35.8364C1.5462 36.647 2.43085 37.2132 3.42419 37.4373L22.8707 41.8352C24.9214 42.2081 28.9095 41.1001 29.3522 38.6219Z" fill="#112A83"/>
<path opacity="0.03" d="M1.81965 32.5521L5.04626 16.7533C5.42557 14.8976 6.51448 13.2669 8.07761 12.2135C9.64073 11.1602 11.5525 10.7689 13.3997 11.1242L29.5151 14.2269C30.1293 13.1125 30.6844 11.9661 31.178 10.7924C30.6467 9.82893 29.7984 9.1349 28.75 8.94577L2.87511 4.25163C2.06757 4.10533 1.45838 3.4434 1.2317 2.587L0.964291 2.51562L0.00976562 32.9964L0.0203907 32.6663C0.626045 32.6413 1.22816 32.6021 1.81965 32.5521Z" fill="white"/>
<g opacity="0.3">
<path opacity="0.3" d="M4.31818 5.84491H4.34298C4.37339 5.84422 4.40264 5.83303 4.42585 5.81322C4.44906 5.79341 4.46481 5.76619 4.47048 5.73608V5.71467C4.47062 5.68388 4.46008 5.65401 4.44068 5.63023C4.42127 5.60645 4.39423 5.59024 4.36423 5.58442L3.59742 5.44526C3.56471 5.44191 3.53194 5.45107 3.50563 5.47092C3.47931 5.49078 3.46136 5.51987 3.45534 5.55243C3.44932 5.585 3.45567 5.61866 3.47313 5.64673C3.49059 5.6748 3.51789 5.69522 3.5496 5.70395L4.31818 5.84491Z" fill="white"/>
<path opacity="0.3" d="M1.77918 13.7399C1.76244 13.7396 1.74581 13.7427 1.73025 13.749C1.71469 13.7552 1.7005 13.7645 1.6885 13.7762C1.67649 13.788 1.66691 13.802 1.66028 13.8175C1.65366 13.833 1.65013 13.8497 1.6499 13.8665L1.62511 14.6534C1.6244 14.6705 1.62711 14.6877 1.63309 14.7038C1.63907 14.7199 1.64819 14.7346 1.65991 14.747C1.67163 14.7595 1.68572 14.7695 1.70134 14.7764C1.71696 14.7833 1.73379 14.787 1.75085 14.7872C1.76759 14.7874 1.78422 14.7843 1.79978 14.7781C1.81534 14.7719 1.82952 14.7626 1.84153 14.7508C1.85353 14.7391 1.86312 14.725 1.86974 14.7095C1.87637 14.694 1.87989 14.6774 1.88012 14.6605L1.90492 13.8755C1.90587 13.8582 1.90334 13.8408 1.89748 13.8245C1.89161 13.8082 1.88253 13.7933 1.87078 13.7806C1.85903 13.768 1.84486 13.7578 1.82912 13.7508C1.81338 13.7438 1.79639 13.7401 1.77918 13.7399Z" fill="white"/>
<path opacity="0.3" d="M4.46358 36.331L3.68968 36.1525C3.67967 36.1517 3.66959 36.1517 3.65958 36.1525C3.62601 36.1445 3.59062 36.15 3.56111 36.1681C3.5316 36.1861 3.51035 36.2152 3.50197 36.2489C3.50197 36.2578 3.50197 36.2685 3.50197 36.2774C3.50156 36.307 3.51116 36.3358 3.52918 36.3592C3.54721 36.3825 3.57258 36.399 3.60114 36.4059H3.63655L4.4069 36.5843C4.41628 36.586 4.42586 36.586 4.43524 36.5843C4.46911 36.588 4.50306 36.578 4.52969 36.5566C4.55632 36.5352 4.57348 36.5041 4.57745 36.47C4.58141 36.4359 4.57186 36.4016 4.55087 36.3746C4.52988 36.3475 4.49914 36.3299 4.46535 36.3256L4.46358 36.331Z" fill="white"/>
<path opacity="0.3" d="M5.85262 6.12321H5.87387C5.90443 6.12335 5.93407 6.11272 5.95768 6.09317C5.98128 6.07362 5.99737 6.04638 6.00315 6.01615C6.00403 6.00785 6.00403 5.99948 6.00315 5.99118C6.00322 5.96061 5.99261 5.93099 5.97318 5.9075C5.95376 5.88402 5.92675 5.86816 5.89689 5.86271L5.12831 5.72355C5.09433 5.71776 5.05945 5.72551 5.03103 5.74515C5.00261 5.76479 4.98288 5.79479 4.97601 5.82881C4.97107 5.86328 4.97929 5.89835 4.99904 5.92694C5.00827 5.94154 5.02046 5.95401 5.0348 5.96354C5.04914 5.97307 5.06532 5.97945 5.08227 5.98226L5.85262 6.12321Z" fill="white"/>
<path opacity="0.3" d="M1.92951 9.0243C1.91276 9.02407 1.89614 9.02716 1.88058 9.0334C1.86502 9.03964 1.85083 9.0489 1.83883 9.06067C1.82682 9.07243 1.81723 9.08645 1.81061 9.10195C1.80399 9.11744 1.80046 9.1341 1.80023 9.15097L1.77544 9.9378C1.77497 9.9549 1.77785 9.97193 1.78391 9.98791C1.78998 10.0039 1.79911 10.0185 1.81079 10.0309C1.82246 10.0434 1.83645 10.0534 1.85196 10.0603C1.86747 10.0673 1.8842 10.0711 1.90118 10.0716C1.91792 10.0718 1.93455 10.0688 1.95011 10.0625C1.96567 10.0563 1.97985 10.047 1.99186 10.0353C2.00386 10.0235 2.01345 10.0095 2.02007 9.99396C2.02669 9.97846 2.03022 9.9618 2.03045 9.94493L2.05702 9.15812C2.05749 9.1234 2.04438 9.08989 2.02052 9.06485C1.99665 9.0398 1.96396 9.02524 1.92951 9.0243Z" fill="white"/>
<path opacity="0.3" d="M1.83006 12.1769C1.79621 12.1769 1.76365 12.19 1.73922 12.2136C1.7148 12.2373 1.70039 12.2695 1.69901 12.3036L1.67599 13.0886C1.67501 13.1058 1.67748 13.1231 1.68326 13.1393C1.68904 13.1556 1.69801 13.1705 1.70964 13.1832C1.72128 13.1961 1.7355 13.2064 1.75136 13.2135C1.76722 13.2206 1.78438 13.2242 1.80173 13.2242C1.8354 13.2237 1.86757 13.21 1.89138 13.1861C1.91519 13.1621 1.92877 13.1297 1.92923 13.0957L1.95403 12.3107C1.95474 12.2937 1.95208 12.2767 1.94621 12.2607C1.94034 12.2447 1.93138 12.2301 1.91985 12.2176C1.90831 12.2052 1.89443 12.1952 1.87902 12.1882C1.8636 12.1812 1.84696 12.1773 1.83006 12.1769Z" fill="white"/>
<path opacity="0.3" d="M1.88068 10.5944C1.84667 10.5948 1.81411 10.6084 1.78973 10.6323C1.76534 10.6562 1.75099 10.6886 1.74964 10.7228L1.72661 11.5096C1.72614 11.5267 1.72902 11.5438 1.73509 11.5598C1.74115 11.5757 1.75028 11.5904 1.76196 11.6028C1.77364 11.6152 1.78763 11.6252 1.80314 11.6322C1.81865 11.6392 1.83537 11.643 1.85235 11.6435C1.86909 11.6437 1.88572 11.6406 1.90128 11.6344C1.91684 11.6281 1.93103 11.6189 1.94303 11.6071C1.95504 11.5953 1.96462 11.5813 1.97124 11.5658C1.97787 11.5503 1.98139 11.5336 1.98163 11.5168L2.00642 10.7282C2.00691 10.6938 1.99404 10.6605 1.97055 10.6355C1.94707 10.6105 1.91482 10.5958 1.88068 10.5944Z" fill="white"/>
<path opacity="0.3" d="M5.98698 36.6753L5.22372 36.4969C5.19038 36.4894 5.15546 36.4955 5.1266 36.5139C5.09773 36.5323 5.07726 36.5615 5.06965 36.595C5.06793 36.605 5.06793 36.6153 5.06965 36.6253C5.06983 36.6551 5.08012 36.6839 5.09881 36.7069C5.11749 36.73 5.14345 36.7459 5.17236 36.752L5.93209 36.9304C5.94205 36.9321 5.95223 36.9321 5.96219 36.9304C5.99187 36.93 6.02054 36.9196 6.04365 36.9008C6.06676 36.8821 6.08297 36.8561 6.0897 36.8269C6.09562 36.7924 6.08868 36.7568 6.07022 36.727C6.05014 36.6996 6.02032 36.6811 5.98698 36.6753Z" fill="white"/>
<path opacity="0.3" d="M1.9804 7.45241C1.96365 7.45217 1.94702 7.45526 1.93146 7.4615C1.91591 7.46774 1.90172 7.477 1.88971 7.48877C1.87771 7.50053 1.86812 7.51455 1.8615 7.53005C1.85488 7.54555 1.85135 7.5622 1.85112 7.57907L1.82633 8.36411C1.82547 8.38148 1.82818 8.39884 1.83427 8.41511C1.84036 8.43138 1.84971 8.4462 1.86174 8.45867C1.88481 8.48346 1.91659 8.49819 1.95029 8.49971C1.98414 8.49974 2.0167 8.48656 2.04113 8.46295C2.06555 8.43933 2.07996 8.40711 2.08134 8.37303L2.10613 7.588C2.10684 7.57075 2.10414 7.55352 2.09818 7.53733C2.09223 7.52114 2.08313 7.50631 2.07143 7.49369C2.05973 7.48107 2.04566 7.47092 2.03003 7.46383C2.0144 7.45674 1.99753 7.45286 1.9804 7.45241Z" fill="white"/>
<path opacity="0.3" d="M2.96003 35.8867C2.73869 35.7702 2.53182 35.6277 2.34375 35.4621C2.3179 35.4418 2.28552 35.4319 2.25282 35.4342C2.22013 35.4365 2.18944 35.4509 2.16665 35.4746C2.14663 35.4979 2.13535 35.5276 2.13478 35.5584C2.13452 35.5773 2.13835 35.5961 2.14599 35.6133C2.15364 35.6306 2.16492 35.6459 2.17905 35.6584C2.38085 35.8383 2.60319 35.9934 2.84137 36.1205C2.85954 36.1296 2.87952 36.1345 2.89981 36.1347C2.92367 36.1347 2.94705 36.128 2.96736 36.1154C2.98768 36.1028 3.00414 36.0848 3.01492 36.0634C3.02186 36.0476 3.02544 36.0306 3.02544 36.0134C3.02544 35.9962 3.02186 35.9792 3.01492 35.9635C3.00681 35.9319 2.98722 35.9045 2.96003 35.8867Z" fill="white"/>
<path opacity="0.3" d="M10.5549 37.7083L9.79516 37.5299C9.76135 37.5225 9.72599 37.5288 9.69679 37.5475C9.6676 37.5662 9.64694 37.5958 9.63932 37.6298C9.63846 37.6393 9.63846 37.6489 9.63932 37.6584C9.63941 37.6879 9.64944 37.7165 9.66778 37.7395C9.68612 37.7625 9.71168 37.7786 9.74026 37.7851L10.5035 37.9635H10.5319C10.5649 37.965 10.5972 37.9538 10.6223 37.9321C10.6473 37.9104 10.6632 37.8799 10.6666 37.8468C10.67 37.8137 10.6607 37.7805 10.6405 37.7541C10.6204 37.7277 10.591 37.71 10.5584 37.7048L10.5549 37.7083Z" fill="white"/>
<path opacity="0.3" d="M12.0007 7.23834H12.022C12.0524 7.23814 12.0819 7.2274 12.1055 7.20791C12.129 7.18842 12.1452 7.16136 12.1513 7.13129C12.1521 7.12358 12.1521 7.11581 12.1513 7.1081C12.152 7.07734 12.1417 7.04734 12.1222 7.0237C12.1026 7.00006 12.0752 6.98439 12.045 6.97964L11.2764 6.83869C11.244 6.83603 11.2117 6.84565 11.1859 6.86567C11.1601 6.8857 11.1426 6.91468 11.1368 6.94698C11.1311 6.97928 11.1375 7.01258 11.1548 7.04039C11.1721 7.0682 11.199 7.08852 11.2304 7.0974L12.0007 7.23834Z" fill="white"/>
<path opacity="0.3" d="M12.0801 38.0473L11.3186 37.8689C11.3018 37.8649 11.2845 37.8644 11.2675 37.8673C11.2506 37.8702 11.2343 37.8765 11.2198 37.8858C11.2053 37.8951 11.1928 37.9073 11.183 37.9215C11.1732 37.9358 11.1663 37.9518 11.1628 37.9688C11.1619 37.9783 11.1619 37.9878 11.1628 37.9973C11.1629 38.0271 11.1732 38.0559 11.1919 38.079C11.2106 38.102 11.2366 38.1179 11.2655 38.124L12.027 38.3024C12.0363 38.3043 12.0459 38.3043 12.0553 38.3024C12.0849 38.3026 12.1137 38.2923 12.1366 38.2735C12.1596 38.2546 12.1753 38.2282 12.181 38.1989C12.1868 38.1654 12.1796 38.131 12.1608 38.1027C12.142 38.0744 12.1131 38.0546 12.0801 38.0473Z" fill="white"/>
<path opacity="0.3" d="M10.4572 6.95994H10.482C10.5125 6.95959 10.5419 6.94852 10.5652 6.92865C10.5885 6.90878 10.6041 6.88136 10.6095 6.85111V6.82434C10.6096 6.79377 10.599 6.76415 10.5795 6.74066C10.5601 6.71718 10.5331 6.70133 10.5032 6.69589L9.73644 6.55672C9.7024 6.55045 9.66729 6.558 9.63875 6.57772C9.61022 6.59744 9.59059 6.62774 9.58414 6.66199C9.58108 6.67886 9.58135 6.69617 9.58495 6.71294C9.58855 6.7297 9.5954 6.74559 9.60511 6.75968C9.61482 6.77377 9.62719 6.78579 9.64152 6.79505C9.65585 6.80431 9.67186 6.81063 9.68862 6.81364L10.4572 6.95994Z" fill="white"/>
<path opacity="0.3" d="M7.39051 6.40159H7.4153C7.44555 6.40132 7.47478 6.3905 7.49802 6.37099C7.52126 6.35148 7.53708 6.32447 7.5428 6.29454V6.27135C7.54323 6.24068 7.53275 6.21087 7.51326 6.18731C7.49378 6.16375 7.46657 6.14799 7.43655 6.14288L6.66974 6.00194C6.63551 5.9962 6.6004 6.00418 6.57194 6.02419C6.54347 6.04419 6.52391 6.07463 6.51744 6.10898C6.5118 6.14323 6.51941 6.17835 6.5387 6.20711C6.55858 6.23507 6.58839 6.25424 6.62193 6.26065L7.39051 6.40159Z" fill="white"/>
<path opacity="0.3" d="M9.04102 37.3658L8.27953 37.1873C8.24597 37.1798 8.21082 37.1859 8.18167 37.2043C8.15252 37.2226 8.1317 37.2518 8.12369 37.2855C8.12283 37.2956 8.12283 37.3057 8.12369 37.3158C8.12459 37.3453 8.13489 37.3737 8.15307 37.3969C8.17125 37.42 8.19634 37.4366 8.22463 37.4443L8.9879 37.6227H9.01623C9.04561 37.6229 9.07417 37.6129 9.09708 37.5944C9.11999 37.5759 9.13585 37.5499 9.14197 37.521C9.14559 37.5041 9.14584 37.4867 9.14271 37.4697C9.13958 37.4527 9.13314 37.4365 9.12374 37.4221C9.11435 37.4076 9.1022 37.3952 9.088 37.3856C9.0738 37.3759 9.05783 37.3692 9.04102 37.3658Z" fill="white"/>
<path opacity="0.3" d="M7.50986 37.0197L6.7466 36.8413C6.71309 36.8348 6.67841 36.8416 6.64972 36.8602C6.62104 36.8788 6.60056 36.9078 6.59253 36.9412C6.59155 36.9513 6.59155 36.9614 6.59253 36.9715C6.59302 37.0012 6.60343 37.0298 6.62207 37.0528C6.6407 37.0758 6.66648 37.0918 6.69524 37.0982L7.45673 37.2766H7.48507C7.51436 37.2765 7.54276 37.2664 7.5656 37.2479C7.58845 37.2294 7.60438 37.2037 7.6108 37.1749C7.61763 37.1408 7.61086 37.1055 7.59197 37.0764C7.57307 37.0474 7.54357 37.027 7.50986 37.0197Z" fill="white"/>
<path opacity="0.3" d="M8.92699 6.67988H8.95001C8.98042 6.67919 9.00967 6.66801 9.03288 6.6482C9.05609 6.62839 9.07185 6.60116 9.07752 6.57105C9.07846 6.56335 9.07846 6.55555 9.07752 6.54785C9.07831 6.51709 9.06797 6.48709 9.04842 6.46345C9.02886 6.43981 9.00144 6.42414 8.97126 6.41939L8.20268 6.28023C8.16865 6.27396 8.13353 6.28151 8.105 6.30123C8.07647 6.32095 8.05683 6.35124 8.05038 6.38549C8.04514 6.41992 8.05325 6.45506 8.07304 6.48362C8.09282 6.51219 8.12275 6.532 8.15664 6.53893L8.92699 6.67988Z" fill="white"/>
<path opacity="0.3" d="M1.69821 16.359C1.73177 16.3591 1.76408 16.3461 1.78846 16.3229C1.81284 16.2997 1.82745 16.2679 1.82926 16.2341L1.85405 15.4455C1.85363 15.4112 1.84016 15.3784 1.81644 15.3539C1.79271 15.3293 1.76054 15.3149 1.72655 15.3135C1.7098 15.3133 1.69317 15.3163 1.67762 15.3226C1.66206 15.3288 1.64787 15.3381 1.63586 15.3498C1.62386 15.3616 1.61427 15.3756 1.60765 15.3911C1.60103 15.4066 1.5975 15.4233 1.59727 15.4402L1.57248 16.2252C1.57149 16.2424 1.57396 16.2597 1.57975 16.2759C1.58553 16.2922 1.5945 16.3071 1.60612 16.3198C1.63046 16.3446 1.66357 16.3587 1.69821 16.359Z" fill="white"/>
<path opacity="0.3" d="M1.5498 21.0764C1.58378 21.0764 1.6164 21.0629 1.64059 21.0389C1.66479 21.0148 1.67861 20.9821 1.67908 20.9479L1.70564 20.1611C1.70524 20.1271 1.69202 20.0946 1.66867 20.07C1.64532 20.0455 1.61358 20.0309 1.57991 20.0291C1.56316 20.0288 1.54653 20.0319 1.53097 20.0382C1.51541 20.0444 1.50123 20.0537 1.48922 20.0654C1.47722 20.0772 1.46763 20.0912 1.46101 20.1067C1.45439 20.1222 1.45086 20.1389 1.45063 20.1557L1.42583 20.9408C1.42486 20.9752 1.43728 21.0086 1.46044 21.034C1.4836 21.0593 1.51566 21.0745 1.5498 21.0764Z" fill="white"/>
<path opacity="0.3" d="M1.64917 17.9326C1.68319 17.9322 1.71575 17.9186 1.74013 17.8947C1.76451 17.8708 1.77886 17.8384 1.78022 17.8042L1.80501 17.0191C1.80525 17.002 1.80214 16.985 1.79585 16.9691C1.78957 16.9532 1.78025 16.9388 1.7684 16.9265C1.75656 16.9142 1.74244 16.9044 1.72685 16.8977C1.71125 16.8909 1.69448 16.8873 1.67751 16.8871C1.66076 16.8869 1.64414 16.89 1.62858 16.8962C1.61302 16.9024 1.59883 16.9117 1.58682 16.9235C1.57482 16.9352 1.56523 16.9492 1.55861 16.9647C1.55199 16.9802 1.54846 16.9969 1.54823 17.0138L1.52344 17.8006C1.52341 17.8347 1.53648 17.8675 1.55992 17.8921C1.58336 17.9167 1.61535 17.9312 1.64917 17.9326Z" fill="white"/>
<path opacity="0.3" d="M12.7586 7.37749L13.5272 7.51666H13.552C13.5822 7.51639 13.6114 7.50557 13.6347 7.48606C13.6579 7.46655 13.6737 7.43954 13.6795 7.40962V7.38642C13.68 7.35554 13.6695 7.32549 13.6501 7.30163C13.6306 7.27778 13.6034 7.26166 13.5732 7.25617L12.8064 7.11701C12.7737 7.11366 12.7409 7.12282 12.7146 7.14268C12.6883 7.16253 12.6703 7.19162 12.6643 7.22419C12.6583 7.25675 12.6647 7.29041 12.6821 7.31848C12.6996 7.34655 12.7269 7.36698 12.7586 7.37572V7.37749Z" fill="white"/>
<path opacity="0.3" d="M1.50007 34.2346C1.49416 34.2186 1.48516 34.2038 1.47359 34.1913C1.46202 34.1787 1.4481 34.1686 1.43264 34.1615C1.41718 34.1543 1.40047 34.1504 1.38348 34.1497C1.36648 34.1491 1.34954 34.1519 1.33361 34.1579C1.30872 34.1668 1.28717 34.1832 1.27194 34.2049C1.25672 34.2267 1.24856 34.2526 1.2486 34.2792C1.24526 34.2951 1.24526 34.3115 1.2486 34.3274C1.34532 34.5797 1.47197 34.8194 1.62581 35.0411C1.63798 35.0586 1.65414 35.0729 1.67293 35.0828C1.69173 35.0928 1.71261 35.098 1.73384 35.0981C1.76042 35.0984 1.78643 35.0903 1.80821 35.075C1.83513 35.0549 1.85342 35.0253 1.85935 34.9921C1.86528 34.959 1.85839 34.9248 1.84009 34.8965C1.70063 34.6905 1.58646 34.4683 1.50007 34.2346Z" fill="white"/>
<path opacity="0.3" d="M1.9931 6.9279C2.02696 6.92793 2.05951 6.91475 2.08394 6.89114C2.10837 6.86752 2.12278 6.8353 2.12415 6.80122L2.14894 6.01618C2.14896 5.98178 2.13564 5.94873 2.11182 5.92407C2.08801 5.89941 2.05558 5.88509 2.02144 5.88416C1.98776 5.88414 1.9554 5.89738 1.93126 5.92104C1.90711 5.9447 1.89308 5.97691 1.89216 6.01084L1.86737 6.79765C1.86644 6.81476 1.86911 6.83187 1.87521 6.84786C1.88132 6.86385 1.89072 6.87836 1.90279 6.89043C1.91447 6.9026 1.92853 6.91221 1.94407 6.91866C1.95961 6.9251 1.9763 6.92825 1.9931 6.9279Z" fill="white"/>
<path opacity="0.3" d="M28.1292 10.1661L28.5153 10.2339C28.6362 10.2557 28.7548 10.2892 28.8694 10.3338C28.8841 10.3395 28.8997 10.3425 28.9155 10.3427C28.9419 10.3428 28.9676 10.3348 28.9894 10.3198C29.0112 10.3049 29.028 10.2836 29.0377 10.2589C29.0402 10.2429 29.0402 10.2266 29.0377 10.2107C29.0372 10.1842 29.0289 10.1585 29.0137 10.1368C28.9985 10.1152 28.9773 10.0987 28.9527 10.0894C28.8236 10.0395 28.6902 10.0018 28.5542 9.97697L28.1717 9.90739C28.1377 9.9016 28.1028 9.90934 28.0744 9.92899C28.046 9.94863 28.0263 9.97863 28.0194 10.0127C28.0138 10.0469 28.0214 10.082 28.0406 10.1108C28.0507 10.1258 28.0638 10.1384 28.0791 10.148C28.0943 10.1575 28.1114 10.1637 28.1292 10.1661Z" fill="white"/>
<path opacity="0.3" d="M30.4317 12.7121C30.4348 12.744 30.4495 12.7735 30.4731 12.795C30.4967 12.8164 30.5274 12.8283 30.5592 12.8281H30.5751C30.6072 12.8246 30.6368 12.809 30.6581 12.7846C30.6794 12.7602 30.6908 12.7286 30.6902 12.6961V12.6836C30.6612 12.4138 30.6048 12.1478 30.522 11.8896C30.5167 11.8734 30.5084 11.8583 30.4974 11.8452C30.4863 11.8322 30.4729 11.8215 30.4578 11.8137C30.4426 11.8059 30.4261 11.8012 30.4092 11.7999C30.3923 11.7985 30.3752 11.8005 30.3591 11.8058C30.3429 11.811 30.3279 11.8195 30.315 11.8306C30.3021 11.8417 30.2914 11.8552 30.2837 11.8705C30.276 11.8857 30.2713 11.9023 30.2699 11.9194C30.2686 11.9365 30.2706 11.9536 30.2758 11.9699C30.3518 12.2116 30.404 12.4602 30.4317 12.7121Z" fill="white"/>
<path opacity="0.3" d="M29.9624 11.2848C29.9742 11.3037 29.9907 11.3192 30.0103 11.3298C30.0298 11.3405 30.0518 11.3459 30.074 11.3455C30.0978 11.3459 30.1213 11.339 30.1413 11.3258C30.1602 11.314 30.1759 11.2974 30.1867 11.2778C30.1976 11.2581 30.2033 11.2359 30.2032 11.2134C30.2028 11.1895 30.1961 11.1661 30.1838 11.1456C30.0386 10.9103 29.8595 10.6981 29.6525 10.5158C29.6396 10.5041 29.6245 10.4951 29.6081 10.4892C29.5917 10.4834 29.5744 10.4808 29.557 10.4817C29.522 10.4836 29.4891 10.4994 29.4656 10.5256C29.4422 10.5519 29.43 10.5865 29.4318 10.6218C29.4336 10.6571 29.4493 10.6902 29.4754 10.7139C29.6663 10.8774 29.8306 11.0701 29.9624 11.2848Z" fill="white"/>
<path opacity="0.3" d="M1.6023 19.5027C1.63615 19.5027 1.6687 19.4896 1.69313 19.466C1.71756 19.4423 1.73197 19.4101 1.73335 19.376L1.75814 18.591C1.75837 18.5739 1.75526 18.5569 1.74898 18.541C1.7427 18.5251 1.73337 18.5106 1.72153 18.4984C1.70969 18.4861 1.69557 18.4763 1.67997 18.4696C1.66437 18.4628 1.64761 18.4592 1.63063 18.459C1.59695 18.459 1.56459 18.4722 1.54045 18.4959C1.5163 18.5195 1.50228 18.5517 1.50136 18.5857L1.47656 19.3725C1.47655 19.4064 1.48968 19.439 1.51317 19.4633C1.53665 19.4877 1.56863 19.5018 1.6023 19.5027Z" fill="white"/>
<path opacity="0.3" d="M1.24937 30.5074C1.28339 30.507 1.31595 30.4934 1.34033 30.4695C1.36471 30.4456 1.37906 30.4132 1.38042 30.3789L1.40521 29.5921C1.40522 29.5577 1.39191 29.5247 1.36809 29.5C1.34428 29.4753 1.31185 29.461 1.27771 29.4601C1.24403 29.4601 1.21167 29.4733 1.18752 29.497C1.16338 29.5206 1.14935 29.5528 1.14843 29.5868L1.12718 30.3754C1.12613 30.3925 1.12875 30.4096 1.13486 30.4256C1.14097 30.4417 1.15043 30.4561 1.1626 30.4681C1.1853 30.4922 1.21646 30.5063 1.24937 30.5074Z" fill="white"/>
<path opacity="0.3" d="M1.20202 32.0776C1.23587 32.0776 1.26843 32.0644 1.29285 32.0408C1.31728 32.0172 1.33169 31.985 1.33307 31.9509L1.35786 31.1659C1.35809 31.1487 1.35498 31.1318 1.3487 31.1159C1.34242 31.1 1.33309 31.0855 1.32125 31.0732C1.30941 31.061 1.29529 31.0512 1.27969 31.0444C1.2641 31.0377 1.24733 31.0341 1.23035 31.0338C1.21346 31.0336 1.19669 31.0367 1.18102 31.0431C1.16534 31.0494 1.15107 31.0589 1.13905 31.0708C1.12702 31.0828 1.11747 31.097 1.11095 31.1127C1.10443 31.1284 1.10107 31.1453 1.10108 31.1623L1.07628 31.9473C1.07557 31.9645 1.07828 31.9816 1.08426 31.9977C1.09024 32.0138 1.09936 32.0285 1.11108 32.041C1.12281 32.0535 1.13689 32.0635 1.15251 32.0704C1.16813 32.0772 1.18497 32.0809 1.20202 32.0811V32.0776Z" fill="white"/>
<path opacity="0.3" d="M1.32296 33.5031C1.30741 33.3812 1.29972 33.2584 1.29993 33.1355C1.29993 33.1034 1.29993 33.0695 1.29993 33.0374L1.31056 32.7376C1.31016 32.7037 1.29694 32.6711 1.27359 32.6466C1.25024 32.6221 1.2185 32.6074 1.18482 32.6056C1.16808 32.6054 1.15145 32.6085 1.13589 32.6147C1.12033 32.6209 1.10615 32.6302 1.09414 32.642C1.08214 32.6537 1.07255 32.6678 1.06593 32.6833C1.05931 32.6988 1.05578 32.7154 1.05555 32.7323L1.04492 33.0338C1.04492 33.0731 1.04492 33.107 1.04492 33.1391C1.04678 33.2709 1.05565 33.4025 1.07149 33.5334C1.07536 33.5652 1.09062 33.5946 1.11441 33.6159C1.13821 33.6373 1.16891 33.6491 1.20076 33.6493H1.2167C1.2496 33.6432 1.27894 33.6247 1.29869 33.5975C1.31845 33.5703 1.32713 33.5365 1.32296 33.5031Z" fill="white"/>
<path opacity="0.3" d="M1.30157 28.9338C1.33513 28.9338 1.36743 28.9209 1.39181 28.8977C1.4162 28.8744 1.4308 28.8426 1.43262 28.8089L1.45564 28.0221C1.45611 27.9878 1.44319 27.9548 1.41966 27.93C1.39612 27.9053 1.36388 27.891 1.3299 27.89C1.31316 27.8898 1.29653 27.8929 1.28097 27.8991C1.26541 27.9054 1.25122 27.9146 1.23922 27.9264C1.22721 27.9382 1.21763 27.9522 1.211 27.9677C1.20438 27.9832 1.20086 27.9998 1.20062 28.0167L1.17583 28.8017C1.17536 28.8188 1.17825 28.8357 1.18434 28.8516C1.19042 28.8675 1.19958 28.882 1.21128 28.8943C1.22298 28.9065 1.23699 28.9164 1.25249 28.9231C1.26799 28.9299 1.28467 28.9335 1.30157 28.9338Z" fill="white"/>
<path opacity="0.3" d="M1.44977 24.2183C1.48329 24.2188 1.51565 24.2059 1.53984 24.1826C1.56404 24.1592 1.57812 24.1272 1.57905 24.0934L1.60384 23.3066C1.60432 23.2723 1.59139 23.2393 1.56786 23.2146C1.54433 23.1899 1.51209 23.1755 1.47811 23.1746C1.44425 23.1745 1.4117 23.1877 1.38727 23.2113C1.36284 23.2349 1.34843 23.2671 1.34706 23.3012L1.32227 24.0863C1.32269 24.1205 1.33616 24.1533 1.35988 24.1779C1.3836 24.2025 1.41578 24.2169 1.44977 24.2183Z" fill="white"/>
<path opacity="0.3" d="M1.35048 27.3619C1.36723 27.3622 1.38385 27.3591 1.39941 27.3528C1.41497 27.3466 1.42916 27.3373 1.44117 27.3256C1.45317 27.3138 1.46276 27.2998 1.46938 27.2843C1.476 27.2688 1.47953 27.2521 1.47976 27.2353L1.50455 26.4484C1.50503 26.4142 1.49211 26.3811 1.46857 26.3564C1.44504 26.3317 1.41279 26.3173 1.37882 26.3164C1.36146 26.3164 1.34427 26.3199 1.32826 26.3266C1.31224 26.3334 1.29771 26.3433 1.28552 26.3557C1.27333 26.3682 1.26371 26.3829 1.25723 26.3991C1.25075 26.4154 1.24754 26.4327 1.24777 26.4502L1.22475 27.237C1.22316 27.2718 1.23525 27.3058 1.25839 27.3316C1.28403 27.3534 1.31705 27.3642 1.35048 27.3619Z" fill="white"/>
<path opacity="0.3" d="M1.50092 22.6464C1.51766 22.6466 1.53429 22.6436 1.54985 22.6373C1.56541 22.6311 1.5796 22.6218 1.5916 22.61C1.60361 22.5983 1.61319 22.5843 1.61981 22.5688C1.62644 22.5533 1.62996 22.5366 1.63019 22.5197L1.65499 21.7347C1.65546 21.7178 1.65263 21.701 1.64665 21.6853C1.64067 21.6695 1.63167 21.6551 1.62016 21.6428C1.60865 21.6305 1.59485 21.6207 1.57956 21.6138C1.56426 21.6069 1.54777 21.6031 1.53102 21.6027C1.51428 21.6024 1.49765 21.6055 1.48209 21.6118C1.46653 21.618 1.45234 21.6273 1.44034 21.639C1.42834 21.6508 1.41875 21.6648 1.41213 21.6803C1.4055 21.6958 1.40198 21.7125 1.40175 21.7293L1.37695 22.5162C1.37692 22.5498 1.38981 22.5821 1.41292 22.6064C1.43603 22.6307 1.46756 22.645 1.50092 22.6464Z" fill="white"/>
<path opacity="0.3" d="M1.40094 25.7919C1.43493 25.7919 1.46754 25.7785 1.49174 25.7544C1.51593 25.7304 1.52976 25.6977 1.53022 25.6635L1.55501 24.8767C1.55549 24.8424 1.54257 24.8094 1.51903 24.7846C1.4955 24.7599 1.46326 24.7456 1.42928 24.7446C1.39555 24.745 1.36324 24.7583 1.33891 24.7819C1.31457 24.8054 1.30003 24.8374 1.29823 24.8713L1.27344 25.6581C1.27334 25.6924 1.28597 25.7255 1.30886 25.7509C1.33302 25.7762 1.36609 25.791 1.40094 25.7919Z" fill="white"/>
<path opacity="0.3" d="M2.00487 5.35246C2.21051 5.43449 2.42422 5.4943 2.6424 5.53088L2.7823 5.55586H2.80532C2.83548 5.55525 2.86454 5.54432 2.88772 5.52487C2.91089 5.50541 2.9268 5.47858 2.93283 5.4488C2.93371 5.4405 2.93371 5.43213 2.93283 5.42383C2.93325 5.39317 2.92278 5.36336 2.90329 5.3398C2.8838 5.31624 2.85659 5.30047 2.82657 5.29537L2.68844 5.27038C2.48676 5.23196 2.28969 5.17215 2.10049 5.09197C2.08425 5.08465 2.06672 5.08071 2.04894 5.08035C2.03115 5.07999 2.01347 5.08323 1.99695 5.08989C1.98044 5.09654 1.96542 5.10648 1.95278 5.11909C1.94015 5.13171 1.93016 5.14676 1.9234 5.16334C1.91422 5.18084 1.90906 5.2002 1.9083 5.21998C1.90754 5.23976 1.91121 5.25946 1.91903 5.27762C1.92686 5.29578 1.93863 5.31193 1.95349 5.32489C1.96835 5.33784 1.9859 5.34727 2.00487 5.35246Z" fill="white"/>
<path opacity="0.3" d="M28.9376 30.5753C28.9205 30.5733 28.9033 30.5748 28.8869 30.5797C28.8704 30.5846 28.8551 30.5928 28.8419 30.6038C28.8287 30.6148 28.8178 30.6284 28.8099 30.6437C28.802 30.6591 28.7972 30.6758 28.7959 30.6931L28.7233 31.4745C28.7224 31.4798 28.7224 31.4853 28.7233 31.4906C28.7232 31.5232 28.7354 31.5546 28.7575 31.5784C28.7795 31.6023 28.8097 31.6168 28.842 31.619H28.8526C28.8853 31.6192 28.9169 31.607 28.9411 31.5849C28.9654 31.5628 28.9805 31.5323 28.9836 31.4995L29.0562 30.718C29.0592 30.6835 29.0491 30.649 29.0279 30.6217C29.0167 30.6083 29.0029 30.5973 28.9874 30.5893C28.9719 30.5814 28.9549 30.5766 28.9376 30.5753Z" fill="white"/>
<path opacity="0.3" d="M28.789 32.1418C28.7719 32.1396 28.7545 32.1409 28.738 32.1457C28.7214 32.1505 28.7061 32.1587 28.6928 32.1697C28.6795 32.1807 28.6686 32.1944 28.6608 32.2099C28.653 32.2253 28.6484 32.2422 28.6473 32.2596L28.5729 33.041C28.572 33.0457 28.572 33.0506 28.5729 33.0553C28.5732 33.0878 28.5856 33.1189 28.6075 33.1427C28.6295 33.1664 28.6595 33.1811 28.6916 33.1838H28.6969C28.7293 33.1835 28.7604 33.1711 28.7843 33.149C28.8082 33.1269 28.8231 33.0967 28.8262 33.0642L28.9005 32.2827C28.9027 32.248 28.8919 32.2137 28.8704 32.1864C28.85 32.1615 28.8208 32.1455 28.789 32.1418Z" fill="white"/>
<path opacity="0.3" d="M29.3801 25.8776C29.3459 25.8746 29.3119 25.8852 29.2854 25.9073C29.2589 25.9293 29.242 25.9609 29.2384 25.9953L29.1641 26.7786V26.7928C29.1643 26.8252 29.1763 26.8564 29.1979 26.8804C29.2194 26.9044 29.249 26.9196 29.2809 26.9231H29.2951C29.3273 26.9228 29.3583 26.9103 29.3818 26.8882C29.4054 26.8661 29.42 26.8359 29.4226 26.8036L29.497 26.0203C29.5 25.9858 29.4894 25.9516 29.4675 25.9249C29.4457 25.8982 29.4143 25.8812 29.3801 25.8776Z" fill="white"/>
<path opacity="0.3" d="M29.2299 27.4441C29.1957 27.4411 29.1617 27.4518 29.1352 27.4738C29.1087 27.4958 29.0918 27.5274 29.0882 27.5618L29.0156 28.3451V28.3594C29.0155 28.3917 29.0275 28.4228 29.0491 28.4466C29.0708 28.4704 29.1006 28.4851 29.1325 28.4878H29.1449C29.1773 28.4875 29.2085 28.4752 29.2323 28.4531C29.2562 28.431 29.2711 28.4008 29.2742 28.3683L29.3486 27.5868C29.3515 27.5521 29.3407 27.5175 29.3185 27.4908C29.2962 27.4641 29.2644 27.4473 29.2299 27.4441Z" fill="white"/>
<path opacity="0.3" d="M29.0834 29.0105C29.0664 29.0085 29.0491 29.01 29.0327 29.0149C29.0163 29.0198 29.001 29.028 28.9878 29.039C28.9745 29.05 28.9636 29.0636 28.9557 29.0789C28.9478 29.0942 28.9431 29.111 28.9418 29.1282L28.8692 29.9097V29.924C28.8686 29.9564 28.8804 29.9878 28.9022 30.0117C28.9239 30.0356 28.9539 30.0502 28.986 30.0524H28.9984C29.0306 30.0522 29.0615 30.0401 29.0853 30.0184C29.1091 29.9967 29.1242 29.9669 29.1277 29.9347L29.2021 29.1532C29.2047 29.1179 29.1939 29.0828 29.172 29.0551C29.161 29.042 29.1475 29.0313 29.1322 29.0236C29.117 29.016 29.1004 29.0115 29.0834 29.0105Z" fill="white"/>
<path opacity="0.3" d="M28.6418 33.7065C28.6248 33.7047 28.6077 33.7064 28.5913 33.7114C28.575 33.7164 28.5598 33.7246 28.5466 33.7356C28.5335 33.7465 28.5226 33.76 28.5146 33.7752C28.5066 33.7904 28.5017 33.8071 28.5002 33.8242L28.4258 34.6075V34.62C28.426 34.6523 28.4381 34.6835 28.4596 34.7075C28.4812 34.7315 28.5107 34.7467 28.5427 34.7502H28.5568C28.5888 34.7499 28.6195 34.7377 28.643 34.716C28.6666 34.6942 28.6813 34.6645 28.6843 34.6324L28.7587 33.8492C28.762 33.8146 28.7519 33.78 28.7304 33.7529C28.7081 33.7262 28.6763 33.7096 28.6418 33.7065Z" fill="white"/>
<path opacity="0.3" d="M27.409 9.76823L26.6404 9.62906C26.6065 9.62373 26.5718 9.63166 26.5435 9.65123C26.5152 9.67079 26.4954 9.70053 26.4881 9.73434C26.4853 9.75141 26.4858 9.76889 26.4898 9.78573C26.4937 9.80258 26.501 9.81847 26.5111 9.83246C26.531 9.86042 26.5608 9.87958 26.5943 9.88598L27.3629 10.0269H27.3859C27.4163 10.027 27.4457 10.0163 27.469 9.99675C27.4923 9.97718 27.508 9.94997 27.5135 9.91988C27.5143 9.91218 27.5143 9.9044 27.5135 9.89669C27.5136 9.86637 27.5032 9.83696 27.4842 9.81351C27.4651 9.79006 27.4385 9.77405 27.409 9.76823Z" fill="white"/>
<path opacity="0.3" d="M28.343 36.8377C28.326 36.836 28.3089 36.8377 28.2925 36.8427C28.2762 36.8477 28.261 36.8559 28.2478 36.8668C28.2346 36.8778 28.2237 36.8912 28.2158 36.9064C28.2078 36.9217 28.2029 36.9383 28.2013 36.9555L28.127 37.7387V37.7512C28.1272 37.7836 28.1392 37.8147 28.1608 37.8387C28.1823 37.8627 28.2119 37.8779 28.2438 37.8814H28.258C28.2904 37.8811 28.3216 37.8688 28.3454 37.8467C28.3693 37.8246 28.3842 37.7944 28.3873 37.7619L28.4599 36.9786C28.4628 36.9444 28.4522 36.9103 28.4303 36.8839C28.4084 36.8575 28.377 36.8409 28.343 36.8377Z" fill="white"/>
<path opacity="0.3" d="M28.4922 35.2711C28.458 35.2695 28.4244 35.2809 28.3982 35.3031C28.3719 35.3252 28.3549 35.3565 28.3505 35.3907L28.2779 36.1722C28.2772 36.1763 28.2772 36.1805 28.2779 36.1846C28.2778 36.2174 28.2899 36.249 28.3119 36.2732C28.3339 36.2973 28.3641 36.3122 28.3965 36.3149H28.4089C28.4415 36.315 28.4728 36.3028 28.4968 36.2806C28.5208 36.2584 28.5355 36.228 28.5382 36.1953L28.6108 35.4121C28.6133 35.3952 28.612 35.378 28.6071 35.3616C28.6022 35.3453 28.5938 35.3302 28.5825 35.3175C28.5715 35.3038 28.5578 35.2926 28.5423 35.2846C28.5267 35.2766 28.5096 35.272 28.4922 35.2711Z" fill="white"/>
<path opacity="0.3" d="M28.2074 38.4041C28.1745 38.3954 28.1395 38.4 28.11 38.417C28.0805 38.434 28.0589 38.4621 28.0498 38.4951C27.9798 38.7269 27.8588 38.9398 27.6956 39.1178C27.6731 39.142 27.6604 39.1738 27.6602 39.207C27.6602 39.2253 27.6641 39.2434 27.6718 39.2601C27.6794 39.2767 27.6906 39.2915 27.7044 39.3033C27.7282 39.3251 27.7591 39.3372 27.7912 39.3372C27.8096 39.337 27.8278 39.3329 27.8446 39.3253C27.8613 39.3176 27.8763 39.3065 27.8886 39.2926C28.0794 39.0848 28.2205 38.8359 28.3012 38.5647C28.3058 38.548 28.3071 38.5306 28.305 38.5135C28.3029 38.4963 28.2974 38.4798 28.2888 38.4648C28.2802 38.4495 28.2685 38.4363 28.2544 38.4258C28.2404 38.4154 28.2244 38.408 28.2074 38.4041Z" fill="white"/>
<path opacity="0.3" d="M30.1147 18.0503C30.0977 18.0486 30.0805 18.0503 30.0642 18.0553C30.0478 18.0603 30.0326 18.0685 30.0195 18.0795C30.0063 18.0904 29.9954 18.1039 29.9874 18.1191C29.9795 18.1343 29.9746 18.151 29.973 18.1681L29.9004 18.9513V18.9567C29.9002 18.9892 29.9121 19.0206 29.9338 19.0447C29.9554 19.0687 29.9852 19.0838 30.0173 19.0869H30.0297C30.0619 19.0871 30.093 19.0751 30.117 19.0533C30.1409 19.0315 30.1559 19.0015 30.1589 18.9692L30.2333 18.1859C30.2363 18.1512 30.2255 18.1167 30.2032 18.0899C30.181 18.0632 30.1492 18.0464 30.1147 18.0432V18.0503Z" fill="white"/>
<path opacity="0.3" d="M30.4141 14.9192C30.3799 14.9162 30.3459 14.9269 30.3194 14.9489C30.2929 14.9709 30.2761 15.0025 30.2725 15.037L30.1999 15.8184C30.199 15.8237 30.199 15.8292 30.1999 15.8345C30.1998 15.8669 30.2121 15.8981 30.2341 15.9216C30.2562 15.9452 30.2864 15.9593 30.3185 15.9612H30.3309C30.3634 15.9613 30.3948 15.949 30.4188 15.9269C30.4427 15.9047 30.4575 15.8743 30.4602 15.8416L30.5328 15.0601C30.5347 15.0429 30.5332 15.0255 30.5282 15.0089C30.5232 14.9924 30.5149 14.977 30.5038 14.9638C30.4926 14.9506 30.479 14.9398 30.4635 14.9321C30.4481 14.9245 30.4313 14.9201 30.4141 14.9192Z" fill="white"/>
<path opacity="0.3" d="M30.2668 16.4857C30.2498 16.4837 30.2325 16.4852 30.2161 16.4901C30.1997 16.495 30.1844 16.5032 30.1711 16.5142C30.1579 16.5252 30.147 16.5388 30.1391 16.5541C30.1312 16.5695 30.1265 16.5862 30.1252 16.6035L30.0508 17.3849V17.3992C30.0507 17.4315 30.0626 17.4626 30.0843 17.4864C30.106 17.5102 30.1357 17.525 30.1677 17.5276H30.1818C30.214 17.5273 30.245 17.5149 30.2686 17.4928C30.2921 17.4706 30.3067 17.4405 30.3093 17.4081L30.3837 16.6266C30.3854 16.6096 30.3837 16.5924 30.3787 16.5761C30.3738 16.5597 30.3656 16.5445 30.3547 16.5314C30.3438 16.5183 30.3304 16.5075 30.3153 16.4996C30.3003 16.4918 30.2838 16.487 30.2668 16.4857Z" fill="white"/>
<path opacity="0.3" d="M30.5781 13.3544C30.5439 13.3533 30.5105 13.3652 30.4846 13.3876C30.4587 13.4101 30.4421 13.4416 30.4382 13.4758C30.4275 13.6096 30.4098 13.7452 30.3868 13.8754L30.3461 14.2537C30.3436 14.2882 30.3537 14.3224 30.3744 14.35C30.397 14.3762 30.4287 14.3928 30.4629 14.3964H30.4824C30.4918 14.3983 30.5014 14.3983 30.5108 14.3964C30.5352 14.3882 30.5567 14.3731 30.5727 14.3528C30.5888 14.3325 30.5986 14.308 30.6011 14.2822L30.6312 13.97V13.9254C30.656 13.7844 30.6755 13.6417 30.6879 13.5007C30.6915 13.4669 30.6822 13.4329 30.6618 13.4057C30.6413 13.3785 30.6114 13.3602 30.5781 13.3544Z" fill="white"/>
<path opacity="0.3" d="M13.6016 38.4041L12.8401 38.2257C12.8066 38.2187 12.7716 38.225 12.7426 38.2432C12.7136 38.2615 12.6926 38.2904 12.6842 38.3238C12.6834 38.3339 12.6834 38.3441 12.6842 38.3542C12.6844 38.3839 12.6947 38.4127 12.7134 38.4358C12.7321 38.4588 12.758 38.4747 12.7869 38.4809L13.5484 38.6593H13.5768C13.6087 38.6588 13.6394 38.6466 13.6631 38.6249C13.6867 38.6033 13.7017 38.5736 13.7052 38.5416C13.7087 38.5096 13.7004 38.4774 13.682 38.4511C13.6635 38.4248 13.6362 38.4062 13.6051 38.3988L13.6016 38.4041Z" fill="white"/>
<path opacity="0.3" d="M29.5286 24.3092C29.5116 24.3075 29.4944 24.3092 29.4781 24.3142C29.4617 24.3192 29.4465 24.3274 29.4334 24.3384C29.4202 24.3493 29.4093 24.3628 29.4013 24.378C29.3933 24.3932 29.3884 24.4099 29.3869 24.427L29.3125 25.2103C29.3125 25.2103 29.3125 25.2103 29.3125 25.2227C29.3132 25.2553 29.3256 25.2864 29.3474 25.3104C29.3693 25.3344 29.399 25.3495 29.4312 25.353H29.4435C29.4761 25.3531 29.5074 25.3409 29.5314 25.3187C29.5554 25.2965 29.5702 25.2661 29.5728 25.2334L29.6472 24.4502C29.649 24.4329 29.6473 24.4154 29.6421 24.3989C29.6369 24.3823 29.6284 24.367 29.6171 24.3539C29.606 24.3408 29.5925 24.3302 29.5773 24.3225C29.5621 24.3149 29.5455 24.3104 29.5286 24.3092Z" fill="white"/>
<path opacity="0.3" d="M29.675 22.7463C29.6408 22.7434 29.6068 22.754 29.5803 22.776C29.5538 22.7981 29.5369 22.8297 29.5334 22.8641L29.459 23.6473V23.6616C29.4593 23.6941 29.4717 23.7252 29.4936 23.749C29.5156 23.7728 29.5455 23.7874 29.5776 23.7901H29.583C29.6154 23.7895 29.6466 23.777 29.6707 23.755C29.6948 23.7331 29.7102 23.703 29.714 23.6705L29.7866 22.8873C29.7892 22.8539 29.7791 22.8208 29.7584 22.7947C29.7377 22.7685 29.7079 22.7512 29.675 22.7463Z" fill="white"/>
<path opacity="0.3" d="M29.8235 21.1816C29.8065 21.1798 29.7893 21.1815 29.773 21.1865C29.7566 21.1915 29.7414 21.1997 29.7283 21.2107C29.7151 21.2216 29.7042 21.2351 29.6962 21.2503C29.6883 21.2655 29.6834 21.2822 29.6818 21.2993L29.6074 22.0826V22.0951C29.6073 22.1276 29.6192 22.1589 29.6408 22.183C29.6624 22.2071 29.6922 22.2222 29.7243 22.2253H29.7367C29.7688 22.2251 29.7998 22.2129 29.8236 22.1912C29.8474 22.1695 29.8625 22.1397 29.866 22.1075L29.9404 21.3243C29.9433 21.2898 29.9328 21.2556 29.9109 21.2289C29.889 21.2022 29.8576 21.1852 29.8235 21.1816Z" fill="white"/>
<path opacity="0.3" d="M29.9708 19.6151C29.9363 19.6121 29.902 19.623 29.8755 19.6454C29.8489 19.6678 29.8323 19.6999 29.8291 19.7346L29.7565 20.5161C29.7556 20.5208 29.7556 20.5257 29.7565 20.5304C29.7568 20.5628 29.7692 20.594 29.7911 20.6178C29.8131 20.6415 29.843 20.6562 29.8752 20.6588H29.8858C29.9183 20.6582 29.9494 20.6458 29.9735 20.6238C29.9976 20.6018 30.013 20.5718 30.0168 20.5393L30.0912 19.7561C30.0932 19.7214 30.0817 19.6874 30.0593 19.6611C30.0368 19.6348 30.0051 19.6183 29.9708 19.6151Z" fill="white"/>
<path opacity="0.3" d="M18.1902 8.09649L17.4216 7.95555C17.3875 7.95027 17.3526 7.95843 17.3242 7.97836C17.2959 7.99829 17.2762 8.02846 17.2693 8.06259C17.2665 8.07967 17.2671 8.09714 17.271 8.11399C17.275 8.13084 17.2822 8.14673 17.2924 8.16072C17.3123 8.18868 17.3421 8.20784 17.3756 8.21424L18.1442 8.35341H18.1654C18.1959 8.35322 18.2254 8.34247 18.2489 8.32298C18.2724 8.30349 18.2886 8.27643 18.2947 8.24636C18.2955 8.23865 18.2955 8.23088 18.2947 8.22317C18.2948 8.19307 18.2844 8.16389 18.2653 8.14074C18.2462 8.11759 18.2196 8.10193 18.1902 8.09649Z" fill="white"/>
<path opacity="0.3" d="M18.1719 39.43L17.4104 39.2516C17.3766 39.2447 17.3415 39.2512 17.3124 39.2698C17.2833 39.2885 17.2626 39.3178 17.2546 39.3515C17.2537 39.361 17.2537 39.3706 17.2546 39.3801C17.255 39.4098 17.2655 39.4384 17.2841 39.4614C17.3027 39.4844 17.3285 39.5004 17.3573 39.5068L18.1188 39.6852H18.1471C18.1767 39.6845 18.2052 39.6739 18.2283 39.6552C18.2513 39.6365 18.2676 39.6107 18.2746 39.5817C18.2804 39.5479 18.2729 39.5132 18.2537 39.4849C18.2345 39.4566 18.2052 39.437 18.1719 39.43Z" fill="white"/>
<path opacity="0.3" d="M19.6941 39.7744L18.9326 39.596C18.8992 39.5885 18.8643 39.5947 18.8355 39.6131C18.8066 39.6314 18.7861 39.6606 18.7785 39.6941C18.777 39.7042 18.777 39.7144 18.7785 39.7245C18.779 39.7541 18.7894 39.7828 18.8081 39.8058C18.8267 39.8287 18.8525 39.8447 18.8812 39.8511L19.6427 40.0296H19.6711C19.7006 40.0295 19.7292 40.0195 19.7524 40.001C19.7755 39.9826 19.7918 39.9568 19.7986 39.9279C19.8039 39.8937 19.796 39.8588 19.7766 39.8302C19.7571 39.8017 19.7276 39.7817 19.6941 39.7744Z" fill="white"/>
<path opacity="0.3" d="M16.6553 7.81645L15.8885 7.67729C15.8545 7.6715 15.8196 7.67924 15.7912 7.69888C15.7628 7.71853 15.7431 7.74852 15.7362 7.78255C15.7305 7.81679 15.7382 7.85191 15.7574 7.88068C15.767 7.89479 15.7793 7.90681 15.7936 7.91601C15.8079 7.92521 15.8239 7.9314 15.8407 7.9342L16.6093 8.07516H16.6341C16.6646 8.0748 16.694 8.06374 16.7173 8.04387C16.7405 8.024 16.7562 7.99658 16.7616 7.96632V7.94313C16.7612 7.91286 16.7504 7.88366 16.731 7.86054C16.7116 7.83742 16.6849 7.82184 16.6553 7.81645Z" fill="white"/>
<path opacity="0.3" d="M15.125 38.7432L14.3635 38.5648C14.33 38.5573 14.2948 38.5634 14.2657 38.5817C14.2365 38.6001 14.2157 38.6292 14.2077 38.6629C14.2068 38.673 14.2068 38.6831 14.2077 38.6932C14.2074 38.7228 14.2174 38.7516 14.2357 38.7747C14.2541 38.7978 14.2799 38.8138 14.3086 38.8199L15.0701 38.9983H15.0984C15.1281 38.9979 15.1568 38.9875 15.1799 38.9687C15.203 38.95 15.2192 38.924 15.2259 38.8948C15.2293 38.8782 15.2293 38.8611 15.2261 38.8444C15.2228 38.8278 15.2163 38.8119 15.2069 38.7978C15.1975 38.7837 15.1854 38.7716 15.1714 38.7622C15.1573 38.7529 15.1416 38.7464 15.125 38.7432Z" fill="white"/>
<path opacity="0.3" d="M14.3039 7.65759L15.0725 7.79676H15.0937C15.1244 7.79648 15.1541 7.78548 15.1777 7.76564C15.2013 7.7458 15.2173 7.71833 15.223 7.68793C15.2239 7.68023 15.2239 7.67244 15.223 7.66474C15.2234 7.63407 15.213 7.60426 15.1935 7.5807C15.174 7.55714 15.1468 7.54138 15.1168 7.53627L14.3482 7.39711C14.3144 7.39136 14.2797 7.39915 14.2516 7.41882C14.2235 7.4385 14.2041 7.46849 14.1976 7.50237C14.1944 7.51932 14.1945 7.53678 14.1982 7.55365C14.2019 7.57053 14.2089 7.58646 14.2189 7.6005C14.2387 7.63004 14.2692 7.65056 14.3039 7.65759Z" fill="white"/>
<path opacity="0.3" d="M19.7256 8.37299L18.9588 8.2356C18.9419 8.23226 18.9246 8.23234 18.9077 8.23584C18.8909 8.23935 18.8749 8.2462 18.8607 8.256C18.8465 8.2658 18.8344 8.27836 18.8251 8.29294C18.8158 8.30751 18.8095 8.32381 18.8065 8.34087C18.8008 8.3749 18.8086 8.40981 18.8281 8.43815C18.8476 8.4665 18.8774 8.48601 18.911 8.49252L19.6796 8.63169H19.7044C19.7348 8.63101 19.764 8.61983 19.7872 8.60002C19.8105 8.58021 19.8262 8.55297 19.8319 8.52286V8.49967C19.8312 8.4695 19.8203 8.44047 19.801 8.41742C19.7816 8.39437 19.755 8.37869 19.7256 8.37299Z" fill="white"/>
<path opacity="0.3" d="M16.6563 39.0875L15.8948 38.9091C15.861 38.9021 15.8259 38.9086 15.7968 38.9273C15.7677 38.9459 15.747 38.9752 15.7389 39.009C15.7381 39.0185 15.7381 39.0281 15.7389 39.0376C15.7387 39.0672 15.7486 39.0959 15.767 39.119C15.7854 39.1421 15.8111 39.1581 15.8399 39.1642L16.6014 39.3427H16.6297C16.6612 39.3422 16.6915 39.3302 16.7149 39.3089C16.7382 39.2876 16.753 39.2584 16.7565 39.2268C16.76 39.1952 16.7519 39.1635 16.7338 39.1375C16.7156 39.1115 16.6887 39.0931 16.658 39.0857L16.6563 39.0875Z" fill="white"/>
<path opacity="0.3" d="M21.2591 8.65314L20.4905 8.51397C20.4738 8.51088 20.4566 8.51116 20.44 8.51478C20.4233 8.51841 20.4075 8.52531 20.3936 8.53509C20.3796 8.54487 20.3676 8.55734 20.3584 8.57178C20.3493 8.58622 20.343 8.60235 20.34 8.61924C20.3369 8.63611 20.3372 8.65342 20.3408 8.67019C20.3444 8.68695 20.3513 8.70285 20.361 8.71694C20.3707 8.73103 20.3831 8.74305 20.3974 8.75231C20.4117 8.76157 20.4277 8.76788 20.4445 8.77089L21.2131 8.91184H21.2343C21.265 8.91233 21.2948 8.90184 21.3185 8.88223C21.3421 8.86263 21.3581 8.83517 21.3636 8.80479C21.3645 8.79708 21.3645 8.7893 21.3636 8.78159C21.3641 8.75118 21.3539 8.72159 21.3347 8.69807C21.3156 8.67454 21.2888 8.65862 21.2591 8.65314Z" fill="white"/>
<path opacity="0.3" d="M21.2194 40.1205L20.4561 39.9421C20.4228 39.9346 20.3879 39.9407 20.359 39.9591C20.3302 39.9775 20.3097 40.0067 20.3021 40.0402C20.3004 40.0502 20.3004 40.0605 20.3021 40.0705C20.3018 40.1001 20.3118 40.1289 20.3301 40.152C20.3485 40.1751 20.3743 40.191 20.403 40.1972L21.1645 40.3756H21.1928C21.2223 40.3753 21.2508 40.3651 21.2739 40.3467C21.2969 40.3283 21.3133 40.3027 21.3204 40.2739C21.3271 40.2401 21.3203 40.2049 21.3014 40.1762C21.2825 40.1474 21.253 40.1274 21.2194 40.1205Z" fill="white"/>
<path opacity="0.3" d="M24.336 9.20978L23.5674 9.07062C23.535 9.06797 23.5027 9.07759 23.4769 9.09761C23.4511 9.11763 23.4336 9.14661 23.4278 9.17891C23.4221 9.21121 23.4285 9.24452 23.4458 9.27232C23.4631 9.30013 23.49 9.32045 23.5214 9.32932L24.29 9.46849H24.313C24.3435 9.46814 24.3729 9.45707 24.3962 9.43721C24.4195 9.41734 24.4351 9.38992 24.4405 9.35966C24.4414 9.35255 24.4414 9.34535 24.4405 9.33825C24.4406 9.30793 24.4303 9.27851 24.4112 9.25506C24.3921 9.23161 24.3655 9.2156 24.336 9.20978Z" fill="white"/>
<path opacity="0.3" d="M24.2494 40.5702C23.9964 40.5954 23.7418 40.6014 23.4879 40.588C23.4535 40.5865 23.4198 40.5988 23.3943 40.6222C23.3687 40.6456 23.3534 40.6782 23.3516 40.7129C23.3515 40.7462 23.3642 40.7783 23.3869 40.8026C23.4096 40.8268 23.4407 40.8413 23.4738 40.8431C23.5552 40.8431 23.642 40.8431 23.7341 40.8431C23.9112 40.8431 24.0883 40.8431 24.2654 40.8182C24.2825 40.8168 24.2991 40.812 24.3143 40.804C24.3295 40.7961 24.343 40.7851 24.3539 40.7718C24.3652 40.7587 24.3736 40.7433 24.3784 40.7267C24.3833 40.7101 24.3846 40.6926 24.3822 40.6754C24.3767 40.6446 24.3601 40.6168 24.3356 40.5974C24.3112 40.578 24.2805 40.5683 24.2494 40.5702Z" fill="white"/>
<path opacity="0.3" d="M25.8644 9.48989L25.0976 9.35072C25.0638 9.34441 25.0289 9.35173 25.0004 9.37109C24.9719 9.39044 24.9521 9.42029 24.9453 9.45421C24.9394 9.48846 24.9471 9.52364 24.9665 9.55233C24.9758 9.56693 24.9879 9.5794 25.0023 9.58893C25.0166 9.59846 25.0328 9.60484 25.0498 9.60764L25.8183 9.74681H25.8431C25.8734 9.74654 25.9026 9.73572 25.9258 9.71621C25.9491 9.6967 25.9649 9.6697 25.9706 9.63977V9.61657C25.9706 9.58621 25.96 9.55682 25.9405 9.53364C25.9211 9.51045 25.8941 9.49495 25.8644 9.48989Z" fill="white"/>
<path opacity="0.3" d="M25.7471 40.2598C25.5041 40.3389 25.257 40.4044 25.0068 40.456C24.9774 40.4621 24.951 40.4782 24.932 40.5016C24.913 40.525 24.9025 40.5542 24.9023 40.5845C24.9023 40.5845 24.9023 40.6041 24.9023 40.6112C24.9087 40.6407 24.9248 40.6671 24.9479 40.6862C24.9711 40.7053 24.9999 40.716 25.0298 40.7165C25.0386 40.7184 25.0477 40.7184 25.0564 40.7165C25.3161 40.6628 25.5726 40.5949 25.825 40.5131C25.8543 40.4998 25.8778 40.476 25.8908 40.4464C25.9039 40.4167 25.9057 40.3833 25.8958 40.3524C25.886 40.3215 25.8652 40.2954 25.8374 40.2789C25.8097 40.2625 25.7769 40.2569 25.7453 40.2633L25.7471 40.2598Z" fill="white"/>
<path opacity="0.3" d="M27.1233 39.6067C26.9112 39.7477 26.6893 39.8729 26.4592 39.9814C26.4366 39.9914 26.4174 40.0079 26.4041 40.0289C26.3909 40.0498 26.3842 40.0743 26.3848 40.0992C26.3846 40.1182 26.3882 40.137 26.3954 40.1545C26.4062 40.177 26.423 40.196 26.444 40.2093C26.465 40.2225 26.4893 40.2295 26.5141 40.2294C26.5329 40.2295 26.5516 40.2259 26.569 40.2187C26.8114 40.1058 27.0447 39.974 27.2667 39.8244C27.2945 39.8052 27.3139 39.7759 27.3208 39.7427C27.3277 39.7095 27.3217 39.6749 27.3039 39.646C27.2845 39.6175 27.2549 39.5975 27.2213 39.5902C27.1878 39.5829 27.1527 39.5888 27.1233 39.6067Z" fill="white"/>
<path opacity="0.3" d="M22.799 8.93151L22.0322 8.79235C22.0154 8.78902 21.9981 8.78911 21.9814 8.79263C21.9647 8.79615 21.9488 8.80303 21.9348 8.81285C21.9207 8.82267 21.9088 8.83523 21.8996 8.8498C21.8905 8.86436 21.8844 8.88062 21.8816 8.89761C21.8781 8.91445 21.878 8.93183 21.8813 8.9487C21.8847 8.96557 21.8914 8.98157 21.9011 8.99574C21.9104 9.01016 21.9226 9.02241 21.9369 9.03164C21.9513 9.04088 21.9675 9.04689 21.9843 9.04926L22.7529 9.18843H22.7777C22.8079 9.18783 22.8369 9.1769 22.8601 9.15744C22.8833 9.13798 22.8992 9.11117 22.9052 9.08139V9.05641C22.9048 9.02635 22.894 8.9974 22.8745 8.97458C22.8551 8.95176 22.8284 8.93652 22.799 8.93151Z" fill="white"/>
<path opacity="0.3" d="M22.7403 40.4648L21.9788 40.2864C21.945 40.2794 21.9099 40.286 21.8808 40.3046C21.8517 40.3233 21.831 40.3526 21.8229 40.3863C21.822 40.3958 21.822 40.4054 21.8229 40.4149C21.8229 40.4446 21.8329 40.4735 21.8512 40.4968C21.8695 40.5201 21.8951 40.5365 21.9239 40.5433L22.6854 40.7218H22.7155C22.7448 40.722 22.7734 40.712 22.7963 40.6935C22.8192 40.6749 22.8351 40.649 22.8412 40.6201C22.8448 40.6032 22.8451 40.5857 22.8419 40.5688C22.8388 40.5518 22.8324 40.5356 22.823 40.5212C22.8136 40.5067 22.8014 40.4943 22.7872 40.4846C22.773 40.475 22.7571 40.4682 22.7403 40.4648Z" fill="white"/>
</g>
<path opacity="0.3" d="M31.155 14.0146V14.036L28.8369 38.5487C28.4313 40.6897 24.7514 41.6389 22.9663 41.3213L3.53044 36.9269C2.65525 36.7287 1.87594 36.2294 1.32651 35.515C0.777083 34.8006 0.491858 33.9157 0.519877 33.0124L1.43367 4.02146C1.79132 4.40903 2.26317 4.67048 2.77957 4.76724L28.6509 9.4614C30.4236 9.78255 31.5464 11.8201 31.155 14.0146ZM28.7448 8.94577L2.87343 4.25163C2.06589 4.10533 1.45669 3.4434 1.23002 2.587L0.962607 2.51562L0.00808142 32.9964C-0.0243499 34.0214 0.299076 35.0257 0.922639 35.8363C1.5462 36.6469 2.43085 37.2131 3.42419 37.4372L22.8707 41.8351C24.9285 42.208 28.9166 41.1001 29.3593 38.6236L31.6739 14.1092C32.1095 11.6309 30.8008 9.32223 28.7448 8.94577Z" fill="white"/>
<path d="M6.5718 1.99829H30.38C30.5524 1.99829 30.7177 2.06728 30.8396 2.19007C30.9615 2.31287 31.03 2.47942 31.03 2.65308V4.16249H5.92188V2.65308C5.92188 2.47942 5.99035 2.31287 6.11223 2.19007C6.23412 2.06728 6.39943 1.99829 6.5718 1.99829Z" fill="#EFEFF8"/>
</g>
<defs>
<clipPath id="clip0_552_5295">
<rect width="35.514" height="41.9065" fill="white"/>
</clipPath>
</defs>
</svg>
