<svg width="16" height="15" viewBox="0 0 16 15" fill="none" xmlns="http://www.w3.org/2000/svg">
<path d="M11.1319 3.89023C11.2839 3.7455 11.4862 3.66549 11.6961 3.66708C11.906 3.66866 12.107 3.75173 12.2568 3.89874C12.4067 4.04575 12.4935 4.24521 12.499 4.45503C12.5046 4.66485 12.4284 4.86863 12.2866 5.02335L7.98071 10.4084C7.90667 10.4881 7.81731 10.5521 7.71797 10.5965C7.61863 10.641 7.51136 10.6649 7.40255 10.6669C7.29375 10.6689 7.18566 10.649 7.08475 10.6083C6.98383 10.5676 6.89216 10.5069 6.81522 10.43L3.95975 7.57449C3.88023 7.50039 3.81645 7.41104 3.77222 7.31176C3.72798 7.21247 3.70419 7.1053 3.70227 6.99662C3.70036 6.88795 3.72035 6.78 3.76106 6.67922C3.80176 6.57844 3.86235 6.48689 3.93921 6.41003C4.01606 6.33318 4.10761 6.27259 4.2084 6.23188C4.30918 6.19117 4.41712 6.17118 4.5258 6.1731C4.63447 6.17502 4.74165 6.1988 4.84093 6.24304C4.94021 6.28728 5.02957 6.35106 5.10367 6.43058L7.36343 8.68927L11.1114 3.91397C11.1181 3.90566 11.1253 3.89773 11.1329 3.89023H11.1319Z" fill="#08D70D"/>
</svg>
