<svg width="16" height="15" viewBox="0 0 16 15" fill="none" xmlns="http://www.w3.org/2000/svg">
<path d="M11.045 3.89017C11.197 3.74544 11.3993 3.66543 11.6092 3.66702C11.8191 3.6686 12.0201 3.75167 12.1699 3.89868C12.3197 4.04569 12.4066 4.24515 12.4121 4.45497C12.4177 4.66479 12.3415 4.86857 12.1997 5.02329L7.8938 10.4083C7.81976 10.4881 7.7304 10.5521 7.63106 10.5965C7.53172 10.6409 7.42444 10.6648 7.31564 10.6669C7.20684 10.6689 7.09875 10.6489 6.99783 10.6082C6.89692 10.5675 6.80525 10.5068 6.7283 10.4299L3.87284 7.57443C3.79332 7.50033 3.72954 7.41098 3.6853 7.31169C3.64106 7.21241 3.61728 7.10524 3.61536 6.99656C3.61344 6.88789 3.63343 6.77994 3.67414 6.67916C3.71485 6.57838 3.77544 6.48683 3.85229 6.40997C3.92915 6.33311 4.0207 6.27253 4.12148 6.23182C4.22226 6.19111 4.33021 6.17112 4.43889 6.17304C4.54756 6.17495 4.65474 6.19874 4.75402 6.24298C4.8533 6.28722 4.94265 6.351 5.01675 6.43052L7.27652 8.6892L11.0245 3.91391C11.0312 3.9056 11.0384 3.89767 11.046 3.89017H11.045Z" fill="#62718A"/>
</svg>
