<svg width="12" height="12" viewBox="0 0 12 12" fill="none" xmlns="http://www.w3.org/2000/svg">
<g clip-path="url(#clip0_1733_2914)">
<path d="M6.89321 6.00817L11.815 1.08635C12.0617 0.839693 12.0617 0.439803 11.815 0.193171C11.5684 -0.0534853 11.1685 -0.0534853 10.9218 0.193171L5.99999 5.11499L1.07817 0.193171C0.831514 -0.0534853 0.431624 -0.0534853 0.184992 0.193171C-0.0616405 0.439826 -0.061664 0.839716 0.184992 1.08635L5.10681 6.00817L0.184992 10.93C-0.061664 11.1766 -0.061664 11.5765 0.184992 11.8232C0.431648 12.0698 0.831538 12.0698 1.07817 11.8232L5.99999 6.90135L10.9218 11.8232C11.1684 12.0698 11.5684 12.0698 11.815 11.8232C12.0616 11.5765 12.0616 11.1766 11.815 10.93L6.89321 6.00817Z" fill="#62718A"/>
</g>
<defs>
<clipPath id="clip0_1733_2914">
<rect width="12" height="12" fill="white"/>
</clipPath>
</defs>
</svg>
