<svg width="28" height="28" viewBox="0 0 28 28" fill="none" xmlns="http://www.w3.org/2000/svg">
<path d="M27.3327 13.9975C27.3327 6.63352 21.3634 0.664185 13.9994 0.664185C6.63536 0.664185 0.666028 6.63352 0.666028 13.9975C0.663109 16.1576 1.18714 18.2858 2.19269 20.1975L0.704694 25.9162C0.655205 26.1072 0.656456 26.3079 0.708324 26.4983C0.760193 26.6887 0.86088 26.8622 1.00042 27.0018C1.13997 27.1413 1.31353 27.242 1.50393 27.2939C1.69434 27.3458 1.89499 27.347 2.08603 27.2975L7.80603 25.8082C9.71612 26.8113 11.8419 27.334 13.9994 27.3309C21.3634 27.3309 27.3327 21.3615 27.3327 13.9975ZM13.9994 6.66685C14.2646 6.66685 14.5189 6.77221 14.7065 6.95974C14.894 7.14728 14.9994 7.40163 14.9994 7.66685V16.0002C14.9994 16.2654 14.894 16.5198 14.7065 16.7073C14.5189 16.8948 14.2646 17.0002 13.9994 17.0002C13.7341 17.0002 13.4798 16.8948 13.2923 16.7073C13.1047 16.5198 12.9994 16.2654 12.9994 16.0002V7.66685C12.9994 7.40163 13.1047 7.14728 13.2923 6.95974C13.4798 6.77221 13.7341 6.66685 13.9994 6.66685ZM15.3327 19.9962C15.3327 20.3498 15.1922 20.6889 14.9422 20.939C14.6921 21.189 14.353 21.3295 13.9994 21.3295C13.6457 21.3295 13.3066 21.189 13.0566 20.939C12.8065 20.6889 12.666 20.3498 12.666 19.9962C12.666 19.6426 12.8065 19.3034 13.0566 19.0534C13.3066 18.8033 13.6457 18.6629 13.9994 18.6629C14.353 18.6629 14.6921 18.8033 14.9422 19.0534C15.1922 19.3034 15.3327 19.6426 15.3327 19.9962Z" fill="#62718A"/>
</svg>
