<svg width="151" height="68" viewBox="0 0 151 68" fill="none" xmlns="http://www.w3.org/2000/svg">
<g filter="url(#filter0_d_2129_89)">
<mask id="path-1-inside-1_2129_89" fill="white">
<path fill-rule="evenodd" clip-rule="evenodd" d="M20 14C16.6863 14 14 16.6863 14 20V39C14 42.3137 16.6863 45 20 45H68.2254L75.5 54L82.7746 45H131C134.314 45 137 42.3137 137 39V20C137 16.6863 134.314 14 131 14H20Z"/>
</mask>
<path fill-rule="evenodd" clip-rule="evenodd" d="M20 14C16.6863 14 14 16.6863 14 20V39C14 42.3137 16.6863 45 20 45H68.2254L75.5 54L82.7746 45H131C134.314 45 137 42.3137 137 39V20C137 16.6863 134.314 14 131 14H20Z" fill="#262A36"/>
<path d="M68.2254 45L69.0031 44.3714L68.7029 44H68.2254V45ZM75.5 54L74.7223 54.6286L75.5 55.5908L76.2777 54.6286L75.5 54ZM82.7746 45V44H82.2971L81.9969 44.3714L82.7746 45ZM15 20C15 17.2386 17.2386 15 20 15V13C16.134 13 13 16.134 13 20H15ZM15 39V20H13V39H15ZM20 44C17.2386 44 15 41.7614 15 39H13C13 42.866 16.134 46 20 46V44ZM68.2254 44H20V46H68.2254V44ZM67.4477 45.6286L74.7223 54.6286L76.2777 53.3714L69.0031 44.3714L67.4477 45.6286ZM76.2777 54.6286L83.5523 45.6286L81.9969 44.3714L74.7223 53.3714L76.2777 54.6286ZM131 44H82.7746V46H131V44ZM136 39C136 41.7614 133.761 44 131 44V46C134.866 46 138 42.866 138 39H136ZM136 20V39H138V20H136ZM131 15C133.761 15 136 17.2386 136 20H138C138 16.134 134.866 13 131 13V15ZM20 15H131V13H20V15Z" fill="#2D3342" mask="url(#path-1-inside-1_2129_89)"/>
</g>
<path d="M27.8335 27C27.5096 25.2102 26.0778 24.1534 24.3221 24.1534C22.0891 24.1534 20.4698 25.875 20.4698 28.6364C20.4698 31.3977 22.0891 33.1193 24.3221 33.1193C26.0778 33.1193 27.5096 32.0625 27.8335 30.2727H26.7766C26.521 31.483 25.4812 32.1307 24.3221 32.1307C22.7369 32.1307 21.4925 30.9034 21.4925 28.6364C21.4925 26.3693 22.7369 25.142 24.3221 25.142C25.4812 25.142 26.521 25.7898 26.7766 27H27.8335ZM32.0639 33.1364C33.8366 33.1364 35.0298 31.7898 35.0298 29.7614C35.0298 27.7159 33.8366 26.3693 32.0639 26.3693C30.2912 26.3693 29.098 27.7159 29.098 29.7614C29.098 31.7898 30.2912 33.1364 32.0639 33.1364ZM32.0639 32.233C30.7173 32.233 30.1037 31.0739 30.1037 29.7614C30.1037 28.4489 30.7173 27.2727 32.0639 27.2727C33.4105 27.2727 34.0241 28.4489 34.0241 29.7614C34.0241 31.0739 33.4105 32.233 32.0639 32.233ZM36.565 35.4545H37.5707V31.9943H37.6559C37.8775 32.3523 38.3036 33.1364 39.565 33.1364C41.2013 33.1364 42.3434 31.8239 42.3434 29.7443C42.3434 27.6818 41.2013 26.3693 39.5479 26.3693C38.2695 26.3693 37.8775 27.1534 37.6559 27.4943H37.5366V26.4545H36.565V35.4545ZM37.5536 29.7273C37.5536 28.2614 38.2013 27.2727 39.4286 27.2727C40.707 27.2727 41.3377 28.3466 41.3377 29.7273C41.3377 31.125 40.69 32.233 39.4286 32.233C38.2184 32.233 37.5536 31.2102 37.5536 29.7273ZM43.8775 33H44.8832V26.4545H43.8775V33ZM44.3888 25.3636C44.7809 25.3636 45.1048 25.0568 45.1048 24.6818C45.1048 24.3068 44.7809 24 44.3888 24C43.9968 24 43.6729 24.3068 43.6729 24.6818C43.6729 25.0568 43.9968 25.3636 44.3888 25.3636ZM49.4695 33.1364C50.799 33.1364 51.7706 32.4716 52.0774 31.483L51.1058 31.2102C50.8501 31.892 50.2578 32.233 49.4695 32.233C48.2891 32.233 47.4751 31.4702 47.4283 30.0682H52.1797V29.642C52.1797 27.2045 50.7308 26.3693 49.3672 26.3693C47.5945 26.3693 46.4183 27.767 46.4183 29.7784C46.4183 31.7898 47.5774 33.1364 49.4695 33.1364ZM47.4283 29.1989C47.4964 28.1804 48.2166 27.2727 49.3672 27.2727C50.4581 27.2727 51.157 28.0909 51.157 29.1989H47.4283ZM56.1811 33.1364C57.4425 33.1364 57.8686 32.3523 58.0902 31.9943H58.2095V33H59.1811V24.2727H58.1754V27.4943H58.0902C57.8686 27.1534 57.4766 26.3693 56.1982 26.3693C54.5447 26.3693 53.4027 27.6818 53.4027 29.7443C53.4027 31.8239 54.5447 33.1364 56.1811 33.1364ZM56.3175 32.233C55.0561 32.233 54.4084 31.125 54.4084 29.7273C54.4084 28.3466 55.0391 27.2727 56.3175 27.2727C57.5447 27.2727 58.1925 28.2614 58.1925 29.7273C58.1925 31.2102 57.5277 32.233 56.3175 32.233ZM67.3842 26.4545H65.9865V24.8864H64.9808V26.4545H63.9922V27.3068H64.9808V31.3977C64.9808 32.5398 65.9013 33.0852 66.7536 33.0852C67.1286 33.0852 67.3672 33.017 67.5036 32.9659L67.299 32.0625C67.2138 32.0795 67.0774 32.1136 66.8558 32.1136C66.4126 32.1136 65.9865 31.9773 65.9865 31.125V27.3068H67.3842V26.4545ZM71.4858 33.1364C73.2585 33.1364 74.4517 31.7898 74.4517 29.7614C74.4517 27.7159 73.2585 26.3693 71.4858 26.3693C69.7131 26.3693 68.5199 27.7159 68.5199 29.7614C68.5199 31.7898 69.7131 33.1364 71.4858 33.1364ZM71.4858 32.233C70.1392 32.233 69.5256 31.0739 69.5256 29.7614C69.5256 28.4489 70.1392 27.2727 71.4858 27.2727C72.8324 27.2727 73.446 28.4489 73.446 29.7614C73.446 31.0739 72.8324 32.233 71.4858 32.233ZM82.021 33.1364C83.4698 33.1364 84.4244 32.25 84.5948 31.0909H83.5891C83.4016 31.8068 82.805 32.233 82.021 32.233C80.8278 32.233 80.0607 31.2443 80.0607 29.7273C80.0607 28.2443 80.8448 27.2727 82.021 27.2727C82.9073 27.2727 83.4357 27.8182 83.5891 28.4148H84.5948C84.4244 27.1875 83.3846 26.3693 82.0039 26.3693C80.2312 26.3693 79.055 27.767 79.055 29.7614C79.055 31.7216 80.18 33.1364 82.021 33.1364ZM87.0707 24.2727H86.065V33H87.0707V24.2727ZM88.9126 33H89.9183V26.4545H88.9126V33ZM89.424 25.3636C89.8161 25.3636 90.1399 25.0568 90.1399 24.6818C90.1399 24.3068 89.8161 24 89.424 24C89.032 24 88.7081 24.3068 88.7081 24.6818C88.7081 25.0568 89.032 25.3636 89.424 25.3636ZM91.7603 35.4545H92.766V31.9943H92.8512C93.0728 32.3523 93.4989 33.1364 94.7603 33.1364C96.3967 33.1364 97.5387 31.8239 97.5387 29.7443C97.5387 27.6818 96.3967 26.3693 94.7433 26.3693C93.4648 26.3693 93.0728 27.1534 92.8512 27.4943H92.7319V26.4545H91.7603V35.4545ZM92.7489 29.7273C92.7489 28.2614 93.3967 27.2727 94.6239 27.2727C95.9023 27.2727 96.533 28.3466 96.533 29.7273C96.533 31.125 95.8853 32.233 94.6239 32.233C93.4137 32.233 92.7489 31.2102 92.7489 29.7273ZM99.2092 33H100.181V31.9943H100.3C100.522 32.3523 100.948 33.1364 102.209 33.1364C103.846 33.1364 104.988 31.8239 104.988 29.7443C104.988 27.6818 103.846 26.3693 102.192 26.3693C100.914 26.3693 100.522 27.1534 100.3 27.4943H100.215V24.2727H99.2092V33ZM100.198 29.7273C100.198 28.2614 100.846 27.2727 102.073 27.2727C103.351 27.2727 103.982 28.3466 103.982 29.7273C103.982 31.125 103.334 32.233 102.073 32.233C100.863 32.233 100.198 31.2102 100.198 29.7273ZM109.185 33.1364C110.958 33.1364 112.151 31.7898 112.151 29.7614C112.151 27.7159 110.958 26.3693 109.185 26.3693C107.412 26.3693 106.219 27.7159 106.219 29.7614C106.219 31.7898 107.412 33.1364 109.185 33.1364ZM109.185 32.233C107.838 32.233 107.225 31.0739 107.225 29.7614C107.225 28.4489 107.838 27.2727 109.185 27.2727C110.532 27.2727 111.145 28.4489 111.145 29.7614C111.145 31.0739 110.532 32.233 109.185 32.233ZM115.612 33.1534C116.754 33.1534 117.351 32.5398 117.555 32.1136H117.607V33H118.612V28.6875C118.612 26.608 117.027 26.3693 116.192 26.3693C115.203 26.3693 114.078 26.7102 113.567 27.9034L114.521 28.2443C114.743 27.767 115.267 27.2557 116.226 27.2557C117.151 27.2557 117.607 27.7457 117.607 28.5852V28.6193C117.607 29.1051 117.112 29.0625 115.919 29.2159C114.705 29.3736 113.379 29.642 113.379 31.142C113.379 32.4205 114.368 33.1534 115.612 33.1534ZM115.766 32.25C114.964 32.25 114.385 31.892 114.385 31.1932C114.385 30.4261 115.084 30.1875 115.868 30.0852C116.294 30.0341 117.436 29.9148 117.607 29.7102V30.6307C117.607 31.4489 116.959 32.25 115.766 32.25ZM120.448 33H121.453V28.858C121.453 27.9716 122.152 27.3239 123.107 27.3239C123.375 27.3239 123.652 27.375 123.721 27.392V26.3693C123.605 26.3608 123.341 26.3523 123.192 26.3523C122.408 26.3523 121.726 26.7955 121.488 27.4432H121.419V26.4545H120.448V33ZM127.185 33.1364C128.446 33.1364 128.873 32.3523 129.094 31.9943H129.213V33H130.185V24.2727H129.179V27.4943H129.094C128.873 27.1534 128.48 26.3693 127.202 26.3693C125.549 26.3693 124.407 27.6818 124.407 29.7443C124.407 31.8239 125.549 33.1364 127.185 33.1364ZM127.321 32.233C126.06 32.233 125.412 31.125 125.412 29.7273C125.412 28.3466 126.043 27.2727 127.321 27.2727C128.549 27.2727 129.196 28.2614 129.196 29.7273C129.196 31.2102 128.532 32.233 127.321 32.233Z" fill="white"/>
<defs>
<filter id="filter0_d_2129_89" x="0" y="0" width="151" height="68" filterUnits="userSpaceOnUse" color-interpolation-filters="sRGB">
<feFlood flood-opacity="0" result="BackgroundImageFix"/>
<feColorMatrix in="SourceAlpha" type="matrix" values="0 0 0 0 0 0 0 0 0 0 0 0 0 0 0 0 0 0 127 0" result="hardAlpha"/>
<feOffset/>
<feGaussianBlur stdDeviation="7"/>
<feComposite in2="hardAlpha" operator="out"/>
<feColorMatrix type="matrix" values="0 0 0 0 0.119566 0 0 0 0 0.168921 0 0 0 0 0.295833 0 0 0 0.15 0"/>
<feBlend mode="normal" in2="BackgroundImageFix" result="effect1_dropShadow_2129_89"/>
<feBlend mode="normal" in="SourceGraphic" in2="effect1_dropShadow_2129_89" result="shape"/>
</filter>
</defs>
</svg>
