<svg width="129" height="68" viewBox="0 0 129 68" fill="none" xmlns="http://www.w3.org/2000/svg">
<g filter="url(#filter0_d_2129_74)">
<mask id="path-1-inside-1_2129_74" fill="white">
<path fill-rule="evenodd" clip-rule="evenodd" d="M20 14C16.6863 14 14 16.6863 14 20V39C14 42.3137 16.6863 45 20 45H57.2254L64.5 54L71.7746 45H109C112.314 45 115 42.3137 115 39V20C115 16.6863 112.314 14 109 14H20Z"/>
</mask>
<path fill-rule="evenodd" clip-rule="evenodd" d="M20 14C16.6863 14 14 16.6863 14 20V39C14 42.3137 16.6863 45 20 45H57.2254L64.5 54L71.7746 45H109C112.314 45 115 42.3137 115 39V20C115 16.6863 112.314 14 109 14H20Z" fill="#262A36"/>
<path d="M57.2254 45L58.0031 44.3714L57.7029 44H57.2254V45ZM64.5 54L63.7223 54.6286L64.5 55.5908L65.2777 54.6286L64.5 54ZM71.7746 45V44H71.2971L70.9969 44.3714L71.7746 45ZM15 20C15 17.2386 17.2386 15 20 15V13C16.134 13 13 16.134 13 20H15ZM15 39V20H13V39H15ZM20 44C17.2386 44 15 41.7614 15 39H13C13 42.866 16.134 46 20 46V44ZM57.2254 44H20V46H57.2254V44ZM56.4477 45.6286L63.7223 54.6286L65.2777 53.3714L58.0031 44.3714L56.4477 45.6286ZM65.2777 54.6286L72.5523 45.6286L70.9969 44.3714L63.7223 53.3714L65.2777 54.6286ZM109 44H71.7746V46H109V44ZM114 39C114 41.7614 111.761 44 109 44V46C112.866 46 116 42.866 116 39H114ZM114 20V39H116V20H114ZM109 15C111.761 15 114 17.2386 114 20H116C116 16.134 112.866 13 109 13V15ZM20 15H109V13H20V15Z" fill="#2D3342" mask="url(#path-1-inside-1_2129_74)"/>
</g>
<path d="M33.3335 27C33.0096 25.2102 31.5778 24.1534 29.8221 24.1534C27.5891 24.1534 25.9698 25.875 25.9698 28.6364C25.9698 31.3977 27.5891 33.1193 29.8221 33.1193C31.5778 33.1193 33.0096 32.0625 33.3335 30.2727H32.2766C32.021 31.483 30.9812 32.1307 29.8221 32.1307C28.2369 32.1307 26.9925 30.9034 26.9925 28.6364C26.9925 26.3693 28.2369 25.142 29.8221 25.142C30.9812 25.142 32.021 25.7898 32.2766 27H33.3335ZM37.5639 33.1364C39.3366 33.1364 40.5298 31.7898 40.5298 29.7614C40.5298 27.7159 39.3366 26.3693 37.5639 26.3693C35.7912 26.3693 34.598 27.7159 34.598 29.7614C34.598 31.7898 35.7912 33.1364 37.5639 33.1364ZM37.5639 32.233C36.2173 32.233 35.6037 31.0739 35.6037 29.7614C35.6037 28.4489 36.2173 27.2727 37.5639 27.2727C38.9105 27.2727 39.5241 28.4489 39.5241 29.7614C39.5241 31.0739 38.9105 32.233 37.5639 32.233ZM42.065 35.4545H43.0707V31.9943H43.1559C43.3775 32.3523 43.8036 33.1364 45.065 33.1364C46.7013 33.1364 47.8434 31.8239 47.8434 29.7443C47.8434 27.6818 46.7013 26.3693 45.0479 26.3693C43.7695 26.3693 43.3775 27.1534 43.1559 27.4943H43.0366V26.4545H42.065V35.4545ZM43.0536 29.7273C43.0536 28.2614 43.7013 27.2727 44.9286 27.2727C46.207 27.2727 46.8377 28.3466 46.8377 29.7273C46.8377 31.125 46.19 32.233 44.9286 32.233C43.7184 32.233 43.0536 31.2102 43.0536 29.7273ZM49.7908 35.4545C50.6985 35.4545 51.3377 34.973 51.717 33.9545L54.5039 26.4716L53.4045 26.4545L51.5977 31.6705H51.5295L49.7227 26.4545H48.6317L51.0522 33.0341L50.8647 33.5455C50.4982 34.5426 50.0465 34.6364 49.3136 34.4489L49.0579 35.3352C49.1602 35.3864 49.4499 35.4545 49.7908 35.4545ZM61.1357 33.1534C62.2777 33.1534 62.8743 32.5398 63.0788 32.1136H63.13V33H64.1357V28.6875C64.1357 26.608 62.5504 26.3693 61.7152 26.3693C60.7266 26.3693 59.6016 26.7102 59.0902 27.9034L60.0447 28.2443C60.2663 27.767 60.7905 27.2557 61.7493 27.2557C62.674 27.2557 63.13 27.7457 63.13 28.5852V28.6193C63.13 29.1051 62.6357 29.0625 61.4425 29.2159C60.228 29.3736 58.9027 29.642 58.9027 31.142C58.9027 32.4205 59.8913 33.1534 61.1357 33.1534ZM61.2891 32.25C60.4879 32.25 59.9084 31.892 59.9084 31.1932C59.9084 30.4261 60.6072 30.1875 61.3913 30.0852C61.8175 30.0341 62.9595 29.9148 63.13 29.7102V30.6307C63.13 31.4489 62.4822 32.25 61.2891 32.25ZM68.4428 33.1364C69.7042 33.1364 70.1303 32.3523 70.3519 31.9943H70.4712V33H71.4428V24.2727H70.4371V27.4943H70.3519C70.1303 27.1534 69.7383 26.3693 68.4599 26.3693C66.8065 26.3693 65.6644 27.6818 65.6644 29.7443C65.6644 31.8239 66.8065 33.1364 68.4428 33.1364ZM68.5792 32.233C67.3178 32.233 66.6701 31.125 66.6701 29.7273C66.6701 28.3466 67.3008 27.2727 68.5792 27.2727C69.8065 27.2727 70.4542 28.2614 70.4542 29.7273C70.4542 31.2102 69.7894 32.233 68.5792 32.233ZM75.896 33.1364C77.1573 33.1364 77.5835 32.3523 77.805 31.9943H77.9244V33H78.896V24.2727H77.8903V27.4943H77.805C77.5835 27.1534 77.1914 26.3693 75.913 26.3693C74.2596 26.3693 73.1175 27.6818 73.1175 29.7443C73.1175 31.8239 74.2596 33.1364 75.896 33.1364ZM76.0323 32.233C74.771 32.233 74.1232 31.125 74.1232 29.7273C74.1232 28.3466 74.7539 27.2727 76.0323 27.2727C77.2596 27.2727 77.9073 28.2614 77.9073 29.7273C77.9073 31.2102 77.2425 32.233 76.0323 32.233ZM80.8775 33H81.8832V28.858C81.8832 27.9716 82.582 27.3239 83.5366 27.3239C83.805 27.3239 84.082 27.375 84.1502 27.392V26.3693C84.0352 26.3608 83.771 26.3523 83.6218 26.3523C82.8377 26.3523 82.1559 26.7955 81.9173 27.4432H81.8491V26.4545H80.8775V33ZM87.8874 33.1364C89.217 33.1364 90.1886 32.4716 90.4954 31.483L89.5238 31.2102C89.2681 31.892 88.6758 32.233 87.8874 32.233C86.707 32.233 85.8931 31.4702 85.8462 30.0682H90.5977V29.642C90.5977 27.2045 89.1488 26.3693 87.7852 26.3693C86.0124 26.3693 84.8363 27.767 84.8363 29.7784C84.8363 31.7898 85.9954 33.1364 87.8874 33.1364ZM85.8462 29.1989C85.9144 28.1804 86.6346 27.2727 87.7852 27.2727C88.8761 27.2727 89.5749 28.0909 89.5749 29.1989H85.8462ZM96.7638 27.9205C96.4485 26.9915 95.7411 26.3693 94.4457 26.3693C93.065 26.3693 92.0423 27.1534 92.0423 28.2614C92.0423 29.1648 92.5792 29.7699 93.7809 30.0511L94.8718 30.3068C95.5323 30.4602 95.8434 30.7756 95.8434 31.2273C95.8434 31.7898 95.2468 32.25 94.3093 32.25C93.4869 32.25 92.9712 31.8963 92.7923 31.1932L91.8377 31.4318C92.0721 32.544 92.9883 33.1364 94.3263 33.1364C95.8477 33.1364 96.8832 32.3054 96.8832 31.1761C96.8832 30.2642 96.3121 29.6889 95.1445 29.4034L94.1729 29.1648C93.3974 28.973 93.0479 28.7131 93.0479 28.2102C93.0479 27.6477 93.6445 27.2386 94.4457 27.2386C95.3235 27.2386 95.6857 27.7244 95.8604 28.1761L96.7638 27.9205ZM103.033 27.9205C102.718 26.9915 102.011 26.3693 100.715 26.3693C99.3345 26.3693 98.3118 27.1534 98.3118 28.2614C98.3118 29.1648 98.8487 29.7699 100.05 30.0511L101.141 30.3068C101.802 30.4602 102.113 30.7756 102.113 31.2273C102.113 31.7898 101.516 32.25 100.579 32.25C99.7564 32.25 99.2408 31.8963 99.0618 31.1932L98.1072 31.4318C98.3416 32.544 99.2578 33.1364 100.596 33.1364C102.117 33.1364 103.153 32.3054 103.153 31.1761C103.153 30.2642 102.582 29.6889 101.414 29.4034L100.442 29.1648C99.6669 28.973 99.3175 28.7131 99.3175 28.2102C99.3175 27.6477 99.9141 27.2386 100.715 27.2386C101.593 27.2386 101.955 27.7244 102.13 28.1761L103.033 27.9205Z" fill="white"/>
<defs>
<filter id="filter0_d_2129_74" x="0" y="0" width="129" height="68" filterUnits="userSpaceOnUse" color-interpolation-filters="sRGB">
<feFlood flood-opacity="0" result="BackgroundImageFix"/>
<feColorMatrix in="SourceAlpha" type="matrix" values="0 0 0 0 0 0 0 0 0 0 0 0 0 0 0 0 0 0 127 0" result="hardAlpha"/>
<feOffset/>
<feGaussianBlur stdDeviation="7"/>
<feComposite in2="hardAlpha" operator="out"/>
<feColorMatrix type="matrix" values="0 0 0 0 0.119566 0 0 0 0 0.168921 0 0 0 0 0.295833 0 0 0 0.15 0"/>
<feBlend mode="normal" in2="BackgroundImageFix" result="effect1_dropShadow_2129_74"/>
<feBlend mode="normal" in="SourceGraphic" in2="effect1_dropShadow_2129_74" result="shape"/>
</filter>
</defs>
</svg>
