<svg width="20" height="16" viewBox="0 0 20 16" fill="none" xmlns="http://www.w3.org/2000/svg">
<path fill-rule="evenodd" clip-rule="evenodd" d="M1.73778 3.12664V13.6582C2.5268 13.4255 3.6702 13.2133 5.21333 13.2133C6.75647 13.2133 7.89987 13.4255 8.68889 13.6582V3.12664C8.55712 3.00202 8.35271 2.83132 8.07059 2.65771C7.48875 2.29965 6.55869 1.91771 5.21333 1.91771C3.86798 1.91771 2.93791 2.29965 2.35608 2.65771C2.07396 2.83132 1.86954 3.00202 1.73778 3.12664ZM9.55778 2.7866L10.2529 2.26526C10.3657 2.41567 10.4267 2.5986 10.4267 2.7866V14.951C10.4267 15.2715 10.2503 15.5659 9.96777 15.7171C9.68837 15.8666 9.35 15.8521 9.08467 15.6798M9.07865 15.6759L9.08097 15.6774L9.08467 15.6798C9.08569 15.6805 9.0858 15.6805 9.0858 15.6805C9.08564 15.6804 9.08493 15.68 9.08467 15.6798C9.08218 15.6783 9.07556 15.6743 9.06475 15.6681C9.04087 15.6545 8.99644 15.6302 8.93062 15.5986C8.79909 15.5355 8.58137 15.4427 8.27044 15.3471C7.64967 15.1561 6.64984 14.951 5.21333 14.951C3.77683 14.951 2.777 15.1561 2.15622 15.3471C1.8453 15.4427 1.62758 15.5355 1.49605 15.5986C1.43022 15.6302 1.3858 15.6545 1.36192 15.6681C1.3511 15.6743 1.34449 15.6783 1.34199 15.6798C1.34471 15.6781 1.34742 15.6763 1.35012 15.6745C1.35036 15.6743 1.35061 15.6742 1.35086 15.674L0.868889 14.951C1.35086 15.674 1.35049 15.6742 1.35012 15.6745L1.34805 15.6759L1.3457 15.6774L1.34199 15.6798C1.34109 15.6804 1.3404 15.6809 1.34199 15.6798C1.34174 15.68 1.34217 15.6797 1.34199 15.6798C1.07667 15.8521 0.738303 15.8667 0.458897 15.7171C0.176371 15.5659 0 15.2715 0 14.951V2.7866C0 2.5986 0.0609768 2.41567 0.173778 2.26526L0.868889 2.7866C0.173778 2.26526 0.174068 2.26488 0.174364 2.26448L0.174982 2.26366L0.176315 2.2619L0.179364 2.25789L0.18701 2.24798C0.192796 2.24054 0.199966 2.23147 0.208536 2.22086C0.225671 2.19967 0.248426 2.17233 0.276926 2.13976C0.333894 2.07465 0.414023 1.98839 0.518319 1.88826C0.726762 1.68816 1.03314 1.43136 1.44531 1.17771C2.27542 0.666878 3.51758 0.179932 5.21333 0.179932C6.90909 0.179932 8.15125 0.666878 8.98135 1.17771C9.39353 1.43136 9.6999 1.68816 9.90835 1.88826C10.0126 1.98839 10.0928 2.07465 10.1497 2.13976C10.1782 2.17233 10.201 2.19967 10.2181 2.22086C10.2267 2.23147 10.2339 2.24054 10.2397 2.24798L10.2473 2.25789L10.2504 2.2619L10.2517 2.26366L10.2523 2.26448C10.2526 2.26488 10.2529 2.26526 9.55778 2.7866" fill="white"/>
<path fill-rule="evenodd" clip-rule="evenodd" d="M10.4267 3.12664V13.6582C11.2158 13.4255 12.3592 13.2133 13.9023 13.2133C15.4454 13.2133 16.5888 13.4255 17.3779 13.6582V3.12664C17.2461 3.00202 17.0417 2.83132 16.7596 2.65771C16.1777 2.29965 15.2477 1.91771 13.9023 1.91771C12.5569 1.91771 11.6269 2.29965 11.045 2.65771C10.7629 2.83132 10.5585 3.00202 10.4267 3.12664ZM18.2467 2.7866L18.9419 2.26526C19.0547 2.41567 19.1156 2.5986 19.1156 2.7866V14.951C19.1156 15.2715 18.9393 15.5659 18.6567 15.7171C18.3773 15.8666 18.039 15.8521 17.7736 15.6798M17.7676 15.6759L17.7699 15.6774L17.7736 15.6798C17.7747 15.6805 17.7748 15.6805 17.7748 15.6805C17.7746 15.6804 17.7739 15.68 17.7736 15.6798C17.7711 15.6783 17.7645 15.6743 17.7537 15.6681C17.7298 15.6545 17.6854 15.6302 17.6196 15.5986C17.4881 15.5355 17.2703 15.4427 16.9594 15.3471C16.3386 15.1561 15.3388 14.951 13.9023 14.951C12.4658 14.951 11.466 15.1561 10.8452 15.3471C10.5343 15.4427 10.3165 15.5355 10.185 15.5986C10.1192 15.6302 10.0748 15.6545 10.0509 15.6681C10.0401 15.6743 10.0335 15.6783 10.031 15.6798C10.0337 15.6781 10.0364 15.6763 10.0391 15.6745C10.0393 15.6743 10.0396 15.6742 10.0398 15.674L9.55785 14.951C10.0398 15.674 10.0395 15.6742 10.0391 15.6745L10.037 15.6759L10.0347 15.6774L10.031 15.6798C10.0301 15.6804 10.0294 15.6809 10.031 15.6798C10.0307 15.68 10.0311 15.6797 10.031 15.6798C9.76563 15.8521 9.42727 15.8667 9.14786 15.7171C8.86534 15.5659 8.68896 15.2715 8.68896 14.951V2.7866C8.68896 2.5986 8.74994 2.41567 8.86274 2.26526L9.55785 2.7866C8.86274 2.26526 8.86303 2.26488 8.86333 2.26448L8.86395 2.26366L8.86528 2.2619L8.86833 2.25789L8.87597 2.24798C8.88176 2.24054 8.88893 2.23147 8.8975 2.22086C8.91464 2.19967 8.93739 2.17233 8.96589 2.13976C9.02286 2.07465 9.10299 1.98839 9.20728 1.88826C9.41573 1.68816 9.7221 1.43136 10.1343 1.17771C10.9644 0.666878 12.2065 0.179932 13.9023 0.179932C15.5981 0.179932 16.8402 0.666878 17.6703 1.17771C18.0825 1.43136 18.3889 1.68816 18.5973 1.88826C18.7016 1.98839 18.7817 2.07465 18.8387 2.13976C18.8672 2.17233 18.89 2.19967 18.9071 2.22086C18.9157 2.23147 18.9228 2.24054 18.9286 2.24798L18.9363 2.25789L18.9393 2.2619L18.9406 2.26366L18.9413 2.26448C18.9416 2.26488 18.9419 2.26526 18.2467 2.7866" fill="white"/>
</svg>
