<svg width="20" height="20" viewBox="0 0 20 20" fill="none" xmlns="http://www.w3.org/2000/svg">
<path d="M10 0C4.47768 0 0 4.47768 0 10C0 15.5223 4.47768 20 10 20C15.5223 20 20 15.5223 20 10C20 4.47768 15.5223 0 10 0ZM10 15.8036C9.5067 15.8036 9.10714 15.404 9.10714 14.9107C9.10714 14.4174 9.5067 14.0179 10 14.0179C10.4933 14.0179 10.8929 14.4174 10.8929 14.9107C10.8929 15.404 10.4933 15.8036 10 15.8036ZM11.404 10.904C11.2019 10.9821 11.0279 11.1192 10.9049 11.2976C10.7819 11.476 10.7154 11.6873 10.7143 11.904V12.4107C10.7143 12.5089 10.6339 12.5893 10.5357 12.5893H9.46429C9.36607 12.5893 9.28571 12.5089 9.28571 12.4107V11.9308C9.28571 11.4152 9.43527 10.9062 9.72991 10.4821C10.0179 10.067 10.4196 9.75 10.8929 9.5692C11.6518 9.27679 12.1429 8.64062 12.1429 7.94643C12.1429 6.96205 11.1808 6.16071 10 6.16071C8.8192 6.16071 7.85714 6.96205 7.85714 7.94643V8.11607C7.85714 8.21429 7.77679 8.29464 7.67857 8.29464H6.60714C6.50893 8.29464 6.42857 8.21429 6.42857 8.11607V7.94643C6.42857 7.0692 6.8125 6.25 7.50893 5.64062C8.17857 5.05357 9.0625 4.73214 10 4.73214C10.9375 4.73214 11.8214 5.0558 12.4911 5.64062C13.1875 6.25 13.5714 7.0692 13.5714 7.94643C13.5714 9.23661 12.721 10.3973 11.404 10.904Z" fill="white"/>
</svg>
