<svg width="24" height="24" viewBox="0 0 24 24" fill="none" xmlns="http://www.w3.org/2000/svg">
<path fill-rule="evenodd" clip-rule="evenodd" d="M12 6C12 5.44772 12.4477 5 13 5H21C21.5523 5 22 5.44772 22 6C22 6.55228 21.5523 7 21 7H13C12.4477 7 12 6.55228 12 6ZM2 18C2 17.4477 2.44772 17 3 17H21C21.5523 17 22 17.4477 22 18C22 18.5523 21.5523 19 21 19H3C2.44772 19 2 18.5523 2 18ZM8 11C7.44772 11 7 11.4477 7 12C7 12.5523 7.44772 13 8 13H21C21.5523 13 22 12.5523 22 12C22 11.4477 21.5523 11 21 11H8Z" fill="white"/>
</svg>
