<svg width="20" height="20" viewBox="0 0 20 20" fill="none" xmlns="http://www.w3.org/2000/svg">
<path d="M18.4384 11.8749C18.1897 11.8749 17.9513 11.9736 17.7754 12.1494C17.5996 12.3253 17.5009 12.5637 17.5009 12.8124V16.5623C17.5009 16.811 17.4021 17.0494 17.2263 17.2252C17.0505 17.401 16.812 17.4998 16.5634 17.4998H3.43846C3.18982 17.4998 2.95136 17.401 2.77555 17.2252C2.59973 17.0494 2.50096 16.811 2.50096 16.5623V12.8124C2.50096 12.5637 2.40219 12.3253 2.22638 12.1494C2.05056 11.9736 1.81211 11.8749 1.56347 11.8749C1.31483 11.8749 1.07638 11.9736 0.900562 12.1494C0.724748 12.3253 0.625977 12.5637 0.625977 12.8124V16.5623C0.625977 17.3082 0.922291 18.0236 1.44973 18.5511C1.97718 19.0785 2.69254 19.3748 3.43846 19.3748H16.5634C17.3093 19.3748 18.0246 19.0785 18.5521 18.5511C19.0795 18.0236 19.3758 17.3082 19.3758 16.5623V12.8124C19.3758 12.5637 19.2771 12.3253 19.1013 12.1494C18.9254 11.9736 18.687 11.8749 18.4384 11.8749ZM9.33529 13.478C9.42445 13.5633 9.52958 13.6302 9.64466 13.6748C9.75688 13.7244 9.87822 13.7501 10.0009 13.7501C10.1236 13.7501 10.2449 13.7244 10.3572 13.6748C10.4722 13.6302 10.5774 13.5633 10.6665 13.478L14.4165 9.728C14.593 9.55147 14.6922 9.31203 14.6922 9.06238C14.6922 8.81272 14.593 8.57329 14.4165 8.39676C14.24 8.22023 14.0005 8.12105 13.7509 8.12105C13.5012 8.12105 13.2618 8.22023 13.0853 8.39676L10.9384 10.553V1.56243C10.9384 1.31379 10.8396 1.07534 10.6638 0.899524C10.488 0.72371 10.2495 0.624939 10.0009 0.624939C9.75227 0.624939 9.51382 0.72371 9.338 0.899524C9.16219 1.07534 9.06342 1.31379 9.06342 1.56243V10.553L6.91656 8.39676C6.82915 8.30935 6.72538 8.24001 6.61117 8.1927C6.49696 8.1454 6.37455 8.12105 6.25094 8.12105C6.12732 8.12105 6.00491 8.1454 5.89071 8.1927C5.7765 8.24001 5.67273 8.30935 5.58532 8.39676C5.49791 8.48417 5.42857 8.58794 5.38126 8.70215C5.33396 8.81635 5.30961 8.93876 5.30961 9.06238C5.30961 9.186 5.33396 9.3084 5.38126 9.42261C5.42857 9.53682 5.49791 9.64059 5.58532 9.728L9.33529 13.478Z" fill="#62718A" stroke="#62718A" stroke-width="0.374997"/>
</svg>
