<svg width="20" height="20" viewBox="0 0 20 20" fill="none" xmlns="http://www.w3.org/2000/svg">
<path d="M18.4388 11.8748C18.1902 11.8748 17.9517 11.9736 17.7759 12.1494C17.6001 12.3252 17.5013 12.5637 17.5013 12.8123V16.5623C17.5013 16.8109 17.4026 17.0494 17.2268 17.2252C17.0509 17.401 16.8125 17.4998 16.5639 17.4998H3.43894C3.19031 17.4998 2.95185 17.401 2.77604 17.2252C2.60022 17.0494 2.50145 16.8109 2.50145 16.5623V12.8123C2.50145 12.5637 2.40268 12.3252 2.22687 12.1494C2.05105 11.9736 1.8126 11.8748 1.56396 11.8748C1.31532 11.8748 1.07686 11.9736 0.90105 12.1494C0.725236 12.3252 0.626465 12.5637 0.626465 12.8123V16.5623C0.626465 17.3082 0.922779 18.0235 1.45022 18.551C1.97766 19.0784 2.69303 19.3747 3.43894 19.3747H16.5639C17.3098 19.3747 18.0251 19.0784 18.5526 18.551C19.08 18.0235 19.3763 17.3082 19.3763 16.5623V12.8123C19.3763 12.5637 19.2776 12.3252 19.1017 12.1494C18.9259 11.9736 18.6875 11.8748 18.4388 11.8748ZM9.33578 13.4779C9.42494 13.5633 9.53007 13.6302 9.64515 13.6748C9.75737 13.7244 9.87871 13.75 10.0014 13.75C10.1241 13.75 10.2454 13.7244 10.3576 13.6748C10.4727 13.6302 10.5779 13.5633 10.667 13.4779L14.417 9.72794C14.5935 9.5514 14.6927 9.31197 14.6927 9.06232C14.6927 8.81266 14.5935 8.57323 14.417 8.3967C14.2405 8.22016 14.001 8.12099 13.7514 8.12099C13.5017 8.12099 13.2623 8.22016 13.0858 8.3967L10.9389 10.5529V1.56237C10.9389 1.31373 10.8401 1.07528 10.6643 0.899463C10.4885 0.723649 10.25 0.624878 10.0014 0.624878C9.75276 0.624878 9.5143 0.723649 9.33849 0.899463C9.16268 1.07528 9.0639 1.31373 9.0639 1.56237V10.5529L6.91705 8.3967C6.82963 8.30929 6.72586 8.23995 6.61166 8.19264C6.49745 8.14534 6.37504 8.12099 6.25142 8.12099C6.12781 8.12099 6.0054 8.14534 5.89119 8.19264C5.77699 8.23995 5.67321 8.30929 5.5858 8.3967C5.49839 8.48411 5.42906 8.58788 5.38175 8.70209C5.33444 8.81629 5.3101 8.9387 5.3101 9.06232C5.3101 9.18593 5.33444 9.30834 5.38175 9.42255C5.42906 9.53676 5.49839 9.64053 5.5858 9.72794L9.33578 13.4779Z" fill="#395FEB" stroke="#395FEB" stroke-width="0.374997"/>
</svg>
