<svg width="18" height="18" viewBox="0 0 18 18" fill="none" xmlns="http://www.w3.org/2000/svg">
<path fill-rule="evenodd" clip-rule="evenodd" d="M9 16C12.866 16 16 12.866 16 9C16 5.13401 12.866 2 9 2C5.13401 2 2 5.13401 2 9C2 12.866 5.13401 16 9 16ZM8.58955 5.67711C8.71699 5.55763 8.87604 5.5 9.05683 5.5C9.23678 5.5 9.39409 5.55721 9.5163 5.67859C9.64514 5.80018 9.70734 5.95845 9.70734 6.14112C9.70734 6.32908 9.64589 6.49285 9.51784 6.6209C9.39541 6.74333 9.23753 6.80102 9.05683 6.80102C8.87604 6.80102 8.71699 6.74339 8.58955 6.62391L8.58323 6.61798C8.46275 6.48947 8.40632 6.32654 8.40632 6.14112C8.40632 5.96042 8.46401 5.80254 8.58644 5.68012L8.58955 5.67711ZM7.82422 7.58431H9.58529V11.6054C9.58529 11.7136 9.58762 11.7967 9.59197 11.8561C9.59388 11.8822 9.59607 11.9022 9.59829 11.9168C9.61336 11.9219 9.63747 11.9277 9.67337 11.9322L10.3082 12.0015V12.5H7.82422V12.0015L8.45907 11.9322C8.49497 11.9277 8.51908 11.9219 8.53416 11.9168C8.53638 11.9022 8.53856 11.8822 8.54047 11.8561C8.54482 11.7967 8.54715 11.7136 8.54715 11.6054V8.47893C8.54715 8.37074 8.54482 8.2876 8.54047 8.22818C8.53856 8.2021 8.53638 8.18215 8.53416 8.16755C8.51925 8.16245 8.49549 8.15675 8.46024 8.15224L7.82422 8.09442V7.58431Z" fill="#395FEB"/>
</svg>
