<svg width="25" height="24" viewBox="0 0 25 24" fill="none" xmlns="http://www.w3.org/2000/svg">
<path fill-rule="evenodd" clip-rule="evenodd" d="M12.0869 20C16.5052 20 20.0869 16.4183 20.0869 12C20.0869 7.58172 16.5052 4 12.0869 4C7.66864 4 4.08691 7.58172 4.08691 12C4.08691 16.4183 7.66864 20 12.0869 20ZM11.6178 8.20241C11.7635 8.06586 11.9452 8 12.1519 8C12.3575 8 12.5373 8.06538 12.677 8.2041C12.8242 8.34306 12.8953 8.52395 12.8953 8.73271C12.8953 8.94752 12.8251 9.13468 12.6787 9.28103C12.5388 9.42095 12.3584 9.48688 12.1519 9.48688C11.9452 9.48688 11.7635 9.42102 11.6178 9.28447L11.6106 9.2777C11.4729 9.13082 11.4084 8.94462 11.4084 8.73271C11.4084 8.52619 11.4744 8.34576 11.6143 8.20585L11.6178 8.20241ZM10.7432 10.3821H12.7558V14.9776C12.7558 15.1012 12.7585 15.1962 12.7635 15.2642C12.7656 15.294 12.7681 15.3168 12.7707 15.3334C12.7879 15.3393 12.8155 15.3459 12.8565 15.3511L13.582 15.4303V16H10.7432V15.4303L11.4687 15.3511C11.5097 15.3459 11.5373 15.3393 11.5545 15.3334C11.5571 15.3168 11.5596 15.294 11.5617 15.2642C11.5667 15.1962 11.5694 15.1012 11.5694 14.9776V11.4045C11.5694 11.2808 11.5667 11.1858 11.5617 11.1179C11.5596 11.0881 11.5571 11.0653 11.5545 11.0486C11.5375 11.0428 11.5103 11.0363 11.47 11.0311L10.7432 10.965V10.3821Z" fill="#297EFF"/>
</svg>
