<svg width="20" height="20" viewBox="0 0 20 20" fill="none" xmlns="http://www.w3.org/2000/svg">
<path fill-rule="evenodd" clip-rule="evenodd" d="M10 20C15.5228 20 20 15.5228 20 10C20 4.47715 15.5228 0 10 0C4.47715 0 0 4.47715 0 10C0 15.5228 4.47715 20 10 20ZM9.4234 5.25301C9.60547 5.08232 9.83267 5 10.091 5C10.348 5 10.5728 5.08173 10.7473 5.25512C10.9314 5.42883 11.0203 5.65493 11.0203 5.91588C11.0203 6.1844 10.9325 6.41835 10.7495 6.60129C10.5746 6.77618 10.3491 6.85859 10.091 6.85859C9.83267 6.85859 9.60547 6.77627 9.4234 6.60558L9.41438 6.59712C9.24226 6.41353 9.16166 6.18077 9.16166 5.91588C9.16166 5.65774 9.24407 5.4322 9.41896 5.25731L9.4234 5.25301ZM8.33008 7.97758H10.8459V13.722C10.8459 13.8765 10.8492 13.9953 10.8554 14.0802C10.8582 14.1175 10.8613 14.146 10.8645 14.1668C10.886 14.1742 10.9204 14.1824 10.9717 14.1889L11.8787 14.2878V15H8.33008V14.2878L9.23701 14.1889C9.28829 14.1824 9.32274 14.1742 9.34427 14.1668C9.34744 14.146 9.35057 14.1175 9.3533 14.0802C9.35951 13.9953 9.36284 13.8765 9.36284 13.722V9.25561C9.36284 9.10105 9.35951 8.98228 9.3533 8.89739C9.35057 8.86014 9.34744 8.83164 9.34427 8.81078C9.32297 8.8035 9.28904 8.79536 9.23868 8.78891L8.33008 8.70631V7.97758Z" fill="white"/>
</svg>
