<svg width="25" height="24" viewBox="0 0 25 24" fill="none" xmlns="http://www.w3.org/2000/svg">
<path d="M12.5 8.87578C10.7797 8.87578 9.3758 10.2797 9.3758 12C9.3758 13.7203 10.7797 15.1242 12.5 15.1242C14.2203 15.1242 15.6242 13.7203 15.6242 12C15.6242 10.2797 14.2203 8.87578 12.5 8.87578ZM21.8703 12C21.8703 10.7062 21.882 9.42422 21.8094 8.13281C21.7367 6.63281 21.3946 5.30156 20.2977 4.20469C19.1985 3.10547 17.8695 2.76562 16.3695 2.69297C15.0758 2.62031 13.7938 2.63203 12.5024 2.63203C11.2086 2.63203 9.92658 2.62031 8.63518 2.69297C7.13518 2.76562 5.80393 3.10781 4.70705 4.20469C3.60783 5.3039 3.26799 6.63281 3.19533 8.13281C3.12268 9.42656 3.13439 10.7086 3.13439 12C3.13439 13.2914 3.12268 14.5758 3.19533 15.8672C3.26799 17.3672 3.61018 18.6984 4.70705 19.7953C5.80627 20.8945 7.13518 21.2344 8.63518 21.307C9.92893 21.3797 11.211 21.368 12.5024 21.368C13.7961 21.368 15.0781 21.3797 16.3695 21.307C17.8695 21.2344 19.2008 20.8922 20.2977 19.7953C21.3969 18.6961 21.7367 17.3672 21.8094 15.8672C21.8844 14.5758 21.8703 13.2937 21.8703 12ZM12.5 16.807C9.83986 16.807 7.69299 14.6602 7.69299 12C7.69299 9.33984 9.83986 7.19297 12.5 7.19297C15.1602 7.19297 17.307 9.33984 17.307 12C17.307 14.6602 15.1602 16.807 12.5 16.807ZM17.5039 8.11875C16.8828 8.11875 16.3813 7.61719 16.3813 6.99609C16.3813 6.375 16.8828 5.87344 17.5039 5.87344C18.125 5.87344 18.6266 6.375 18.6266 6.99609C18.6268 7.14357 18.5979 7.28964 18.5415 7.42593C18.4851 7.56222 18.4025 7.68606 18.2982 7.79034C18.1939 7.89463 18.0701 7.97731 17.9338 8.03367C17.7975 8.09002 17.6514 8.11893 17.5039 8.11875Z" fill="white"/>
</svg>
