<svg width="16" height="16" viewBox="0 0 16 16" fill="none" xmlns="http://www.w3.org/2000/svg">
<path d="M11.302 5.36537C10.483 4.54637 9.41198 4.13337 8.33398 4.13337V8.33337L5.36598 11.3014C7.00398 12.9394 9.66398 12.9394 11.309 11.3014C12.947 9.66337 12.947 7.00337 11.302 5.36537ZM8.33398 1.33337C4.46998 1.33337 1.33398 4.46937 1.33398 8.33337C1.33398 12.1974 4.46998 15.3334 8.33398 15.3334C12.198 15.3334 15.334 12.1974 15.334 8.33337C15.334 4.46937 12.198 1.33337 8.33398 1.33337ZM8.33398 13.9334C5.23998 13.9334 2.73398 11.4274 2.73398 8.33337C2.73398 5.23937 5.23998 2.73337 8.33398 2.73337C11.428 2.73337 13.934 5.23937 13.934 8.33337C13.934 11.4274 11.428 13.9334 8.33398 13.9334Z" fill="#C058FF"/>
</svg>
