<svg width="17" height="16" viewBox="0 0 17 16" fill="none" xmlns="http://www.w3.org/2000/svg">
<path d="M6.00004 7.33358C6.46153 7.33358 6.91266 7.19674 7.29637 6.94035C7.68009 6.68396 7.97916 6.31954 8.15576 5.89318C8.33237 5.46682 8.37857 4.99766 8.28854 4.54504C8.19851 4.09242 7.97628 3.67666 7.64996 3.35033C7.32363 3.02401 6.90787 2.80178 6.45525 2.71175C6.00263 2.62172 5.53347 2.66793 5.10711 2.84453C4.68075 3.02114 4.31634 3.3202 4.05995 3.70392C3.80356 4.08763 3.66671 4.53876 3.66671 5.00025C3.66671 5.61909 3.91254 6.21258 4.35013 6.65017C4.78771 7.08775 5.3812 7.33358 6.00004 7.33358ZM6.00004 4.00025C6.19782 4.00025 6.39116 4.0589 6.55561 4.16878C6.72006 4.27866 6.84823 4.43484 6.92392 4.61757C6.99961 4.80029 7.01941 5.00136 6.98083 5.19534C6.94224 5.38932 6.847 5.5675 6.70715 5.70736C6.5673 5.84721 6.38911 5.94245 6.19513 5.98103C6.00115 6.01962 5.80008 5.99982 5.61736 5.92413C5.43463 5.84844 5.27845 5.72027 5.16857 5.55582C5.05869 5.39137 5.00004 5.19803 5.00004 5.00025C5.00004 4.73503 5.1054 4.48068 5.29293 4.29314C5.48047 4.10561 5.73482 4.00025 6.00004 4.00025ZM11.3334 9.33358C10.8719 9.33358 10.4208 9.47043 10.037 9.72682C9.65333 9.98321 9.35426 10.3476 9.17766 10.774C9.00105 11.2003 8.95484 11.6695 9.04488 12.1221C9.13491 12.5747 9.35714 12.9905 9.68346 13.3168C10.0098 13.6432 10.4255 13.8654 10.8782 13.9554C11.3308 14.0454 11.7999 13.9992 12.2263 13.8226C12.6527 13.646 13.0171 13.347 13.2735 12.9632C13.5299 12.5795 13.6667 12.1284 13.6667 11.6669C13.6667 11.0481 13.4209 10.4546 12.9833 10.017C12.5457 9.57942 11.9522 9.33358 11.3334 9.33358ZM11.3334 12.6669C11.1356 12.6669 10.9423 12.6083 10.7778 12.4984C10.6134 12.3885 10.4852 12.2323 10.4095 12.0496C10.3338 11.8669 10.314 11.6658 10.3526 11.4718C10.3912 11.2778 10.4864 11.0997 10.6263 10.9598C10.7661 10.82 10.9443 10.7247 11.1383 10.6861C11.3323 10.6475 11.5333 10.6673 11.7161 10.743C11.8988 10.8187 12.055 10.9469 12.1648 11.1113C12.2747 11.2758 12.3334 11.4691 12.3334 11.6669C12.3334 11.9321 12.228 12.1865 12.0405 12.374C11.8529 12.5616 11.5986 12.6669 11.3334 12.6669ZM13.8267 2.84025C13.7716 2.78502 13.7061 2.7412 13.6341 2.7113C13.562 2.6814 13.4847 2.66602 13.4067 2.66602C13.3287 2.66602 13.2514 2.6814 13.1794 2.7113C13.1073 2.7412 13.0418 2.78502 12.9867 2.84025L3.50671 12.3202C3.39671 12.4325 3.33457 12.5831 3.33337 12.7402C3.3332 12.8577 3.3679 12.9726 3.43308 13.0704C3.49827 13.1681 3.591 13.2443 3.69953 13.2893C3.80806 13.3343 3.9275 13.346 4.04271 13.323C4.15792 13.3001 4.26373 13.2434 4.34671 13.1602L13.8267 3.68025C13.8819 3.62514 13.9258 3.55967 13.9557 3.4876C13.9856 3.41553 14.0009 3.33827 14.0009 3.26025C14.0009 3.18222 13.9856 3.10497 13.9557 3.0329C13.9258 2.96083 13.8819 2.89536 13.8267 2.84025Z" fill="#ECECF1"/>
</svg>
