<svg width="32" height="32" viewBox="0 0 32 32" fill="none" xmlns="http://www.w3.org/2000/svg">
<rect x="8" y="6.66663" width="14.6667" height="18.6667" fill="#62718A"/>
<path d="M15.9998 2.66663C8.63984 2.66663 2.6665 8.63996 2.6665 16C2.6665 23.36 8.63984 29.3333 15.9998 29.3333C23.3598 29.3333 29.3332 23.36 29.3332 16C29.3332 8.63996 23.3598 2.66663 15.9998 2.66663ZM13.3332 22V9.99996L21.3332 16L13.3332 22Z" fill="white"/>
<path fill-rule="evenodd" clip-rule="evenodd" d="M15.9998 28.3333C22.8113 28.3333 28.3332 22.8115 28.3332 16C28.3332 9.18845 22.8113 3.66663 15.9998 3.66663C9.18833 3.66663 3.6665 9.18845 3.6665 16C3.6665 22.8115 9.18833 28.3333 15.9998 28.3333ZM15.9998 29.3333C23.3636 29.3333 29.3332 23.3638 29.3332 16C29.3332 8.63616 23.3636 2.66663 15.9998 2.66663C8.63604 2.66663 2.6665 8.63616 2.6665 16C2.6665 23.3638 8.63604 29.3333 15.9998 29.3333Z" fill="#62718A"/>
</svg>
