<svg fill="none" height="32" viewBox="0 0 32 32" width="32" xmlns="http://www.w3.org/2000/svg"><path d="m8 6.66663h14.6667v18.6667h-14.6667z" fill="#1d212a"/><path d="m15.9998 2.66663c-7.35996 0-13.3333 5.97333-13.3333 13.33337 0 7.36 5.97334 13.3333 13.3333 13.3333 7.36 0 13.3334-5.9733 13.3334-13.3333 0-7.36004-5.9734-13.33337-13.3334-13.33337zm-2.6666 19.33337v-12.00004l8 6.00004z" fill="#fff"/><path clip-rule="evenodd" d="m15.9998 28.3333c6.8115 0 12.3334-5.5218 12.3334-12.3333 0-6.81155-5.5219-12.33337-12.3334-12.33337-6.81147 0-12.3333 5.52182-12.3333 12.33337 0 6.8115 5.52183 12.3333 12.3333 12.3333zm0 1c7.3638 0 13.3334-5.9695 13.3334-13.3333 0-7.36384-5.9696-13.33337-13.3334-13.33337-7.36376 0-13.3333 5.96953-13.3333 13.33337 0 7.3638 5.96954 13.3333 13.3333 13.3333z" fill="#62718a" fill-rule="evenodd"/></svg>