<svg width="672" height="188" viewBox="0 0 672 188" fill="none" xmlns="http://www.w3.org/2000/svg">
<rect width="672" height="188" rx="20" fill="#303030"/>
<path d="M40 94C40 61.9675 65.9675 36 98 36C130.033 36 156 61.9675 156 94C156 126.033 130.033 152 98 152C65.9675 152 40 126.033 40 94Z" fill="#E22440"/>
<path d="M110.354 130.195L102.143 121.984C99.8107 119.652 96.0398 119.652 93.7327 121.984L85.5211 130.195C83.1147 132.602 79.195 132.602 76.7887 130.195L72.8193 126.226L85.3971 113.648C92.3186 106.727 103.532 106.727 110.453 113.648L123.031 126.226L119.062 130.195C116.68 132.602 112.785 132.602 110.354 130.195Z" fill="white"/>
<path d="M65.7741 119.156L61.8048 115.186C59.3984 112.78 59.3984 108.86 61.8048 106.454L70.0163 98.2422C72.3483 95.9103 72.3483 92.1394 70.0163 89.8322L61.8048 81.6207C59.3984 79.2143 59.3984 75.2946 61.8048 72.8882L65.7741 68.9189L78.3519 81.4967C85.2734 88.4182 85.2734 99.6315 78.3519 106.553L65.7741 119.156Z" fill="white"/>
<path d="M98.0493 79.5368C93.5094 79.5368 88.9695 77.825 85.5211 74.3519L72.9434 61.7741L76.9127 57.8048C79.3191 55.3984 83.2388 55.3984 85.6452 57.8048L93.8567 66.0163C96.1639 68.3235 99.9595 68.3235 102.267 66.0163L110.478 57.8048C112.885 55.3984 116.804 55.3984 119.211 57.8048L123.18 61.7741L110.602 74.3519C107.129 77.7754 102.589 79.5368 98.0493 79.5368Z" fill="white"/>
<path d="M130.226 119.056L117.648 106.479C110.727 99.5571 110.727 88.3437 117.648 81.4222L130.226 68.8445L134.195 72.8138C136.602 75.2202 136.602 79.1399 134.195 81.5463L125.984 89.7578C123.652 92.0898 123.652 95.8606 125.984 98.1678L134.195 106.379C136.602 108.786 136.602 112.705 134.195 115.112L130.226 119.056Z" fill="white"/>
<path d="M179 75.3653V52.0926H187.295C189.106 52.0926 190.606 52.4221 191.795 53.0812C192.985 53.7403 193.875 54.6418 194.466 55.7858C195.057 56.9221 195.352 58.2024 195.352 59.6267C195.352 61.0585 195.053 62.3464 194.455 63.4903C193.864 64.6267 192.97 65.5282 191.773 66.1949C190.583 66.8539 189.087 67.1835 187.284 67.1835H181.58V64.2062H186.966C188.11 64.2062 189.038 64.0092 189.75 63.6153C190.462 63.2138 190.985 62.6683 191.318 61.9789C191.652 61.2895 191.818 60.5055 191.818 59.6267C191.818 58.7479 191.652 57.9676 191.318 57.2858C190.985 56.6039 190.458 56.0699 189.739 55.6835C189.027 55.2971 188.087 55.1039 186.92 55.1039H182.511V75.3653H179Z" fill="white"/>
<path d="M207.33 75.7176C205.693 75.7176 204.265 75.3426 203.045 74.5926C201.826 73.8426 200.879 72.7933 200.205 71.4449C199.53 70.0964 199.193 68.5206 199.193 66.7176C199.193 64.907 199.53 63.3236 200.205 61.9676C200.879 60.6115 201.826 59.5585 203.045 58.8085C204.265 58.0585 205.693 57.6835 207.33 57.6835C208.966 57.6835 210.394 58.0585 211.614 58.8085C212.833 59.5585 213.78 60.6115 214.455 61.9676C215.129 63.3236 215.466 64.907 215.466 66.7176C215.466 68.5206 215.129 70.0964 214.455 71.4449C213.78 72.7933 212.833 73.8426 211.614 74.5926C210.394 75.3426 208.966 75.7176 207.33 75.7176ZM207.341 72.8653C208.402 72.8653 209.28 72.585 209.977 72.0244C210.674 71.4638 211.189 70.7176 211.523 69.7858C211.864 68.8539 212.034 67.8274 212.034 66.7062C212.034 65.5926 211.864 64.5699 211.523 63.638C211.189 62.6986 210.674 61.9449 209.977 61.3767C209.28 60.8085 208.402 60.5244 207.341 60.5244C206.273 60.5244 205.386 60.8085 204.682 61.3767C203.985 61.9449 203.466 62.6986 203.125 63.638C202.792 64.5699 202.625 65.5926 202.625 66.7062C202.625 67.8274 202.792 68.8539 203.125 69.7858C203.466 70.7176 203.985 71.4638 204.682 72.0244C205.386 72.585 206.273 72.8653 207.341 72.8653Z" fill="white"/>
<path d="M223.511 75.3653L218.375 57.9108H221.886L225.307 70.7289H225.477L228.909 57.9108H232.42L235.83 70.6721H236L239.398 57.9108H242.909L237.784 75.3653H234.318L230.773 62.763H230.511L226.966 75.3653H223.511Z" fill="white"/>
<path d="M254.125 75.7176C252.405 75.7176 250.924 75.3502 249.682 74.6153C248.447 73.8729 247.492 72.8312 246.818 71.4903C246.152 70.1418 245.818 68.5623 245.818 66.7517C245.818 64.9638 246.152 63.388 246.818 62.0244C247.492 60.6608 248.432 59.5964 249.636 58.8312C250.848 58.0661 252.265 57.6835 253.886 57.6835C254.871 57.6835 255.826 57.8464 256.75 58.1721C257.674 58.4979 258.504 59.0092 259.239 59.7062C259.973 60.4032 260.553 61.3085 260.977 62.4221C261.402 63.5282 261.614 64.8729 261.614 66.4562V67.6608H247.739V65.1153H258.284C258.284 64.2214 258.102 63.4297 257.739 62.7403C257.375 62.0433 256.864 61.4941 256.205 61.0926C255.553 60.6911 254.788 60.4903 253.909 60.4903C252.955 60.4903 252.121 60.7252 251.409 61.1949C250.705 61.657 250.159 62.263 249.773 63.013C249.394 63.7555 249.205 64.5623 249.205 65.4335V67.4221C249.205 68.5888 249.409 69.5812 249.818 70.3994C250.235 71.2176 250.814 71.8426 251.557 72.2744C252.299 72.6986 253.167 72.9108 254.159 72.9108C254.803 72.9108 255.39 72.8199 255.92 72.638C256.451 72.4486 256.909 72.1683 257.295 71.7971C257.682 71.4259 257.977 70.9676 258.182 70.4221L261.398 71.0017C261.14 71.9486 260.678 72.7782 260.011 73.4903C259.352 74.1949 258.523 74.7441 257.523 75.138C256.53 75.5244 255.398 75.7176 254.125 75.7176Z" fill="white"/>
<path d="M266.384 75.3653V57.9108H269.668V60.6835H269.849C270.168 59.7441 270.728 59.0055 271.531 58.4676C272.342 57.9221 273.259 57.6494 274.281 57.6494C274.493 57.6494 274.743 57.657 275.031 57.6721C275.327 57.6873 275.558 57.7062 275.724 57.7289V60.9789C275.588 60.9411 275.346 60.8994 274.997 60.8539C274.649 60.8009 274.3 60.7744 273.952 60.7744C273.149 60.7744 272.433 60.9449 271.804 61.2858C271.183 61.6191 270.69 62.085 270.327 62.6835C269.963 63.2744 269.781 63.9486 269.781 64.7062V75.3653H266.384Z" fill="white"/>
<path d="M286.562 75.7176C284.843 75.7176 283.362 75.3502 282.119 74.6153C280.884 73.8729 279.93 72.8312 279.256 71.4903C278.589 70.1418 278.256 68.5623 278.256 66.7517C278.256 64.9638 278.589 63.388 279.256 62.0244C279.93 60.6608 280.869 59.5964 282.074 58.8312C283.286 58.0661 284.703 57.6835 286.324 57.6835C287.309 57.6835 288.263 57.8464 289.188 58.1721C290.112 58.4979 290.941 59.0092 291.676 59.7062C292.411 60.4032 292.991 61.3085 293.415 62.4221C293.839 63.5282 294.051 64.8729 294.051 66.4562V67.6608H280.176V65.1153H290.722C290.722 64.2214 290.54 63.4297 290.176 62.7403C289.813 62.0433 289.301 61.4941 288.642 61.0926C287.991 60.6911 287.225 60.4903 286.347 60.4903C285.392 60.4903 284.559 60.7252 283.847 61.1949C283.142 61.657 282.597 62.263 282.21 63.013C281.831 63.7555 281.642 64.5623 281.642 65.4335V67.4221C281.642 68.5888 281.847 69.5812 282.256 70.3994C282.672 71.2176 283.252 71.8426 283.994 72.2744C284.737 72.6986 285.604 72.9108 286.597 72.9108C287.241 72.9108 287.828 72.8199 288.358 72.638C288.888 72.4486 289.347 72.1683 289.733 71.7971C290.119 71.4259 290.415 70.9676 290.619 70.4221L293.835 71.0017C293.578 71.9486 293.116 72.7782 292.449 73.4903C291.79 74.1949 290.96 74.7441 289.96 75.138C288.968 75.5244 287.835 75.7176 286.562 75.7176Z" fill="white"/>
<path d="M305.355 75.7062C303.946 75.7062 302.688 75.3464 301.582 74.6267C300.484 73.8994 299.62 72.8653 298.991 71.5244C298.37 70.1759 298.06 68.5585 298.06 66.6721C298.06 64.7858 298.374 63.1721 299.003 61.8312C299.639 60.4903 300.51 59.4638 301.616 58.7517C302.723 58.0395 303.976 57.6835 305.378 57.6835C306.461 57.6835 307.332 57.8653 307.991 58.2289C308.658 58.585 309.173 59.0017 309.537 59.4789C309.908 59.9562 310.196 60.3767 310.401 60.7403H310.605V52.0926H314.003V75.3653H310.685V72.6494H310.401C310.196 73.0206 309.901 73.4449 309.514 73.9221C309.135 74.3994 308.613 74.8161 307.946 75.1721C307.279 75.5282 306.416 75.7062 305.355 75.7062ZM306.105 72.8085C307.082 72.8085 307.908 72.5509 308.582 72.0358C309.264 71.513 309.779 70.7895 310.128 69.8653C310.484 68.9411 310.662 67.8653 310.662 66.638C310.662 65.4259 310.488 64.3653 310.139 63.4562C309.791 62.5471 309.279 61.8388 308.605 61.3312C307.931 60.8236 307.098 60.5699 306.105 60.5699C305.082 60.5699 304.23 60.835 303.548 61.3653C302.866 61.8956 302.351 62.6191 302.003 63.5358C301.662 64.4524 301.491 65.4865 301.491 66.638C301.491 67.8047 301.666 68.8539 302.014 69.7858C302.363 70.7176 302.878 71.4562 303.56 72.0017C304.249 72.5395 305.098 72.8085 306.105 72.8085Z" fill="white"/>
<path d="M329.594 75.3653V52.0926H332.991V60.7403H333.196C333.393 60.3767 333.677 59.9562 334.048 59.4789C334.42 59.0017 334.935 58.585 335.594 58.2289C336.253 57.8653 337.124 57.6835 338.207 57.6835C339.616 57.6835 340.874 58.0395 341.98 58.7517C343.086 59.4638 343.954 60.4903 344.582 61.8312C345.219 63.1721 345.537 64.7858 345.537 66.6721C345.537 68.5585 345.223 70.1759 344.594 71.5244C343.965 72.8653 343.101 73.8994 342.003 74.6267C340.904 75.3464 339.651 75.7062 338.241 75.7062C337.181 75.7062 336.313 75.5282 335.639 75.1721C334.973 74.8161 334.45 74.3994 334.071 73.9221C333.692 73.4449 333.401 73.0206 333.196 72.6494H332.912V75.3653H329.594ZM332.923 66.638C332.923 67.8653 333.101 68.9411 333.457 69.8653C333.813 70.7895 334.329 71.513 335.003 72.0358C335.677 72.5509 336.503 72.8085 337.48 72.8085C338.495 72.8085 339.344 72.5395 340.026 72.0017C340.707 71.4562 341.223 70.7176 341.571 69.7858C341.927 68.8539 342.105 67.8047 342.105 66.638C342.105 65.4865 341.931 64.4524 341.582 63.5358C341.241 62.6191 340.726 61.8956 340.037 61.3653C339.355 60.835 338.503 60.5699 337.48 60.5699C336.495 60.5699 335.662 60.8236 334.98 61.3312C334.306 61.8388 333.794 62.5471 333.446 63.4562C333.098 64.3653 332.923 65.4259 332.923 66.638Z" fill="white"/>
<path d="M351.906 81.9108C351.399 81.9108 350.937 81.8691 350.52 81.7858C350.103 81.71 349.793 81.6267 349.588 81.5358L350.406 78.7517C351.027 78.9183 351.58 78.9903 352.065 78.9676C352.55 78.9449 352.978 78.763 353.349 78.4221C353.728 78.0812 354.062 77.5244 354.349 76.7517L354.77 75.5926L348.384 57.9108H352.02L356.44 71.4562H356.622L361.043 57.9108H364.69L357.497 77.6949C357.164 78.6039 356.74 79.3729 356.224 80.0017C355.709 80.638 355.096 81.1153 354.384 81.4335C353.671 81.7517 352.846 81.9108 351.906 81.9108Z" fill="white"/>
<path d="M187.086 101.471C187.876 101.471 188.08 101.675 188.309 101.98L198.579 115.677H198.936L208.849 102.056C209.129 101.7 209.562 101.496 210.123 101.496H216.341C216.978 101.496 217.207 102.056 216.901 102.413L202.987 119.878L218.481 139.329C218.838 139.838 218.634 140.322 217.972 140.322H211.703C211.142 140.322 210.633 140.118 210.276 139.609L198.706 124.079H198.349L187.315 139.558C186.882 140.067 186.398 140.347 185.811 140.347H179.593C179.084 140.347 178.804 139.915 179.16 139.431L194.425 120.031L180.664 102.566C180.383 102.056 180.511 101.496 181.173 101.496H187.086V101.471Z" fill="white"/>
<path d="M248.603 101.471C257.089 101.471 263.23 107.607 263.23 115.372C263.23 123.366 257.089 129.349 248.603 129.349H236.269V139.329C236.269 139.965 235.988 140.322 235.402 140.322H230.764C230.127 140.322 229.771 139.965 229.771 139.329V102.489C229.771 101.853 230.127 101.496 230.764 101.496H248.603V101.471ZM248.603 123.29C253.802 123.29 256.732 119.929 256.732 115.372C256.732 110.891 253.802 107.53 248.603 107.53H236.269V123.29H248.603Z" fill="white"/>
<path d="M276.865 131.411C279.439 131.411 281.656 133.55 281.656 136.121C281.656 138.692 279.439 140.907 276.865 140.907C274.291 140.907 272.15 138.692 272.15 136.121C272.15 133.55 274.291 131.411 276.865 131.411Z" fill="white"/>
<path d="M324.671 140.322C324.162 140.322 323.754 140.118 323.448 139.685L310.681 123.57L301.201 110.534L300.844 110.611L301.277 122.169V139.354C301.277 139.991 300.921 140.347 300.207 140.347H295.722C295.161 140.347 294.855 139.991 294.855 139.354V102.489C294.855 101.853 295.136 101.496 295.773 101.496H299.978C300.691 101.496 301.252 101.7 301.609 102.209L315.319 119.318L323.881 131.156L324.238 131.08L323.728 119.598V102.489C323.728 101.853 324.085 101.496 324.722 101.496H329.207C329.844 101.496 330.125 101.853 330.125 102.489V139.354C330.125 139.991 329.844 140.347 329.207 140.347H324.671V140.322Z" fill="white"/>
<path d="M373.473 101.471C373.983 101.471 374.467 101.904 374.467 102.464V106.537C374.467 107.046 373.957 107.454 373.473 107.454H350.92V117.077H371.46C372.097 117.077 372.454 117.434 372.454 118.07V122.144C372.454 122.78 372.097 123.06 371.46 123.06H350.92V134.263H374.187C374.824 134.263 375.104 134.543 375.104 135.128V139.329C375.104 139.965 374.824 140.322 374.187 140.322H345.365C344.728 140.322 344.447 139.965 344.447 139.329V102.489C344.447 101.853 344.728 101.496 345.365 101.496H373.473V101.471Z" fill="white"/>
<path d="M419.7 101.471C420.337 101.471 420.694 101.827 420.694 102.464V106.537C420.694 107.174 420.337 107.53 419.7 107.53H406.499V139.329C406.499 139.838 406.142 140.322 405.505 140.322H401.02C400.383 140.322 400.026 139.965 400.026 139.329V107.53H386.826C386.189 107.53 385.832 107.174 385.832 106.537V102.464C385.832 101.827 386.189 101.471 386.826 101.471H419.7Z" fill="white"/>
<path d="M436.341 101.471C436.978 101.471 437.335 101.675 437.488 102.184L446.483 132.76H446.84L455.479 102.184C455.632 101.675 455.989 101.471 456.473 101.471H461.264C461.773 101.471 462.13 101.675 462.258 102.184L471.1 132.76H471.457L480.377 102.26C480.529 101.751 480.886 101.471 481.37 101.471H486.645C487.283 101.471 487.512 101.751 487.283 102.387L475.152 139.456C474.948 140.016 474.515 140.322 473.929 140.322H468.017C467.456 140.322 467.1 140.042 466.87 139.405L459.021 112.113H458.664L450.892 139.482C450.739 140.042 450.382 140.347 449.898 140.347H443.909C443.272 140.347 442.839 140.067 442.635 139.482L430.429 102.26C430.225 101.751 430.429 101.471 431.066 101.471H436.341Z" fill="white"/>
<path d="M517.047 100.911C528.311 100.911 537.102 109.312 537.102 120.947C537.102 132.506 528.336 140.907 517.047 140.907C505.783 140.907 496.991 132.506 496.991 120.947C496.991 109.312 505.758 100.911 517.047 100.911ZM503.541 120.947C503.541 128.942 509.045 134.848 517.021 134.848C525.023 134.848 530.502 128.942 530.502 120.947C530.502 112.902 524.998 106.97 517.021 106.97C509.045 106.97 503.541 112.877 503.541 120.947Z" fill="white"/>
<path d="M568.778 101.471C577.264 101.471 583.482 107.607 583.482 115.372C583.482 120.795 580.552 125.352 576.067 127.643L582.565 139.202C582.922 139.838 582.565 140.347 581.775 140.347H576.576C575.939 140.347 575.43 139.838 575.149 139.354L569.951 129.298C569.747 129.374 569.39 129.374 568.957 129.374H556.47V139.354C556.47 139.991 556.19 140.347 555.553 140.347H551.067C550.277 140.347 549.997 139.838 549.997 139.354V102.489C549.997 101.853 550.354 101.496 550.991 101.496H568.778V101.471ZM568.778 123.29C573.977 123.29 576.984 119.929 576.984 115.372C576.984 110.891 573.977 107.53 568.778 107.53H556.444V123.29H568.778Z" fill="white"/>
<path d="M602.519 101.471C603.156 101.471 603.513 101.827 603.513 102.464V119.572L621.912 102.26C622.422 101.751 623.135 101.471 623.976 101.471H630.398C631.035 101.471 631.316 102.107 630.831 102.617L613.706 118.223L631.749 139.1C632.258 139.609 631.953 140.322 631.188 140.322H625.48C624.613 140.322 623.9 140.042 623.339 139.405L608.992 122.449L603.488 126.879V139.354C603.488 139.991 603.131 140.347 602.494 140.347H598.009C597.371 140.347 597.015 139.991 597.015 139.354V102.489C597.015 101.853 597.371 101.496 598.009 101.496H602.519V101.471Z" fill="white"/>
</svg>
