<?xml version="1.0" standalone="no"?>
<!DOCTYPE svg PUBLIC "-//W3C//DTD SVG 20010904//EN"
 "http://www.w3.org/TR/2001/REC-SVG-20010904/DTD/svg10.dtd">
<svg version="1.0"
  xmlns="http://www.w3.org/2000/svg" width="18" height="18" viewBox="0 0 512.000000 512.000000" preserveAspectRatio="xMidYMid meet">

  <g transform="translate(0.000000,512.000000) scale(0.100000,-0.100000)" fill="#000000" stroke="none">
    <path d="M2513 4995 c-67 -29 -63 54 -63 -1287 l0 -1213 -132 132 c-139 137
-160 153 -203 153 -89 0 -140 -104 -87 -177 11 -15 123 -130 249 -254 233
-231 248 -243 311 -231 19 3 97 74 255 231 126 124 238 239 249 254 53 73 2
177 -87 177 -43 0 -64 -16 -202 -153 l-133 -132 0 1213 c0 1345 4 1259 -65
1288 -42 17 -51 17 -92 -1z"/>
    <path d="M1589 4110 c-225 -27 -422 -123 -585 -285 -80 -79 -121 -134 -326
-445 -493 -748 -579 -881 -609 -947 -65 -145 -63 -109 -66 -993 -3 -559 -1
-825 7 -870 34 -199 183 -366 390 -436 53 -18 129 -19 2160 -19 2031 0 2107 1
2160 19 158 53 273 152 339 289 22 45 45 111 51 147 8 45 10 315 8 880 -4 814
-4 815 -26 889 -13 41 -35 99 -49 130 -15 31 -223 351 -463 711 -373 558 -447
665 -507 721 -128 120 -270 187 -443 209 -59 7 -202 10 -377 8 -267 -3 -283
-4 -310 -24 -31 -23 -52 -74 -45 -111 2 -13 17 -37 33 -52 l29 -29 332 -5
c364 -4 398 -9 508 -68 121 -64 135 -83 580 -749 230 -344 432 -651 449 -682
l32 -56 -308 -4 c-334 -5 -353 -8 -473 -68 -111 -56 -214 -173 -260 -298 -12
-30 -27 -108 -35 -172 -20 -174 -73 -261 -195 -319 l-55 -26 -975 0 -975 0
-55 26 c-122 58 -175 145 -195 319 -8 64 -23 142 -35 172 -46 125 -149 242
-260 298 -119 60 -139 63 -467 68 l-303 4 17 31 c24 48 759 1163 811 1230 93
121 255 226 417 268 69 18 119 22 363 26 l283 6 28 28 c16 15 31 39 33 52 7
37 -14 88 -45 111 -27 20 -42 21 -275 22 -136 1 -277 -2 -313 -6z m-665 -2030
c113 -58 173 -155 188 -304 26 -271 165 -454 403 -529 l70 -22 975 0 975 0 70
22 c238 75 377 258 403 529 15 149 75 246 188 304 49 25 50 25 377 28 l328 3
-3 -758 -3 -758 -29 -62 c-49 -106 -139 -173 -257 -193 -89 -14 -4009 -14
-4098 0 -118 20 -208 87 -257 193 l-29 62 -3 758 -3 758 328 -3 c327 -3 328
-3 377 -28z"/>
  </g>
</svg>
