<svg width="46" height="46" viewBox="0 0 46 46" fill="none" xmlns="http://www.w3.org/2000/svg">
<g filter="url(#filter0_d_91_75)">
<path d="M5 21C5 11.0589 13.0589 3 23 3C32.9411 3 41 11.0589 41 21C41 30.9411 32.9411 39 23 39C13.0589 39 5 30.9411 5 21Z" fill="white"/>
<path fill-rule="evenodd" clip-rule="evenodd" d="M30.6025 26.0799C31.6072 24.5764 32.1435 22.8088 32.1436 21.0006C32.1437 19.7998 31.9072 18.6108 31.4478 17.5015C30.9883 16.3921 30.3148 15.3841 29.4657 14.5351C28.6167 13.686 27.6087 13.0125 26.4993 12.553C25.39 12.0936 24.201 11.8571 23.0002 11.8572C21.192 11.8573 19.4244 12.3936 17.9209 13.3982C16.4175 14.4029 15.2457 15.8308 14.5538 17.5015C13.8618 19.1721 13.6808 21.0104 14.0336 22.7838C14.3864 24.5573 15.2572 26.1864 16.5358 27.465C17.8144 28.7436 19.4435 29.6144 21.217 29.9672C22.9904 30.32 24.8287 30.139 26.4993 29.447C28.17 28.7551 29.5979 27.5833 30.6025 26.0799ZM28.8686 20.2675C29.013 20.4854 29.0901 20.7409 29.0904 21.0023C29.0902 21.2602 29.0152 21.5125 28.8744 21.7287C28.7337 21.9449 28.5332 22.1156 28.2973 22.2202C28.3178 22.3527 28.3282 22.4867 28.3284 22.6208C28.3284 24.672 25.9403 26.3354 22.995 26.3354C20.0496 26.3354 17.6615 24.672 17.6615 22.6208C17.6619 22.4858 17.6726 22.351 17.6937 22.2176C17.5161 22.1383 17.358 22.0211 17.2306 21.8743C17.1031 21.7274 17.0093 21.5545 16.9557 21.3675C16.9022 21.1806 16.8902 20.9842 16.9206 20.7921C16.9511 20.6001 17.0231 20.417 17.1318 20.2557C17.2405 20.0945 17.3832 19.959 17.5498 19.8587C17.7164 19.7584 17.903 19.6959 18.0963 19.6753C18.2897 19.6548 18.4852 19.6769 18.6692 19.74C18.8531 19.803 19.0211 19.9056 19.1612 20.0404C20.0838 19.3775 21.3601 18.9503 22.7793 18.9109L23.4573 15.7225C23.4639 15.6919 23.4764 15.6628 23.4942 15.637C23.512 15.6112 23.5347 15.5892 23.561 15.5722C23.5871 15.555 23.6164 15.5432 23.6471 15.5375C23.6778 15.5318 23.7093 15.5323 23.7398 15.539L25.9558 16.0097C26.0586 15.8015 26.2337 15.6379 26.4484 15.5496C26.6632 15.4614 26.9027 15.4544 27.1222 15.5301C27.3416 15.6058 27.526 15.759 27.6406 15.9609C27.7552 16.1628 27.7922 16.3995 27.7448 16.6268C27.6973 16.8541 27.5686 17.0562 27.3827 17.1953C27.1969 17.3344 26.9667 17.401 26.7352 17.3825C26.5038 17.3641 26.2871 17.2618 26.1256 17.095C25.9642 16.9281 25.8692 16.7081 25.8584 16.4762L23.8741 16.0543L23.2666 18.9141C24.6651 18.9628 25.9206 19.3878 26.8324 20.0456C27.0204 19.8639 27.2577 19.7416 27.5148 19.6938C27.7718 19.646 28.0373 19.675 28.278 19.777C28.5187 19.879 28.7241 20.0496 28.8686 20.2675ZM29.0904 21.0023C29.0904 21.0024 29.0904 21.0025 29.0904 21.0025V21.002C29.0904 21.0021 29.0904 21.0022 29.0904 21.0023ZM20.1095 21.4258C20.0049 21.5824 19.9491 21.7664 19.9491 21.9548C19.9495 22.2073 20.05 22.4493 20.2286 22.6278C20.4072 22.8063 20.6493 22.9067 20.9018 22.907C21.0901 22.9069 21.2742 22.8509 21.4307 22.7463C21.5872 22.6416 21.7092 22.4928 21.7812 22.3188C21.8532 22.1448 21.872 21.9533 21.8352 21.7687C21.7984 21.584 21.7076 21.4144 21.5744 21.2812C21.4413 21.1481 21.2716 21.0575 21.0869 21.0208C20.9022 20.9841 20.7107 21.003 20.5368 21.0751C20.3628 21.1471 20.2141 21.2692 20.1095 21.4258ZM22.9981 25.1707C23.364 25.1707 24.6097 25.1204 25.2597 24.4714C25.2835 24.4487 25.3025 24.4215 25.3156 24.3914C25.3287 24.3613 25.3357 24.3288 25.3361 24.296C25.3365 24.2631 25.3304 24.2305 25.318 24.2C25.3056 24.1696 25.2873 24.1419 25.2641 24.1186C25.2409 24.0954 25.2133 24.077 25.1829 24.0645C25.1525 24.0521 25.1199 24.0458 25.087 24.0461C25.0542 24.0464 25.0217 24.0533 24.9915 24.0663C24.9614 24.0794 24.9341 24.0983 24.9113 24.122C24.5013 24.532 23.6243 24.6772 22.9981 24.6772C22.3719 24.6772 21.4953 24.532 21.0858 24.122C21.0629 24.0991 21.0357 24.0809 21.0058 24.0685C20.9758 24.056 20.9438 24.0496 20.9113 24.0496C20.8789 24.0496 20.8468 24.0559 20.8168 24.0683C20.7869 24.0807 20.7597 24.0989 20.7367 24.1218C20.7138 24.1447 20.6956 24.1719 20.6831 24.2018C20.6707 24.2318 20.6643 24.2639 20.6643 24.2963C20.6643 24.3287 20.6706 24.3608 20.683 24.3908C20.6954 24.4207 20.7136 24.4479 20.7365 24.4709C21.386 25.1188 22.6321 25.1707 22.9981 25.1707ZM24.5632 22.7465C24.7198 22.8511 24.9039 22.907 25.0923 22.907C25.3447 22.9067 25.5868 22.8063 25.7653 22.6278C25.9438 22.4493 26.0442 22.2072 26.0445 21.9548C26.0445 21.7664 25.9886 21.5823 25.884 21.4257C25.7794 21.2691 25.6307 21.1471 25.4567 21.075C25.2827 21.0029 25.0912 20.9841 24.9065 21.0208C24.7218 21.0576 24.5521 21.1483 24.4189 21.2814C24.2858 21.4146 24.1951 21.5843 24.1583 21.769C24.1216 21.9537 24.1404 22.1452 24.2125 22.3192C24.2846 22.4932 24.4066 22.6419 24.5632 22.7465Z" fill="#395FEB"/>
<path d="M23 38C13.6112 38 6 30.3888 6 21H4C4 31.4934 12.5066 40 23 40V38ZM40 21C40 30.3888 32.3888 38 23 38V40C33.4934 40 42 31.4934 42 21H40ZM23 4C32.3888 4 40 11.6112 40 21H42C42 10.5066 33.4934 2 23 2V4ZM23 2C12.5066 2 4 10.5066 4 21H6C6 11.6112 13.6112 4 23 4V2Z" fill="white"/>
</g>
<defs>
<filter id="filter0_d_91_75" x="0.428572" y="0.714286" width="45.1429" height="45.1429" filterUnits="userSpaceOnUse" color-interpolation-filters="sRGB">
<feFlood flood-opacity="0" result="BackgroundImageFix"/>
<feColorMatrix in="SourceAlpha" type="matrix" values="0 0 0 0 0 0 0 0 0 0 0 0 0 0 0 0 0 0 127 0" result="hardAlpha"/>
<feOffset dy="2.28571"/>
<feGaussianBlur stdDeviation="2.28571"/>
<feComposite in2="hardAlpha" operator="out"/>
<feColorMatrix type="matrix" values="0 0 0 0 0.705882 0 0 0 0 0.72549 0 0 0 0 0.780392 0 0 0 0.25 0"/>
<feBlend mode="normal" in2="BackgroundImageFix" result="effect1_dropShadow_91_75"/>
<feBlend mode="normal" in="SourceGraphic" in2="effect1_dropShadow_91_75" result="shape"/>
</filter>
</defs>
</svg>
