<svg width="21" height="20" viewBox="0 0 21 20" fill="none" xmlns="http://www.w3.org/2000/svg">
<path d="M10.7464 1.66669C6.14642 1.66669 2.41309 5.40002 2.41309 10C2.41309 14.6 6.14642 18.3334 10.7464 18.3334C15.3464 18.3334 19.0798 14.6 19.0798 10C19.0798 5.40002 15.3464 1.66669 10.7464 1.66669ZM11.5048 15.125C11.4465 15.1821 11.3728 15.2209 11.2927 15.2365C11.2127 15.2521 11.1298 15.2438 11.0544 15.2128C10.979 15.1817 10.9143 15.1292 10.8685 15.0618C10.8226 14.9943 10.7976 14.9149 10.7964 14.8334V14.1667H10.7464C9.67975 14.1667 8.61309 13.7584 7.79642 12.95C7.23061 12.3828 6.84012 11.6647 6.67165 10.8814C6.50318 10.0982 6.56386 9.28302 6.84642 8.53335C7.00475 8.10835 7.56309 8.00002 7.87975 8.32502C8.06309 8.50835 8.10475 8.77502 8.02142 9.00835C7.63809 10.0417 7.85475 11.2417 8.68809 12.075C9.27142 12.6584 10.0381 12.9334 10.8048 12.9167V12.1334C10.8048 11.7584 11.2548 11.575 11.5131 11.8417L12.8631 13.1917C13.0298 13.3584 13.0298 13.6167 12.8631 13.7834L11.5048 15.125ZM13.6131 11.6834C13.5269 11.5947 13.4679 11.4833 13.4428 11.3623C13.4177 11.2413 13.4276 11.1156 13.4714 11C13.8548 9.96669 13.6381 8.76669 12.8048 7.93335C12.2214 7.35002 11.4548 7.06669 10.6964 7.08335V7.86669C10.6964 8.24169 10.2464 8.42502 9.98809 8.15835L8.62975 6.81669C8.46309 6.65002 8.46309 6.39169 8.62975 6.22502L9.97975 4.87502C10.038 4.81792 10.1117 4.77917 10.1918 4.76357C10.2718 4.74797 10.3547 4.7562 10.4301 4.78726C10.5055 4.81831 10.5702 4.87082 10.616 4.93826C10.6619 5.00571 10.6869 5.08513 10.6881 5.16669V5.84169C11.7714 5.82502 12.8631 6.21669 13.6881 7.05002C14.2539 7.61721 14.6444 8.33535 14.8129 9.11859C14.9813 9.90183 14.9206 10.717 14.6381 11.4667C14.4798 11.9 13.9298 12.0084 13.6131 11.6834Z" fill="white"/>
</svg>
