<svg width="12" height="14" viewBox="0 0 12 14" fill="none" xmlns="http://www.w3.org/2000/svg">
<path d="M6.97321 13.4801C7.07719 13.46 7.17295 13.4102 7.24859 13.3368L9.01297 11.6111C9.22946 11.3967 9.22946 11.0645 9.01297 10.8501L7.25942 9.11374C6.92386 8.77076 6.33934 9.00656 6.33934 9.48888V10.4964C5.3435 10.5178 4.34765 10.1641 3.58995 9.41386C2.50751 8.34203 2.22607 6.79859 2.72399 5.46952C2.83224 5.16941 2.77812 4.82642 2.53998 4.59062C2.12865 4.17261 1.40342 4.31195 1.19776 4.85858C0.830727 5.8228 0.751917 6.87129 0.970747 7.87869C1.18958 8.88609 1.69679 9.80976 2.43174 10.5393C3.49253 11.579 4.87805 12.1041 6.26357 12.1041H6.32852V12.9616C6.33001 13.0665 6.36255 13.1687 6.42212 13.2554C6.48169 13.3422 6.56565 13.4097 6.66362 13.4496C6.76158 13.4896 6.86922 13.5002 6.97321 13.4801Z" fill="#297EFF"/>
<path d="M9.76594 8.49717C9.79853 8.65284 9.87527 8.79608 9.98716 8.9101C10.3985 9.32811 11.1129 9.18877 11.3186 8.63142C11.6856 7.6672 11.7644 6.61871 11.5456 5.61131C11.3267 4.60391 10.8195 3.68024 10.0846 2.95072C9.01297 1.87889 7.59497 1.37513 6.1878 1.39657V0.528387C6.18631 0.423495 6.15377 0.321341 6.0942 0.234591C6.03464 0.14784 5.95067 0.0803083 5.8527 0.0403666C5.75474 0.000424796 5.6471 -0.0101703 5.54311 0.00989538C5.43913 0.029961 5.34338 0.0798046 5.26773 0.153247L3.51418 1.88961C3.29769 2.10398 3.29769 2.43624 3.51418 2.65061L5.27855 4.37626C5.61411 4.71924 6.19863 4.48344 6.19863 4.00112V2.9936C7.18365 2.97216 8.17949 3.33658 8.9372 4.08686C10.0196 5.15869 10.3011 6.70213 9.80315 8.0312C9.74626 8.17986 9.73335 8.3415 9.76594 8.49717Z" fill="#297EFF"/>
</svg>
