<svg width="16" height="16" viewBox="0 0 16 16" fill="none" xmlns="http://www.w3.org/2000/svg">
<path d="M13.3337 8.00004C13.3337 7.26471 12.7357 6.66671 12.0003 6.66671H11.3337V4.66671C11.3337 2.82871 9.83833 1.33337 8.00033 1.33337C6.16233 1.33337 4.66699 2.82871 4.66699 4.66671V6.66671H4.00033C3.26499 6.66671 2.66699 7.26471 2.66699 8.00004V13.3334C2.66699 14.0687 3.26499 14.6667 4.00033 14.6667H12.0003C12.7357 14.6667 13.3337 14.0687 13.3337 13.3334V8.00004ZM6.00033 4.66671C6.00033 3.56404 6.89766 2.66671 8.00033 2.66671C9.10299 2.66671 10.0003 3.56404 10.0003 4.66671V6.66671H6.00033V4.66671Z" fill="#62718A"/>
</svg>
