<svg width="30" height="30" viewBox="0 0 30 30" fill="none" xmlns="http://www.w3.org/2000/svg" version="1.1">
<path d="M0.25 22.1538C0.25 26.0942 3.44428 29.2885 7.38461 29.2885H22.1538C26.0942 29.2885 29.2885 26.0942 29.2885 22.1538V7.38461C29.2885 3.44427 26.0942 0.249996 22.1538 0.249996H7.38461C3.44428 0.249996 0.25 3.44427 0.25 7.38461V22.1538Z" fill="#2C3240" stroke="url(#paint0_linear_1766_4428)" stroke-width="0.5"/>
<path d="M14.1464 17.1252C14.2459 17.2247 14.3018 17.3597 14.3018 17.5005C14.3018 17.6413 14.2459 17.7763 14.1464 17.8758L12.0233 19.9989C12.0208 20.0014 12.018 20.0035 12.0155 20.006C12.0056 20.0157 11.9952 20.025 11.9846 20.0339C11.9777 20.0395 11.9706 20.0445 11.9635 20.0496C11.9567 20.0548 11.95 20.0601 11.9429 20.0648C11.9349 20.0701 11.9265 20.0749 11.9183 20.0798C11.9117 20.0837 11.9052 20.0879 11.8984 20.0916C11.8901 20.096 11.8817 20.0997 11.8732 20.1037C11.8659 20.1071 11.8587 20.1107 11.8512 20.1139C11.8431 20.1172 11.8349 20.1199 11.8267 20.1228C11.8185 20.1257 11.8105 20.1289 11.8022 20.1314C11.794 20.1339 11.7857 20.1357 11.7774 20.1378C11.7689 20.1399 11.7605 20.1423 11.7518 20.1441C11.7423 20.1459 11.7328 20.147 11.7233 20.1484C11.7157 20.1495 11.7081 20.151 11.7004 20.1517C11.6656 20.1551 11.6304 20.1551 11.5956 20.1517C11.5879 20.151 11.5803 20.1495 11.5727 20.1484C11.5632 20.147 11.5537 20.1459 11.5442 20.1441C11.5356 20.1423 11.5271 20.1399 11.5186 20.1378C11.5103 20.1358 11.502 20.1339 11.4938 20.1314C11.4855 20.1289 11.4775 20.1257 11.4693 20.1228C11.4611 20.1199 11.4529 20.1172 11.4448 20.1139C11.4373 20.1107 11.4301 20.1071 11.4228 20.1037C11.4143 20.0997 11.4059 20.096 11.3977 20.0916C11.3908 20.0879 11.3844 20.0837 11.3778 20.0798C11.3695 20.0749 11.3612 20.0702 11.3531 20.0648C11.346 20.0601 11.3393 20.0548 11.3325 20.0496C11.3254 20.0444 11.3183 20.0395 11.3114 20.0339C11.3008 20.025 11.2904 20.0157 11.2805 20.006C11.278 20.0035 11.2752 20.0013 11.2727 19.9989L9.1496 17.8758C9.10032 17.8265 9.06122 17.768 9.03454 17.7036C9.00787 17.6392 8.99414 17.5702 8.99414 17.5005C8.99414 17.4308 9.00787 17.3618 9.03454 17.2974C9.06122 17.233 9.10032 17.1745 9.1496 17.1252C9.24914 17.0256 9.38415 16.9697 9.52492 16.9697C9.59463 16.9697 9.66365 16.9834 9.72805 17.0101C9.79244 17.0368 9.85096 17.0759 9.90024 17.1252L11.1172 18.3422V9.00819C11.1172 8.86742 11.1732 8.73241 11.2727 8.63288C11.3722 8.53334 11.5072 8.47742 11.648 8.47742C11.7888 8.47742 11.9238 8.53334 12.0233 8.63288C12.1228 8.73241 12.1788 8.86742 12.1788 9.00819V18.3422L13.3958 17.1252C13.4953 17.0256 13.6303 16.9697 13.7711 16.9697C13.9118 16.9697 14.0468 17.0256 14.1464 17.1252ZM22.5156 10.7559L20.3925 8.63287C20.3902 8.63054 20.3877 8.62862 20.3853 8.62636C20.3752 8.61645 20.3647 8.60693 20.3538 8.59784C20.347 8.59226 20.3399 8.58742 20.3329 8.58224C20.3259 8.57707 20.3192 8.57169 20.3121 8.56698C20.3041 8.56161 20.2959 8.55703 20.2877 8.55212C20.281 8.54814 20.2745 8.5439 20.2676 8.54018C20.2594 8.5358 20.251 8.53215 20.2427 8.52824C20.2353 8.52472 20.228 8.52101 20.2204 8.51789C20.2124 8.51457 20.2043 8.51192 20.1962 8.50906C20.1879 8.50608 20.1798 8.50289 20.1714 8.50031C20.1633 8.49792 20.1551 8.49606 20.1469 8.494C20.1382 8.49188 20.1298 8.48943 20.121 8.4877C20.1116 8.48584 20.1022 8.48472 20.0927 8.48339C20.085 8.48233 20.0775 8.4808 20.0696 8.48007C20.0348 8.47663 19.9997 8.47663 19.9648 8.48007C19.9571 8.4808 19.9494 8.48233 19.9417 8.48339C19.9323 8.48472 19.9228 8.48584 19.9135 8.4877C19.9047 8.48943 19.8962 8.49188 19.8876 8.494C19.8794 8.49606 19.8712 8.49792 19.863 8.50031C19.8547 8.50289 19.8465 8.50608 19.8383 8.50906C19.8302 8.51192 19.822 8.51457 19.8141 8.51789C19.8064 8.52101 19.7991 8.52472 19.7917 8.52824C19.7834 8.53215 19.7751 8.5358 19.7669 8.54018C19.76 8.5439 19.7535 8.54814 19.7467 8.55212C19.7386 8.55697 19.7303 8.56161 19.7224 8.56692C19.7152 8.57169 19.7085 8.57707 19.7016 8.58218C19.6946 8.58742 19.6874 8.59226 19.6807 8.59784C19.6698 8.60693 19.6593 8.61645 19.6491 8.62636C19.6468 8.62862 19.6442 8.63054 19.6418 8.63287L17.5188 10.7559C17.4192 10.8555 17.3633 10.9905 17.3633 11.1313C17.3633 11.2721 17.4192 11.4071 17.5188 11.5066C17.6183 11.6062 17.7534 11.6621 17.8941 11.6621C18.0349 11.6621 18.1699 11.6061 18.2695 11.5066L19.4865 10.2896V19.6236C19.4865 19.7643 19.5424 19.8993 19.6419 19.9989C19.7415 20.0984 19.8765 20.1543 20.0172 20.1543C20.158 20.1543 20.293 20.0984 20.3925 19.9989C20.4921 19.8993 20.548 19.7643 20.548 19.6236V10.2896L21.765 11.5066C21.8645 11.6061 21.9995 11.662 22.1403 11.662C22.2811 11.662 22.4161 11.6061 22.5156 11.5066C22.6152 11.407 22.6711 11.272 22.6711 11.1313C22.6711 10.9905 22.6152 10.8555 22.5156 10.7559Z" fill="#1D212A"/>
<path d="M13.4501 17.429C13.5496 17.5286 13.6055 17.6636 13.6055 17.8043C13.6055 17.9451 13.5496 18.0801 13.4501 18.1796L11.327 20.3027C11.3245 20.3052 11.3217 20.3074 11.3192 20.3098C11.3093 20.3195 11.299 20.3288 11.2883 20.3377C11.2815 20.3433 11.2744 20.3483 11.2673 20.3535C11.2604 20.3586 11.2537 20.3639 11.2466 20.3687C11.2386 20.374 11.2302 20.3787 11.222 20.3836C11.2154 20.3876 11.2089 20.3918 11.2021 20.3954C11.1938 20.3998 11.1854 20.4035 11.177 20.4075C11.1697 20.4109 11.1624 20.4146 11.1549 20.4177C11.1468 20.421 11.1386 20.4237 11.1304 20.4267C11.1222 20.4296 11.1142 20.4327 11.1059 20.4353C11.0977 20.4377 11.0894 20.4395 11.0811 20.4416C11.0726 20.4438 11.0642 20.4462 11.0555 20.4479C11.0461 20.4497 11.0365 20.4509 11.027 20.4522C11.0194 20.4533 11.0118 20.4548 11.0041 20.4555C10.9693 20.459 10.9342 20.459 10.8993 20.4555C10.8916 20.4548 10.884 20.4533 10.8764 20.4522C10.8669 20.4509 10.8574 20.4497 10.8479 20.4479C10.8393 20.4462 10.8308 20.4438 10.8223 20.4416C10.814 20.4396 10.8057 20.4377 10.7975 20.4352C10.7892 20.4327 10.7812 20.4296 10.773 20.4267C10.7648 20.4237 10.7566 20.421 10.7485 20.4177C10.741 20.4146 10.7338 20.4109 10.7265 20.4075C10.718 20.4035 10.7096 20.3998 10.7014 20.3954C10.6946 20.3918 10.6881 20.3876 10.6815 20.3836C10.6732 20.3787 10.6649 20.374 10.6568 20.3687C10.6497 20.3639 10.643 20.3586 10.6362 20.3534C10.6291 20.3482 10.622 20.3433 10.6151 20.3378C10.6045 20.3289 10.5942 20.3195 10.5842 20.3098C10.5817 20.3074 10.5789 20.3052 10.5764 20.3027L8.45331 18.1796C8.40403 18.1304 8.36493 18.0718 8.33825 18.0074C8.31158 17.9431 8.29785 17.874 8.29785 17.8043C8.29785 17.7346 8.31158 17.6656 8.33825 17.6012C8.36493 17.5368 8.40403 17.4783 8.45331 17.429C8.55286 17.3295 8.68786 17.2735 8.82863 17.2735C8.89834 17.2735 8.96736 17.2873 9.03176 17.3139C9.09615 17.3406 9.15467 17.3797 9.20395 17.429L10.4209 18.646V9.31202C10.4209 9.17125 10.4769 9.03625 10.5764 8.93671C10.6759 8.83717 10.8109 8.78125 10.9517 8.78125C11.0925 8.78125 11.2275 8.83717 11.327 8.93671C11.4266 9.03625 11.4825 9.17125 11.4825 9.31202V18.646L12.6995 17.429C12.799 17.3295 12.934 17.2736 13.0748 17.2736C13.2156 17.2736 13.3506 17.3295 13.4501 17.429ZM21.8193 11.0598L19.6963 8.9367C19.6939 8.93438 19.6914 8.93245 19.689 8.9302C19.6789 8.92028 19.6684 8.91076 19.6575 8.90167C19.6507 8.8961 19.6436 8.89125 19.6366 8.88608C19.6296 8.8809 19.6229 8.87553 19.6158 8.87082C19.6078 8.86544 19.5996 8.86087 19.5914 8.85596C19.5847 8.85197 19.5782 8.84773 19.5713 8.84401C19.5631 8.83963 19.5547 8.83599 19.5465 8.83207C19.539 8.82855 19.5317 8.82484 19.5241 8.82172C19.5161 8.8184 19.508 8.81575 19.4999 8.8129C19.4916 8.80991 19.4835 8.80673 19.4751 8.80414C19.467 8.80175 19.4588 8.79989 19.4506 8.79784C19.442 8.79571 19.4335 8.79326 19.4247 8.79153C19.4154 8.78968 19.4059 8.78855 19.3964 8.78722C19.3887 8.78616 19.3812 8.78463 19.3734 8.7839C19.3385 8.78047 19.3034 8.78047 19.2685 8.7839C19.2608 8.78463 19.2531 8.78616 19.2454 8.78722C19.236 8.78855 19.2265 8.78968 19.2172 8.79153C19.2084 8.79326 19.1999 8.79571 19.1913 8.79784C19.1831 8.79989 19.1749 8.80175 19.1668 8.80414C19.1584 8.80673 19.1502 8.80991 19.142 8.8129C19.1339 8.81575 19.1257 8.8184 19.1178 8.82172C19.1102 8.82484 19.1029 8.82855 19.0954 8.83207C19.0871 8.83599 19.0788 8.83963 19.0706 8.84401C19.0637 8.84773 19.0572 8.85197 19.0504 8.85596C19.0423 8.8608 19.0341 8.86544 19.0261 8.87075C19.0189 8.87553 19.0122 8.8809 19.0053 8.88601C18.9983 8.89125 18.9911 8.8961 18.9844 8.90167C18.9735 8.91077 18.963 8.92028 18.9529 8.9302C18.9505 8.93245 18.9479 8.93438 18.9456 8.9367L16.8225 11.0598C16.7229 11.1593 16.667 11.2943 16.667 11.4351C16.667 11.5759 16.723 11.7109 16.8225 11.8104C16.9221 11.91 17.0571 11.9659 17.1979 11.9659C17.3386 11.9659 17.4736 11.91 17.5732 11.8104L18.7902 10.5934V19.9274C18.7902 20.0682 18.8461 20.2032 18.9456 20.3027C19.0452 20.4023 19.1802 20.4582 19.3209 20.4582C19.4617 20.4582 19.5967 20.4023 19.6963 20.3027C19.7958 20.2032 19.8517 20.0682 19.8517 19.9274V10.5934L21.0687 11.8104C21.1682 11.91 21.3032 11.9659 21.444 11.9659C21.5848 11.9659 21.7198 11.91 21.8193 11.8104C21.9189 11.7109 21.9748 11.5759 21.9748 11.4351C21.9748 11.2943 21.9189 11.1593 21.8193 11.0598Z" fill="white"/>
<defs>
<linearGradient id="paint0_linear_1766_4428" x1="14.7692" y1="29.5385" x2="14.7692" y2="-3.8147e-06" gradientUnits="userSpaceOnUse">
<stop stop-color="#242A38"/>
<stop offset="1" stop-color="#3D4351"/>
</linearGradient>
</defs>
</svg>
