<svg width="30" height="30" viewBox="0 0 38 38" fill="none" xmlns="http://www.w3.org/2000/svg" version="1.1">
<path d="M9.99996 37.5621C4.75328 37.5621 0.5 33.3089 0.5 28.0622V10.0622C0.5 4.81556 4.75328 0.562279 9.99996 0.562279H27.9999C33.2466 0.562279 37.4999 4.81556 37.4999 10.0622V28.0622C37.4999 33.3089 33.2466 37.5621 27.9999 37.5621H9.99996Z" fill="#3E64ED" stroke="url(#paint0_linear_2579_79)"/>
<path d="M18.0654 22.3876C18.1867 22.5089 18.2549 22.6734 18.2549 22.845C18.2549 23.0165 18.1867 23.1811 18.0654 23.3024L15.4779 25.8899C15.4749 25.893 15.4715 25.8955 15.4684 25.8985C15.4563 25.9104 15.4437 25.9217 15.4307 25.9325C15.4224 25.9394 15.4137 25.9454 15.4051 25.9517C15.3967 25.958 15.3886 25.9644 15.3799 25.9703C15.3701 25.9767 15.36 25.9825 15.3499 25.9885C15.3418 25.9933 15.3339 25.9984 15.3257 26.0028C15.3156 26.0082 15.3053 26.0127 15.295 26.0176C15.2861 26.0218 15.2773 26.0262 15.2682 26.03C15.2583 26.0341 15.2483 26.0374 15.2383 26.0409C15.2283 26.0445 15.2185 26.0483 15.2084 26.0514C15.1985 26.0544 15.1883 26.0566 15.1782 26.0591C15.1678 26.0618 15.1576 26.0647 15.147 26.0668C15.1355 26.0691 15.1238 26.0704 15.1123 26.0721C15.103 26.0734 15.0938 26.0752 15.0844 26.0761C15.0419 26.0803 14.9991 26.0803 14.9566 26.0761C14.9473 26.0752 14.938 26.0734 14.9287 26.0721C14.9172 26.0704 14.9055 26.0691 14.894 26.0668C14.8835 26.0647 14.8732 26.0618 14.8628 26.0591C14.8527 26.0567 14.8426 26.0544 14.8326 26.0514C14.8225 26.0483 14.8127 26.0445 14.8028 26.0409C14.7927 26.0374 14.7827 26.0341 14.7728 26.03C14.7637 26.0262 14.7549 26.0218 14.746 26.0176C14.7357 26.0127 14.7255 26.0082 14.7154 26.0028C14.7071 25.9984 14.6993 25.9933 14.6912 25.9885C14.6811 25.9825 14.671 25.9768 14.6611 25.9703C14.6524 25.9644 14.6443 25.958 14.636 25.9517C14.6274 25.9454 14.6186 25.9394 14.6103 25.9326C14.5973 25.9217 14.5847 25.9104 14.5726 25.8985C14.5696 25.8955 14.5662 25.8929 14.5631 25.8899L11.9756 23.3024C11.9155 23.2423 11.8679 23.171 11.8354 23.0925C11.8029 23.014 11.7861 22.9299 11.7861 22.845C11.7861 22.76 11.8029 22.6759 11.8354 22.5974C11.8679 22.5189 11.9155 22.4476 11.9756 22.3876C12.0969 22.2662 12.2615 22.1981 12.433 22.1981C12.518 22.1981 12.6021 22.2148 12.6806 22.2473C12.7591 22.2798 12.8304 22.3275 12.8904 22.3876L14.3736 23.8708V12.495C14.3736 12.3235 14.4418 12.1589 14.5631 12.0376C14.6844 11.9163 14.849 11.8481 15.0205 11.8481C15.1921 11.8481 15.3566 11.9163 15.4779 12.0376C15.5992 12.1589 15.6674 12.3235 15.6674 12.495V23.8708L17.1506 22.3876C17.2719 22.2663 17.4364 22.1981 17.608 22.1981C17.7796 22.1981 17.9441 22.2663 18.0654 22.3876ZM28.2654 14.6251L25.6779 12.0376C25.6751 12.0348 25.672 12.0324 25.6691 12.0297C25.6567 12.0176 25.6439 12.006 25.6307 11.9949C25.6224 11.9881 25.6137 11.9822 25.6052 11.9759C25.5967 11.9696 25.5885 11.963 25.5798 11.9573C25.5701 11.9508 25.5601 11.9452 25.5501 11.9392C25.542 11.9343 25.534 11.9292 25.5256 11.9246C25.5156 11.9193 25.5054 11.9149 25.4953 11.9101C25.4863 11.9058 25.4774 11.9013 25.4681 11.8975C25.4584 11.8934 25.4484 11.8902 25.4385 11.8867C25.4285 11.8831 25.4186 11.8792 25.4083 11.876C25.3984 11.8731 25.3885 11.8709 25.3785 11.8684C25.368 11.8658 25.3576 11.8628 25.3469 11.8607C25.3355 11.8584 25.324 11.857 25.3125 11.8554C25.3031 11.8541 25.2939 11.8523 25.2844 11.8514C25.2419 11.8472 25.1991 11.8472 25.1566 11.8514C25.1471 11.8523 25.1378 11.8541 25.1285 11.8554C25.117 11.857 25.1054 11.8584 25.0941 11.8607C25.0833 11.8628 25.073 11.8658 25.0625 11.8684C25.0524 11.8709 25.0425 11.8731 25.0326 11.876C25.0224 11.8792 25.0123 11.8831 25.0024 11.8867C24.9925 11.8902 24.9826 11.8934 24.9729 11.8975C24.9636 11.9013 24.9547 11.9058 24.9456 11.9101C24.9355 11.9149 24.9253 11.9193 24.9154 11.9246C24.907 11.9292 24.8991 11.9343 24.8908 11.9392C24.8809 11.9451 24.8708 11.9508 24.8611 11.9572C24.8524 11.963 24.8442 11.9696 24.8357 11.9758C24.8273 11.9822 24.8185 11.9881 24.8103 11.9949C24.797 12.006 24.7842 12.0176 24.7719 12.0297C24.769 12.0324 24.7659 12.0348 24.763 12.0376L22.1755 14.6251C22.0542 14.7464 21.986 14.911 21.986 15.0825C21.986 15.2541 22.0542 15.4187 22.1755 15.54C22.2968 15.6613 22.4614 15.7294 22.633 15.7294C22.8045 15.7294 22.9691 15.6613 23.0904 15.5399L24.5736 14.0567V25.4325C24.5736 25.604 24.6418 25.7686 24.7631 25.8899C24.8844 26.0112 25.0489 26.0793 25.2205 26.0793C25.392 26.0793 25.5566 26.0112 25.6779 25.8899C25.7992 25.7686 25.8673 25.604 25.8673 25.4325V14.0567L27.3505 15.5399C27.4719 15.6612 27.6364 15.7294 27.808 15.7294C27.9795 15.7294 28.1441 15.6612 28.2654 15.5399C28.3867 15.4186 28.4549 15.2541 28.4549 15.0825C28.4549 14.9109 28.3867 14.7464 28.2654 14.6251Z" fill="#2248D5"/>
<path d="M17.2168 22.7578C17.3381 22.8791 17.4062 23.0437 17.4062 23.2152C17.4062 23.3868 17.3381 23.5513 17.2168 23.6726L14.6293 26.2601C14.6262 26.2632 14.6228 26.2658 14.6198 26.2688C14.6077 26.2806 14.5951 26.2919 14.5821 26.3027C14.5737 26.3096 14.5651 26.3157 14.5564 26.322C14.5481 26.3282 14.5399 26.3347 14.5313 26.3405C14.5215 26.347 14.5113 26.3527 14.5013 26.3587C14.4932 26.3635 14.4853 26.3686 14.477 26.3731C14.4669 26.3784 14.4567 26.3829 14.4464 26.3878C14.4375 26.392 14.4287 26.3965 14.4196 26.4003C14.4097 26.4043 14.3997 26.4076 14.3896 26.4112C14.3797 26.4147 14.3699 26.4185 14.3598 26.4217C14.3498 26.4247 14.3397 26.4269 14.3296 26.4294C14.3192 26.432 14.3089 26.4349 14.2983 26.437C14.2869 26.4393 14.2752 26.4407 14.2637 26.4423C14.2544 26.4437 14.2451 26.4455 14.2358 26.4463C14.1933 26.4505 14.1505 26.4505 14.108 26.4463C14.0986 26.4455 14.0894 26.4437 14.0801 26.4423C14.0685 26.4407 14.0569 26.4393 14.0454 26.437C14.0349 26.4349 14.0246 26.432 14.0142 26.4294C14.0041 26.4269 13.994 26.4247 13.984 26.4216C13.9739 26.4185 13.9641 26.4147 13.9541 26.4112C13.9441 26.4076 13.9341 26.4043 13.9242 26.4003C13.9151 26.3965 13.9063 26.392 13.8974 26.3878C13.8871 26.3829 13.8768 26.3784 13.8668 26.3731C13.8585 26.3686 13.8506 26.3635 13.8425 26.3587C13.8324 26.3527 13.8223 26.347 13.8125 26.3405C13.8038 26.3347 13.7956 26.3282 13.7874 26.3219C13.7787 26.3156 13.77 26.3096 13.7617 26.3028C13.7487 26.292 13.7361 26.2806 13.724 26.2688C13.7209 26.2658 13.7175 26.2631 13.7145 26.2601L11.127 23.6726C11.0669 23.6126 11.0193 23.5413 10.9867 23.4628C10.9542 23.3843 10.9375 23.3002 10.9375 23.2152C10.9375 23.1303 10.9542 23.0461 10.9867 22.9677C11.0193 22.8892 11.0669 22.8179 11.127 22.7578C11.2483 22.6365 11.4128 22.5683 11.5844 22.5683C11.6693 22.5683 11.7535 22.5851 11.8319 22.6176C11.9104 22.6501 11.9817 22.6977 12.0418 22.7578L13.525 24.241V12.8653C13.525 12.6937 13.5932 12.5292 13.7145 12.4078C13.8358 12.2865 14.0003 12.2184 14.1719 12.2184C14.3434 12.2184 14.508 12.2865 14.6293 12.4078C14.7506 12.5292 14.8188 12.6937 14.8188 12.8653V24.241L16.3019 22.7578C16.4233 22.6365 16.5878 22.5684 16.7594 22.5684C16.9309 22.5684 17.0955 22.6365 17.2168 22.7578ZM27.4167 14.9953L24.8293 12.4078C24.8264 12.405 24.8234 12.4027 24.8204 12.3999C24.8081 12.3878 24.7953 12.3762 24.782 12.3651C24.7738 12.3584 24.7651 12.3524 24.7566 12.3461C24.7481 12.3398 24.7399 12.3333 24.7312 12.3275C24.7215 12.321 24.7114 12.3154 24.7015 12.3094C24.6933 12.3046 24.6853 12.2994 24.6769 12.2949C24.667 12.2895 24.6568 12.2851 24.6467 12.2803C24.6376 12.276 24.6287 12.2715 24.6194 12.2677C24.6097 12.2637 24.5998 12.2604 24.5899 12.257C24.5799 12.2533 24.5699 12.2494 24.5597 12.2463C24.5498 12.2434 24.5399 12.2411 24.5298 12.2386C24.5193 12.236 24.509 12.233 24.4983 12.2309C24.4869 12.2287 24.4753 12.2273 24.4639 12.2257C24.4545 12.2244 24.4453 12.2225 24.4357 12.2216C24.3932 12.2174 24.3504 12.2174 24.308 12.2216C24.2985 12.2225 24.2892 12.2244 24.2798 12.2257C24.2683 12.2273 24.2568 12.2287 24.2455 12.2309C24.2347 12.233 24.2244 12.236 24.2138 12.2386C24.2038 12.2411 24.1939 12.2434 24.1839 12.2463C24.1737 12.2494 24.1637 12.2533 24.1538 12.257C24.1439 12.2604 24.134 12.2637 24.1242 12.2677C24.115 12.2715 24.1061 12.276 24.097 12.2803C24.0869 12.2851 24.0767 12.2895 24.0668 12.2949C24.0583 12.2994 24.0504 12.3046 24.0422 12.3094C24.0322 12.3153 24.0222 12.321 24.0125 12.3275C24.0038 12.3333 23.9955 12.3398 23.9871 12.3461C23.9786 12.3524 23.9699 12.3584 23.9616 12.3651C23.9484 12.3762 23.9356 12.3878 23.9232 12.3999C23.9203 12.4027 23.9172 12.405 23.9143 12.4078L21.3268 14.9953C21.2055 15.1167 21.1374 15.2812 21.1374 15.4528C21.1374 15.6243 21.2056 15.7889 21.3269 15.9102C21.4482 16.0315 21.6128 16.0997 21.7843 16.0997C21.9559 16.0997 22.1205 16.0315 22.2418 15.9102L23.725 14.427V25.8027C23.725 25.9743 23.7931 26.1388 23.9144 26.2601C24.0357 26.3814 24.2003 26.4496 24.3718 26.4496C24.5434 26.4496 24.7079 26.3814 24.8292 26.2601C24.9506 26.1388 25.0187 25.9743 25.0187 25.8027V14.427L26.5019 15.9102C26.6232 16.0315 26.7878 16.0996 26.9593 16.0996C27.1309 16.0996 27.2954 16.0315 27.4167 15.9102C27.5381 15.7889 27.6062 15.6243 27.6062 15.4527C27.6062 15.2812 27.5381 15.1166 27.4167 14.9953Z" fill="white"/>
<defs>
<linearGradient id="paint0_linear_2579_79" x1="18.9999" y1="37.0621" x2="18.9999" y2="1.06228" gradientUnits="userSpaceOnUse">
<stop stop-color="#2E4EC0"/>
<stop offset="1" stop-color="#5A7DFB"/>
</linearGradient>
</defs>
</svg>
