<svg width="28" height="28" viewBox="0 0 28 28" fill="none" xmlns="http://www.w3.org/2000/svg">
<rect x="0.5" y="0.5" width="27" height="27" rx="13.5" fill="white" stroke="white"/>
<path d="M13.2327 16.5464C13.327 16.6407 13.38 16.7687 13.38 16.9021C13.38 17.0356 13.327 17.1635 13.2327 17.2579L11.2202 19.2704C11.2178 19.2728 11.2151 19.2748 11.2127 19.2771C11.2033 19.2863 11.1935 19.2951 11.1834 19.3035C11.177 19.3089 11.1702 19.3136 11.1635 19.3185C11.157 19.3233 11.1507 19.3284 11.1439 19.3329C11.1363 19.3379 11.1284 19.3424 11.1206 19.3471C11.1143 19.3508 11.1082 19.3548 11.1017 19.3583C11.0939 19.3624 11.0859 19.3659 11.0779 19.3697C11.071 19.373 11.0641 19.3764 11.057 19.3794C11.0494 19.3825 11.0416 19.3851 11.0338 19.3879C11.026 19.3906 11.0184 19.3936 11.0105 19.396C11.0028 19.3984 10.9949 19.4001 10.987 19.402C10.979 19.4041 10.971 19.4064 10.9628 19.408C10.9538 19.4098 10.9448 19.4108 10.9358 19.4121C10.9285 19.4132 10.9214 19.4145 10.9141 19.4152C10.881 19.4185 10.8478 19.4185 10.8147 19.4152C10.8074 19.4145 10.8002 19.4132 10.793 19.4121C10.784 19.4108 10.775 19.4098 10.766 19.408C10.7579 19.4064 10.7498 19.4041 10.7418 19.402C10.7339 19.4001 10.726 19.3984 10.7182 19.396C10.7104 19.3936 10.7028 19.3906 10.695 19.3879C10.6872 19.3851 10.6794 19.3825 10.6718 19.3794C10.6647 19.3764 10.6578 19.373 10.6509 19.3697C10.6429 19.3659 10.6349 19.3624 10.6271 19.3583C10.6206 19.3548 10.6145 19.3508 10.6082 19.3471C10.6004 19.3424 10.5925 19.338 10.5848 19.3329C10.5781 19.3284 10.5718 19.3233 10.5653 19.3184C10.5586 19.3135 10.5518 19.3089 10.5453 19.3036C10.5352 19.2952 10.5255 19.2863 10.516 19.2771C10.5137 19.2748 10.511 19.2727 10.5086 19.2704L8.49612 17.2579C8.4494 17.2112 8.41234 17.1557 8.38705 17.0947C8.36177 17.0336 8.34875 16.9682 8.34875 16.9021C8.34875 16.836 8.36177 16.7706 8.38705 16.7096C8.41234 16.6485 8.4494 16.5931 8.49612 16.5464C8.59048 16.452 8.71845 16.399 8.85189 16.399C8.91797 16.399 8.98339 16.412 9.04444 16.4373C9.10548 16.4626 9.16094 16.4996 9.20766 16.5464L10.3613 17.7L10.3613 8.85212C10.3613 8.71869 10.4143 8.59072 10.5086 8.49636C10.603 8.40201 10.731 8.349 10.8644 8.349C10.9978 8.349 11.1258 8.40201 11.2202 8.49636C11.3145 8.59072 11.3675 8.71869 11.3675 8.85212L11.3675 17.7L12.5211 16.5464C12.6155 16.452 12.7435 16.399 12.8769 16.399C13.0103 16.399 13.1383 16.452 13.2327 16.5464ZM19.2702 10.5089L17.2577 8.49635C17.2555 8.49415 17.2531 8.49233 17.2508 8.49019C17.2412 8.48079 17.2312 8.47177 17.2209 8.46315C17.2145 8.45786 17.2077 8.45327 17.2011 8.44837C17.1945 8.44346 17.1882 8.43837 17.1814 8.4339C17.1738 8.42881 17.166 8.42447 17.1583 8.41981C17.1519 8.41604 17.1457 8.41202 17.1392 8.40849C17.1314 8.40434 17.1235 8.40088 17.1157 8.39717C17.1086 8.39384 17.1017 8.39032 17.0945 8.38736C17.0869 8.38422 17.0792 8.3817 17.0715 8.379C17.0637 8.37617 17.056 8.37315 17.048 8.3707C17.0403 8.36843 17.0326 8.36667 17.0248 8.36472C17.0166 8.36271 17.0086 8.36038 17.0003 8.35875C16.9914 8.35699 16.9824 8.35592 16.9735 8.35466C16.9662 8.35365 16.959 8.35221 16.9516 8.35151C16.9185 8.34826 16.8852 8.34826 16.8522 8.35151C16.8448 8.35221 16.8376 8.35365 16.8303 8.35466C16.8214 8.35592 16.8124 8.35699 16.8036 8.35875C16.7952 8.36038 16.7872 8.36271 16.779 8.36472C16.7712 8.36667 16.7635 8.36843 16.7557 8.3707C16.7478 8.37315 16.74 8.37617 16.7323 8.379C16.7246 8.3817 16.7169 8.38422 16.7093 8.38736C16.7021 8.39032 16.6952 8.39384 16.6881 8.39717C16.6803 8.40088 16.6723 8.40434 16.6646 8.40849C16.6581 8.41202 16.6519 8.41604 16.6455 8.41981C16.6378 8.4244 16.63 8.42881 16.6224 8.43384C16.6156 8.43837 16.6092 8.44346 16.6027 8.4483C16.5961 8.45327 16.5893 8.45786 16.5828 8.46315C16.5725 8.47177 16.5626 8.48079 16.553 8.49019C16.5507 8.49233 16.5483 8.49415 16.5461 8.49635L14.5336 10.5089C14.4392 10.6032 14.3862 10.7312 14.3862 10.8646C14.3862 10.9981 14.4392 11.1261 14.5336 11.2204C14.628 11.3148 14.7559 11.3678 14.8894 11.3678C15.0228 11.3678 15.1508 11.3148 15.2452 11.2204L16.3988 10.0668L16.3988 18.9146C16.3988 19.0481 16.4518 19.176 16.5461 19.2704C16.6405 19.3647 16.7685 19.4177 16.9019 19.4177C17.0353 19.4177 17.1633 19.3647 17.2577 19.2704C17.352 19.176 17.405 19.0481 17.405 18.9146L17.405 10.0668L18.5586 11.2204C18.653 11.3148 18.7809 11.3678 18.9144 11.3678C19.0478 11.3678 19.1758 11.3148 19.2702 11.2204C19.3645 11.126 19.4175 10.9981 19.4175 10.8646C19.4175 10.7312 19.3645 10.6032 19.2702 10.5089Z" fill="#395FEB"/>
</svg>
