<svg width="28" height="28" viewBox="0 0 28 28" fill="none" xmlns="http://www.w3.org/2000/svg">
<rect x="0.5" y="0.5" width="27" height="27" rx="13.5" fill="#F0F0F4" stroke="white"/>
<path d="M13.2327 16.5462C13.327 16.6406 13.38 16.7686 13.38 16.902C13.38 17.0354 13.327 17.1634 13.2327 17.2578L11.2202 19.2703C11.2178 19.2727 11.2151 19.2747 11.2127 19.277C11.2033 19.2862 11.1935 19.295 11.1834 19.3034C11.177 19.3088 11.1702 19.3135 11.1635 19.3184C11.157 19.3232 11.1507 19.3283 11.1439 19.3328C11.1363 19.3378 11.1284 19.3423 11.1206 19.3469C11.1143 19.3507 11.1082 19.3547 11.1017 19.3581C11.0939 19.3623 11.0859 19.3658 11.0779 19.3696C11.071 19.3728 11.0641 19.3763 11.057 19.3793C11.0494 19.3824 11.0416 19.385 11.0338 19.3878C11.026 19.3905 11.0184 19.3935 11.0105 19.3959C11.0028 19.3983 10.9949 19.4 10.987 19.4019C10.979 19.404 10.971 19.4062 10.9628 19.4079C10.9538 19.4096 10.9448 19.4107 10.9358 19.412C10.9285 19.413 10.9214 19.4144 10.9141 19.4151C10.881 19.4184 10.8478 19.4184 10.8147 19.4151C10.8074 19.4144 10.8002 19.413 10.793 19.412C10.784 19.4107 10.775 19.4096 10.766 19.4079C10.7579 19.4062 10.7498 19.404 10.7418 19.4019C10.7339 19.4 10.726 19.3983 10.7182 19.3959C10.7104 19.3935 10.7028 19.3905 10.695 19.3878C10.6872 19.385 10.6794 19.3824 10.6718 19.3793C10.6647 19.3763 10.6578 19.3728 10.6509 19.3696C10.6429 19.3658 10.6349 19.3623 10.6271 19.3581C10.6206 19.3547 10.6145 19.3507 10.6082 19.3469C10.6004 19.3423 10.5925 19.3379 10.5848 19.3328C10.5781 19.3283 10.5718 19.3232 10.5653 19.3183C10.5586 19.3134 10.5518 19.3088 10.5453 19.3035C10.5352 19.295 10.5255 19.2862 10.516 19.277C10.5137 19.2747 10.511 19.2726 10.5086 19.2703L8.49612 17.2578C8.4494 17.2111 8.41234 17.1556 8.38705 17.0945C8.36177 17.0335 8.34875 16.9681 8.34875 16.902C8.34875 16.8359 8.36177 16.7705 8.38705 16.7095C8.41234 16.6484 8.4494 16.5929 8.49612 16.5462C8.59048 16.4519 8.71845 16.3989 8.85189 16.3989C8.91797 16.3989 8.98339 16.4119 9.04444 16.4372C9.10548 16.4624 9.16094 16.4995 9.20766 16.5462L10.3613 17.6998L10.3613 8.852C10.3613 8.71856 10.4143 8.59059 10.5086 8.49624C10.603 8.40188 10.731 8.34888 10.8644 8.34888C10.9978 8.34888 11.1258 8.40188 11.2202 8.49624C11.3145 8.59059 11.3675 8.71856 11.3675 8.852L11.3675 17.6998L12.5211 16.5462C12.6155 16.4519 12.7435 16.3989 12.8769 16.3989C13.0103 16.3989 13.1383 16.4519 13.2327 16.5462ZM19.2702 10.5087L17.2577 8.49623C17.2555 8.49403 17.2531 8.4922 17.2508 8.49007C17.2412 8.48067 17.2312 8.47165 17.2209 8.46302C17.2145 8.45774 17.2077 8.45315 17.2011 8.44824C17.1945 8.44334 17.1882 8.43824 17.1814 8.43378C17.1738 8.42869 17.166 8.42435 17.1583 8.41969C17.1519 8.41592 17.1457 8.41189 17.1392 8.40837C17.1314 8.40422 17.1235 8.40076 17.1157 8.39705C17.1086 8.39372 17.1017 8.3902 17.0945 8.38724C17.0869 8.3841 17.0792 8.38158 17.0715 8.37888C17.0637 8.37605 17.056 8.37303 17.048 8.37057C17.0403 8.36831 17.0326 8.36655 17.0248 8.3646C17.0166 8.36259 17.0086 8.36026 17.0003 8.35862C16.9914 8.35686 16.9824 8.35579 16.9735 8.35454C16.9662 8.35353 16.959 8.35208 16.9516 8.35139C16.9185 8.34813 16.8852 8.34813 16.8522 8.35139C16.8448 8.35208 16.8376 8.35353 16.8303 8.35454C16.8214 8.35579 16.8124 8.35686 16.8036 8.35862C16.7952 8.36026 16.7872 8.36259 16.779 8.3646C16.7712 8.36655 16.7635 8.36831 16.7557 8.37057C16.7478 8.37303 16.74 8.37605 16.7323 8.37888C16.7246 8.38158 16.7169 8.3841 16.7093 8.38724C16.7021 8.3902 16.6952 8.39372 16.6881 8.39705C16.6803 8.40076 16.6723 8.40422 16.6646 8.40837C16.6581 8.41189 16.6519 8.41592 16.6455 8.41969C16.6378 8.42428 16.63 8.42869 16.6224 8.43372C16.6156 8.43824 16.6092 8.44334 16.6027 8.44818C16.5961 8.45315 16.5893 8.45774 16.5828 8.46302C16.5725 8.47165 16.5626 8.48067 16.553 8.49007C16.5507 8.4922 16.5483 8.49403 16.5461 8.49623L14.5336 10.5087C14.4392 10.6031 14.3862 10.7311 14.3862 10.8645C14.3862 10.998 14.4392 11.1259 14.5336 11.2203C14.628 11.3147 14.7559 11.3677 14.8894 11.3677C15.0228 11.3677 15.1508 11.3146 15.2452 11.2203L16.3988 10.0667L16.3988 18.9145C16.3988 19.0479 16.4518 19.1759 16.5461 19.2703C16.6405 19.3646 16.7685 19.4176 16.9019 19.4176C17.0353 19.4176 17.1633 19.3646 17.2577 19.2703C17.352 19.1759 17.405 19.0479 17.405 18.9145L17.405 10.0667L18.5586 11.2203C18.653 11.3146 18.7809 11.3676 18.9144 11.3676C19.0478 11.3676 19.1758 11.3146 19.2702 11.2203C19.3645 11.1259 19.4175 10.9979 19.4175 10.8645C19.4175 10.7311 19.3645 10.6031 19.2702 10.5087Z" fill="#62718A"/>
</svg>
