<svg width="30" height="30" viewBox="0 0 38 38" fill="none" xmlns="http://www.w3.org/2000/svg" version="1.1">
<path d="M9.99996 38.0619C4.75328 38.0619 0.5 33.8086 0.5 28.5619V10.562C0.5 5.31531 4.75328 1.06203 9.99996 1.06203H27.9999C33.2466 1.06203 37.4999 5.31531 37.4999 10.562V28.5619C37.4999 33.8086 33.2466 38.0619 27.9999 38.0619H9.99996Z" fill="#174AFF" stroke="url(#paint0_linear_2579_80)"/>
<path d="M18.0654 23.4498C18.1867 23.5711 18.2549 23.7357 18.2549 23.9072C18.2549 24.0788 18.1867 24.2433 18.0654 24.3647L15.4779 26.9521C15.4749 26.9552 15.4715 26.9578 15.4684 26.9608C15.4563 26.9726 15.4437 26.9839 15.4307 26.9948C15.4224 27.0016 15.4137 27.0077 15.4051 27.014C15.3967 27.0202 15.3886 27.0267 15.3799 27.0325C15.3701 27.039 15.36 27.0447 15.3499 27.0507C15.3418 27.0556 15.3339 27.0607 15.3257 27.0651C15.3156 27.0704 15.3053 27.075 15.295 27.0798C15.2861 27.084 15.2773 27.0885 15.2682 27.0923C15.2583 27.0963 15.2483 27.0996 15.2383 27.1032C15.2283 27.1067 15.2185 27.1105 15.2084 27.1137C15.1985 27.1167 15.1883 27.1189 15.1782 27.1214C15.1678 27.124 15.1576 27.127 15.147 27.1291C15.1355 27.1313 15.1238 27.1327 15.1123 27.1343C15.103 27.1357 15.0938 27.1375 15.0844 27.1384C15.0419 27.1426 14.9991 27.1426 14.9566 27.1384C14.9473 27.1375 14.938 27.1357 14.9287 27.1343C14.9172 27.1327 14.9055 27.1313 14.894 27.1291C14.8835 27.127 14.8732 27.124 14.8628 27.1214C14.8527 27.119 14.8426 27.1167 14.8326 27.1136C14.8225 27.1105 14.8127 27.1067 14.8028 27.1032C14.7927 27.0996 14.7827 27.0963 14.7728 27.0923C14.7637 27.0885 14.7549 27.084 14.746 27.0798C14.7357 27.075 14.7255 27.0704 14.7154 27.0651C14.7071 27.0607 14.6993 27.0556 14.6912 27.0507C14.6811 27.0447 14.671 27.0391 14.6611 27.0325C14.6524 27.0267 14.6443 27.0202 14.636 27.0139C14.6274 27.0076 14.6186 27.0016 14.6103 26.9948C14.5973 26.984 14.5847 26.9726 14.5726 26.9608C14.5696 26.9578 14.5662 26.9551 14.5631 26.9521L11.9756 24.3647C11.9155 24.3046 11.8679 24.2333 11.8354 24.1548C11.8029 24.0763 11.7861 23.9922 11.7861 23.9072C11.7861 23.8223 11.8029 23.7382 11.8354 23.6597C11.8679 23.5812 11.9155 23.5099 11.9756 23.4498C12.0969 23.3285 12.2615 23.2603 12.433 23.2603C12.518 23.2603 12.6021 23.2771 12.6806 23.3096C12.7591 23.3421 12.8304 23.3897 12.8904 23.4498L14.3736 24.933V13.5573C14.3736 13.3857 14.4418 13.2212 14.5631 13.0999C14.6844 12.9786 14.849 12.9104 15.0205 12.9104C15.1921 12.9104 15.3566 12.9786 15.4779 13.0999C15.5992 13.2212 15.6674 13.3857 15.6674 13.5573V24.933L17.1506 23.4498C17.2719 23.3285 17.4364 23.2604 17.608 23.2604C17.7796 23.2604 17.9441 23.3285 18.0654 23.4498ZM28.2654 15.6873L25.6779 13.0999C25.6751 13.097 25.672 13.0947 25.6691 13.0919C25.6567 13.0798 25.6439 13.0682 25.6307 13.0572C25.6224 13.0504 25.6137 13.0445 25.6052 13.0382C25.5967 13.0319 25.5885 13.0253 25.5798 13.0196C25.5701 13.013 25.5601 13.0074 25.5501 13.0014C25.542 12.9966 25.534 12.9914 25.5256 12.9869C25.5156 12.9816 25.5054 12.9771 25.4953 12.9723C25.4863 12.9681 25.4774 12.9635 25.4681 12.9597C25.4584 12.9557 25.4484 12.9524 25.4385 12.949C25.4285 12.9453 25.4186 12.9415 25.4083 12.9383C25.3984 12.9354 25.3885 12.9331 25.3785 12.9306C25.368 12.928 25.3576 12.925 25.3469 12.9229C25.3355 12.9207 25.324 12.9193 25.3125 12.9177C25.3031 12.9164 25.2939 12.9145 25.2844 12.9136C25.2419 12.9094 25.1991 12.9094 25.1566 12.9136C25.1471 12.9145 25.1378 12.9164 25.1285 12.9177C25.117 12.9193 25.1054 12.9207 25.0941 12.9229C25.0833 12.925 25.073 12.928 25.0625 12.9306C25.0524 12.9331 25.0425 12.9354 25.0326 12.9383C25.0224 12.9415 25.0123 12.9453 25.0024 12.949C24.9925 12.9524 24.9826 12.9557 24.9729 12.9597C24.9636 12.9635 24.9547 12.9681 24.9456 12.9723C24.9355 12.9771 24.9253 12.9816 24.9154 12.9869C24.907 12.9914 24.8991 12.9966 24.8908 13.0014C24.8809 13.0074 24.8708 13.013 24.8611 13.0195C24.8524 13.0253 24.8442 13.0319 24.8357 13.0381C24.8273 13.0445 24.8185 13.0504 24.8103 13.0572C24.797 13.0682 24.7842 13.0798 24.7719 13.0919C24.769 13.0947 24.7659 13.097 24.763 13.0999L22.1755 15.6873C22.0542 15.8087 21.986 15.9732 21.986 16.1448C21.986 16.3164 22.0542 16.4809 22.1755 16.6022C22.2968 16.7235 22.4614 16.7917 22.633 16.7917C22.8045 16.7917 22.9691 16.7235 23.0904 16.6022L24.5736 15.119V26.4947C24.5736 26.6663 24.6418 26.8308 24.7631 26.9521C24.8844 27.0734 25.0489 27.1416 25.2205 27.1416C25.392 27.1416 25.5566 27.0734 25.6779 26.9521C25.7992 26.8308 25.8673 26.6663 25.8673 26.4947V15.119L27.3505 16.6022C27.4719 16.7235 27.6364 16.7917 27.808 16.7917C27.9795 16.7917 28.1441 16.7235 28.2654 16.6022C28.3867 16.4809 28.4549 16.3163 28.4549 16.1448C28.4549 15.9732 28.3867 15.8087 28.2654 15.6873Z" fill="#2248D5"/>
<path d="M17.2168 23.8201C17.3381 23.9414 17.4062 24.1059 17.4062 24.2775C17.4062 24.449 17.3381 24.6136 17.2168 24.7349L14.6293 27.3224C14.6262 27.3255 14.6228 27.328 14.6198 27.331C14.6077 27.3428 14.5951 27.3542 14.5821 27.365C14.5737 27.3719 14.5651 27.3779 14.5564 27.3842C14.5481 27.3905 14.5399 27.3969 14.5313 27.4028C14.5215 27.4092 14.5113 27.415 14.5013 27.4209C14.4932 27.4258 14.4853 27.4309 14.477 27.4353C14.4669 27.4407 14.4567 27.4452 14.4464 27.4501C14.4375 27.4543 14.4287 27.4587 14.4196 27.4625C14.4097 27.4666 14.3997 27.4699 14.3896 27.4734C14.3797 27.477 14.3699 27.4808 14.3598 27.4839C14.3498 27.4869 14.3397 27.4891 14.3296 27.4916C14.3192 27.4943 14.3089 27.4972 14.2983 27.4993C14.2869 27.5016 14.2752 27.5029 14.2637 27.5046C14.2544 27.5059 14.2451 27.5077 14.2358 27.5086C14.1933 27.5128 14.1505 27.5128 14.108 27.5086C14.0986 27.5077 14.0894 27.5059 14.0801 27.5046C14.0685 27.5029 14.0569 27.5016 14.0454 27.4993C14.0349 27.4972 14.0246 27.4943 14.0142 27.4916C14.0041 27.4892 13.994 27.4869 13.984 27.4839C13.9739 27.4808 13.9641 27.477 13.9541 27.4734C13.9441 27.4699 13.9341 27.4666 13.9242 27.4625C13.9151 27.4587 13.9063 27.4543 13.8974 27.4501C13.8871 27.4452 13.8768 27.4407 13.8668 27.4353C13.8585 27.4309 13.8506 27.4258 13.8425 27.4209C13.8324 27.415 13.8223 27.4093 13.8125 27.4028C13.8038 27.3969 13.7956 27.3905 13.7874 27.3842C13.7787 27.3779 13.77 27.3719 13.7617 27.3651C13.7487 27.3542 13.7361 27.3429 13.724 27.331C13.7209 27.328 13.7175 27.3254 13.7145 27.3224L11.127 24.7349C11.0669 24.6748 11.0193 24.6035 10.9867 24.525C10.9542 24.4465 10.9375 24.3624 10.9375 24.2775C10.9375 24.1925 10.9542 24.1084 10.9867 24.0299C11.0193 23.9514 11.0669 23.8801 11.127 23.8201C11.2483 23.6987 11.4128 23.6306 11.5844 23.6306C11.6693 23.6306 11.7535 23.6473 11.8319 23.6798C11.9104 23.7123 11.9817 23.76 12.0418 23.8201L13.525 25.3032V13.9275C13.525 13.756 13.5932 13.5914 13.7145 13.4701C13.8358 13.3488 14.0003 13.2806 14.1719 13.2806C14.3434 13.2806 14.508 13.3488 14.6293 13.4701C14.7506 13.5914 14.8188 13.756 14.8188 13.9275V25.3032L16.3019 23.8201C16.4233 23.6988 16.5878 23.6306 16.7594 23.6306C16.9309 23.6306 17.0955 23.6988 17.2168 23.8201ZM27.4167 16.0576L24.8293 13.4701C24.8264 13.4673 24.8234 13.4649 24.8204 13.4622C24.8081 13.4501 24.7953 13.4385 24.782 13.4274C24.7738 13.4206 24.7651 13.4147 24.7566 13.4084C24.7481 13.4021 24.7399 13.3955 24.7312 13.3898C24.7215 13.3832 24.7114 13.3777 24.7015 13.3717C24.6933 13.3668 24.6853 13.3617 24.6769 13.3571C24.667 13.3518 24.6568 13.3473 24.6467 13.3426C24.6376 13.3383 24.6287 13.3338 24.6194 13.33C24.6097 13.3259 24.5998 13.3227 24.5899 13.3192C24.5799 13.3156 24.5699 13.3117 24.5597 13.3085C24.5498 13.3056 24.5399 13.3034 24.5298 13.3009C24.5193 13.2983 24.509 13.2953 24.4983 13.2932C24.4869 13.2909 24.4753 13.2895 24.4639 13.2879C24.4545 13.2866 24.4453 13.2848 24.4357 13.2839C24.3932 13.2797 24.3504 13.2797 24.308 13.2839C24.2985 13.2848 24.2892 13.2866 24.2798 13.2879C24.2683 13.2895 24.2568 13.2909 24.2455 13.2932C24.2347 13.2953 24.2244 13.2983 24.2138 13.3009C24.2038 13.3034 24.1939 13.3056 24.1839 13.3085C24.1737 13.3117 24.1637 13.3156 24.1538 13.3192C24.1439 13.3227 24.134 13.3259 24.1242 13.33C24.115 13.3338 24.1061 13.3383 24.097 13.3426C24.0869 13.3473 24.0767 13.3518 24.0668 13.3571C24.0583 13.3617 24.0504 13.3668 24.0422 13.3717C24.0322 13.3776 24.0222 13.3832 24.0125 13.3897C24.0038 13.3955 23.9955 13.4021 23.9871 13.4083C23.9786 13.4147 23.9699 13.4206 23.9616 13.4274C23.9484 13.4385 23.9356 13.4501 23.9232 13.4622C23.9203 13.4649 23.9172 13.4673 23.9143 13.4701L21.3268 16.0576C21.2055 16.1789 21.1374 16.3435 21.1374 16.515C21.1374 16.6866 21.2056 16.8511 21.3269 16.9725C21.4482 17.0938 21.6128 17.1619 21.7843 17.1619C21.9559 17.1619 22.1205 17.0937 22.2418 16.9724L23.725 15.4892V26.865C23.725 27.0365 23.7931 27.2011 23.9144 27.3224C24.0357 27.4437 24.2003 27.5118 24.3718 27.5118C24.5434 27.5118 24.7079 27.4437 24.8292 27.3224C24.9506 27.2011 25.0187 27.0365 25.0187 26.865V15.4892L26.5019 16.9724C26.6232 17.0937 26.7878 17.1619 26.9593 17.1619C27.1309 17.1619 27.2954 17.0937 27.4167 16.9724C27.5381 16.8511 27.6062 16.6866 27.6062 16.515C27.6062 16.3434 27.5381 16.1789 27.4167 16.0576Z" fill="white"/>
<defs>
<linearGradient id="paint0_linear_2579_80" x1="18.9999" y1="37.5619" x2="18.9999" y2="1.56203" gradientUnits="userSpaceOnUse">
<stop stop-color="#193BB4"/>
<stop offset="1" stop-color="#466FFF"/>
</linearGradient>
</defs>
</svg>
