<svg width="28" height="28" viewBox="0 0 28 28" fill="none" xmlns="http://www.w3.org/2000/svg">
<rect x="0.5" y="0.5" width="27" height="27" rx="13.5" fill="#395FEB" stroke="#2D51D0"/>
<path d="M13.0193 16.9842L13.0193 19.8234C13.0193 20.0117 12.9434 20.1922 12.8084 20.3253C12.6733 20.4584 12.4902 20.5332 12.2992 20.5332L9.41854 20.5332C9.32397 20.5332 9.23032 20.5148 9.14295 20.4792C9.05558 20.4435 8.97619 20.3912 8.90932 20.3253C8.84244 20.2594 8.7894 20.1812 8.75321 20.095C8.71701 20.0089 8.69839 19.9166 8.69839 19.8234C8.69839 19.7302 8.71701 19.6379 8.75321 19.5518C8.7894 19.4657 8.84244 19.3874 8.90932 19.3215C8.97619 19.2556 9.05558 19.2033 9.14295 19.1676C9.23032 19.132 9.32397 19.1136 9.41854 19.1136L10.5588 19.1136L9.75461 18.3151C8.63101 17.2051 8 15.7012 8 14.1332C8 12.5652 8.63101 11.0613 9.75461 9.95132C9.82152 9.88515 9.90102 9.83264 9.98855 9.79682C10.0761 9.76099 10.1699 9.74255 10.2647 9.74255C10.3595 9.74255 10.4534 9.76099 10.5409 9.79682C10.6284 9.83264 10.7079 9.88515 10.7748 9.95132C10.9075 10.086 10.9818 10.2663 10.9818 10.4541C10.9818 10.6418 10.9075 10.8222 10.7748 10.9569C10.3513 11.3738 10.0153 11.869 9.7861 12.414C9.55686 12.959 9.43887 13.5432 9.43887 14.1332C9.43887 14.7232 9.55686 15.3074 9.7861 15.8524C10.0153 16.3974 10.3513 16.8926 10.7748 17.3095L11.579 18.1081L11.579 16.9842C11.579 16.796 11.6549 16.6154 11.7899 16.4823C11.925 16.3492 12.1082 16.2744 12.2992 16.2744C12.4902 16.2744 12.6733 16.3492 12.8084 16.4823C12.9434 16.6154 13.0193 16.796 13.0193 16.9842V16.9842ZM14.9757 8.443L14.9757 11.2822C14.9757 11.4704 15.0516 11.651 15.1867 11.7841C15.3217 11.9172 15.5049 11.992 15.6959 11.992C15.8869 11.992 16.07 11.9172 16.2051 11.7841C16.3402 11.651 16.416 11.4704 16.416 11.2822L16.416 10.1583L17.2202 10.9569C17.6437 11.3738 17.9797 11.869 18.2089 12.414C18.4382 12.959 18.5562 13.5432 18.5562 14.1332C18.5562 14.7232 18.4382 15.3074 18.2089 15.8524C17.9797 16.3974 17.6437 16.8926 17.2202 17.3095C17.0875 17.4442 17.0133 17.6246 17.0133 17.8123C17.0133 18.0001 17.0875 18.1804 17.2202 18.3151C17.2871 18.3813 17.3666 18.4338 17.4541 18.4696C17.5417 18.5054 17.6355 18.5239 17.7303 18.5239C17.8251 18.5239 17.9189 18.5054 18.0065 18.4696C18.094 18.4338 18.1735 18.3813 18.2404 18.3151C18.7982 17.7663 19.2407 17.1144 19.5427 16.3968C19.8446 15.6792 20 14.91 20 14.1332C20 13.3564 19.8446 12.5872 19.5427 11.8696C19.2407 11.152 18.7982 10.5002 18.2404 9.95132L17.4362 9.1528L18.5765 9.1528C18.7675 9.1528 18.9507 9.07801 19.0857 8.9449C19.2208 8.81179 19.2966 8.63125 19.2966 8.443C19.2966 8.25475 19.2208 8.07421 19.0857 7.9411C18.9507 7.80798 18.7675 7.7332 18.5765 7.7332L15.6959 7.7332C15.5049 7.7332 15.3217 7.80798 15.1867 7.9411C15.0516 8.07421 14.9757 8.25475 14.9757 8.443V8.443Z" fill="#ECECF1"/>
</svg>
