<svg width="14" height="14" viewBox="0 0 14 14" fill="none" xmlns="http://www.w3.org/2000/svg">
<path fill-rule="evenodd" clip-rule="evenodd" d="M7 14C10.866 14 14 10.866 14 7C14 3.13401 10.866 0 7 0C3.13401 0 0 3.13401 0 7C0 10.866 3.13401 14 7 14ZM6.58955 3.67711C6.71699 3.55763 6.87604 3.5 7.05683 3.5C7.23678 3.5 7.39409 3.55721 7.5163 3.67859C7.64514 3.80018 7.70734 3.95845 7.70734 4.14112C7.70734 4.32908 7.64589 4.49285 7.51784 4.6209C7.39541 4.74333 7.23753 4.80102 7.05683 4.80102C6.87604 4.80102 6.71699 4.74339 6.58955 4.62391L6.58323 4.61798C6.46275 4.48947 6.40632 4.32654 6.40632 4.14112C6.40632 3.96042 6.46401 3.80254 6.58644 3.68012L6.58955 3.67711ZM5.82422 5.58431H7.58529V9.60539C7.58529 9.71358 7.58762 9.79672 7.59197 9.85614C7.59388 9.88222 7.59607 9.90217 7.59829 9.91677C7.61336 9.92192 7.63747 9.92769 7.67337 9.93223L8.30822 10.0015V10.5H5.82422V10.0015L6.45907 9.93223C6.49497 9.92769 6.51908 9.92192 6.53416 9.91677C6.53638 9.90217 6.53856 9.88222 6.54047 9.85614C6.54482 9.79672 6.54715 9.71358 6.54715 9.60539V6.47893C6.54715 6.37074 6.54482 6.2876 6.54047 6.22818C6.53856 6.2021 6.53638 6.18215 6.53416 6.16755C6.51925 6.16245 6.49549 6.15675 6.46024 6.15224L5.82422 6.09442V5.58431Z" fill="#62718A"/>
</svg>
