<svg xmlns="http://www.w3.org/2000/svg" viewBox="0 0 271.24 271.24"><g id="Layer_2" data-name="Layer 2"><g id="Layer_1-2" data-name="Layer 1"><g id="Layer_2-2" data-name="Layer 2"><rect width="271.24" height="271.24" rx="20.84" style="fill:#fff"/></g><path d="M137.09,255.61H48.47c-20,0-31.86-11.75-31.88-31.83q0-32.11,0-64.25c0-37.68-.07-75.37,0-113,0-17.12,11.75-29.9,27.46-29.92q92.1-.14,184.21,0c14.44,0,26.63,12.19,27.33,26.82v59.78a22.12,22.12,0,0,0-2.78-.93Q174.3,87.85,95.76,73.49l-33-6c.84,2.49,1.29,4.07,1.9,5.6q23.83,59.82,47.7,119.63C120.66,213.65,128.84,234.65,137.09,255.61Z" style="fill:#135ecb"/><path d="M137.09,255.61c-8.25-21-16.43-42-24.75-62.89Q88.55,132.87,64.64,73.09c-.61-1.53-1.06-3.11-1.9-5.6l33,6q78.54,14.36,157.08,28.74a22.12,22.12,0,0,1,2.78.93V119.1a30.44,30.44,0,0,1-3.45-.24L144,99.58q-18.12-3.24-36.26-6.41l-.41,1L212.86,179l42.76-34v22.92L235.23,184l20.39-3.11v17.94l-34.21,5.6c-2.07,17.36-4,34-6,50.67,23,3.07,38.51-7.39,40.25-26.38v26.9Zm70.25-57.92L97.52,107.15l-1.1.73,58.9,147.4h45C202.67,236,205,216.93,207.34,197.69Z" style="fill:#f7fbfd"/><path d="M255.62,145l-42.76,34L107.36,94.15l.41-1q18.14,3.19,36.26,6.41l108.14,19.28a30.44,30.44,0,0,0,3.45.24Z" style="fill:#135ecb"/><path d="M255.62,228.71c-1.74,19-17.29,29.45-40.25,26.38,2-16.64,4-33.31,6-50.67l34.21-5.6Z" style="fill:#135ecb"/><path d="M255.62,43.38c-.7-14.63-12.89-26.8-27.33-26.82q-92.1-.14-184.21,0c-15.71,0-27.42,12.8-27.46,29.92-.11,37.68,0,75.37,0,113.05q0,32.13,0,64.25c0,20.08,11.83,31.83,31.88,31.83H15.62v-240h240Z" style="fill:#f7fbfd"/><path d="M255.62,180.88,235.23,184l20.39-16.06Z" style="fill:#135ecb"/><path d="M207.34,197.69c-2.35,19.24-4.67,38.28-7,57.59h-45l-58.9-147.4,1.1-.73Z" style="fill:#135ecb"/></g></g></svg>