<svg width="25" height="24" viewBox="0 0 25 24" fill="none" xmlns="http://www.w3.org/2000/svg">
<path d="M20.25 6.789C19.655 7.05 19.021 7.223 18.36 7.307C19.04 6.901 19.559 6.263 19.803 5.494C19.169 5.872 18.469 6.139 17.723 6.288C17.121 5.647 16.263 5.25 15.327 5.25C13.511 5.25 12.049 6.724 12.049 8.531C12.049 8.791 12.071 9.041 12.125 9.279C9.398 9.146 6.985 7.839 5.364 5.848C5.081 6.339 4.915 6.901 4.915 7.506C4.915 8.642 5.5 9.649 6.372 10.232C5.845 10.222 5.328 10.069 4.89 9.828C4.89 9.838 4.89 9.851 4.89 9.864C4.89 11.458 6.027 12.782 7.518 13.087C7.251 13.16 6.96 13.195 6.658 13.195C6.448 13.195 6.236 13.183 6.037 13.139C6.462 14.438 7.668 15.393 9.102 15.424C7.986 16.297 6.569 16.823 5.035 16.823C4.766 16.823 4.508 16.811 4.25 16.778C5.703 17.715 7.425 18.25 9.282 18.25C15.318 18.25 18.618 13.25 18.618 8.916C18.618 8.771 18.613 8.631 18.606 8.492C19.257 8.03 19.804 7.453 20.25 6.789Z" fill="white"/>
</svg>
