<svg width="230" height="88" viewBox="0 0 230 88" fill="none" xmlns="http://www.w3.org/2000/svg" xmlns:xlink="http://www.w3.org/1999/xlink">
<path d="M0.375 34.9C0.375 22.3753 0.375 16.1129 3.08073 11.4547C4.82622 8.44961 7.32461 5.95122 10.3297 4.20573C14.9879 1.5 21.2503 1.5 33.775 1.5H51.975C64.4997 1.5 70.7621 1.5 75.4203 4.20573C78.4254 5.95122 80.9238 8.44961 82.6693 11.4547C85.375 16.1129 85.375 22.3753 85.375 34.9V53.1C85.375 65.6247 85.375 71.8871 82.6693 76.5453C80.9238 79.5504 78.4254 82.0488 75.4203 83.7943C70.7621 86.5 64.4997 86.5 51.975 86.5H33.775C21.2503 86.5 14.9879 86.5 10.3297 83.7943C7.32461 82.0488 4.82622 79.5504 3.08073 76.5453C0.375 71.8871 0.375 65.6247 0.375 53.1V34.9Z" fill="url(#paint0_linear_2657_13578)"/>
<path fill-rule="evenodd" clip-rule="evenodd" d="M46.005 20.6849C48.9956 21.1782 51.6471 22.1031 53.8054 23.4289C55.5936 24.508 55.8402 24.6005 56.1794 24.1689C56.3952 23.8914 56.611 23.5214 56.6727 23.3672C57.0118 22.2881 62.0374 27.8995 63.7023 31.2293C66.5388 36.8098 66.7546 44.4869 64.3189 50.314C62.3149 55.0621 57.9985 59.5943 53.3429 61.845C50.5989 63.1708 47.0224 64.3115 47.0224 63.8799C47.0224 63.7258 47.2382 63.2324 47.4849 62.7083C47.8549 61.9992 48.4407 61.5984 50.4756 60.8276C53.5587 59.656 56.8269 57.4361 58.5226 55.4321L58.7007 55.2227C59.3443 54.4665 59.4913 53.4058 59.0776 52.5031C58.6302 51.55 58.6484 50.4436 59.1269 49.5057L59.1392 49.4816C60.465 46.8917 61.0199 44.5177 61.0199 41.4962C61.0199 38.9063 60.2492 35.0832 59.6634 34.7132C59.4475 34.5591 58.5226 36.3782 48.4098 57.0045C45.5425 62.8008 43.1376 67.5489 43.0143 67.5489C42.9218 67.5489 40.8253 63.4174 38.3896 58.3919C32.6857 46.7067 26.6428 34.8674 26.3653 34.8674C26.057 34.8674 25.2245 38.0431 24.9778 40.1088C24.7004 42.4828 25.2862 45.6893 26.5194 48.5566L26.9136 49.4725C27.3284 50.4362 27.2969 51.5338 26.8277 52.4722C26.3682 53.3545 26.5297 54.4324 27.2275 55.1413L27.9993 55.9254C30.1575 58.1144 33.2099 60.026 36.1697 61.1051C37.8346 61.6909 38.2046 61.9684 38.7287 62.9858L38.9393 63.3964C39.0976 63.7051 38.8186 64.0565 38.4821 63.9724C32.3158 62.5233 27.0436 58.9469 23.6213 53.8288C21.7714 51.054 20.9697 48.9574 20.3223 45.2576C18.9965 37.6114 21.833 29.4102 27.506 24.3847C28.9859 23.0897 29.4484 22.9048 29.4484 23.5214C29.4484 23.7372 29.5717 24.1072 29.7259 24.3538C29.9417 24.6622 30.435 24.4772 32.0999 23.4906C36.2314 20.9932 41.4111 19.9449 46.005 20.6849ZM40.3939 23.7982C39.3764 23.9523 37.7115 24.3531 36.6941 24.6923C34.7208 25.3397 31.6069 27.2513 31.6069 27.8063C31.6069 28.2379 42.7987 51.4849 43.0145 51.4849C43.107 51.4849 44.1553 49.3883 45.3886 46.7985C45.7861 45.9636 46.3215 44.8435 46.9275 43.5757L46.9278 43.5751C48.2015 40.9101 49.7872 37.5924 51.0616 34.8975L54.0237 28.6823C54.3111 28.0794 54.1438 27.358 53.6206 26.943C50.6299 24.5073 44.8028 23.1199 40.3939 23.7982ZM43.9395 26.0797C44.7719 26.9738 47.1768 27.7754 48.9342 27.7754C49.9516 27.7754 50.1058 27.8679 50.075 28.4537C50.075 28.8545 49.9208 29.6561 49.705 30.2419C49.335 31.2902 49.3042 31.3211 47.5159 31.3211C45.9435 31.3211 45.6352 31.4135 45.1111 32.0918C44.3403 33.1401 44.0628 35.0208 44.5561 35.9458C44.8644 36.5316 44.8644 36.8707 44.5561 37.6107C44.2478 38.3815 44.2786 38.659 44.7103 39.3989C45.1111 40.0772 45.1727 40.5705 44.9569 41.8038C44.8129 42.7043 44.0482 43.3843 43.1379 43.4379C41.5963 43.5304 41.5655 43.4995 41.3496 42.5437C41.0722 41.0638 41.1338 39.5531 41.5038 39.3373C41.7196 39.1831 41.7504 38.5665 41.6271 37.6415C41.5038 36.7166 41.5346 36.0999 41.7504 35.9458C42.7371 35.36 41.3496 31.5985 40.0239 31.2902C39.6231 31.1669 38.729 31.1669 38.0507 31.2594C36.6632 31.4444 36.3858 31.1361 36.0466 29.0395L36.0383 28.9911C35.9298 28.3556 36.4194 27.7754 37.064 27.7754C38.8523 27.7754 41.2571 26.9738 42.0896 26.0797C42.4904 25.648 42.8912 25.3089 43.0145 25.3089C43.1379 25.3089 43.5387 25.648 43.9395 26.0797Z" fill="white"/>
<defs>
<linearGradient id="paint0_linear_2657_13578" x1="-3.5" y1="18.5" x2="42.875" y2="86.5" gradientUnits="userSpaceOnUse">
<stop stop-color="#5890E9"/>
<stop offset="1" stop-color="#081571"/>
</linearGradient>
</defs>
</svg>
