<svg width="16" height="12" viewBox="0 0 16 12" fill="none" xmlns="http://www.w3.org/2000/svg">
<path d="M14.7031 1.94531L11.75 3.60937V1.3125C11.75 1.06386 11.6512 0.825403 11.4754 0.649587C11.2996 0.473772 11.0611 0.375 10.8125 0.375H2.375C1.87772 0.375 1.40081 0.572544 1.04917 0.924175C0.697544 1.27581 0.5 1.75272 0.5 2.25V9.75C0.5 10.2473 0.697544 10.7242 1.04917 11.0758C1.40081 11.4275 1.87772 11.625 2.375 11.625H10.8125C11.0611 11.625 11.2996 11.5262 11.4754 11.3504C11.6512 11.1746 11.75 10.9361 11.75 10.6875V8.38125L14.7031 10.0453C14.7789 10.0948 14.8663 10.1235 14.9567 10.1285C15.0471 10.1335 15.1372 10.1146 15.2179 10.0738C15.2987 10.0329 15.3673 9.97152 15.4168 9.89576C15.4663 9.82001 15.495 9.73255 15.5 9.64219V2.34375C15.4942 2.25379 15.465 2.16691 15.4151 2.09179C15.3653 2.01666 15.2967 1.95591 15.216 1.9156C15.1354 1.87528 15.0456 1.85681 14.9556 1.86203C14.8656 1.86724 14.7786 1.89596 14.7031 1.94531Z" fill="#62718A"/>
</svg>
