<svg width="171" height="34" viewBox="0 0 171 34" fill="none" xmlns="http://www.w3.org/2000/svg">
<path d="M27.7276 0.938477C30.7591 1.46302 33.7072 2.38947 36.4939 3.69334C41.303 10.8752 43.6923 18.9751 42.8101 28.3178C39.1305 31.069 35.5615 32.7381 32.0523 33.8305C31.1806 32.6327 30.4103 31.3643 29.7496 30.0384C31.0108 29.5586 32.2265 28.9668 33.3821 28.27C33.0797 28.0433 32.7834 27.8088 32.4932 27.5667C25.5853 30.8372 17.9888 30.8372 10.9975 27.5667C10.71 27.8091 10.4125 28.0449 10.1083 28.27C11.2621 28.9649 12.4756 29.5555 13.7344 30.0347C13.0733 31.3605 12.3031 32.629 11.4318 33.8272C7.92587 32.7348 4.36019 31.0657 0.680617 28.3178C-0.0717658 20.2587 1.432 12.0834 6.97992 3.69998C9.76795 2.39195 12.7186 1.46319 15.7532 0.938477C16.134 1.62113 16.5853 2.53953 16.8894 3.27C20.0978 2.77859 23.3361 2.77859 26.6046 3.27C26.9396 2.47446 27.3143 1.6963 27.7276 0.938477V0.938477ZM112.041 11.4596C114.38 11.4596 116.322 11.9609 117.866 12.9647V17.3375C117.322 16.955 116.686 16.6446 115.961 16.4055C115.236 16.1664 114.46 16.0469 113.632 16.0469C112.181 16.0469 111.049 16.3168 110.23 16.8594C109.411 17.4023 109 18.1088 109 18.986C109 19.846 109.397 20.5496 110.193 21.1024C110.989 21.6519 112.141 21.9285 113.655 21.9285C114.434 21.9285 115.203 21.8123 115.961 21.5839C116.717 21.3514 117.368 21.0682 117.913 20.7339V24.9629C116.199 26.0145 114.21 26.5401 111.947 26.5401C110.043 26.5334 108.418 26.1988 107.078 25.5297C105.738 24.8607 104.725 23.9526 104.05 22.8057C103.375 21.6589 103.034 20.3686 103.034 18.9349C103.034 17.5012 103.385 16.2179 104.087 15.088C104.789 13.9581 105.818 13.0706 107.175 12.4251C108.532 11.7803 110.153 11.4596 112.041 11.4596ZM94.4712 11.4562C95.7811 11.4562 96.981 11.5993 98.0744 11.8862C99.1668 12.1731 100.069 12.5383 100.788 12.9852V16.7369C100.052 16.2896 99.2099 15.938 98.248 15.6717C97.2829 15.4086 96.2867 15.2766 95.2863 15.2792C93.8194 15.2792 93.0879 15.5349 93.0879 16.0439C93.0879 16.283 93.2015 16.4603 93.4286 16.5798C93.6557 16.6993 94.0734 16.8222 94.6784 16.9517L97.0175 17.382C98.5455 17.6516 99.6847 18.1257 100.433 18.8018C101.182 19.4778 101.556 20.4779 101.556 21.8023C101.556 23.2533 100.938 24.4035 99.698 25.2568C98.4582 26.1101 96.7001 26.5368 94.4211 26.5368C93.0806 26.5334 91.7781 26.3661 90.5144 26.0314C89.251 25.6971 88.1111 25.2123 87.0988 24.5738V20.608C87.8641 21.2123 88.8901 21.7104 90.1767 22.1032C91.4633 22.4923 92.7068 22.6869 93.9097 22.6869C94.4709 22.6869 94.8959 22.6115 95.1831 22.4614C95.4706 22.3113 95.6147 22.1304 95.6147 21.9222C95.6147 21.6831 95.5377 21.4852 95.3803 21.3245C95.2232 21.1642 94.9188 21.031 94.4682 20.9185L91.6609 20.2733C90.0532 19.8912 88.9133 19.3619 88.2353 18.6829C87.5566 18.0069 87.219 17.1194 87.219 16.02C87.219 15.0953 87.5131 14.2931 88.1081 13.6068C88.6995 12.9208 89.5418 12.3916 90.6346 12.0197C91.7276 11.6445 93.0039 11.4566 94.4712 11.4566V11.4562ZM170.5 8.85178V26.0553H164.768V22.9256C164.283 24.1033 163.548 25.0008 162.559 25.6154C161.57 26.2263 160.347 26.5338 158.896 26.5338C157.6 26.5338 156.47 26.2127 155.504 25.5676C154.538 24.9224 153.793 24.0386 153.269 22.9153C152.747 21.7924 152.483 20.5227 152.483 19.1026C152.466 17.6383 152.744 16.3241 153.315 15.16C153.884 13.9959 154.688 13.0882 155.725 12.4361C156.761 11.7843 157.944 11.4566 159.271 11.4566C161.954 11.4566 163.769 12.6266 164.719 14.9641L164.768 15.088V8.85178H170.5ZM128.487 11.4526C130.342 11.4526 131.943 11.77 133.283 12.4085C134.623 13.0467 135.646 13.9206 136.348 15.0369C137.05 16.1531 137.4 17.4331 137.4 18.8838C137.4 20.3175 137.05 21.6147 136.348 22.7785C135.646 23.9426 134.62 24.857 133.27 25.5264C131.919 26.1954 130.325 26.5298 128.484 26.5298C126.642 26.5298 125.048 26.1988 123.702 25.5297C122.351 24.8607 121.322 23.9459 120.613 22.7818C119.905 21.6181 119.548 20.3208 119.548 18.8871C119.548 17.4537 119.901 16.1734 120.613 15.0505C121.325 13.9275 122.348 13.0467 123.691 12.4085C125.031 11.77 126.632 11.4526 128.487 11.4526ZM84.5395 15.3712V26.1304H78.8252V15.3712C80.576 16.1425 82.7485 16.1767 84.5395 15.3712ZM149.328 11.7667C150.154 11.7667 150.862 11.9579 151.457 12.3401V17.5012C150.862 17.1018 150.093 16.9039 149.141 16.9039C147.894 16.9039 146.932 17.2897 146.263 18.061C145.592 18.8326 145.257 20.0339 145.257 21.6589V26.0553H139.526V12.0775H145.141V16.5217C145.451 14.8967 145.956 13.6988 146.651 12.9238C147.343 12.1525 148.238 11.7667 149.328 11.7667ZM66.722 9.32957C68.9214 9.32957 70.7794 9.68119 72.3034 10.3808C73.8241 11.0807 74.964 12.0569 75.7194 13.306C76.4741 14.5554 76.8549 15.9855 76.8549 17.5968C76.8549 19.174 76.4608 20.604 75.6722 21.884C74.8833 23.1676 73.6834 24.1817 72.0697 24.9287C70.4557 25.6765 68.4565 26.052 66.0672 26.052H57.5984V9.32957H66.722ZM14.687 14.6673C12.5514 14.6673 10.867 16.6303 10.867 19.0163C10.867 21.4022 12.5883 23.3615 14.687 23.3615C16.8227 23.3615 18.5104 21.4022 18.5071 19.0163C18.5436 16.6266 16.8227 14.6673 14.687 14.6673ZM28.8037 14.6673C26.6681 14.6673 24.9837 16.6303 24.9837 19.0163C24.9837 21.4022 26.7049 23.3615 28.8037 23.3615C30.9393 23.3615 32.6237 21.4022 32.6237 19.0163C32.6602 16.6266 30.9393 14.6673 28.8037 14.6673ZM128.484 15.856C127.485 15.856 126.702 16.1392 126.131 16.706C125.563 17.2728 125.279 18.0305 125.279 18.9864C125.279 19.942 125.563 20.7099 126.131 21.2903C126.699 21.8707 127.484 22.1642 128.484 22.1642C129.466 22.1609 130.242 21.8707 130.81 21.2903C131.378 20.7099 131.665 19.9423 131.665 18.986C131.665 18.0305 131.381 17.2694 130.81 16.706C130.242 16.1392 129.466 15.856 128.484 15.856ZM161.61 15.9277C160.644 15.9277 159.872 16.2109 159.294 16.7777C158.716 17.3445 158.428 18.0783 158.428 18.9864C158.428 19.8941 158.716 20.6349 159.294 21.2083C159.872 21.7817 160.634 22.0683 161.587 22.0683C162.552 22.065 163.328 21.7751 163.913 21.195C164.498 20.6143 164.788 19.8603 164.788 18.9386C164.788 18.0474 164.504 17.3206 163.936 16.7638C163.368 16.2076 162.589 15.9277 161.61 15.9277ZM66.3043 13.5826H63.4502V21.8023H65.9736C67.4545 21.8023 68.594 21.4235 69.3892 20.6691C70.1847 19.9111 70.5825 18.8805 70.5825 17.5729C70.5825 16.361 70.2279 15.3951 69.5197 14.6716C68.8111 13.9478 67.7383 13.5826 66.3043 13.5826ZM81.685 8.32285C83.2628 8.32285 84.5424 9.49625 84.5424 10.9442C84.5424 12.3919 83.2628 13.566 81.685 13.566C80.1065 13.566 78.8272 12.3922 78.8272 10.9442C78.8272 9.49658 80.1065 8.32285 81.685 8.32285Z" fill="#FFC700"/>
</svg>
