<svg width="40" height="41" viewBox="0 0 40 41" fill="none" xmlns="http://www.w3.org/2000/svg">
<path d="M20.0137 0.093754C15.3502 0.0907966 10.8323 1.71744 7.24108 4.69244C3.6499 7.66743 1.21122 11.8037 0.34671 16.3862C-0.517801 20.9686 0.246207 25.7091 2.50663 29.7879C4.76706 33.8667 8.38179 37.0275 12.7258 38.7238C12.5508 37.1413 12.3908 34.7088 12.7933 32.9813C13.1583 31.4188 15.1384 23.0388 15.1384 23.0388C15.1384 23.0388 14.5409 21.8413 14.5409 20.0713C14.5409 17.2888 16.1535 15.2138 18.1611 15.2138C19.8662 15.2138 20.6912 16.4938 20.6912 18.0313C20.6912 19.7463 19.5986 22.3113 19.0336 24.6888C18.5636 26.6788 20.0337 28.3038 21.9963 28.3038C25.5514 28.3038 28.2841 24.5538 28.2841 19.1438C28.2841 14.3563 24.8414 11.0088 19.9287 11.0088C14.2384 11.0088 10.8982 15.2763 10.8982 19.6863C10.8982 21.4063 11.5608 23.2488 12.3858 24.2513C12.4569 24.3268 12.5071 24.4195 12.5316 24.5203C12.5562 24.6211 12.5542 24.7265 12.5258 24.8263C12.3733 25.4563 12.0358 26.8163 11.9708 27.0938C11.8833 27.4588 11.6808 27.5363 11.3008 27.3613C8.80063 26.1988 7.24056 22.5463 7.24056 19.6113C7.24056 13.3038 11.8258 7.51125 20.4562 7.51125C27.394 7.51125 32.7868 12.4538 32.7868 19.0613C32.7868 25.9538 28.4391 31.5013 22.4088 31.5013C20.3812 31.5013 18.4761 30.4488 17.8236 29.2038L16.5785 33.9588C16.126 35.6963 14.9059 37.8738 14.0909 39.2013C16.8409 40.0515 19.7421 40.2982 22.5963 39.9244C25.4504 39.5506 28.1902 38.5652 30.6286 37.0355C33.067 35.5058 35.1464 33.4678 36.7248 31.0608C38.3032 28.6537 39.3435 25.9344 39.7745 23.0884C40.2055 20.2425 40.0171 17.3371 39.2222 14.5706C38.4273 11.8042 37.0446 9.24191 35.1685 7.05884C33.2925 4.87577 30.9673 3.12335 28.3518 1.92129C25.7363 0.719229 22.8922 0.0958558 20.0137 0.093754Z" fill="#FFC700"/>
</svg>
