<svg width="40" height="41" viewBox="0 0 40 41" fill="none" xmlns="http://www.w3.org/2000/svg">
<path d="M20 0.09375C8.95536 0.09375 0 9.04911 0 20.0938C0 31.1384 8.95536 40.0938 20 40.0938C31.0446 40.0938 40 31.1384 40 20.0938C40 9.04911 31.0446 0.09375 20 0.09375ZM29.6116 15.1696C29.625 15.3795 29.625 15.5982 29.625 15.8125C29.625 22.3661 24.6339 29.9152 15.5134 29.9152C12.7009 29.9152 10.0938 29.0982 7.89732 27.692C8.29911 27.7366 8.68304 27.7545 9.09375 27.7545C11.4152 27.7545 13.5491 26.9688 15.25 25.6384C13.0714 25.5938 11.2411 24.1652 10.6161 22.2009C11.3795 22.3125 12.067 22.3125 12.8527 22.1116C11.7309 21.8837 10.7227 21.2745 9.99918 20.3874C9.2757 19.5004 8.88164 18.3902 8.88393 17.2455V17.183C9.54018 17.5536 10.3125 17.7812 11.1205 17.8125C10.4413 17.3598 9.88419 16.7465 9.49871 16.0269C9.11323 15.3074 8.91127 14.5038 8.91072 13.6875C8.91072 12.7634 9.15179 11.9196 9.58482 11.1875C10.8299 12.7203 12.3836 13.9738 14.1449 14.8668C15.9062 15.7598 17.8358 16.2721 19.808 16.3705C19.1071 13 21.625 10.2723 24.6518 10.2723C26.0804 10.2723 27.3661 10.8705 28.2723 11.8348C29.3929 11.625 30.4643 11.2054 31.4196 10.6429C31.0491 11.7902 30.2723 12.7589 29.2411 13.3705C30.2411 13.2634 31.2054 12.9866 32.0982 12.5982C31.4241 13.5893 30.5804 14.4688 29.6116 15.1696Z" fill="#FFC700"/>
</svg>
