<svg width="32" height="33" viewBox="0 0 32 33" fill="none" xmlns="http://www.w3.org/2000/svg">
<rect y="0.64502" width="32" height="32" rx="16" fill="#70D44B"/>
<path d="M15.9999 10.1692C16.3155 10.1682 16.625 10.2556 16.8935 10.4214C17.162 10.5873 17.3787 10.825 17.519 11.1077L22.2963 20.6622C22.4259 20.9211 22.4871 21.2089 22.4741 21.4982C22.4612 21.7875 22.3745 22.0687 22.2223 22.3151C22.07 22.5615 21.8574 22.7648 21.6044 22.9058C21.3515 23.0469 21.0667 23.1209 20.7771 23.1208H11.2226C10.933 23.1209 10.6482 23.0469 10.3953 22.9058C10.1424 22.7648 9.9297 22.5615 9.77748 22.3151C9.62526 22.0687 9.53855 21.7875 9.5256 21.4982C9.51265 21.2089 9.57387 20.9211 9.70347 20.6622L14.4807 11.1077C14.6211 10.825 14.8377 10.5873 15.1062 10.4214C15.3747 10.2556 15.6843 10.1682 15.9999 10.1692ZM15.9999 9.00143C15.4676 9.00137 14.9458 9.14952 14.493 9.42927C14.0402 9.70902 13.6742 10.1093 13.4361 10.5854L8.65884 20.1398C8.44021 20.5769 8.33694 21.0625 8.35884 21.5507C8.38074 22.0389 8.52708 22.5134 8.78397 22.9291C9.04085 23.3448 9.39975 23.6879 9.82657 23.9258C10.2534 24.1638 10.734 24.2887 11.2226 24.2886H20.7771C21.2658 24.2887 21.7463 24.1638 22.1732 23.9258C22.6 23.6879 22.9589 23.3448 23.2158 22.9291C23.4727 22.5134 23.619 22.0389 23.6409 21.5507C23.6628 21.0625 23.5595 20.5769 23.3409 20.1398L18.5637 10.5854C18.3255 10.1093 17.9595 9.70902 17.5067 9.42927C17.0539 9.14952 16.5321 9.00137 15.9999 9.00143Z" fill="white" stroke="white" stroke-width="0.5"/>
</svg>
