<svg width="32" height="33" viewBox="0 0 32 33" fill="none" xmlns="http://www.w3.org/2000/svg">
<rect y="0.64502" width="32" height="32" rx="16" fill="#F3BA2F"/>
<path d="M17.9726 23.4068V25.7018L15.9715 26.8778L14.0274 25.7018V23.4068L15.9715 24.5828L17.9726 23.4068ZM7.26562 15.4691L9.20976 16.645V20.5807L12.5575 22.5817V24.8768L7.26562 21.7567V15.4691ZM24.6775 15.4691V21.7662L19.3287 24.8862V22.5912L22.6764 20.5902V16.6545L24.6775 15.4691ZM19.3193 12.349L21.3203 13.5249V15.8199L17.9726 17.821V21.8136L16.0285 22.9895L14.0938 21.8136V17.8115L10.6228 15.8105V13.5154L12.6238 12.3395L15.9715 14.3405L19.3193 12.349ZM10.6228 17.4606L12.5669 18.6366V20.9316L10.6228 19.7556V17.4606ZM21.3203 17.4606V19.7556L19.3762 20.9316V18.6366L21.3203 17.4606ZM9.20976 10.3479L11.2108 11.5239L9.20976 12.6998V14.9949L7.26562 13.8189V11.5239L9.20976 10.3479ZM22.7333 10.3479L24.7344 11.5239V13.8189L22.7333 14.9949V12.6998L20.7892 11.5239L22.7333 10.3479ZM15.9715 10.3479L17.9726 11.5239L15.9715 12.6998L14.0274 11.5239L15.9715 10.3479ZM15.9715 6.41224L21.3203 9.53234L19.3762 10.7083L16.0285 8.70726L12.6144 10.7083L10.6702 9.53234L15.9715 6.41224Z" fill="white"/>
</svg>
