<svg width="32" height="33" viewBox="0 0 32 33" fill="none" xmlns="http://www.w3.org/2000/svg">
<rect y="0.64502" width="32" height="32" rx="16" fill="#1D2645"/>
<path fill-rule="evenodd" clip-rule="evenodd" d="M26.0654 14.6328C26.0654 14.6327 26.0654 14.6325 26.0654 14.6323C26.0654 10.3562 22.5989 6.88967 18.3227 6.88967C14.0466 6.88967 10.5801 10.3562 10.5801 14.6323C10.5801 14.6325 10.5801 14.6327 10.5801 14.6328H26.0654Z" fill="#53CBC8"/>
<rect x="10.5806" y="15.5616" width="17.0339" height="0.774267" rx="0.309707" fill="#E1147B"/>
<rect x="9.03174" y="15.5616" width="0.774267" height="0.774267" rx="0.309707" fill="#E1147B"/>
<rect x="10.5815" y="19.5873" width="17.0339" height="0.774267" rx="0.309707" fill="#E1147B"/>
<rect x="9.03223" y="19.5876" width="0.774267" height="0.774267" rx="0.309707" fill="#E1147B"/>
<path d="M5.93506 18.0387C5.93506 17.8676 6.07372 17.729 6.24477 17.729H19.5622C19.7332 17.729 19.8719 17.8676 19.8719 18.0387V18.1935C19.8719 18.3646 19.7332 18.5032 19.5622 18.5032H6.24477C6.07372 18.5032 5.93506 18.3646 5.93506 18.1935V18.0387Z" fill="#E1147B"/>
<rect x="4.38574" y="17.7291" width="0.774267" height="0.774267" rx="0.309707" fill="#E1147B"/>
<path d="M17.5498 23.9225C17.5498 23.7515 17.6885 23.6128 17.8595 23.6128H25.3182C25.4893 23.6128 25.6279 23.7515 25.6279 23.9225V24.0774C25.6279 24.2484 25.4893 24.3871 25.3182 24.3871H17.8595C17.6885 24.3871 17.5498 24.2484 17.5498 24.0774V23.9225Z" fill="#E1147B"/>
<path d="M12.9043 25.9358C12.9043 25.7648 13.043 25.6261 13.214 25.6261H20.8359C21.007 25.6261 21.1456 25.7648 21.1456 25.9358V26.0907C21.1456 26.2617 21.007 26.4004 20.8359 26.4004H13.214C13.043 26.4004 12.9043 26.2617 12.9043 26.0907V25.9358Z" fill="#E1147B"/>
<path d="M15.8631 23.9229C15.8631 23.7519 16.0018 23.6132 16.1728 23.6132H16.3881C16.5592 23.6132 16.6978 23.7519 16.6978 23.9229V24.0778C16.6978 24.2488 16.5592 24.3875 16.3881 24.3875H16.1728C16.0018 24.3875 15.8631 24.2488 15.8631 24.0778V23.9229Z" fill="#E1147B"/>
<path d="M11.3555 25.9357C11.3555 25.7647 11.4941 25.626 11.6652 25.626H11.8201C11.9911 25.626 12.1298 25.7647 12.1298 25.9357V26.0906C12.1298 26.2616 11.9911 26.4003 11.8201 26.4003H11.6652C11.4941 26.4003 11.3555 26.2616 11.3555 26.0906V25.9357Z" fill="#E1147B"/>
</svg>
