<svg width="32" height="33" viewBox="0 0 32 33" fill="none" xmlns="http://www.w3.org/2000/svg">
<rect y="0.64502" width="32" height="32" rx="16" fill="black"/>
<path d="M20.7067 9.64143L17.4476 14.4781C17.2223 14.8074 17.6557 15.2062 17.9677 14.9288L21.1748 12.1378C21.2615 12.0684 21.3828 12.1204 21.3828 12.2418V20.9616C21.3828 21.0829 21.2268 21.1349 21.1575 21.0483L11.4495 9.43341C11.1375 9.05202 10.6868 8.84399 10.184 8.84399H9.83731C8.93586 8.84399 8.19043 9.58943 8.19043 10.5082V22.7818C8.19043 23.7006 8.93586 24.446 9.85465 24.446C10.4267 24.446 10.9641 24.1513 11.2762 23.6486L14.5353 18.812C14.7606 18.4826 14.3272 18.0839 14.0152 18.3612L10.8081 21.1349C10.7214 21.2043 10.6001 21.1523 10.6001 21.0309V12.3285C10.6001 12.2071 10.7561 12.1551 10.8254 12.2418L20.5334 23.8566C20.8454 24.238 21.3135 24.446 21.7989 24.446H22.1456C23.0644 24.446 23.8098 23.7006 23.8098 22.7818V10.5082C23.7925 9.58943 23.047 8.84399 22.1283 8.84399C21.5562 8.84399 21.0188 9.1387 20.7067 9.64143Z" fill="white"/>
</svg>
