<svg width="32" height="33" viewBox="0 0 32 33" fill="none" xmlns="http://www.w3.org/2000/svg">
<rect y="0.64502" width="32" height="32" rx="16" fill="#7B3FE4"/>
<path d="M20.4162 13.6712C20.2507 13.5758 20.0631 13.5257 19.8722 13.5257C19.6812 13.5257 19.4936 13.5758 19.3282 13.6712L16.8322 15.1581L15.1362 16.1278L12.6402 17.6148C12.4748 17.7101 12.2872 17.7603 12.0962 17.7603C11.9053 17.7603 11.7177 17.7101 11.5522 17.6148L9.56825 16.4511C9.40545 16.3539 9.27008 16.2168 9.1749 16.0528C9.07973 15.8888 9.02788 15.7032 9.02425 15.5136V13.2186C9.02109 13.0277 9.07007 12.8395 9.16593 12.6743C9.26179 12.5091 9.40089 12.3732 9.56825 12.2812L11.5202 11.1499C11.6857 11.0545 11.8733 11.0043 12.0642 11.0043C12.2552 11.0043 12.4428 11.0545 12.6082 11.1499L14.5602 12.2812C14.723 12.3784 14.8584 12.5155 14.9535 12.6795C15.0487 12.8435 15.1006 13.0291 15.1042 13.2186V14.7056L16.8002 13.7035V12.2166C16.8033 12.0256 16.7544 11.8374 16.6585 11.6722C16.5627 11.5071 16.4236 11.3711 16.2562 11.2792L12.6402 9.14577C12.4748 9.05043 12.2872 9.00024 12.0962 9.00024C11.9053 9.00024 11.7177 9.05043 11.5522 9.14577L7.87226 11.2792C7.7049 11.3712 7.56581 11.5071 7.46995 11.6722C7.37409 11.8374 7.32511 12.0256 7.32827 12.2166V16.5157C7.32511 16.7067 7.37409 16.8949 7.46995 17.06C7.56581 17.2252 7.7049 17.3611 7.87227 17.4531L11.5522 19.5865C11.7177 19.6819 11.9053 19.7321 12.0962 19.7321C12.2872 19.7321 12.4748 19.6819 12.6402 19.5865L15.1362 18.1319L16.8322 17.1299L19.3282 15.6753C19.4936 15.5799 19.6812 15.5297 19.8722 15.5297C20.0631 15.5297 20.2507 15.5799 20.4162 15.6753L22.3682 16.8066C22.531 16.9039 22.6663 17.0409 22.7615 17.2049C22.8567 17.3689 22.9085 17.5544 22.9121 17.744V20.0391C22.9153 20.23 22.8663 20.4182 22.7705 20.5834C22.6746 20.7486 22.5355 20.8845 22.3682 20.9764L20.4162 22.1402C20.2507 22.2355 20.0631 22.2857 19.8722 22.2857C19.6812 22.2857 19.4936 22.2355 19.3282 22.1402L17.3762 21.0088C17.2134 20.9116 17.078 20.7745 16.9828 20.6105C16.8877 20.4465 16.8358 20.261 16.8322 20.0714V18.5845L15.1362 19.5865V21.0734C15.133 21.2644 15.182 21.4526 15.2779 21.6178C15.3737 21.7829 15.5128 21.9188 15.6802 22.0108L19.3602 24.1443C19.5256 24.2396 19.7132 24.2898 19.9042 24.2898C20.0951 24.2898 20.2827 24.2396 20.4481 24.1443L24.1281 22.0108C24.2909 21.9136 24.4263 21.7766 24.5215 21.6126C24.6167 21.4486 24.6685 21.263 24.6721 21.0734V16.7743C24.6753 16.5833 24.6263 16.3951 24.5305 16.23C24.4346 16.0648 24.2955 15.9289 24.1281 15.8369L20.4162 13.6712Z" fill="white"/>
</svg>
