<svg width="36" height="16" viewBox="0 0 36 16" fill="none" xmlns="http://www.w3.org/2000/svg">
<path d="M3.60156 9.89062H8.375V12H0.859375V0.625H3.60156V9.89062ZM9.07812 7.69531C9.07812 6.85156 9.24219 6.10156 9.57031 5.44531C9.89844 4.78385 10.3698 4.27604 10.9844 3.92188C11.599 3.56771 12.3203 3.39062 13.1484 3.39062C14.4141 3.39062 15.4115 3.78385 16.1406 4.57031C16.8698 5.35156 17.2344 6.41667 17.2344 7.76562V7.85938C17.2344 9.17708 16.8672 10.224 16.1328 11C15.4036 11.7708 14.4141 12.1562 13.1641 12.1562C11.9609 12.1562 10.9948 11.7969 10.2656 11.0781C9.53646 10.3542 9.14323 9.375 9.08594 8.14062L9.07812 7.69531ZM11.7109 7.85938C11.7109 8.64062 11.8333 9.21354 12.0781 9.57812C12.3229 9.94271 12.6849 10.125 13.1641 10.125C14.1016 10.125 14.5807 9.40365 14.6016 7.96094V7.69531C14.6016 6.17969 14.1172 5.42188 13.1484 5.42188C12.2682 5.42188 11.7917 6.07552 11.7188 7.38281L11.7109 7.85938ZM18.0859 7.71094C18.0859 6.85677 18.2266 6.10156 18.5078 5.44531C18.7891 4.78906 19.1927 4.28385 19.7188 3.92969C20.2448 3.57031 20.8568 3.39062 21.5547 3.39062C22.4349 3.39062 23.1224 3.6875 23.6172 4.28125L23.7109 3.54688H26.1016V11.6797C26.1016 12.4245 25.9271 13.0703 25.5781 13.6172C25.2344 14.1693 24.7344 14.5911 24.0781 14.8828C23.4219 15.1797 22.6615 15.3281 21.7969 15.3281C21.1771 15.3281 20.5755 15.2109 19.9922 14.9766C19.4141 14.7422 18.9714 14.4375 18.6641 14.0625L19.7656 12.5156C20.2552 13.0938 20.901 13.3828 21.7031 13.3828C22.8698 13.3828 23.4531 12.7839 23.4531 11.5859V11.3203C22.9479 11.8776 22.3099 12.1562 21.5391 12.1562C20.5078 12.1562 19.6745 11.763 19.0391 10.9766C18.4036 10.1849 18.0859 9.1276 18.0859 7.80469V7.71094ZM20.7266 7.875C20.7266 8.56771 20.8568 9.11719 21.1172 9.52344C21.3776 9.92448 21.7422 10.125 22.2109 10.125C22.7786 10.125 23.1927 9.9349 23.4531 9.55469V6C23.1979 5.61458 22.7891 5.42188 22.2266 5.42188C21.7578 5.42188 21.3906 5.63281 21.125 6.05469C20.8594 6.47135 20.7266 7.07812 20.7266 7.875ZM27.2656 7.69531C27.2656 6.85156 27.4297 6.10156 27.7578 5.44531C28.0859 4.78385 28.5573 4.27604 29.1719 3.92188C29.7865 3.56771 30.5078 3.39062 31.3359 3.39062C32.6016 3.39062 33.599 3.78385 34.3281 4.57031C35.0573 5.35156 35.4219 6.41667 35.4219 7.76562V7.85938C35.4219 9.17708 35.0547 10.224 34.3203 11C33.5911 11.7708 32.6016 12.1562 31.3516 12.1562C30.1484 12.1562 29.1823 11.7969 28.4531 11.0781C27.724 10.3542 27.3307 9.375 27.2734 8.14062L27.2656 7.69531ZM29.8984 7.85938C29.8984 8.64062 30.0208 9.21354 30.2656 9.57812C30.5104 9.94271 30.8724 10.125 31.3516 10.125C32.2891 10.125 32.7682 9.40365 32.7891 7.96094V7.69531C32.7891 6.17969 32.3047 5.42188 31.3359 5.42188C30.4557 5.42188 29.9792 6.07552 29.9062 7.38281L29.8984 7.85938Z" fill="black"/>
</svg>
