<svg width="75" height="75" viewBox="0 0 75 75" fill="none" xmlns="http://www.w3.org/2000/svg">
<path d="M23 0H75V52H53C36.4315 52 23 38.5685 23 22V0Z" fill="#F0F0F3"/>
<path fill-rule="evenodd" clip-rule="evenodd" d="M22.9771 21.2524L23.0027 21.2781L23.0027 -4.67065e-05L2.84909 -4.58255e-05C13.9867 0.0424876 23.0024 9.08439 23.0024 20.232C23.0024 20.5742 22.9939 20.9144 22.9771 21.2524ZM2.69124 -4.58186e-05L1.72461 -4.57764e-05L1.74974 0.0250893C2.06177 0.00959013 2.37565 0.00115964 2.69124 -4.58186e-05Z" fill="#F0F0F3"/>
<path fill-rule="evenodd" clip-rule="evenodd" d="M74.9747 73.2524L75.0003 73.2781L75.0003 52L54.8466 52C65.9843 52.0425 74.9999 61.0844 74.9999 72.232C74.9999 72.5742 74.9914 72.9144 74.9747 73.2524ZM54.6888 52L53.7222 52L53.7473 52.0251C54.0593 52.0096 54.3732 52.0012 54.6888 52Z" fill="#F0F0F3"/>

</svg>
