<svg width="305" height="130" viewBox="0 0 305 130" fill="none" xmlns="http://www.w3.org/2000/svg">
<path d="M24.6908 56.5V41.5678H34.071L36.4664 48.4183L38.7723 41.5678H48.0853V56.5H42.3766V46.202L38.7723 56.5H34.071L30.3995 46.202V56.5H24.6908Z" fill="url(#paint0_linear_157_2129)"/>
<path d="M66.4154 45.2841V56.5H61.2887V55.4254C59.4978 56.4328 58.1769 56.791 56.095 56.791C53.4533 56.791 51.8638 56.0299 51.1698 54.4404C50.834 53.6792 50.7668 53.0076 50.7668 50.8808V45.2841H55.8935V49.9182C55.8935 51.2167 56.0054 51.8659 56.274 52.3584C56.5875 52.8957 57.3486 53.2091 58.3337 53.2091C59.5426 53.2091 60.4604 52.7614 60.9082 51.9554C61.1768 51.4853 61.2887 50.8585 61.2887 49.9182V45.2841H66.4154Z" fill="url(#paint1_linear_157_2129)"/>
<path d="M68.8251 56.5V41.5678H73.9518V56.5H68.8251Z" fill="url(#paint2_linear_157_2129)"/>
<path d="M83.8897 53.6121V56.5H80.8227C78.6735 56.5 77.7333 56.1866 77.2631 55.2911C76.9945 54.7538 76.9721 54.6643 76.9721 52.4703V48.3063H75.1587V45.2841H76.9721V41.5678H82.0987V45.2841H83.8897V48.3063H82.0987V52.4256C82.0987 53.4554 82.3002 53.6121 83.5315 53.6121H83.8897Z" fill="url(#paint3_linear_157_2129)"/>
<path d="M85.7029 56.5V45.2841H90.8295V56.5H85.7029ZM85.7029 44.2319V41.5678H90.8295V44.2319H85.7029Z" fill="url(#paint4_linear_157_2129)"/>
<path d="M104.439 51.6196H110.17C109.946 53.3658 109.521 54.3285 108.558 55.2015C107.282 56.3657 104.999 56.9701 101.909 56.9701C99.2451 56.9701 97.0288 56.5895 95.5288 55.8732C93.805 55.0448 92.7529 53.1867 92.7529 50.9256C92.7529 48.3735 93.917 46.493 95.999 45.6871C97.4541 45.1274 99.4913 44.7916 101.529 44.7916C103.006 44.7916 104.618 44.9931 105.849 45.3065C107.775 45.8214 109.006 46.7169 109.7 48.1496C109.924 48.5974 110.036 48.9779 110.17 49.7167H104.282C103.834 48.6421 102.894 48.0825 101.529 48.0825C99.6033 48.0825 98.4615 49.1347 98.4615 50.9032C98.4615 52.6942 99.6257 53.7688 101.551 53.7688C103.208 53.7688 104.081 53.1196 104.439 51.6196Z" fill="url(#paint5_linear_157_2129)"/>
<path d="M112.025 56.5V41.5678H117.152V46.3587C118.92 45.3513 120.264 44.9931 122.346 44.9931C125.032 44.9931 126.621 45.7766 127.293 47.4332C127.606 48.1944 127.674 48.7765 127.674 50.9256V56.5H122.547V51.8659C122.547 50.5674 122.435 49.9182 122.166 49.4257C121.853 48.8884 121.114 48.575 120.107 48.575C118.898 48.575 117.98 49.0227 117.532 49.851C117.264 50.2988 117.152 50.9256 117.152 51.8659V56.5H112.025Z" fill="url(#paint6_linear_157_2129)"/>
<path d="M136.106 48.3959L130.486 48.6198C130.845 47.0079 131.471 46.2243 132.904 45.5975C134.091 45.0602 135.837 44.7916 138.21 44.7916C142.262 44.7916 144.613 45.3736 145.642 46.6049C146.202 47.2765 146.381 48.0153 146.381 49.6496V54.015C146.381 55.3806 146.471 55.8732 146.851 56.5H141.456L141.366 55.4926C139.665 56.4328 138.21 56.791 135.926 56.791C131.942 56.791 129.569 55.3583 129.569 52.9181C129.569 51.6644 130.263 50.7241 131.561 50.2316C133.15 49.6496 135.747 49.269 138.814 49.2018C140.852 49.157 141.187 49.0675 141.187 48.6645C141.187 48.0825 140.09 47.6571 138.523 47.6571C137.18 47.6571 136.464 47.881 136.106 48.3959ZM141.232 51.6868V51.4181C140.516 51.5301 140.516 51.5301 139.173 51.5748C137.695 51.5972 137.158 51.642 136.732 51.6868C136.083 51.7987 135.68 52.1345 135.68 52.6047C135.68 53.2315 136.352 53.5449 137.74 53.5449C140.404 53.5449 141.232 53.0972 141.232 51.6868Z" fill="url(#paint7_linear_157_2129)"/>
<path d="M148.798 56.5V45.2841H153.924V56.5H148.798ZM148.798 44.2319V41.5678H153.924V44.2319H148.798Z" fill="url(#paint8_linear_157_2129)"/>
<path d="M156.34 56.5V45.2841H161.467V46.3587C163.235 45.3513 164.556 44.9931 166.638 44.9931C169.347 44.9931 170.936 45.7766 171.608 47.4332C171.921 48.1944 171.989 48.7541 171.989 50.9256V56.5H166.862V51.8659C166.862 50.5674 166.75 49.9182 166.481 49.4257C166.168 48.8884 165.429 48.575 164.422 48.575C163.213 48.575 162.295 49.0227 161.847 49.851C161.579 50.2988 161.467 50.9256 161.467 51.8659V56.5H156.34Z" fill="url(#paint9_linear_157_2129)"/>
<path d="M180.613 56.5V41.5678H192.411C194.829 41.5678 195.993 41.7022 197 42.1051C198.276 42.62 199.082 43.9185 199.082 45.4408C199.082 46.7392 198.657 47.478 197.493 48.2392C198.545 48.7093 198.903 48.978 199.306 49.56C199.754 50.254 200 51.0823 200 52.0002C200 53.5897 199.329 55.0001 198.254 55.6717C197.247 56.2985 196.015 56.5 193.396 56.5H180.613ZM186.322 52.8733H191.113C193.083 52.8509 193.105 52.8509 193.418 52.6718C193.709 52.5151 193.889 52.1793 193.889 51.7987C193.889 51.3734 193.687 51.0599 193.284 50.9032C192.993 50.7913 192.904 50.7913 191.113 50.7689H186.322V52.8733ZM186.322 47.1198H190.463C191.65 47.1198 191.919 47.0974 192.277 47.0303C192.724 46.9407 192.993 46.6049 192.993 46.1348C192.993 45.3513 192.523 45.1722 190.486 45.1722H186.322V47.1198Z" fill="url(#paint10_linear_157_2129)"/>
<path d="M202.032 56.5V45.2841H207.159V46.3587C208.502 45.396 209.734 44.9931 211.345 44.9931C213.562 44.9931 214.86 45.7542 215.353 47.3213C215.577 48.0153 215.644 48.7765 215.666 50.5003H210.517C210.45 49.1794 210.025 48.6645 208.95 48.6645C207.696 48.6645 207.159 49.4481 207.159 51.2614V56.5H202.032Z" fill="url(#paint11_linear_157_2129)"/>
<path d="M217.292 56.5V45.2841H222.419V56.5H217.292ZM217.292 44.2319V41.5678H222.419V44.2319H217.292Z" fill="url(#paint12_linear_157_2129)"/>
<path d="M241.088 41.5678V56.5H235.961V55.3359C234.305 56.4328 233.185 56.791 231.282 56.791C227.006 56.791 224.342 54.4852 224.342 50.7913C224.342 47.2541 227.074 44.9931 231.372 44.9931C233.051 44.9931 234.372 45.3065 235.961 46.0676V41.5678H241.088ZM233.006 48.6198C231.148 48.6198 230.051 49.4705 230.051 50.9256C230.051 52.3808 231.148 53.2315 233.006 53.2315C234.887 53.2315 235.984 52.3808 235.984 50.9704C235.984 49.4705 234.909 48.6198 233.006 48.6198Z" fill="url(#paint13_linear_157_2129)"/>
<path d="M243.505 56.5V45.2841H248.632V56.5H243.505ZM243.505 44.2319V41.5678H248.632V44.2319H243.505Z" fill="url(#paint14_linear_157_2129)"/>
<path d="M251.048 56.5V45.2841H256.174V46.3587C257.943 45.3513 259.264 44.9931 261.346 44.9931C264.055 44.9931 265.644 45.7766 266.316 47.4332C266.629 48.1944 266.696 48.7541 266.696 50.9256V56.5H261.57V51.8659C261.57 50.5674 261.458 49.9182 261.189 49.4257C260.876 48.8884 260.137 48.575 259.129 48.575C257.921 48.575 257.003 49.0227 256.555 49.851C256.286 50.2988 256.174 50.9256 256.174 51.8659V56.5H251.048Z" fill="url(#paint15_linear_157_2129)"/>
<path d="M285.561 45.2841V54.2165C285.561 56.0523 285.337 56.9925 284.732 57.8208C284.195 58.582 283.411 59.0297 282.023 59.4103C280.747 59.7461 278.71 59.97 276.718 59.97C271.77 59.97 269.576 58.9178 269.084 56.3433H275.173C275.621 56.903 276.068 57.0821 277.143 57.0821C278.419 57.0821 279.337 56.8134 279.829 56.2761C280.188 55.8955 280.344 55.4254 280.434 54.4404C279.292 55.2015 278.016 55.515 276.091 55.515C273.606 55.515 271.412 54.9553 270.158 54.0374C269.218 53.321 268.636 51.9554 268.636 50.4555C268.636 47.0527 271.255 44.9931 275.598 44.9931C277.837 44.9931 279.315 45.4632 280.434 46.493V45.2841H285.561ZM277.434 48.6198C275.531 48.6198 274.345 49.3809 274.345 50.5898C274.345 51.8435 275.509 52.6047 277.412 52.6047C279.225 52.6047 280.434 51.7987 280.434 50.5898C280.434 49.4033 279.247 48.6198 277.434 48.6198Z" fill="url(#paint16_linear_157_2129)"/>
<path d="M26.2825 77.9256H32.8419C32.618 80.0972 31.924 81.2837 30.245 82.3359C28.3645 83.5224 26.2601 83.9701 22.5439 83.9701C18.8948 83.9701 16.7456 83.4104 14.977 82.0001C13.2085 80.6121 12.313 78.5525 12.313 75.9556C12.313 73.4034 13.2309 71.3214 14.9099 70.0902C16.7904 68.7022 19.1634 68.0977 22.6782 68.0977C26.7079 68.0977 29.4615 68.9036 31.23 70.5603C32.1479 71.4558 32.618 72.508 32.8419 74.2765H26.2825C25.8124 72.5527 24.8273 71.9035 22.7006 71.9035C20.0141 71.9035 18.6037 73.2691 18.6037 75.866C18.6037 78.5972 20.1037 80.1643 22.7006 80.1643C23.7975 80.1643 24.7826 79.8957 25.3199 79.4256C25.6781 79.1121 25.9019 78.7539 26.2825 77.9256Z" fill="url(#paint17_linear_157_2129)"/>
<path d="M40.6655 75.3959L35.0463 75.6198C35.4045 74.0079 36.0314 73.2243 37.4641 72.5975C38.6506 72.0602 40.3968 71.7916 42.7699 71.7916C46.8219 71.7916 49.1725 72.3736 50.2024 73.6049C50.762 74.2765 50.9411 75.0153 50.9411 76.6496V81.015C50.9411 82.3806 51.0307 82.8732 51.4113 83.5H46.016L45.9264 82.4926C44.225 83.4328 42.7699 83.791 40.4864 83.791C36.5015 83.791 34.1285 82.3583 34.1285 79.9181C34.1285 78.6644 34.8225 77.7241 36.1209 77.2316C37.7104 76.6496 40.3073 76.269 43.3743 76.2018C45.4115 76.157 45.7473 76.0675 45.7473 75.6645C45.7473 75.0825 44.6504 74.6571 43.0833 74.6571C41.74 74.6571 41.0237 74.881 40.6655 75.3959ZM45.7921 78.6868V78.4181C45.0757 78.5301 45.0757 78.5301 43.7325 78.5748C42.2549 78.5972 41.7177 78.642 41.2923 78.6868C40.6431 78.7987 40.2401 79.1345 40.2401 79.6047C40.2401 80.2315 40.9117 80.5449 42.2997 80.5449C44.9638 80.5449 45.7921 80.0972 45.7921 78.6868Z" fill="url(#paint18_linear_157_2129)"/>
<path d="M53.3575 83.5V72.2841H58.2827V73.6945C59.7826 72.508 61.4169 71.9931 63.6108 71.9931C65.8719 71.9931 67.1927 72.4856 68.2673 73.6945C69.9239 72.4632 71.5358 71.9931 73.9312 71.9931C76.5953 71.9931 78.2071 72.799 78.9011 74.478C79.2146 75.1944 79.3489 76.157 79.3489 77.5003V83.5H74.2222V79.2017C74.2222 78.1047 74.1551 77.4331 74.0208 76.9854C73.7073 76.0451 72.9686 75.575 71.7597 75.575C70.7299 75.575 69.812 75.9556 69.3866 76.56C69.0508 77.0525 68.8941 77.7913 68.8941 78.7987V83.5H63.7675V79.1793C63.7675 77.7689 63.7003 77.1869 63.5212 76.7167C63.2302 75.978 62.4467 75.575 61.3273 75.575C60.2751 75.575 59.3573 75.978 58.9319 76.672C58.6185 77.1421 58.4842 77.8137 58.4842 78.7763V83.5H53.3575Z" fill="url(#paint19_linear_157_2129)"/>
<path d="M81.9316 72.2841H87.0582V73.3363C88.4462 72.3289 89.588 71.9931 91.7595 71.9931C93.7967 71.9931 95.2967 72.396 96.5503 73.2691C98.0503 74.3437 98.8562 75.9556 98.8562 77.8808C98.8562 79.6718 98.1174 81.3508 96.8638 82.3583C95.722 83.2761 93.8639 83.791 91.67 83.791C89.6775 83.791 88.3119 83.4552 87.0582 82.6269V86.7461H81.9316V72.2841ZM90.1029 75.575C88.088 75.575 87.0582 76.3585 87.0582 77.8361C87.0582 79.4256 88.0657 80.1867 90.1029 80.1867C92.0953 80.1867 93.1475 79.4032 93.1475 77.8808C93.1475 76.3585 92.1177 75.575 90.1029 75.575Z" fill="url(#paint20_linear_157_2129)"/>
<path d="M106.821 75.3959L101.202 75.6198C101.56 74.0079 102.187 73.2243 103.62 72.5975C104.806 72.0602 106.552 71.7916 108.925 71.7916C112.977 71.7916 115.328 72.3736 116.358 73.6049C116.917 74.2765 117.097 75.0153 117.097 76.6496V81.015C117.097 82.3806 117.186 82.8732 117.567 83.5H112.171L112.082 82.4926C110.38 83.4328 108.925 83.791 106.642 83.791C102.657 83.791 100.284 82.3583 100.284 79.9181C100.284 78.6644 100.978 77.7241 102.276 77.2316C103.866 76.6496 106.463 76.269 109.53 76.2018C111.567 76.157 111.903 76.0675 111.903 75.6645C111.903 75.0825 110.806 74.6571 109.239 74.6571C107.896 74.6571 107.179 74.881 106.821 75.3959ZM111.948 78.6868V78.4181C111.231 78.5301 111.231 78.5301 109.888 78.5748C108.41 78.5972 107.873 78.642 107.448 78.6868C106.799 78.7987 106.396 79.1345 106.396 79.6047C106.396 80.2315 107.067 80.5449 108.455 80.5449C111.119 80.5449 111.948 80.0972 111.948 78.6868Z" fill="url(#paint21_linear_157_2129)"/>
<path d="M119.513 83.5V72.2841H124.64V83.5H119.513ZM119.513 71.2319V68.5678H124.64V71.2319H119.513Z" fill="url(#paint22_linear_157_2129)"/>
<path d="M143.51 72.2841V81.2165C143.51 83.0523 143.286 83.9925 142.682 84.8208C142.144 85.582 141.361 86.0297 139.973 86.4103C138.697 86.7461 136.66 86.97 134.667 86.97C129.72 86.97 127.526 85.9178 127.033 83.3433H133.122C133.57 83.903 134.018 84.0821 135.092 84.0821C136.368 84.0821 137.286 83.8134 137.779 83.2761C138.137 82.8955 138.294 82.4254 138.383 81.4404C137.242 82.2015 135.966 82.515 134.04 82.515C131.555 82.515 129.361 81.9553 128.108 81.0374C127.167 80.321 126.585 78.9554 126.585 77.4555C126.585 74.0527 129.205 71.9931 133.548 71.9931C135.786 71.9931 137.264 72.4632 138.383 73.493V72.2841H143.51ZM135.383 75.6198C133.481 75.6198 132.294 76.3809 132.294 77.5898C132.294 78.8435 133.458 79.6047 135.361 79.6047C137.174 79.6047 138.383 78.7987 138.383 77.5898C138.383 76.4033 137.197 75.6198 135.383 75.6198Z" fill="url(#paint23_linear_157_2129)"/>
<path d="M145.923 83.5V72.2841H151.049V73.3587C152.818 72.3513 154.139 71.9931 156.221 71.9931C158.93 71.9931 160.519 72.7766 161.191 74.4332C161.504 75.1944 161.571 75.7541 161.571 77.9256V83.5H156.445V78.8659C156.445 77.5674 156.333 76.9182 156.064 76.4257C155.751 75.8884 155.012 75.575 154.004 75.575C152.796 75.575 151.878 76.0227 151.43 76.851C151.161 77.2988 151.049 77.9256 151.049 78.8659V83.5H145.923Z" fill="url(#paint24_linear_157_2129)"/>
<path d="M179.733 68.0977C183.426 68.0977 185.755 68.7246 187.59 70.2021C189.135 71.4334 189.896 73.3811 189.896 76.0451C189.896 81.4404 186.65 83.9925 179.8 83.9925C176.061 83.9925 173.71 83.3657 171.875 81.8881C170.308 80.6121 169.569 78.7316 169.569 75.9108C169.569 73.4034 170.375 71.411 171.875 70.2021C173.688 68.7469 176.083 68.0977 179.733 68.0977ZM179.733 71.9035C177.225 71.9035 175.86 73.3363 175.86 75.978C175.86 78.7763 177.18 80.1867 179.755 80.1867C182.262 80.1867 183.605 78.7539 183.605 76.0451C183.605 73.3363 182.262 71.9035 179.733 71.9035Z" fill="url(#paint25_linear_157_2129)"/>
<path d="M191.965 83.5V72.2841H197.091V73.3587C198.86 72.3513 200.181 71.9931 202.263 71.9931C204.972 71.9931 206.561 72.7766 207.233 74.4332C207.546 75.1944 207.613 75.7541 207.613 77.9256V83.5H202.487V78.8659C202.487 77.5674 202.375 76.9182 202.106 76.4257C201.793 75.8884 201.054 75.575 200.046 75.575C198.838 75.575 197.92 76.0227 197.472 76.851C197.203 77.2988 197.091 77.9256 197.091 78.8659V83.5H191.965Z" fill="url(#paint26_linear_157_2129)"/>
<path d="M235.894 75.1944V83.4552H233.431L232.67 81.8434C231.909 82.5821 231.327 82.9403 230.409 83.2537C229.021 83.7239 227.364 83.9701 225.484 83.9701C219.17 83.9701 215.611 81.127 215.611 76.0899C215.611 73.5154 216.641 71.2767 218.432 70.0006C220.178 68.7469 222.73 68.0977 225.775 68.0977C228.998 68.0977 231.752 68.7917 233.453 70.023C234.953 71.0976 235.625 72.1498 235.894 73.8512H229.11C228.618 72.5303 227.543 71.9035 225.842 71.9035C223.379 71.9035 221.902 73.4034 221.902 75.9108C221.902 78.642 223.514 80.1643 226.446 80.1643C228.372 80.1643 229.446 79.627 229.871 78.4405H227.342V75.1944H235.894Z" fill="url(#paint27_linear_157_2129)"/>
<path d="M244.291 75.3959L238.672 75.6198C239.03 74.0079 239.657 73.2243 241.09 72.5975C242.276 72.0602 244.023 71.7916 246.396 71.7916C250.448 71.7916 252.798 72.3736 253.828 73.6049C254.388 74.2765 254.567 75.0153 254.567 76.6496V81.015C254.567 82.3806 254.657 82.8732 255.037 83.5H249.642L249.552 82.4926C247.851 83.4328 246.396 83.791 244.112 83.791C240.127 83.791 237.754 82.3583 237.754 79.9181C237.754 78.6644 238.448 77.7241 239.747 77.2316C241.336 76.6496 243.933 76.269 247 76.2018C249.037 76.157 249.373 76.0675 249.373 75.6645C249.373 75.0825 248.276 74.6571 246.709 74.6571C245.366 74.6571 244.65 74.881 244.291 75.3959ZM249.418 78.6868V78.4181C248.702 78.5301 248.702 78.5301 247.358 78.5748C245.881 78.5972 245.344 78.642 244.918 78.6868C244.269 78.7987 243.866 79.1345 243.866 79.6047C243.866 80.2315 244.538 80.5449 245.926 80.5449C248.59 80.5449 249.418 80.0972 249.418 78.6868Z" fill="url(#paint28_linear_157_2129)"/>
<path d="M256.983 83.5V68.5678H262.11V83.5H256.983Z" fill="url(#paint29_linear_157_2129)"/>
<path d="M281.003 83.5H274.51L272.205 80.9255L269.63 83.5H262.959L268.757 77.4779L263.809 72.2841H270.346L272.294 74.478L274.264 72.2841H280.645L275.675 77.5227L281.003 83.5Z" fill="url(#paint30_linear_157_2129)"/>
<path d="M297.791 79.2688H286.575C286.799 79.9852 287.023 80.2987 287.493 80.5673C288.053 80.8583 288.814 81.015 289.776 81.015C290.918 81.015 291.411 80.8359 291.948 80.2315H297.791C297.41 81.5971 296.873 82.2911 295.754 82.8955C294.343 83.6343 292.597 83.9701 290.023 83.9701C286.978 83.9701 284.762 83.5224 283.284 82.6493C281.807 81.7538 280.911 79.8957 280.911 77.7913C280.911 75.9332 281.627 74.3213 282.814 73.493C284.314 72.4184 286.732 71.814 289.418 71.814C293.09 71.814 295.843 72.9109 296.94 74.7914C297.522 75.7989 297.746 76.8734 297.791 79.2688ZM286.62 76.4257H292.261C291.926 75.3735 291.008 74.8586 289.463 74.8586C287.918 74.8586 287 75.3511 286.62 76.4257Z" fill="url(#paint31_linear_157_2129)"/>
<path d="M152.36 12.6048C154.621 13.1403 156.839 14.3166 158.763 16.0007C160.687 17.6847 162.239 19.8092 163.245 22.1336L197.475 100.758C198.404 102.889 198.843 105.115 198.75 107.225C198.657 109.334 198.036 111.257 196.945 112.811C195.854 114.364 194.331 115.497 192.518 116.101C190.706 116.705 188.665 116.761 186.59 116.262L118.129 99.8262C116.054 99.3282 114.014 98.2929 112.201 96.8186C110.389 95.3443 108.865 93.48 107.774 91.4027C106.684 89.3254 106.063 87.1042 105.97 84.9501C105.877 82.796 106.316 80.7805 107.244 79.095L141.475 16.9069C142.48 15.0654 144.033 13.6865 145.957 12.9261C147.88 12.1658 150.099 12.0545 152.36 12.6048ZM152.36 3.99962C148.546 3.08355 144.807 3.27765 141.563 4.56018C138.318 5.8427 135.696 8.16297 133.99 11.2611L99.7591 73.4491C98.1926 76.2935 97.4526 79.6947 97.6095 83.3297C97.7664 86.9647 98.815 90.7128 100.656 94.2179C102.496 97.7231 105.068 100.869 108.126 103.357C111.185 105.844 114.628 107.591 118.129 108.431L186.59 124.867C190.092 125.708 193.535 125.615 196.593 124.596C199.652 123.576 202.223 121.665 204.064 119.044C205.905 116.423 206.953 113.178 207.11 109.618C207.267 106.059 206.527 102.302 204.96 98.7057L170.73 20.0817C169.024 16.1643 166.401 12.5849 163.157 9.74445C159.912 6.90402 156.174 4.91479 152.36 3.99962Z" fill="url(#paint32_linear_157_2129)"/>
<path d="M152.36 12.6048C154.621 13.1403 156.839 14.3166 158.763 16.0007C160.687 17.6847 162.239 19.8092 163.245 22.1336L197.475 100.758C198.404 102.889 198.843 105.115 198.75 107.225C198.657 109.334 198.036 111.257 196.945 112.811C195.854 114.364 194.331 115.497 192.518 116.101C190.706 116.705 188.665 116.761 186.59 116.262L118.129 99.8262C116.054 99.3282 114.014 98.2929 112.201 96.8186C110.389 95.3443 108.865 93.48 107.774 91.4027C106.684 89.3254 106.063 87.1042 105.97 84.9501C105.877 82.796 106.316 80.7805 107.244 79.095L141.475 16.9069C142.48 15.0654 144.033 13.6865 145.957 12.9261C147.88 12.1658 150.099 12.0545 152.36 12.6048ZM152.36 3.99962C148.546 3.08355 144.807 3.27765 141.563 4.56018C138.318 5.8427 135.696 8.16297 133.99 11.2611L99.7591 73.4491C98.1926 76.2935 97.4526 79.6947 97.6095 83.3297C97.7664 86.9647 98.815 90.7128 100.656 94.2179C102.496 97.7231 105.068 100.869 108.126 103.357C111.185 105.844 114.628 107.591 118.129 108.431L186.59 124.867C190.092 125.708 193.535 125.615 196.593 124.596C199.652 123.576 202.223 121.665 204.064 119.044C205.905 116.423 206.953 113.178 207.11 109.618C207.267 106.059 206.527 102.302 204.96 98.7057L170.73 20.0817C169.024 16.1643 166.401 12.5849 163.157 9.74445C159.912 6.90402 156.174 4.91479 152.36 3.99962Z" fill="url(#paint33_linear_157_2129)"/>
<mask id="mask0_157_2129" style="mask-type:alpha" maskUnits="userSpaceOnUse" x="-117" y="-21" width="324" height="153">
<path d="M-116.856 -20.5989L175.185 30.0216L206.897 100.88L-45.8611 131.614L-116.856 -20.5989Z" fill="#D9D9D9"/>
</mask>
<g mask="url(#mask0_157_2129)">
<path d="M24.6586 56.5V41.5678H34.0388L36.4342 48.4183L38.7401 41.5678H48.0531V56.5H42.3444V46.202L38.7401 56.5H34.0388L30.3673 46.202V56.5H24.6586Z" fill="url(#paint34_linear_157_2129)"/>
<path d="M66.3831 45.2841V56.5H61.2565V55.4254C59.4656 56.4328 58.1447 56.791 56.0627 56.791C53.4211 56.791 51.8316 56.0299 51.1376 54.4404C50.8018 53.6792 50.7346 53.0076 50.7346 50.8808V45.2841H55.8612V49.9182C55.8612 51.2167 55.9732 51.8659 56.2418 52.3584C56.5552 52.8957 57.3164 53.2091 58.3014 53.2091C59.5103 53.2091 60.4282 52.7614 60.8759 51.9554C61.1446 51.4853 61.2565 50.8585 61.2565 49.9182V45.2841H66.3831Z" fill="url(#paint35_linear_157_2129)"/>
<path d="M68.7929 56.5V41.5678H73.9195V56.5H68.7929Z" fill="url(#paint36_linear_157_2129)"/>
<path d="M83.8575 53.6121V56.5H80.7904C78.6413 56.5 77.701 56.1866 77.2309 55.2911C76.9622 54.7538 76.9399 54.6643 76.9399 52.4703V48.3063H75.1265V45.2841H76.9399V41.5678H82.0665V45.2841H83.8575V48.3063H82.0665V52.4256C82.0665 53.4554 82.268 53.6121 83.4993 53.6121H83.8575Z" fill="url(#paint37_linear_157_2129)"/>
<path d="M85.6706 56.5V45.2841H90.7973V56.5H85.6706ZM85.6706 44.2319V41.5678H90.7973V44.2319H85.6706Z" fill="url(#paint38_linear_157_2129)"/>
<path d="M104.407 51.6196H110.138C109.914 53.3658 109.489 54.3285 108.526 55.2015C107.25 56.3657 104.966 56.9701 101.877 56.9701C99.2129 56.9701 96.9965 56.5895 95.4966 55.8732C93.7728 55.0448 92.7206 53.1867 92.7206 50.9256C92.7206 48.3735 93.8848 46.493 95.9668 45.6871C97.4219 45.1274 99.4591 44.7916 101.496 44.7916C102.974 44.7916 104.586 44.9931 105.817 45.3065C107.742 45.8214 108.974 46.7169 109.668 48.1496C109.891 48.5974 110.003 48.9779 110.138 49.7167H104.25C103.802 48.6421 102.862 48.0825 101.496 48.0825C99.5711 48.0825 98.4293 49.1347 98.4293 50.9032C98.4293 52.6942 99.5934 53.7688 101.519 53.7688C103.175 53.7688 104.048 53.1196 104.407 51.6196Z" fill="url(#paint39_linear_157_2129)"/>
<path d="M111.993 56.5V41.5678H117.12V46.3587C118.888 45.3513 120.231 44.9931 122.313 44.9931C125 44.9931 126.589 45.7766 127.261 47.4332C127.574 48.1944 127.641 48.7765 127.641 50.9256V56.5H122.515V51.8659C122.515 50.5674 122.403 49.9182 122.134 49.4257C121.821 48.8884 121.082 48.575 120.075 48.575C118.866 48.575 117.948 49.0227 117.5 49.851C117.231 50.2988 117.12 50.9256 117.12 51.8659V56.5H111.993Z" fill="url(#paint40_linear_157_2129)"/>
<path d="M136.073 48.3959L130.454 48.6198C130.812 47.0079 131.439 46.2243 132.872 45.5975C134.058 45.0602 135.805 44.7916 138.178 44.7916C142.23 44.7916 144.58 45.3736 145.61 46.6049C146.17 47.2765 146.349 48.0153 146.349 49.6496V54.015C146.349 55.3806 146.438 55.8732 146.819 56.5H141.424L141.334 55.4926C139.633 56.4328 138.178 56.791 135.894 56.791C131.909 56.791 129.536 55.3583 129.536 52.9181C129.536 51.6644 130.23 50.7241 131.529 50.2316C133.118 49.6496 135.715 49.269 138.782 49.2018C140.819 49.157 141.155 49.0675 141.155 48.6645C141.155 48.0825 140.058 47.6571 138.491 47.6571C137.148 47.6571 136.431 47.881 136.073 48.3959ZM141.2 51.6868V51.4181C140.484 51.5301 140.484 51.5301 139.14 51.5748C137.663 51.5972 137.125 51.642 136.7 51.6868C136.051 51.7987 135.648 52.1345 135.648 52.6047C135.648 53.2315 136.32 53.5449 137.708 53.5449C140.372 53.5449 141.2 53.0972 141.2 51.6868Z" fill="url(#paint41_linear_157_2129)"/>
<path d="M148.765 56.5V45.2841H153.892V56.5H148.765ZM148.765 44.2319V41.5678H153.892V44.2319H148.765Z" fill="url(#paint42_linear_157_2129)"/>
<path d="M156.308 56.5V45.2841H161.434V46.3587C163.203 45.3513 164.524 44.9931 166.606 44.9931C169.315 44.9931 170.904 45.7766 171.576 47.4332C171.889 48.1944 171.956 48.7541 171.956 50.9256V56.5H166.83V51.8659C166.83 50.5674 166.718 49.9182 166.449 49.4257C166.136 48.8884 165.397 48.575 164.39 48.575C163.181 48.575 162.263 49.0227 161.815 49.851C161.546 50.2988 161.434 50.9256 161.434 51.8659V56.5H156.308Z" fill="url(#paint43_linear_157_2129)"/>
<path d="M180.581 56.5V41.5678H192.379C194.797 41.5678 195.961 41.7022 196.968 42.1051C198.244 42.62 199.05 43.9185 199.05 45.4408C199.05 46.7392 198.625 47.478 197.461 48.2392C198.513 48.7093 198.871 48.978 199.274 49.56C199.722 50.254 199.968 51.0823 199.968 52.0002C199.968 53.5897 199.296 55.0001 198.222 55.6717C197.214 56.2985 195.983 56.5 193.364 56.5H180.581ZM186.29 52.8733H191.08C193.05 52.8509 193.073 52.8509 193.386 52.6718C193.677 52.5151 193.856 52.1793 193.856 51.7987C193.856 51.3734 193.655 51.0599 193.252 50.9032C192.961 50.7913 192.871 50.7913 191.08 50.7689H186.29V52.8733ZM186.29 47.1198H190.431C191.618 47.1198 191.886 47.0974 192.244 47.0303C192.692 46.9407 192.961 46.6049 192.961 46.1348C192.961 45.3513 192.491 45.1722 190.453 45.1722H186.29V47.1198Z" fill="url(#paint44_linear_157_2129)"/>
<path d="M202 56.5V45.2841H207.127V46.3587C208.47 45.396 209.701 44.9931 211.313 44.9931C213.529 44.9931 214.828 45.7542 215.32 47.3213C215.544 48.0153 215.611 48.7765 215.634 50.5003H210.485C210.418 49.1794 209.992 48.6645 208.918 48.6645C207.664 48.6645 207.127 49.4481 207.127 51.2614V56.5H202Z" fill="url(#paint45_linear_157_2129)"/>
<path d="M217.26 56.5V45.2841H222.387V56.5H217.26ZM217.26 44.2319V41.5678H222.387V44.2319H217.26Z" fill="url(#paint46_linear_157_2129)"/>
<path d="M241.056 41.5678V56.5H235.929V55.3359C234.272 56.4328 233.153 56.791 231.25 56.791C226.974 56.791 224.31 54.4852 224.31 50.7913C224.31 47.2541 227.041 44.9931 231.34 44.9931C233.019 44.9931 234.339 45.3065 235.929 46.0676V41.5678H241.056ZM232.974 48.6198C231.116 48.6198 230.019 49.4705 230.019 50.9256C230.019 52.3808 231.116 53.2315 232.974 53.2315C234.854 53.2315 235.951 52.3808 235.951 50.9704C235.951 49.4705 234.877 48.6198 232.974 48.6198Z" fill="url(#paint47_linear_157_2129)"/>
<path d="M243.473 56.5V45.2841H248.6V56.5H243.473ZM243.473 44.2319V41.5678H248.6V44.2319H243.473Z" fill="url(#paint48_linear_157_2129)"/>
<path d="M251.016 56.5V45.2841H256.142V46.3587C257.911 45.3513 259.232 44.9931 261.314 44.9931C264.022 44.9931 265.612 45.7766 266.283 47.4332C266.597 48.1944 266.664 48.7541 266.664 50.9256V56.5H261.537V51.8659C261.537 50.5674 261.425 49.9182 261.157 49.4257C260.843 48.8884 260.105 48.575 259.097 48.575C257.888 48.575 256.97 49.0227 256.523 49.851C256.254 50.2988 256.142 50.9256 256.142 51.8659V56.5H251.016Z" fill="url(#paint49_linear_157_2129)"/>
<path d="M285.528 45.2841V54.2165C285.528 56.0523 285.304 56.9925 284.7 57.8208C284.163 58.582 283.379 59.0297 281.991 59.4103C280.715 59.7461 278.678 59.97 276.685 59.97C271.738 59.97 269.544 58.9178 269.051 56.3433H275.141C275.588 56.903 276.036 57.0821 277.111 57.0821C278.387 57.0821 279.305 56.8134 279.797 56.2761C280.155 55.8955 280.312 55.4254 280.402 54.4404C279.26 55.2015 277.984 55.515 276.059 55.515C273.574 55.515 271.38 54.9553 270.126 54.0374C269.186 53.321 268.604 51.9554 268.604 50.4555C268.604 47.0527 271.223 44.9931 275.566 44.9931C277.805 44.9931 279.282 45.4632 280.402 46.493V45.2841H285.528ZM277.402 48.6198C275.499 48.6198 274.312 49.3809 274.312 50.5898C274.312 51.8435 275.477 52.6047 277.379 52.6047C279.193 52.6047 280.402 51.7987 280.402 50.5898C280.402 49.4033 279.215 48.6198 277.402 48.6198Z" fill="url(#paint50_linear_157_2129)"/>
<path d="M26.2503 77.9256H32.8097C32.5858 80.0972 31.8918 81.2837 30.2128 82.3359C28.3323 83.5224 26.2279 83.9701 22.5116 83.9701C18.8626 83.9701 16.7134 83.4104 14.9448 82.0001C13.1762 80.6121 12.2808 78.5525 12.2808 75.9556C12.2808 73.4034 13.1986 71.3214 14.8777 70.0902C16.7582 68.7022 19.1312 68.0977 22.646 68.0977C26.6756 68.0977 29.4292 68.9036 31.1978 70.5603C32.1157 71.4558 32.5858 72.508 32.8097 74.2765H26.2503C25.7801 72.5527 24.7951 71.9035 22.6684 71.9035C19.9819 71.9035 18.5715 73.2691 18.5715 75.866C18.5715 78.5972 20.0715 80.1643 22.6684 80.1643C23.7653 80.1643 24.7503 79.8957 25.2876 79.4256C25.6458 79.1121 25.8697 78.7539 26.2503 77.9256Z" fill="url(#paint51_linear_157_2129)"/>
<path d="M40.6332 75.3959L35.0141 75.6198C35.3723 74.0079 35.9991 73.2243 37.4319 72.5975C38.6184 72.0602 40.3646 71.7916 42.7376 71.7916C46.7897 71.7916 49.1403 72.3736 50.1701 73.6049C50.7298 74.2765 50.9089 75.0153 50.9089 76.6496V81.015C50.9089 82.3806 50.9984 82.8732 51.379 83.5H45.9837L45.8942 82.4926C44.1928 83.4328 42.7376 83.791 40.4542 83.791C36.4693 83.791 34.0962 82.3583 34.0962 79.9181C34.0962 78.6644 34.7902 77.7241 36.0887 77.2316C37.6782 76.6496 40.2751 76.269 43.3421 76.2018C45.3793 76.157 45.7151 76.0675 45.7151 75.6645C45.7151 75.0825 44.6181 74.6571 43.051 74.6571C41.7078 74.6571 40.9914 74.881 40.6332 75.3959ZM45.7599 78.6868V78.4181C45.0435 78.5301 45.0435 78.5301 43.7003 78.5748C42.2227 78.5972 41.6854 78.642 41.2601 78.6868C40.6109 78.7987 40.2079 79.1345 40.2079 79.6047C40.2079 80.2315 40.8795 80.5449 42.2675 80.5449C44.9316 80.5449 45.7599 80.0972 45.7599 78.6868Z" fill="url(#paint52_linear_157_2129)"/>
<path d="M53.3253 83.5V72.2841H58.2504V73.6945C59.7504 72.508 61.3846 71.9931 63.5786 71.9931C65.8397 71.9931 67.1605 72.4856 68.2351 73.6945C69.8917 72.4632 71.5036 71.9931 73.899 71.9931C76.563 71.9931 78.1749 72.799 78.8689 74.478C79.1823 75.1944 79.3167 76.157 79.3167 77.5003V83.5H74.19V79.2017C74.19 78.1047 74.1229 77.4331 73.9885 76.9854C73.6751 76.0451 72.9363 75.575 71.7274 75.575C70.6976 75.575 69.7798 75.9556 69.3544 76.56C69.0186 77.0525 68.8619 77.7913 68.8619 78.7987V83.5H63.7353V79.1793C63.7353 77.7689 63.6681 77.1869 63.489 76.7167C63.198 75.978 62.4144 75.575 61.2951 75.575C60.2429 75.575 59.325 75.978 58.8997 76.672C58.5863 77.1421 58.4519 77.8137 58.4519 78.7763V83.5H53.3253Z" fill="url(#paint53_linear_157_2129)"/>
<path d="M81.8994 72.2841H87.026V73.3363C88.414 72.3289 89.5558 71.9931 91.7273 71.9931C93.7645 71.9931 95.2644 72.396 96.5181 73.2691C98.018 74.3437 98.824 75.9556 98.824 77.8808C98.824 79.6718 98.0852 81.3508 96.8315 82.3583C95.6898 83.2761 93.8317 83.791 91.6377 83.791C89.6453 83.791 88.2797 83.4552 87.026 82.6269V86.7461H81.8994V72.2841ZM90.0706 75.575C88.0558 75.575 87.026 76.3585 87.026 77.8361C87.026 79.4256 88.0334 80.1867 90.0706 80.1867C92.0631 80.1867 93.1153 79.4032 93.1153 77.8808C93.1153 76.3585 92.0855 75.575 90.0706 75.575Z" fill="url(#paint54_linear_157_2129)"/>
<path d="M106.789 75.3959L101.17 75.6198C101.528 74.0079 102.155 73.2243 103.587 72.5975C104.774 72.0602 106.52 71.7916 108.893 71.7916C112.945 71.7916 115.296 72.3736 116.326 73.6049C116.885 74.2765 117.064 75.0153 117.064 76.6496V81.015C117.064 82.3806 117.154 82.8732 117.534 83.5H112.139L112.05 82.4926C110.348 83.4328 108.893 83.791 106.61 83.791C102.625 83.791 100.252 82.3583 100.252 79.9181C100.252 78.6644 100.946 77.7241 102.244 77.2316C103.834 76.6496 106.431 76.269 109.498 76.2018C111.535 76.157 111.871 76.0675 111.871 75.6645C111.871 75.0825 110.774 74.6571 109.206 74.6571C107.863 74.6571 107.147 74.881 106.789 75.3959ZM111.915 78.6868V78.4181C111.199 78.5301 111.199 78.5301 109.856 78.5748C108.378 78.5972 107.841 78.642 107.416 78.6868C106.766 78.7987 106.363 79.1345 106.363 79.6047C106.363 80.2315 107.035 80.5449 108.423 80.5449C111.087 80.5449 111.915 80.0972 111.915 78.6868Z" fill="url(#paint55_linear_157_2129)"/>
<path d="M119.481 83.5V72.2841H124.607V83.5H119.481ZM119.481 71.2319V68.5678H124.607V71.2319H119.481Z" fill="url(#paint56_linear_157_2129)"/>
<path d="M143.478 72.2841V81.2165C143.478 83.0523 143.254 83.9925 142.649 84.8208C142.112 85.582 141.329 86.0297 139.941 86.4103C138.665 86.7461 136.627 86.97 134.635 86.97C129.687 86.97 127.493 85.9178 127.001 83.3433H133.09C133.538 83.903 133.986 84.0821 135.06 84.0821C136.336 84.0821 137.254 83.8134 137.747 83.2761C138.105 82.8955 138.262 82.4254 138.351 81.4404C137.209 82.2015 135.933 82.515 134.008 82.515C131.523 82.515 129.329 81.9553 128.075 81.0374C127.135 80.321 126.553 78.9554 126.553 77.4555C126.553 74.0527 129.172 71.9931 133.515 71.9931C135.754 71.9931 137.232 72.4632 138.351 73.493V72.2841H143.478ZM135.351 75.6198C133.448 75.6198 132.262 76.3809 132.262 77.5898C132.262 78.8435 133.426 79.6047 135.329 79.6047C137.142 79.6047 138.351 78.7987 138.351 77.5898C138.351 76.4033 137.165 75.6198 135.351 75.6198Z" fill="url(#paint57_linear_157_2129)"/>
<path d="M145.89 83.5V72.2841H151.017V73.3587C152.786 72.3513 154.106 71.9931 156.188 71.9931C158.897 71.9931 160.487 72.7766 161.158 74.4332C161.472 75.1944 161.539 75.7541 161.539 77.9256V83.5H156.412V78.8659C156.412 77.5674 156.3 76.9182 156.032 76.4257C155.718 75.8884 154.98 75.575 153.972 75.575C152.763 75.575 151.845 76.0227 151.398 76.851C151.129 77.2988 151.017 77.9256 151.017 78.8659V83.5H145.89Z" fill="url(#paint58_linear_157_2129)"/>
<path d="M179.7 68.0977C183.394 68.0977 185.722 68.7246 187.558 70.2021C189.103 71.4334 189.864 73.3811 189.864 76.0451C189.864 81.4404 186.618 83.9925 179.767 83.9925C176.029 83.9925 173.678 83.3657 171.842 81.8881C170.275 80.6121 169.537 78.7316 169.537 75.9108C169.537 73.4034 170.343 71.411 171.842 70.2021C173.656 68.7469 176.051 68.0977 179.7 68.0977ZM179.7 71.9035C177.193 71.9035 175.827 73.3363 175.827 75.978C175.827 78.7763 177.148 80.1867 179.723 80.1867C182.23 80.1867 183.573 78.7539 183.573 76.0451C183.573 73.3363 182.23 71.9035 179.7 71.9035Z" fill="url(#paint59_linear_157_2129)"/>
<path d="M191.933 83.5V72.2841H197.059V73.3587C198.828 72.3513 200.149 71.9931 202.231 71.9931C204.939 71.9931 206.529 72.7766 207.201 74.4332C207.514 75.1944 207.581 75.7541 207.581 77.9256V83.5H202.454V78.8659C202.454 77.5674 202.343 76.9182 202.074 76.4257C201.76 75.8884 201.022 75.575 200.014 75.575C198.805 75.575 197.887 76.0227 197.44 76.851C197.171 77.2988 197.059 77.9256 197.059 78.8659V83.5H191.933Z" fill="url(#paint60_linear_157_2129)"/>
<path d="M235.861 75.1944V83.4552H233.399L232.638 81.8434C231.876 82.5821 231.294 82.9403 230.377 83.2537C228.989 83.7239 227.332 83.9701 225.451 83.9701C219.138 83.9701 215.579 81.127 215.579 76.0899C215.579 73.5154 216.608 71.2767 218.399 70.0006C220.146 68.7469 222.698 68.0977 225.742 68.0977C228.966 68.0977 231.72 68.7917 233.421 70.023C234.921 71.0976 235.593 72.1498 235.861 73.8512H229.078C228.586 72.5303 227.511 71.9035 225.81 71.9035C223.347 71.9035 221.869 73.4034 221.869 75.9108C221.869 78.642 223.481 80.1643 226.414 80.1643C228.339 80.1643 229.414 79.627 229.839 78.4405H227.309V75.1944H235.861Z" fill="url(#paint61_linear_157_2129)"/>
<path d="M244.259 75.3959L238.64 75.6198C238.998 74.0079 239.625 73.2243 241.058 72.5975C242.244 72.0602 243.99 71.7916 246.363 71.7916C250.416 71.7916 252.766 72.3736 253.796 73.6049C254.356 74.2765 254.535 75.0153 254.535 76.6496V81.015C254.535 82.3806 254.624 82.8732 255.005 83.5H249.61L249.52 82.4926C247.819 83.4328 246.363 83.791 244.08 83.791C240.095 83.791 237.722 82.3583 237.722 79.9181C237.722 78.6644 238.416 77.7241 239.715 77.2316C241.304 76.6496 243.901 76.269 246.968 76.2018C249.005 76.157 249.341 76.0675 249.341 75.6645C249.341 75.0825 248.244 74.6571 246.677 74.6571C245.334 74.6571 244.617 74.881 244.259 75.3959ZM249.386 78.6868V78.4181C248.669 78.5301 248.669 78.5301 247.326 78.5748C245.849 78.5972 245.311 78.642 244.886 78.6868C244.237 78.7987 243.834 79.1345 243.834 79.6047C243.834 80.2315 244.505 80.5449 245.893 80.5449C248.557 80.5449 249.386 80.0972 249.386 78.6868Z" fill="url(#paint62_linear_157_2129)"/>
<path d="M256.951 83.5V68.5678H262.078V83.5H256.951Z" fill="url(#paint63_linear_157_2129)"/>
<path d="M280.97 83.5H274.478L272.172 80.9255L269.598 83.5H262.927L268.725 77.4779L263.777 72.2841H270.314L272.262 74.478L274.232 72.2841H280.612L275.642 77.5227L280.97 83.5Z" fill="url(#paint64_linear_157_2129)"/>
<path d="M297.759 79.2688H286.543C286.767 79.9852 286.991 80.2987 287.461 80.5673C288.02 80.8583 288.781 81.015 289.744 81.015C290.886 81.015 291.378 80.8359 291.916 80.2315H297.759C297.378 81.5971 296.841 82.2911 295.721 82.8955C294.311 83.6343 292.565 83.9701 289.99 83.9701C286.946 83.9701 284.729 83.5224 283.252 82.6493C281.774 81.7538 280.879 79.8957 280.879 77.7913C280.879 75.9332 281.595 74.3213 282.782 73.493C284.282 72.4184 286.699 71.814 289.386 71.814C293.057 71.814 295.811 72.9109 296.908 74.7914C297.49 75.7989 297.714 76.8734 297.759 79.2688ZM286.588 76.4257H292.229C291.893 75.3735 290.975 74.8586 289.431 74.8586C287.886 74.8586 286.968 75.3511 286.588 76.4257Z" fill="url(#paint65_linear_157_2129)"/>
</g>
<defs>
<linearGradient id="paint0_linear_157_2129" x1="219.026" y1="64.5" x2="173.035" y2="64.6107" gradientUnits="userSpaceOnUse">
<stop stop-color="#FAFAFA"/>
<stop offset="1" stop-color="#A697B7"/>
</linearGradient>
<linearGradient id="paint1_linear_157_2129" x1="219.026" y1="64.5" x2="173.035" y2="64.6107" gradientUnits="userSpaceOnUse">
<stop stop-color="#FAFAFA"/>
<stop offset="1" stop-color="#A697B7"/>
</linearGradient>
<linearGradient id="paint2_linear_157_2129" x1="219.026" y1="64.5" x2="173.035" y2="64.6107" gradientUnits="userSpaceOnUse">
<stop stop-color="#FAFAFA"/>
<stop offset="1" stop-color="#A697B7"/>
</linearGradient>
<linearGradient id="paint3_linear_157_2129" x1="219.026" y1="64.5" x2="173.035" y2="64.6107" gradientUnits="userSpaceOnUse">
<stop stop-color="#FAFAFA"/>
<stop offset="1" stop-color="#A697B7"/>
</linearGradient>
<linearGradient id="paint4_linear_157_2129" x1="219.026" y1="64.5" x2="173.035" y2="64.6107" gradientUnits="userSpaceOnUse">
<stop stop-color="#FAFAFA"/>
<stop offset="1" stop-color="#A697B7"/>
</linearGradient>
<linearGradient id="paint5_linear_157_2129" x1="219.026" y1="64.5" x2="173.035" y2="64.6107" gradientUnits="userSpaceOnUse">
<stop stop-color="#FAFAFA"/>
<stop offset="1" stop-color="#A697B7"/>
</linearGradient>
<linearGradient id="paint6_linear_157_2129" x1="219.026" y1="64.5" x2="173.035" y2="64.6107" gradientUnits="userSpaceOnUse">
<stop stop-color="#FAFAFA"/>
<stop offset="1" stop-color="#A697B7"/>
</linearGradient>
<linearGradient id="paint7_linear_157_2129" x1="219.026" y1="64.5" x2="173.035" y2="64.6107" gradientUnits="userSpaceOnUse">
<stop stop-color="#FAFAFA"/>
<stop offset="1" stop-color="#A697B7"/>
</linearGradient>
<linearGradient id="paint8_linear_157_2129" x1="219.026" y1="64.5" x2="173.035" y2="64.6107" gradientUnits="userSpaceOnUse">
<stop stop-color="#FAFAFA"/>
<stop offset="1" stop-color="#A697B7"/>
</linearGradient>
<linearGradient id="paint9_linear_157_2129" x1="219.026" y1="64.5" x2="173.035" y2="64.6107" gradientUnits="userSpaceOnUse">
<stop stop-color="#FAFAFA"/>
<stop offset="1" stop-color="#A697B7"/>
</linearGradient>
<linearGradient id="paint10_linear_157_2129" x1="219.026" y1="64.5" x2="173.035" y2="64.6107" gradientUnits="userSpaceOnUse">
<stop stop-color="#FAFAFA"/>
<stop offset="1" stop-color="#A697B7"/>
</linearGradient>
<linearGradient id="paint11_linear_157_2129" x1="219.026" y1="64.5" x2="173.035" y2="64.6107" gradientUnits="userSpaceOnUse">
<stop stop-color="#FAFAFA"/>
<stop offset="1" stop-color="#A697B7"/>
</linearGradient>
<linearGradient id="paint12_linear_157_2129" x1="219.026" y1="64.5" x2="173.035" y2="64.6107" gradientUnits="userSpaceOnUse">
<stop stop-color="#FAFAFA"/>
<stop offset="1" stop-color="#A697B7"/>
</linearGradient>
<linearGradient id="paint13_linear_157_2129" x1="219.026" y1="64.5" x2="173.035" y2="64.6107" gradientUnits="userSpaceOnUse">
<stop stop-color="#FAFAFA"/>
<stop offset="1" stop-color="#A697B7"/>
</linearGradient>
<linearGradient id="paint14_linear_157_2129" x1="219.026" y1="64.5" x2="173.035" y2="64.6107" gradientUnits="userSpaceOnUse">
<stop stop-color="#FAFAFA"/>
<stop offset="1" stop-color="#A697B7"/>
</linearGradient>
<linearGradient id="paint15_linear_157_2129" x1="219.026" y1="64.5" x2="173.035" y2="64.6107" gradientUnits="userSpaceOnUse">
<stop stop-color="#FAFAFA"/>
<stop offset="1" stop-color="#A697B7"/>
</linearGradient>
<linearGradient id="paint16_linear_157_2129" x1="219.026" y1="64.5" x2="173.035" y2="64.6107" gradientUnits="userSpaceOnUse">
<stop stop-color="#FAFAFA"/>
<stop offset="1" stop-color="#A697B7"/>
</linearGradient>
<linearGradient id="paint17_linear_157_2129" x1="219.026" y1="64.5" x2="173.035" y2="64.6107" gradientUnits="userSpaceOnUse">
<stop stop-color="#FAFAFA"/>
<stop offset="1" stop-color="#A697B7"/>
</linearGradient>
<linearGradient id="paint18_linear_157_2129" x1="219.026" y1="64.5" x2="173.035" y2="64.6107" gradientUnits="userSpaceOnUse">
<stop stop-color="#FAFAFA"/>
<stop offset="1" stop-color="#A697B7"/>
</linearGradient>
<linearGradient id="paint19_linear_157_2129" x1="219.026" y1="64.5" x2="173.035" y2="64.6107" gradientUnits="userSpaceOnUse">
<stop stop-color="#FAFAFA"/>
<stop offset="1" stop-color="#A697B7"/>
</linearGradient>
<linearGradient id="paint20_linear_157_2129" x1="219.026" y1="64.5" x2="173.035" y2="64.6107" gradientUnits="userSpaceOnUse">
<stop stop-color="#FAFAFA"/>
<stop offset="1" stop-color="#A697B7"/>
</linearGradient>
<linearGradient id="paint21_linear_157_2129" x1="219.026" y1="64.5" x2="173.035" y2="64.6107" gradientUnits="userSpaceOnUse">
<stop stop-color="#FAFAFA"/>
<stop offset="1" stop-color="#A697B7"/>
</linearGradient>
<linearGradient id="paint22_linear_157_2129" x1="219.026" y1="64.5" x2="173.035" y2="64.6107" gradientUnits="userSpaceOnUse">
<stop stop-color="#FAFAFA"/>
<stop offset="1" stop-color="#A697B7"/>
</linearGradient>
<linearGradient id="paint23_linear_157_2129" x1="219.026" y1="64.5" x2="173.035" y2="64.6107" gradientUnits="userSpaceOnUse">
<stop stop-color="#FAFAFA"/>
<stop offset="1" stop-color="#A697B7"/>
</linearGradient>
<linearGradient id="paint24_linear_157_2129" x1="219.026" y1="64.5" x2="173.035" y2="64.6107" gradientUnits="userSpaceOnUse">
<stop stop-color="#FAFAFA"/>
<stop offset="1" stop-color="#A697B7"/>
</linearGradient>
<linearGradient id="paint25_linear_157_2129" x1="219.026" y1="64.5" x2="173.035" y2="64.6107" gradientUnits="userSpaceOnUse">
<stop stop-color="#FAFAFA"/>
<stop offset="1" stop-color="#A697B7"/>
</linearGradient>
<linearGradient id="paint26_linear_157_2129" x1="219.026" y1="64.5" x2="173.035" y2="64.6107" gradientUnits="userSpaceOnUse">
<stop stop-color="#FAFAFA"/>
<stop offset="1" stop-color="#A697B7"/>
</linearGradient>
<linearGradient id="paint27_linear_157_2129" x1="219.026" y1="64.5" x2="173.035" y2="64.6107" gradientUnits="userSpaceOnUse">
<stop stop-color="#FAFAFA"/>
<stop offset="1" stop-color="#A697B7"/>
</linearGradient>
<linearGradient id="paint28_linear_157_2129" x1="219.026" y1="64.5" x2="173.035" y2="64.6107" gradientUnits="userSpaceOnUse">
<stop stop-color="#FAFAFA"/>
<stop offset="1" stop-color="#A697B7"/>
</linearGradient>
<linearGradient id="paint29_linear_157_2129" x1="219.026" y1="64.5" x2="173.035" y2="64.6107" gradientUnits="userSpaceOnUse">
<stop stop-color="#FAFAFA"/>
<stop offset="1" stop-color="#A697B7"/>
</linearGradient>
<linearGradient id="paint30_linear_157_2129" x1="219.026" y1="64.5" x2="173.035" y2="64.6107" gradientUnits="userSpaceOnUse">
<stop stop-color="#FAFAFA"/>
<stop offset="1" stop-color="#A697B7"/>
</linearGradient>
<linearGradient id="paint31_linear_157_2129" x1="219.026" y1="64.5" x2="173.035" y2="64.6107" gradientUnits="userSpaceOnUse">
<stop stop-color="#FAFAFA"/>
<stop offset="1" stop-color="#A697B7"/>
</linearGradient>
<linearGradient id="paint32_linear_157_2129" x1="171.726" y1="-9.14971" x2="0.397406" y2="39.3544" gradientUnits="userSpaceOnUse">
<stop stop-color="#36BB05"/>
<stop offset="0.717324" stop-color="#18300F"/>
</linearGradient>
<linearGradient id="paint33_linear_157_2129" x1="145.677" y1="5.39132" x2="103.04" y2="70.1628" gradientUnits="userSpaceOnUse">
<stop stop-color="#77FF45"/>
<stop offset="0.717324" stop-color="#18300F" stop-opacity="0"/>
</linearGradient>
<linearGradient id="paint34_linear_157_2129" x1="149.559" y1="69.2841" x2="170.537" y2="64.4327" gradientUnits="userSpaceOnUse">
<stop stop-color="#FAFAFA"/>
<stop offset="1" stop-color="#FAFAFA" stop-opacity="0"/>
</linearGradient>
<linearGradient id="paint35_linear_157_2129" x1="149.559" y1="69.2841" x2="170.537" y2="64.4327" gradientUnits="userSpaceOnUse">
<stop stop-color="#FAFAFA"/>
<stop offset="1" stop-color="#FAFAFA" stop-opacity="0"/>
</linearGradient>
<linearGradient id="paint36_linear_157_2129" x1="149.559" y1="69.2841" x2="170.537" y2="64.4327" gradientUnits="userSpaceOnUse">
<stop stop-color="#FAFAFA"/>
<stop offset="1" stop-color="#FAFAFA" stop-opacity="0"/>
</linearGradient>
<linearGradient id="paint37_linear_157_2129" x1="149.559" y1="69.2841" x2="170.537" y2="64.4327" gradientUnits="userSpaceOnUse">
<stop stop-color="#FAFAFA"/>
<stop offset="1" stop-color="#FAFAFA" stop-opacity="0"/>
</linearGradient>
<linearGradient id="paint38_linear_157_2129" x1="149.559" y1="69.2841" x2="170.537" y2="64.4327" gradientUnits="userSpaceOnUse">
<stop stop-color="#FAFAFA"/>
<stop offset="1" stop-color="#FAFAFA" stop-opacity="0"/>
</linearGradient>
<linearGradient id="paint39_linear_157_2129" x1="149.559" y1="69.2841" x2="170.537" y2="64.4327" gradientUnits="userSpaceOnUse">
<stop stop-color="#FAFAFA"/>
<stop offset="1" stop-color="#FAFAFA" stop-opacity="0"/>
</linearGradient>
<linearGradient id="paint40_linear_157_2129" x1="149.559" y1="69.2841" x2="170.537" y2="64.4327" gradientUnits="userSpaceOnUse">
<stop stop-color="#FAFAFA"/>
<stop offset="1" stop-color="#FAFAFA" stop-opacity="0"/>
</linearGradient>
<linearGradient id="paint41_linear_157_2129" x1="149.559" y1="69.2841" x2="170.537" y2="64.4327" gradientUnits="userSpaceOnUse">
<stop stop-color="#FAFAFA"/>
<stop offset="1" stop-color="#FAFAFA" stop-opacity="0"/>
</linearGradient>
<linearGradient id="paint42_linear_157_2129" x1="149.559" y1="69.2841" x2="170.537" y2="64.4327" gradientUnits="userSpaceOnUse">
<stop stop-color="#FAFAFA"/>
<stop offset="1" stop-color="#FAFAFA" stop-opacity="0"/>
</linearGradient>
<linearGradient id="paint43_linear_157_2129" x1="149.559" y1="69.2841" x2="170.537" y2="64.4327" gradientUnits="userSpaceOnUse">
<stop stop-color="#FAFAFA"/>
<stop offset="1" stop-color="#FAFAFA" stop-opacity="0"/>
</linearGradient>
<linearGradient id="paint44_linear_157_2129" x1="149.559" y1="69.2841" x2="170.537" y2="64.4327" gradientUnits="userSpaceOnUse">
<stop stop-color="#FAFAFA"/>
<stop offset="1" stop-color="#FAFAFA" stop-opacity="0"/>
</linearGradient>
<linearGradient id="paint45_linear_157_2129" x1="149.559" y1="69.2841" x2="170.537" y2="64.4327" gradientUnits="userSpaceOnUse">
<stop stop-color="#FAFAFA"/>
<stop offset="1" stop-color="#FAFAFA" stop-opacity="0"/>
</linearGradient>
<linearGradient id="paint46_linear_157_2129" x1="149.559" y1="69.2841" x2="170.537" y2="64.4327" gradientUnits="userSpaceOnUse">
<stop stop-color="#FAFAFA"/>
<stop offset="1" stop-color="#FAFAFA" stop-opacity="0"/>
</linearGradient>
<linearGradient id="paint47_linear_157_2129" x1="149.559" y1="69.2841" x2="170.537" y2="64.4327" gradientUnits="userSpaceOnUse">
<stop stop-color="#FAFAFA"/>
<stop offset="1" stop-color="#FAFAFA" stop-opacity="0"/>
</linearGradient>
<linearGradient id="paint48_linear_157_2129" x1="149.559" y1="69.2841" x2="170.537" y2="64.4327" gradientUnits="userSpaceOnUse">
<stop stop-color="#FAFAFA"/>
<stop offset="1" stop-color="#FAFAFA" stop-opacity="0"/>
</linearGradient>
<linearGradient id="paint49_linear_157_2129" x1="149.559" y1="69.2841" x2="170.537" y2="64.4327" gradientUnits="userSpaceOnUse">
<stop stop-color="#FAFAFA"/>
<stop offset="1" stop-color="#FAFAFA" stop-opacity="0"/>
</linearGradient>
<linearGradient id="paint50_linear_157_2129" x1="149.559" y1="69.2841" x2="170.537" y2="64.4327" gradientUnits="userSpaceOnUse">
<stop stop-color="#FAFAFA"/>
<stop offset="1" stop-color="#FAFAFA" stop-opacity="0"/>
</linearGradient>
<linearGradient id="paint51_linear_157_2129" x1="149.559" y1="69.2841" x2="170.537" y2="64.4327" gradientUnits="userSpaceOnUse">
<stop stop-color="#FAFAFA"/>
<stop offset="1" stop-color="#FAFAFA" stop-opacity="0"/>
</linearGradient>
<linearGradient id="paint52_linear_157_2129" x1="149.559" y1="69.2841" x2="170.537" y2="64.4327" gradientUnits="userSpaceOnUse">
<stop stop-color="#FAFAFA"/>
<stop offset="1" stop-color="#FAFAFA" stop-opacity="0"/>
</linearGradient>
<linearGradient id="paint53_linear_157_2129" x1="149.559" y1="69.2841" x2="170.537" y2="64.4327" gradientUnits="userSpaceOnUse">
<stop stop-color="#FAFAFA"/>
<stop offset="1" stop-color="#FAFAFA" stop-opacity="0"/>
</linearGradient>
<linearGradient id="paint54_linear_157_2129" x1="149.559" y1="69.2841" x2="170.537" y2="64.4327" gradientUnits="userSpaceOnUse">
<stop stop-color="#FAFAFA"/>
<stop offset="1" stop-color="#FAFAFA" stop-opacity="0"/>
</linearGradient>
<linearGradient id="paint55_linear_157_2129" x1="149.559" y1="69.2841" x2="170.537" y2="64.4327" gradientUnits="userSpaceOnUse">
<stop stop-color="#FAFAFA"/>
<stop offset="1" stop-color="#FAFAFA" stop-opacity="0"/>
</linearGradient>
<linearGradient id="paint56_linear_157_2129" x1="149.559" y1="69.2841" x2="170.537" y2="64.4327" gradientUnits="userSpaceOnUse">
<stop stop-color="#FAFAFA"/>
<stop offset="1" stop-color="#FAFAFA" stop-opacity="0"/>
</linearGradient>
<linearGradient id="paint57_linear_157_2129" x1="149.559" y1="69.2841" x2="170.537" y2="64.4327" gradientUnits="userSpaceOnUse">
<stop stop-color="#FAFAFA"/>
<stop offset="1" stop-color="#FAFAFA" stop-opacity="0"/>
</linearGradient>
<linearGradient id="paint58_linear_157_2129" x1="149.559" y1="69.2841" x2="170.537" y2="64.4327" gradientUnits="userSpaceOnUse">
<stop stop-color="#FAFAFA"/>
<stop offset="1" stop-color="#FAFAFA" stop-opacity="0"/>
</linearGradient>
<linearGradient id="paint59_linear_157_2129" x1="149.559" y1="69.2841" x2="170.537" y2="64.4327" gradientUnits="userSpaceOnUse">
<stop stop-color="#FAFAFA"/>
<stop offset="1" stop-color="#FAFAFA" stop-opacity="0"/>
</linearGradient>
<linearGradient id="paint60_linear_157_2129" x1="149.559" y1="69.2841" x2="170.537" y2="64.4327" gradientUnits="userSpaceOnUse">
<stop stop-color="#FAFAFA"/>
<stop offset="1" stop-color="#FAFAFA" stop-opacity="0"/>
</linearGradient>
<linearGradient id="paint61_linear_157_2129" x1="149.559" y1="69.2841" x2="170.537" y2="64.4327" gradientUnits="userSpaceOnUse">
<stop stop-color="#FAFAFA"/>
<stop offset="1" stop-color="#FAFAFA" stop-opacity="0"/>
</linearGradient>
<linearGradient id="paint62_linear_157_2129" x1="149.559" y1="69.2841" x2="170.537" y2="64.4327" gradientUnits="userSpaceOnUse">
<stop stop-color="#FAFAFA"/>
<stop offset="1" stop-color="#FAFAFA" stop-opacity="0"/>
</linearGradient>
<linearGradient id="paint63_linear_157_2129" x1="149.559" y1="69.2841" x2="170.537" y2="64.4327" gradientUnits="userSpaceOnUse">
<stop stop-color="#FAFAFA"/>
<stop offset="1" stop-color="#FAFAFA" stop-opacity="0"/>
</linearGradient>
<linearGradient id="paint64_linear_157_2129" x1="149.559" y1="69.2841" x2="170.537" y2="64.4327" gradientUnits="userSpaceOnUse">
<stop stop-color="#FAFAFA"/>
<stop offset="1" stop-color="#FAFAFA" stop-opacity="0"/>
</linearGradient>
<linearGradient id="paint65_linear_157_2129" x1="149.559" y1="69.2841" x2="170.537" y2="64.4327" gradientUnits="userSpaceOnUse">
<stop stop-color="#FAFAFA"/>
<stop offset="1" stop-color="#FAFAFA" stop-opacity="0"/>
</linearGradient>
</defs>
</svg>
