<svg width="36" height="36" viewBox="0 0 36 36" fill="none" xmlns="http://www.w3.org/2000/svg">
<circle cx="18" cy="18" r="18" fill="url(#paint0_linear)"/>
<path fill-rule="evenodd" clip-rule="evenodd" d="M23.4718 10.7233H24.7132L25.688 11.9844L25.0627 12.7877L23.4718 10.7233ZM25.9551 11.6386L26.2862 11.2089C26.4333 11.0127 26.3046 10.7325 26.0563 10.7325H25.2563L25.9551 11.6386ZM19.9037 13.619L19.2968 14.4036L21.5589 17.3461C21.5635 17.3414 21.5658 17.3368 21.5681 17.3321C21.5704 17.3274 21.5727 17.3228 21.5773 17.3181L22.1658 16.5615L19.9037 13.619ZM23.8116 24.6321H24.9518L18.1471 15.9074L17.577 16.636L23.8116 24.6321ZM25.4947 24.6326L18.4141 15.5529L19.0302 14.7589L26.3039 24.1936C26.405 24.3898 26.2855 24.6326 26.0556 24.6326H25.4947ZM21.0546 12.1242L21.6615 11.3396L23.9236 14.2727L23.3167 15.0574L21.0546 12.1242ZM20.7871 12.47L20.171 13.2734L22.4331 16.2065L23.0492 15.4032L20.7871 12.47ZM17.3109 16.9914L17.0626 17.3183C16.8971 17.5331 16.8971 17.8414 17.0626 18.0563L21.9638 24.4176C22.0742 24.5578 22.2397 24.6418 22.4236 24.6418H23.2788L17.3109 16.9914ZM22.4237 10.7233H22.9387L24.7962 13.1334L24.1985 13.918L21.9364 10.9849L21.964 10.9475C22.0743 10.8074 22.249 10.7233 22.4237 10.7233Z" fill="url(#paint1_linear)"/>
<path d="M14.7283 17.3094C14.8939 17.5243 14.8939 17.8326 14.7283 18.0474L10.0202 24.1566C9.87309 24.3527 10.0018 24.633 10.2501 24.633H13.8915C14.0663 24.633 14.241 24.5489 14.3513 24.4088L19.2434 18.0474C19.4089 17.8326 19.4089 17.5243 19.2434 17.3094L14.3421 10.9481C14.2318 10.8079 14.0663 10.7239 13.8824 10.7239H10.2501C10.011 10.7239 9.87309 11.0135 10.0202 11.2003L14.7283 17.3094Z" fill="white"/>
<defs>
<linearGradient id="paint0_linear" x1="11.6757" y1="4.86486" x2="61.7838" y2="-22.3784" gradientUnits="userSpaceOnUse">
<stop stop-color="#2853EB"/>
</linearGradient>
<linearGradient id="paint1_linear" x1="22.8353" y1="16.7447" x2="18.4691" y2="17.2345" gradientUnits="userSpaceOnUse">
<stop stop-color="white"/>
<stop offset="1" stop-color="white" stop-opacity="0.4"/>
</linearGradient>
</defs>
</svg>
