<svg width="512" height="512" viewBox="0 0 512 512" fill="none" xmlns="http://www.w3.org/2000/svg">
<circle cx="256" cy="256" r="256" fill="#262531"/>
<path fill-rule="evenodd" clip-rule="evenodd" d="M279.497 306.966L192.918 373.854L248.041 416.324C252.675 419.894 259.323 419.894 263.957 416.324L399.1 312.396L335.678 263.669L279.497 306.966ZM246.287 317.59L221.705 298.646L221.67 298.715L106 210.922C106 210.942 106 210.961 106 210.98L106 222.297L106 222.353L106 300.695C106 304.662 107.813 308.232 110.835 310.612L182.921 366.151L246.287 317.59ZM112.047 200.13L175.342 248.76L248.041 192.734C248.705 192.222 249.411 191.783 250.146 191.418L319.632 138.167L263.957 95.3518C259.324 91.7818 252.675 91.7818 248.041 95.3518L112.047 200.13ZM329.756 145.952L266.328 194.561L345.84 255.838L345.787 255.878L405.937 302.091C405.977 301.693 405.998 301.293 405.998 300.893L405.998 289.375L405.998 289.322L405.998 210.782C405.998 207.014 404.185 203.245 401.163 200.865L329.756 145.952Z" fill="white"/>
</svg>
