<svg width="30" height="30" viewBox="0 0 30 30" fill="none" xmlns="http://www.w3.org/2000/svg" version="1.1">
<g filter="url(#filter0_bii_1733_1885)">
<path d="M0.234863 22.3805C0.234863 26.4589 3.54107 29.7651 7.61948 29.7651H22.3887C26.4671 29.7651 29.7733 26.4589 29.7733 22.3805V7.61129C29.7733 3.53288 26.4671 0.22668 22.3887 0.22668H7.61948C3.54107 0.22668 0.234863 3.53288 0.234863 7.61129V22.3805Z" fill="#2C3240"/>
</g>
<g clip-path="url(#clip0_1733_1885)">
<g filter="url(#filter1_d_1733_1885)">
<path d="M13.6846 17.6557C13.7842 17.7552 13.8401 17.8902 13.8401 18.031C13.8401 18.1718 13.7842 18.3068 13.6846 18.4063L11.5616 20.5294C11.559 20.5319 11.5563 20.5341 11.5537 20.5365C11.5438 20.5462 11.5335 20.5555 11.5228 20.5644C11.516 20.57 11.5089 20.575 11.5018 20.5802C11.4949 20.5853 11.4882 20.5906 11.4811 20.5954C11.4731 20.6007 11.4648 20.6054 11.4565 20.6103C11.4499 20.6143 11.4434 20.6184 11.4366 20.6221C11.4283 20.6265 11.4199 20.6302 11.4115 20.6342C11.4042 20.6376 11.397 20.6413 11.3895 20.6444C11.3814 20.6477 11.3731 20.6504 11.3649 20.6533C11.3567 20.6563 11.3487 20.6594 11.3404 20.662C11.3323 20.6644 11.3239 20.6662 11.3156 20.6683C11.3071 20.6705 11.2987 20.6728 11.29 20.6746C11.2806 20.6764 11.271 20.6776 11.2615 20.6789C11.2539 20.68 11.2463 20.6815 11.2387 20.6822C11.2038 20.6856 11.1687 20.6856 11.1338 20.6822C11.1261 20.6815 11.1186 20.68 11.1109 20.6789C11.1014 20.6776 11.0919 20.6764 11.0825 20.6746C11.0738 20.6728 11.0654 20.6705 11.0569 20.6683C11.0486 20.6663 11.0403 20.6644 11.0321 20.6619C11.0238 20.6594 11.0157 20.6563 11.0076 20.6533C10.9993 20.6504 10.9911 20.6477 10.983 20.6444C10.9755 20.6413 10.9683 20.6376 10.961 20.6342C10.9526 20.6302 10.9441 20.6265 10.9359 20.6221C10.9291 20.6184 10.9226 20.6143 10.916 20.6103C10.9077 20.6054 10.8994 20.6007 10.8913 20.5954C10.8842 20.5906 10.8775 20.5853 10.8708 20.5801C10.8637 20.5749 10.8565 20.57 10.8497 20.5644C10.839 20.5555 10.8287 20.5462 10.8187 20.5365C10.8162 20.5341 10.8134 20.5319 10.8109 20.5294L8.68784 18.4063C8.63855 18.357 8.59946 18.2985 8.57278 18.2341C8.54611 18.1697 8.53238 18.1007 8.53238 18.031C8.53238 17.9613 8.54611 17.8923 8.57278 17.8279C8.59946 17.7635 8.63855 17.705 8.68784 17.6557C8.78738 17.5561 8.92239 17.5002 9.06316 17.5002C9.13287 17.5002 9.20189 17.514 9.26628 17.5406C9.33068 17.5673 9.38919 17.6064 9.43848 17.6557L10.6555 18.8727V9.5387C10.6555 9.39794 10.7114 9.26293 10.8109 9.16339C10.9105 9.06385 11.0455 9.00793 11.1862 9.00793C11.327 9.00793 11.462 9.06385 11.5615 9.16339C11.6611 9.26293 11.717 9.39794 11.717 9.5387V18.8727L12.934 17.6557C13.0335 17.5562 13.1685 17.5002 13.3093 17.5002C13.4501 17.5002 13.5851 17.5562 13.6846 17.6557ZM22.0539 11.2865L19.9308 9.16338C19.9285 9.16106 19.9259 9.15914 19.9236 9.15688C19.9134 9.14697 19.9029 9.13745 19.892 9.12835C19.8853 9.12278 19.8781 9.11794 19.8711 9.11276C19.8642 9.10759 19.8575 9.10221 19.8503 9.0975C19.8423 9.09213 19.8341 9.08755 19.826 9.08264C19.8193 9.07866 19.8127 9.07441 19.8058 9.0707C19.7976 9.06632 19.7893 9.06267 19.781 9.05876C19.7735 9.05524 19.7662 9.05152 19.7586 9.04841C19.7507 9.04509 19.7425 9.04243 19.7344 9.03958C19.7262 9.0366 19.718 9.03341 19.7096 9.03082C19.7015 9.02844 19.6933 9.02658 19.6851 9.02452C19.6765 9.0224 19.668 9.01994 19.6592 9.01822C19.6499 9.01636 19.6404 9.01523 19.631 9.01391C19.6233 9.01284 19.6157 9.01132 19.6079 9.01059C19.573 9.00715 19.5379 9.00715 19.5031 9.01059C19.4953 9.01132 19.4877 9.01284 19.48 9.01391C19.4705 9.01523 19.4611 9.01636 19.4518 9.01822C19.4429 9.01994 19.4345 9.0224 19.4258 9.02452C19.4176 9.02658 19.4094 9.02844 19.4013 9.03082C19.3929 9.03341 19.3847 9.0366 19.3765 9.03958C19.3684 9.04243 19.3603 9.04509 19.3523 9.04841C19.3447 9.05152 19.3374 9.05524 19.33 9.05876C19.3217 9.06267 19.3133 9.06632 19.3051 9.0707C19.2982 9.07441 19.2917 9.07866 19.285 9.08264C19.2768 9.08748 19.2686 9.09213 19.2606 9.09744C19.2535 9.10221 19.2467 9.10759 19.2398 9.1127C19.2328 9.11794 19.2257 9.12278 19.2189 9.12835C19.208 9.13745 19.1975 9.14697 19.1874 9.15688C19.185 9.15914 19.1825 9.16106 19.1801 9.16338L17.057 11.2865C16.9575 11.386 16.9015 11.521 16.9016 11.6618C16.9016 11.8026 16.9575 11.9376 17.057 12.0371C17.1566 12.1367 17.2916 12.1926 17.4324 12.1926C17.5732 12.1926 17.7082 12.1367 17.8077 12.0371L19.0247 10.8201V20.1541C19.0247 20.2949 19.0806 20.4299 19.1802 20.5294C19.2797 20.6289 19.4147 20.6849 19.5555 20.6849C19.6962 20.6849 19.8312 20.6289 19.9308 20.5294C20.0303 20.4299 20.0862 20.2949 20.0862 20.1541V10.8201L21.3032 12.0371C21.4028 12.1366 21.5378 12.1926 21.6785 12.1926C21.8193 12.1926 21.9543 12.1366 22.0539 12.0371C22.1534 11.9376 22.2093 11.8026 22.2093 11.6618C22.2093 11.521 22.1534 11.386 22.0539 11.2865Z" fill="white"/>
</g>
</g>
<defs>
<filter id="filter0_bii_1733_1885" x="-5.76514" y="-5.77332" width="41.5385" height="41.5385" filterUnits="userSpaceOnUse" color-interpolation-filters="sRGB">
<feFlood flood-opacity="0" result="BackgroundImageFix"/>
<feGaussianBlur in="BackgroundImage" stdDeviation="3"/>
<feComposite in2="SourceAlpha" operator="in" result="effect1_backgroundBlur_1733_1885"/>
<feBlend mode="normal" in="SourceGraphic" in2="effect1_backgroundBlur_1733_1885" result="shape"/>
<feColorMatrix in="SourceAlpha" type="matrix" values="0 0 0 0 0 0 0 0 0 0 0 0 0 0 0 0 0 0 127 0" result="hardAlpha"/>
<feOffset dy="1"/>
<feGaussianBlur stdDeviation="0.25"/>
<feComposite in2="hardAlpha" operator="arithmetic" k2="-1" k3="1"/>
<feColorMatrix type="matrix" values="0 0 0 0 0.429167 0 0 0 0 0.62325 0 0 0 0 1 0 0 0 0.34 0"/>
<feBlend mode="normal" in2="shape" result="effect2_innerShadow_1733_1885"/>
<feColorMatrix in="SourceAlpha" type="matrix" values="0 0 0 0 0 0 0 0 0 0 0 0 0 0 0 0 0 0 127 0" result="hardAlpha"/>
<feOffset dy="-1"/>
<feGaussianBlur stdDeviation="0.5"/>
<feComposite in2="hardAlpha" operator="arithmetic" k2="-1" k3="1"/>
<feColorMatrix type="matrix" values="0 0 0 0 0.0321194 0 0 0 0 0.0301389 0 0 0 0 0.129167 0 0 0 0.24 0"/>
<feBlend mode="normal" in2="effect2_innerShadow_1733_1885" result="effect3_innerShadow_1733_1885"/>
</filter>
<filter id="filter1_d_1733_1885" x="6.53238" y="8.00793" width="17.6769" height="15.6769" filterUnits="userSpaceOnUse" color-interpolation-filters="sRGB">
<feFlood flood-opacity="0" result="BackgroundImageFix"/>
<feColorMatrix in="SourceAlpha" type="matrix" values="0 0 0 0 0 0 0 0 0 0 0 0 0 0 0 0 0 0 127 0" result="hardAlpha"/>
<feOffset dy="1"/>
<feGaussianBlur stdDeviation="1"/>
<feComposite in2="hardAlpha" operator="out"/>
<feColorMatrix type="matrix" values="0 0 0 0 0 0 0 0 0 0 0 0 0 0 0 0 0 0 0.47 0"/>
<feBlend mode="normal" in2="BackgroundImageFix" result="effect1_dropShadow_1733_1885"/>
<feBlend mode="normal" in="SourceGraphic" in2="effect1_dropShadow_1733_1885" result="shape"/>
</filter>
<clipPath id="clip0_1733_1885">
<rect width="16.9846" height="16.9846" fill="white" transform="translate(6.87878 6.35413)"/>
</clipPath>
</defs>
</svg>
