<svg width="30" height="30" viewBox="0 0 30 30" fill="none" xmlns="http://www.w3.org/2000/svg">
<g filter="url(#filter0_bii_1733_2842)">
<path d="M0.234863 22.3805C0.234863 26.4589 3.54107 29.7651 7.61948 29.7651H22.3887C26.4671 29.7651 29.7733 26.4589 29.7733 22.3805V7.61129C29.7733 3.53288 26.4671 0.22668 22.3887 0.22668H7.61948C3.54107 0.22668 0.234863 3.53288 0.234863 7.61129V22.3805Z" fill="#2C3240"/>
</g>
<g clip-path="url(#clip0_1733_2842)">
<g filter="url(#filter1_d_1733_2842)">
<path d="M13.685 17.6557C13.7845 17.7552 13.8404 17.8902 13.8404 18.031C13.8404 18.1718 13.7845 18.3068 13.685 18.4063L11.5619 20.5294C11.5594 20.5319 11.5566 20.5341 11.5541 20.5365C11.5441 20.5462 11.5338 20.5555 11.5231 20.5644C11.5163 20.57 11.5092 20.575 11.5021 20.5802C11.4953 20.5853 11.4886 20.5906 11.4815 20.5954C11.4735 20.6007 11.4651 20.6054 11.4569 20.6103C11.4502 20.6143 11.4437 20.6184 11.437 20.6221C11.4287 20.6265 11.4202 20.6302 11.4118 20.6342C11.4045 20.6376 11.3973 20.6413 11.3898 20.6444C11.3817 20.6477 11.3735 20.6504 11.3652 20.6533C11.3571 20.6563 11.3491 20.6594 11.3408 20.662C11.3326 20.6644 11.3242 20.6662 11.3159 20.6683C11.3075 20.6705 11.299 20.6728 11.2903 20.6746C11.2809 20.6764 11.2714 20.6776 11.2619 20.6789C11.2542 20.68 11.2467 20.6815 11.239 20.6822C11.2041 20.6856 11.169 20.6856 11.1342 20.6822C11.1265 20.6815 11.1189 20.68 11.1113 20.6789C11.1018 20.6776 11.0922 20.6764 11.0828 20.6746C11.0742 20.6728 11.0657 20.6705 11.0572 20.6683C11.0489 20.6663 11.0406 20.6644 11.0324 20.6619C11.0241 20.6594 11.0161 20.6563 11.0079 20.6533C10.9997 20.6504 10.9914 20.6477 10.9834 20.6444C10.9759 20.6413 10.9686 20.6376 10.9613 20.6342C10.9529 20.6302 10.9445 20.6265 10.9362 20.6221C10.9294 20.6184 10.923 20.6143 10.9163 20.6103C10.9081 20.6054 10.8998 20.6007 10.8917 20.5954C10.8846 20.5906 10.8779 20.5853 10.8711 20.5801C10.864 20.5749 10.8568 20.57 10.85 20.5644C10.8393 20.5555 10.829 20.5462 10.8191 20.5365C10.8166 20.5341 10.8138 20.5319 10.8113 20.5294L8.68818 18.4063C8.63889 18.357 8.59979 18.2985 8.57312 18.2341C8.54644 18.1697 8.53271 18.1007 8.53271 18.031C8.53271 17.9613 8.54644 17.8923 8.57312 17.8279C8.59979 17.7635 8.63889 17.705 8.68818 17.6557C8.78772 17.5561 8.92273 17.5002 9.0635 17.5002C9.1332 17.5002 9.20222 17.514 9.26662 17.5406C9.33102 17.5673 9.38953 17.6064 9.43882 17.6557L10.6558 18.8727V9.5387C10.6558 9.39794 10.7117 9.26293 10.8113 9.16339C10.9108 9.06385 11.0458 9.00793 11.1866 9.00793C11.3273 9.00793 11.4623 9.06385 11.5619 9.16339C11.6614 9.26293 11.7173 9.39794 11.7173 9.5387V18.8727L12.9343 17.6557C13.0339 17.5562 13.1689 17.5002 13.3097 17.5002C13.4504 17.5002 13.5854 17.5562 13.685 17.6557ZM22.0542 11.2865L19.9311 9.16338C19.9288 9.16106 19.9263 9.15914 19.9239 9.15688C19.9138 9.14697 19.9032 9.13745 19.8924 9.12835C19.8856 9.12278 19.8784 9.11794 19.8715 9.11276C19.8645 9.10759 19.8578 9.10221 19.8506 9.0975C19.8427 9.09213 19.8345 9.08755 19.8263 9.08264C19.8196 9.07866 19.813 9.07441 19.8061 9.0707C19.798 9.06632 19.7896 9.06267 19.7813 9.05876C19.7739 9.05524 19.7666 9.05152 19.759 9.04841C19.751 9.04509 19.7428 9.04243 19.7347 9.03958C19.7265 9.0366 19.7184 9.03341 19.7099 9.03082C19.7018 9.02844 19.6937 9.02658 19.6854 9.02452C19.6768 9.0224 19.6683 9.01994 19.6596 9.01822C19.6502 9.01636 19.6407 9.01523 19.6313 9.01391C19.6236 9.01284 19.616 9.01132 19.6082 9.01059C19.5734 9.00715 19.5382 9.00715 19.5034 9.01059C19.4956 9.01132 19.488 9.01284 19.4803 9.01391C19.4709 9.01523 19.4614 9.01636 19.4521 9.01822C19.4433 9.01994 19.4348 9.0224 19.4262 9.02452C19.4179 9.02658 19.4098 9.02844 19.4016 9.03082C19.3933 9.03341 19.385 9.0366 19.3769 9.03958C19.3688 9.04243 19.3606 9.04509 19.3527 9.04841C19.345 9.05152 19.3377 9.05524 19.3303 9.05876C19.322 9.06267 19.3136 9.06632 19.3055 9.0707C19.2986 9.07441 19.2921 9.07866 19.2853 9.08264C19.2772 9.08748 19.2689 9.09213 19.261 9.09744C19.2538 9.10221 19.247 9.10759 19.2401 9.1127C19.2332 9.11794 19.226 9.12278 19.2192 9.12835C19.2084 9.13745 19.1978 9.14697 19.1877 9.15688C19.1853 9.15914 19.1828 9.16106 19.1804 9.16338L17.0573 11.2865C16.9578 11.386 16.9019 11.521 16.9019 11.6618C16.9019 11.8026 16.9578 11.9376 17.0574 12.0371C17.1569 12.1367 17.2919 12.1926 17.4327 12.1926C17.5735 12.1926 17.7085 12.1367 17.808 12.0371L19.025 10.8201V20.1541C19.025 20.2949 19.081 20.4299 19.1805 20.5294C19.28 20.6289 19.415 20.6849 19.5558 20.6849C19.6966 20.6849 19.8316 20.6289 19.9311 20.5294C20.0307 20.4299 20.0866 20.2949 20.0866 20.1541V10.8201L21.3036 12.0371C21.4031 12.1366 21.5381 12.1926 21.6789 12.1926C21.8197 12.1926 21.9547 12.1366 22.0542 12.0371C22.1537 11.9376 22.2097 11.8026 22.2097 11.6618C22.2097 11.521 22.1537 11.386 22.0542 11.2865Z" fill="white"/>
</g>
</g>
<defs>
<filter id="filter0_bii_1733_2842" x="-5.76514" y="-5.77332" width="41.5386" height="41.5385" filterUnits="userSpaceOnUse" color-interpolation-filters="sRGB">
<feFlood flood-opacity="0" result="BackgroundImageFix"/>
<feGaussianBlur in="BackgroundImage" stdDeviation="3"/>
<feComposite in2="SourceAlpha" operator="in" result="effect1_backgroundBlur_1733_2842"/>
<feBlend mode="normal" in="SourceGraphic" in2="effect1_backgroundBlur_1733_2842" result="shape"/>
<feColorMatrix in="SourceAlpha" type="matrix" values="0 0 0 0 0 0 0 0 0 0 0 0 0 0 0 0 0 0 127 0" result="hardAlpha"/>
<feOffset dy="1"/>
<feGaussianBlur stdDeviation="0.25"/>
<feComposite in2="hardAlpha" operator="arithmetic" k2="-1" k3="1"/>
<feColorMatrix type="matrix" values="0 0 0 0 0.429167 0 0 0 0 0.62325 0 0 0 0 1 0 0 0 0.34 0"/>
<feBlend mode="normal" in2="shape" result="effect2_innerShadow_1733_2842"/>
<feColorMatrix in="SourceAlpha" type="matrix" values="0 0 0 0 0 0 0 0 0 0 0 0 0 0 0 0 0 0 127 0" result="hardAlpha"/>
<feOffset dy="-1"/>
<feGaussianBlur stdDeviation="0.5"/>
<feComposite in2="hardAlpha" operator="arithmetic" k2="-1" k3="1"/>
<feColorMatrix type="matrix" values="0 0 0 0 0.0321194 0 0 0 0 0.0301389 0 0 0 0 0.129167 0 0 0 0.24 0"/>
<feBlend mode="normal" in2="effect2_innerShadow_1733_2842" result="effect3_innerShadow_1733_2842"/>
</filter>
<filter id="filter1_d_1733_2842" x="6.53271" y="8.00793" width="17.6768" height="15.6769" filterUnits="userSpaceOnUse" color-interpolation-filters="sRGB">
<feFlood flood-opacity="0" result="BackgroundImageFix"/>
<feColorMatrix in="SourceAlpha" type="matrix" values="0 0 0 0 0 0 0 0 0 0 0 0 0 0 0 0 0 0 127 0" result="hardAlpha"/>
<feOffset dy="1"/>
<feGaussianBlur stdDeviation="1"/>
<feComposite in2="hardAlpha" operator="out"/>
<feColorMatrix type="matrix" values="0 0 0 0 0 0 0 0 0 0 0 0 0 0 0 0 0 0 0.47 0"/>
<feBlend mode="normal" in2="BackgroundImageFix" result="effect1_dropShadow_1733_2842"/>
<feBlend mode="normal" in="SourceGraphic" in2="effect1_dropShadow_1733_2842" result="shape"/>
</filter>
<clipPath id="clip0_1733_2842">
<rect width="16.9846" height="16.9846" fill="white" transform="translate(6.87891 6.35413)"/>
</clipPath>
</defs>
</svg>
