<svg width="36" height="36" viewBox="0 0 36 36" fill="none" xmlns="http://www.w3.org/2000/svg">
<g clip-path="url(#clip0_1733_2791)">
<path d="M12.9923 10.0951L17.3622 5.72696L21.7339 10.0987L24.2751 7.55561L17.3622 0.640869L10.4492 7.55383L12.9923 10.0951Z" fill="white"/>
<path d="M6.10938 11.8918L8.65064 9.34875L11.1937 11.8918L8.65064 14.4331L6.10938 11.8918Z" fill="white"/>
<path d="M12.9923 13.6866L17.3622 18.0565L21.7339 13.6848L24.2769 16.2243L17.364 23.139L10.4492 16.2296L12.9923 13.6866Z" fill="white"/>
<path d="M23.5254 11.8918L26.0667 9.34875L28.6097 11.89L26.0667 14.4348L23.5254 11.8918Z" fill="white"/>
<path d="M19.9409 11.8899L17.3623 9.30951L15.4554 11.2163L15.2351 11.4349L14.7837 11.8863L17.3623 14.4631L19.9409 11.8917V11.8899Z" fill="white"/>
</g>
<circle cx="18" cy="18" r="18" fill="#EEEFF6"/>
<mask id="mask0_1733_2791" style="mask-type:alpha" maskUnits="userSpaceOnUse" x="0" y="0" width="36" height="36">
<circle cx="18" cy="18" r="18" fill="#EEEFF6"/>
</mask>
<g mask="url(#mask0_1733_2791)">
<g style="mix-blend-mode:multiply">
<circle cx="5.99463" cy="9" r="18" fill="#FF8058"/>
</g>
<g style="mix-blend-mode:multiply">
<circle cx="16.5054" cy="31.5" r="18" fill="#37405B"/>
</g>
<g style="mix-blend-mode:multiply">
<circle cx="32.9946" cy="21.0034" r="9" fill="#7EB8FC"/>
</g>
<g style="mix-blend-mode:multiply">
<circle cx="27.7446" cy="6.75336" r="12.75" fill="#E664D9"/>
</g>
</g>
<defs>
<clipPath id="clip0_1733_2791">
<rect width="22.5" height="22.5" fill="white" transform="translate(6.10938 0.640869)"/>
</clipPath>
</defs>
</svg>
