<svg width="16" height="17" viewBox="0 0 16 17" fill="none" xmlns="http://www.w3.org/2000/svg">
<path fill-rule="evenodd" clip-rule="evenodd" d="M8 16.5C12.4183 16.5 16 12.9183 16 8.5C16 4.08172 12.4183 0.5 8 0.5C3.58172 0.5 0 4.08172 0 8.5C0 12.9183 3.58172 16.5 8 16.5ZM7.53872 4.70241C7.68438 4.56586 7.86614 4.5 8.07276 4.5C8.27842 4.5 8.4582 4.56538 8.59787 4.7041C8.74511 4.84306 8.8162 5.02395 8.8162 5.23271C8.8162 5.44752 8.74597 5.63468 8.59962 5.78103C8.45971 5.92095 8.27928 5.98688 8.07276 5.98688C7.86614 5.98688 7.68438 5.92102 7.53872 5.78447L7.5315 5.7777C7.39381 5.63082 7.32932 5.44462 7.32932 5.23271C7.32932 5.02619 7.39526 4.84576 7.53517 4.70585L7.53872 4.70241ZM6.66406 6.88207H8.67671V11.4776C8.67671 11.6012 8.67938 11.6962 8.68435 11.7642C8.68653 11.794 8.68903 11.8168 8.69157 11.8335C8.70879 11.8393 8.73635 11.8459 8.77738 11.8511L9.50292 11.9303V12.5H6.66406V11.9303L7.38961 11.8511C7.43064 11.8459 7.45819 11.8393 7.47542 11.8335C7.47795 11.8168 7.48046 11.794 7.48264 11.7642C7.48761 11.6962 7.49027 11.6012 7.49027 11.4776V7.90449C7.49027 7.78084 7.48761 7.68583 7.48264 7.61791C7.48046 7.58811 7.47795 7.56532 7.47542 7.54863C7.45838 7.5428 7.43124 7.53629 7.39094 7.53113L6.66406 7.46505V6.88207Z" fill="#62718A"/>
</svg>
