<svg width="19" height="19" viewBox="0 0 19 19" fill="none" xmlns="http://www.w3.org/2000/svg">
<path d="M17.3494 9.85948C17.277 9.75356 17.2383 9.62827 17.2383 9.5C17.2383 9.37173 17.277 9.24644 17.3494 9.14052L18.3888 7.61872C18.6089 7.29645 18.4903 6.85381 18.1385 6.68482L16.4775 5.88664C16.3618 5.83108 16.2657 5.74194 16.2015 5.63085C16.1374 5.51976 16.1083 5.39191 16.118 5.26401L16.2573 3.4264C16.2868 3.03723 15.9628 2.71324 15.5736 2.74273L13.736 2.88203C13.6081 2.89172 13.4802 2.8626 13.3691 2.79846C13.2581 2.73432 13.1689 2.63816 13.1134 2.52254L12.3152 0.861447C12.1461 0.509689 11.7035 0.39109 11.3813 0.611223L9.85948 1.65064C9.75356 1.723 9.62827 1.7617 9.5 1.7617C9.37173 1.7617 9.24644 1.723 9.14052 1.65064L7.61872 0.611223C7.29645 0.39109 6.85381 0.509689 6.68482 0.861447L5.88664 2.52254C5.83108 2.63816 5.74194 2.73432 5.63085 2.79846C5.51976 2.8626 5.39191 2.89172 5.26401 2.88203L3.4264 2.74273C3.03723 2.71324 2.71324 3.03723 2.74273 3.4264L2.88203 5.26401C2.89172 5.39191 2.8626 5.51976 2.79846 5.63085C2.73432 5.74194 2.63816 5.83108 2.52254 5.88664L0.861447 6.68482C0.509689 6.85386 0.39109 7.2965 0.611223 7.61872L1.65064 9.14052C1.723 9.24644 1.7617 9.37173 1.7617 9.5C1.7617 9.62827 1.723 9.75356 1.65064 9.85948L0.611223 11.3813C0.39109 11.7036 0.509689 12.1462 0.861447 12.3152L2.52254 13.1134C2.63816 13.1689 2.73432 13.2581 2.79846 13.3691C2.8626 13.4802 2.89172 13.6081 2.88203 13.736L2.74273 15.5736C2.71324 15.9628 3.03723 16.2868 3.4264 16.2573L5.26401 16.118C5.39191 16.1083 5.51976 16.1374 5.63085 16.2015C5.74194 16.2657 5.83108 16.3618 5.88664 16.4775L6.68482 18.1386C6.85386 18.4903 7.2965 18.6089 7.61872 18.3888L9.14052 17.3494C9.24644 17.277 9.37173 17.2383 9.5 17.2383C9.62827 17.2383 9.75356 17.277 9.85948 17.3494L11.3813 18.3888C11.7036 18.6089 12.1462 18.4903 12.3152 18.1386L13.1134 16.4775C13.1689 16.3618 13.2581 16.2657 13.3692 16.2015C13.4802 16.1374 13.6081 16.1083 13.736 16.118L15.5736 16.2573C15.9628 16.2868 16.2868 15.9628 16.2573 15.5736L16.118 13.736C16.1083 13.6081 16.1374 13.4802 16.2015 13.3691C16.2657 13.2581 16.3618 13.1689 16.4775 13.1134L18.1385 12.3152C18.4903 12.1461 18.6089 11.7035 18.3888 11.3813L17.3494 9.85948Z" fill="#F0CC10"/>
<circle cx="9.49982" cy="9.50037" r="6" fill="#FFE564"/>
</svg>
