<svg width="16" height="14" viewBox="0 0 16 14" fill="none" xmlns="http://www.w3.org/2000/svg">
<path fill-rule="evenodd" clip-rule="evenodd" d="M1.45451 2.92109V11.736C2.11492 11.5412 3.07194 11.3636 4.36354 11.3636C5.65514 11.3636 6.61216 11.5412 7.27256 11.736V2.92109C7.16228 2.81679 6.99118 2.67391 6.75505 2.5286C6.26805 2.22891 5.4896 1.90922 4.36354 1.90922C3.23748 1.90922 2.45902 2.22891 1.97203 2.5286C1.73589 2.67391 1.5648 2.81679 1.45451 2.92109ZM7.99982 2.63648L8.58163 2.20013C8.67604 2.32601 8.72708 2.47912 8.72708 2.63648V12.8181C8.72708 13.0863 8.57946 13.3327 8.34298 13.4593C8.10912 13.5844 7.82591 13.5723 7.60383 13.4281M7.59879 13.4248L7.60073 13.426L7.60383 13.4281C7.60468 13.4286 7.60478 13.4287 7.60478 13.4287C7.60464 13.4286 7.60405 13.4282 7.60383 13.4281C7.60175 13.4268 7.59621 13.4234 7.58716 13.4183C7.56717 13.4068 7.52999 13.3865 7.47489 13.3601C7.3648 13.3072 7.18257 13.2296 6.92233 13.1495C6.40274 12.9897 5.56589 12.8181 4.36354 12.8181C3.16119 12.8181 2.32433 12.9897 1.80475 13.1495C1.54451 13.2296 1.36228 13.3072 1.25219 13.3601C1.19709 13.3865 1.15991 13.4068 1.13992 13.4183C1.13087 13.4234 1.12533 13.4268 1.12324 13.4281C1.12551 13.4266 1.12778 13.4251 1.13004 13.4236C1.13025 13.4235 1.13046 13.4233 1.13067 13.4232L0.727256 12.8181C1.13067 13.4232 1.13035 13.4234 1.13004 13.4236L1.12831 13.4247L1.12635 13.426L1.12324 13.4281C1.12249 13.4285 1.12191 13.4289 1.12324 13.4281C1.12303 13.4282 1.12339 13.428 1.12324 13.4281C0.901166 13.5723 0.617957 13.5844 0.384095 13.4593C0.147622 13.3327 0 13.0863 0 12.8181V2.63648C0 2.47912 0.0510373 2.32601 0.145451 2.20013L0.727256 2.63648C0.145451 2.20013 0.145694 2.1998 0.145942 2.19947L0.146459 2.19879L0.147575 2.19731L0.150127 2.19395L0.156527 2.18566C0.16137 2.17943 0.167371 2.17184 0.174544 2.16296C0.188886 2.14522 0.207932 2.12234 0.231786 2.09508C0.279468 2.04059 0.346536 1.96838 0.433831 1.88458C0.608297 1.71709 0.864733 1.50215 1.20972 1.28985C1.90452 0.862284 2.9442 0.454712 4.36354 0.454712C5.78288 0.454712 6.82256 0.862284 7.51736 1.28985C7.86234 1.50215 8.11878 1.71709 8.29325 1.88458C8.38054 1.96838 8.44761 2.04059 8.49529 2.09508C8.51915 2.12234 8.53819 2.14522 8.55253 2.16296C8.55971 2.17184 8.56571 2.17943 8.57055 2.18566L8.57695 2.19395L8.5795 2.19731L8.58062 2.19879L8.58114 2.19947C8.58138 2.1998 8.58163 2.20013 7.99982 2.63648" fill="#62718A"/>
<path fill-rule="evenodd" clip-rule="evenodd" d="M8.72743 2.92109V11.736C9.38784 11.5412 10.3449 11.3636 11.6365 11.3636C12.9281 11.3636 13.8851 11.5412 14.5455 11.736V2.92109C14.4352 2.81679 14.2641 2.67391 14.028 2.5286C13.541 2.22891 12.7625 1.90922 11.6365 1.90922C10.5104 1.90922 9.73194 2.22891 9.24495 2.5286C9.00881 2.67391 8.83772 2.81679 8.72743 2.92109ZM15.2727 2.63648L15.8545 2.20013C15.949 2.32601 16 2.47912 16 2.63648V12.8181C16 13.0863 15.8524 13.3327 15.6159 13.4593C15.382 13.5844 15.0988 13.5723 14.8768 13.4281M14.8717 13.4248L14.8737 13.426L14.8768 13.4281C14.8776 13.4286 14.8777 13.4287 14.8777 13.4287C14.8776 13.4286 14.877 13.4282 14.8768 13.4281C14.8747 13.4268 14.8691 13.4234 14.8601 13.4183C14.8401 13.4068 14.8029 13.3865 14.7478 13.3601C14.6377 13.3072 14.4555 13.2296 14.1952 13.1495C13.6757 12.9897 12.8388 12.8181 11.6365 12.8181C10.4341 12.8181 9.59725 12.9897 9.07767 13.1495C8.81743 13.2296 8.6352 13.3072 8.5251 13.3601C8.47001 13.3865 8.43283 13.4068 8.41284 13.4183C8.40379 13.4234 8.39825 13.4268 8.39616 13.4281C8.39843 13.4266 8.4007 13.4251 8.40296 13.4236C8.40317 13.4235 8.40338 13.4233 8.40358 13.4232L8.00018 12.8181C8.40358 13.4232 8.40327 13.4234 8.40296 13.4236L8.40123 13.4247L8.39926 13.426L8.39616 13.4281C8.39541 13.4285 8.39483 13.4289 8.39616 13.4281C8.39595 13.4282 8.39631 13.428 8.39616 13.4281C8.17408 13.5723 7.89088 13.5844 7.65701 13.4593C7.42054 13.3327 7.27292 13.0863 7.27292 12.8181V2.63648C7.27292 2.47912 7.32396 2.32601 7.41837 2.20013L8.00018 2.63648C7.41837 2.20013 7.41861 2.1998 7.41886 2.19947L7.41938 2.19879L7.42049 2.19731L7.42305 2.19395L7.42945 2.18566C7.43429 2.17943 7.44029 2.17184 7.44746 2.16296C7.4618 2.14522 7.48085 2.12234 7.5047 2.09508C7.55239 2.04059 7.61945 1.96838 7.70675 1.88458C7.88122 1.71709 8.13765 1.50215 8.48264 1.28985C9.17743 0.862284 10.2171 0.454712 11.6365 0.454712C13.0558 0.454712 14.0955 0.862284 14.7903 1.28985C15.1353 1.50215 15.3917 1.71709 15.5662 1.88458C15.6535 1.96838 15.7205 2.04059 15.7682 2.09508C15.7921 2.12234 15.8111 2.14522 15.8255 2.16296C15.8326 2.17184 15.8386 2.17943 15.8435 2.18566L15.8499 2.19395L15.8524 2.19731L15.8535 2.19879L15.8541 2.19947C15.8543 2.1998 15.8545 2.20013 15.2727 2.63648" fill="#62718A"/>
</svg>
