<svg width="16" height="15" viewBox="0 0 16 15" fill="none" xmlns="http://www.w3.org/2000/svg">
<path fill-rule="evenodd" clip-rule="evenodd" d="M1.45451 3.42097V12.2359C2.11492 12.041 3.07194 11.8634 4.36354 11.8634C5.65514 11.8634 6.61216 12.041 7.27256 12.2359V3.42097C7.16228 3.31667 6.99118 3.17379 6.75505 3.02848C6.26805 2.72879 5.4896 2.4091 4.36354 2.4091C3.23748 2.4091 2.45902 2.72879 1.97203 3.02848C1.73589 3.17379 1.5648 3.31667 1.45451 3.42097ZM7.99982 3.13636L8.58163 2.70001C8.67604 2.82589 8.72708 2.979 8.72708 3.13636V13.318C8.72708 13.5862 8.57946 13.8326 8.34298 13.9592C8.10912 14.0843 7.82591 14.0721 7.60383 13.9279M7.59879 13.9246L7.60073 13.9259L7.60383 13.9279C7.60468 13.9285 7.60478 13.9285 7.60478 13.9285C7.60464 13.9284 7.60405 13.9281 7.60383 13.9279C7.60175 13.9267 7.59621 13.9233 7.58716 13.9181C7.56717 13.9067 7.52999 13.8864 7.47489 13.86C7.3648 13.8071 7.18257 13.7295 6.92233 13.6494C6.40274 13.4895 5.56589 13.318 4.36354 13.318C3.16119 13.318 2.32433 13.4895 1.80475 13.6494C1.54451 13.7295 1.36228 13.8071 1.25219 13.86C1.19709 13.8864 1.15991 13.9067 1.13992 13.9181C1.13087 13.9233 1.12533 13.9267 1.12324 13.9279C1.12551 13.9265 1.12778 13.925 1.13004 13.9235C1.13025 13.9233 1.13046 13.9232 1.13067 13.9231L0.727256 13.318C1.13067 13.9231 1.13035 13.9233 1.13004 13.9235L1.12831 13.9246L1.12635 13.9259L1.12324 13.9279C1.12249 13.9284 1.12191 13.9288 1.12324 13.9279C1.12303 13.9281 1.12339 13.9279 1.12324 13.9279C0.901166 14.0721 0.617957 14.0843 0.384095 13.9592C0.147622 13.8326 0 13.5862 0 13.318V3.13636C0 2.979 0.0510373 2.82589 0.145451 2.70001L0.727256 3.13636C0.145451 2.70001 0.145694 2.69968 0.145942 2.69935L0.146459 2.69866L0.147575 2.69719L0.150127 2.69383L0.156527 2.68553C0.16137 2.67931 0.167371 2.67172 0.174544 2.66284C0.188886 2.6451 0.207932 2.62222 0.231786 2.59496C0.279468 2.54047 0.346536 2.46826 0.433831 2.38446C0.608297 2.21697 0.864733 2.00203 1.20972 1.78973C1.90452 1.36216 2.9442 0.95459 4.36354 0.95459C5.78288 0.95459 6.82256 1.36216 7.51736 1.78973C7.86234 2.00203 8.11878 2.21697 8.29325 2.38446C8.38054 2.46826 8.44761 2.54047 8.49529 2.59496C8.51915 2.62222 8.53819 2.6451 8.55253 2.66284C8.55971 2.67172 8.56571 2.67931 8.57055 2.68553L8.57695 2.69383L8.5795 2.69719L8.58062 2.69866L8.58114 2.69935C8.58138 2.69968 8.58163 2.70001 7.99982 3.13636" fill="#62718A"/>
<path fill-rule="evenodd" clip-rule="evenodd" d="M8.72746 3.42097V12.2359C9.38787 12.041 10.3449 11.8634 11.6365 11.8634C12.9281 11.8634 13.8851 12.041 14.5455 12.2359V3.42097C14.4352 3.31667 14.2641 3.17379 14.028 3.02848C13.541 2.72879 12.7625 2.4091 11.6365 2.4091C10.5104 2.4091 9.73197 2.72879 9.24498 3.02848C9.00884 3.17379 8.83775 3.31667 8.72746 3.42097ZM15.2728 3.13636L15.8546 2.70001C15.949 2.82589 16 2.979 16 3.13636V13.318C16 13.5862 15.8524 13.8326 15.6159 13.9592C15.3821 14.0843 15.0989 14.0721 14.8768 13.9279M14.8717 13.9246L14.8737 13.9259L14.8768 13.9279C14.8776 13.9285 14.8777 13.9285 14.8777 13.9285C14.8776 13.9284 14.877 13.9281 14.8768 13.9279C14.8747 13.9267 14.8692 13.9233 14.8601 13.9181C14.8401 13.9067 14.8029 13.8864 14.7478 13.86C14.6378 13.8071 14.4555 13.7295 14.1953 13.6494C13.6757 13.4895 12.8388 13.318 11.6365 13.318C10.4341 13.318 9.59728 13.4895 9.0777 13.6494C8.81746 13.7295 8.63523 13.8071 8.52513 13.86C8.47004 13.8864 8.43286 13.9067 8.41287 13.9181C8.40382 13.9233 8.39828 13.9267 8.39619 13.9279C8.39846 13.9265 8.40073 13.925 8.40299 13.9235C8.4032 13.9233 8.40341 13.9232 8.40361 13.9231L8.00021 13.318C8.40361 13.9231 8.4033 13.9233 8.40299 13.9235L8.40126 13.9246L8.39929 13.9259L8.39619 13.9279C8.39544 13.9284 8.39486 13.9288 8.39619 13.9279C8.39598 13.9281 8.39634 13.9279 8.39619 13.9279C8.17412 14.0721 7.89091 14.0843 7.65704 13.9592C7.42057 13.8326 7.27295 13.5862 7.27295 13.318V3.13636C7.27295 2.979 7.32399 2.82589 7.4184 2.70001L8.00021 3.13636C7.4184 2.70001 7.41864 2.69968 7.41889 2.69935L7.41941 2.69866L7.42052 2.69719L7.42308 2.69383L7.42948 2.68553C7.43432 2.67931 7.44032 2.67172 7.44749 2.66284C7.46183 2.6451 7.48088 2.62222 7.50473 2.59496C7.55242 2.54047 7.61948 2.46826 7.70678 2.38446C7.88125 2.21697 8.13768 2.00203 8.48267 1.78973C9.17747 1.36216 10.2171 0.95459 11.6365 0.95459C13.0558 0.95459 14.0955 1.36216 14.7903 1.78973C15.1353 2.00203 15.3917 2.21697 15.5662 2.38446C15.6535 2.46826 15.7206 2.54047 15.7682 2.59496C15.7921 2.62222 15.8111 2.6451 15.8255 2.66284C15.8327 2.67172 15.8387 2.67931 15.8435 2.68553L15.8499 2.69383L15.8525 2.69719L15.8536 2.69866L15.8541 2.69935C15.8543 2.69968 15.8546 2.70001 15.2728 3.13636" fill="#62718A"/>
</svg>
