<svg width="20" height="21" viewBox="0 0 20 21" fill="none" xmlns="http://www.w3.org/2000/svg">
<path d="M9.99996 10.5007C10.4602 10.5007 10.8333 10.1276 10.8333 9.66732C10.8333 9.20708 10.4602 8.83398 9.99996 8.83398C9.53972 8.83398 9.16663 9.20708 9.16663 9.66732C9.16663 10.1276 9.53972 10.5007 9.99996 10.5007Z" fill="#14161A"/>
<path d="M13.3333 10.5007C13.7936 10.5007 14.1667 10.1276 14.1667 9.66732C14.1667 9.20708 13.7936 8.83398 13.3333 8.83398C12.8731 8.83398 12.5 9.20708 12.5 9.66732C12.5 10.1276 12.8731 10.5007 13.3333 10.5007Z" fill="#14161A"/>
<path d="M6.66671 10.5007C7.12694 10.5007 7.50004 10.1276 7.50004 9.66732C7.50004 9.20708 7.12694 8.83398 6.66671 8.83398C6.20647 8.83398 5.83337 9.20708 5.83337 9.66732C5.83337 10.1276 6.20647 10.5007 6.66671 10.5007Z" fill="#14161A"/>
<path d="M15.8333 3H4.16663C3.50358 3 2.8677 3.26339 2.39886 3.73223C1.93002 4.20107 1.66663 4.83696 1.66663 5.5V18C1.66688 18.1477 1.70637 18.2926 1.78104 18.42C1.85572 18.5474 1.9629 18.6526 2.09163 18.725C2.21617 18.7956 2.3568 18.8329 2.49996 18.8333C2.64953 18.8333 2.79633 18.793 2.92496 18.7167L6.66663 16.45C6.80493 16.3677 6.96412 16.3271 7.12496 16.3333H11.4791H15.8333C16.4963 16.3333 17.1322 16.0699 17.6011 15.6011C18.0699 15.1323 18.3333 14.4964 18.3333 13.8333V5.5C18.3333 4.83696 18.0699 4.20107 17.6011 3.73223C17.1322 3.26339 16.4963 3 15.8333 3ZM16.6666 13.8333C16.6666 14.0543 16.5788 14.2663 16.4225 14.4226C16.2663 14.5789 16.0543 14.6667 15.8333 14.6667H7.12496C6.66981 14.6663 6.2232 14.7902 5.83329 15.025L3.33329 16.525V5.5C3.33329 5.27899 3.42109 5.06702 3.57737 4.91074C3.73365 4.75446 3.94561 4.66667 4.16663 4.66667H15.8333C16.0543 4.66667 16.2663 4.75446 16.4225 4.91074C16.5788 5.06702 16.6666 5.27899 16.6666 5.5V13.8333Z" fill="#14161A"/>
</svg>
