<svg width="16" height="16" viewBox="0 0 16 16" fill="none" xmlns="http://www.w3.org/2000/svg">
<path fill-rule="evenodd" clip-rule="evenodd" d="M8 16C12.4183 16 16 12.4183 16 8C16 3.58172 12.4183 0 8 0C3.58172 0 0 3.58172 0 8C0 12.4183 3.58172 16 8 16ZM7.53872 4.20241C7.68438 4.06586 7.86614 4 8.07276 4C8.27842 4 8.4582 4.06538 8.59787 4.2041C8.74511 4.34306 8.8162 4.52395 8.8162 4.73271C8.8162 4.94752 8.74597 5.13468 8.59962 5.28103C8.45971 5.42095 8.27928 5.48688 8.07276 5.48688C7.86614 5.48688 7.68438 5.42102 7.53872 5.28447L7.5315 5.2777C7.39381 5.13082 7.32932 4.94462 7.32932 4.73271C7.32932 4.52619 7.39526 4.34576 7.53517 4.20585L7.53872 4.20241ZM6.66406 6.38207H8.67671V10.9776C8.67671 11.1012 8.67938 11.1962 8.68435 11.2642C8.68653 11.294 8.68903 11.3168 8.69157 11.3335C8.70879 11.3393 8.73635 11.3459 8.77738 11.3511L9.50292 11.4303V12H6.66406V11.4303L7.38961 11.3511C7.43064 11.3459 7.45819 11.3393 7.47542 11.3335C7.47795 11.3168 7.48046 11.294 7.48264 11.2642C7.48761 11.1962 7.49027 11.1012 7.49027 10.9776V7.40449C7.49027 7.28084 7.48761 7.18583 7.48264 7.11791C7.48046 7.08811 7.47795 7.06532 7.47542 7.04863C7.45838 7.0428 7.43124 7.03629 7.39094 7.03113L6.66406 6.96505V6.38207Z" fill="#62718A"/>
</svg>
