<svg width="252" height="14" viewBox="0 0 252 14" fill="none" xmlns="http://www.w3.org/2000/svg">
<path d="M14.611 0.340487L16.758 13.6405H14.535L12.977 4.00749L8.664 13.4315H8.113L3.781 4.00749L2.223 13.6405H0L2.166 0.340487H4.313L8.379 9.38449L12.445 0.340487H14.611Z" fill="white"/>
<path d="M25.1544 13.8875C24.141 13.8875 23.2227 13.6658 22.3994 13.2225C21.5887 12.7792 20.949 12.1648 20.4804 11.3795C20.0244 10.5815 19.7964 9.67582 19.7964 8.66249V0.340487H22.0004V8.52949C22.0004 9.50482 22.2917 10.2965 22.8744 10.9045C23.4697 11.4998 24.2297 11.7975 25.1544 11.7975C26.079 11.7975 26.8327 11.4998 27.4154 10.9045C27.998 10.2965 28.2894 9.50482 28.2894 8.52949V0.340487H30.4744V8.66249C30.4744 9.67582 30.24 10.5815 29.7714 11.3795C29.3154 12.1648 28.682 12.7792 27.8714 13.2225C27.0607 13.6658 26.155 13.8875 25.1544 13.8875Z" fill="white"/>
<path d="M36.6609 0.340487V11.6075H42.1899V13.6405H34.4759V0.340487H36.6609Z" fill="white"/>
<path d="M42.0338 0.340487H52.0278V2.37349H48.1138V13.6405H45.9478V2.37349H42.0338V0.340487Z" fill="white"/>
<path d="M57.0696 13.6405H54.8846V0.340487H57.0696V13.6405Z" fill="white"/>
<path d="M72.7431 13.8685C71.4511 13.8685 70.2795 13.5708 69.2281 12.9755C68.1895 12.3802 67.3725 11.5632 66.7771 10.5245C66.1945 9.47316 65.9031 8.29515 65.9031 6.99049C65.9031 5.68582 66.1945 4.51415 66.7771 3.47549C67.3725 2.42415 68.1895 1.60082 69.2281 1.00549C70.2795 0.410155 71.4511 0.112488 72.7431 0.112488C73.7818 0.112488 74.7445 0.315155 75.6311 0.720488C76.5178 1.12582 77.2588 1.70215 77.8541 2.44949C78.4621 3.19682 78.8801 4.06449 79.1081 5.05249H76.9041C76.5875 4.16582 76.0618 3.47549 75.3271 2.98149C74.5925 2.47482 73.7311 2.22149 72.7431 2.22149C71.8691 2.22149 71.0775 2.43049 70.3681 2.84849C69.6715 3.25382 69.1205 3.81749 68.7151 4.53949C68.3225 5.26149 68.1261 6.07849 68.1261 6.99049C68.1261 7.90249 68.3225 8.71949 68.7151 9.44149C69.1205 10.1635 69.6715 10.7335 70.3681 11.1515C71.0775 11.5568 71.8691 11.7595 72.7431 11.7595C73.7565 11.7595 74.6368 11.4935 75.3841 10.9615C76.1315 10.4168 76.6508 9.67582 76.9421 8.73849H79.1651C78.9371 9.76449 78.5191 10.6638 77.9111 11.4365C77.3158 12.2092 76.5685 12.8108 75.6691 13.2415C74.7825 13.6595 73.8071 13.8685 72.7431 13.8685Z" fill="white"/>
<path d="M90.497 5.77449V0.340487H92.682V13.6405H90.497V7.84549H84.417V13.6405H82.232V0.340487H84.417V5.77449H90.497Z" fill="white"/>
<path d="M108.272 13.6405H105.916L104.757 10.7525H98.8292L97.6892 13.6405H95.3712L100.729 0.340487H102.781L108.272 13.6405ZM103.997 8.79549L101.774 3.19049L99.5892 8.79549H103.997Z" fill="white"/>
<path d="M113.175 13.6405H110.99V0.340487H113.175V13.6405Z" fill="white"/>
<path d="M126.057 9.68849V0.340487H128.204V13.6405H126.361L119.464 4.14049V13.6405H117.317V0.340487H119.293L126.057 9.68849Z" fill="white"/>
<path d="M146.632 9.68849V0.340487H148.779V13.6405H146.936L140.039 4.14049V13.6405H137.892V0.340487H139.868L146.632 9.68849Z" fill="white"/>
<path d="M160.597 0.340487V2.39249H155.106V6.15449H160.103V8.14949H155.106V13.6405H152.921V0.340487H160.597Z" fill="white"/>
<path d="M162.427 0.340487H172.421V2.37349H168.507V13.6405H166.341V2.37349H162.427V0.340487Z" fill="white"/>
<path d="M187.889 6.70549C188.471 6.98415 188.927 7.41482 189.257 7.99749C189.599 8.56749 189.77 9.20716 189.77 9.91649C189.77 10.6005 189.586 11.2275 189.219 11.7975C188.864 12.3675 188.37 12.8172 187.737 13.1465C187.116 13.4758 186.432 13.6405 185.685 13.6405H180.213V0.340487H185.571C186.305 0.340487 186.964 0.492487 187.547 0.796487C188.129 1.08782 188.585 1.49315 188.915 2.01249C189.257 2.53182 189.428 3.11449 189.428 3.76049C189.428 4.34315 189.288 4.90049 189.01 5.43249C188.731 5.96449 188.357 6.38882 187.889 6.70549ZM187.262 4.08349C187.262 3.57682 187.084 3.16515 186.73 2.84849C186.388 2.51915 185.957 2.35449 185.438 2.35449H182.36V5.81249H185.438C185.97 5.81249 186.407 5.64782 186.749 5.31849C187.091 4.98915 187.262 4.57749 187.262 4.08349ZM185.552 11.5505C186.134 11.5505 186.609 11.3732 186.977 11.0185C187.357 10.6638 187.547 10.2142 187.547 9.66949C187.547 9.12482 187.357 8.67515 186.977 8.32049C186.609 7.96582 186.134 7.78849 185.552 7.78849H182.36V11.5505H185.552Z" fill="white"/>
<path d="M200.762 13.6405L197.912 8.71949H195.385V13.6405H193.2V0.340487H198.387C199.223 0.340487 199.983 0.524154 200.667 0.891488C201.351 1.24615 201.883 1.74649 202.263 2.39249C202.656 3.02582 202.852 3.74149 202.852 4.53949C202.852 5.43882 202.605 6.23682 202.111 6.93349C201.617 7.61749 200.958 8.11149 200.135 8.41549L203.213 13.6405H200.762ZM195.385 2.39249V6.66749H198.254C198.963 6.66749 199.533 6.47115 199.964 6.07849C200.407 5.67315 200.629 5.15382 200.629 4.52049C200.629 3.89982 200.407 3.39315 199.964 3.00049C199.533 2.59515 198.963 2.39249 198.254 2.39249H195.385Z" fill="white"/>
<path d="M208.521 13.6405H206.336V0.340487H208.521V13.6405Z" fill="white"/>
<path d="M217.356 0.340487C218.648 0.340487 219.807 0.625487 220.833 1.19549C221.859 1.76549 222.657 2.55715 223.227 3.57049C223.809 4.58382 224.101 5.72382 224.101 6.99049C224.101 8.25715 223.809 9.39715 223.227 10.4105C222.657 11.4238 221.859 12.2155 220.833 12.7855C219.807 13.3555 218.648 13.6405 217.356 13.6405H212.663V0.340487H217.356ZM217.299 11.6075C218.185 11.6075 218.971 11.4112 219.655 11.0185C220.351 10.6132 220.89 10.0622 221.27 9.36549C221.662 8.66882 221.859 7.87715 221.859 6.99049C221.859 6.10382 221.662 5.31215 221.27 4.61549C220.89 3.90615 220.351 3.35515 219.655 2.96249C218.971 2.56982 218.185 2.37349 217.299 2.37349H214.848V11.6075H217.299Z" fill="white"/>
<path d="M232.98 6.89549H240.086C240.073 8.23815 239.775 9.44149 239.193 10.5055C238.623 11.5695 237.831 12.3992 236.818 12.9945C235.804 13.5898 234.658 13.8875 233.379 13.8875C232.087 13.8875 230.921 13.5898 229.883 12.9945C228.844 12.3992 228.027 11.5758 227.432 10.5245C226.849 9.47316 226.558 8.29515 226.558 6.99049C226.558 5.68582 226.849 4.51415 227.432 3.47549C228.014 2.42415 228.819 1.60082 229.845 1.00549C230.883 0.410155 232.042 0.112488 233.322 0.112488C234.386 0.112488 235.38 0.321488 236.305 0.739488C237.242 1.15749 238.021 1.74015 238.642 2.48749C239.275 3.23482 239.693 4.08349 239.896 5.03349H237.635C237.356 4.18482 236.824 3.50715 236.039 3.00049C235.266 2.48115 234.379 2.22149 233.379 2.22149C232.492 2.22149 231.7 2.42415 231.004 2.82949C230.307 3.23482 229.762 3.79849 229.37 4.52049C228.977 5.24249 228.781 6.06582 228.781 6.99049C228.781 7.92782 228.971 8.75749 229.351 9.47949C229.743 10.2015 230.288 10.7652 230.985 11.1705C231.681 11.5758 232.479 11.7785 233.379 11.7785C234.43 11.7785 235.355 11.5062 236.153 10.9615C236.951 10.4042 237.47 9.67582 237.711 8.77649H232.98V6.89549Z" fill="white"/>
<path d="M245.517 7.86449V11.5695H251.274V13.6405H243.332V0.340487H251.065V2.39249H245.517V5.85049H250.571V7.86449H245.517Z" fill="white"/>
</svg>
