<svg width="16" height="17" viewBox="0 0 16 17" fill="none" xmlns="http://www.w3.org/2000/svg">
<path d="M8.00007 8.1C8.4419 8.1 8.80007 7.74183 8.80007 7.3C8.80007 6.85817 8.4419 6.5 8.00007 6.5C7.55825 6.5 7.20007 6.85817 7.20007 7.3C7.20007 7.74183 7.55825 8.1 8.00007 8.1Z" fill="#62718A"/>
<path d="M11.2 8.1C11.6419 8.1 12 7.74183 12 7.3C12 6.85817 11.6419 6.5 11.2 6.5C10.7582 6.5 10.4 6.85817 10.4 7.3C10.4 7.74183 10.7582 8.1 11.2 8.1Z" fill="#62718A"/>
<path d="M4.80012 8.1C5.24195 8.1 5.60012 7.74183 5.60012 7.3C5.60012 6.85817 5.24195 6.5 4.80012 6.5C4.35829 6.5 4.00012 6.85817 4.00012 7.3C4.00012 7.74183 4.35829 8.1 4.80012 8.1Z" fill="#62718A"/>
<path d="M13.6 0.899902H2.4C1.76348 0.899902 1.15303 1.15276 0.702944 1.60285C0.252856 2.05293 0 2.66338 0 3.2999V15.2999C0.000244286 15.4417 0.038151 15.5808 0.10984 15.7031C0.18153 15.8254 0.284427 15.9264 0.408 15.9959C0.527565 16.0637 0.662569 16.0995 0.8 16.0999C0.943587 16.0999 1.08452 16.0612 1.208 15.9879L4.8 13.8119C4.93277 13.7329 5.08559 13.694 5.24 13.6999H13.6C14.2365 13.6999 14.847 13.447 15.2971 12.997C15.7471 12.5469 16 11.9364 16 11.2999V3.2999C16 2.66338 15.7471 2.05293 15.2971 1.60285C14.847 1.15276 14.2365 0.899902 13.6 0.899902ZM14.4 11.2999C14.4 11.5121 14.3157 11.7156 14.1657 11.8656C14.0157 12.0156 13.8122 12.0999 13.6 12.0999H5.24C4.80306 12.0996 4.37431 12.2185 4 12.4439L1.6 13.8839V3.2999C1.6 3.08773 1.68429 2.88425 1.83431 2.73422C1.98434 2.58419 2.18783 2.4999 2.4 2.4999H13.6C13.8122 2.4999 14.0157 2.58419 14.1657 2.73422C14.3157 2.88425 14.4 3.08773 14.4 3.2999V11.2999Z" fill="#62718A"/>
</svg>
