<svg width="16" height="17" viewBox="0 0 16 17" fill="none" xmlns="http://www.w3.org/2000/svg">
<path d="M11.488 10.1C11.552 9.572 11.6 9.044 11.6 8.5C11.6 7.956 11.552 7.428 11.488 6.9H14.192C14.32 7.412 14.4 7.948 14.4 8.5C14.4 9.052 14.32 9.588 14.192 10.1H11.488ZM10.072 14.548C10.552 13.66 10.92 12.7 11.176 11.7H13.536C12.7609 13.0346 11.5313 14.0456 10.072 14.548ZM9.872 10.1H6.128C6.048 9.572 6 9.044 6 8.5C6 7.956 6.048 7.42 6.128 6.9H9.872C9.944 7.42 10 7.956 10 8.5C10 9.044 9.944 9.572 9.872 10.1ZM8 14.868C7.336 13.908 6.8 12.844 6.472 11.7H9.528C9.2 12.844 8.664 13.908 8 14.868ZM4.8 5.3H2.464C3.23108 3.96177 4.45984 2.94919 5.92 2.452C5.44 3.34 5.08 4.3 4.8 5.3ZM2.464 11.7H4.8C5.08 12.7 5.44 13.66 5.92 14.548C4.4629 14.0453 3.23588 13.0342 2.464 11.7ZM1.808 10.1C1.68 9.588 1.6 9.052 1.6 8.5C1.6 7.948 1.68 7.412 1.808 6.9H4.512C4.448 7.428 4.4 7.956 4.4 8.5C4.4 9.044 4.448 9.572 4.512 10.1H1.808ZM8 2.124C8.664 3.084 9.2 4.156 9.528 5.3H6.472C6.8 4.156 7.336 3.084 8 2.124ZM13.536 5.3H11.176C10.9256 4.30917 10.5549 3.35272 10.072 2.452C11.544 2.956 12.768 3.972 13.536 5.3ZM8 0.5C3.576 0.5 0 4.1 0 8.5C0 10.6217 0.842855 12.6566 2.34315 14.1569C3.08601 14.8997 3.96793 15.489 4.93853 15.891C5.90914 16.2931 6.94943 16.5 8 16.5C10.1217 16.5 12.1566 15.6571 13.6569 14.1569C15.1571 12.6566 16 10.6217 16 8.5C16 7.44943 15.7931 6.40914 15.391 5.43853C14.989 4.46793 14.3997 3.58601 13.6569 2.84315C12.914 2.10028 12.0321 1.511 11.0615 1.10896C10.0909 0.706926 9.05058 0.5 8 0.5Z" fill="#62718A"/>
</svg>
