<svg xmlns="http://www.w3.org/2000/svg" viewBox="0 0 253.12 253.12"><g id="Layer_2" data-name="Layer 2"><g id="Layer_1-2" data-name="Layer 1"><circle cx="126.56" cy="126.56" r="126.56" style="fill:#3d83fe"/><path d="M210.25,123l-11.77-7.77c-1.08-4.64-.21-8.86,2-13.86l22.67,14.15c1.71,43.72-19.24,83-59.33,103.59-18.49-13.39-42.06-20-57.47-38.8-11.76-14.38-16-31.06-14.9-49.11,3.88-2.37,7.42-3.61,12.13-2.51,1.46,7.86.89,16.2,3.28,24.19,4,13.25,11.44,23.66,23.19,30.81,10.69,6.5,21.6,12.64,33.07,19.31C192.48,184.57,208.29,158.48,210.25,123Z" style="fill:#fff"/><path d="M147.41,157.84c-4.8-2-7-5.06-8.65-8.8,1.27-3.8,5.21-4.39,8-6.32,16.89-11.84,26.85-27.33,26.6-48.56-.14-11.55,0-23.11,0-34.55-31.37-16.19-62-15.85-93.13-.44-.22,4.72-.43,9.18-.64,13.72-3.24,2.91-7.24,3.83-12,5.12l0-27q59.13-34.14,118.7.43c0,18,1.46,36.1-.43,53.86C183.27,129.41,168.16,145.85,147.41,157.84Z" style="fill:#fff"/><path d="M89.24,219.06c-40-23.29-59.44-57.36-59.39-103.58C44,107.36,57.68,98.41,72.3,91.25c22-10.79,49.16-8,68.9,5.91.6,4-.81,7.33-4.34,11.11-35.32-24.39-64.06-4.19-93.62,14.87,1.22,34.57,16.77,61,46.48,80.26L103.07,196l10.77,8.56Z" style="fill:#fff"/></g></g></svg>