<svg xmlns="http://www.w3.org/2000/svg" viewBox="0 0 205.69 205.69"><g id="Layer_2" data-name="Layer 2"><g id="Layer_1-2" data-name="Layer 1"><circle cx="102.85" cy="102.85" r="102.85" style="fill:#fffffe"/><path d="M171.35,99.93l-9.57-6.3c-.87-3.77-.17-7.21,1.65-11.27l18.42,11.5c1.39,35.53-15.64,67.45-48.22,84.18-15-10.88-34.18-16.22-46.7-31.53-9.56-11.68-13-25.24-12.11-39.9,3.16-1.94,6-2.94,9.86-2,1.19,6.39.72,13.17,2.67,19.66,3.23,10.76,9.29,19.22,18.84,25,8.69,5.28,17.56,10.27,26.88,15.69C156.91,150,169.75,128.78,171.35,99.93Z" style="fill:#3c82fe"/><path d="M120.28,128.27a12.42,12.42,0,0,1-7-7.16c1-3.08,4.23-3.56,6.47-5.13,13.72-9.62,21.82-22.21,21.61-39.46-.12-9.39,0-18.78,0-28.08-25.49-13.16-50.42-12.88-75.68-.35-.18,3.83-.35,7.45-.52,11.14-2.64,2.37-5.89,3.12-9.77,4.16l0-22q48.06-27.74,96.47.36c0,14.61,1.18,29.33-.35,43.76C149.42,105.16,137.14,118.52,120.28,128.27Z" style="fill:#3d83fe"/><path d="M73,178c-32.48-18.93-48.3-46.62-48.26-84.17C36.2,87.24,47.37,80,59.24,74.16c17.92-8.77,39.95-6.53,56,4.8.49,3.23-.67,6-3.53,9C83,68.17,59.65,84.58,35.63,100.07c1,28.09,13.63,49.53,37.77,65.22l10.85-6L93,166.22Z" style="fill:#3c82fe"/></g></g></svg>