<svg width="28" height="28" viewBox="0 0 44 44" fill="none" xmlns="http://www.w3.org/2000/svg">
<path fill-rule="evenodd" clip-rule="evenodd" d="M39.136 13.6164V15.5564C39.1361 15.7437 39.0868 15.9277 38.9932 16.0899C38.8995 16.2521 38.7649 16.3868 38.6027 16.4804L32.352 20.0884L37.9347 23.3017C38.2998 23.5125 38.6029 23.8157 38.8135 24.1809C39.0242 24.546 39.135 24.9602 39.1347 25.3817V30.5511C39.1352 30.9728 39.0245 31.3873 38.8139 31.7527C38.6032 32.1181 38.2999 32.4215 37.9347 32.6324L23.248 41.0577C22.8832 41.2684 22.4693 41.3793 22.048 41.3793C21.6267 41.3793 21.2129 41.2684 20.848 41.0577L16.048 38.2831C15.9669 38.2363 15.8995 38.1689 15.8527 38.0878C15.8058 38.0067 15.7811 37.9147 15.7811 37.8211C15.7811 37.7274 15.8058 37.6354 15.8527 37.5543C15.8995 37.4732 15.9669 37.4059 16.048 37.3591L31.9147 28.2271C31.9554 28.2037 31.9892 28.17 32.0128 28.1294C32.0363 28.0888 32.0487 28.0427 32.0487 27.9957C32.0487 27.9488 32.0363 27.9027 32.0128 27.8621C31.9892 27.8214 31.9554 27.7878 31.9147 27.7644L26.024 24.3617C25.8619 24.2681 25.6779 24.2188 25.4907 24.2188C25.3034 24.2188 25.1195 24.2681 24.9574 24.3617L8.832 33.6444C8.71038 33.7146 8.57243 33.7516 8.432 33.7516C8.29157 33.7516 8.15361 33.7146 8.032 33.6444L6.208 32.5991C5.84085 32.389 5.53575 32.0856 5.32361 31.7196C5.11147 31.3536 4.99983 30.9381 5 30.5151V28.3991C4.99991 28.2585 5.03683 28.1205 5.10705 27.9988C5.17727 27.8771 5.27831 27.776 5.4 27.7057L28.512 14.4297C28.5527 14.4064 28.5866 14.3727 28.6101 14.3321C28.6336 14.2915 28.646 14.2453 28.646 14.1984C28.646 14.1515 28.6336 14.1053 28.6101 14.0647C28.5866 14.0241 28.5527 13.9904 28.512 13.9671L22.612 10.5537C22.4499 10.4601 22.2659 10.4108 22.0787 10.4108C21.8914 10.4108 21.7075 10.4601 21.5454 10.5537L5.812 19.6071C5.73086 19.6539 5.63882 19.6786 5.54514 19.6785C5.45145 19.6785 5.35943 19.6538 5.27833 19.6069C5.19722 19.56 5.12991 19.4925 5.08316 19.4113C5.0364 19.3302 5.01186 19.2381 5.012 19.1444V13.5911C5.01217 13.1686 5.12383 12.7537 5.3357 12.3883C5.54758 12.0228 5.85216 11.7198 6.21867 11.5097L20.8974 3.08573C21.2614 2.87632 21.674 2.76611 22.094 2.76611C22.514 2.76611 22.9266 2.87632 23.2907 3.08573L37.9414 11.5351C38.3056 11.7466 38.6078 12.0503 38.8175 12.4157C39.0272 12.781 39.1371 13.1951 39.136 13.6164Z" fill="#7524F9"/>
</svg>
