<svg width="22" height="22" viewBox="0 0 22 22" fill="none" xmlns="http://www.w3.org/2000/svg">
<mask id="mask0_4153_1737" style="mask-type:alpha" maskUnits="userSpaceOnUse" x="1" y="1" width="20" height="20">
<circle cx="11" cy="11" r="10" fill="url(#paint0_linear_4153_1737)"/>
</mask>
<g mask="url(#mask0_4153_1737)">
<rect x="-0.703857" y="-0.157593" width="24.4629" height="22.1576" fill="#D62735"/>
<path d="M3.95142 4.38684H17.6794V17.2985H3.95142V4.38684Z" fill="white"/>
<path fill-rule="evenodd" clip-rule="evenodd" d="M-0.260096 3.23914C-1.26861 3.23914 -2.08618 4.0567 -2.08618 5.06522V16.9348C-2.08618 17.9433 -1.26861 18.7609 -0.260096 18.7609H17.0877C18.0963 18.7609 18.9138 17.9433 18.9138 16.9348V5.06522C18.9138 4.0567 18.0963 3.23914 17.0877 3.23914H-0.260096ZM11.7833 5.32635C11.4352 4.97818 10.8707 4.97818 10.5225 5.32635L5.47928 10.3696C5.13111 10.7178 5.13111 11.2823 5.47928 11.6304L10.5225 16.6737C10.8707 17.0218 11.4352 17.0218 11.7833 16.6737L14.6202 13.8368C14.7943 13.6628 14.7943 13.3805 14.6202 13.2064L13.3594 11.9456C13.1853 11.7715 12.903 11.7715 12.729 11.9456L11.6258 13.0488C11.3646 13.3099 10.9413 13.3099 10.6802 13.0488L9.10414 11.4728C8.84299 11.2117 8.84299 10.7883 9.10414 10.5272L10.6802 8.9512C10.9413 8.69005 11.3646 8.69005 11.6258 8.9512L12.729 10.0544C12.903 10.2285 13.1853 10.2285 13.3594 10.0544L14.6202 8.79359C14.7943 8.6195 14.7943 8.33728 14.6202 8.16319L11.7833 5.32635Z" fill="#D62735"/>
</g>
<defs>
<linearGradient id="paint0_linear_4153_1737" x1="7.48649" y1="3.7027" x2="35.3243" y2="-11.4324" gradientUnits="userSpaceOnUse">
<stop stop-color="#E22440"/>
</linearGradient>
</defs>
</svg>
