<?xml version="1.0" encoding="UTF-8"?>
<!DOCTYPE svg PUBLIC "-//W3C//DTD SVG 1.1//EN" "http://www.w3.org/Graphics/SVG/1.1/DTD/svg11.dtd">
<svg xmlns="http://www.w3.org/2000/svg" version="1.1"  width="350px" height="350px" style="shape-rendering:geometricPrecision; text-rendering:geometricPrecision; image-rendering:optimizeQuality; fill-rule:evenodd; clip-rule:evenodd" xmlns:xlink="http://www.w3.org/1999/xlink">
<g><path style="opacity:1" fill="#fffefe" d="M -0.5,-0.5 C 132.833,-0.5 266.167,-0.5 399.5,-0.5C 399.5,132.833 399.5,266.167 399.5,399.5C 266.167,399.5 132.833,399.5 -0.5,399.5C -0.5,266.167 -0.5,132.833 -0.5,-0.5 Z"/></g>
<g><path style="opacity:1" fill="#ff0112" d="M 363.5,93.5 C 363.804,96.5219 364.304,99.5219 365,102.5C 365.5,168.166 365.667,233.832 365.5,299.5C 363.582,310.093 357.582,317.426 347.5,321.5C 250.848,322.653 154.181,322.819 57.5,322C 54.5219,321.304 51.5219,320.804 48.5,320.5C 42.0068,316.902 37.3401,311.569 34.5,304.5C 33.3537,236.848 33.1871,169.182 34,101.5C 34.696,98.5219 35.196,95.5219 35.5,92.5C 39.4847,84.5011 45.818,79.3344 54.5,77C 150.5,76.3333 246.5,76.3333 342.5,77C 352.37,79.0551 359.37,84.5551 363.5,93.5 Z"/></g>
<g><path style="opacity:1" fill="#ff1b26" d="M 35.5,92.5 C 35.196,95.5219 34.696,98.5219 34,101.5C 33.1871,169.182 33.3537,236.848 34.5,304.5C 33.71,303.391 33.21,302.058 33,300.5C 32.3333,232.833 32.3333,165.167 33,97.5C 33.7568,95.6854 34.5902,94.0188 35.5,92.5 Z"/></g>
<g><path style="opacity:1" fill="#ff1625" d="M 363.5,93.5 C 364.41,95.0188 365.243,96.6854 366,98.5C 366.832,165.668 366.665,232.668 365.5,299.5C 365.667,233.832 365.5,168.166 365,102.5C 364.304,99.5219 363.804,96.5219 363.5,93.5 Z"/></g>
<g><path style="opacity:1" fill="#fffcfc" d="M 299.5,156.5 C 300.342,161.051 299.008,164.717 295.5,167.5C 289.035,173.464 282.702,179.631 276.5,186C 274.167,186.667 271.833,186.667 269.5,186C 262.47,178.635 255.136,171.635 247.5,165C 244.5,164.333 241.5,164.333 238.5,165C 227.667,174.5 217.5,184.667 208,195.5C 206.814,200.368 207.814,204.702 211,208.5C 219.863,217.697 229.03,226.531 238.5,235C 242.782,235.965 246.782,235.298 250.5,233C 256.833,226.667 263.167,220.333 269.5,214C 272.634,213.21 275.634,213.543 278.5,215C 285.04,222.504 291.873,229.671 299,236.5C 299.79,239.634 299.457,242.634 298,245.5C 282.833,260.667 267.667,275.833 252.5,291C 246.713,295.14 240.713,295.473 234.5,292C 205.972,263.805 177.805,235.305 150,206.5C 147.554,200.734 148.221,195.401 152,190.5C 179.5,163 207,135.5 234.5,108C 241.306,104.309 247.639,104.976 253.5,110C 269.035,125.368 284.368,140.868 299.5,156.5 Z"/></g>
<g><path style="opacity:1" fill="#ff5c5b" d="M 299.5,156.5 C 300.634,158.966 300.801,161.633 300,164.5C 298.871,166.141 297.371,167.141 295.5,167.5C 299.008,164.717 300.342,161.051 299.5,156.5 Z"/></g>
<g><path style="opacity:1" fill="#ff1926" d="M 48.5,320.5 C 51.5219,320.804 54.5219,321.304 57.5,322C 154.181,322.819 250.848,322.653 347.5,321.5C 346.391,322.29 345.058,322.79 343.5,323C 246.833,323.667 150.167,323.667 53.5,323C 51.6854,322.243 50.0188,321.41 48.5,320.5 Z"/></g>
</svg>
