<svg width="28" height="28" viewBox="0 0 28 28" fill="none" xmlns="http://www.w3.org/2000/svg">
<path fill-rule="evenodd" clip-rule="evenodd" d="M16.4814 3C16.1175 3.58228 15.2877 4.86329 14.8801 5.32911C14.4725 5.79494 13.8369 6.59072 13.57 6.93038C13.3031 6.59072 12.6675 5.79494 12.2599 5.32911C11.8523 4.86329 11.0225 3.58228 10.6586 3C10.4403 3.14557 9.78519 3.65506 8.98456 4.31013C8.18393 4.96519 7.31051 5.83861 7.31051 5.83861C7.31051 5.83861 8.97 6.93038 9.78519 7.51266C10.5422 8.05337 11.3159 8.71962 11.6751 9.04512L8.11075 12.6305C7.80218 12.2883 7.11187 11.4809 6.5564 10.6924C5.97947 9.87342 4.89858 8.20681 4.89858 8.20681C4.89858 8.20681 4.01947 9.0745 3.35918 9.87082C2.69889 10.6672 2.18511 11.3189 2.03812 11.5363C2.618 11.904 3.89356 12.7421 4.3567 13.1527C4.81984 13.5634 5.61145 14.2042 5.94935 14.4733C5.60795 14.738 4.80803 15.3684 4.33955 15.7729C3.87107 16.1775 2.58465 16.9988 2 17.3589C2.14414 17.5782 2.64933 18.2366 3.29914 19.0415C3.94895 19.8464 4.81663 20.7255 4.81663 20.7255C4.81663 20.7255 5.91924 19.0732 6.50684 18.2619C7.03302 17.5353 7.67603 16.794 8.01524 16.4218L11.6084 20.015C11.2261 20.3574 10.4982 20.978 9.78519 21.4873C8.97 22.0696 7.31051 23.1614 7.31051 23.1614C7.31051 23.1614 8.18393 24.0348 8.98456 24.6899C9.78519 25.3449 10.4403 25.8544 10.6586 26C11.0225 25.4177 11.8523 24.1367 12.2599 23.6709C12.6675 23.2051 13.3031 22.4093 13.57 22.0696C13.8369 22.4093 14.4725 23.2051 14.8801 23.6709C15.2877 24.1367 16.1175 25.4177 16.4814 26C16.6997 25.8544 17.3548 25.3449 18.1554 24.6899C18.9561 24.0348 19.8295 23.1614 19.8295 23.1614C19.8295 23.1614 18.17 22.0696 17.3548 21.4873C16.6591 20.9904 15.9493 20.3875 15.5601 20.0404L19.0357 16.3886C19.3449 16.7219 20.0524 17.5268 20.6228 18.3143C21.2104 19.1256 22.313 20.7779 22.313 20.7779C22.313 20.7779 23.1807 19.8988 23.8305 19.0939C24.4803 18.289 24.9855 17.6306 25.1296 17.4113C24.545 17.0512 23.2586 16.2299 22.7901 15.8253C22.3216 15.4208 21.5217 14.7904 21.1803 14.5257C21.5182 14.2566 22.3098 13.6158 22.7729 13.2051C23.2361 12.7945 24.5116 11.9564 25.0915 11.5887C24.9445 11.3713 24.4307 10.7196 23.7704 9.92323C23.1102 9.1269 22.231 8.25922 22.231 8.25922C22.231 8.25922 21.1502 9.92583 20.5732 10.7448C20.0589 11.4749 19.429 12.2212 19.0936 12.5994L15.4571 9.05221C15.8127 8.72938 16.5923 8.05733 17.3548 7.51266C18.17 6.93038 19.8295 5.83861 19.8295 5.83861C19.8295 5.83861 18.9561 4.96519 18.1554 4.31013C17.3548 3.65506 16.6997 3.14557 16.4814 3ZM15.3545 9.07173L13.57 6.93038L11.7995 9.05503L13.5362 10.6194L15.3545 9.07173ZM18.9961 12.7297L21.1803 14.5257L19.0813 16.2983L17.3977 14.5041L18.9961 12.7297ZM15.3182 19.9718L13.57 22.0696L11.7713 19.9112L13.5823 18.4081L15.3182 19.9718ZM8.08976 16.2809L5.94935 14.4733L8.01768 12.7725L9.68693 14.5515L8.08976 16.2809ZM17.3648 14.509L13.6246 18.3404L9.76213 14.5282L13.5346 10.8215L17.3648 14.509Z" fill="black"/>
</svg>
