<svg width="28" height="28" viewBox="0 0 28 28" fill="none" xmlns="http://www.w3.org/2000/svg">
<g clip-path="url(#clip0_3219_13395)">
<path fill-rule="evenodd" clip-rule="evenodd" d="M13.9675 27V23.4217H10.7825V27H10.7175V23.4217H9.58C9.12173 23.4217 8.67591 23.2727 8.30971 22.9971C7.94351 22.7216 7.67678 22.3346 7.54972 21.8942C7.20664 21.7949 6.89427 21.6104 6.64169 21.3579C6.3891 21.1053 6.20451 20.793 6.1051 20.4499C5.66515 20.3226 5.27848 20.0558 5.00328 19.6897C4.72809 19.3236 4.57927 18.878 4.57922 18.42V17.2825H1V17.2175H4.57922V14.0325H1V13.9675H4.57922V10.7825H1V10.7175H4.57922V9.58C4.57925 9.12204 4.72802 8.67648 5.00315 8.31038C5.27829 7.94427 5.66489 7.67744 6.10477 7.55005C6.20407 7.20672 6.38869 6.89413 6.64141 6.64141C6.89413 6.38869 7.20672 6.20407 7.55005 6.10477C7.67733 5.66477 7.94411 5.27802 8.31022 5.00276C8.67633 4.72751 9.12196 4.57864 9.58 4.57857H10.7175V1H10.7825V4.57857H13.9675V1H14.0325V4.57857H17.2175V1H17.2825V4.57857H18.42C18.8781 4.57859 19.3239 4.72747 19.6901 5.0028C20.0562 5.27812 20.323 5.66498 20.4503 6.1051C20.7932 6.20453 21.1055 6.38909 21.3579 6.64161C21.6104 6.89414 21.7949 7.20642 21.8942 7.5494C22.3347 7.67641 22.7218 7.94316 22.9974 8.30943C23.273 8.6757 23.422 9.12164 23.4221 9.58V10.7175H27V10.7825H23.4221V13.9675H27V14.0325H23.4221V17.2175H27V17.2825H23.4221V18.42C23.422 18.8784 23.273 19.3243 22.9974 19.6906C22.7218 20.0568 22.3347 20.3236 21.8942 20.4506C21.7948 20.7935 21.6103 21.1056 21.3578 21.358C21.1053 21.6104 20.7932 21.7949 20.4503 21.8942C20.3232 22.3346 20.0565 22.7216 19.6903 22.9971C19.3241 23.2727 18.8783 23.4217 18.42 23.4217H17.2825V27H17.2175V23.4217H14.0325V27H13.9675ZM23.3567 13.9675C23.3544 12.8809 23.1623 11.8031 22.7893 10.7825H21.9768V13.9675H23.3571H23.3567ZM21.9768 14.0325H23.3571C23.3546 15.1191 23.1624 16.197 22.7893 17.2175H21.9768V14.0325ZM21.9118 13.9675V10.7825H20.5325V13.9675H21.9118ZM20.5325 14.0325H21.9118V17.2175H20.5325V14.0325ZM20.4675 13.9675C20.4637 12.8495 20.1687 11.7518 19.6118 10.7825H17.2825V13.9675H20.4675ZM17.2825 14.0325H20.4675C20.4637 15.1505 20.1687 16.2482 19.6118 17.2175H17.2825V14.0325ZM17.2175 13.9675V10.7825H14.0325V13.9675H17.2175ZM14.0325 14.0325H17.2175V17.2175H14.0325V14.0325ZM13.9675 13.9675V10.7825H10.7825V13.9675H13.9675ZM10.7825 14.0325H13.9675V17.2175H10.7825V14.0325ZM10.7175 13.9675V10.7825H8.38822C7.83125 11.7518 7.53633 12.8495 7.5325 13.9675H10.7175ZM7.5325 14.0325H10.7175V17.2175H8.38822C7.83125 16.2482 7.53633 15.1505 7.5325 14.0325V14.0325ZM7.4675 13.9675V10.7825H6.08787V13.9675H7.4675ZM6.08787 14.0325H7.4675V17.2175H6.08787V14.0325ZM6.02287 13.9675V10.7825H5.212C4.83872 11.803 4.64647 12.8809 4.6439 13.9675H6.02255H6.02287ZM4.64422 14.0325H6.02287V17.2175H5.212C4.83872 16.197 4.64647 15.1191 4.6439 14.0325H4.64422ZM4.64422 18.42V17.2825H5.16682C5.39188 17.8875 5.67874 18.4677 6.02287 19.0138V19.8643C6.02287 20.0408 6.04432 20.212 6.08527 20.3762C5.66778 20.2465 5.30271 19.9868 5.04343 19.6348C4.78415 19.2828 4.64426 18.8572 4.64422 18.42V18.42ZM6.02287 18.8909C5.70969 18.3813 5.44631 17.8426 5.23637 17.2825H6.02287V18.8909ZM6.08787 18.9949V17.2825H7.4675V20.4675H7.23935C6.80755 20.0162 6.42182 19.523 6.08787 18.9952V18.9949ZM7.5325 20.4675V17.2825H8.35085C8.92201 18.2626 9.7374 19.078 10.7175 19.6491V20.4675H7.5325ZM7.5325 17.2175H8.31347C7.91162 16.5092 7.64668 15.7316 7.5325 14.9253V17.2175ZM10.7175 19.5737C9.77257 19.0157 8.98433 18.2274 8.42625 17.2825H10.7175V19.5737ZM10.7825 19.6118V17.2825H13.9675V20.4675C12.8495 20.4637 11.7518 20.1687 10.7825 19.6118V19.6118ZM14.0325 20.4675V17.2825H17.2175V19.6118C16.2482 20.1687 15.1505 20.4637 14.0325 20.4675V20.4675ZM17.2825 19.5737V17.2825H19.5737C19.0157 18.2274 18.2274 19.0157 17.2825 19.5737V19.5737ZM17.2825 19.6491C18.2626 19.078 19.078 18.2626 19.6491 17.2825H20.4675V20.4675H17.2825V19.6491ZM19.6865 17.2175H20.4675V14.9253C20.3533 15.7316 20.0884 16.5092 19.6865 17.2175V17.2175ZM20.5325 20.4675V17.2825H21.9118V18.9985C21.5782 19.5251 21.193 20.0172 20.7619 20.4675H20.5325ZM21.9768 18.8942V17.2825H22.7652C22.5549 17.8438 22.2908 18.3836 21.9768 18.8942V18.8942ZM21.9768 19.017C22.3218 18.47 22.6093 17.8887 22.8348 17.2825H23.3571V18.42C23.357 18.8575 23.2169 19.2835 22.9573 19.6356C22.6976 19.9878 22.332 20.2475 21.9141 20.3768C21.9558 20.2092 21.9769 20.0371 21.9768 19.8643V19.017ZM22.8585 17.2175H23.3571V15.1125C23.2728 15.8311 23.1055 16.5374 22.8585 17.2175V17.2175ZM4.64422 17.2175H5.1431C4.89603 16.5375 4.72862 15.8311 4.64422 15.1125V17.2175ZM23.3571 10.7175V9.58C23.357 9.14254 23.2168 8.71661 22.9572 8.36455C22.6975 8.01249 22.332 7.7528 21.9141 7.6235C21.955 7.7873 21.9768 7.95857 21.9768 8.13537V8.98297C22.3217 9.53005 22.6091 10.1113 22.8345 10.7175H23.3571ZM22.8585 10.7825H23.3571V12.8875C23.2728 12.1689 23.1055 11.4626 22.8585 10.7825V10.7825ZM22.7649 10.7175C22.5546 10.1563 22.2907 9.61667 21.9768 9.10615V10.7175H22.7649ZM21.9118 10.7175V9.00182C21.5782 8.47511 21.193 7.98291 20.7619 7.5325H20.5325V10.7175H21.9118ZM20.4675 10.7175V7.5325H17.2825V8.35085C18.2626 8.92201 19.078 9.7374 19.6491 10.7175H20.4675ZM19.6865 10.7825H20.4675V13.0747C20.3533 12.2684 20.0884 11.4908 19.6865 10.7825V10.7825ZM19.5737 10.7175C19.0157 9.77257 18.2274 8.98433 17.2825 8.42625V10.7175H19.5737ZM17.2175 10.7175V8.38822C16.2482 7.83125 15.1505 7.53633 14.0325 7.5325V10.7175H17.2175ZM13.9675 10.7175V7.5325C12.8495 7.53633 11.7518 7.83125 10.7825 8.38822V10.7175H13.9675ZM10.7175 10.7175V8.42625C9.77257 8.98433 8.98433 9.77257 8.42625 10.7175H10.7175ZM8.35085 10.7175C8.92201 9.7374 9.7374 8.92201 10.7175 8.35085V7.5325H7.5325V10.7175H8.35085ZM7.5325 10.7825H8.31347C7.91162 11.4908 7.64668 12.2684 7.5325 13.0747V10.7825ZM7.4675 10.7175V7.5325H7.23967C6.80777 7.98375 6.42192 8.47694 6.08787 9.00475V10.7175H7.4675ZM6.02287 10.7175V9.1094C5.7097 9.61894 5.44631 10.1575 5.23637 10.7175H6.02287ZM5.16682 10.7175C5.39187 10.1125 5.67874 9.53234 6.02287 8.98622V8.13537C6.02287 7.9589 6.04432 7.78762 6.08495 7.62382C5.66752 7.75351 5.30251 8.01332 5.04329 8.36528C4.78408 8.71724 4.64424 9.14289 4.64422 9.58V10.7175H5.16682ZM4.64422 10.7825H5.1431C4.89604 11.4625 4.72863 12.1689 4.64422 12.8875V10.7825ZM12.8885 23.3567H10.7825V22.8575C11.452 23.101 12.1572 23.2703 12.8882 23.3564L12.8885 23.3567ZM13.9678 23.3564C12.8812 23.3539 11.8033 23.1616 10.7828 22.7883V21.9768H13.9678V23.3564ZM10.7178 22.7643V21.9768H9.1081C9.61814 22.2904 10.1572 22.5541 10.7178 22.7643V22.7643ZM13.9678 21.9118H10.7828V20.5325H13.9678V21.9118ZM10.7178 21.9118V20.5325H7.53282V20.7606C7.9837 21.1923 8.47645 21.5779 9.00377 21.9118H10.7175H10.7178ZM13.0754 20.4675H10.7825V19.6865C11.4908 20.0884 12.2684 20.3533 13.0747 20.4675H13.0754ZM13.0754 7.5325C12.269 7.64664 11.4912 7.91158 10.7828 8.31347V7.5325H13.075H13.0754ZM13.9678 7.4675H10.7828V6.08787H13.9678V7.4675ZM10.7178 7.4675V6.08787H9.00507C8.47725 6.42191 7.98406 6.80775 7.53282 7.23967V7.4675H10.7178ZM13.9678 6.02287H10.7828V5.212C11.8033 4.83863 12.8812 4.64627 13.9678 4.64358V6.02287ZM10.7178 6.02287V5.23605C10.1576 5.44596 9.61883 5.70934 9.10907 6.02255H10.7178V6.02287ZM12.8885 4.64358C12.1697 4.72803 11.4631 4.89555 10.7828 5.14277V4.64325H12.8885V4.64358ZM10.7178 5.16682V4.64358H9.58032C9.14303 4.64358 8.71722 4.78353 8.36518 5.04294C8.01314 5.30235 7.75335 5.66761 7.62382 6.08527C7.79127 6.04369 7.96317 6.02274 8.1357 6.02287H8.98622C9.53233 5.67863 10.1125 5.39166 10.7175 5.1665L10.7178 5.16682ZM10.7178 23.3564V22.8335C10.1124 22.6083 9.53175 22.3212 8.98525 21.9768H8.1357C7.95922 21.9768 7.78795 21.955 7.62382 21.9144C7.7533 22.3321 8.01306 22.6975 8.3651 22.9569C8.71715 23.2164 9.14299 23.3564 9.58032 23.3564H10.7178ZM17.2828 23.3564H18.4203C18.8577 23.3564 19.2836 23.2163 19.6356 22.9568C19.9877 22.6973 20.2474 22.3319 20.3768 21.9141C20.2093 21.9558 20.0373 21.9769 19.8646 21.9768H19.017C18.47 22.3216 17.8889 22.6089 17.2828 22.8341V23.3564ZM17.2178 22.8579V23.3564H15.1134C15.8318 23.2721 16.538 23.1048 17.2178 22.8579ZM17.2828 22.7646C17.8439 22.5544 18.3834 22.2906 18.8938 21.9768H17.2825V22.7646H17.2828ZM17.2178 21.9768V22.789C16.1973 23.162 15.1194 23.3541 14.0328 23.3564V21.9768H17.2178ZM17.2828 21.9118H18.9982C19.525 21.5782 20.0173 21.193 20.4678 20.7619V20.5325H17.2828V21.9118ZM17.2178 20.5325V21.9118H14.0328V20.5325H17.2178ZM17.2178 19.6865V20.4675H14.9256C15.7319 20.3533 16.5095 20.0884 17.2178 19.6865V19.6865ZM17.2178 7.5325V8.31347C16.5095 7.91162 15.7319 7.64668 14.9256 7.5325H17.2175H17.2178ZM17.2828 7.4675H20.4678V7.23837C20.0169 6.80698 19.5242 6.42158 18.9969 6.08787H17.2825V7.4675H17.2828ZM17.2178 6.08787V7.4675H14.0328V6.08787H17.2178V6.08787ZM17.2828 6.02287H18.8929C18.3827 5.70927 17.8436 5.44556 17.2828 5.2354V6.02287ZM17.2178 5.21135V6.02287H14.0328V4.64325C15.1194 4.64587 16.1972 4.83801 17.2178 5.21102V5.21135ZM17.2828 5.16585C17.8884 5.39111 18.4691 5.67831 19.0157 6.02287H19.8646C20.0411 6.02287 20.2127 6.04432 20.3768 6.08527C20.2473 5.66761 19.9875 5.30235 19.6355 5.04294C19.2834 4.78353 18.8576 4.64358 18.4203 4.64358H17.2828V5.16585ZM17.2178 4.64358V5.14212C16.538 4.89523 15.8318 4.72793 15.1134 4.64358H17.2175H17.2178ZM6.0882 19.1158V19.8643C6.0882 20.0486 6.11257 20.2273 6.15807 20.3973C6.33221 20.4441 6.51175 20.4677 6.69205 20.4675H7.1503C6.75598 20.05 6.40048 19.5975 6.0882 19.1155V19.1158ZM7.21205 20.5325H6.69205C6.51918 20.5326 6.34695 20.5115 6.1792 20.4698C6.27796 20.7876 6.45255 21.0767 6.68791 21.3121C6.92328 21.5475 7.21236 21.722 7.53022 21.8208C7.48865 21.6534 7.4677 21.4815 7.46782 21.3089V20.7883C7.38096 20.7046 7.29568 20.6194 7.21205 20.5325V20.5325ZM7.46782 20.6979C7.41211 20.6435 7.35707 20.5883 7.30272 20.5325H7.46782V20.6979ZM7.53282 20.8503V21.3089C7.53282 21.4932 7.5572 21.6719 7.6027 21.8419C7.77267 21.8874 7.95142 21.9118 8.1357 21.9118H8.8832C8.40183 21.5996 7.94984 21.2444 7.53282 20.8503V20.8503ZM19.1187 21.9118H19.8646C20.0489 21.9118 20.2276 21.8874 20.3976 21.8416C20.4444 21.6679 20.468 21.4888 20.4678 21.3089V20.8516C20.0512 21.2452 19.5996 21.6 19.1187 21.9118ZM20.5325 20.7892V21.3086C20.5326 21.481 20.5116 21.6528 20.4701 21.8201C20.7878 21.7214 21.0766 21.5469 21.3119 21.3118C21.5471 21.0766 21.7217 20.7877 21.8205 20.4701C21.6533 20.5115 21.4818 20.5324 21.3096 20.5322H20.7896C20.7055 20.6195 20.6198 20.7052 20.5325 20.7892V20.7892ZM20.8516 20.4672H21.3099C21.4935 20.4672 21.6719 20.4428 21.8416 20.3973C21.8883 20.2234 21.9119 20.0441 21.9118 19.864V19.1187C21.6 19.5995 21.2451 20.0509 20.8516 20.4675V20.4672ZM21.9118 8.88092V8.13505C21.9118 7.95045 21.8874 7.77202 21.8416 7.60205C21.6681 7.55555 21.4892 7.53205 21.3096 7.53218H20.8513C21.2449 7.94871 21.5999 8.40015 21.9118 8.88092V8.88092ZM20.7892 7.4675H21.3092C21.4854 7.4675 21.6567 7.48895 21.8205 7.5299C21.7218 7.21205 21.5472 6.92299 21.3119 6.68762C21.0766 6.45225 20.7876 6.27765 20.4698 6.17887C20.5114 6.34642 20.5323 6.51843 20.5322 6.69107V7.21042C20.6196 7.2946 20.7051 7.38007 20.7889 7.4675H20.7892ZM20.4672 7.14867V6.69075C20.4673 6.51077 20.4437 6.33157 20.397 6.15775C20.2232 6.11106 20.044 6.08745 19.864 6.08755H19.1168C19.5982 6.39948 20.0501 6.75454 20.4672 7.14835V7.14867ZM8.88385 6.08787H8.13505C7.9552 6.08771 7.7761 6.1112 7.60237 6.15775C7.55564 6.33167 7.53204 6.51099 7.53218 6.69107V7.14997C7.94957 6.75566 8.402 6.40016 8.88385 6.08787V6.08787ZM7.4675 7.21173V6.69107C7.4675 6.5146 7.48927 6.34267 7.53022 6.17855C7.21213 6.27731 6.92284 6.45201 6.68735 6.68755C6.45186 6.9231 6.27723 7.21243 6.17855 7.53055C6.3465 7.48863 6.51895 7.46746 6.69205 7.4675H7.21205C7.29557 7.38072 7.38072 7.29525 7.4675 7.21173V7.21173ZM7.3024 7.4675H7.4675V7.3024C7.41192 7.35667 7.357 7.41192 7.3024 7.4675ZM7.14965 7.5325H6.69172C6.51142 7.53232 6.33188 7.55593 6.15775 7.6027C6.11119 7.77642 6.0877 7.95552 6.08787 8.13537V8.8845C6.40014 8.40253 6.75564 7.94999 7.14997 7.5325H7.14965ZM20.5325 7.3011C20.5887 7.3557 20.6443 7.4116 20.6989 7.4675H20.5325V7.3011ZM20.6992 20.5325C20.6443 20.5887 20.5887 20.6443 20.5325 20.6992V20.5325H20.6992Z" fill="#94A3B8"/>
<path d="M21.8 1H6.2C3.32812 1 1 3.32812 1 6.2V21.8C1 24.6719 3.32812 27 6.2 27H21.8C24.6719 27 27 24.6719 27 21.8V6.2C27 3.32812 24.6719 1 21.8 1Z" fill="black"/>
<path d="M16.8917 10.666H11.1139C10.8685 10.666 10.6694 10.8649 10.6694 11.1104V16.8883C10.6694 17.1337 10.8685 17.3327 11.1139 17.3327H16.8917C17.1371 17.3327 17.3362 17.1337 17.3362 16.8883V11.1104C17.3362 10.8649 17.1371 10.666 16.8917 10.666Z" fill="white"/>
<path d="M10.2222 4H4.44448C4.19903 4 4 4.19893 4 4.44448V10.2222C4 10.4677 4.19903 10.6667 4.44448 10.6667H10.2222C10.4678 10.6667 10.6667 10.4677 10.6667 10.2222V4.44448C10.6667 4.19893 10.4678 4 10.2222 4Z" fill="white"/>
<path d="M23.5558 4H17.778C17.5325 4 17.3335 4.19893 17.3335 4.44448V10.2222C17.3335 10.4677 17.5325 10.6667 17.778 10.6667H23.5558C23.8013 10.6667 24.0002 10.4677 24.0002 10.2222V4.44448C24.0002 4.19893 23.8013 4 23.5558 4Z" fill="white"/>
<path d="M10.2222 17.333H4.44448C4.19903 17.333 4 17.5319 4 17.7774V23.5553C4 23.8007 4.19903 23.9997 4.44448 23.9997H10.2222C10.4678 23.9997 10.6667 23.8007 10.6667 23.5553V17.7774C10.6667 17.5319 10.4678 17.333 10.2222 17.333Z" fill="white"/>
<path d="M23.5558 17.333H17.778C17.5325 17.333 17.3335 17.5319 17.3335 17.7774V23.5553C17.3335 23.8007 17.5325 23.9997 17.778 23.9997H23.5558C23.8013 23.9997 24.0002 23.8007 24.0002 23.5553V17.7774C24.0002 17.5319 23.8013 17.333 23.5558 17.333Z" fill="white"/>
</g>
<defs>
<clipPath id="clip0_3219_13395">
<rect width="26" height="26" fill="white" transform="translate(1 1)"/>
</clipPath>
</defs>
</svg>
