<svg width="30" height="30" viewBox="0 0 30 30" fill="none" xmlns="http://www.w3.org/2000/svg">
<g clip-path="url(#clip0_382_308)">
<circle cx="15" cy="15" r="15" fill="#F5F9FF"/>
<g clip-path="url(#clip1_382_308)">
<path fill-rule="evenodd" clip-rule="evenodd" d="M14.9619 30V25.8024H11.2256V30H11.1494V25.8024H9.815C9.27742 25.8023 8.75443 25.6275 8.32485 25.3043C7.89527 24.9811 7.58238 24.5271 7.43333 24.0106C7.03087 23.894 6.66443 23.6776 6.36813 23.3813C6.07183 23.0851 5.85529 22.7187 5.73867 22.3163C5.22259 22.1669 4.76899 21.8539 4.44616 21.4245C4.12334 20.995 3.94876 20.4723 3.94871 19.935V18.6006H-0.25V18.5244H3.94871V14.7881H-0.25V14.7119H3.94871V10.9756H-0.25V10.8994H3.94871V9.565C3.94873 9.02778 4.12326 8.5051 4.44601 8.07563C4.76876 7.64617 5.22228 7.33316 5.73829 7.18371C5.85478 6.78096 6.07135 6.41427 6.36781 6.11781C6.66427 5.82135 7.03096 5.60478 7.43371 5.48829C7.58302 4.97213 7.89597 4.51845 8.32545 4.19555C8.75492 3.87265 9.27768 3.69802 9.815 3.69794H11.1494V-0.5H11.2256V3.69794H14.9619V-0.5H15.0381V3.69794H18.7744V-0.5H18.8506V3.69794H20.185C20.7224 3.69796 21.2453 3.87261 21.6749 4.19559C22.1044 4.51857 22.4174 4.97238 22.5667 5.48867C22.969 5.60531 23.3353 5.82182 23.6314 6.11805C23.9276 6.41428 24.144 6.7806 24.2606 7.18295C24.7772 7.33195 25.2314 7.64487 25.5547 8.07453C25.878 8.50419 26.0528 9.0273 26.0528 9.565V10.8994H30.25V10.9756H26.0528V14.7119H30.25V14.7881H26.0528V18.5244H30.25V18.6006H26.0528V19.935C26.0528 20.4727 25.878 20.9958 25.5547 21.4255C25.2314 21.8551 24.7772 22.1681 24.2606 22.317C24.1439 22.7193 23.9274 23.0854 23.6313 23.3815C23.3351 23.6776 22.9689 23.894 22.5667 24.0106C22.4176 24.5271 22.1047 24.9811 21.6751 25.3043C21.2456 25.6275 20.7226 25.8023 20.185 25.8024H18.8506V30H18.7744V25.8024H15.0381V30H14.9619ZM25.9762 14.7119C25.9734 13.4372 25.7481 12.1728 25.3105 10.9756H24.3574V14.7119H25.9766H25.9762ZM24.3574 14.7881H25.9766C25.9737 16.0628 25.7483 17.3272 25.3105 18.5244H24.3574V14.7881ZM24.2812 14.7119V10.9756H22.6631V14.7119H24.2812ZM22.6631 14.7881H24.2812V18.5244H22.6631V14.7881ZM22.5869 14.7119C22.5824 13.4004 22.2364 12.1127 21.583 10.9756H18.8506V14.7119H22.5869ZM18.8506 14.7881H22.5869C22.5824 16.0996 22.2364 17.3873 21.583 18.5244H18.8506V14.7881ZM18.7744 14.7119V10.9756H15.0381V14.7119H18.7744ZM15.0381 14.7881H18.7744V18.5244H15.0381V14.7881ZM14.9619 14.7119V10.9756H11.2256V14.7119H14.9619ZM11.2256 14.7881H14.9619V18.5244H11.2256V14.7881ZM11.1494 14.7119V10.9756H8.41696C7.76358 12.1127 7.41762 13.4004 7.41313 14.7119H11.1494ZM7.41313 14.7881H11.1494V18.5244H8.41696C7.76358 17.3873 7.41762 16.0996 7.41313 14.7881V14.7881ZM7.33687 14.7119V10.9756H5.71847V14.7119H7.33687ZM5.71847 14.7881H7.33687V18.5244H5.71847V14.7881ZM5.64222 14.7119V10.9756H4.691C4.25311 12.1728 4.02759 13.4372 4.02457 14.7119H5.64184H5.64222ZM4.02496 14.7881H5.64222V18.5244H4.691C4.25311 17.3272 4.02759 16.0628 4.02457 14.7881H4.02496ZM4.02496 19.935V18.6006H4.63801C4.90201 19.3103 5.23853 19.9909 5.64222 20.6315V21.6293C5.64222 21.8363 5.66738 22.0372 5.71542 22.2297C5.22567 22.0777 4.7974 21.7729 4.49325 21.3601C4.18909 20.9472 4.025 20.4478 4.02496 19.935V19.935ZM5.64222 20.4874C5.27483 19.8896 4.96587 19.2577 4.71959 18.6006H5.64222V20.4874ZM5.71847 20.6094V18.6006H7.33687V22.3369H7.06924C6.56271 21.8075 6.11021 21.229 5.71847 20.6098V20.6094ZM7.41313 22.3369V18.6006H8.37311C9.04313 19.7504 9.99964 20.7069 11.1494 21.3769V22.3369H7.41313ZM7.41313 18.5244H8.32927C7.85786 17.6935 7.54707 16.7813 7.41313 15.8354V18.5244ZM11.1494 21.2884C10.0409 20.6338 9.11624 19.7091 8.46156 18.6006H11.1494V21.2884ZM11.2256 21.333V18.6006H14.9619V22.3369C13.6504 22.3324 12.3627 21.9864 11.2256 21.333V21.333ZM15.0381 22.3369V18.6006H18.7744V21.333C17.6373 21.9864 16.3496 22.3324 15.0381 22.3369V22.3369ZM18.8506 21.2884V18.6006H21.5384C20.8838 19.7091 19.9591 20.6338 18.8506 21.2884V21.2884ZM18.8506 21.3769C20.0004 20.7069 20.9569 19.7504 21.6269 18.6006H22.5869V22.3369H18.8506V21.3769ZM21.6707 18.5244H22.5869V15.8354C22.4529 16.7813 22.1421 17.6935 21.6707 18.5244V18.5244ZM22.6631 22.3369V18.6006H24.2812V20.6136C23.8898 21.2314 23.438 21.8086 22.9323 22.3369H22.6631ZM24.3574 20.4912V18.6006H25.2823C25.0355 19.2591 24.7258 19.8923 24.3574 20.4912V20.4912ZM24.3574 20.6354C24.7621 19.9936 25.0994 19.3117 25.3639 18.6006H25.9766V19.935C25.9765 20.4482 25.8122 20.948 25.5076 21.361C25.203 21.7741 24.7741 22.0788 24.2838 22.2305C24.3328 22.0338 24.3575 21.8319 24.3574 21.6293V20.6354ZM25.3917 18.5244H25.9766V16.055C25.8777 16.898 25.6814 17.7266 25.3917 18.5244V18.5244ZM4.02496 18.5244H4.61017C4.32034 17.7266 4.12396 16.898 4.02496 16.055V18.5244ZM25.9766 10.8994V9.565C25.9765 9.05183 25.8121 8.55217 25.5075 8.13918C25.2029 7.72619 24.7741 7.42155 24.2838 7.26987C24.3319 7.46202 24.3574 7.66294 24.3574 7.87034V8.86464C24.762 9.50641 25.0991 10.1883 25.3635 10.8994H25.9766ZM25.3917 10.9756H25.9766V13.445C25.8777 12.602 25.6814 11.7734 25.3917 10.9756V10.9756ZM25.2819 10.8994C25.0353 10.241 24.7256 9.60802 24.3574 9.00914V10.8994H25.2819ZM24.2812 10.8994V8.88676C23.8898 8.26888 23.438 7.6915 22.9323 7.16313H22.6631V10.8994H24.2812ZM22.5869 10.8994V7.16313H18.8506V8.12311C20.0004 8.79313 20.9569 9.74964 21.6269 10.8994H22.5869ZM21.6707 10.9756H22.5869V13.6646C22.4529 12.7187 22.1421 11.8065 21.6707 10.9756V10.9756ZM21.5384 10.8994C20.8838 9.79091 19.9591 8.86624 18.8506 8.21156V10.8994H21.5384ZM18.7744 10.8994V8.16696C17.6373 7.51358 16.3496 7.16762 15.0381 7.16313V10.8994H18.7744ZM14.9619 10.8994V7.16313C13.6504 7.16762 12.3627 7.51358 11.2256 8.16696V10.8994H14.9619ZM11.1494 10.8994V8.21156C10.0409 8.86624 9.11624 9.79091 8.46156 10.8994H11.1494ZM8.37311 10.8994C9.04313 9.74964 9.99964 8.79313 11.1494 8.12311V7.16313H7.41313V10.8994H8.37311ZM7.41313 10.9756H8.32927C7.85786 11.8065 7.54707 12.7187 7.41313 13.6646V10.9756ZM7.33687 10.8994V7.16313H7.06962C6.56296 7.69248 6.11033 8.27103 5.71847 8.89019V10.8994H7.33687ZM5.64222 10.8994V9.01295C5.27484 9.61068 4.96587 10.2424 4.71959 10.8994H5.64222ZM4.63801 10.8994C4.902 10.1897 5.23852 9.50909 5.64222 8.86846V7.87034C5.64222 7.66332 5.66738 7.46241 5.71504 7.27026C5.22536 7.42239 4.79718 7.72717 4.4931 8.14004C4.18901 8.55291 4.02497 9.05223 4.02496 9.565V10.8994H4.63801ZM4.02496 10.9756H4.61017C4.32035 11.7734 4.12397 12.602 4.02496 13.445V10.9756ZM13.6961 25.7262H11.2256V25.1406C12.011 25.4261 12.8383 25.6248 13.6957 25.7258L13.6961 25.7262ZM14.9623 25.7258C13.6875 25.7228 12.4231 25.4973 11.226 25.0594V24.1074H14.9623V25.7258ZM11.1498 25.0312V24.1074H9.26142C9.85974 24.4753 10.4921 24.7846 11.1498 25.0312V25.0312ZM14.9623 24.0312H11.226V22.4131H14.9623V24.0312ZM11.1498 24.0312V22.4131H7.41351V22.6808C7.94241 23.1871 8.52045 23.6394 9.13904 24.0312H11.1494H11.1498ZM13.9153 22.3369H11.2256V21.4207C12.0565 21.8921 12.9687 22.2029 13.9146 22.3369H13.9153ZM13.9153 7.16313C12.9693 7.29702 12.057 7.60782 11.226 8.07927V7.16313H13.915H13.9153ZM14.9623 7.08687H11.226V5.46847H14.9623V7.08687ZM11.1498 7.08687V5.46847H9.14057C8.5214 5.86032 7.94284 6.31294 7.41351 6.81962V7.08687H11.1498ZM14.9623 5.39222H11.226V4.441C12.4231 4.00301 13.6875 3.77735 14.9623 3.77419V5.39222ZM11.1498 5.39222V4.46921C10.4925 4.71545 9.86055 5.02442 9.26257 5.39184H11.1498V5.39222ZM13.6961 3.77419C12.8529 3.87327 12.024 4.06978 11.226 4.35979V3.77381H13.6961V3.77419ZM11.1498 4.38801V3.77419H9.81538C9.3024 3.77421 8.80289 3.93837 8.38992 4.24268C7.97695 4.54699 7.6722 4.97546 7.52026 5.46542C7.71668 5.41664 7.91833 5.39206 8.12072 5.39222H9.11846C9.75908 4.9884 10.4397 4.65175 11.1494 4.38762L11.1498 4.38801ZM11.1498 25.7258V25.1124C10.4395 24.8482 9.7584 24.5114 9.11731 24.1074H8.12072C7.91371 24.1074 7.71279 24.0819 7.52026 24.0342C7.67214 24.5242 7.97686 24.9528 8.38983 25.2572C8.80281 25.5615 9.30236 25.7258 9.81538 25.7258H11.1498ZM18.851 25.7258H20.1854C20.6985 25.7257 21.198 25.5615 21.611 25.257C22.024 24.9526 22.3287 24.5239 22.4805 24.0338C22.284 24.0828 22.0822 24.1075 21.8797 24.1074H20.8854C20.2437 24.5118 19.562 24.8489 18.851 25.1131V25.7258ZM18.7748 25.141V25.7258H16.3062C17.1489 25.6269 17.9772 25.4306 18.7748 25.141ZM18.851 25.0316C19.5092 24.785 20.1421 24.4755 20.7409 24.1074H18.8506V25.0316H18.851ZM18.7748 24.1074V25.0601C17.5776 25.4978 16.3132 25.723 15.0385 25.7258V24.1074H18.7748ZM18.851 24.0312H20.8632C21.4812 23.6398 22.0588 23.188 22.5873 22.6823V22.4131H18.851V24.0312ZM18.7748 22.4131V24.0312H15.0385V22.4131H18.7748ZM18.7748 21.4207V22.3369H16.0858C17.0317 22.2029 17.9439 21.8921 18.7748 21.4207V21.4207ZM18.7748 7.16313V8.07927C17.9439 7.60786 17.0317 7.29707 16.0858 7.16313H18.7744H18.7748ZM18.851 7.08687H22.5873V6.81809C22.0583 6.31204 21.4803 5.85993 20.8617 5.46847H18.8506V7.08687H18.851ZM18.7748 5.46847V7.08687H15.0385V5.46847H18.7748V5.46847ZM18.851 5.39222H20.7397C20.1413 5.02433 19.5088 4.71498 18.851 4.46845V5.39222ZM18.7748 4.44024V5.39222H15.0385V3.77381C16.3132 3.77689 17.5775 4.00228 18.7748 4.43986V4.44024ZM18.851 4.38686C19.5614 4.65111 20.2426 4.98802 20.8838 5.39222H21.8797C22.0867 5.39222 22.288 5.41738 22.4805 5.46542C22.3286 4.97546 22.0238 4.54699 21.6108 4.24268C21.1979 3.93837 20.6984 3.77421 20.1854 3.77419H18.851V4.38686ZM18.7748 3.77419V4.35903C17.9772 4.0694 17.1489 3.87314 16.3062 3.77419H18.7744H18.7748ZM5.71885 20.7513V21.6293C5.71885 21.8454 5.74744 22.0551 5.80082 22.2545C6.00509 22.3094 6.2157 22.3371 6.42721 22.3369H6.96477C6.5022 21.8471 6.08517 21.3163 5.71885 20.7509V20.7513ZM7.03721 22.4131H6.42721C6.22442 22.4133 6.02238 22.3885 5.8256 22.3395C5.94145 22.7124 6.14626 23.0515 6.42236 23.3276C6.69846 23.6037 7.03757 23.8086 7.41046 23.9244C7.36169 23.728 7.33711 23.5263 7.33726 23.3239V22.7132C7.23535 22.6151 7.13532 22.515 7.03721 22.4131V22.4131ZM7.33726 22.6072C7.2719 22.5433 7.20734 22.4786 7.14358 22.4131H7.33726V22.6072ZM7.41351 22.786V23.3239C7.41351 23.5401 7.4421 23.7498 7.49547 23.9492C7.69487 24.0026 7.90456 24.0312 8.12072 24.0312H8.9976C8.43292 23.665 7.9027 23.2482 7.41351 22.786V22.786ZM21.0047 24.0312H21.8797C22.0958 24.0312 22.3055 24.0026 22.5049 23.9488C22.5597 23.745 22.5874 23.5349 22.5873 23.3239V22.7875C22.0985 23.2491 21.5688 23.6654 21.0047 24.0312ZM22.6631 22.7143V23.3235C22.6632 23.5258 22.6386 23.7273 22.5899 23.9236C22.9626 23.8078 23.3014 23.6031 23.5774 23.3273C23.8534 23.0514 24.0581 22.7125 24.174 22.3399C23.978 22.3885 23.7767 22.413 23.5747 22.4127H22.9647C22.8661 22.5152 22.7656 22.6157 22.6631 22.7143V22.7143ZM23.0375 22.3365H23.5751C23.7905 22.3365 23.9998 22.3079 24.1988 22.2545C24.2536 22.0505 24.2813 21.8401 24.2812 21.6289V20.7547C23.9154 21.3187 23.4991 21.8482 23.0375 22.3369V22.3365ZM24.2812 8.74493V7.86996C24.2812 7.65341 24.2526 7.44411 24.1988 7.24471C23.9953 7.19016 23.7854 7.1626 23.5747 7.16274H23.0371C23.4989 7.65138 23.9153 8.18095 24.2812 8.74493V8.74493ZM22.9643 7.08687H23.5743C23.781 7.08687 23.9819 7.11204 24.174 7.16007C24.0582 6.78722 23.8535 6.44812 23.5775 6.17201C23.3014 5.89591 22.9624 5.69109 22.5895 5.57522C22.6384 5.77177 22.6629 5.97355 22.6627 6.17607V6.78531C22.7653 6.88405 22.8656 6.98432 22.9639 7.08687H22.9643ZM22.5865 6.71287V6.17569C22.5866 5.96456 22.5589 5.75434 22.5041 5.55044C22.3002 5.49566 22.09 5.46797 21.8789 5.46809H21.0024C21.5671 5.83401 22.0973 6.25052 22.5865 6.71249V6.71287ZM8.99836 5.46847H8.11996C7.90898 5.46827 7.69889 5.49583 7.49509 5.55044C7.44028 5.75446 7.41259 5.96481 7.41274 6.17607V6.71439C7.90239 6.25184 8.43311 5.83481 8.99836 5.46847V5.46847ZM7.33687 6.78683V6.17607C7.33687 5.96905 7.36242 5.76737 7.41046 5.57484C7.0373 5.69069 6.69795 5.89562 6.4217 6.17194C6.14545 6.44826 5.9406 6.78766 5.82484 7.16084C6.02185 7.11166 6.22415 7.08682 6.42721 7.08687H7.03721C7.13519 6.98508 7.23508 6.88481 7.33687 6.78683V6.78683ZM7.1432 7.08687H7.33687V6.8932C7.27168 6.95687 7.20725 7.02168 7.1432 7.08687ZM6.96401 7.16313H6.42683C6.21532 7.16292 6.00471 7.19061 5.80044 7.24547C5.74582 7.44927 5.71826 7.65936 5.71847 7.87034V8.74912C6.08477 8.18374 6.5018 7.65288 6.96439 7.16313H6.96401ZM22.6631 6.89168C22.7291 6.95573 22.7943 7.0213 22.8583 7.08687H22.6631V6.89168ZM22.8587 22.4131C22.7943 22.4791 22.7291 22.5443 22.6631 22.6087V22.4131H22.8587Z" fill="#94A3B8"/>
<path d="M24.15 -0.5H5.85C2.48106 -0.5 -0.25 2.23106 -0.25 5.6V23.9C-0.25 27.2689 2.48106 30 5.85 30H24.15C27.5189 30 30.25 27.2689 30.25 23.9V5.6C30.25 2.23106 27.5189 -0.5 24.15 -0.5Z" fill="black"/>
<path d="M16.3237 7.03092C16.7965 8.99054 16.6367 10.7149 15.9665 10.8815C15.2962 11.0485 14.369 9.59482 13.8963 7.63443C13.4232 5.67481 13.5829 3.95042 14.2531 3.78381C14.9238 3.61682 15.851 5.07091 16.3237 7.03092ZM24.1355 8.71604C23.0875 7.60546 21.0032 7.90665 19.4797 9.38818C17.9562 10.8697 17.5704 12.9712 18.6181 14.0814C19.6658 15.1916 21.75 14.8908 23.2735 13.4092C24.797 11.9277 25.1832 9.82624 24.1355 8.71604ZM15.8022 25.7186C16.4724 25.5517 16.6089 23.73 16.1072 21.6496C15.6047 19.5695 14.6546 18.0182 13.9836 18.1848C13.3137 18.3518 13.1773 20.1734 13.6794 22.2535C14.1815 24.3339 15.1319 25.8853 15.8022 25.7186ZM8.9694 9.73245C10.9035 10.3028 12.3168 11.3032 12.1262 11.9673C11.9355 12.6311 10.2127 12.707 8.27896 12.1366C6.34488 11.5663 4.93158 10.5659 5.12221 9.90211C5.31321 9.23797 7.03532 9.1621 8.9694 9.73245ZM21.5217 17.2294C23.5743 17.8348 25.0837 18.8634 24.8931 19.5275C24.7024 20.1913 22.8839 20.2389 20.8312 19.6335C18.7782 19.0281 17.2692 17.9995 17.4598 17.3353C17.6505 16.6716 19.469 16.6239 21.5217 17.2294ZM11.1456 15.8363C10.666 15.3391 9.09293 16.0627 7.63236 17.4528C6.17141 18.842 5.37574 20.3716 5.85573 20.8688C6.33496 21.3659 7.908 20.6423 9.36895 19.2526C10.8299 17.863 11.6252 16.333 11.1456 15.8363Z" fill="#FFEE55"/>
</g>
</g>
<defs>
<clipPath id="clip0_382_308">
<rect width="30" height="30" rx="15" fill="white"/>
</clipPath>
<clipPath id="clip1_382_308">
<rect width="30.5" height="30.5" fill="white" transform="translate(-0.25 -0.5)"/>
</clipPath>
</defs>
</svg>
