<svg id="svg" version="1.1" xmlns="http://www.w3.org/2000/svg" xmlns:xlink="http://www.w3.org/1999/xlink" width="400" height="400" viewBox="0, 0, 400,400"><g id="svgg"><path id="path0" d="M141.600 165.636 C 123.679 167.423,104.699 173.497,90.946 181.846 C 89.356 182.811,87.843 183.600,87.583 183.600 C 86.462 183.600,87.555 212.550,88.785 215.400 C 88.975 215.840,89.444 217.836,89.828 219.837 C 90.510 223.385,90.545 223.455,91.273 222.727 C 95.819 218.181,121.986 209.711,125.987 211.490 C 126.764 211.836,127.580 212.140,127.800 212.165 C 128.914 212.293,132.249 213.526,135.200 214.902 C 137.902 216.162,138.910 216.546,139.300 216.464 C 139.465 216.429,139.600 216.574,139.600 216.787 C 139.600 217.001,139.870 217.071,140.200 216.945 C 140.530 216.818,140.800 216.914,140.800 217.157 C 140.800 217.401,141.162 217.600,141.605 217.600 C 142.048 217.600,142.723 217.771,143.105 217.981 C 143.487 218.190,144.520 218.655,145.400 219.014 C 146.280 219.373,147.313 219.832,147.695 220.034 C 148.077 220.235,148.577 220.400,148.807 220.400 C 149.037 220.400,149.895 220.704,150.713 221.076 C 151.531 221.447,152.380 221.775,152.600 221.804 C 152.820 221.833,153.646 222.138,154.435 222.481 C 155.224 222.824,156.304 223.233,156.835 223.389 C 157.366 223.546,158.605 224.053,159.588 224.515 C 160.572 224.978,161.697 225.333,162.088 225.303 C 162.480 225.274,162.800 225.419,162.800 225.625 C 162.800 225.831,163.048 226.000,163.351 226.000 C 163.654 226.000,164.599 226.302,165.451 226.670 C 166.303 227.039,167.352 227.404,167.783 227.481 C 168.213 227.557,168.705 227.841,168.877 228.110 C 169.048 228.380,169.191 228.429,169.194 228.220 C 169.197 228.011,169.416 228.056,169.680 228.320 C 169.944 228.584,170.484 228.800,170.880 228.800 C 171.276 228.800,171.600 228.980,171.600 229.200 C 171.600 229.420,171.735 229.557,171.900 229.504 C 172.229 229.398,175.785 230.623,176.895 231.224 C 177.277 231.431,177.799 231.600,178.055 231.600 C 178.311 231.600,179.468 232.064,180.626 232.630 C 181.785 233.197,182.973 233.710,183.266 233.770 C 183.986 233.917,185.075 234.346,187.056 235.263 C 187.967 235.684,188.867 235.991,189.056 235.945 C 189.707 235.785,191.575 236.917,191.326 237.320 C 191.189 237.542,191.269 237.605,191.505 237.459 C 191.740 237.313,192.443 237.403,193.066 237.658 C 193.690 237.913,194.536 238.187,194.946 238.266 C 195.356 238.344,196.166 238.661,196.746 238.969 C 198.983 240.156,201.022 240.961,201.532 240.858 C 201.825 240.799,202.500 241.036,203.032 241.384 C 203.564 241.733,204.000 241.917,204.000 241.792 C 204.000 241.668,204.810 242.041,205.800 242.621 C 206.790 243.201,207.600 243.547,207.600 243.389 C 207.600 243.231,207.842 243.303,208.137 243.548 C 208.432 243.793,208.802 243.865,208.959 243.708 C 209.115 243.551,209.369 243.602,209.522 243.822 C 209.675 244.041,211.144 244.654,212.786 245.183 C 222.534 248.327,235.096 274.979,237.256 297.100 C 237.600 300.620,237.882 302.000,238.257 302.000 C 239.508 302.000,251.600 296.868,251.600 296.337 C 251.600 296.152,251.772 296.000,251.982 296.000 C 252.192 296.000,253.871 295.145,255.713 294.100 C 257.555 293.055,259.713 291.862,260.508 291.449 C 261.304 291.036,262.992 289.821,264.260 288.749 C 265.528 287.677,266.727 286.800,266.925 286.800 C 267.377 286.800,270.576 284.263,274.087 281.121 L 276.773 278.717 276.548 276.859 C 272.480 243.324,258.054 215.902,233.400 194.839 C 208.586 173.639,173.445 162.460,141.600 165.636 M95.825 240.048 C 96.526 241.404,96.891 241.435,96.545 240.110 C 96.422 239.640,96.067 239.158,95.756 239.038 C 95.295 238.861,95.307 239.047,95.825 240.048 M117.979 273.778 C 118.507 274.340,119.000 274.800,119.073 274.800 C 119.434 274.800,118.139 273.185,117.618 272.986 C 117.288 272.859,117.451 273.216,117.979 273.778 M173.999 338.119 L 174.199 347.000 174.307 338.428 C 174.367 333.714,174.278 329.717,174.108 329.547 C 173.939 329.378,173.890 333.235,173.999 338.119 " stroke="none" fill="#f854d3" fill-rule="evenodd"></path><path id="path1" d="M150.303 130.433 C 130.898 131.545,112.235 136.434,94.300 145.104 L 87.200 148.536 87.200 166.068 C 87.200 178.254,87.331 183.600,87.628 183.600 C 87.863 183.600,89.356 182.811,90.946 181.846 C 115.497 166.942,147.772 161.742,177.955 167.828 C 228.585 178.036,268.814 220.435,275.658 270.800 C 276.828 279.409,276.602 279.091,279.492 276.200 C 283.191 272.500,287.600 267.456,287.600 266.924 C 287.600 266.661,287.967 266.188,288.415 265.874 C 289.473 265.134,291.913 261.852,293.778 258.664 C 294.589 257.277,295.712 255.615,296.273 254.971 C 296.834 254.327,298.635 251.010,300.275 247.600 C 301.916 244.190,303.390 241.145,303.551 240.834 C 304.224 239.535,297.815 222.330,293.352 213.455 C 270.724 168.459,227.851 137.813,178.600 131.427 C 168.837 130.161,160.292 129.861,150.303 130.433 " stroke="none" fill="#1de1cc" fill-rule="evenodd"></path><path id="path2" d="M96.800 117.299 C 93.354 118.188,88.581 122.844,87.639 126.234 C 87.234 127.695,86.977 148.400,87.365 148.400 C 87.456 148.400,90.424 146.980,93.961 145.244 C 175.427 105.256,273.145 147.200,301.905 234.500 C 302.901 237.525,303.864 240.000,304.045 240.000 C 304.604 240.000,308.753 226.517,309.821 221.225 C 310.379 218.461,311.001 215.898,311.203 215.530 C 312.546 213.076,312.834 203.414,312.717 164.800 L 312.600 126.600 311.675 124.723 C 310.456 122.247,308.270 120.045,305.365 118.367 L 303.000 117.000 200.600 116.969 C 140.888 116.951,97.616 117.089,96.800 117.299 " stroke="none" fill="#6bfb6b" fill-rule="evenodd"></path><path id="path3" d="M121.000 211.445 C 111.545 213.138,91.826 220.704,90.955 222.972 C 90.674 223.706,93.382 233.698,94.356 235.517 C 94.600 235.974,94.800 236.719,94.800 237.174 C 94.800 237.628,95.142 238.342,95.561 238.761 C 95.979 239.179,96.441 239.944,96.588 240.461 C 97.155 242.456,101.103 250.693,101.657 251.035 C 101.846 251.152,102.000 251.563,102.000 251.948 C 102.000 252.334,102.367 253.043,102.816 253.525 C 103.264 254.006,103.489 254.403,103.316 254.406 C 103.142 254.409,103.218 254.551,103.485 254.720 C 103.973 255.031,106.557 258.931,107.528 260.823 C 107.816 261.385,108.671 262.520,109.426 263.345 C 110.182 264.170,110.800 264.971,110.800 265.126 C 110.800 265.281,111.160 265.632,111.600 265.907 C 112.040 266.182,112.400 266.646,112.400 266.938 C 112.400 267.231,113.927 269.074,115.792 271.035 C 117.658 272.996,119.188 274.712,119.192 274.848 C 119.209 275.388,131.932 286.400,132.540 286.400 C 132.928 286.400,135.341 288.167,136.789 289.511 C 137.553 290.220,138.395 290.800,138.661 290.800 C 138.926 290.800,139.381 291.025,139.671 291.300 C 140.288 291.884,143.270 293.575,146.400 295.116 C 147.610 295.712,148.660 296.336,148.734 296.502 C 148.808 296.669,149.033 296.703,149.234 296.579 C 149.435 296.455,149.600 296.509,149.600 296.699 C 149.600 297.129,153.873 299.145,158.457 300.878 L 161.914 302.184 162.075 307.592 C 162.163 310.566,162.430 313.360,162.669 313.800 C 162.907 314.240,163.493 315.768,163.970 317.196 C 165.525 321.853,169.087 326.563,172.620 328.633 L 174.334 329.637 174.470 340.519 L 174.607 351.400 175.734 353.703 C 178.053 358.442,186.522 364.408,188.871 362.956 C 189.052 362.844,189.200 362.943,189.200 363.176 C 189.200 364.204,209.948 363.702,213.484 362.589 C 223.539 359.424,225.976 354.666,225.992 338.177 L 226.000 329.754 228.167 328.163 C 231.780 325.511,234.654 321.537,236.239 317.000 C 236.623 315.900,237.123 314.758,237.348 314.463 C 238.673 312.731,237.774 297.283,235.761 287.200 C 232.027 268.492,220.672 247.727,212.786 245.183 C 211.144 244.654,209.675 244.041,209.522 243.822 C 209.369 243.602,209.115 243.551,208.959 243.708 C 208.802 243.865,208.432 243.793,208.137 243.548 C 207.842 243.303,207.600 243.231,207.600 243.389 C 207.600 243.547,206.790 243.201,205.800 242.621 C 204.810 242.041,204.000 241.668,204.000 241.792 C 204.000 241.917,203.564 241.733,203.032 241.384 C 202.500 241.036,201.825 240.799,201.532 240.858 C 201.022 240.961,198.983 240.156,196.746 238.969 C 196.166 238.661,195.356 238.344,194.946 238.266 C 194.536 238.187,193.690 237.913,193.066 237.658 C 192.443 237.403,191.740 237.313,191.505 237.459 C 191.269 237.605,191.189 237.542,191.326 237.320 C 191.575 236.917,189.707 235.785,189.056 235.945 C 188.867 235.991,187.967 235.684,187.056 235.263 C 185.075 234.346,183.986 233.917,183.266 233.770 C 182.973 233.710,181.785 233.197,180.626 232.630 C 179.468 232.064,178.213 231.600,177.837 231.600 C 177.460 231.600,177.240 231.458,177.348 231.285 C 177.455 231.112,177.130 230.936,176.625 230.894 C 176.121 230.852,174.890 230.467,173.891 230.039 C 172.891 229.610,171.967 229.366,171.837 229.497 C 171.707 229.627,171.600 229.523,171.600 229.267 C 171.600 229.010,171.276 228.800,170.880 228.800 C 170.484 228.800,169.944 228.584,169.680 228.320 C 169.416 228.056,169.197 228.011,169.194 228.220 C 169.191 228.429,169.048 228.380,168.877 228.110 C 168.705 227.841,168.213 227.557,167.783 227.481 C 167.352 227.404,166.303 227.039,165.451 226.670 C 164.599 226.302,163.654 226.000,163.351 226.000 C 163.048 226.000,162.800 225.831,162.800 225.625 C 162.800 225.419,162.480 225.274,162.088 225.303 C 161.697 225.333,160.572 224.978,159.588 224.515 C 158.605 224.053,157.366 223.546,156.835 223.389 C 156.304 223.233,155.224 222.824,154.435 222.481 C 153.646 222.138,152.820 221.833,152.600 221.804 C 152.380 221.775,151.531 221.447,150.713 221.076 C 149.895 220.704,149.037 220.400,148.807 220.400 C 148.577 220.400,148.077 220.235,147.695 220.034 C 147.313 219.832,146.280 219.373,145.400 219.014 C 144.520 218.655,143.487 218.190,143.105 217.981 C 142.723 217.771,142.048 217.600,141.605 217.600 C 141.162 217.600,140.800 217.401,140.800 217.157 C 140.800 216.914,140.530 216.818,140.200 216.945 C 139.870 217.071,139.600 217.001,139.600 216.787 C 139.600 216.574,139.465 216.429,139.300 216.464 C 138.910 216.546,137.902 216.162,135.200 214.902 C 132.249 213.526,128.914 212.293,127.800 212.165 C 127.580 212.140,126.731 211.823,125.913 211.460 C 125.095 211.097,124.375 210.816,124.313 210.836 C 124.251 210.856,122.760 211.130,121.000 211.445 " stroke="none" fill="#fccc26" fill-rule="evenodd"></path><path id="path4" d="M139.000 37.993 C 134.894 39.997,132.343 42.511,130.670 46.200 L 129.400 49.000 129.289 83.104 L 129.178 117.209 145.889 117.104 L 162.600 117.000 162.714 85.600 C 162.865 43.982,162.603 42.543,154.155 38.615 C 152.860 38.013,151.277 37.268,150.639 36.960 C 148.116 35.744,142.606 36.233,139.000 37.993 M246.805 37.739 C 242.399 39.594,239.439 42.665,237.685 47.200 L 236.370 50.600 236.485 83.800 L 236.600 117.000 253.309 117.104 L 270.017 117.209 269.909 82.904 L 269.800 48.600 268.641 46.091 C 267.270 43.121,263.537 39.396,260.791 38.257 C 259.806 37.848,258.522 37.263,257.938 36.957 C 255.902 35.889,250.257 36.285,246.805 37.739 " stroke="none" fill="#041414" fill-rule="evenodd"></path></g></svg>