<?xml version="1.0" encoding="utf-8"?>
<!-- Generator: Adobe Illustrator 26.2.1, SVG Export Plug-In . SVG Version: 6.00 Build 0)  -->
<svg version="1.1" id="Layer_1" xmlns="http://www.w3.org/2000/svg" xmlns:xlink="http://www.w3.org/1999/xlink" x="0px" y="0px"
	 viewBox="0 0 26 26" style="enable-background:new 0 0 28.2 28.2;" xml:space="preserve">
<style type="text/css">
	.st0{fill-rule:evenodd;clip-rule:evenodd;fill:#0047AB;}
	.st1{fill-rule:evenodd;clip-rule:evenodd;fill:#FFFFFF;}
</style>
<g>
	<path class="st0" d="M4,0h20.2c2.2,0,4,1.8,4,4v20.2c0,2.2-1.8,4-4,4H4c-2.2,0-4-1.8-4-4V4C0,1.8,1.8,0,4,0z"/>
	<path class="st1" d="M21,18.8c-0.1,0.3-0.3,0.5-0.6,0.6l-10.1,5.2c-0.1,0.1-0.3,0-0.4-0.1c0,0,0-0.1,0-0.1c0,0,0-0.1,0-0.1v-2.5
		c0,0,0,0,0-0.1c0-0.1,0.1-0.2,0.2-0.3l6.9-3.5c0.4-0.3,0.6-0.8,0.4-1.3c-0.1-0.2-0.2-0.3-0.4-0.4L8.7,12c-0.5-0.2-0.7-0.7-0.7-1.2
		c0-0.5,0.3-1,0.7-1.2l10.1-5.2c0.1-0.1,0.3,0,0.4,0.1c0,0,0,0.1,0,0.1c0,0,0,0.1,0,0.1v2.5c0,0,0,0,0,0.1c0,0.1-0.1,0.2-0.2,0.3
		l-6.9,3.5c-0.4,0.3-0.6,0.8-0.4,1.3c0.1,0.2,0.2,0.3,0.4,0.4l8.3,4.2C21,17.4,21.3,18.1,21,18.8L21,18.8z"/>
</g>
</svg>
