<svg width="30" height="30" viewBox="0 0 30 30" fill="none" xmlns="http://www.w3.org/2000/svg">
<path d="M0 26C0 28.2091 1.79086 30 4 30H26C28.2091 30 30 28.2091 30 26V4C30 1.79086 28.2091 0 26 0H4C1.79086 0 0 1.79086 0 4V26ZM16.2125 5.5C17.425 5.7 18.5 6.075 19.375 6.6125C20.1 7.05 20.2 7.0875 20.3375 6.9125C20.425 6.8 20.5125 6.65 20.5375 6.5875C20.675 6.15 22.7125 8.425 23.3875 9.775C24.5375 12.0375 24.625 15.15 23.6375 17.5125C22.825 19.4375 21.075 21.275 19.1875 22.1875C18.075 22.725 16.625 23.1875 16.625 23.0125C16.625 22.95 16.7125 22.75 16.8125 22.5375C16.9625 22.25 17.2 22.0875 18.025 21.775C19.275 21.3 20.6 20.4 21.2875 19.5875L21.3597 19.5026C21.6207 19.196 21.6802 18.766 21.5125 18.4V18.4V18.4C21.3311 18.0136 21.3385 17.565 21.5325 17.1848L21.5375 17.175C22.075 16.125 22.3 15.1625 22.3 13.9375C22.3 12.8875 21.9875 11.3375 21.75 11.1875C21.6625 11.125 21.2875 11.8625 17.1875 20.225C16.025 22.575 15.05 24.5 15 24.5C14.9625 24.5 14.1125 22.825 13.125 20.7875C10.8125 16.05 8.3625 11.25 8.25 11.25C8.125 11.25 7.7875 12.5375 7.6875 13.375C7.575 14.3375 7.8125 15.6375 8.3125 16.8L8.47231 17.1713C8.64047 17.562 8.62773 18.007 8.4375 18.3875V18.3875V18.3875C8.2512 18.7452 8.31666 19.1822 8.59958 19.4696L8.9125 19.7875C9.7875 20.675 11.025 21.45 12.225 21.8875C12.9 22.125 13.05 22.2375 13.2625 22.65L13.3479 22.8165C13.4121 22.9416 13.299 23.0841 13.1625 23.05V23.05C10.6625 22.4625 8.525 21.0125 7.1375 18.9375C6.3875 17.8125 6.0625 16.9625 5.8 15.4625C5.2625 12.3625 6.4125 9.0375 8.7125 7C9.3125 6.475 9.5 6.4 9.5 6.65C9.5 6.7375 9.55 6.8875 9.6125 6.9875C9.7 7.1125 9.9 7.0375 10.575 6.6375C12.25 5.625 14.35 5.2 16.2125 5.5Z" fill="url(#paint0_linear_108_7)"/>
<path d="M13.9375 6.76249C13.525 6.82499 12.85 6.98749 12.4375 7.12499C11.6375 7.38749 10.375 8.16249 10.375 8.38749C10.375 8.56249 14.9125 17.9875 15 17.9875C15.0375 17.9875 15.4625 17.1375 15.9625 16.0875C16.4625 15.0375 17.5 12.875 18.2625 11.2625L19.4634 8.74265C19.5799 8.49822 19.5121 8.20574 19.3 8.03749V8.03749C18.0875 7.04999 15.725 6.48749 13.9375 6.76249ZM15.375 7.68749C15.7125 8.04999 16.6875 8.37499 17.4 8.37499C17.8125 8.37499 17.875 8.41249 17.8625 8.64999C17.8625 8.81249 17.8 9.13749 17.7125 9.37499C17.5625 9.79999 17.55 9.81249 16.825 9.81249C16.1875 9.81249 16.0625 9.84999 15.85 10.125C15.5375 10.55 15.425 11.3125 15.625 11.6875C15.75 11.925 15.75 12.0625 15.625 12.3625C15.5 12.675 15.5125 12.7875 15.6875 13.0875C15.85 13.3625 15.875 13.5625 15.7875 14.0625V14.0625C15.7291 14.4276 15.4191 14.7033 15.05 14.725V14.725C14.425 14.7625 14.4125 14.75 14.325 14.3625C14.2125 13.7625 14.2375 13.15 14.3875 13.0625C14.475 13 14.4875 12.75 14.4375 12.375C14.3875 12 14.4 11.75 14.4875 11.6875C14.8875 11.45 14.325 9.92499 13.7875 9.79999C13.625 9.74999 13.2625 9.74999 12.9875 9.78749C12.425 9.86249 12.3125 9.73749 12.175 8.88749L12.1716 8.86786C12.1277 8.61022 12.3261 8.37499 12.5875 8.37499V8.37499C13.3125 8.37499 14.2875 8.04999 14.625 7.68749C14.7875 7.51249 14.95 7.37499 15 7.37499C15.05 7.37499 15.2125 7.51249 15.375 7.68749Z" fill="url(#paint1_linear_108_7)"/>
<defs>
<linearGradient id="paint0_linear_108_7" x1="0.46875" y1="0.609375" x2="31.125" y2="30.8438" gradientUnits="userSpaceOnUse">
<stop stop-color="#5D98F0"/>
<stop offset="1" stop-color="#000A66"/>
</linearGradient>
<linearGradient id="paint1_linear_108_7" x1="30.4688" y1="30.8437" x2="0.890628" y2="1.07812" gradientUnits="userSpaceOnUse">
<stop stop-color="#2948A2"/>
<stop offset="1" stop-color="#4877D1"/>
</linearGradient>
</defs>
</svg>
