<svg width="28" height="28" viewBox="0 0 28 28" fill="none" xmlns="http://www.w3.org/2000/svg">
<g clip-path="url(#clip0_3006_13372)">
<path d="M27 14C27 6.8203 21.1797 1 14 1C6.8203 1 1 6.8203 1 14C1 21.1797 6.8203 27 14 27C21.1797 27 27 21.1797 27 14Z" fill="#F3F3F3"/>
<path fill-rule="evenodd" clip-rule="evenodd" d="M11.7045 7.97236C11.7299 7.96095 11.7574 7.95508 11.7851 7.95508H16.2148C16.2425 7.95508 16.27 7.96095 16.2954 7.97236L19.279 9.31589C19.3139 9.33154 19.3434 9.35701 19.364 9.38917L21.0647 12.0371C21.1112 12.1097 21.1057 12.2042 21.0508 12.2706L14.1517 20.6303C14.0729 20.7257 13.927 20.7257 13.8482 20.6303L6.94914 12.2706C6.8943 12.2042 6.88866 12.1097 6.93527 12.0371L8.63586 9.38917C8.65657 9.35701 8.68608 9.33154 8.72084 9.31589L11.7045 7.97236Z" fill="url(#paint0_linear_3006_13372)"/>
<path fill-rule="evenodd" clip-rule="evenodd" d="M11.7045 7.97236C11.7299 7.96095 11.7574 7.95508 11.7851 7.95508H16.2148C16.2425 7.95508 16.27 7.96095 16.2954 7.97236L19.279 9.31589C19.3139 9.33154 19.3434 9.35701 19.364 9.38917L21.0647 12.0371C21.1112 12.1097 21.1057 12.2042 21.0508 12.2706H6.94914C6.8943 12.2042 6.88866 12.1097 6.93527 12.0371L8.63586 9.38917C8.65657 9.35701 8.68608 9.33154 8.72084 9.31589L11.7045 7.97236Z" fill="url(#paint1_linear_3006_13372)"/>
<path d="M14.0002 10.5869L16.6918 14.1436H11.3086L14.0002 10.5869Z" fill="#95B0FF"/>
<path d="M13.8395 20.6108C13.9219 20.7104 14.0756 20.7084 14.1554 20.6066L14.9124 19.6414L16.6918 14.1445H11.3086L13.037 19.6414L13.8395 20.6108Z" fill="url(#paint2_linear_3006_13372)"/>
<path d="M14.0005 10.5863L9.229 9.87988L11.3089 14.143L14.0005 10.5863Z" fill="#D7D6FC"/>
<path d="M6.94922 12.2709L9.22846 9.87988L11.3084 14.143L6.94922 12.2709Z" fill="#BDB3F9"/>
<path d="M14 10.5863L18.7715 9.87988L16.6916 14.143L14 10.5863Z" fill="#6E97FF"/>
<path d="M21.051 12.2709L18.7718 9.87988L16.6919 14.143L21.051 12.2709Z" fill="#A4CCFA"/>
<path d="M21.0507 12.2716L18.7715 9.88061L19.2854 9.32031C19.295 9.32527 19.3232 9.33745 19.3516 9.3726C19.3882 9.41772 20.4559 11.0016 21.0645 12.0382C21.1204 12.1332 21.092 12.2218 21.0507 12.2716Z" fill="#799FF0"/>
<path d="M6.94932 12.2716L9.22846 9.88061L8.71462 9.32031C8.70494 9.32527 8.67683 9.33745 8.64832 9.3726C8.61173 9.41772 7.54409 11.0016 6.9354 12.0382C6.8796 12.1332 6.90801 12.2218 6.94932 12.2716Z" fill="#B28DFF"/>
<path d="M10.0183 14.8737C9.99917 14.8826 9.98077 14.8601 9.99344 14.8432L10.6046 14.0281C10.784 13.7888 10.8167 13.4703 10.6895 13.1997L10.2564 12.278C10.2474 12.2589 10.27 12.2405 10.2869 12.2532L11.1037 12.8631C11.3435 13.0421 11.6627 13.0747 11.9339 12.9478L12.8575 12.5156C12.8766 12.5067 12.8949 12.5292 12.8823 12.546L12.2712 13.3611C12.0917 13.6005 12.0591 13.919 12.1862 14.1896L12.6193 15.1113C12.6283 15.1304 12.6058 15.1487 12.5888 15.1361L11.772 14.5262C11.5323 14.3472 11.213 14.3146 10.9419 14.4415L10.0183 14.8737Z" fill="white"/>
</g>
<defs>
<linearGradient id="paint0_linear_3006_13372" x1="6.90378" y1="12.3558" x2="21.4509" y2="12.2034" gradientUnits="userSpaceOnUse">
<stop stop-color="#9889FE"/>
<stop offset="0.495027" stop-color="#68A3F1"/>
<stop offset="1" stop-color="#61A8EA"/>
</linearGradient>
<linearGradient id="paint1_linear_3006_13372" x1="8.62715" y1="9.3208" x2="19.1193" y2="9.27" gradientUnits="userSpaceOnUse">
<stop stop-color="#B69EFD"/>
<stop offset="1" stop-color="#9BB7FC"/>
</linearGradient>
<linearGradient id="paint2_linear_3006_13372" x1="14.0002" y1="14.1445" x2="14.0002" y2="20.6843" gradientUnits="userSpaceOnUse">
<stop stop-color="#B3C9FA"/>
<stop offset="1" stop-color="#A3D2F6"/>
</linearGradient>
<clipPath id="clip0_3006_13372">
<rect width="26" height="26" fill="white" transform="translate(1 1)"/>
</clipPath>
</defs>
</svg>
