<svg width="28" height="28" viewBox="0 0 28 28" fill="none" xmlns="http://www.w3.org/2000/svg">
<path d="M14.382 1C10.9134 1 8.10633 3.77769 8.10633 7.20997V9.53742C6.88829 9.75561 5.66675 10.0465 5.66675 10.4241V22.5704C5.66675 22.5704 5.66675 22.9064 6.04826 23.0657C7.43081 23.6198 12.87 25.5247 14.1195 25.9611C14.2805 26.02 14.326 26.02 14.368 26.02C14.4275 26.02 14.4555 26.02 14.6165 25.9611C15.8661 25.5247 21.3193 23.6198 22.7018 23.0657C23.0553 22.9202 23.0693 22.5843 23.0693 22.5843V10.4241C23.0693 10.0465 21.8653 9.74176 20.6437 9.53742V7.20997C20.6612 3.77769 17.8367 1 14.382 1ZM14.382 3.96818C16.4261 3.96818 17.6616 5.19078 17.6616 7.21344V9.2361C15.3691 9.07678 13.4125 9.07678 11.1059 9.2361V7.21344C11.1059 5.18732 12.3415 3.96818 14.382 3.96818ZM14.368 12.2147C17.2206 12.2147 19.6147 12.4329 19.6147 12.8242V20.4023C19.6147 20.52 19.6007 20.5339 19.4957 20.5754C19.3942 20.6205 14.6305 22.321 14.6305 22.321C14.6305 22.321 14.438 22.3799 14.382 22.3799C14.3225 22.3799 14.1335 22.3072 14.1335 22.3072C14.1335 22.3072 9.36987 20.6066 9.26837 20.5616C9.16686 20.5166 9.14936 20.5027 9.14936 20.3884V12.8104C9.12136 12.419 11.5154 12.2147 14.368 12.2147Z" fill="white"/>
</svg>
