<svg width="28" height="28" viewBox="0 0 28 28" fill="none" xmlns="http://www.w3.org/2000/svg">
<path d="M14.3823 1C10.9137 1 8.10657 3.77769 8.10657 7.20997V9.53742C6.88853 9.75561 5.66699 10.0465 5.66699 10.4241V22.5704C5.66699 22.5704 5.66699 22.9064 6.0485 23.0657C7.43105 23.6198 12.8702 25.5247 14.1198 25.9611C14.2808 26.02 14.3263 26.02 14.3683 26.02C14.4278 26.02 14.4558 26.02 14.6168 25.9611C15.8663 25.5247 21.3195 23.6198 22.7021 23.0657C23.0556 22.9202 23.0696 22.5843 23.0696 22.5843V10.4241C23.0696 10.0465 21.8655 9.74176 20.644 9.53742V7.20997C20.6615 3.77769 17.8369 1 14.3823 1ZM14.3823 3.96818C16.4263 3.96818 17.6619 5.19078 17.6619 7.21344V9.2361C15.3693 9.07678 13.4127 9.07678 11.1062 9.2361V7.21344C11.1062 5.18732 12.3417 3.96818 14.3823 3.96818V3.96818ZM14.3683 12.2147C17.2209 12.2147 19.615 12.4329 19.615 12.8242V20.4023C19.615 20.52 19.601 20.5339 19.496 20.5754C19.3944 20.6205 14.6308 22.321 14.6308 22.321C14.6308 22.321 14.4383 22.3799 14.3823 22.3799C14.3228 22.3799 14.1338 22.3072 14.1338 22.3072C14.1338 22.3072 9.37012 20.6066 9.26861 20.5616C9.16711 20.5166 9.14961 20.5027 9.14961 20.3884V12.8104C9.12161 12.419 11.5157 12.2147 14.3683 12.2147V12.2147Z" fill="#14161A"/>
</svg>
