<svg width="23" height="23" viewBox="0 0 23 23" fill="none" xmlns="http://www.w3.org/2000/svg">
<rect width="22.645" height="22.645" rx="4.31334" fill="#F52D20"/>
<path d="M13.3402 17.4693L11.9556 16.0729C11.5624 15.6763 10.9266 15.6763 10.5376 16.0729L9.15297 17.4693C8.74721 17.8786 8.08628 17.8786 7.68052 17.4693L7.01123 16.7943L9.13205 14.6554C10.2991 13.4783 12.1899 13.4783 13.357 14.6554L15.4778 16.7943L14.8085 17.4693C14.4069 17.8786 13.7502 17.8786 13.3402 17.4693Z" fill="white"/>
<path d="M5.8242 15.5925L5.15491 14.9175C4.74915 14.5082 4.74915 13.8417 5.15491 13.4324L6.53951 12.036C6.93272 11.6394 6.93272 10.9982 6.53951 10.6058L5.15491 9.2094C4.74915 8.80018 4.74915 8.1336 5.15491 7.72437L5.8242 7.04936L7.94502 9.18831C9.1121 10.3654 9.1121 12.2723 7.94502 13.4493L5.8242 15.5925Z" fill="white"/>
<path d="M11.265 8.85495C10.4995 8.85495 9.73401 8.56385 9.15256 7.97322L7.03174 5.83427L7.70103 5.15926C8.10679 4.75003 8.76772 4.75003 9.17348 5.15926L10.5581 6.55569C10.9471 6.94804 11.5871 6.94804 11.9761 6.55569L13.3607 5.15926C13.7665 4.75003 14.4274 4.75003 14.8332 5.15926L15.5025 5.83427L13.3817 7.97322C12.796 8.55542 12.0305 8.85495 11.265 8.85495Z" fill="white"/>
<path d="M16.6919 15.5753L14.5711 13.4363C13.404 12.2593 13.404 10.3524 14.5711 9.17531L16.6919 7.03636L17.3612 7.71137C17.767 8.1206 17.767 8.78717 17.3612 9.1964L15.9766 10.5928C15.5834 10.9894 15.5834 11.6307 15.9766 12.023L17.3612 13.4194C17.767 13.8287 17.767 14.4952 17.3612 14.9045L16.6919 15.5753Z" fill="white"/>
</svg>
