<svg width="83" height="12" viewBox="0 0 83 12" fill="none" xmlns="http://www.w3.org/2000/svg">
<g clip-path="url(#clip0_92_139)">
<path d="M1.95774 3.00954C2.1004 3.00954 2.13722 3.04667 2.17864 3.10236L4.03326 5.59942H4.09769L5.88789 3.11629C5.93851 3.05131 6.01674 3.01418 6.11799 3.01418H7.24089C7.35594 3.01418 7.39736 3.11629 7.34213 3.18127L4.82942 6.36525L7.62746 9.91125C7.69189 10.0041 7.65507 10.0923 7.53542 10.0923H6.40332C6.30207 10.0923 6.21003 10.0551 6.1456 9.96231L4.05627 7.13107H3.99184L1.99916 9.95302C1.92092 10.0459 1.83348 10.0969 1.72764 10.0969H0.604737C0.512696 10.0969 0.462073 10.018 0.526502 9.92982L3.28313 6.39309L0.798022 3.20911C0.7474 3.11629 0.770411 3.01418 0.890064 3.01418H1.95774V3.00954Z" fill="#141619"/>
<path d="M13.0669 3.00954C14.5994 3.00954 15.7085 4.12811 15.7085 5.54372C15.7085 7.00111 14.5994 8.09184 13.0669 8.09184H10.8395V9.91125C10.8395 10.0273 10.7889 10.0923 10.6831 10.0923H9.8455C9.73044 10.0923 9.66602 10.0273 9.66602 9.91125V3.19519C9.66602 3.07916 9.73044 3.01418 9.8455 3.01418H13.0669V3.00954ZM13.0669 6.98719C14.0057 6.98719 14.535 6.37453 14.535 5.54372C14.535 4.72684 14.0057 4.11418 13.0669 4.11418H10.8395V6.98719H13.0669Z" fill="#141619"/>
<path d="M18.1702 8.46762C18.635 8.46762 19.0354 8.8575 19.0354 9.32627C19.0354 9.79505 18.635 10.1989 18.1702 10.1989C17.7054 10.1989 17.3188 9.79505 17.3188 9.32627C17.3188 8.8575 17.7054 8.46762 18.1702 8.46762Z" fill="#141619"/>
<path d="M26.8004 10.0928C26.7084 10.0928 26.6347 10.0557 26.5795 9.97679L24.2739 7.03881L22.5619 4.66243L22.4975 4.67635L22.5757 6.78353V9.91646C22.5757 10.0325 22.5113 10.0975 22.3824 10.0975H21.5725C21.4712 10.0975 21.416 10.0325 21.416 9.91646V3.19575C21.416 3.07972 21.4666 3.01474 21.5817 3.01474H22.341C22.4699 3.01474 22.5711 3.05187 22.6356 3.1447L25.1115 6.2637L26.6577 8.42194L26.7222 8.40801L26.6301 6.31475V3.19575C26.6301 3.07972 26.6946 3.01474 26.8096 3.01474H27.6196C27.7346 3.01474 27.7852 3.07972 27.7852 3.19575V9.91646C27.7852 10.0325 27.7346 10.0975 27.6196 10.0975H26.8004V10.0928Z" fill="#141619"/>
<path d="M35.6128 3.00954C35.7049 3.00954 35.7923 3.08844 35.7923 3.19055V3.93317C35.7923 4.026 35.7003 4.10026 35.6128 4.10026H31.54V5.8547H35.2493C35.3643 5.8547 35.4287 5.91967 35.4287 6.03571V6.77833C35.4287 6.89436 35.3643 6.94542 35.2493 6.94542H31.54V8.98762H35.7417C35.8567 8.98762 35.9074 9.03868 35.9074 9.14543V9.91125C35.9074 10.0273 35.8567 10.0923 35.7417 10.0923H30.5368C30.4217 10.0923 30.3711 10.0273 30.3711 9.91125V3.19519C30.3711 3.07916 30.4217 3.01418 30.5368 3.01418H35.6128V3.00954Z" fill="#141619"/>
<path d="M43.9633 3.00954C44.0783 3.00954 44.1428 3.07452 44.1428 3.19055V3.93317C44.1428 4.0492 44.0783 4.11418 43.9633 4.11418H41.5794V9.91125C41.5794 10.0041 41.515 10.0923 41.3999 10.0923H40.59C40.4749 10.0923 40.4105 10.0273 40.4105 9.91125V4.11418H38.0266C37.9116 4.11418 37.8472 4.0492 37.8472 3.93317V3.19055C37.8472 3.07452 37.9116 3.00954 38.0266 3.00954H43.9633Z" fill="#141619"/>
<path d="M46.9672 3.00954C47.0822 3.00954 47.1466 3.04667 47.1742 3.13949L48.7988 8.71378H48.8632L50.4233 3.13949C50.4509 3.04667 50.5153 3.00954 50.6028 3.00954H51.468C51.56 3.00954 51.6244 3.04667 51.6474 3.13949L53.2444 8.71378H53.3088L54.9195 3.15342C54.9471 3.06059 55.0115 3.00954 55.099 3.00954H56.0516C56.1667 3.00954 56.2081 3.06059 56.1667 3.17663L53.9761 9.93446C53.9393 10.0366 53.861 10.0923 53.7552 10.0923H52.6875C52.5863 10.0923 52.5218 10.0412 52.4804 9.92518L51.063 4.94963H50.9985L49.5949 9.9391C49.5673 10.0412 49.5029 10.0969 49.4154 10.0969H48.334C48.2189 10.0969 48.1407 10.0459 48.1039 9.9391L45.8995 3.15342C45.8627 3.06059 45.8995 3.00954 46.0145 3.00954H46.9672Z" fill="#141619"/>
<path d="M61.5442 2.90735C63.5783 2.90735 65.166 4.439 65.166 6.56011C65.166 8.66729 63.5829 10.1989 61.5442 10.1989C59.5101 10.1989 57.9224 8.66729 57.9224 6.56011C57.9224 4.439 59.5055 2.90735 61.5442 2.90735ZM59.1051 6.56011C59.1051 8.0175 60.0991 9.09429 61.5396 9.09429C62.9846 9.09429 63.9741 8.0175 63.9741 6.56011C63.9741 5.09343 62.98 4.012 61.5396 4.012C60.0991 4.012 59.1051 5.08879 59.1051 6.56011Z" fill="#141619"/>
<path d="M70.8883 3.00954C72.4208 3.00954 73.5437 4.12811 73.5437 5.54372C73.5437 6.53234 73.0144 7.36314 72.2045 7.78086L73.378 9.88804C73.4424 10.0041 73.378 10.0969 73.2353 10.0969H72.2965C72.1815 10.0969 72.0894 10.0041 72.0388 9.91589L71.1 8.08255C71.0632 8.09648 70.9987 8.09648 70.9205 8.09648H68.6655V9.91589C68.6655 10.0319 68.6149 10.0969 68.4998 10.0969H67.6899C67.5472 10.0969 67.4966 10.0041 67.4966 9.91589V3.19519C67.4966 3.07916 67.561 3.01418 67.6761 3.01418H70.8883V3.00954ZM70.8883 6.98719C71.8271 6.98719 72.3702 6.37453 72.3702 5.54372C72.3702 4.72684 71.8271 4.11418 70.8883 4.11418H68.6609V6.98719H70.8883Z" fill="#141619"/>
<path d="M76.977 3.00954C77.092 3.00954 77.1564 3.07452 77.1564 3.19055V6.30955L80.4791 3.15342C80.5711 3.06059 80.7 3.00954 80.8519 3.00954H82.0116C82.1266 3.00954 82.1773 3.12557 82.0898 3.2184L78.9972 6.06356L82.2555 9.86948C82.3475 9.96231 82.2923 10.0923 82.1542 10.0923H81.1234C80.9669 10.0923 80.8381 10.0412 80.7368 9.92518L78.1459 6.83402L77.1518 7.64162V9.91589C77.1518 10.0319 77.0874 10.0969 76.9724 10.0969H76.1624C76.0473 10.0969 75.9829 10.0319 75.9829 9.91589V3.19519C75.9829 3.07916 76.0473 3.01418 76.1624 3.01418H76.977V3.00954Z" fill="#141619"/>
</g>
<defs>
<clipPath id="clip0_92_139">
<rect width="81.9534" height="10.9271" fill="white" transform="translate(0.497559 0.858948)"/>
</clipPath>
</defs>
</svg>
