<svg width="251" height="22" viewBox="0 0 251 22" fill="none" xmlns="http://www.w3.org/2000/svg">
<g clip-path="url(#clip0_143_695)">
<path d="M31.5817 5.59253C31.7968 5.59253 31.8523 5.64991 31.9148 5.73598L34.7114 9.59487H34.8086L37.508 5.7575C37.5843 5.65708 37.7023 5.5997 37.855 5.5997H39.5482C39.7217 5.5997 39.7841 5.7575 39.7009 5.85792L35.9119 10.7784L40.1311 16.2583C40.2283 16.4017 40.1728 16.538 39.9923 16.538H38.2852C38.1326 16.538 37.9938 16.4806 37.8966 16.3372L34.7461 11.9618H34.6489L31.6442 16.3228C31.5262 16.4663 31.3943 16.5452 31.2347 16.5452H29.5415C29.4027 16.5452 29.3264 16.4232 29.4235 16.287L33.5803 10.8214L29.833 5.90095C29.7566 5.7575 29.7913 5.5997 29.9717 5.5997H31.5817V5.59253Z" fill="white"/>
<path d="M48.3336 5.59253C50.6444 5.59253 52.3168 7.32114 52.3168 9.5088C52.3168 11.761 50.6444 13.4466 48.3336 13.4466H44.9749V16.2583C44.9749 16.4376 44.8985 16.538 44.7389 16.538H43.476C43.3025 16.538 43.2053 16.4376 43.2053 16.2583V5.87944C43.2053 5.70012 43.3025 5.5997 43.476 5.5997H48.3336V5.59253ZM48.3336 11.7395C49.7492 11.7395 50.5473 10.7927 50.5473 9.5088C50.5473 8.24641 49.7492 7.29962 48.3336 7.29962H44.9749V11.7395H48.3336Z" fill="white"/>
<path d="M56.0294 14.0276C56.7303 14.0276 57.334 14.6301 57.334 15.3545C57.334 16.079 56.7303 16.703 56.0294 16.703C55.3285 16.703 54.7456 16.079 54.7456 15.3545C54.7456 14.6301 55.3285 14.0276 56.0294 14.0276Z" fill="white"/>
<path d="M69.0479 16.5379C68.9091 16.5379 68.7981 16.4805 68.7148 16.3586L65.2381 11.8183L62.6566 8.1459L62.5595 8.16742L62.6775 11.4238V16.2653C62.6775 16.4447 62.5803 16.5451 62.386 16.5451H61.1647C61.012 16.5451 60.9287 16.4447 60.9287 16.2653V5.87934C60.9287 5.70003 61.005 5.59961 61.1785 5.59961H62.3235C62.5179 5.59961 62.6705 5.65699 62.7677 5.80044L66.5011 10.6205L68.8328 13.9557L68.9299 13.9342L68.7911 10.6994V5.87934C68.7911 5.70003 68.8883 5.59961 69.0618 5.59961H70.2831C70.4566 5.59961 70.5329 5.70003 70.5329 5.87934V16.2653C70.5329 16.4447 70.4566 16.5451 70.2831 16.5451H69.0479V16.5379Z" fill="white"/>
<path d="M82.3371 5.59253C82.4759 5.59253 82.6078 5.71446 82.6078 5.87226V7.01989C82.6078 7.16334 82.469 7.2781 82.3371 7.2781H76.1957V9.98936H81.7889C81.9624 9.98936 82.0596 10.0898 82.0596 10.2691V11.4167C82.0596 11.596 81.9624 11.6749 81.7889 11.6749H76.1957V14.8309H82.5314C82.7049 14.8309 82.7813 14.9098 82.7813 15.0748V16.2583C82.7813 16.4376 82.7049 16.538 82.5314 16.538H74.6829C74.5094 16.538 74.4331 16.4376 74.4331 16.2583V5.87944C74.4331 5.70012 74.5094 5.5997 74.6829 5.5997H82.3371V5.59253Z" fill="white"/>
<path d="M94.9252 5.59253C95.0987 5.59253 95.1958 5.69295 95.1958 5.87226V7.01989C95.1958 7.1992 95.0987 7.29962 94.9252 7.29962H91.3305V16.2583C91.3305 16.4017 91.2334 16.538 91.0599 16.538H89.8386C89.6651 16.538 89.5679 16.4376 89.5679 16.2583V7.29962H85.9733C85.7998 7.29962 85.7026 7.1992 85.7026 7.01989V5.87226C85.7026 5.69295 85.7998 5.59253 85.9733 5.59253H94.9252Z" fill="white"/>
<path d="M99.4568 5.59253C99.6303 5.59253 99.7275 5.64991 99.7691 5.79336L102.219 14.4077H102.316L104.668 5.79336C104.71 5.64991 104.807 5.59253 104.939 5.59253H106.244C106.382 5.59253 106.48 5.64991 106.514 5.79336L108.922 14.4077H109.019L111.448 5.81488C111.49 5.67143 111.587 5.59253 111.719 5.59253H113.155C113.329 5.59253 113.391 5.67143 113.329 5.85074L110.026 16.2941C109.97 16.4519 109.852 16.538 109.693 16.538H108.083C107.93 16.538 107.833 16.4591 107.77 16.2798L105.633 8.5907H105.536L103.419 16.3013C103.378 16.4591 103.28 16.5452 103.149 16.5452H101.518C101.344 16.5452 101.226 16.4663 101.171 16.3013L97.8469 5.81488C97.7914 5.67143 97.8469 5.59253 98.0204 5.59253H99.4568Z" fill="white"/>
<path d="M121.434 5.43469C124.501 5.43469 126.895 7.80167 126.895 11.0796C126.895 14.336 124.508 16.7029 121.434 16.7029C118.367 16.7029 115.973 14.336 115.973 11.0796C115.973 7.80167 118.36 5.43469 121.434 5.43469ZM117.756 11.0796C117.756 13.3318 119.255 14.9958 121.427 14.9958C123.606 14.9958 125.098 13.3318 125.098 11.0796C125.098 8.81301 123.599 7.14178 121.427 7.14178C119.255 7.14178 117.756 8.80584 117.756 11.0796Z" fill="white"/>
<path d="M135.521 5.59253C137.832 5.59253 139.525 7.32114 139.525 9.5088C139.525 11.0366 138.727 12.3205 137.506 12.966L139.275 16.2224C139.373 16.4017 139.275 16.5452 139.06 16.5452H137.645C137.471 16.5452 137.332 16.4017 137.256 16.2654L135.84 13.4322C135.785 13.4538 135.688 13.4538 135.57 13.4538H132.169V16.2654C132.169 16.4447 132.093 16.5452 131.92 16.5452H130.698C130.483 16.5452 130.407 16.4017 130.407 16.2654V5.87944C130.407 5.70012 130.504 5.5997 130.677 5.5997H135.521V5.59253ZM135.521 11.7395C136.937 11.7395 137.756 10.7927 137.756 9.5088C137.756 8.24641 136.937 7.29962 135.521 7.29962H132.162V11.7395H135.521Z" fill="white"/>
<path d="M144.709 5.59253C144.882 5.59253 144.98 5.69295 144.98 5.87226V10.6923L149.99 5.81488C150.129 5.67143 150.323 5.59253 150.552 5.59253H152.301C152.474 5.59253 152.55 5.77184 152.419 5.9153L147.755 10.3121L152.668 16.1937C152.807 16.3372 152.724 16.538 152.516 16.538H150.961C150.725 16.538 150.531 16.4591 150.378 16.2798L146.472 11.5028L144.973 12.7508V16.2654C144.973 16.4447 144.875 16.5452 144.702 16.5452H143.481C143.307 16.5452 143.21 16.4447 143.21 16.2654V5.87944C143.21 5.70012 143.307 5.5997 143.481 5.5997H144.709V5.59253Z" fill="white"/>
<path d="M14.1427 21.5156L11.8458 19.1415C11.1935 18.4672 10.1387 18.4672 9.49328 19.1415L7.19632 21.5156C6.52319 22.2114 5.42675 22.2114 4.75363 21.5156L3.64331 20.368L7.16162 16.7315C9.09773 14.7303 12.2344 14.7303 14.1705 16.7315L17.6888 20.368L16.5785 21.5156C15.9123 22.2114 14.8228 22.2114 14.1427 21.5156Z" fill="#E22440"/>
<path d="M1.67253 18.3238L0.562219 17.1762C-0.110909 16.4804 -0.110909 15.3472 0.562219 14.6514L2.85918 12.2773C3.51149 11.603 3.51149 10.5128 2.85918 9.84574L0.562219 7.47159C-0.110909 6.77585 -0.110909 5.64257 0.562219 4.94682L1.67253 3.79919L5.19084 7.43573C7.12695 9.4369 7.12695 12.6789 5.19084 14.6801L1.67253 18.3238Z" fill="#E22440"/>
<path d="M10.7007 6.86914C9.43079 6.86914 8.16087 6.37423 7.19629 5.37005L3.67798 1.73352L4.78829 0.585897C5.46142 -0.10985 6.55786 -0.10985 7.23098 0.585897L9.52795 2.96004C10.1733 3.6271 11.2351 3.6271 11.8804 2.96004L14.1774 0.585897C14.8505 -0.10985 15.9469 -0.10985 16.6201 0.585897L17.7304 1.73352L14.2121 5.37005C13.2406 6.35988 11.9706 6.86914 10.7007 6.86914Z" fill="#E22440"/>
<path d="M19.7013 18.2952L16.183 14.6586C14.2469 12.6575 14.2469 9.41541 16.183 7.41424L19.7013 3.77771L20.8117 4.92533C21.4848 5.62108 21.4848 6.75436 20.8117 7.45011L18.5147 9.82425C17.8624 10.4985 17.8624 11.5887 18.5147 12.2558L20.8117 14.6299C21.4848 15.3257 21.4848 16.459 20.8117 17.1547L19.7013 18.2952Z" fill="#E22440"/>
</g>
<g opacity="0.8">
<path d="M162.021 2.09448V20.6328H160.92V2.09448H162.021Z" fill="#C0C2C9"/>
<path d="M178.673 5.72729V17H177.352L171.209 8.14917H171.099V17H169.734V5.72729H171.055L177.22 14.6002H177.33V5.72729H178.673Z" fill="#C0C2C9"/>
<path d="M181.405 17V5.72729H188.164V6.93823H182.77V10.7472H187.657V11.9581H182.77V17H181.405Z" fill="#C0C2C9"/>
<path d="M189.885 6.93823V5.72729H198.34V6.93823H194.795V17H193.43V6.93823H189.885Z" fill="#C0C2C9"/>
<path d="M204.806 17V5.72729H208.747C209.532 5.72729 210.18 5.86307 210.69 6.13461C211.2 6.40248 211.58 6.76393 211.829 7.21895C212.079 7.6703 212.204 8.17119 212.204 8.72161C212.204 9.20599 212.117 9.60596 211.945 9.92154C211.776 10.2371 211.552 10.4866 211.273 10.6701C210.998 10.8536 210.699 10.9894 210.376 11.0774V11.1875C210.721 11.2095 211.068 11.3306 211.417 11.5508C211.765 11.771 212.057 12.0866 212.292 12.4975C212.527 12.9085 212.644 13.4112 212.644 14.0057C212.644 14.5708 212.516 15.079 212.259 15.5304C212.002 15.9817 211.596 16.3395 211.042 16.6037C210.488 16.8679 209.767 17 208.879 17H204.806ZM206.171 15.7891H208.879C209.771 15.7891 210.404 15.6166 210.778 15.2717C211.156 14.9231 211.345 14.5011 211.345 14.0057C211.345 13.6241 211.248 13.2718 211.053 12.9489C210.859 12.6223 210.582 12.3618 210.222 12.1673C209.862 11.9691 209.437 11.8701 208.945 11.8701H206.171V15.7891ZM206.171 10.6811H208.703C209.114 10.6811 209.485 10.6004 209.815 10.4389C210.149 10.2775 210.413 10.05 210.607 9.75641C210.806 9.46285 210.905 9.11792 210.905 8.72161C210.905 8.22623 210.732 7.80607 210.387 7.46114C210.042 7.11253 209.496 6.93823 208.747 6.93823H206.171V10.6811Z" fill="#C0C2C9"/>
<path d="M214.711 17V8.54548H215.966V9.82247H216.054C216.208 9.40414 216.487 9.06471 216.89 8.80418C217.294 8.54364 217.749 8.41337 218.256 8.41337C218.351 8.41337 218.47 8.41521 218.613 8.41888C218.756 8.42255 218.865 8.42805 218.938 8.43539V9.75641C218.894 9.74541 218.793 9.72889 218.635 9.70688C218.481 9.68119 218.318 9.66835 218.145 9.66835C217.734 9.66835 217.368 9.75458 217.045 9.92705C216.725 10.0958 216.472 10.3307 216.285 10.6316C216.102 10.9288 216.01 11.2683 216.01 11.6499V17H214.711Z" fill="#C0C2C9"/>
<path d="M220.478 17V8.54548H221.777V17H220.478ZM221.138 7.13639C220.885 7.13639 220.667 7.05015 220.483 6.87769C220.304 6.70522 220.214 6.49789 220.214 6.2557C220.214 6.01352 220.304 5.80619 220.483 5.63372C220.667 5.46126 220.885 5.37502 221.138 5.37502C221.392 5.37502 221.608 5.46126 221.788 5.63372C221.971 5.80619 222.063 6.01352 222.063 6.2557C222.063 6.49789 221.971 6.70522 221.788 6.87769C221.608 7.05015 221.392 7.13639 221.138 7.13639Z" fill="#C0C2C9"/>
<path d="M227.349 17.1762C226.644 17.1762 226.022 16.9982 225.483 16.6422C224.943 16.2826 224.521 15.7762 224.217 15.1231C223.912 14.4662 223.76 13.6901 223.76 12.7948C223.76 11.9067 223.912 11.1361 224.217 10.483C224.521 9.8298 224.945 9.32525 225.488 8.9693C226.031 8.61336 226.659 8.43539 227.371 8.43539C227.921 8.43539 228.356 8.52713 228.675 8.71061C228.998 8.89041 229.244 9.0959 229.413 9.32708C229.585 9.55459 229.719 9.74174 229.814 9.88852H229.925V5.72729H231.224V17H229.969V15.701H229.814C229.719 15.8551 229.583 16.0496 229.407 16.2845C229.231 16.5156 228.98 16.723 228.653 16.9065C228.327 17.0863 227.892 17.1762 227.349 17.1762ZM227.525 16.0093C228.046 16.0093 228.486 15.8735 228.846 15.6019C229.205 15.3267 229.479 14.9469 229.666 14.4626C229.853 13.9745 229.947 13.4112 229.947 12.7727C229.947 12.1416 229.855 11.5893 229.671 11.116C229.488 10.6389 229.216 10.2683 228.857 10.0041C228.497 9.73623 228.053 9.60229 227.525 9.60229C226.974 9.60229 226.516 9.74357 226.149 10.0261C225.785 10.305 225.512 10.6848 225.329 11.1655C225.149 11.6425 225.059 12.1783 225.059 12.7727C225.059 13.3745 225.151 13.9213 225.334 14.413C225.521 14.9011 225.796 15.29 226.16 15.5799C226.527 15.8661 226.982 16.0093 227.525 16.0093Z" fill="#C0C2C9"/>
<path d="M237.196 20.3466C236.568 20.3466 236.029 20.2659 235.577 20.1044C235.126 19.9466 234.75 19.7375 234.449 19.4769C234.152 19.2201 233.915 18.9449 233.739 18.6513L234.774 17.9247C234.891 18.0789 235.04 18.255 235.22 18.4531C235.399 18.655 235.645 18.8293 235.957 18.9761C236.273 19.1265 236.686 19.2017 237.196 19.2017C237.878 19.2017 238.442 19.0366 238.886 18.7063C239.33 18.3761 239.552 17.8587 239.552 17.1541V15.4368H239.441C239.346 15.5909 239.21 15.7817 239.034 16.0093C238.862 16.2331 238.612 16.4331 238.286 16.6092C237.963 16.7817 237.526 16.8679 236.976 16.8679C236.293 16.8679 235.68 16.7065 235.137 16.3835C234.598 16.0606 234.17 15.5909 233.855 14.9745C233.543 14.358 233.387 13.6094 233.387 12.7287C233.387 11.8627 233.539 11.1086 233.844 10.4665C234.148 9.82063 234.572 9.32158 235.115 8.9693C235.658 8.61336 236.286 8.43539 236.998 8.43539C237.548 8.43539 237.985 8.52713 238.308 8.71061C238.634 8.89041 238.884 9.0959 239.056 9.32708C239.232 9.55459 239.368 9.74174 239.463 9.88852H239.596V8.54548H240.851V17.2422C240.851 17.9688 240.685 18.5596 240.355 19.0146C240.029 19.4733 239.588 19.809 239.034 20.0219C238.484 20.2384 237.871 20.3466 237.196 20.3466ZM237.152 15.701C237.673 15.701 238.113 15.5818 238.473 15.3432C238.832 15.1047 239.106 14.7616 239.293 14.3139C239.48 13.8663 239.574 13.3305 239.574 12.7067C239.574 12.0976 239.482 11.56 239.298 11.094C239.115 10.6279 238.843 10.2628 238.484 9.9986C238.124 9.7344 237.68 9.60229 237.152 9.60229C236.601 9.60229 236.143 9.74174 235.776 10.0206C235.412 10.2995 235.139 10.6738 234.955 11.1435C234.776 11.6132 234.686 12.1343 234.686 12.7067C234.686 13.2938 234.778 13.8131 234.961 14.2644C235.148 14.7121 235.423 15.0644 235.787 15.3212C236.154 15.5744 236.609 15.701 237.152 15.701Z" fill="#C0C2C9"/>
<path d="M246.773 17.1762C245.958 17.1762 245.256 16.9964 244.665 16.6367C244.078 16.2735 243.625 15.7671 243.305 15.1176C242.99 14.4644 242.832 13.7048 242.832 12.8388C242.832 11.9728 242.99 11.2095 243.305 10.549C243.625 9.88485 244.069 9.36745 244.637 8.99683C245.21 8.62254 245.878 8.43539 246.641 8.43539C247.081 8.43539 247.516 8.50878 247.946 8.65556C248.375 8.80234 248.766 9.04086 249.118 9.37112C249.47 9.6977 249.751 10.1307 249.96 10.6701C250.169 11.2095 250.274 11.8737 250.274 12.6627V13.2131H243.757V12.0902H248.953C248.953 11.6132 248.857 11.1875 248.667 10.8132C248.479 10.4389 248.212 10.1435 247.863 9.92705C247.518 9.71055 247.111 9.60229 246.641 9.60229C246.124 9.60229 245.676 9.73073 245.298 9.98759C244.924 10.2408 244.636 10.571 244.434 10.9784C244.232 11.3857 244.131 11.8223 244.131 12.2884V13.037C244.131 13.6754 244.241 14.2167 244.461 14.6607C244.685 15.1011 244.995 15.4368 245.392 15.668C245.788 15.8955 246.248 16.0093 246.773 16.0093C247.114 16.0093 247.423 15.9616 247.698 15.8661C247.977 15.7671 248.217 15.6203 248.419 15.4258C248.621 15.2277 248.777 14.9818 248.887 14.6882L250.142 15.0405C250.01 15.4662 249.788 15.8405 249.476 16.1634C249.164 16.4826 248.779 16.7321 248.32 16.912C247.861 17.0881 247.346 17.1762 246.773 17.1762Z" fill="#C0C2C9"/>
</g>
<defs>
<clipPath id="clip0_143_695">
<rect width="152.706" height="22" fill="white"/>
</clipPath>
</defs>
</svg>
