<svg width="32" height="32" viewBox="0 0 32 32" fill="none" xmlns="http://www.w3.org/2000/svg">
<path d="M26.3559 26.0455V26.0446H26.3609V18.2441C26.3609 14.4281 25.5876 11.4885 21.3882 11.4885C19.3694 11.4885 18.0146 12.6654 17.4615 13.7812H17.4031V11.8448H13.4214V26.0446H17.5674V19.0134C17.5674 17.1621 17.8978 15.3719 20.0559 15.3719C22.1823 15.3719 22.214 17.4847 22.214 19.1321V26.0455H26.3559Z" fill="#62718A"/>
<path d="M5.3335 12.3159H10.0138V26.3568H5.3335V12.3159Z" fill="#62718A"/>
<path d="M7.75966 5.02344C6.4203 5.02344 5.3335 6.10518 5.3335 7.43829C5.3335 8.7714 6.4203 9.87576 7.75966 9.87576C9.09901 9.87576 10.1858 8.7714 10.1858 7.43829C10.185 6.10518 9.09817 5.02344 7.75966 5.02344V5.02344Z" fill="#62718A"/>
</svg>
