<svg width="32" height="32" viewBox="0 0 32 32" fill="none" xmlns="http://www.w3.org/2000/svg">
<path fill-rule="evenodd" clip-rule="evenodd" d="M24.8689 21.9264C26.041 20.1723 26.6667 18.1101 26.6668 16.0005C26.6669 14.5997 26.391 13.2125 25.855 11.9182C25.3189 10.624 24.5332 9.44801 23.5426 8.45745C22.5521 7.46688 21.3761 6.68114 20.0818 6.14509C18.7876 5.60904 17.4004 5.33317 15.9996 5.33325C13.8899 5.33337 11.8277 5.95905 10.0737 7.13116C8.31967 8.30327 6.9526 9.96919 6.14534 11.9182C5.33808 13.8673 5.12689 16.012 5.53849 18.081C5.95008 20.1501 6.96597 22.0507 8.45769 23.5424C9.94941 25.0341 11.85 26.05 13.919 26.4616C15.9881 26.8732 18.1328 26.662 20.0818 25.8547C22.0309 25.0475 23.6968 23.6804 24.8689 21.9264ZM22.8458 15.1453C23.0143 15.3995 23.1042 15.6976 23.1045 16.0026C23.1043 16.3035 23.0168 16.5978 22.8526 16.85C22.6884 17.1023 22.4545 17.3015 22.1793 17.4234C22.2032 17.5781 22.2154 17.7344 22.2155 17.8909C22.2155 20.2839 19.4294 22.2246 15.9932 22.2246C12.557 22.2246 9.77091 20.2839 9.77091 17.8909C9.77129 17.7333 9.78383 17.576 9.8084 17.4204C9.60123 17.3279 9.41681 17.1912 9.26809 17.0199C9.11936 16.8486 9.00992 16.6468 8.94746 16.4287C8.885 16.2106 8.87102 15.9814 8.90651 15.7574C8.94201 15.5333 9.0261 15.3197 9.15291 15.1316C9.27972 14.9434 9.44615 14.7853 9.64055 14.6684C9.83494 14.5514 10.0526 14.4784 10.2782 14.4544C10.5038 14.4305 10.7319 14.4562 10.9465 14.5298C11.1611 14.6034 11.357 14.7231 11.5205 14.8804C12.5969 14.1069 14.0858 13.6086 15.7416 13.5627L16.5327 9.84281C16.5403 9.80706 16.5549 9.77317 16.5757 9.74308C16.5964 9.71299 16.6229 9.68728 16.6536 9.66743C16.6841 9.6474 16.7182 9.63365 16.754 9.627C16.7899 9.62036 16.8267 9.62094 16.8623 9.62872L19.4476 10.1778C19.5675 9.93496 19.7718 9.74413 20.0223 9.64114C20.2728 9.53814 20.5523 9.53005 20.8083 9.61838C21.0644 9.70671 21.2794 9.88539 21.4131 10.1209C21.5468 10.3565 21.5901 10.6327 21.5347 10.8978C21.4793 11.163 21.3291 11.3988 21.1123 11.5611C20.8955 11.7234 20.6269 11.8011 20.3569 11.7795C20.0869 11.758 19.834 11.6387 19.6457 11.444C19.4574 11.2493 19.3465 10.9927 19.3339 10.7221L17.0189 10.2298L16.3101 13.5663C17.9417 13.6231 19.4065 14.119 20.4702 14.8865C20.6896 14.6745 20.9664 14.5317 21.2663 14.476C21.5662 14.4203 21.8759 14.454 22.1568 14.573C22.4376 14.692 22.6772 14.8911 22.8458 15.1453ZM23.1045 16.0026C23.1045 16.0027 23.1045 16.0027 23.1045 16.0028V16.0022C23.1045 16.0023 23.1045 16.0025 23.1045 16.0026ZM12.6269 16.4966C12.5048 16.6793 12.4397 16.8941 12.4397 17.1138C12.4402 17.4084 12.5574 17.6907 12.7658 17.899C12.9742 18.1073 13.2566 18.2244 13.5512 18.2247C13.7709 18.2246 13.9857 18.1593 14.1683 18.0372C14.3509 17.915 14.4932 17.7415 14.5772 17.5385C14.6612 17.3355 14.6831 17.1121 14.6401 16.8967C14.5972 16.6812 14.4913 16.4833 14.336 16.328C14.1806 16.1727 13.9826 16.067 13.7671 16.0241C13.5516 15.9813 13.3283 16.0034 13.1253 16.0875C12.9224 16.1716 12.7489 16.314 12.6269 16.4966ZM15.9969 20.8657C16.4238 20.8657 17.877 20.807 18.6354 20.0499C18.6631 20.0234 18.6853 19.9917 18.7006 19.9565C18.7159 19.9214 18.7241 19.8835 18.7246 19.8452C18.725 19.8068 18.7179 19.7688 18.7034 19.7333C18.689 19.6977 18.6676 19.6655 18.6406 19.6383C18.6135 19.6112 18.5813 19.5897 18.5458 19.5752C18.5103 19.5606 18.4723 19.5533 18.434 19.5537C18.3956 19.5541 18.3577 19.5621 18.3225 19.5773C18.2874 19.5925 18.2555 19.6146 18.229 19.6423C17.7506 20.1206 16.7274 20.2899 15.9969 20.2899C15.2663 20.2899 14.2437 20.1206 13.7659 19.6423C13.7392 19.6155 13.7075 19.5942 13.6725 19.5797C13.6376 19.5652 13.6001 19.5578 13.5623 19.5577C13.5245 19.5577 13.487 19.5651 13.4521 19.5796C13.4171 19.594 13.3854 19.6152 13.3586 19.6419C13.3319 19.6687 13.3106 19.7004 13.2961 19.7353C13.2816 19.7703 13.2741 19.8077 13.2741 19.8455C13.2741 19.8834 13.2815 19.9208 13.2959 19.9558C13.3104 19.9907 13.3316 20.0225 13.3583 20.0492C14.1161 20.8052 15.5699 20.8657 15.9969 20.8657ZM17.8229 18.0375C18.0056 18.1595 18.2203 18.2247 18.4401 18.2247C18.7346 18.2244 19.017 18.1072 19.2253 17.899C19.4335 17.6907 19.5507 17.4083 19.551 17.1138C19.551 16.894 19.4858 16.6793 19.3638 16.4966C19.2417 16.3139 19.0682 16.1715 18.8652 16.0874C18.6622 16.0033 18.4388 15.9813 18.2233 16.0242C18.0078 16.067 17.8099 16.1729 17.6545 16.3282C17.4991 16.4836 17.3933 16.6815 17.3505 16.897C17.3076 17.1125 17.3296 17.3359 17.4137 17.5389C17.4978 17.7419 17.6402 17.9154 17.8229 18.0375Z" fill="#62718A"/>
</svg>
