<svg width="32" height="32" viewBox="0 0 32 32" fill="none" xmlns="http://www.w3.org/2000/svg">
<path d="M26.6668 9.74219C25.8735 10.0902 25.0282 10.3209 24.1468 10.4329C25.0535 9.89152 25.7455 9.04085 26.0708 8.01552C25.2255 8.51952 24.2922 8.87552 23.2975 9.07419C22.4948 8.21952 21.3508 7.69019 20.1028 7.69019C17.6815 7.69019 15.7322 9.65552 15.7322 12.0649C15.7322 12.4115 15.7615 12.7449 15.8335 13.0622C12.1975 12.8849 8.98016 11.1422 6.81883 8.48752C6.4415 9.14219 6.22016 9.89152 6.22016 10.6982C6.22016 12.2129 7.00016 13.5555 8.16283 14.3329C7.46016 14.3195 6.77083 14.1155 6.18683 13.7942C6.18683 13.8075 6.18683 13.8249 6.18683 13.8422C6.18683 15.9675 7.70283 17.7329 9.69083 18.1395C9.33483 18.2369 8.94683 18.2835 8.54416 18.2835C8.26416 18.2835 7.9815 18.2675 7.71616 18.2089C8.28283 19.9409 9.89083 21.2142 11.8028 21.2555C10.3148 22.4195 8.4255 23.1209 6.38016 23.1209C6.0215 23.1209 5.6775 23.1049 5.3335 23.0609C7.27083 24.3102 9.56683 25.0235 12.0428 25.0235C20.0908 25.0235 24.4908 18.3569 24.4908 12.5782C24.4908 12.3849 24.4842 12.1982 24.4748 12.0129C25.3428 11.3969 26.0722 10.6275 26.6668 9.74219Z" fill="#62718A"/>
</svg>
