<svg width="28" height="28" viewBox="0 0 28 28" fill="none" xmlns="http://www.w3.org/2000/svg">
<circle cx="14" cy="14" r="14" fill="black"/>
<g clip-path="url(#clip0_1766_7053)">
<path d="M7.98186 21L10.2677 17.0556L12.5535 13.125L14.8254 9.18056L15.2018 8.55556L15.369 9.18056L16.0659 11.7778L15.2854 13.125L12.9996 17.0556L10.7277 21H13.4595L15.7454 17.0556L16.9301 15.0139L17.4876 17.0556L18.5469 21H21L19.9407 17.0556L18.8814 13.125L18.6027 12.1111L20.3031 9.18056H17.8221L17.7385 8.88889L16.8743 5.66667L16.7628 5.25H14.3794L14.3237 5.33333L12.0936 9.18056L9.80774 13.125L7.53584 17.0556L5.25 21H7.98186Z" fill="white"/>
</g>
<defs>
<clipPath id="clip0_1766_7053">
<rect width="16.625" height="16.625" fill="white" transform="translate(5.25 4.375)"/>
</clipPath>
</defs>
</svg>
