<svg width="196" height="210" viewBox="0 0 196 210" fill="none" xmlns="http://www.w3.org/2000/svg">
<g clip-path="url(#clip0_1733_2605)">
<path d="M165.999 83C162.499 84.2269 85.4138 104.858 84.4994 104.5C84.4994 104.5 52.499 96.5 38.499 88C36.8215 87.6641 31.8786 84.8045 27.788 82.1945C24.2439 79.9331 21.3396 77.859 21.7532 77.7759C23.6167 77.4082 25.4707 76.9793 27.3154 76.489C42.1871 72.5531 55.7578 65.096 69.9979 59.4396C73.5096 58.0255 77.0685 56.7434 80.6933 55.6686C82.4704 55.136 84.2804 54.7212 86.0292 54.0895C87.9147 53.4108 89.6634 52.9253 91.6856 53.1987C93.7066 53.5531 95.697 54.0637 97.639 54.7259C99.2103 55.2035 100.781 55.6906 102.353 56.1871C111.21 59.0012 120.006 62.0038 128.792 65.0347C138.078 68.2212 147.336 71.4941 156.565 74.8534C159.855 76.0507 163.141 77.2526 166.407 78.5159C168.029 79.1381 169.773 79.6896 171.291 80.5522C170.499 80.5 171.556 80.8042 171.599 80.9821C171.643 81.1599 171.616 81.3477 171.523 81.5059C171.431 81.6641 171.281 81.7803 171.105 81.8301C170.929 81.88 170.74 81.8595 170.579 81.7731C170.382 81.6628 169.499 81.7731 165.999 83Z" fill="#302C6F"/>
<path d="M0.762762 118.951C4.33902 118.693 7.92615 118.619 11.51 118.729C14.3382 118.776 17.1664 118.932 19.9947 118.861C20.9044 118.861 20.9044 117.447 19.9947 117.447C19.9947 115.001 23.8272 81.548 20.999 81.5009C18.499 81.4595 3.49902 112.501 0.762762 117.536C-0.137555 117.617 -0.146982 119.031 0.762762 118.951Z" fill="#35318E"/>
<path d="M22.1488 79.1384C37.2326 76.1452 50.9354 69.0605 64.9445 63.0505C68.4515 61.5469 71.9867 60.1186 75.588 58.8412C77.3258 58.2127 79.0777 57.6376 80.8438 57.116C82.6208 56.5833 84.4356 56.1732 86.1797 55.5557C88.1453 54.8534 89.9035 54.3019 92.0105 54.6837C93.2038 54.9259 94.3838 55.2295 95.5458 55.5935C96.9599 55.9988 98.3457 56.4231 99.7363 56.8567C108.221 59.4964 116.597 62.3529 124.978 65.233C134.406 68.4571 143.794 71.7567 153.142 75.1317C156.744 76.4327 160.345 77.7431 163.927 79.096C165.177 79.5673 166.421 80.0387 167.656 80.5336C168.57 80.8919 169.197 81.1417 169.97 81.4764C170.178 81.5639 170.381 81.663 170.578 81.7733C170.74 81.8598 170.928 81.8802 171.105 81.8304C171.281 81.7805 171.431 81.6643 171.523 81.5061C171.615 81.348 171.643 81.1602 171.599 80.9823C171.556 80.8045 171.445 80.6504 171.29 80.5525C169.772 79.6899 168.028 79.1384 166.407 78.5162C163.14 77.2529 159.855 76.0509 156.565 74.8536C147.335 71.4943 138.077 68.2215 128.792 65.035C120.005 62.0041 111.209 59.0015 102.352 56.1874C100.781 55.6909 99.2099 55.2038 97.6387 54.7261C95.6967 54.0639 93.7062 53.5533 91.6853 53.1989C89.6631 52.9255 87.9143 53.411 86.0288 54.0898C84.2801 54.7214 82.47 55.1362 80.6929 55.6689C77.0681 56.7436 73.5093 58.0257 69.9976 59.4398C55.7575 65.0963 42.1867 72.5533 27.315 76.4893C25.4704 76.9795 23.6163 77.4085 21.7528 77.7761C20.862 77.9552 21.2391 79.3175 22.1299 79.1431L22.1488 79.1384Z" fill="#242933"/>
<path d="M75.9839 85.8623C91.0678 82.8691 50.9354 69.0603 64.9445 63.0503C68.4515 61.5466 71.9867 60.1184 75.588 58.841C77.3258 58.2125 79.0777 57.6374 80.8438 57.1157C82.6208 56.5831 84.4356 56.173 86.1797 55.5555C88.1453 54.8532 89.9035 54.3017 92.0105 54.6835C93.2038 54.9256 94.3838 55.2293 95.5458 55.5932C96.9599 55.9986 98.3457 56.4228 99.7363 56.8565C108.221 59.4962 116.597 62.3527 124.978 65.2327C134.406 68.4569 143.794 71.7565 153.142 75.1315C156.744 76.4325 160.345 77.7429 163.927 79.0957C165.177 79.5671 166.421 80.0384 167.656 80.5334C168.57 80.8916 169.197 81.1414 169.97 81.4761C170.178 81.5637 170.381 81.6628 170.578 81.7731C170.74 81.8595 170.928 81.88 171.105 81.8301C171.281 81.7803 171.431 81.6641 171.523 81.5059C171.615 81.3477 171.643 81.1599 171.599 80.9821C171.556 80.8042 171.445 80.6501 171.29 80.5522C169.772 79.6896 168.028 79.1381 166.407 78.5159C163.14 77.2526 159.855 76.0507 156.565 74.8534C147.335 71.4941 138.077 68.2212 128.792 65.0347C120.005 62.0038 111.209 59.0012 102.352 56.1871C100.781 55.6906 99.2099 55.2035 97.6387 54.7259C95.6967 54.0637 93.7062 53.5531 91.6853 53.1987C89.6631 52.9253 87.9143 53.4108 86.0288 54.0895C84.28 54.7212 82.47 55.136 80.6929 55.6686C77.0681 56.7434 73.5093 58.0255 69.9975 59.4396C55.7575 65.096 96.0219 79.2772 81.1502 83.2132C79.3055 83.7034 77.4515 84.1323 75.588 84.5C74.6971 84.6791 75.0742 86.0414 75.9651 85.867L75.9839 85.8623Z" fill="#242933"/>
<path fill-rule="evenodd" clip-rule="evenodd" d="M1.42291 117.491C5.2799 110.025 9.35813 102.676 13.4359 95.3287C14.9345 92.6284 16.4331 89.9281 17.9207 87.2221C19.4039 84.5196 20.8762 81.8124 22.3374 79.1004C22.7663 78.2991 21.5455 77.5826 21.1165 78.3887C18.1453 83.9356 15.0977 89.4417 12.0501 94.9479C9.43115 99.6795 6.81216 104.411 4.2415 109.169C2.83368 111.765 1.44785 114.376 0.0840227 117.003C-0.0842469 117.332 0.0158698 117.646 0.222321 117.848C-0.0723903 118.283 0.104337 119.009 0.76325 118.951C4.33951 118.693 7.92664 118.619 11.5105 118.729C12.4267 118.744 13.3429 118.771 14.2591 118.798C16.1711 118.853 18.0831 118.909 19.9951 118.861C20.9049 118.861 20.9049 117.447 19.9951 117.447C18.0831 117.495 16.1711 117.439 14.259 117.384C13.3428 117.357 12.4267 117.33 11.5105 117.315C8.14695 117.212 4.78053 117.27 1.42291 117.491Z" fill="#242933"/>
<path d="M143.569 89.6888C134.085 65.5264 117.643 46.8319 101.499 14.3121C99.0289 9.34381 96.3138 4.12103 91.6944 1.11369C91.6075 1.05581 91.5075 1.02039 91.4036 1.0106C91.2996 1.0008 91.1948 1.01695 91.0986 1.05758C91.0024 1.09821 90.9178 1.16206 90.8523 1.24343C90.7868 1.32479 90.7425 1.42111 90.7234 1.52379C89.8385 5.51556 88.6568 9.43569 87.1881 13.2515C86.7826 14.4228 86.0888 15.4732 85.1707 16.3059C84.0111 17.2487 75.4604 16.9329 65.1657 17.9416C63.0634 18.149 61.6681 18.1019 59.2689 16.8103C57.6379 15.9289 54.3336 6.78428 50.7842 3.66381C50.7063 3.59446 50.6125 3.54547 50.5111 3.52122C50.4097 3.49696 50.3038 3.49819 50.203 3.5248C50.1022 3.55141 50.0095 3.60256 49.9333 3.6737C49.857 3.74484 49.7996 3.83375 49.7661 3.93249C42.1393 27.0909 41.5077 73.8414 33.6641 85.536L95.1684 136.369L143.569 89.6888Z" fill="white"/>
<path d="M53.2643 77.3454C53.6849 76.2689 54.0111 75.047 54.218 73.774C54.425 72.5009 54.507 71.2107 54.4578 70.0024C54.4563 68.9623 54.329 68.0121 54.0889 67.2467C53.7993 66.167 53.3672 65.3508 52.8342 64.8768C50.129 61.4157 44.9454 52.3944 41.4998 52.4992C40.562 52.4316 41.882 54.0911 40.9989 55.499C40.1317 56.9827 39.1303 65.3919 38.8202 67.5878C38.6773 68.7257 38.6187 69.8613 38.6471 70.9455L38.597 71.3106C38.3546 71.7195 38.1307 72.1895 37.9316 72.7071C37.5627 73.6326 37.2636 74.672 37.0523 75.7639C36.8409 76.8559 36.7214 77.9782 36.701 79.0644C35.9994 80.4994 33.9994 83.9994 33.9994 84.4994C34.2825 85.1415 36.2698 86.4869 36.3889 86.8916C36.4498 87.0985 38.2749 87.4808 38.3531 87.653C38.5874 88.1877 39.166 88.2642 39.4994 88.4995C39.8096 88.717 39.6616 88.4257 39.9994 88.4995L40.9994 88.9995C43.0003 90.1342 45.0644 88.8204 47.2994 86.8916C49.5345 84.9628 51.6188 81.627 53.2643 77.3454Z" fill="#C0C4E9"/>
<path d="M93.416 30.4705C92.964 30.0082 92.4123 29.5744 91.8032 29.2024C91.1942 28.8305 90.5441 28.5303 89.9029 28.3249C89.3615 28.1237 88.8345 28.0155 88.3747 28.0111C87.7386 27.9754 87.203 28.0766 86.8195 28.3051C84.3241 29.2595 82.5928 30.8458 81.7621 32.9389C81.486 33.4899 81.6127 34.2391 82.1182 35.044C82.6672 35.8541 83.5667 36.6487 84.6294 37.2622C85.1845 37.5694 85.7602 37.8254 86.3315 38.0191L86.5085 38.1202C86.659 38.3455 86.8459 38.5716 87.064 38.792C87.4506 39.1939 87.9145 39.5758 88.4282 39.9152C88.9419 40.2547 89.495 40.5447 90.0548 40.7682C91.1366 41.1719 92.1724 41.3265 92.9851 41.2056C93.3919 41.1601 93.7667 41.0792 94.1049 40.9639C94.2282 40.9675 94.3453 40.9625 94.455 40.9489C94.7933 40.9119 95.0744 40.8132 95.2824 40.6585C95.4752 40.5141 95.6352 40.3465 95.7604 40.1577L95.8113 40.0686C96.9156 39.0855 97.2783 37.6339 96.8492 35.9145C96.4201 34.195 95.2205 32.2927 93.416 30.4705Z" fill="#C0C4E9"/>
<path d="M56.332 88.7168L56.8034 92.9591L57.1239 95.8298C57.1287 96.0158 57.2047 96.1929 57.3363 96.3245C57.4679 96.456 57.645 96.5321 57.831 96.5368C58.0181 96.5356 58.1973 96.4607 58.3296 96.3284C58.4619 96.1961 58.5368 96.0169 58.5381 95.8298L58.0667 91.5875L57.7461 88.7168C57.7414 88.5308 57.6653 88.3537 57.5338 88.2221C57.4022 88.0906 57.2251 88.0145 57.0391 88.0098C56.8519 88.011 56.6728 88.0859 56.5405 88.2182C56.4082 88.3506 56.3333 88.5297 56.332 88.7168Z" fill="#242933"/>
<path d="M72.2317 83.4371C72.6465 89.3528 73.3017 95.2543 73.7165 101.17C73.7825 102.075 75.1966 102.08 75.1307 101.17C74.7159 95.2543 74.0606 89.3528 73.6458 83.4371C73.5798 82.532 72.1657 82.5273 72.2317 83.4371Z" fill="#242933"/>
<path d="M97.549 84.6628C97.9497 87.4203 98.1807 90.1967 98.5625 92.9542C99.0143 95.6915 99.6665 98.3918 100.514 101.034C100.768 101.906 102.131 101.538 101.876 100.661C101.037 98.0501 100.39 95.3813 99.9389 92.6761C99.5571 89.8856 99.3167 87.0762 98.9113 84.2904C98.7793 83.3901 97.417 83.7719 97.549 84.6628Z" fill="#242933"/>
<path d="M114.202 81.1748C113.769 86.6003 113.896 92.4594 116.13 97.5078C116.503 98.3374 117.719 97.6209 117.356 96.796C115.225 91.9975 115.206 86.3175 115.616 81.1748C115.692 80.2698 114.278 80.2745 114.202 81.1748Z" fill="#242933"/>
<path d="M19.2968 118.153L20.6638 79.4584C20.6817 78.8826 21.2548 78.6712 21.6659 78.8243C21.7419 78.7603 21.8313 78.7125 21.9288 78.6849C22.1049 78.6351 22.2936 78.6555 22.455 78.7419C26.7759 81.2308 31.1659 83.5751 35.6251 85.7748C43.5691 89.7116 51.7182 93.2204 60.0373 96.2863C68.3416 99.3432 76.802 101.958 85.3829 104.12C85.5315 104.162 85.6626 104.25 85.7562 104.373C85.8498 104.495 85.9008 104.645 85.9014 104.799V104.96C85.8637 108.302 85.5808 111.662 85.43 115L84.6805 131.785C84.4323 137.35 84.1997 142.914 83.9829 148.476C83.5964 158.441 83.246 168.461 82.9317 178.536C82.6175 188.61 82.3284 198.676 82.0644 208.732C82.0617 208.855 82.0274 208.975 81.9647 209.081C81.902 209.187 81.8131 209.275 81.7065 209.336C81.6 209.398 81.4793 209.431 81.3562 209.432C81.2332 209.434 81.1118 209.404 81.0038 209.344C75.9382 207.129 70.8914 204.859 65.8634 202.533C58.0387 198.904 50.2847 195.133 42.5306 191.362C34.2109 187.313 25.8818 183.287 17.4915 179.384C17.3842 179.323 17.2952 179.235 17.2338 179.128C17.1725 179.021 17.141 178.899 17.1426 178.776L17.9157 156.975L19.2968 118.153Z" fill="#3842A7"/>
<path d="M85.0007 107C85.0007 107 85.3499 105.566 85.372 105.471C84.4819 105.639 84.1054 104.278 85.0007 104.108L86.2687 103.854C90.7561 102.949 95.2105 101.888 99.6556 100.804C105.45 99.3771 111.232 97.897 117.002 96.3635C123.416 94.6603 129.814 92.9005 136.196 91.0841C142.421 89.3212 148.626 87.497 154.811 85.6115C160.146 83.9806 165.468 82.2978 170.748 80.483C170.851 80.462 170.957 80.4642 171.059 80.4896C171.162 80.515 171.257 80.5628 171.338 80.6297C171.419 80.6965 171.485 80.7807 171.529 80.876C171.574 80.9713 171.597 81.0754 171.596 81.1807C171.561 83.525 171.53 85.8661 171.502 88.2041C171.384 97.4052 171.285 106.611 171.101 115.812C170.922 124.797 170.663 133.795 170.191 142.751C169.725 151.929 169.06 161.097 168.117 170.237C167.877 172.622 167.632 174.979 167.34 177.335C167.241 178.16 166.317 178.41 165.647 178.75C164.271 179.428 162.895 180.149 161.513 180.842C157.654 182.803 153.778 184.726 149.885 186.612C145.033 188.981 140.151 191.283 135.239 193.518C129.969 195.917 124.657 198.231 119.293 200.409C114.221 202.478 109.074 204.43 103.851 206.122C99.5463 207.59 95.1333 208.719 90.6524 209.497C87.5838 209.982 84.1758 210.364 81.1543 209.422L82.9988 163C82.9988 163 83.9988 136.5 83.9988 137.5C83.9988 137.5 84.4988 123.5 84.4988 115.5L85.0007 111V107Z" fill="#383BA1"/>
<path d="M34.2817 85.9169C35.4476 84.0374 36.3516 82.0075 36.9685 79.8834C37.8277 77.112 38.5326 74.2952 39.0802 71.4459C40.5509 64.1491 41.503 56.7533 42.4694 49.3763C43.5205 41.3018 44.5104 33.2178 45.7972 25.1762C46.4006 21.4052 47.0699 17.6343 47.876 13.8916C48.2436 12.2041 48.6349 10.5213 49.0732 8.84794C49.2854 8.05132 49.5022 7.25471 49.7332 6.46281L50.0584 5.37866C50.1304 4.9933 50.2492 4.61816 50.4119 4.26151C50.4732 4.17195 50.3129 4.23323 50.3648 4.26151C50.4291 4.31475 50.489 4.37307 50.5439 4.43592C50.6618 4.54905 50.7749 4.66218 50.8833 4.78002C51.1695 5.08021 51.4401 5.39487 51.6941 5.72276C52.2452 6.46342 52.7565 7.23283 53.226 8.02776C54.2206 9.67284 55.1115 11.3792 55.9929 13.0808C56.6027 14.379 57.3367 15.6151 58.1848 16.7717C58.6192 17.2689 59.1698 17.651 59.7875 17.8841C60.7585 18.3433 61.8013 18.6319 62.8702 18.7373C64.0248 18.7805 65.181 18.7221 66.3254 18.5629C67.7395 18.4356 69.1536 18.3319 70.5677 18.2376C73.0188 18.0821 75.4747 17.9737 77.9258 17.8652C79.6321 17.7898 81.3479 17.7333 83.0496 17.5494C84.1102 17.4363 85.1566 17.342 85.9532 16.5737C87.5512 15.0323 88.1922 12.6896 88.8899 10.6486C89.6535 8.41899 90.3417 6.16113 90.912 3.87499C91.0393 3.37534 91.1571 2.87097 91.2703 2.3666C91.2703 2.24876 91.3127 1.79153 91.3975 1.73497C91.3598 1.76325 91.242 1.73497 91.3975 1.80096C91.5855 1.9077 91.7637 2.03073 91.9302 2.16863C92.8456 2.84382 93.6934 3.6063 94.4614 4.44535C96.0258 6.19552 97.3829 8.12045 98.5058 10.1819C99.7644 12.4021 100.863 14.7165 102.018 16.9932C103.306 19.5386 104.629 22.0636 105.986 24.5681C108.471 29.164 111.068 33.6938 113.74 38.1813C118.501 46.1946 123.536 54.0193 128.377 61.9713C132.774 69.188 136.988 76.5367 140.472 84.2436C141.317 86.1102 142.115 87.9957 142.866 89.9C143.196 90.739 144.563 90.3714 144.229 89.5229C141.113 81.5945 137.158 74.0384 132.855 66.6945C128.235 58.8037 123.276 51.1157 118.501 43.3192C112.911 34.1888 107.575 24.9075 102.767 15.3387C100.585 10.9974 98.4728 6.46752 95.0129 2.96996C94.1951 2.13914 93.3002 1.38786 92.3403 0.726239C91.3975 0.0757481 90.271 0.297289 89.9834 1.504C89.4649 3.75243 88.8898 5.97258 88.1922 8.17859C87.8434 9.2816 87.4805 10.3752 87.0892 11.4782C86.7673 12.4969 86.3474 13.4819 85.8354 14.4195C85.5394 14.9666 85.1353 15.4477 84.6475 15.8336C84.7701 15.7488 84.7182 15.7818 84.6475 15.8336C84.5768 15.8855 84.7607 15.7865 84.6475 15.8336L84.4967 15.8855C84.0331 16.0099 83.5602 16.0966 83.0826 16.1447C78.9298 16.6161 74.7158 16.5737 70.5489 16.8377C69.1347 16.9319 67.7206 17.0356 66.3065 17.1629C65.1621 17.3221 64.006 17.3805 62.8514 17.3373C61.7014 17.2135 60.5927 16.8386 59.6036 16.239C59.4481 16.1447 59.6508 16.3097 59.4999 16.1683C59.4303 16.1027 59.3643 16.0335 59.302 15.9609C59.1464 15.7756 59.0031 15.5804 58.873 15.3764C56.9168 12.3974 55.6111 9.0412 53.6267 6.06686C53.1427 5.33039 52.6088 4.62797 52.0287 3.96455C51.4537 3.32348 50.7042 2.51273 49.7614 2.97467C48.9931 3.35177 48.847 4.44534 48.616 5.19482C48.385 5.9443 48.1446 6.74563 47.942 7.55167C46.9992 11.0257 46.2403 14.5468 45.5851 18.0868C44.0862 26.0671 43.0256 34.1134 41.9791 42.1738C40.9563 50.0127 40.0088 57.861 38.6795 65.6527C38.1327 68.9146 37.5247 72.1671 36.7328 75.3818C36.1645 77.8897 35.3758 80.3425 34.3759 82.7116C34.006 83.5741 33.5662 84.4049 33.0608 85.1957C32.5517 85.9546 33.7773 86.6617 34.2817 85.9075V85.9169Z" fill="#242933"/>
<path fill-rule="evenodd" clip-rule="evenodd" d="M19.2968 118.153L20.6638 79.4584C20.6817 78.8826 21.2547 78.6712 21.6659 78.8243C21.7419 78.7603 21.8313 78.7125 21.9288 78.6849C22.1049 78.6351 22.2936 78.6555 22.455 78.7419C26.7759 81.2308 31.1659 83.5751 35.6251 85.7748C43.5691 89.7116 51.7182 93.2204 60.0373 96.2863C68.2783 99.3199 76.6729 101.918 85.1865 104.071L86.2694 103.854C90.7568 102.949 95.2113 101.888 99.6563 100.804C105.451 99.3771 111.233 97.897 117.003 96.3635C123.416 94.6603 129.815 92.9005 136.197 91.0841C142.422 89.3212 148.627 87.497 154.811 85.6115C160.147 83.9806 165.469 82.2978 170.748 80.483C170.851 80.462 170.958 80.4642 171.06 80.4896C171.162 80.515 171.257 80.5628 171.339 80.6297C171.42 80.6965 171.485 80.7807 171.53 80.876C171.575 80.9713 171.598 81.0754 171.597 81.1807C171.562 83.525 171.531 85.8661 171.503 88.2041C171.481 89.8806 171.46 91.5572 171.439 93.234C171.346 100.76 171.252 108.288 171.102 115.812C170.923 124.797 170.663 133.795 170.192 142.751C169.725 151.929 169.061 161.097 168.118 170.237C167.878 172.622 167.633 174.979 167.34 177.335C167.259 178.014 166.62 178.303 166.023 178.573C165.894 178.632 165.767 178.689 165.648 178.75C164.85 179.143 164.051 179.551 163.252 179.96C162.673 180.256 162.094 180.551 161.514 180.842C157.655 182.803 153.779 184.726 149.885 186.612C145.034 188.981 140.152 191.283 135.24 193.518C129.97 195.917 124.658 198.231 119.294 200.409C114.222 202.478 109.074 204.43 103.851 206.122C99.547 207.59 95.134 208.719 90.6531 209.497C87.5845 209.982 84.1765 210.364 81.155 209.422C81.0734 209.396 81.0027 209.36 80.9424 209.318C75.8974 207.111 70.8711 204.849 65.8634 202.533C58.0387 198.904 50.2847 195.133 42.5306 191.362C34.2109 187.313 25.8818 183.287 17.4915 179.384C17.3842 179.323 17.2952 179.235 17.2338 179.128C17.1725 179.021 17.141 178.899 17.1426 178.776L17.9157 156.975L19.2968 118.153ZM82.078 208.214C82.2731 208.263 82.47 208.306 82.6681 208.342C83.5443 208.495 84.4326 208.567 85.3219 208.559C86.4246 208.559 87.5264 208.494 88.6215 208.366C91.2475 208.037 93.8478 207.529 96.4038 206.843C102.957 205.078 109.395 202.912 115.683 200.357C122.631 197.647 129.48 194.635 136.268 191.519C142.377 188.7 148.446 185.796 154.477 182.808C158.242 180.941 161.99 179.04 165.742 177.137L166.008 177.002C166.816 170.012 167.481 163.007 168 155.987C168.905 143.722 169.381 131.429 169.659 119.131C169.856 110.488 169.962 101.843 170.068 93.1975C170.114 89.5233 170.159 85.8491 170.211 82.1748L169.367 82.4628C163.932 84.2776 158.455 85.9886 152.964 87.6479C146.716 89.5302 140.45 91.3575 134.165 93.1299C127.814 94.918 121.449 96.6542 115.07 98.3385C109.414 99.8092 103.757 101.27 98.1008 102.637C94.0315 103.605 89.9839 104.56 85.8956 105.364C85.8609 107.407 85.7403 109.456 85.6199 111.502C85.5512 112.67 85.4826 113.836 85.43 115L84.6805 131.785C84.4323 137.35 84.1997 142.914 83.9829 148.476C83.5964 158.441 83.246 168.461 82.9317 178.536C82.6229 188.437 82.3383 198.33 82.078 208.214ZM84.4533 105.327C79.7716 104.148 75.132 102.83 70.5347 101.372C62.0793 98.6893 53.7717 95.5614 45.6464 92.0016C37.5774 88.4686 29.702 84.5093 22.0535 80.1403L21.3001 101.24L19.9237 140.067L18.5631 178.319C23.362 180.558 28.1474 182.827 32.9194 185.125C35.6635 186.45 38.4017 187.783 41.138 189.114C46.1242 191.541 51.1039 193.965 56.1014 196.33C64.23 200.233 72.4224 204 80.6784 207.631L80.7493 204.951C81.0133 194.964 81.3071 184.943 81.6308 174.887C81.9544 164.831 82.3174 154.775 82.7196 144.72C82.9239 139.729 83.136 134.741 83.356 129.754C83.6042 124.229 83.8525 118.702 84.1007 113.171L84.4533 105.327Z" fill="#242933"/>
<path fill-rule="evenodd" clip-rule="evenodd" d="M73.6169 47.4354C73.7587 47.6341 73.9115 47.8254 74.0745 48.0083C74.5467 48.4824 75.1301 48.8308 75.7714 49.0218C77.2798 49.4931 79.2313 49.6581 80.4097 48.3948C80.9878 47.7261 81.332 46.8871 81.3901 46.005C81.3901 45.8175 81.3156 45.6376 81.183 45.505C81.0504 45.3724 80.8706 45.2979 80.6831 45.2979C80.4971 45.3027 80.32 45.3787 80.1884 45.5103C80.0568 45.6419 79.9808 45.819 79.976 46.005C79.9281 46.6118 79.6519 47.1778 79.203 47.5888C78.6043 48.0366 77.7889 47.9989 77.0347 47.8669C76.6576 47.8045 76.2868 47.7082 75.927 47.5794C75.7066 47.4811 75.4966 47.3611 75.3 47.2211C74.7682 46.7021 74.3564 46.0731 74.0933 45.3781C73.9983 45.2234 73.8474 45.1111 73.6719 45.0646C73.4964 45.0181 73.3098 45.0409 73.1506 45.1283C72.9925 45.2261 72.8779 45.3808 72.8306 45.5606C72.8061 45.6538 72.8005 45.75 72.8133 45.8437C72.7819 45.9399 72.7474 46.0331 72.7096 46.126C72.7092 46.1259 72.7048 46.1369 72.6929 46.1666C72.6985 46.153 72.7041 46.1395 72.7096 46.126C72.7099 46.126 72.7088 46.1298 72.707 46.1359C72.7023 46.1524 72.6929 46.1854 72.6929 46.2043C72.6929 46.2293 72.6701 46.2709 72.6465 46.314C72.6345 46.3358 72.6223 46.3581 72.6128 46.3787C72.5055 46.5923 72.3843 46.7986 72.2498 46.9962L72.1602 47.1282C72.1602 47.1565 72.033 47.2884 72.1131 47.1942C72.091 47.2199 72.0693 47.2457 72.0476 47.2713C71.9859 47.3443 71.9248 47.4167 71.8586 47.4864C71.769 47.5807 71.7077 47.6373 71.6276 47.708C71.5811 47.7513 71.5323 47.7922 71.4815 47.8305C71.5636 47.7648 71.5106 47.8045 71.4662 47.8377C71.4469 47.8521 71.4292 47.8654 71.4249 47.8682C71.3325 47.9319 71.2365 47.9901 71.1374 48.0426L71.0539 48.0844C71.0731 48.0727 71.0382 48.0833 71.0033 48.094C70.9792 48.1013 70.9551 48.1086 70.9488 48.1086C70.9022 48.1235 70.8537 48.1345 70.805 48.1456C70.7453 48.1591 70.6854 48.1727 70.6283 48.1935H70.534H70.3832H70.1946C70.1656 48.1935 70.1487 48.1944 70.1401 48.1958C70.1365 48.1951 70.1327 48.1943 70.1286 48.1935C70.0853 48.1803 70.0419 48.1686 69.9985 48.1569C69.9335 48.1394 69.8684 48.1218 69.8034 48.0992C69.7637 48.0854 69.7569 48.0849 69.7581 48.0867C69.751 48.0828 69.7366 48.0752 69.7091 48.0615L69.5064 47.9578C69.3888 47.8911 69.2755 47.8171 69.167 47.7362C69.0316 47.6093 68.853 47.5387 68.6674 47.5387C68.4818 47.5387 68.3032 47.6093 68.1677 47.7362C68.0365 47.8694 67.9629 48.0489 67.9629 48.2359C67.9629 48.4229 68.0365 48.6024 68.1677 48.7355L68.1725 48.7403C68.7602 49.2474 69.4922 49.5573 70.2653 49.6264C70.8783 49.6517 71.4841 49.487 72 49.1551C72.6613 48.7024 73.2113 48.1142 73.6169 47.4354Z" fill="#252935"/>
<path d="M128.113 142.594C126.516 143.66 124.932 144.738 123.361 145.828L123.38 145.861C122.626 146.384 121.924 145.159 122.664 144.64L122.744 144.588L110.999 128L100.499 114L93.499 108.5L85.499 105.116C93.999 103.098 166.499 83 170.597 81.8018C169.819 81.3304 170.531 80.1096 171.309 80.5809C173.234 81.7336 175.028 83.0929 176.659 84.6347C179.209 87.0576 181.25 89.9565 183.517 92.648C186.883 96.5835 190.717 100.093 194.934 103.098C195.05 103.171 195.143 103.275 195.202 103.399C195.261 103.523 195.283 103.661 195.265 103.797C195.248 103.933 195.192 104.061 195.104 104.166C195.016 104.271 194.9 104.349 194.769 104.39C194.123 104.644 193.506 104.866 192.884 105.116C187.033 107.542 181.32 110.284 175.768 113.332C169.522 116.693 163.352 120.261 157.267 123.938C151.598 127.375 145.974 130.895 140.397 134.496C136.274 137.155 132.179 139.854 128.113 142.594Z" fill="#35318E"/>
<path fill-rule="evenodd" clip-rule="evenodd" d="M98.1 102.637C94.3056 103.54 90.5301 104.431 86.7228 105.199C89.7998 105.602 92.6637 107.136 95.1406 108.956C98.3147 111.374 101.2 114.15 103.738 117.229C106.534 120.495 109.098 123.955 111.568 127.476C113.417 130.113 115.205 132.79 116.993 135.467L116.993 135.467C117.43 136.12 117.866 136.774 118.304 137.427C119.812 139.792 121.437 142.08 123.172 144.284C124.524 143.329 125.905 142.409 127.285 141.489C127.726 141.195 128.168 140.9 128.608 140.605C132.932 137.714 137.294 134.854 141.693 132.026C147.384 128.353 153.133 124.788 158.94 121.331C165.04 117.687 171.205 114.161 177.498 110.862C182.567 108.134 187.786 105.696 193.13 103.559C190.859 101.874 188.692 100.052 186.643 98.1018C184.259 95.7886 182.189 93.2399 180.112 90.6818C179.696 90.1696 179.28 89.6569 178.86 89.1457C176.606 86.3206 173.898 83.8915 170.846 81.9577L169.366 82.4628C163.932 84.2776 158.454 85.9886 152.963 87.6479C146.716 89.5302 140.449 91.3575 134.165 93.1299C127.814 94.918 121.449 96.6542 115.069 98.3385C109.413 99.8092 103.756 101.27 98.1 102.637ZM170.987 80.4756C170.908 80.4645 170.827 80.4669 170.748 80.483C165.468 82.2978 160.146 83.9806 154.811 85.6115C148.626 87.497 142.421 89.3212 136.196 91.0841C129.814 92.9005 123.416 94.6603 117.002 96.3635C111.232 97.897 105.45 99.3771 99.6556 100.804C95.2106 101.888 90.7561 102.949 86.2687 103.854L85.0007 104.108C84.3754 104.227 84.3705 104.926 84.7277 105.28C84.7197 105.288 84.7119 105.295 84.7042 105.303C84.5716 105.435 84.4971 105.615 84.4971 105.803C84.4971 105.99 84.5716 106.17 84.7042 106.303C84.8368 106.435 85.0166 106.51 85.2041 106.51H85.1853C88.2775 106.51 91.1528 107.924 93.6699 109.644C96.8281 111.808 99.5526 114.584 102.07 117.455C107.139 123.238 111.423 129.659 115.685 136.049C115.985 136.497 116.284 136.946 116.583 137.394C118.399 140.256 120.367 143.018 122.479 145.67C122.662 145.958 123.015 146.114 123.38 145.861L123.361 145.828C124.933 144.738 126.516 143.66 128.113 142.594C132.179 139.854 136.274 137.155 140.397 134.496C145.975 130.895 151.598 127.375 157.267 123.938C163.352 120.261 169.523 116.693 175.768 113.332C181.32 110.284 187.034 107.542 192.884 105.116C193.222 104.98 193.558 104.853 193.899 104.724C194.185 104.616 194.474 104.506 194.769 104.39C194.9 104.349 195.016 104.271 195.104 104.166C195.192 104.061 195.248 103.933 195.266 103.797C195.283 103.661 195.261 103.523 195.202 103.399C195.144 103.275 195.05 103.171 194.934 103.098C190.717 100.093 186.883 96.5835 183.518 92.648C182.824 91.8247 182.152 90.982 181.479 90.1395C179.954 88.2276 178.429 86.3165 176.659 84.6347C175.029 83.0929 173.235 81.7336 171.309 80.5809C171.199 80.5143 171.09 80.4814 170.987 80.4756Z" fill="#242933"/>
<path d="M57.3929 48.428C55.2078 50.1907 53.136 52.0894 51.1897 54.1128C50.5581 54.768 51.5574 55.772 52.189 55.1121C54.1304 53.092 56.1959 51.195 58.3734 49.4321C58.5046 49.2989 58.5782 49.1194 58.5782 48.9324C58.5782 48.7454 58.5046 48.5659 58.3734 48.4328C58.2391 48.3037 58.06 48.2316 57.8737 48.2316C57.6875 48.2316 57.5084 48.3037 57.3741 48.4328L57.3929 48.428Z" fill="#242933"/>
<path d="M59.9054 42.5219C55.9415 42.8823 52.0274 43.6645 48.2295 44.8552C47.3669 45.138 47.7582 46.505 48.6066 46.2174C52.2864 45.0594 56.0785 44.2947 59.9195 43.936C60.8151 43.8417 60.8245 42.4276 59.9195 42.5219H59.9054Z" fill="#242933"/>
<path d="M92.3124 47.8156C94.809 49.0982 97.2239 50.5339 99.5433 52.1145C100.297 52.6283 101.004 51.4027 100.26 50.8937C97.9404 49.313 95.5255 47.8773 93.0289 46.5948C92.2182 46.18 91.5017 47.3961 92.3124 47.8156Z" fill="#242933"/>
<path d="M89.517 42.7396C93.4075 42.2966 97.3341 42.2682 101.231 42.6548C102.136 42.7537 102.131 41.3396 101.231 41.2406C97.3341 40.8541 93.4075 40.8825 89.517 41.3255C88.6214 41.4198 88.612 42.8339 89.517 42.7396Z" fill="#242933"/>
<path d="M60.1649 33.0435C60.006 32.9539 59.8286 32.9017 59.6464 32.8911C59.4642 32.8805 59.2821 32.9117 59.1138 32.9822C58.9688 33.0296 58.8388 33.1141 58.7367 33.2274C58.5915 33.37 58.4873 33.5491 58.435 33.7459C58.0004 34.7886 57.8164 35.9187 57.8976 37.0455C57.9056 37.3574 58.03 37.655 58.2464 37.8798C58.4673 38.0986 58.7651 38.2222 59.076 38.2239C59.2374 38.2196 59.3968 38.1877 59.5474 38.1296H59.5993C59.659 38.1909 59.7273 38.2433 59.802 38.2852C59.9381 38.3644 60.0887 38.4156 60.2449 38.4358C60.4012 38.4561 60.5598 38.4449 60.7117 38.403C61.0023 38.3105 61.251 38.1186 61.414 37.8609C61.4969 37.7375 61.5709 37.6083 61.6356 37.4744L61.711 37.3801C61.7771 37.2776 61.825 37.1643 61.8524 37.0455C61.8765 36.9338 61.8907 36.8202 61.8948 36.7061V36.6448C62.0114 35.9395 61.9079 35.2154 61.5984 34.5711C61.2889 33.9267 60.7883 33.3933 60.1649 33.0435Z" fill="#242933"/>
<path d="M88.8758 32.0159C88.7177 31.9263 88.5412 31.8742 88.3597 31.8635C88.1783 31.8529 87.9969 31.8841 87.8294 31.9546C87.6844 32.0019 87.5544 32.0864 87.4523 32.1997C87.3073 32.3433 87.2018 32.5219 87.1459 32.7182C86.7151 33.7619 86.5328 34.8915 86.6133 36.0178C86.6218 36.3287 86.7442 36.6256 86.9574 36.8521C87.1808 37.07 87.4796 37.1933 87.7917 37.1962C87.953 37.1919 88.1125 37.16 88.2631 37.1019H88.3149C88.3765 37.1631 88.4463 37.2154 88.5223 37.2575C88.6584 37.337 88.809 37.3883 88.9652 37.4086C89.1215 37.4288 89.2802 37.4175 89.432 37.3753C89.7219 37.2814 89.9701 37.0898 90.1344 36.8333C90.2185 36.7114 90.2911 36.582 90.3512 36.4467C90.3789 36.4174 90.4041 36.3859 90.4266 36.3525C90.4967 36.2515 90.5463 36.1378 90.5728 36.0178C90.5972 35.9062 90.6114 35.7926 90.6152 35.6784V35.6265C90.7351 34.9187 90.6322 34.191 90.3206 33.5442C90.009 32.8973 89.5041 32.3633 88.8758 32.0159Z" fill="#242933"/>
</g>
<defs>
<clipPath id="clip0_1733_2605">
<rect width="195.251" height="210" fill="white" transform="translate(-0.000976562)"/>
</clipPath>
</defs>
</svg>
