<svg width="17" height="22" viewBox="0 0 17 22" fill="none" xmlns="http://www.w3.org/2000/svg">
<path d="M9.54952 21.3847C9.70828 21.3538 9.85448 21.2769 9.96997 21.1637L12.6638 18.5029C12.9943 18.1724 12.9943 17.6601 12.6638 17.3296L9.9865 14.6523C9.47418 14.1235 8.58175 14.487 8.58175 15.2307V16.7842C7.06133 16.8173 5.5409 16.2719 4.38406 15.115C2.73142 13.4624 2.30174 11.0826 3.06195 9.03334C3.22721 8.5706 3.14458 8.04176 2.781 7.67818C2.153 7.03365 1.04573 7.24849 0.731734 8.09134C0.171367 9.57805 0.0510414 11.1947 0.385145 12.748C0.719249 14.3013 1.49364 15.7255 2.61574 16.8503C4.23532 18.4534 6.3507 19.2632 8.46607 19.2632H8.56523V20.5853C8.5675 20.747 8.61719 20.9045 8.70813 21.0383C8.79908 21.172 8.92728 21.2761 9.07685 21.3377C9.22641 21.3993 9.39076 21.4157 9.54952 21.3847Z" fill="#62718A"/>
<path d="M13.8134 13.7016C13.8631 13.9416 13.9803 14.1625 14.1511 14.3383C14.7791 14.9828 15.8699 14.768 16.1839 13.9086C16.7442 12.4219 16.8646 10.8053 16.5305 9.25196C16.1964 7.69867 15.422 6.27447 14.2999 5.14964C12.6638 3.49701 10.4988 2.72027 8.35039 2.75332V1.41469C8.34811 1.25295 8.29843 1.09545 8.20748 0.961687C8.11654 0.827928 7.98833 0.723802 7.83877 0.662216C7.6892 0.600631 7.52485 0.584294 7.36609 0.615233C7.20733 0.646172 7.06114 0.723025 6.94565 0.836265L4.26838 3.51353C3.93785 3.84406 3.93785 4.35638 4.26838 4.68691L6.96217 7.34765C7.47449 7.87649 8.36691 7.51291 8.36691 6.76923V5.21575C9.87081 5.1827 11.3912 5.74459 12.5481 6.90144C14.2007 8.55408 14.6304 10.9339 13.8702 12.9831C13.7833 13.2124 13.7636 13.4616 13.8134 13.7016Z" fill="#62718A"/>
</svg>
