<svg width="20" height="20" viewBox="0 0 20 20" fill="none" xmlns="http://www.w3.org/2000/svg">
<path d="M11.0636 16.4801C11.1665 16.46 11.2614 16.4102 11.3363 16.3368L13.0833 14.6111C13.2977 14.3967 13.2977 14.0645 13.0833 13.8501L11.347 12.1137C11.0147 11.7708 10.4359 12.0066 10.4359 12.4889V13.4964C9.44984 13.5178 8.46376 13.1641 7.71348 12.4139C6.64165 11.342 6.36297 9.79859 6.85601 8.46952C6.9632 8.16941 6.90961 7.82642 6.6738 7.59062C6.26651 7.17261 5.54838 7.31195 5.34473 7.85858C4.9813 8.8228 4.90327 9.87129 5.11995 10.8787C5.33664 11.8861 5.83888 12.8098 6.56662 13.5393C7.61701 14.579 8.98896 15.1041 10.3609 15.1041H10.4252V15.9616C10.4267 16.0665 10.4589 16.1687 10.5179 16.2554C10.5769 16.3422 10.66 16.4097 10.757 16.4496C10.854 16.4896 10.9606 16.5002 11.0636 16.4801Z" fill="#297EFF"/>
<path d="M13.8289 11.4972C13.8612 11.6528 13.9372 11.7961 14.048 11.9101C14.4553 12.3281 15.1627 12.1888 15.3663 11.6314C15.7298 10.6672 15.8078 9.61871 15.5911 8.61131C15.3744 7.60391 14.8722 6.68024 14.1445 5.95072C13.0833 4.87889 11.6792 4.37513 10.2859 4.39657V3.52839C10.2844 3.42349 10.2522 3.32134 10.1932 3.23459C10.1342 3.14784 10.0511 3.08031 9.95406 3.04037C9.85705 3.00042 9.75046 2.98983 9.6475 3.0099C9.54453 3.02996 9.44972 3.0798 9.37481 3.15325L7.63845 4.88961C7.42408 5.10398 7.42408 5.43624 7.63845 5.65061L9.38553 7.37626C9.7178 7.71924 10.2966 7.48344 10.2966 7.00112V5.9936C11.272 5.97216 12.258 6.33658 13.0083 7.08686C14.0801 8.15869 14.3588 9.70213 13.8658 11.0312C13.8094 11.1799 13.7967 11.3415 13.8289 11.4972Z" fill="#297EFF"/>
</svg>
