<svg width="24" height="24" viewBox="0 0 24 24" fill="none" xmlns="http://www.w3.org/2000/svg">
<path fill-rule="evenodd" clip-rule="evenodd" d="M12 20C16.4183 20 20 16.4183 20 12C20 7.58172 16.4183 4 12 4C7.58172 4 4 7.58172 4 12C4 16.4183 7.58172 20 12 20ZM11.5309 8.20241C11.6766 8.06586 11.8583 8 12.0649 8C12.2706 8 12.4504 8.06538 12.5901 8.2041C12.7373 8.34306 12.8084 8.52395 12.8084 8.73271C12.8084 8.94752 12.7382 9.13468 12.5918 9.28103C12.4519 9.42095 12.2715 9.48688 12.0649 9.48688C11.8583 9.48688 11.6766 9.42102 11.5309 9.28447L11.5237 9.2777C11.386 9.13082 11.3215 8.94462 11.3215 8.73271C11.3215 8.52619 11.3874 8.34576 11.5274 8.20585L11.5309 8.20241ZM10.6562 10.3821H12.6689V14.9776C12.6689 15.1012 12.6716 15.1962 12.6765 15.2642C12.6787 15.294 12.6812 15.3168 12.6838 15.3334C12.701 15.3393 12.7285 15.3459 12.7696 15.3511L13.4951 15.4303V16H10.6562V15.4303L11.3818 15.3511C11.4228 15.3459 11.4504 15.3393 11.4676 15.3334C11.4701 15.3168 11.4726 15.294 11.4748 15.2642C11.4798 15.1962 11.4825 15.1012 11.4825 14.9776V11.4045C11.4825 11.2808 11.4798 11.1858 11.4748 11.1179C11.4726 11.0881 11.4701 11.0653 11.4676 11.0486C11.4506 11.0428 11.4234 11.0363 11.3831 11.0311L10.6562 10.965V10.3821Z" fill="#62718A"/>
</svg>
