<svg width="10" height="8" viewBox="0 0 10 8" fill="none" xmlns="http://www.w3.org/2000/svg">
<path d="M8.04508 0.890197C8.1971 0.745469 8.39939 0.665458 8.60928 0.667046C8.81917 0.668634 9.02024 0.751698 9.17005 0.898709C9.31986 1.04572 9.4067 1.24518 9.41225 1.455C9.4178 1.66482 9.34162 1.8686 9.19978 2.02332L4.89392 7.40834C4.81988 7.48809 4.73052 7.55209 4.63118 7.59651C4.53184 7.64093 4.42456 7.66487 4.31576 7.66688C4.20696 7.6689 4.09887 7.64895 3.99795 7.60824C3.89704 7.56752 3.80537 7.50688 3.72843 7.42992L0.872962 4.57446C0.793442 4.50036 0.729661 4.41101 0.685424 4.31172C0.641187 4.21244 0.6174 4.10527 0.615482 3.99659C0.613565 3.88792 0.633556 3.77997 0.674263 3.67919C0.714971 3.57841 0.77556 3.48686 0.852416 3.41C0.929273 3.33314 1.02082 3.27256 1.1216 3.23185C1.22238 3.19114 1.33033 3.17115 1.43901 3.17307C1.54768 3.17498 1.65486 3.19877 1.75414 3.24301C1.85342 3.28725 1.94278 3.35103 2.01687 3.43055L4.27664 5.68923L8.02457 0.913939C8.03132 0.90563 8.03853 0.897704 8.04616 0.890197H8.04508Z" fill="#62718A"/>
</svg>
