<svg width="10" height="8" viewBox="0 0 10 8" fill="none" xmlns="http://www.w3.org/2000/svg">
<path d="M8.13187 0.890166C8.28389 0.745439 8.48619 0.665427 8.69608 0.667015C8.90596 0.668604 9.10703 0.751667 9.25684 0.898678C9.40665 1.04569 9.49349 1.24515 9.49904 1.45497C9.50459 1.66479 9.42841 1.86857 9.28657 2.02329L4.98071 7.40831C4.90667 7.48806 4.81731 7.55206 4.71797 7.59648C4.61863 7.6409 4.51136 7.66484 4.40255 7.66685C4.29375 7.66887 4.18566 7.64892 4.08475 7.60821C3.98383 7.56749 3.89216 7.50685 3.81522 7.42989L0.959754 4.57443C0.880234 4.50033 0.816453 4.41098 0.772216 4.31169C0.727979 4.21241 0.704192 4.10524 0.702274 3.99656C0.700357 3.88789 0.720348 3.77994 0.761055 3.67916C0.801763 3.57838 0.862352 3.48683 0.939208 3.40997C1.01606 3.33311 1.10761 3.27253 1.2084 3.23182C1.30918 3.19111 1.41712 3.17112 1.5258 3.17304C1.63447 3.17495 1.74165 3.19874 1.84093 3.24298C1.94021 3.28722 2.02957 3.351 2.10367 3.43052L4.36343 5.6892L8.11137 0.913908C8.11811 0.9056 8.12532 0.897673 8.13295 0.890166H8.13187Z" fill="#08D70D"/>
</svg>
