<svg width="30" height="30" viewBox="0 0 30 30" fill="none" xmlns="http://www.w3.org/2000/svg">
<g filter="url(#filter0_bii_16_406)">
<path d="M0 22.1538C0 26.2322 3.3062 29.5385 7.38461 29.5385H22.1538C26.2323 29.5385 29.5385 26.2322 29.5385 22.1538V7.38461C29.5385 3.3062 26.2323 -3.8147e-06 22.1538 -3.8147e-06H7.38461C3.3062 -3.8147e-06 0 3.3062 0 7.38461V22.1538Z" fill="#146CF0"/>
</g>
<g clip-path="url(#clip0_16_406)">
<g filter="url(#filter1_d_16_406)">
<path d="M13.4501 17.429C13.5496 17.5286 13.6055 17.6636 13.6055 17.8043C13.6055 17.9451 13.5496 18.0801 13.4501 18.1796L11.327 20.3027C11.3245 20.3052 11.3217 20.3074 11.3192 20.3098C11.3093 20.3195 11.299 20.3288 11.2883 20.3377C11.2815 20.3433 11.2744 20.3483 11.2673 20.3535C11.2604 20.3586 11.2537 20.3639 11.2466 20.3687C11.2386 20.374 11.2302 20.3787 11.222 20.3836C11.2154 20.3876 11.2089 20.3918 11.2021 20.3954C11.1938 20.3998 11.1854 20.4035 11.177 20.4075C11.1697 20.4109 11.1624 20.4146 11.1549 20.4177C11.1468 20.421 11.1386 20.4237 11.1304 20.4267C11.1222 20.4296 11.1142 20.4327 11.1059 20.4353C11.0977 20.4377 11.0894 20.4395 11.0811 20.4416C11.0726 20.4438 11.0642 20.4462 11.0555 20.4479C11.0461 20.4497 11.0365 20.4509 11.027 20.4522C11.0194 20.4533 11.0118 20.4548 11.0041 20.4555C10.9693 20.459 10.9342 20.459 10.8993 20.4555C10.8916 20.4548 10.884 20.4533 10.8764 20.4522C10.8669 20.4509 10.8574 20.4497 10.8479 20.4479C10.8393 20.4462 10.8308 20.4438 10.8223 20.4416C10.814 20.4396 10.8057 20.4377 10.7975 20.4352C10.7892 20.4327 10.7812 20.4296 10.773 20.4267C10.7648 20.4237 10.7566 20.421 10.7485 20.4177C10.741 20.4146 10.7338 20.4109 10.7265 20.4075C10.718 20.4035 10.7096 20.3998 10.7014 20.3954C10.6946 20.3918 10.6881 20.3876 10.6815 20.3836C10.6732 20.3787 10.6649 20.374 10.6568 20.3687C10.6497 20.3639 10.643 20.3586 10.6362 20.3534C10.6291 20.3482 10.622 20.3433 10.6151 20.3378C10.6045 20.3289 10.5942 20.3195 10.5842 20.3098C10.5817 20.3074 10.5789 20.3052 10.5764 20.3027L8.45331 18.1796C8.40403 18.1304 8.36493 18.0718 8.33825 18.0074C8.31158 17.9431 8.29785 17.874 8.29785 17.8043C8.29785 17.7346 8.31158 17.6656 8.33825 17.6012C8.36493 17.5368 8.40403 17.4783 8.45331 17.429C8.55286 17.3295 8.68786 17.2735 8.82863 17.2735C8.89834 17.2735 8.96736 17.2873 9.03176 17.3139C9.09615 17.3406 9.15467 17.3797 9.20395 17.429L10.4209 18.646V9.31202C10.4209 9.17125 10.4769 9.03625 10.5764 8.93671C10.6759 8.83717 10.8109 8.78125 10.9517 8.78125C11.0925 8.78125 11.2275 8.83717 11.327 8.93671C11.4266 9.03625 11.4825 9.17125 11.4825 9.31202V18.646L12.6995 17.429C12.799 17.3295 12.934 17.2736 13.0748 17.2736C13.2156 17.2736 13.3506 17.3295 13.4501 17.429ZM21.8193 11.0598L19.6963 8.9367C19.6939 8.93438 19.6914 8.93245 19.689 8.9302C19.6789 8.92028 19.6684 8.91076 19.6575 8.90167C19.6507 8.8961 19.6436 8.89125 19.6366 8.88608C19.6296 8.8809 19.6229 8.87553 19.6158 8.87082C19.6078 8.86544 19.5996 8.86087 19.5914 8.85596C19.5847 8.85197 19.5782 8.84773 19.5713 8.84401C19.5631 8.83963 19.5547 8.83599 19.5465 8.83207C19.539 8.82855 19.5317 8.82484 19.5241 8.82172C19.5161 8.8184 19.508 8.81575 19.4999 8.8129C19.4916 8.80991 19.4835 8.80673 19.4751 8.80414C19.467 8.80175 19.4588 8.79989 19.4506 8.79784C19.442 8.79571 19.4335 8.79326 19.4247 8.79153C19.4154 8.78968 19.4059 8.78855 19.3964 8.78722C19.3887 8.78616 19.3812 8.78463 19.3734 8.7839C19.3385 8.78047 19.3034 8.78047 19.2685 8.7839C19.2608 8.78463 19.2531 8.78616 19.2454 8.78722C19.236 8.78855 19.2265 8.78968 19.2172 8.79153C19.2084 8.79326 19.1999 8.79571 19.1913 8.79784C19.1831 8.79989 19.1749 8.80175 19.1668 8.80414C19.1584 8.80673 19.1502 8.80991 19.142 8.8129C19.1339 8.81575 19.1257 8.8184 19.1178 8.82172C19.1102 8.82484 19.1029 8.82855 19.0954 8.83207C19.0871 8.83599 19.0788 8.83963 19.0706 8.84401C19.0637 8.84773 19.0572 8.85197 19.0504 8.85596C19.0423 8.8608 19.0341 8.86544 19.0261 8.87075C19.0189 8.87553 19.0122 8.8809 19.0053 8.88601C18.9983 8.89125 18.9911 8.8961 18.9844 8.90167C18.9735 8.91077 18.963 8.92028 18.9529 8.9302C18.9505 8.93245 18.9479 8.93438 18.9456 8.9367L16.8225 11.0598C16.7229 11.1593 16.667 11.2943 16.667 11.4351C16.667 11.5759 16.723 11.7109 16.8225 11.8104C16.9221 11.91 17.0571 11.9659 17.1979 11.9659C17.3386 11.9659 17.4736 11.91 17.5732 11.8104L18.7902 10.5934V19.9274C18.7902 20.0682 18.8461 20.2032 18.9456 20.3027C19.0452 20.4023 19.1802 20.4582 19.3209 20.4582C19.4617 20.4582 19.5967 20.4023 19.6963 20.3027C19.7958 20.2032 19.8517 20.0682 19.8517 19.9274V10.5934L21.0687 11.8104C21.1682 11.91 21.3032 11.9659 21.444 11.9659C21.5848 11.9659 21.7198 11.91 21.8193 11.8104C21.9189 11.7109 21.9748 11.5759 21.9748 11.4351C21.9748 11.2943 21.9189 11.1593 21.8193 11.0598Z" fill="white"/>
</g>
</g>
<defs>
<filter id="filter0_bii_16_406" x="-6" y="-6" width="41.5386" height="41.5385" filterUnits="userSpaceOnUse" color-interpolation-filters="sRGB">
<feFlood flood-opacity="0" result="BackgroundImageFix"/>
<feGaussianBlur in="BackgroundImage" stdDeviation="3"/>
<feComposite in2="SourceAlpha" operator="in" result="effect1_backgroundBlur_16_406"/>
<feBlend mode="normal" in="SourceGraphic" in2="effect1_backgroundBlur_16_406" result="shape"/>
<feColorMatrix in="SourceAlpha" type="matrix" values="0 0 0 0 0 0 0 0 0 0 0 0 0 0 0 0 0 0 127 0" result="hardAlpha"/>
<feOffset dy="1"/>
<feGaussianBlur stdDeviation="0.25"/>
<feComposite in2="hardAlpha" operator="arithmetic" k2="-1" k3="1"/>
<feColorMatrix type="matrix" values="0 0 0 0 0.429167 0 0 0 0 0.62325 0 0 0 0 1 0 0 0 0.34 0"/>
<feBlend mode="normal" in2="shape" result="effect2_innerShadow_16_406"/>
<feColorMatrix in="SourceAlpha" type="matrix" values="0 0 0 0 0 0 0 0 0 0 0 0 0 0 0 0 0 0 127 0" result="hardAlpha"/>
<feOffset dy="-1"/>
<feGaussianBlur stdDeviation="0.5"/>
<feComposite in2="hardAlpha" operator="arithmetic" k2="-1" k3="1"/>
<feColorMatrix type="matrix" values="0 0 0 0 0.0321194 0 0 0 0 0.0301389 0 0 0 0 0.129167 0 0 0 0.24 0"/>
<feBlend mode="normal" in2="effect2_innerShadow_16_406" result="effect3_innerShadow_16_406"/>
</filter>
<filter id="filter1_d_16_406" x="6.29785" y="7.78125" width="17.6768" height="15.6769" filterUnits="userSpaceOnUse" color-interpolation-filters="sRGB">
<feFlood flood-opacity="0" result="BackgroundImageFix"/>
<feColorMatrix in="SourceAlpha" type="matrix" values="0 0 0 0 0 0 0 0 0 0 0 0 0 0 0 0 0 0 127 0" result="hardAlpha"/>
<feOffset dy="1"/>
<feGaussianBlur stdDeviation="1"/>
<feComposite in2="hardAlpha" operator="out"/>
<feColorMatrix type="matrix" values="0 0 0 0 0 0 0 0 0 0 0 0 0 0 0 0 0 0 0.47 0"/>
<feBlend mode="normal" in2="BackgroundImageFix" result="effect1_dropShadow_16_406"/>
<feBlend mode="normal" in="SourceGraphic" in2="effect1_dropShadow_16_406" result="shape"/>
</filter>
<clipPath id="clip0_16_406">
<rect width="16.9846" height="16.9846" fill="white" transform="translate(6.64404 6.12744)"/>
</clipPath>
</defs>
</svg>
