<svg width="30" height="30" viewBox="0 0 30 30" fill="none" xmlns="http://www.w3.org/2000/svg">
<g filter="url(#filter0_bii_7_1223)">
<path d="M0.234863 22.3805C0.234863 26.4589 3.54107 29.7651 7.61948 29.7651H22.3887C26.4671 29.7651 29.7733 26.4589 29.7733 22.3805V7.61129C29.7733 3.53288 26.4671 0.226681 22.3887 0.226681H7.61948C3.54107 0.226681 0.234863 3.53288 0.234863 7.61129V22.3805Z" fill="#297EFE"/>
</g>
<g clip-path="url(#clip0_7_1223)">
<g filter="url(#filter1_d_7_1223)">
<path d="M13.6847 17.6557C13.7842 17.7552 13.8401 17.8902 13.8401 18.031C13.8401 18.1718 13.7842 18.3068 13.6847 18.4063L11.5616 20.5294C11.5591 20.5319 11.5563 20.5341 11.5538 20.5365C11.5438 20.5462 11.5335 20.5555 11.5228 20.5644C11.516 20.57 11.5089 20.575 11.5018 20.5802C11.495 20.5853 11.4883 20.5906 11.4812 20.5954C11.4731 20.6007 11.4648 20.6054 11.4566 20.6103C11.4499 20.6143 11.4434 20.6184 11.4367 20.6221C11.4284 20.6265 11.4199 20.6302 11.4115 20.6342C11.4042 20.6376 11.397 20.6413 11.3895 20.6444C11.3814 20.6477 11.3732 20.6504 11.3649 20.6533C11.3568 20.6563 11.3488 20.6594 11.3405 20.662C11.3323 20.6644 11.3239 20.6662 11.3156 20.6683C11.3072 20.6705 11.2987 20.6728 11.29 20.6746C11.2806 20.6764 11.2711 20.6776 11.2616 20.6789C11.2539 20.68 11.2464 20.6815 11.2387 20.6822C11.2038 20.6856 11.1687 20.6856 11.1339 20.6822C11.1262 20.6815 11.1186 20.68 11.111 20.6789C11.1015 20.6776 11.0919 20.6764 11.0825 20.6746C11.0739 20.6728 11.0654 20.6705 11.0569 20.6683C11.0486 20.6663 11.0403 20.6644 11.0321 20.6619C11.0238 20.6594 11.0158 20.6563 11.0076 20.6533C10.9994 20.6504 10.9911 20.6477 10.9831 20.6444C10.9756 20.6413 10.9683 20.6376 10.961 20.6342C10.9526 20.6302 10.9442 20.6265 10.9359 20.6221C10.9291 20.6184 10.9227 20.6143 10.916 20.6103C10.9077 20.6054 10.8995 20.6007 10.8914 20.5954C10.8843 20.5906 10.8776 20.5853 10.8708 20.5801C10.8637 20.5749 10.8565 20.57 10.8497 20.5644C10.839 20.5555 10.8287 20.5462 10.8188 20.5365C10.8163 20.5341 10.8135 20.5319 10.8109 20.5294L8.68787 18.4063C8.63858 18.357 8.59949 18.2985 8.57281 18.2341C8.54614 18.1697 8.53241 18.1007 8.53241 18.031C8.53241 17.9613 8.54614 17.8923 8.57281 17.8279C8.59949 17.7635 8.63858 17.705 8.68787 17.6557C8.78741 17.5561 8.92242 17.5002 9.06319 17.5002C9.1329 17.5002 9.20192 17.514 9.26631 17.5406C9.33071 17.5673 9.38922 17.6064 9.43851 17.6557L10.6555 18.8727V9.5387C10.6555 9.39794 10.7114 9.26293 10.811 9.16339C10.9105 9.06385 11.0455 9.00793 11.1863 9.00793C11.327 9.00793 11.462 9.06385 11.5616 9.16339C11.6611 9.26293 11.717 9.39794 11.717 9.5387V18.8727L12.934 17.6557C13.0336 17.5562 13.1686 17.5002 13.3093 17.5002C13.4501 17.5002 13.5851 17.5562 13.6847 17.6557ZM22.0539 11.2865L19.9308 9.16338C19.9285 9.16106 19.926 9.15914 19.9236 9.15688C19.9135 9.14697 19.9029 9.13745 19.8921 9.12835C19.8853 9.12278 19.8781 9.11794 19.8712 9.11276C19.8642 9.10759 19.8575 9.10221 19.8503 9.0975C19.8424 9.09213 19.8342 9.08755 19.826 9.08264C19.8193 9.07866 19.8127 9.07441 19.8058 9.0707C19.7977 9.06632 19.7893 9.06267 19.781 9.05876C19.7736 9.05524 19.7663 9.05152 19.7586 9.04841C19.7507 9.04509 19.7425 9.04243 19.7344 9.03958C19.7262 9.0366 19.718 9.03341 19.7096 9.03082C19.7015 9.02844 19.6934 9.02658 19.6851 9.02452C19.6765 9.0224 19.668 9.01994 19.6593 9.01822C19.6499 9.01636 19.6404 9.01523 19.631 9.01391C19.6233 9.01284 19.6157 9.01132 19.6079 9.01059C19.5731 9.00715 19.5379 9.00715 19.5031 9.01059C19.4953 9.01132 19.4877 9.01284 19.48 9.01391C19.4706 9.01523 19.4611 9.01636 19.4518 9.01822C19.443 9.01994 19.4345 9.0224 19.4259 9.02452C19.4176 9.02658 19.4095 9.02844 19.4013 9.03082C19.393 9.03341 19.3847 9.0366 19.3766 9.03958C19.3685 9.04243 19.3603 9.04509 19.3523 9.04841C19.3447 9.05152 19.3374 9.05524 19.33 9.05876C19.3217 9.06267 19.3133 9.06632 19.3052 9.0707C19.2983 9.07441 19.2918 9.07866 19.285 9.08264C19.2768 9.08748 19.2686 9.09213 19.2607 9.09744C19.2535 9.10221 19.2467 9.10759 19.2398 9.1127C19.2329 9.11794 19.2257 9.12278 19.2189 9.12835C19.2081 9.13745 19.1975 9.14697 19.1874 9.15688C19.185 9.15914 19.1825 9.16106 19.1801 9.16338L17.057 11.2865C16.9575 11.386 16.9016 11.521 16.9016 11.6618C16.9016 11.8026 16.9575 11.9376 17.0571 12.0371C17.1566 12.1367 17.2916 12.1926 17.4324 12.1926C17.5732 12.1926 17.7082 12.1367 17.8077 12.0371L19.0247 10.8201V20.1541C19.0247 20.2949 19.0806 20.4299 19.1802 20.5294C19.2797 20.6289 19.4147 20.6849 19.5555 20.6849C19.6963 20.6849 19.8313 20.6289 19.9308 20.5294C20.0303 20.4299 20.0863 20.2949 20.0863 20.1541V10.8201L21.3033 12.0371C21.4028 12.1366 21.5378 12.1926 21.6786 12.1926C21.8193 12.1926 21.9544 12.1366 22.0539 12.0371C22.1534 11.9376 22.2094 11.8026 22.2094 11.6618C22.2094 11.521 22.1534 11.386 22.0539 11.2865Z" fill="white"/>
</g>
</g>
<defs>
<filter id="filter0_bii_7_1223" x="-5.76514" y="-5.77332" width="41.5385" height="41.5385" filterUnits="userSpaceOnUse" color-interpolation-filters="sRGB">
<feFlood flood-opacity="0" result="BackgroundImageFix"/>
<feGaussianBlur in="BackgroundImage" stdDeviation="3"/>
<feComposite in2="SourceAlpha" operator="in" result="effect1_backgroundBlur_7_1223"/>
<feBlend mode="normal" in="SourceGraphic" in2="effect1_backgroundBlur_7_1223" result="shape"/>
<feColorMatrix in="SourceAlpha" type="matrix" values="0 0 0 0 0 0 0 0 0 0 0 0 0 0 0 0 0 0 127 0" result="hardAlpha"/>
<feOffset dy="1"/>
<feGaussianBlur stdDeviation="0.25"/>
<feComposite in2="hardAlpha" operator="arithmetic" k2="-1" k3="1"/>
<feColorMatrix type="matrix" values="0 0 0 0 0.429167 0 0 0 0 0.62325 0 0 0 0 1 0 0 0 0.34 0"/>
<feBlend mode="normal" in2="shape" result="effect2_innerShadow_7_1223"/>
<feColorMatrix in="SourceAlpha" type="matrix" values="0 0 0 0 0 0 0 0 0 0 0 0 0 0 0 0 0 0 127 0" result="hardAlpha"/>
<feOffset dy="-1"/>
<feGaussianBlur stdDeviation="0.5"/>
<feComposite in2="hardAlpha" operator="arithmetic" k2="-1" k3="1"/>
<feColorMatrix type="matrix" values="0 0 0 0 0.0321194 0 0 0 0 0.0301389 0 0 0 0 0.129167 0 0 0 0.24 0"/>
<feBlend mode="normal" in2="effect2_innerShadow_7_1223" result="effect3_innerShadow_7_1223"/>
</filter>
<filter id="filter1_d_7_1223" x="6.53241" y="8.00793" width="17.6769" height="15.6769" filterUnits="userSpaceOnUse" color-interpolation-filters="sRGB">
<feFlood flood-opacity="0" result="BackgroundImageFix"/>
<feColorMatrix in="SourceAlpha" type="matrix" values="0 0 0 0 0 0 0 0 0 0 0 0 0 0 0 0 0 0 127 0" result="hardAlpha"/>
<feOffset dy="1"/>
<feGaussianBlur stdDeviation="1"/>
<feComposite in2="hardAlpha" operator="out"/>
<feColorMatrix type="matrix" values="0 0 0 0 0 0 0 0 0 0 0 0 0 0 0 0 0 0 0.47 0"/>
<feBlend mode="normal" in2="BackgroundImageFix" result="effect1_dropShadow_7_1223"/>
<feBlend mode="normal" in="SourceGraphic" in2="effect1_dropShadow_7_1223" result="shape"/>
</filter>
<clipPath id="clip0_7_1223">
<rect width="16.9846" height="16.9846" fill="white" transform="translate(6.87878 6.35413)"/>
</clipPath>
</defs>
</svg>
