<svg width="18" height="18" viewBox="0 0 18 18" fill="none" xmlns="http://www.w3.org/2000/svg">
<g clip-path="url(#clip0_17_1256)">
<path d="M15.4281 0H4.66024C4.57185 0 4.49953 0.0723214 4.49953 0.160714V1.28571C4.49953 1.37411 4.57185 1.44643 4.66024 1.44643H14.6245V15.2679C14.6245 15.3562 14.6969 15.4286 14.7852 15.4286H15.9102C15.9986 15.4286 16.071 15.3562 16.071 15.2679V0.642857C16.071 0.287277 15.7837 0 15.4281 0ZM12.8567 2.57143H2.57096C2.21538 2.57143 1.9281 2.85871 1.9281 3.21429V13.8757C1.9281 14.0464 1.9964 14.2092 2.11694 14.3297L5.59841 17.8112C5.64261 17.8554 5.69283 17.8915 5.74707 17.9217V17.9598H5.83145C5.90176 17.9859 5.97609 18 6.05243 18H12.8567C13.2123 18 13.4995 17.7127 13.4995 17.3571V3.21429C13.4995 2.85871 13.2123 2.57143 12.8567 2.57143ZM5.74507 15.9147L4.01538 14.183H5.74507V15.9147ZM12.0531 16.5536H7.03078V13.7009C7.03078 13.2569 6.67118 12.8973 6.22721 12.8973H3.37453V4.01786H12.0531V16.5536Z" fill="#D4D7DD"/>
</g>
<defs>
<clipPath id="clip0_17_1256">
<rect width="18" height="18" fill="white"/>
</clipPath>
</defs>
</svg>
