<svg width="24" height="24" viewBox="0 0 24 24" fill="none" xmlns="http://www.w3.org/2000/svg">
<path d="M12 2C6.47768 2 2 6.47768 2 12C2 17.5223 6.47768 22 12 22C17.5223 22 22 17.5223 22 12C22 6.47768 17.5223 2 12 2ZM12 17.8036C11.5067 17.8036 11.1071 17.404 11.1071 16.9107C11.1071 16.4174 11.5067 16.0179 12 16.0179C12.4933 16.0179 12.8929 16.4174 12.8929 16.9107C12.8929 17.404 12.4933 17.8036 12 17.8036ZM13.404 12.904C13.2019 12.9821 13.0279 13.1192 12.9049 13.2976C12.7819 13.476 12.7154 13.6873 12.7143 13.904V14.4107C12.7143 14.5089 12.6339 14.5893 12.5357 14.5893H11.4643C11.3661 14.5893 11.2857 14.5089 11.2857 14.4107V13.9308C11.2857 13.4152 11.4353 12.9062 11.7299 12.4821C12.0179 12.067 12.4196 11.75 12.8929 11.5692C13.6518 11.2768 14.1429 10.6406 14.1429 9.94643C14.1429 8.96205 13.1808 8.16071 12 8.16071C10.8192 8.16071 9.85714 8.96205 9.85714 9.94643V10.1161C9.85714 10.2143 9.77679 10.2946 9.67857 10.2946H8.60714C8.50893 10.2946 8.42857 10.2143 8.42857 10.1161V9.94643C8.42857 9.0692 8.8125 8.25 9.50893 7.64062C10.1786 7.05357 11.0625 6.73214 12 6.73214C12.9375 6.73214 13.8214 7.0558 14.4911 7.64062C15.1875 8.25 15.5714 9.0692 15.5714 9.94643C15.5714 11.2366 14.721 12.3973 13.404 12.904Z" fill="#D4D7DD"/>
</svg>
