<svg width="26" height="26" viewBox="0 0 26 26" fill="none" xmlns="http://www.w3.org/2000/svg">
<path d="M14.5493 23.3847C14.7081 23.3538 14.8543 23.2769 14.9698 23.1637L17.6636 20.5029C17.9941 20.1724 17.9941 19.6601 17.6636 19.3296L14.9863 16.6523C14.474 16.1235 13.5815 16.487 13.5815 17.2307V18.7842C12.0611 18.8173 10.5407 18.2719 9.38385 17.115C7.73121 15.4624 7.30152 13.0826 8.06174 11.0333C8.227 10.5706 8.14437 10.0418 7.78079 9.67818C7.15279 9.03365 6.04552 9.24849 5.73152 10.0913C5.17115 11.5781 5.05083 13.1947 5.38493 14.748C5.71904 16.3013 6.49343 17.7255 7.61553 18.8503C9.23511 20.4534 11.3505 21.2632 13.4659 21.2632H13.565V22.5853C13.5673 22.747 13.617 22.9045 13.7079 23.0383C13.7989 23.172 13.9271 23.2761 14.0766 23.3377C14.2262 23.3993 14.3905 23.4157 14.5493 23.3847Z" fill="#62718A"/>
<path d="M18.8132 15.7016C18.8629 15.9416 18.9801 16.1625 19.1509 16.3383C19.7789 16.9828 20.8697 16.768 21.1837 15.9086C21.744 14.4219 21.8644 12.8053 21.5303 11.252C21.1962 9.69867 20.4218 8.27447 19.2997 7.14964C17.6636 5.49701 15.4986 4.72027 13.3502 4.75332V3.41469C13.3479 3.25295 13.2982 3.09545 13.2073 2.96169C13.1163 2.82793 12.9881 2.7238 12.8386 2.66222C12.689 2.60063 12.5246 2.58429 12.3659 2.61523C12.2071 2.64617 12.0609 2.72302 11.9454 2.83626L9.26816 5.51353C8.93763 5.84406 8.93763 6.35638 9.26816 6.68691L11.962 9.34765C12.4743 9.87649 13.3667 9.51291 13.3667 8.76923V7.21575C14.8706 7.1827 16.391 7.74459 17.5479 8.90144C19.2005 10.5541 19.6302 12.9339 18.87 14.9831C18.7831 15.2124 18.7634 15.4616 18.8132 15.7016Z" fill="#62718A"/>
</svg>
