<svg width="24" height="25" viewBox="0 0 24 25" fill="none" xmlns="http://www.w3.org/2000/svg">
<path d="M12.5 8.74304C10.4284 8.74304 8.74304 10.4287 8.74304 12.5003C8.74304 14.572 10.4284 16.2577 12.5 16.2577C14.5713 16.2577 16.257 14.5723 16.257 12.5003C16.257 10.4284 14.5713 8.74304 12.5 8.74304Z" fill="#D4D7DD"/>
<path d="M12.5 7.63862C12.0951 7.63862 11.767 7.31045 11.767 6.90589V5.73306C11.767 5.32817 12.0951 5 12.5 5C12.9049 5 13.2331 5.32817 13.2331 5.73306V6.90589C13.2331 7.31045 12.9046 7.63862 12.5 7.63862Z" fill="#D4D7DD"/>
<path d="M12.5 17.3611C12.0951 17.3611 11.767 17.6893 11.767 18.0941V19.2666C11.767 19.6719 12.0951 20 12.5 20C12.9049 20 13.2331 19.6719 13.2331 19.2666V18.0941C13.2331 17.6893 12.9046 17.3611 12.5 17.3611Z" fill="#D4D7DD"/>
<path d="M15.9371 9.06257C15.6512 8.77626 15.6512 8.31224 15.9371 8.02593L16.7665 7.19654C17.0525 6.91056 17.5169 6.91056 17.8032 7.19654C18.0895 7.48286 18.0895 7.94721 17.8032 8.23319L16.9738 9.06257C16.6878 9.34889 16.2238 9.34889 15.9371 9.06257Z" fill="#D4D7DD"/>
<path d="M9.06258 15.9378C8.77626 15.6511 8.31224 15.6511 8.02593 15.9378L7.19655 16.7668C6.91056 17.0528 6.91023 17.5175 7.19655 17.8035C7.48286 18.0894 7.94721 18.0894 8.23319 17.8035L9.06258 16.9737C9.34889 16.6878 9.34889 16.2234 9.06258 15.9378Z" fill="#D4D7DD"/>
<path d="M17.3611 12.5C17.3611 12.0951 17.6893 11.767 18.0941 11.767H19.267C19.6719 11.767 20 12.0951 20 12.5C20 12.9049 19.6719 13.2328 19.267 13.2328H18.0941C17.6893 13.2328 17.3611 12.9049 17.3611 12.5Z" fill="#D4D7DD"/>
<path d="M7.63862 12.5C7.63862 12.0951 7.31045 11.767 6.90556 11.767H5.73306C5.32817 11.767 5 12.0951 5 12.5C5 12.9049 5.32817 13.2328 5.73306 13.2328H6.90589C7.31045 13.2328 7.63862 12.9049 7.63862 12.5Z" fill="#D4D7DD"/>
<path d="M15.9371 15.9378C16.2235 15.6518 16.6878 15.6518 16.9738 15.9378L17.8032 16.7671C18.0895 17.0528 18.0895 17.5175 17.8032 17.8035C17.5169 18.0894 17.0528 18.0894 16.7665 17.8035L15.9371 16.9741C15.6508 16.6878 15.6508 16.2237 15.9371 15.9378Z" fill="#D4D7DD"/>
<path d="M9.06258 9.06261C9.34889 8.7763 9.34889 8.31228 9.06258 8.02597L8.2332 7.19691C7.94688 6.9106 7.48286 6.9106 7.19655 7.19691C6.91023 7.4829 6.91023 7.94725 7.19655 8.23323L8.02593 9.06261C8.31225 9.34926 8.77626 9.34926 9.06258 9.06261Z" fill="#D4D7DD"/>
</svg>
