<svg width="24" height="24" viewBox="0 0 24 24" fill="none" xmlns="http://www.w3.org/2000/svg">
<path d="M20.9375 6.59375L17 8.8125V5.75C17 5.41848 16.8683 5.10054 16.6339 4.86612C16.3995 4.6317 16.0815 4.5 15.75 4.5H4.5C3.83696 4.5 3.20107 4.76339 2.73223 5.23223C2.26339 5.70107 2 6.33696 2 7V17C2 17.663 2.26339 18.2989 2.73223 18.7678C3.20107 19.2366 3.83696 19.5 4.5 19.5H15.75C16.0815 19.5 16.3995 19.3683 16.6339 19.1339C16.8683 18.8995 17 18.5815 17 18.25V15.175L20.9375 17.3937C21.0385 17.4598 21.1551 17.498 21.2756 17.5047C21.3961 17.5113 21.5162 17.4862 21.6239 17.4317C21.7316 17.3772 21.823 17.2954 21.889 17.1944C21.9551 17.0933 21.9933 16.9767 22 16.8562V7.125C21.9923 7.00505 21.9533 6.88922 21.8869 6.78905C21.8204 6.68888 21.7289 6.60788 21.6214 6.55413C21.5139 6.50038 21.3941 6.47575 21.2742 6.4827C21.1542 6.48965 21.0381 6.52794 20.9375 6.59375Z" fill="#62718A"/>
</svg>
