<svg width="72" height="15" viewBox="0 0 72 15" fill="none" xmlns="http://www.w3.org/2000/svg">
<g clip-path="url(#clip0_2745_1012)">
<path d="M33.5193 7.94657C33.5283 7.25639 33.3483 6.57638 32.998 5.97676C32.6553 5.39166 32.1527 4.91101 31.5463 4.58848C30.9122 4.24977 30.1991 4.07666 29.4762 4.08592C28.3181 4.08592 27.3533 4.45422 26.5817 5.1908C25.8101 5.92739 25.4247 6.84557 25.4255 7.94534C25.4255 9.04716 25.8109 9.96534 26.5817 10.6999C27.3525 11.4344 28.3173 11.8027 29.4762 11.8048C30.234 11.8048 30.9077 11.645 31.4987 11.331C31.5498 11.3026 31.6091 11.2912 31.6674 11.2985C31.7258 11.3057 31.7802 11.3313 31.8224 11.3714L32.8957 12.4157C32.9461 12.4647 33.0143 12.4923 33.0855 12.4923C33.1566 12.4923 33.2249 12.4647 33.2753 12.4157L34.0632 11.6487C34.113 11.5999 34.1409 11.5339 34.1409 11.465C34.1409 11.3962 34.113 11.3302 34.0632 11.2814L33.0224 10.2689C32.9807 10.2288 32.9537 10.1762 32.9459 10.1195C32.9381 10.0627 32.9498 10.0051 32.9792 9.95554C33.3388 9.37199 33.5189 8.70233 33.5193 7.94657ZM29.4762 10.294C28.8024 10.294 28.2362 10.0696 27.7774 9.62071C27.3186 9.17183 27.0886 8.61316 27.0873 7.94473C27.0873 7.27507 27.3173 6.71641 27.7774 6.26874C28.2374 5.82108 28.8058 5.59664 29.4824 5.59541C30.1591 5.59541 30.7237 5.81986 31.1762 6.26874C31.6287 6.71763 31.8567 7.27691 31.86 7.94657C31.8647 8.3681 31.7566 8.78353 31.5463 9.15183C31.348 9.50384 31.053 9.79489 30.6944 9.99227C30.3226 10.1957 29.9024 10.2998 29.4762 10.294V10.294Z" fill="#505866"/>
<path d="M39.827 8.79243C39.827 9.24418 39.6878 9.60737 39.4092 9.88201C39.1307 10.1566 38.7702 10.294 38.3277 10.294C37.8886 10.294 37.5285 10.1562 37.2525 9.88201C36.9765 9.60778 36.8397 9.24418 36.8397 8.79243V4.50759C36.8397 4.47322 36.8328 4.43918 36.8193 4.40743C36.8058 4.37568 36.786 4.34684 36.761 4.32256C36.7361 4.29828 36.7065 4.27904 36.6739 4.26594C36.6413 4.25284 36.6064 4.24614 36.5712 4.24622H35.4539C35.4187 4.24606 35.3837 4.2527 35.351 4.26576C35.3184 4.27883 35.2887 4.29805 35.2637 4.32234C35.2387 4.34663 35.2189 4.37549 35.2053 4.40728C35.1918 4.43908 35.1848 4.47317 35.1848 4.50759V8.86834C35.1848 9.72898 35.4818 10.4339 36.0756 10.9832C36.6695 11.5325 37.4189 11.8075 38.324 11.8083C39.2286 11.8083 39.978 11.5333 40.5723 10.9832C41.1666 10.4331 41.4635 9.72816 41.4631 8.86834V4.50759C41.4631 4.47322 41.4562 4.43918 41.4427 4.40743C41.4292 4.37568 41.4094 4.34684 41.3844 4.32256C41.3595 4.29828 41.3299 4.27904 41.2973 4.26594C41.2647 4.25284 41.2298 4.24614 41.1946 4.24622H40.0918C40.0213 4.24702 39.9539 4.27492 39.9044 4.32385C39.8548 4.37278 39.827 4.4388 39.827 4.50759V8.79243Z" fill="#505866"/>
<path d="M43.8456 11.648H44.9598C44.9951 11.6481 45.03 11.6413 45.0626 11.6282C45.0952 11.6151 45.1249 11.5958 45.1498 11.5714C45.1748 11.5471 45.1945 11.5182 45.208 11.4863C45.2215 11.4545 45.2284 11.4204 45.2283 11.386V4.50759C45.2283 4.47322 45.2213 4.43918 45.2078 4.40742C45.1943 4.37567 45.1745 4.34683 45.1496 4.32255C45.1247 4.29828 45.0951 4.27903 45.0625 4.26594C45.0299 4.25284 44.995 4.24614 44.9598 4.24622H43.8456C43.8104 4.24614 43.7755 4.25284 43.7429 4.26594C43.7104 4.27903 43.6808 4.29828 43.6558 4.32255C43.6309 4.34683 43.6111 4.37567 43.5976 4.40742C43.5841 4.43918 43.5771 4.47322 43.5771 4.50759V11.3872C43.5772 11.4215 43.5842 11.4555 43.5978 11.4872C43.6113 11.5189 43.6311 11.5476 43.656 11.5719C43.681 11.5961 43.7106 11.6152 43.7431 11.6283C43.7756 11.6414 43.8105 11.6481 43.8456 11.648V11.648Z" fill="#505866"/>
<path d="M51.0197 9.01473H53.0322C52.9351 9.26544 52.7811 9.49145 52.5818 9.67581C52.3677 9.87375 52.1143 10.0267 51.8371 10.1251C51.5417 10.2322 51.2288 10.2859 50.9137 10.2836C50.4962 10.2926 50.0841 10.1902 49.7218 9.98738C49.3796 9.79215 49.1024 9.50482 48.9232 9.1598C48.7301 8.78643 48.6332 8.37271 48.6409 7.95453C48.6409 7.26325 48.85 6.69907 49.2683 6.26202C49.6865 5.82497 50.235 5.60746 50.9137 5.6095C51.2199 5.60739 51.5238 5.66137 51.8095 5.76865C52.0789 5.86943 52.3246 6.02248 52.5316 6.21856C52.6979 6.3779 52.8344 6.56433 52.935 6.76947C52.9571 6.81242 52.9911 6.84848 53.0331 6.87358C53.0751 6.89867 53.1235 6.9118 53.1727 6.91148H54.3477C54.3896 6.91171 54.4309 6.90239 54.4684 6.88425C54.506 6.86611 54.5386 6.83965 54.5638 6.80699C54.589 6.77434 54.606 6.73639 54.6134 6.69618C54.6209 6.65598 54.6186 6.61462 54.6068 6.57543C54.392 5.89365 53.958 5.29743 53.3691 4.87496C52.6581 4.34976 51.8292 4.08716 50.8824 4.08716C49.7594 4.08716 48.8289 4.45443 48.0908 5.18897C47.3526 5.92352 46.9833 6.84741 46.9829 7.96065C46.9829 9.06737 47.3574 9.98555 48.1064 10.7152C48.8555 11.4448 49.7912 11.8097 50.9137 11.8097C52.0504 11.8097 52.981 11.4308 53.7053 10.673C54.3694 9.97637 54.7318 9.10573 54.7925 8.06104C54.795 8.02517 54.7899 7.98918 54.7776 7.95529C54.7652 7.9214 54.7459 7.89033 54.7208 7.86401C54.6957 7.83768 54.6654 7.81665 54.6316 7.80222C54.5979 7.78778 54.5615 7.78025 54.5246 7.78008H51.0185C50.9474 7.78008 50.8792 7.8076 50.8289 7.8566C50.7785 7.9056 50.7502 7.97208 50.75 8.04145V8.75641C50.7513 8.82537 50.7803 8.89106 50.8308 8.93937C50.8812 8.98768 50.9491 9.01474 51.0197 9.01473V9.01473Z" fill="#505866"/>
<path d="M62.1987 4.58848C61.5645 4.2497 60.8514 4.07658 60.1285 4.08593C58.9705 4.08593 58.0056 4.45422 57.234 5.19081C56.4624 5.92739 56.077 6.84557 56.0779 7.94535C56.0779 9.04716 56.4633 9.96534 57.234 10.6999C58.0048 11.4344 58.9696 11.8027 60.1285 11.8048C61.287 11.8048 62.2501 11.4375 63.018 10.7029C63.7858 9.9684 64.1697 9.04818 64.1697 7.94229C64.1792 7.25128 63.9992 6.57037 63.6484 5.97004C63.3048 5.38802 62.8031 4.90992 62.1987 4.58848V4.58848ZM62.1987 9.15184C61.9997 9.50417 61.7037 9.79525 61.3443 9.99228C60.9727 10.1951 60.553 10.2988 60.1273 10.2928C59.4535 10.2928 58.887 10.0684 58.4278 9.6195C57.9686 9.17061 57.7386 8.61195 57.7378 7.94351C57.7378 7.27385 57.9678 6.71519 58.4278 6.26753C58.8879 5.81986 59.4564 5.59542 60.1335 5.59419C60.8102 5.59419 61.3748 5.81864 61.8273 6.26753C62.2798 6.71641 62.5061 7.27508 62.5061 7.94351C62.5131 8.36552 62.4072 8.78202 62.1987 9.15184V9.15184Z" fill="#505866"/>
<path d="M70.3934 4.50772V8.76195L67.1395 4.35469C67.1147 4.321 67.082 4.29355 67.0441 4.27461C67.0063 4.25566 66.9644 4.24577 66.9218 4.24573H65.8397C65.8044 4.24565 65.7695 4.25234 65.7369 4.26544C65.7043 4.27853 65.6746 4.29776 65.6496 4.32203C65.6246 4.3463 65.6048 4.37514 65.5912 4.40689C65.5777 4.43865 65.5706 4.4727 65.5706 4.5071V11.3873C65.5706 11.4218 65.5775 11.4558 65.5911 11.4876C65.6046 11.5194 65.6244 11.5483 65.6495 11.5726C65.6745 11.5969 65.7041 11.6161 65.7368 11.6292C65.7694 11.6422 65.8044 11.6489 65.8397 11.6487H66.9218C66.957 11.6488 66.9919 11.6421 67.0244 11.629C67.057 11.6159 67.0865 11.5966 67.1114 11.5723C67.1363 11.548 67.156 11.5192 67.1695 11.4874C67.1829 11.4557 67.1898 11.4217 67.1897 11.3873V7.0272L70.5521 11.541C70.577 11.5744 70.6097 11.6016 70.6474 11.6203C70.6851 11.639 70.7269 11.6488 70.7692 11.6487H71.7321C71.7674 11.6489 71.8023 11.6422 71.8349 11.6291C71.8675 11.6161 71.8972 11.5968 71.9221 11.5725C71.9471 11.5483 71.9669 11.5194 71.9804 11.4876C71.9938 11.4558 72.0007 11.4217 72.0006 11.3873V4.50772C72.0006 4.47334 71.9937 4.4393 71.9802 4.40755C71.9667 4.3758 71.9469 4.34696 71.922 4.32268C71.897 4.2984 71.8674 4.27916 71.8348 4.26606C71.8023 4.25296 71.7674 4.24626 71.7321 4.24634H70.6613C70.5903 4.24634 70.5221 4.27388 70.4719 4.3229C70.4217 4.37191 70.3934 4.43839 70.3934 4.50772Z" fill="#505866"/>
<path d="M12.7033 0H8.12386C3.64413 0 0 3.36666 0 7.50031C0 11.634 3.64413 15 8.12386 15H15.4636V10.0492H8.12386C6.60134 10.0492 5.36363 8.90573 5.36363 7.50031C5.36363 6.09488 6.60197 4.95083 8.12386 4.95083H12.7033C14.2265 4.95083 15.4636 6.09427 15.4636 7.50031V10.0492H20.8259V7.50031C20.8272 3.36421 17.1837 0 12.7033 0Z" fill="#505866"/>
</g>
<defs>
<clipPath id="clip0_2745_1012">
<rect width="72" height="15" fill="white"/>
</clipPath>
</defs>
</svg>
