<svg width="136" height="20" viewBox="0 0 136 20" fill="none" xmlns="http://www.w3.org/2000/svg">
<path fill-rule="evenodd" clip-rule="evenodd" d="M10.176 13.4859L5.32626 17.2327L8.7052 19.836C8.98921 20.0548 9.3967 20.0548 9.68071 19.836L17.9636 13.4663L14.0765 10.4799L10.176 13.4859ZM8.59713 13.7843L7.09109 12.6236L7.08922 12.6273L-0.000296431 7.24639C-0.000304061 7.24788 -0.000309783 7.24937 -0.000309783 7.25087L-0.000309844 7.94656L-0.000311752 7.94778L-0.000310203 12.0524L-0.000312171 12.7493C-0.000312193 12.9924 0.110821 13.2112 0.296046 13.357L4.71351 16.7606L8.59713 13.7843ZM0.370895 6.58542L4.2502 9.56586L8.70521 6.13255C8.74509 6.10182 8.78741 6.07541 8.83148 6.05331L13.0925 2.78784L9.68072 0.164115C9.39671 -0.0546864 8.98922 -0.0546864 8.70521 0.164115L0.370895 6.58542ZM13.713 3.265L9.82555 6.24417L14.6991 10.0001L14.6961 10.0024L18.3825 12.8347C18.385 12.8103 18.3862 12.7859 18.3862 12.7614L18.3862 12.0524L18.3862 7.94778L18.3862 7.23871C18.3862 7.00776 18.2751 6.7768 18.0899 6.63093L13.713 3.265Z" fill="#62718A"/>
<g opacity="0.9">
<path d="M27.3438 4.14915H25.4368L28.8939 9.60369L25.4155 15.0582H27.3331L29.9539 10.8501H30.0391L32.6598 15.0582H34.5775L31.1577 9.60369L34.5562 4.14915H32.6492L30.0391 8.41584H29.9539L27.3438 4.14915Z" fill="#62718A"/>
<path d="M37.5388 15.0582H39.1847V11.223H41.422C43.9521 11.223 45.2039 9.69425 45.2039 7.68075C45.2039 5.67259 43.9628 4.14915 41.4273 4.14915H37.5388V15.0582ZM39.1847 9.82742V5.56072H41.2515C42.8815 5.56072 43.5473 6.44496 43.5473 7.68075C43.5473 8.91655 42.8815 9.82742 41.2728 9.82742H39.1847Z" fill="#62718A"/>
<path d="M48.8923 15.1594C49.4729 15.1594 49.9577 14.6854 49.9577 14.0941C49.9577 13.5135 49.4729 13.0341 48.8923 13.0341C48.3064 13.0341 47.827 13.5135 47.827 14.0941C47.827 14.6854 48.3064 15.1594 48.8923 15.1594Z" fill="#62718A"/>
<path d="M62.3739 4.14915H60.7439V12.1605H60.6427L55.0923 4.14915H53.5689V15.0582H55.2148V7.05753H55.316L60.8611 15.0582H62.3739V4.14915Z" fill="#62718A"/>
<path d="M66.1249 15.0582H73.0283V13.6413H67.7709V10.3015H72.6075V8.88992H67.7709V5.56605H72.9644V4.14915H66.1249V15.0582Z" fill="#62718A"/>
<path d="M75.975 5.56605H79.3734V15.0582H81.0141V5.56605H84.4178V4.14915H75.975V5.56605Z" fill="#62718A"/>
<path d="M89.7695 15.0582H91.4315L93.7273 6.88707H93.8125L96.1083 15.0582H97.7649L100.796 4.14915H99.0593L96.9393 12.6026H96.8381L94.6275 4.14915H92.9123L90.7017 12.5973H90.6005L88.4751 4.14915H86.744L89.7695 15.0582Z" fill="#62718A"/>
<path d="M112.581 9.60369C112.581 6.1147 110.493 4 107.67 4C104.836 4 102.753 6.1147 102.753 9.60369C102.753 13.0874 104.836 15.2074 107.67 15.2074C110.493 15.2074 112.581 13.0927 112.581 9.60369ZM110.951 9.60369C110.951 12.2617 109.545 13.7053 107.67 13.7053C105.789 13.7053 104.388 12.2617 104.388 9.60369C104.388 6.94567 105.789 5.50213 107.67 5.50213C109.545 5.50213 110.951 6.94567 110.951 9.60369Z" fill="#62718A"/>
<path d="M115.983 15.0582H117.629V10.93H119.866C119.903 10.93 119.935 10.93 119.973 10.93L122.189 15.0582H124.064L121.645 10.6424C122.982 10.147 123.648 9.03374 123.648 7.56889C123.648 5.56072 122.402 4.14915 119.871 4.14915H115.983V15.0582ZM117.629 9.51314V5.56072H119.696C121.32 5.56072 121.991 6.3331 121.991 7.56889C121.991 8.79936 121.32 9.51314 119.717 9.51314H117.629Z" fill="#62718A"/>
<path d="M127.001 15.0582H128.647V11.6651L129.936 10.1843L133.462 15.0582H135.444L131.028 9.06037L135.428 4.14915H133.356L128.78 9.35867H128.647V4.14915H127.001V15.0582Z" fill="#62718A"/>
</g>
</svg>
