<svg width="28" height="28" viewBox="0 0 28 28" fill="none" xmlns="http://www.w3.org/2000/svg">
<circle cx="14" cy="14" r="14" fill="#0033AD"/>
<path fill-rule="evenodd" clip-rule="evenodd" d="M13.9539 7.09371C14.0496 7.09916 14.1448 7.0761 14.2274 7.02744C14.31 6.97877 14.3764 6.9067 14.418 6.82033C14.4597 6.73396 14.4748 6.63718 14.4614 6.54222C14.4481 6.44727 14.4069 6.3584 14.343 6.28688C14.2791 6.21535 14.1955 6.16438 14.1026 6.1404C14.0098 6.11642 13.9119 6.12052 13.8214 6.15217C13.7309 6.18382 13.6518 6.24161 13.5941 6.31822C13.5365 6.39484 13.5028 6.48683 13.4974 6.58257C13.4902 6.71086 13.5343 6.83677 13.6198 6.93261C13.7054 7.02846 13.8256 7.0864 13.9539 7.09371ZM18.1701 7.33279C18.0947 7.33347 18.0208 7.31177 17.9578 7.27044C17.8733 7.21507 17.8143 7.12845 17.7936 7.0296C17.773 6.93074 17.7924 6.82773 17.8477 6.7432C17.8889 6.68009 17.948 6.63063 18.0173 6.60108C18.0867 6.57154 18.1633 6.56323 18.2374 6.57721C18.3115 6.5912 18.3797 6.62684 18.4336 6.67964C18.4874 6.73243 18.5243 6.80001 18.5398 6.87381C18.5552 6.94762 18.5483 7.02434 18.5201 7.09426C18.4919 7.16418 18.4436 7.22417 18.3813 7.26663C18.319 7.30909 18.2455 7.33211 18.1701 7.33279ZM9.96853 7.313C10.0354 7.27865 10.0907 7.22528 10.1273 7.1596C10.1639 7.09393 10.1803 7.01889 10.1744 6.94392C10.1684 6.86896 10.1405 6.79743 10.094 6.73833C10.0475 6.67923 9.98452 6.63521 9.91305 6.61181C9.84159 6.58841 9.7648 6.58667 9.69236 6.60681C9.61991 6.62695 9.55504 6.66808 9.50591 6.72501C9.45679 6.78194 9.4256 6.85213 9.41628 6.92675C9.40696 7.00136 9.41992 7.07707 9.45353 7.14433C9.47613 7.18936 9.50741 7.22947 9.54558 7.26235C9.58374 7.29522 9.62804 7.32022 9.67591 7.3359C9.72379 7.35158 9.77429 7.35763 9.82451 7.3537C9.87474 7.34977 9.92368 7.33593 9.96853 7.313ZM10.3424 15.0006C10.1343 14.7669 10.0275 14.4601 10.0455 14.1477L10.0422 14.1484C10.0554 13.9187 10.1356 13.6979 10.2728 13.5132C10.4101 13.3286 10.5984 13.1882 10.8145 13.1093C11.0306 13.0304 11.2651 13.0166 11.489 13.0694C11.7129 13.1223 11.9165 13.2395 12.0745 13.4067C12.2326 13.5739 12.3382 13.7837 12.3783 14.0103C12.4185 14.2368 12.3915 14.4701 12.3006 14.6815C12.2097 14.8928 12.0589 15.0729 11.8668 15.1996C11.6747 15.3262 11.4497 15.3938 11.2197 15.394H11.1553C10.8429 15.3758 10.5505 15.2343 10.3424 15.0006ZM5.43716 13.9009C5.50195 13.8626 5.57661 13.8445 5.65172 13.8487C5.70168 13.8514 5.75062 13.864 5.79571 13.8856C5.8408 13.9073 5.88117 13.9377 5.91449 13.975C5.94781 14.0123 5.97343 14.0559 5.98987 14.1031C6.00631 14.1504 6.01325 14.2004 6.01029 14.2504C6.00597 14.3255 5.97949 14.3976 5.93419 14.4577C5.88889 14.5177 5.8268 14.563 5.75578 14.5878C5.68475 14.6126 5.60797 14.6157 5.53515 14.5969C5.46232 14.578 5.39672 14.538 5.34663 14.4819C5.29654 14.4258 5.2642 14.3561 5.25372 14.2816C5.24323 14.2071 5.25506 14.1312 5.28771 14.0634C5.32036 13.9956 5.37237 13.9391 5.43716 13.9009ZM11.4132 9.15811C11.3559 9.25939 11.2699 9.34142 11.166 9.39382C11.097 9.42864 11.0218 9.44951 10.9447 9.45525C10.8676 9.46099 10.7902 9.45148 10.7167 9.42727C10.6433 9.40306 10.5754 9.36461 10.5169 9.31414C10.4583 9.26367 10.4103 9.20215 10.3755 9.1331C10.3232 9.02918 10.3028 8.91207 10.3171 8.79659C10.3313 8.68111 10.3794 8.57243 10.4554 8.4843C10.5314 8.39617 10.6317 8.33255 10.7439 8.30147C10.856 8.27039 10.9748 8.27325 11.0853 8.3097C11.1958 8.34614 11.293 8.41453 11.3647 8.50621C11.4363 8.5979 11.4792 8.70877 11.4878 8.8248C11.4964 8.94083 11.4705 9.05682 11.4132 9.15811ZM7.14346 10.8307C7.22359 10.8834 7.31755 10.9112 7.41345 10.9105C7.50935 10.9097 7.60288 10.8806 7.68221 10.8267C7.76154 10.7728 7.8231 10.6966 7.8591 10.6077C7.8951 10.5188 7.90393 10.4212 7.88446 10.3273C7.865 10.2334 7.81811 10.1474 7.74974 10.0801C7.68137 10.0129 7.59459 9.96743 7.50038 9.94951C7.40616 9.93159 7.30875 9.94202 7.22047 9.97948C7.13218 10.0169 7.05699 10.0797 7.00441 10.1599C6.93399 10.2674 6.90908 10.3983 6.93515 10.5241C6.96122 10.6499 7.03614 10.7602 7.14346 10.8307ZM7.52865 13.7149C7.62889 13.6558 7.74438 13.6278 7.86055 13.6343C8.01639 13.6433 8.16231 13.7138 8.26624 13.8302C8.37017 13.9467 8.42361 14.0997 8.41482 14.2555C8.40814 14.3717 8.36718 14.4833 8.29711 14.5762C8.22704 14.669 8.131 14.739 8.02114 14.7774C7.91128 14.8157 7.79253 14.8206 7.6799 14.7914C7.56727 14.7622 7.46581 14.7003 7.38836 14.6135C7.3109 14.5267 7.26092 14.4189 7.24473 14.3036C7.22854 14.1884 7.24687 14.071 7.29741 13.9662C7.34795 13.8614 7.42842 13.7739 7.52865 13.7149ZM7.20736 17.5926C7.12181 17.6359 7.051 17.7035 7.00388 17.787C6.95676 17.8704 6.93544 17.966 6.94263 18.0616C6.94981 18.1572 6.98517 18.2485 7.04424 18.324C7.10332 18.3995 7.18344 18.4558 7.27449 18.4857C7.36555 18.5157 7.46344 18.518 7.55579 18.4923C7.64815 18.4666 7.73082 18.4142 7.79336 18.3415C7.85591 18.2689 7.89551 18.1793 7.90716 18.0842C7.91881 17.989 7.902 17.8926 7.85884 17.807C7.83016 17.7501 7.79055 17.6995 7.74228 17.6579C7.69401 17.6163 7.63803 17.5847 7.57752 17.5648C7.51702 17.5449 7.45319 17.5371 7.38967 17.5419C7.32616 17.5466 7.2642 17.5639 7.20736 17.5926ZM9.87949 12.5335C9.74251 12.5347 9.60824 12.4953 9.49366 12.4202C9.4175 12.3704 9.35191 12.306 9.30065 12.2308C9.24938 12.1556 9.21346 12.0711 9.19492 11.982C9.17638 11.8929 9.1756 11.801 9.19262 11.7116C9.20964 11.6222 9.24412 11.537 9.29409 11.461C9.36922 11.3464 9.47662 11.2567 9.60272 11.2032C9.72883 11.1497 9.86797 11.1348 10.0026 11.1603C10.1371 11.1859 10.2611 11.2507 10.3588 11.3468C10.4565 11.4428 10.5236 11.5656 10.5515 11.6997C10.5794 11.8339 10.5669 11.9732 10.5156 12.1003C10.4643 12.2273 10.3765 12.3362 10.2633 12.4133C10.15 12.4905 10.0165 12.5323 9.87949 12.5335ZM16.7507 9.34831C16.8482 9.41194 16.9625 9.44522 17.0789 9.44395C17.1954 9.44267 17.3089 9.4069 17.405 9.34114C17.5012 9.27539 17.5757 9.1826 17.6191 9.07452C17.6625 8.96644 17.6729 8.84791 17.649 8.73392C17.625 8.61993 17.5678 8.5156 17.4846 8.4341C17.4014 8.35261 17.2959 8.29761 17.1814 8.27607C17.067 8.25453 16.9487 8.26742 16.8415 8.31309C16.7344 8.35876 16.6432 8.43517 16.5795 8.53267C16.537 8.59743 16.5078 8.66993 16.4934 8.74601C16.4791 8.82209 16.4799 8.90026 16.4958 8.97603C16.5117 9.0518 16.5424 9.12369 16.5861 9.18757C16.6299 9.25146 16.6858 9.30608 16.7507 9.34831ZM16.8431 13.0277C16.6886 13.0188 16.5338 13.0405 16.3877 13.0914C16.2416 13.1423 16.1069 13.2215 15.9914 13.3245C15.7581 13.5324 15.6169 13.8245 15.599 14.1366C15.5811 14.4486 15.6878 14.7549 15.8958 14.9882C16.1038 15.2215 16.3959 15.3627 16.7079 15.3806H16.7761C17.0034 15.3805 17.2258 15.3146 17.4165 15.191C17.6072 15.0673 17.7581 14.8911 17.8509 14.6836C17.9437 14.4761 17.9745 14.2462 17.9396 14.0216C17.9047 13.797 17.8056 13.5873 17.6542 13.4178C17.5517 13.3022 17.4271 13.2081 17.2879 13.1412C17.1486 13.0742 16.9974 13.0356 16.8431 13.0277ZM11.9837 12.8104C11.7976 12.6958 11.6472 12.5316 11.5494 12.3362C11.4595 12.1567 11.4169 11.9571 11.4258 11.7565C11.4346 11.5559 11.4945 11.3608 11.5999 11.1899C11.7053 11.0189 11.8526 10.8777 12.0279 10.7797C12.2031 10.6816 12.4005 10.63 12.6013 10.6296C12.8193 10.6286 13.0333 10.6883 13.2193 10.802C13.4053 10.9157 13.556 11.0789 13.6545 11.2734C13.7455 11.4531 13.7889 11.6532 13.7806 11.8544C13.7723 12.0557 13.7125 12.2515 13.607 12.4231C13.5015 12.5947 13.3538 12.7364 13.178 12.8347C13.0021 12.933 12.8041 12.9845 12.6026 12.9845C12.3841 12.9852 12.1698 12.9249 11.9837 12.8104ZM20.7917 10.8281C20.8772 10.7849 20.9481 10.7173 20.9953 10.6339C21.0424 10.5505 21.0638 10.4549 21.0567 10.3594C21.0496 10.2638 21.0143 10.1725 20.9553 10.0969C20.8963 10.0214 20.8162 9.96505 20.7252 9.93501C20.6342 9.90497 20.5363 9.90259 20.444 9.92816C20.3516 9.95373 20.2689 10.0061 20.2063 10.0787C20.1437 10.1512 20.104 10.2407 20.0922 10.3359C20.0804 10.431 20.0971 10.5275 20.1402 10.6131C20.1981 10.7279 20.2993 10.8151 20.4214 10.8554C20.5436 10.8957 20.6768 10.8859 20.7917 10.8281ZM17.5119 11.4795C17.5794 11.3603 17.6808 11.2638 17.8031 11.2021C17.8843 11.1611 17.9729 11.1366 18.0636 11.1298C18.1543 11.123 18.2455 11.1343 18.3319 11.1628C18.4183 11.1913 18.4982 11.2366 18.5671 11.296C18.636 11.3555 18.6925 11.4279 18.7333 11.5092C18.795 11.6316 18.8189 11.7695 18.8022 11.9054C18.7855 12.0414 18.7288 12.1694 18.6393 12.2731C18.5498 12.3769 18.4316 12.4518 18.2996 12.4883C18.1676 12.5249 18.0277 12.5215 17.8976 12.4786C17.7675 12.4356 17.653 12.3551 17.5687 12.2471C17.4844 12.1391 17.434 12.0085 17.4239 11.8719C17.4138 11.7353 17.4444 11.5987 17.5119 11.4795ZM14.3366 10.0494C14.2187 10.119 14.0827 10.1521 13.946 10.1444C13.7625 10.1339 13.5906 10.051 13.4682 9.91389C13.3458 9.77676 13.2828 9.59662 13.2932 9.4131C13.3011 9.27636 13.3493 9.14502 13.4317 9.03568C13.5142 8.92634 13.6273 8.8439 13.7566 8.79879C13.8859 8.75367 14.0257 8.7479 14.1583 8.78221C14.2909 8.81652 14.4103 8.88937 14.5015 8.99154C14.5927 9.09372 14.6516 9.22064 14.6707 9.35626C14.6898 9.49188 14.6682 9.63012 14.6088 9.7535C14.5493 9.87688 14.4546 9.97987 14.3366 10.0494ZM10.1991 17.2151C10.3214 17.1535 10.4227 17.0569 10.4902 16.9376C10.5576 16.8184 10.5882 16.6818 10.578 16.5451C10.5679 16.4085 10.5174 16.278 10.433 16.17C10.3486 16.0621 10.2341 15.9816 10.104 15.9387C9.97386 15.8958 9.83394 15.8925 9.70192 15.9292C9.56991 15.9659 9.45173 16.0408 9.36234 16.1447C9.27294 16.2485 9.21635 16.3765 9.19971 16.5125C9.18308 16.6485 9.20715 16.7864 9.26888 16.9087C9.35163 17.0727 9.49611 17.1971 9.67055 17.2545C9.84499 17.312 10.0351 17.2978 10.1991 17.2151ZM14.2054 11.8953C14.1841 11.634 14.2506 11.3732 14.3942 11.1539C14.5016 10.9902 14.6481 10.8559 14.8204 10.7629C14.9926 10.67 15.1854 10.6214 15.3811 10.6215C15.6432 10.6219 15.8978 10.7096 16.1044 10.8709C16.311 11.0321 16.458 11.2577 16.522 11.5119C16.586 11.7661 16.5634 12.0343 16.4578 12.2742C16.3522 12.5141 16.1696 12.712 15.9389 12.8364C15.7082 12.9609 15.4426 13.0048 15.1842 12.9613C14.9257 12.9179 14.6891 12.7894 14.5118 12.5963C14.3345 12.4032 14.2267 12.1565 14.2054 11.8953ZM16.4416 16.0816C16.3472 15.8945 16.2046 15.7359 16.0285 15.6222C15.8524 15.5086 15.6491 15.444 15.4397 15.4351C15.2302 15.4262 15.0222 15.4734 14.8371 15.5717C14.652 15.67 14.4964 15.816 14.3865 15.9945C14.2767 16.173 14.2164 16.3776 14.2119 16.5871C14.2075 16.7967 14.259 17.0037 14.3613 17.1867C14.4635 17.3696 14.6127 17.5221 14.7935 17.6281C14.9743 17.7342 15.1801 17.7902 15.3897 17.7902C15.5741 17.7889 15.7557 17.7448 15.9202 17.6614C16.1984 17.5206 16.4094 17.2753 16.5072 16.9792C16.6049 16.6831 16.5813 16.3604 16.4416 16.0816ZM18.1162 15.8878C18.2531 15.8866 18.3874 15.9262 18.5019 16.0014C18.6552 16.1024 18.7622 16.2601 18.7995 16.4399C18.8368 16.6196 18.8013 16.8069 18.7008 16.9605C18.6257 17.0751 18.5182 17.1647 18.3921 17.2182C18.2659 17.2716 18.1268 17.2865 17.9922 17.2609C17.8576 17.2352 17.7336 17.1703 17.636 17.0742C17.5383 16.9781 17.4714 16.8552 17.4435 16.7211C17.4157 16.5869 17.4283 16.4475 17.4797 16.3205C17.5311 16.1936 17.619 16.0847 17.7323 16.0076C17.8456 15.9306 17.9792 15.8889 18.1162 15.8878ZM20.757 14.2306C20.7636 14.1145 20.7355 13.999 20.6765 13.8987C20.6174 13.7985 20.5299 13.718 20.4251 13.6675C20.3203 13.617 20.2029 13.5986 20.0877 13.6148C19.9725 13.631 19.8646 13.681 19.7778 13.7584C19.691 13.8359 19.6291 13.9374 19.5999 14.05C19.5708 14.1626 19.5757 14.2814 19.614 14.3912C19.6523 14.5011 19.7223 14.5971 19.8152 14.6672C19.9081 14.7373 20.0196 14.7782 20.1358 14.7849C20.2916 14.7937 20.4446 14.7402 20.5611 14.6363C20.6776 14.5324 20.748 14.3865 20.757 14.2306ZM22.1764 13.8642C22.2413 13.826 22.3162 13.8079 22.3914 13.8123C22.4923 13.8182 22.5866 13.8639 22.6538 13.9394C22.7211 14.0148 22.7556 14.1137 22.75 14.2146C22.7457 14.2899 22.7191 14.3621 22.6737 14.4223C22.6283 14.4825 22.5661 14.5278 22.4949 14.5526C22.4237 14.5774 22.3468 14.5806 22.2738 14.5616C22.2009 14.5427 22.1352 14.5026 22.085 14.4463C22.0349 14.39 22.0025 14.3201 21.9921 14.2455C21.9817 14.1708 21.9936 14.0948 22.0264 14.0269C22.0592 13.959 22.1114 13.9024 22.1764 13.8642ZM20.8561 17.5894C20.7759 17.5368 20.682 17.5093 20.5861 17.5101C20.4902 17.511 20.3968 17.5403 20.3176 17.5943C20.2384 17.6482 20.1769 17.7245 20.141 17.8134C20.1051 17.9022 20.0964 17.9998 20.1159 18.0936C20.1354 18.1875 20.1824 18.2734 20.2507 18.3406C20.3191 18.4078 20.4058 18.4532 20.5 18.4711C20.5942 18.489 20.6916 18.4786 20.7798 18.4411C20.868 18.4037 20.9432 18.3409 20.9958 18.2608C21.0307 18.2075 21.0548 18.1479 21.0667 18.0854C21.0786 18.0228 21.0781 17.9585 21.0651 17.8961C21.0521 17.8338 21.027 17.7746 20.9911 17.722C20.9553 17.6693 20.9094 17.6243 20.8561 17.5894ZM9.83079 21.0871C9.90615 21.0865 9.98001 21.1082 10.043 21.1496C10.0849 21.177 10.1209 21.2125 10.1491 21.2539C10.1772 21.2953 10.1969 21.3418 10.2071 21.3908C10.2173 21.4399 10.2177 21.4904 10.2083 21.5396C10.1989 21.5888 10.1799 21.6356 10.1525 21.6774C10.1111 21.7404 10.0519 21.7897 9.98255 21.8191C9.91315 21.8485 9.83659 21.8567 9.76256 21.8426C9.68853 21.8284 9.62034 21.7927 9.56662 21.7398C9.51291 21.687 9.47607 21.6194 9.46077 21.5456C9.44547 21.4718 9.4524 21.3951 9.48067 21.3252C9.50894 21.2554 9.5573 21.1955 9.61962 21.1531C9.68194 21.1107 9.75542 21.0877 9.83079 21.0871ZM18.0255 21.1078C17.9582 21.1418 17.9025 21.1949 17.8654 21.2605C17.8283 21.3261 17.8114 21.4013 17.817 21.4764C17.8226 21.5516 17.8504 21.6234 17.8968 21.6828C17.9432 21.7422 18.0062 21.7865 18.0778 21.8101C18.1494 21.8337 18.2264 21.8355 18.299 21.8154C18.3716 21.7952 18.4367 21.754 18.4859 21.6969C18.535 21.6397 18.5662 21.5693 18.5754 21.4945C18.5845 21.4197 18.5713 21.3438 18.5373 21.2765C18.5149 21.2318 18.4838 21.1919 18.4459 21.1592C18.408 21.1265 18.364 21.1016 18.3164 21.086C18.2689 21.0703 18.2187 21.0642 18.1688 21.0679C18.1189 21.0717 18.0702 21.0852 18.0255 21.1078ZM13.789 16.5204C13.8103 16.7817 13.7439 17.0426 13.6002 17.2618C13.4934 17.4259 13.3471 17.5605 13.1748 17.6535C13.0026 17.7465 12.8097 17.7949 12.614 17.7942C12.3518 17.794 12.0972 17.7064 11.8905 17.5452C11.6838 17.384 11.5367 17.1585 11.4726 16.9043C11.4084 16.6501 11.4309 16.3818 11.5365 16.1419C11.642 15.9019 11.8246 15.704 12.0552 15.5795C12.2859 15.455 12.5515 15.4109 12.8101 15.4544C13.0686 15.4978 13.3052 15.6262 13.4825 15.8193C13.6599 16.0124 13.7677 16.2591 13.789 16.5204ZM11.2464 19.0705C11.1491 19.0068 11.035 18.9734 10.9187 18.9746C10.8023 18.9757 10.6889 19.0113 10.5928 19.0768C10.4967 19.1424 10.4222 19.235 10.3786 19.3429C10.3351 19.4508 10.3246 19.5691 10.3483 19.683C10.3721 19.7969 10.4291 19.9012 10.5121 19.9828C10.5951 20.0643 10.7004 20.1194 10.8147 20.141C10.929 20.1627 11.0472 20.15 11.1543 20.1045C11.2614 20.059 11.3526 19.9828 11.4164 19.8855C11.5018 19.7549 11.5319 19.5957 11.5001 19.4429C11.4682 19.2901 11.377 19.1561 11.2464 19.0705ZM13.7233 21.3911C13.8059 21.3425 13.9011 21.3194 13.9968 21.3249C14.0604 21.3285 14.1226 21.3446 14.18 21.3723C14.2373 21.3999 14.2887 21.4387 14.331 21.4862C14.3734 21.5337 14.406 21.5891 14.427 21.6493C14.448 21.7094 14.4569 21.7731 14.4532 21.8366C14.4477 21.9323 14.414 22.0243 14.3562 22.1008C14.2985 22.1773 14.2194 22.235 14.1288 22.2666C14.0383 22.2981 13.9405 22.3021 13.8477 22.2781C13.7549 22.254 13.6713 22.203 13.6075 22.1315C13.5437 22.0599 13.5025 21.9711 13.4892 21.8761C13.4759 21.7812 13.491 21.6845 13.5327 21.5981C13.5744 21.5118 13.6407 21.4397 13.7233 21.3911ZM13.9984 18.275C13.8616 18.2667 13.7253 18.2992 13.6069 18.3684C13.4886 18.4375 13.3934 18.5403 13.3334 18.6636C13.2735 18.7869 13.2515 18.9253 13.2702 19.0611C13.289 19.1969 13.3476 19.3241 13.4387 19.4266C13.5298 19.5291 13.6493 19.6022 13.782 19.6368C13.9147 19.6713 14.0547 19.6657 14.1842 19.6206C14.3136 19.5755 14.4269 19.493 14.5094 19.3835C14.592 19.2741 14.6402 19.1426 14.648 19.0057C14.6585 18.8227 14.5961 18.643 14.4743 18.506C14.3525 18.369 14.1814 18.286 13.9984 18.275ZM16.584 19.2613C16.6411 19.1597 16.7271 19.0773 16.831 19.0246C16.8999 18.9894 16.975 18.9682 17.052 18.9622C17.1291 18.9561 17.2065 18.9653 17.28 18.9892C17.3535 19.0131 17.4216 19.0513 17.4803 19.1016C17.539 19.1518 17.5872 19.2131 17.6222 19.2821C17.6752 19.3859 17.6962 19.5031 17.6826 19.6188C17.6689 19.7346 17.6212 19.8437 17.5455 19.9323C17.4698 20.021 17.3695 20.0852 17.2573 20.1168C17.1452 20.1484 17.0261 20.146 16.9153 20.11C16.8044 20.0739 16.7068 20.0057 16.6347 19.9141C16.5626 19.8225 16.5193 19.7116 16.5103 19.5954C16.5013 19.4792 16.5269 19.3629 16.584 19.2613Z" fill="white"/>
<circle cx="14" cy="14" r="14" fill="black"/>
<g clip-path="url(#clip0_17_1058)">
<path d="M7.98186 21L10.2677 17.0556L12.5535 13.125L14.8254 9.18056L15.2018 8.55556L15.369 9.18056L16.0659 11.7778L15.2854 13.125L12.9996 17.0556L10.7277 21H13.4595L15.7454 17.0556L16.9301 15.0139L17.4876 17.0556L18.5469 21H21L19.9407 17.0556L18.8814 13.125L18.6027 12.1111L20.3031 9.18056H17.8221L17.7385 8.88889L16.8743 5.66667L16.7628 5.25H14.3794L14.3237 5.33333L12.0936 9.18056L9.80774 13.125L7.53584 17.0556L5.25 21H7.98186Z" fill="white"/>
</g>
<defs>
<clipPath id="clip0_17_1058">
<rect width="16.625" height="16.625" fill="white" transform="translate(5.25 4.375)"/>
</clipPath>
</defs>
</svg>
