<svg width="28" height="28" viewBox="0 0 28 28" fill="none" xmlns="http://www.w3.org/2000/svg">
<circle cx="14" cy="14" r="14" fill="#F3BA2F"/>
<g clip-path="url(#clip0_7_799)">
<path d="M10.6031 12.6033L14.0019 9.20585L17.4021 12.6061L19.3787 10.6281L14.0019 5.25L8.62518 10.6267L10.6031 12.6033Z" fill="white"/>
<path d="M5.25 14.0007L7.22654 12.0228L9.20447 14.0007L7.22654 15.9772L5.25 14.0007Z" fill="white"/>
<path d="M10.6031 15.3965L14.0019 18.7953L17.4021 15.3951L19.3801 17.3703L14.0033 22.7484L8.62518 17.3744L10.6031 15.3965Z" fill="white"/>
<path d="M18.7956 14.0007L20.7722 12.0228L22.7501 13.9993L20.7722 15.9786L18.7956 14.0007Z" fill="white"/>
<path d="M16.0078 13.999L14.0023 11.992L12.5192 13.4751L12.3478 13.6451L11.9967 13.9962L14.0023 16.0004L16.0078 14.0003V13.999Z" fill="white"/>
</g>
<defs>
<clipPath id="clip0_7_799">
<rect width="17.5" height="17.5" fill="white" transform="translate(5.25 5.25)"/>
</clipPath>
</defs>
</svg>
