<svg width="28" height="28" viewBox="0 0 28 28" fill="none" xmlns="http://www.w3.org/2000/svg">
<circle cx="14" cy="14" r="14" fill="white"/>
<path d="M11.4008 9.7761C12.1799 9.26915 13.0415 9.01192 13.9855 9.01192C14.9195 9.00943 15.781 9.26665 16.5727 9.78359L18.2309 8.12538C16.9423 7.13644 15.5263 6.63948 13.9855 6.64198C12.4371 6.64447 11.0237 7.13644 9.74255 8.12288L11.4008 9.7761Z" fill="#0D0234"/>
<path d="M9.76752 16.5888C9.24059 15.7897 8.97837 14.9256 8.98087 13.9991C8.98337 13.0577 9.24309 12.1961 9.76253 11.4119L8.10931 9.75623C7.13786 11.0224 6.65088 12.4358 6.64839 13.9991C6.64589 15.5475 7.13536 16.9609 8.1143 18.2445L9.76752 16.5888Z" fill="#0D0234"/>
<path d="M16.5875 18.2344C15.8008 18.7638 14.9393 19.0335 14.0028 19.041C13.0513 19.0485 12.1797 18.7788 11.3881 18.2394L9.73987 19.8876C11.021 20.884 12.4445 21.376 14.0128 21.3635C15.5636 21.351 16.9721 20.859 18.2382 19.8851L16.5875 18.2344Z" fill="#0D0234"/>
<path d="M18.2184 11.4092C18.7504 12.2109 19.0101 13.0899 19.0001 14.0464C18.9901 14.9679 18.7279 15.817 18.2159 16.5936L19.8716 18.2493C20.8456 16.9807 21.34 15.5722 21.3525 14.0264C21.365 12.4581 20.873 11.0347 19.8766 9.75354L18.2184 11.4092Z" fill="#0D0234"/>
<path d="M19.8447 20.0074C19.8198 19.9825 19.8073 19.9525 19.8073 19.92C19.8073 19.8876 19.8198 19.8576 19.8447 19.8326C19.8922 19.7852 19.9696 19.7852 20.0195 19.8326C20.0445 19.8576 20.057 19.8876 20.057 19.92C20.057 19.9525 20.0445 19.9825 20.0195 20.0074C19.9946 20.0324 19.9646 20.0424 19.9321 20.0424C19.8997 20.0424 19.8697 20.0299 19.8447 20.0074ZM19.4951 19.6578C19.4701 19.6329 19.4601 19.6029 19.4601 19.5704C19.4601 19.538 19.4726 19.508 19.4951 19.483C19.5426 19.4356 19.6225 19.4356 19.6699 19.483C19.6949 19.508 19.7049 19.538 19.7049 19.5704C19.7049 19.6029 19.6924 19.6329 19.6699 19.6578C19.6449 19.6828 19.615 19.6928 19.5825 19.6928C19.5525 19.6928 19.5201 19.6828 19.4951 19.6578ZM19.148 19.3082C19.123 19.2832 19.1105 19.2533 19.1105 19.2208C19.1105 19.1883 19.123 19.1584 19.148 19.1334C19.1954 19.0859 19.2753 19.0859 19.3228 19.1334C19.3478 19.1584 19.3578 19.1883 19.3578 19.2208C19.3578 19.2533 19.3453 19.2832 19.3228 19.3082C19.2978 19.3332 19.2678 19.3457 19.2354 19.3457C19.2029 19.3457 19.1705 19.3332 19.148 19.3082ZM18.7984 18.9586C18.7734 18.9336 18.7634 18.9036 18.7634 18.8712C18.7634 18.8387 18.7759 18.8087 18.7984 18.7838C18.8458 18.7363 18.9257 18.7363 18.9732 18.7838C18.9981 18.8087 19.0081 18.8387 19.0081 18.8712C19.0081 18.9036 18.9956 18.9336 18.9732 18.9586C18.9482 18.9836 18.9182 18.996 18.8858 18.996C18.8533 18.996 18.8233 18.9836 18.7984 18.9586ZM18.4487 18.6115C18.4238 18.5865 18.4113 18.5565 18.4113 18.5241C18.4113 18.4916 18.4238 18.4616 18.4487 18.4366C18.4962 18.3892 18.5736 18.3892 18.6235 18.4366C18.6485 18.4616 18.6585 18.4916 18.6585 18.5241C18.6585 18.5565 18.646 18.5865 18.6235 18.6115C18.5986 18.6364 18.5686 18.6464 18.5361 18.6464C18.5062 18.6464 18.4737 18.6339 18.4487 18.6115ZM18.1016 18.2618C18.0766 18.2369 18.0642 18.2069 18.0642 18.1744C18.0642 18.142 18.0766 18.112 18.1016 18.087C18.1491 18.0396 18.2265 18.0396 18.2764 18.087C18.3014 18.112 18.3139 18.142 18.3139 18.1744C18.3139 18.2069 18.3014 18.2369 18.2764 18.2618C18.2514 18.2868 18.2215 18.2968 18.189 18.2968C18.1566 18.2968 18.1241 18.2868 18.1016 18.2618ZM17.752 17.9122C17.727 17.8872 17.717 17.8573 17.717 17.8248C17.717 17.7923 17.7295 17.7624 17.752 17.7374C17.7994 17.69 17.8794 17.69 17.9268 17.7374C17.9518 17.7624 17.9643 17.7923 17.9643 17.8248C17.9643 17.8573 17.9518 17.8872 17.9268 17.9122C17.9018 17.9372 17.8719 17.9497 17.8394 17.9497C17.8069 17.9497 17.777 17.9372 17.752 17.9122ZM17.4024 17.5651C17.3774 17.5401 17.3649 17.5102 17.3649 17.4777C17.3649 17.4452 17.3774 17.4153 17.4024 17.3903C17.4498 17.3428 17.5297 17.3428 17.5772 17.3903C17.6021 17.4153 17.6121 17.4452 17.6121 17.4777C17.6121 17.5102 17.5997 17.5401 17.5772 17.5651C17.5522 17.5901 17.5222 17.6001 17.4898 17.6001C17.4598 17.6001 17.4273 17.5876 17.4024 17.5651ZM17.0527 17.2155C17.0278 17.1905 17.0153 17.1605 17.0153 17.1281C17.0153 17.0956 17.0278 17.0656 17.0527 17.0407C17.1002 16.9932 17.1801 16.9932 17.2276 17.0407C17.2525 17.0656 17.265 17.0956 17.265 17.1281C17.265 17.1605 17.2525 17.1905 17.2276 17.2155C17.2026 17.2404 17.1726 17.2529 17.1401 17.2529C17.1102 17.2504 17.0777 17.2379 17.0527 17.2155ZM16.7056 16.8658C16.6806 16.8409 16.6682 16.8109 16.6682 16.7784C16.6682 16.746 16.6806 16.716 16.7056 16.691C16.7531 16.6436 16.8305 16.6436 16.8804 16.691C16.9054 16.716 16.9179 16.746 16.9179 16.7784C16.9179 16.8109 16.9054 16.8409 16.8804 16.8658C16.8555 16.8908 16.8255 16.9033 16.793 16.9033C16.7606 16.9033 16.7281 16.8908 16.7056 16.8658ZM16.356 16.5187C16.331 16.4938 16.3185 16.4638 16.3185 16.4313C16.3185 16.3989 16.331 16.3689 16.356 16.3439C16.4034 16.2965 16.4809 16.2965 16.5308 16.3439C16.5558 16.3689 16.5683 16.3989 16.5683 16.4313C16.5683 16.4638 16.5558 16.4938 16.5308 16.5187C16.5058 16.5437 16.4759 16.5537 16.4434 16.5537C16.4109 16.5537 16.381 16.5412 16.356 16.5187ZM16.0064 16.1691C15.9814 16.1441 15.9714 16.1142 15.9714 16.0817C15.9714 16.0492 15.9839 16.0193 16.0064 15.9943C16.0538 15.9468 16.1337 15.9468 16.1812 15.9943C16.2062 16.0193 16.2186 16.0492 16.2186 16.0817C16.2186 16.1142 16.2062 16.1441 16.1812 16.1691C16.1562 16.1941 16.1262 16.2066 16.0938 16.2066C16.0638 16.2041 16.0313 16.1916 16.0064 16.1691ZM15.6593 15.8195C15.6343 15.7945 15.6243 15.7645 15.6243 15.7321C15.6243 15.6996 15.6368 15.6696 15.6593 15.6447C15.7067 15.5972 15.7866 15.5972 15.8341 15.6447C15.859 15.6696 15.8715 15.6996 15.8715 15.7321C15.8715 15.7645 15.859 15.7945 15.8341 15.8195C15.8091 15.8445 15.7791 15.8569 15.7467 15.8569C15.7142 15.8544 15.6817 15.8445 15.6593 15.8195ZM15.3096 15.4699C15.2847 15.4449 15.2722 15.4149 15.2722 15.3825C15.2722 15.35 15.2847 15.32 15.3096 15.295C15.3571 15.2476 15.437 15.2476 15.4844 15.295C15.5094 15.32 15.5194 15.35 15.5194 15.3825C15.5194 15.4149 15.5069 15.4449 15.4844 15.4699C15.4595 15.4948 15.4295 15.5073 15.397 15.5073C15.3646 15.5073 15.3321 15.4948 15.3096 15.4699ZM14.96 15.1227C14.935 15.0978 14.9225 15.0678 14.9225 15.0353C14.9225 15.0029 14.935 14.9729 14.96 14.9479C15.0075 14.9005 15.0874 14.9005 15.1348 14.9479C15.1598 14.9729 15.1723 15.0029 15.1723 15.0353C15.1723 15.0678 15.1598 15.0978 15.1348 15.1227C15.1098 15.1477 15.0799 15.1602 15.0474 15.1602C15.0149 15.1577 14.985 15.1452 14.96 15.1227ZM14.6129 14.7731C14.5879 14.7481 14.5754 14.7182 14.5754 14.6857C14.5754 14.6532 14.5879 14.6233 14.6129 14.5983C14.6603 14.5509 14.7377 14.5509 14.7877 14.5983C14.8127 14.6233 14.8252 14.6532 14.8252 14.6857C14.8252 14.7182 14.8127 14.7481 14.7877 14.7731C14.7627 14.7981 14.7328 14.8081 14.7003 14.8081C14.6678 14.8081 14.6354 14.7956 14.6129 14.7731ZM14.2633 14.4235C14.2383 14.3985 14.2283 14.3686 14.2283 14.3361C14.2283 14.3036 14.2408 14.2737 14.2633 14.2487C14.3107 14.2012 14.3906 14.2012 14.4381 14.2487C14.463 14.2737 14.4755 14.3036 14.4755 14.3361C14.4755 14.3686 14.463 14.3985 14.4381 14.4235C14.4131 14.4485 14.3831 14.4585 14.3507 14.4585C14.3182 14.461 14.2857 14.4485 14.2633 14.4235ZM13.9136 14.0739C13.8887 14.0489 13.8787 14.0189 13.8787 13.9865C13.8787 13.954 13.8912 13.924 13.9136 13.8991C13.9611 13.8516 14.041 13.8516 14.0884 13.8991C14.1134 13.924 14.1234 13.954 14.1234 13.9865C14.1234 14.0189 14.1109 14.0489 14.0884 14.0739C14.0635 14.0988 14.0335 14.1113 14.001 14.1113C13.9686 14.1113 13.9386 14.0988 13.9136 14.0739ZM13.564 13.7267C13.539 13.7018 13.5266 13.6718 13.5266 13.6393C13.5266 13.6069 13.539 13.5769 13.564 13.5519C13.6115 13.5045 13.6914 13.5045 13.7388 13.5519C13.7638 13.5769 13.7738 13.6069 13.7738 13.6393C13.7738 13.6718 13.7613 13.7018 13.7388 13.7267C13.7139 13.7517 13.6839 13.7642 13.6514 13.7642C13.6215 13.7617 13.589 13.7492 13.564 13.7267ZM13.2169 13.3771C13.1919 13.3522 13.1794 13.3222 13.1794 13.2897C13.1794 13.2573 13.1919 13.2273 13.2169 13.2023C13.2643 13.1549 13.3443 13.1549 13.3917 13.2023C13.4167 13.2273 13.4267 13.2573 13.4267 13.2897C13.4267 13.3222 13.4142 13.3522 13.3917 13.3771C13.3667 13.4021 13.3368 13.4121 13.3043 13.4121C13.2718 13.4121 13.2394 13.4021 13.2169 13.3771ZM12.8673 13.0275C12.8423 13.0025 12.8298 12.9726 12.8298 12.9401C12.8298 12.9076 12.8423 12.8777 12.8673 12.8527C12.9147 12.8052 12.9921 12.8052 13.0421 12.8527C13.0671 12.8777 13.0795 12.9076 13.0795 12.9401C13.0795 12.9726 13.0671 13.0025 13.0421 13.0275C13.0171 13.0525 12.9871 13.065 12.9547 13.065C12.9222 13.065 12.8897 13.0525 12.8673 13.0275ZM12.5176 12.6804C12.4927 12.6554 12.4827 12.6254 12.4827 12.593C12.4827 12.5605 12.4952 12.5305 12.5176 12.5056C12.5651 12.4581 12.645 12.4581 12.6925 12.5056C12.7174 12.5305 12.7299 12.5605 12.7299 12.593C12.7299 12.6254 12.7174 12.6554 12.6925 12.6804C12.6675 12.7054 12.6375 12.7153 12.6051 12.7153C12.5726 12.7153 12.5426 12.7029 12.5176 12.6804ZM12.168 12.3308C12.143 12.3058 12.1306 12.2758 12.1306 12.2434C12.1306 12.2109 12.143 12.1809 12.168 12.1559C12.2155 12.1085 12.2929 12.1085 12.3428 12.1559C12.3678 12.1809 12.3778 12.2109 12.3778 12.2434C12.3778 12.2758 12.3653 12.3058 12.3428 12.3308C12.3179 12.3557 12.2879 12.3657 12.2554 12.3657C12.2255 12.3657 12.193 12.3532 12.168 12.3308ZM11.8209 11.9811C11.7959 11.9562 11.7859 11.9262 11.7859 11.8937C11.7859 11.8613 11.7984 11.8313 11.8209 11.8063C11.8683 11.7589 11.9483 11.7589 11.9957 11.8063C12.0207 11.8313 12.0332 11.8613 12.0332 11.8937C12.0332 11.9262 12.0207 11.9562 11.9957 11.9811C11.9707 12.0061 11.9408 12.0186 11.9083 12.0186C11.8758 12.0186 11.8434 12.0061 11.8209 11.9811ZM11.4713 11.6315C11.4463 11.6065 11.4363 11.5766 11.4363 11.5441C11.4363 11.5116 11.4488 11.4817 11.4713 11.4567C11.5187 11.4093 11.5986 11.4093 11.6461 11.4567C11.6711 11.4817 11.681 11.5116 11.681 11.5441C11.681 11.5766 11.6686 11.6065 11.6461 11.6315C11.6211 11.6565 11.5911 11.669 11.5587 11.669C11.5262 11.669 11.4962 11.6565 11.4713 11.6315ZM11.1217 11.2844C11.0967 11.2594 11.0842 11.2294 11.0842 11.197C11.0842 11.1645 11.0967 11.1346 11.1217 11.1096C11.1691 11.0621 11.249 11.0621 11.2965 11.1096C11.3214 11.1346 11.3314 11.1645 11.3314 11.197C11.3314 11.2294 11.3189 11.2594 11.2965 11.2844C11.2715 11.3094 11.2415 11.3194 11.2091 11.3194C11.1791 11.3194 11.1466 11.3069 11.1217 11.2844ZM10.7745 10.9348C10.7496 10.9098 10.7396 10.8798 10.7396 10.8474C10.7396 10.8149 10.7521 10.7849 10.7745 10.76C10.822 10.7125 10.9019 10.7125 10.9493 10.76C10.9743 10.7849 10.9868 10.8149 10.9868 10.8474C10.9868 10.8798 10.9743 10.9098 10.9493 10.9348C10.9244 10.9597 10.8944 10.9697 10.8619 10.9697C10.8295 10.9697 10.797 10.9597 10.7745 10.9348ZM10.4249 10.5851C10.3999 10.5602 10.3874 10.5302 10.3874 10.4977C10.3874 10.4653 10.3999 10.4353 10.4249 10.4103C10.4724 10.3629 10.5498 10.3629 10.5997 10.4103C10.6247 10.4353 10.6347 10.4653 10.6347 10.4977C10.6347 10.5302 10.6222 10.5602 10.5997 10.5851C10.5747 10.6101 10.5448 10.6226 10.5123 10.6226C10.4798 10.6226 10.4499 10.6101 10.4249 10.5851ZM10.0753 10.2355C10.0503 10.2106 10.0403 10.1806 10.0403 10.1481C10.0403 10.1157 10.0528 10.0857 10.0753 10.0607C10.1227 10.0133 10.2026 10.0133 10.2501 10.0607C10.2751 10.0857 10.2876 10.1157 10.2876 10.1481C10.2876 10.1806 10.2751 10.2106 10.2501 10.2355C10.2251 10.2605 10.1952 10.2705 10.1627 10.2705C10.1302 10.273 10.1003 10.2605 10.0753 10.2355ZM9.72566 9.8884C9.70069 9.86343 9.6882 9.83346 9.6882 9.80099C9.6882 9.76853 9.70069 9.73856 9.72566 9.71359C9.77311 9.66614 9.85302 9.66614 9.90047 9.71359C9.92545 9.73856 9.93544 9.76853 9.93544 9.80099C9.93544 9.83346 9.92295 9.86343 9.90047 9.8884C9.8755 9.91337 9.84553 9.92586 9.81307 9.92586C9.7831 9.92336 9.75063 9.91088 9.72566 9.8884ZM9.37854 9.53878C9.35356 9.51381 9.34357 9.48384 9.34357 9.45137C9.34357 9.41891 9.35606 9.38894 9.37854 9.36397C9.42599 9.31652 9.5059 9.31652 9.55335 9.36397C9.57832 9.38894 9.59081 9.41891 9.59081 9.45137C9.59081 9.48384 9.57832 9.51381 9.55335 9.53878C9.52837 9.56375 9.49841 9.57374 9.46594 9.57374C9.43348 9.57624 9.40101 9.56375 9.37854 9.53878ZM9.02891 9.18916C9.00394 9.16418 8.99146 9.13422 8.99146 9.10175C8.99146 9.06929 9.00394 9.03932 9.02891 9.01435C9.07636 8.9669 9.15378 8.9669 9.20373 9.01435C9.2287 9.03932 9.23869 9.06929 9.23869 9.10175C9.23869 9.13422 9.2262 9.16418 9.20373 9.18916C9.17875 9.21413 9.14879 9.22662 9.11632 9.22662C9.08386 9.22662 9.05389 9.21413 9.02891 9.18916Z" fill="#0D0234"/>
<path d="M7.98241 20.0075C7.95744 19.9825 7.94745 19.9525 7.94745 19.92C7.94745 19.8876 7.95994 19.8576 7.98241 19.8326C8.02986 19.7852 8.10977 19.7852 8.15722 19.8326C8.18219 19.8576 8.19468 19.8876 8.19468 19.92C8.19468 19.9525 8.18219 19.9825 8.15722 20.0075C8.13225 20.0324 8.10228 20.0424 8.06982 20.0424C8.03735 20.0424 8.00489 20.0299 7.98241 20.0075ZM8.33203 19.6578C8.30706 19.6329 8.29457 19.6029 8.29457 19.5704C8.29457 19.538 8.30706 19.508 8.33203 19.483C8.37948 19.4356 8.45939 19.4356 8.50684 19.483C8.53182 19.508 8.5418 19.538 8.5418 19.5704C8.5418 19.6029 8.52932 19.6329 8.50684 19.6578C8.48187 19.6828 8.4519 19.6928 8.41944 19.6928C8.38697 19.6928 8.35451 19.6828 8.33203 19.6578ZM8.67916 19.3082C8.65418 19.2832 8.64419 19.2533 8.64419 19.2208C8.64419 19.1883 8.65668 19.1584 8.67916 19.1334C8.7266 19.0859 8.80652 19.0859 8.85397 19.1334C8.87894 19.1584 8.88893 19.1883 8.88893 19.2208C8.88893 19.2533 8.87644 19.2832 8.85397 19.3082C8.82899 19.3332 8.79903 19.3457 8.76656 19.3457C8.73659 19.3457 8.70413 19.3332 8.67916 19.3082ZM9.02878 18.9586C9.0038 18.9336 8.99381 18.9036 8.99381 18.8712C8.99381 18.8387 9.0063 18.8087 9.02878 18.7838C9.07623 18.7363 9.15614 18.7363 9.20359 18.7838C9.22856 18.8087 9.24105 18.8387 9.24105 18.8712C9.24105 18.9036 9.22856 18.9336 9.20359 18.9586C9.17861 18.9836 9.14865 18.996 9.11618 18.996C9.08372 18.996 9.05375 18.9836 9.02878 18.9586ZM9.3784 18.6115C9.35342 18.5865 9.34094 18.5565 9.34094 18.5241C9.34094 18.4916 9.35342 18.4616 9.3784 18.4366C9.42585 18.3892 9.50326 18.3892 9.55321 18.4366C9.57818 18.4616 9.59067 18.4916 9.59067 18.5241C9.59067 18.5565 9.57818 18.5865 9.55321 18.6115C9.52824 18.6364 9.49827 18.6464 9.4658 18.6464C9.43334 18.6464 9.40087 18.6339 9.3784 18.6115ZM9.72552 18.2618C9.70055 18.2369 9.69056 18.2069 9.69056 18.1744C9.69056 18.142 9.70305 18.112 9.72552 18.087C9.77297 18.0396 9.85288 18.0396 9.90033 18.087C9.92531 18.112 9.93779 18.142 9.93779 18.1744C9.93779 18.2069 9.92531 18.2369 9.90033 18.2618C9.87536 18.2868 9.84539 18.2968 9.81293 18.2968C9.78296 18.2968 9.75049 18.2868 9.72552 18.2618ZM10.0751 17.9122C10.0502 17.8872 10.0377 17.8573 10.0377 17.8248C10.0377 17.7923 10.0502 17.7624 10.0751 17.7374C10.1226 17.69 10.2025 17.69 10.25 17.7374C10.2749 17.7624 10.2849 17.7923 10.2849 17.8248C10.2849 17.8573 10.2724 17.8872 10.25 17.9122C10.225 17.9372 10.195 17.9497 10.1625 17.9497C10.1301 17.9497 10.1001 17.9372 10.0751 17.9122ZM10.4248 17.5651C10.3998 17.5401 10.3873 17.5102 10.3873 17.4777C10.3873 17.4452 10.3998 17.4153 10.4248 17.3903C10.4722 17.3428 10.5521 17.3428 10.5996 17.3903C10.6245 17.4153 10.637 17.4452 10.637 17.4777C10.637 17.5102 10.6245 17.5401 10.5996 17.5651C10.5746 17.5901 10.5446 17.6001 10.5122 17.6001C10.4797 17.6001 10.4497 17.5876 10.4248 17.5651ZM10.7744 17.2155C10.7494 17.1905 10.7394 17.1605 10.7394 17.1281C10.7394 17.0956 10.7519 17.0656 10.7744 17.0407C10.8218 16.9932 10.9017 16.9932 10.9492 17.0407C10.9742 17.0656 10.9842 17.0956 10.9842 17.1281C10.9842 17.1605 10.9717 17.1905 10.9492 17.2155C10.9242 17.2404 10.8943 17.2529 10.8618 17.2529C10.8293 17.2504 10.7969 17.2379 10.7744 17.2155ZM11.1215 16.8658C11.0965 16.8409 11.0865 16.8109 11.0865 16.7784C11.0865 16.746 11.099 16.716 11.1215 16.691C11.169 16.6436 11.2489 16.6436 11.2963 16.691C11.3213 16.716 11.3338 16.746 11.3338 16.7784C11.3338 16.8109 11.3213 16.8409 11.2963 16.8658C11.2713 16.8908 11.2414 16.9033 11.2089 16.9033C11.1789 16.9033 11.1465 16.8908 11.1215 16.8658ZM11.4711 16.5187C11.4462 16.4937 11.4337 16.4638 11.4337 16.4313C11.4337 16.3989 11.4462 16.3689 11.4711 16.3439C11.5186 16.2965 11.596 16.2965 11.6459 16.3439C11.6709 16.3689 11.6809 16.3989 11.6809 16.4313C11.6809 16.4638 11.6684 16.4937 11.6459 16.5187C11.621 16.5437 11.591 16.5537 11.5585 16.5537C11.5261 16.5537 11.4961 16.5412 11.4711 16.5187ZM11.8208 16.1691C11.7958 16.1441 11.7858 16.1142 11.7858 16.0817C11.7858 16.0492 11.7983 16.0193 11.8208 15.9943C11.8682 15.9468 11.9481 15.9468 11.9956 15.9943C12.0205 16.0193 12.0305 16.0492 12.0305 16.0817C12.0305 16.1142 12.018 16.1441 11.9956 16.1691C11.9706 16.1941 11.9406 16.2066 11.9082 16.2066C11.8757 16.2041 11.8432 16.1916 11.8208 16.1691ZM12.1679 15.8195C12.1429 15.7945 12.1304 15.7645 12.1304 15.7321C12.1304 15.6996 12.1429 15.6696 12.1679 15.6447C12.2153 15.5972 12.2952 15.5972 12.3427 15.6447C12.3677 15.6696 12.3776 15.6996 12.3776 15.7321C12.3776 15.7645 12.3652 15.7945 12.3427 15.8195C12.3177 15.8444 12.2877 15.8569 12.2553 15.8569C12.2253 15.8544 12.1928 15.8444 12.1679 15.8195ZM12.5175 15.4699C12.4925 15.4449 12.4825 15.4149 12.4825 15.3824C12.4825 15.35 12.495 15.32 12.5175 15.295C12.5649 15.2476 12.6449 15.2476 12.6923 15.295C12.7173 15.32 12.7298 15.35 12.7298 15.3824C12.7298 15.4149 12.7173 15.4449 12.6923 15.4699C12.6673 15.4948 12.6374 15.5073 12.6049 15.5073C12.5724 15.5073 12.5425 15.4948 12.5175 15.4699ZM12.8671 15.1227C12.8421 15.0978 12.8322 15.0678 12.8322 15.0353C12.8322 15.0029 12.8446 14.9729 12.8671 14.9479C12.9146 14.9005 12.9945 14.9005 13.0419 14.9479C13.0669 14.9729 13.0794 15.0029 13.0794 15.0353C13.0794 15.0678 13.0669 15.0978 13.0419 15.1227C13.017 15.1477 12.987 15.1602 12.9545 15.1602C12.9221 15.1577 12.8921 15.1452 12.8671 15.1227ZM13.2167 14.7731C13.1918 14.7481 13.1793 14.7182 13.1793 14.6857C13.1793 14.6532 13.1918 14.6233 13.2167 14.5983C13.2642 14.5508 13.3416 14.5508 13.3915 14.5983C13.4165 14.6233 13.429 14.6532 13.429 14.6857C13.429 14.7182 13.4165 14.7481 13.3915 14.7731C13.3666 14.7981 13.3366 14.8081 13.3041 14.8081C13.2717 14.8081 13.2392 14.7956 13.2167 14.7731ZM13.5639 14.4235C13.5389 14.3985 13.5264 14.3685 13.5264 14.3361C13.5264 14.3036 13.5389 14.2736 13.5639 14.2487C13.6113 14.2012 13.6887 14.2012 13.7387 14.2487C13.7636 14.2736 13.7736 14.3036 13.7736 14.3361C13.7736 14.3685 13.7611 14.3985 13.7387 14.4235C13.7137 14.4485 13.6837 14.4584 13.6513 14.4584C13.6213 14.4609 13.5888 14.4485 13.5639 14.4235ZM13.9135 14.0739C13.8885 14.0489 13.8785 14.0189 13.8785 13.9865C13.8785 13.954 13.891 13.924 13.9135 13.8991C13.9609 13.8516 14.0408 13.8516 14.0883 13.8991C14.1133 13.924 14.1233 13.954 14.1233 13.9865C14.1233 14.0189 14.1108 14.0489 14.0883 14.0739C14.0633 14.0988 14.0334 14.1113 14.0009 14.1113C13.9684 14.1113 13.9385 14.0988 13.9135 14.0739ZM14.2631 13.7267C14.2381 13.7018 14.2281 13.6718 14.2281 13.6393C14.2281 13.6069 14.2406 13.5769 14.2631 13.5519C14.3106 13.5045 14.3905 13.5045 14.4379 13.5519C14.4629 13.5769 14.4729 13.6069 14.4729 13.6393C14.4729 13.6718 14.4604 13.7018 14.4379 13.7267C14.4129 13.7517 14.383 13.7642 14.3505 13.7642C14.318 13.7617 14.2881 13.7492 14.2631 13.7267ZM14.6127 13.3771C14.5878 13.3521 14.5778 13.3222 14.5778 13.2897C14.5778 13.2572 14.5903 13.2273 14.6127 13.2023C14.6602 13.1549 14.7401 13.1549 14.7875 13.2023C14.8125 13.2273 14.825 13.2572 14.825 13.2897C14.825 13.3222 14.8125 13.3521 14.7875 13.3771C14.7626 13.4021 14.7326 13.4121 14.7001 13.4121C14.6677 13.4121 14.6352 13.4021 14.6127 13.3771ZM14.9599 13.0275C14.9349 13.0025 14.9224 12.9726 14.9224 12.9401C14.9224 12.9076 14.9349 12.8777 14.9599 12.8527C15.0073 12.8052 15.0847 12.8052 15.1347 12.8527C15.1596 12.8777 15.1696 12.9076 15.1696 12.9401C15.1696 12.9726 15.1571 13.0025 15.1347 13.0275C15.1097 13.0525 15.0797 13.0625 15.0473 13.0625C15.0148 13.065 14.9848 13.0525 14.9599 13.0275ZM15.3095 12.6804C15.2845 12.6554 15.2745 12.6254 15.2745 12.593C15.2745 12.5605 15.287 12.5305 15.3095 12.5056C15.3569 12.4581 15.4368 12.4581 15.4843 12.5056C15.5093 12.5305 15.5217 12.5605 15.5217 12.593C15.5217 12.6254 15.5093 12.6554 15.4843 12.6804C15.4593 12.7053 15.4293 12.7153 15.3969 12.7153C15.3644 12.7153 15.3344 12.7028 15.3095 12.6804ZM15.6591 12.3307C15.6341 12.3058 15.6216 12.2758 15.6216 12.2433C15.6216 12.2109 15.6341 12.1809 15.6591 12.1559C15.7065 12.1085 15.7865 12.1085 15.8339 12.1559C15.8589 12.1809 15.8714 12.2109 15.8714 12.2433C15.8714 12.2758 15.8589 12.3058 15.8339 12.3307C15.8089 12.3557 15.779 12.3682 15.7465 12.3682C15.714 12.3657 15.6816 12.3532 15.6591 12.3307ZM16.0062 11.9811C15.9812 11.9562 15.9688 11.9262 15.9688 11.8937C15.9688 11.8613 15.9812 11.8313 16.0062 11.8063C16.0537 11.7589 16.1336 11.7589 16.181 11.8063C16.206 11.8313 16.216 11.8613 16.216 11.8937C16.216 11.9262 16.2035 11.9562 16.181 11.9811C16.1561 12.0061 16.1261 12.0186 16.0936 12.0186C16.0637 12.0186 16.0312 12.0061 16.0062 11.9811ZM16.3558 11.6315C16.3309 11.6065 16.3209 11.5766 16.3209 11.5441C16.3209 11.5116 16.3334 11.4817 16.3558 11.4567C16.4033 11.4092 16.4832 11.4092 16.5306 11.4567C16.5556 11.4817 16.5681 11.5116 16.5681 11.5441C16.5681 11.5766 16.5556 11.6065 16.5306 11.6315C16.5057 11.6565 16.4757 11.669 16.4432 11.669C16.4108 11.669 16.3808 11.6565 16.3558 11.6315ZM16.7055 11.2844C16.6805 11.2594 16.668 11.2294 16.668 11.197C16.668 11.1645 16.6805 11.1345 16.7055 11.1096C16.7529 11.0621 16.8303 11.0621 16.8803 11.1096C16.9052 11.1345 16.9177 11.1645 16.9177 11.197C16.9177 11.2294 16.9052 11.2594 16.8803 11.2844C16.8553 11.3094 16.8253 11.3193 16.7929 11.3193C16.7604 11.3193 16.7279 11.3069 16.7055 11.2844ZM17.0551 10.9348C17.0301 10.9098 17.0176 10.8798 17.0176 10.8473C17.0176 10.8149 17.0301 10.7849 17.0551 10.7599C17.1025 10.7125 17.1799 10.7125 17.2299 10.7599C17.2549 10.7849 17.2649 10.8149 17.2649 10.8473C17.2649 10.8798 17.2524 10.9098 17.2299 10.9348C17.2049 10.9597 17.1749 10.9697 17.1425 10.9697C17.11 10.9697 17.0776 10.9597 17.0551 10.9348ZM17.4022 10.5851C17.3772 10.5602 17.3672 10.5302 17.3672 10.4977C17.3672 10.4653 17.3797 10.4353 17.4022 10.4103C17.4497 10.3629 17.5296 10.3629 17.577 10.4103C17.602 10.4353 17.6145 10.4653 17.6145 10.4977C17.6145 10.5302 17.602 10.5602 17.577 10.5851C17.552 10.6101 17.5221 10.6226 17.4896 10.6226C17.4596 10.6226 17.4272 10.6101 17.4022 10.5851ZM17.7518 10.2355C17.7269 10.2105 17.7144 10.1806 17.7144 10.1481C17.7144 10.1156 17.7269 10.0857 17.7518 10.0607C17.7993 10.0133 17.8792 10.0133 17.9266 10.0607C17.9516 10.0857 17.9616 10.1156 17.9616 10.1481C17.9616 10.1806 17.9491 10.2105 17.9266 10.2355C17.9017 10.2605 17.8717 10.2705 17.8392 10.2705C17.8068 10.273 17.7768 10.2605 17.7518 10.2355ZM18.1014 9.88838C18.0765 9.86341 18.0665 9.83344 18.0665 9.80098C18.0665 9.76851 18.079 9.73855 18.1014 9.71357C18.1489 9.66612 18.2288 9.66612 18.2763 9.71357C18.3012 9.73855 18.3112 9.76851 18.3112 9.80098C18.3112 9.83344 18.2987 9.86341 18.2763 9.88838C18.2513 9.91336 18.2213 9.92584 18.1889 9.92584C18.1564 9.92335 18.1239 9.91086 18.1014 9.88838ZM18.4486 9.53876C18.4236 9.51379 18.4136 9.48382 18.4136 9.45136C18.4136 9.41889 18.4261 9.38892 18.4486 9.36395C18.496 9.3165 18.5759 9.3165 18.6234 9.36395C18.6484 9.38892 18.6608 9.41889 18.6608 9.45136C18.6608 9.48382 18.6484 9.51379 18.6234 9.53876C18.5984 9.56374 18.5684 9.57373 18.536 9.57373C18.506 9.57622 18.4735 9.56374 18.4486 9.53876ZM18.7982 9.18914C18.7732 9.16417 18.7607 9.1342 18.7607 9.10173C18.7607 9.06927 18.7732 9.0393 18.7982 9.01433C18.8456 8.96688 18.9231 8.96688 18.973 9.01433C18.998 9.0393 19.0105 9.06927 19.0105 9.10173C19.0105 9.1342 18.998 9.16417 18.973 9.18914C18.948 9.21411 18.9181 9.2266 18.8856 9.2266C18.8531 9.2266 18.8232 9.21411 18.7982 9.18914ZM19.1478 8.84202C19.1228 8.81704 19.1104 8.78707 19.1104 8.75461C19.1104 8.72214 19.1228 8.69218 19.1478 8.6672C19.1953 8.61976 19.2752 8.61976 19.3226 8.6672C19.3476 8.69218 19.3601 8.72214 19.3601 8.75461C19.3601 8.78707 19.3476 8.81704 19.3226 8.84202C19.2976 8.86699 19.2677 8.87698 19.2352 8.87698C19.2028 8.87698 19.1703 8.86449 19.1478 8.84202ZM19.4974 8.49239C19.4725 8.46742 19.46 8.43745 19.46 8.40499C19.46 8.37252 19.4725 8.34255 19.4974 8.31758C19.5449 8.27013 19.6248 8.27013 19.6722 8.31758C19.6972 8.34255 19.7072 8.37252 19.7072 8.40499C19.7072 8.43745 19.6947 8.46742 19.6722 8.49239C19.6473 8.51737 19.6173 8.52736 19.5848 8.52736C19.5524 8.52736 19.5199 8.51737 19.4974 8.49239ZM19.8446 8.14277C19.7971 8.09532 19.7971 8.01541 19.8446 7.96796C19.892 7.92051 19.9719 7.92051 20.0194 7.96796C20.0668 8.01541 20.0668 8.09282 20.0194 8.14277C19.9944 8.16774 19.9644 8.17773 19.932 8.17773C19.902 8.18023 19.8695 8.16774 19.8446 8.14277Z" fill="#0D0234"/>
<path d="M19.939 21.0689C20.5748 21.0689 21.0902 20.5534 21.0902 19.9176C21.0902 19.2818 20.5748 18.7664 19.939 18.7664C19.3032 18.7664 18.7877 19.2818 18.7877 19.9176C18.7877 20.5534 19.3032 21.0689 19.939 21.0689Z" fill="#0D0234"/>
<path d="M8.07686 21.0713C8.71268 21.0713 9.22812 20.5559 9.22812 19.9201C9.22812 19.2842 8.71268 18.7688 8.07686 18.7688C7.44103 18.7688 6.9256 19.2842 6.9256 19.9201C6.9256 20.5559 7.44103 21.0713 8.07686 21.0713Z" fill="#0D0234"/>
<path d="M19.9493 9.19667C20.5851 9.19667 21.1005 8.68124 21.1005 8.04542C21.1005 7.4096 20.5851 6.89417 19.9493 6.89417C19.3135 6.89417 18.798 7.4096 18.798 8.04542C18.798 8.68124 19.3135 9.19667 19.9493 9.19667Z" fill="#0D0234"/>
<path d="M8.04694 9.17678C8.68276 9.17678 9.1982 8.66134 9.1982 8.02552C9.1982 7.3897 8.68276 6.87427 8.04694 6.87427C7.41112 6.87427 6.89569 7.3897 6.89569 8.02552C6.89569 8.66134 7.41112 9.17678 8.04694 9.17678Z" fill="#0D0234"/>
</svg>
