<svg width="28" height="28" viewBox="0 0 28 28" fill="none" xmlns="http://www.w3.org/2000/svg">
<circle cx="14" cy="14" r="14" fill="#627EEA"/>
<g clip-path="url(#clip0_1838_3128)">
<path opacity="0.85" d="M8.18994 14.1618L14.1798 17.6466V4.375L8.18994 14.1618Z" fill="white"/>
<path opacity="0.8" d="M14.1792 4.375V17.6466L20.1667 14.1618L14.1792 4.375Z" fill="#C0CBF6"/>
<path d="M14.1798 11.4789L8.18994 14.1615L14.1798 17.6463L20.1672 14.1615L14.1798 11.4789Z" fill="#C0CBF6"/>
<path d="M14.1798 11.4789L8.18994 14.1615L14.1798 17.6463L20.1672 14.1615L14.1798 11.4789Z" fill="#C0CBF6"/>
<path d="M14.1797 11.4789L14.1801 14.1615L14.1797 17.6463L20.1672 14.1615L14.1797 11.4789Z" fill="#C0CBF6"/>
<path d="M14.1797 11.4789L14.1801 14.1615L14.1797 17.6463L20.1672 14.1615L14.1797 11.4789Z" fill="#8197EE"/>
<path d="M8.18994 15.2794L14.1798 23.5893V18.7643L8.18994 15.2794Z" fill="#E7ECFC"/>
<path d="M14.1792 18.7643V23.5893L20.1714 15.2794L14.1792 18.7643Z" fill="#C0CBF6"/>
</g>
<defs>
<clipPath id="clip0_1838_3128">
<rect width="16.17" height="19.25" fill="white" transform="translate(6.125 4.375)"/>
</clipPath>
</defs>
</svg>
