<svg width="28" height="28" viewBox="0 0 28 28" fill="none" xmlns="http://www.w3.org/2000/svg">
<circle cx="14" cy="14" r="14" fill="white"/>
<g clip-path="url(#clip0_17_903)">
<path d="M15.9214 10.1721C15.9214 7.46793 14.6128 5.13816 13.6106 4.37544C13.6106 4.37544 13.541 4.33384 13.541 4.44478C13.4574 9.67289 10.7986 11.1013 9.32308 13.0011C5.94041 17.411 9.08643 22.237 12.2881 23.1245C14.0839 23.6238 11.8705 22.237 11.5921 19.3248C11.258 15.7885 15.9214 13.0982 15.9214 10.1721Z" fill="#282E5B"/>
<path d="M17.6747 11.9606C17.6607 11.9467 17.6329 11.9467 17.6051 11.9606C17.6051 11.9606 17.6051 11.9606 17.5911 11.9745C17.5355 12.6262 16.8116 14.0407 15.9068 15.3304C12.8304 19.7126 14.5843 21.8205 15.5727 22.9576C16.1434 23.6233 15.5727 22.9577 17.0065 22.2781C17.1179 22.2227 19.7906 20.8082 20.0829 17.6047C20.3752 14.4845 18.3846 12.5292 17.6747 11.9606Z" fill="#059BDC"/>
</g>
<defs>
<clipPath id="clip0_17_903">
<rect width="12.25" height="18.8462" fill="white" transform="translate(7.875 4.375)"/>
</clipPath>
</defs>
</svg>
